<?xml version="1.0" encoding="UTF-8"?>
<!-- source: compass-n-s.svg -->
<svg xmlns="http://www.w3.org/2000/svg" viewBox="0 0 1000 1000" width="1000" height="1000">
  <path d="M382.5284815507567 475.45995578983167 248.11596667233465 496.793062404353V503.62523380377485C248.11596667233465 503.62523380377485 382.5284815507567 524.2611800714164 382.5284815507567 524.2611800714164C393.9619112395851 581.2888964461827 444.2968882843054 624.5128379527291 504.6709743240946 624.5128379527291C565.0450603638837 624.5128379527291 615.380037408604 582.4043530011903 626.8134670974324 524.2611800714164L761.0865499064786 503.7646658731508V496.9324944737289C761.0865499064786 496.9324944737289 626.6740350280564 475.4599557898316 626.6740350280564 475.4599557898316C615.1011732698521 417.45621492943377 564.069035878252 375.48716204727083 504.53154225471866 375.48716204727083C444.9940486311853 375.48716204727083 393.8224791702092 418.5716714844414 382.3890494813808 475.5993878592076L382.5284815507567 475.45995578983167ZM504.5315422547186 617.5412344839314C448.4798503655841 617.5412344839314 401.49124298588674 578.0819588505357 389.77894915830643 525.5160686958001L503.9738139772147 543.0845094371706L619.2841353511307 525.5160686958001C607.4324094541744 579.0579833361674 559.7466417275973 617.6806665533073 504.5315422547185 617.6806665533073L504.5315422547186 617.5412344839314ZM737.9408263900697 500.13943206937597 504.5315422547186 535.9734738989968V462.7716374766196L737.9408263900697 500.13943206937597ZM619.2841353511308 474.0656350960721 505.2287026015984 455.8000340078218 390.0578132970584 474.20506716544804C401.77010712463874 421.63917701071244 448.75871450433607 382.3193334466927 504.6709743240946 382.3193334466927C560.5832341438531 382.3193334466927 607.2929773847985 420.66315252508076 619.2841353511308 474.0656350960721ZM107.70787281074647 460.81958850535625H109.93878592076177L143.8207787791192 554.517939125999H174.2169699030777V445.34262880462506H156.50909709233122V538.9015473558918H153.99931984356402L120.95391940146234 445.34262880462506H90.0V554.517939125999H107.70787281074647V460.81958850535625ZM878.9066485291617 491.07634755993877C860.2227512327835 485.9173609930284 854.5060363883694 483.54701581363713 854.5060363883694 473.36847474919233C854.5060363883694 464.02652610100324 861.3382077877912 459.14640367284477 874.7236864478831 459.14640367284477C883.9262030266962 459.14640367284477 906.2353341268492 461.65618092161196 906.2353341268492 461.65618092161196L907.6296548206087 447.2946777758885C907.6296548206087 447.2946777758885 886.8542764835912 443.53001190273767 873.0505016153716 443.53001190273767C851.1596667233464 443.53001190273767 836.658731508247 452.5930964121748 836.658731508247 474.62336337357596C836.658731508247 493.586124808706 846.8372725726917 500.6971603468798 870.4012922972285 506.8321713994219C887.1331406223433 510.8757014113246 892.0132630505017 513.9432069375957 892.0132630505017 523.2851555857848C892.0132630505017 534.7185852746131 885.7388199285836 540.8535963271553 872.2139091991158 540.8535963271553C860.9199115796633 540.8535963271553 839.4473728957661 537.9255228702601 839.4473728957661 537.9255228702601L837.7741880632547 552.1475939466077C837.7741880632547 552.1475939466077 859.2467267471519 556.4699880972623 873.4687978234995 556.4699880972623C894.9413365073967 556.4699880972623 910.0 546.1520149634416 910.0 522.1696990307771C910.0 503.48580173439893 901.7735079068186 497.4902227512328 878.7672164597858 491.07634755993877H878.9066485291617Z" fill="#000000"/>
</svg>
