<?xml version="1.0" encoding="UTF-8"?>
<!-- source: eyes-only.svg (icon-only filtered) -->
<svg xmlns="http://www.w3.org/2000/svg" viewBox="0 0 1000 1000" width="1000" height="1000">
  <path d="M103.28703703703707 279.66066508921705 90.0 255.30109718798246C90.0 255.30109718798246 317.6195987654321 127.33427620032816 565.6442901234568 196.93304163242692C789.4675925925928 259.7301095336615 910.0 477.22625150897005 910.0 477.22625150897005L881.844135802469 493.518689780575C881.844135802469 493.518689780575 735.5285493827162 289.6259428669948 559.9498456790122 238.53412187934046C337.70833333333326 173.68072681761208 103.12885802469134 279.81884410156266 103.12885802469134 279.81884410156266M475.48225308641986 786.3080416324269C261.7824074074075 786.3080416324269 155.01157407407402 598.3913749657602 155.01157407407402 598.3913749657602C155.01157407407402 598.3913749657602 170.19675925925924 574.8227021262541 199.3016975308642 545.2432268176121C224.45216049382714 594.1205416324269 295.949074074074 697.8859737311923 429.452160493827 670.9955416324269C561.3734567901233 644.4214675583528 594.5910493827159 525.9453873114392 576.0841049382714 451.2848934842787C705.3163580246912 505.85665274353795 779.1859567901233 626.8635971879824 779.1859567901233 626.8635971879824C779.1859567901233 626.8635971879824 619.8996913580245 786.3080416324268 475.48225308641963 786.3080416324268M466.30787037037044 392.44230089168616C232.2029320987656 388.17146755835284 117.68132716049399 590.4824243484762 117.68132716049399 590.4824243484762L118.15586419753106 609.6220848423034C118.15586419753106 609.6220848423034 248.33719135802482 823.4801095336614 466.30787037037044 823.7964675583528C635.2430555555557 823.9546465706984 812.0871913580247 640.7833502744022 812.0871913580247 640.7833502744022V616.740140397859C812.0871913580247 616.740140397859 689.6566358024693 396.5549552126738 466.30787037037044 392.44230089168616" fill="#000000"/>
</svg>
