<?xml version="1.0" encoding="UTF-8"?>
<!-- source: mixed_x.svg -->
<svg xmlns="http://www.w3.org/2000/svg" viewBox="0 0 1000 1000" width="1000" height="1000">
  <path d="M220.6694960144488 294.33642632985556C224.67077268304894 433.277309270557 228.39609923657324 572.4941423263343 238.05435326422872 710.8831250368839C242.88348027805648 759.8642704628512 243.2974054506703 810.2251664641979 257.64681143461564 857.1366860270961C259.8544123552226 860.0341622353927 268.96076615272636 862.7936633861514 273.92786822409204 864.4493640766067C314.6305101977831 875.2114185645656 357.40277803454325 877.2810444276347 400.03707081376547 880.0405455783934C469.0245995827334 883.6278970743797 538.564028581853 883.9038471894556 607.551557350821 881.6962462688487C652.2554759931122 878.2468698304002 704.8239729150657 880.7304208660831 745.2506647736809 863.0696135012273C746.9063654641361 857.412636142172 749.389916499819 847.2024818843647 750.4937169601226 838.7860033745505C769.8102250154336 657.9007029423167 767.1886989222128 474.94577664701364 770.3621252455853 293.0946508120142C770.3621252455853 293.0946508120142 792.9900346818067 293.0946508120142 792.9900346818067 293.0946508120142C792.9900346818067 432.44945892532945 792.4381344516551 571.6662919811068 786.229256862448 711.2970502094978C782.3659552513857 764.6933974766789 783.6077307692271 818.2277198013982 769.6722499578955 870.7962167233517C759.0481705274744 907.7735321435185 642.3212718503808 904.600105820146 608.3794076960485 908.1874573161324C538.2880784667772 910.8089834093531 468.47269935258157 910.6710083518152 398.3813701233102 907.2216319133668C354.5053018262466 904.462130762608 309.38745801134155 902.3925048995391 265.9253148868918 890.9405751238903C254.74933522631892 887.0772735128281 245.64298142881518 885.4215728223729 236.39865257377346 874.9354684494898C232.53535096271128 870.2443164932 230.18977498456636 863.6215137313791 228.67204935164904 858.1025114298617C216.9441694609245 810.5011165792738 215.15049371293134 761.1060459806928 211.1492170443312 712.8147758424152C202.3188133619033 573.321992671562 198.73146186591697 434.1051596157847 197.48968634807554 294.75035150246947C197.48968634807554 294.75035150246947 220.53152095691084 294.4744013873936 220.53152095691084 294.4744013873936L220.6694960144488 294.33642632985556ZM362.7838052785228 365.53155601943047 377.5471364350819 773.6617762166447 349.9521249274947 774.4896265618725 340.707796072453 366.22143130712016 362.7838052785228 365.53155601943047ZM514.970293742866 347.45682348196084 519.6614456991558 791.7365087541144H492.06643419156865L496.8955612053964 347.45682348196084H514.970293742866ZM656.3947277192503 366.22143130712016 652.8073762232639 774.2136764467966 625.2123647156768 773.6617762166447 639.6997457571601 365.94548119204427 656.3947277192503 366.22143130712016ZM165.2035228841986 206.03238950557662C384.5838643695166 199.40958674375568 615.1401855154074 198.71971145606602 834.7964771158013 205.75643939050076C834.7964771158013 205.75643939050076 834.7964771158013 217.62229433876323 834.7964771158013 217.62229433876323C779.0545538704753 219.82989525937018 723.1746555676114 220.79572066213575 667.4327323222851 221.62357100736335C568.6425911251231 222.31344629505304 429.9776582994975 223.00332158274273 332.7052427352527 221.20964583474955C276.9633194899266 220.38179548952195 221.08342118706258 219.41597008675637 165.3414979417365 217.34634422368737V205.89441444803867L165.2035228841986 206.03238950557662ZM377.27118632000605 219.96787031690815 350.36605010010857 213.758992727701C352.29770090563966 205.34251421788696 370.2344583855713 130.83598314740158 394.656043569786 108.07009865364215C419.62952898415233 85.02826404480686 483.37400556667876 89.99536611617255 497.861386608162 91.51309174908984C508.2095159235072 91.09916657647604 573.6096931964887 91.65106680662778 600.1009042437724 106.13844784811104C628.6617411541251 121.72962934989779 643.8389974832983 192.9247590394727 647.8402741518983 214.31089295785276L620.6591878169249 219.27799502921846C613.6224598824904 181.33485420628608 598.3072284957793 136.49296050645694 586.8552987201306 130.2840829172498C570.9881671032681 121.59165429235985 522.9728470800662 118.55620302652525 497.17151132047235 118.97012819913907H495.65378568755506C468.6106744101196 116.07265199084242 425.28650634320775 117.1764524511459 413.28267633740734 128.3524321117187C399.48517058361375 141.0461374052088 383.7560140242891 191.26905834901746 377.13321126246814 219.9678703169081L377.27118632000605 219.96787031690815Z" fill="#000000"/>
</svg>
