<?xml version="1.0" encoding="UTF-8"?>
<!-- source: no-photos.svg -->
<svg xmlns="http://www.w3.org/2000/svg" viewBox="0 0 1000 1000" width="1000" height="1000">
  <path d="M752.2442346386009 679.9741019402879C715.4387865655472 681.2432553221174 657.5653923541248 683.7815620857763 620.3791982665223 685.5583768203376C587.5081256771398 685.5583768203376 530.7769695093639 685.3045461439716 497.3982355672498 685.3045461439716C463.89258628695256 685.3045461439716 407.4152607955425 685.5583768203376 374.4172728679772 685.5583768203376C337.10416344219175 683.9084774239593 279.48459990713525 681.3701706603003 242.55223649589857 679.9741019402879V636.5690562817213L215.6461848011145 645.3262146163443V692.9194664349483L228.33771861940886 706.3724922823403C270.981272248878 709.6722910750968 331.0122272094104 713.3528358824022 374.1634421916113 716.018057984244C407.1614301191767 716.3988039987929 463.89258628695256 716.3988039987929 497.3982355672498 716.5257193369758C531.0308001857298 716.5257193369758 587.5081256771399 716.3988039987929 620.6330289428882 716.018057984244C663.7842439250891 713.3528358824022 723.5613682092556 709.6722910750968 766.4587525150906 706.3724922823403L779.277201671568 692.9194664349483V462.06046628017344L752.371149976784 470.81762461479656V679.9741019402879H752.2442346386009ZM242.55223649589857 523.99515131345V372.712068199381L390.15477480266225 364.9702325702214L402.8463086209567 353.0401907810247L407.4152607955426 311.41195985701916C466.6847237269774 310.3966371515556 528.1117474075222 310.52355248973856 587.381210338957 311.41195985701916L591.9501625135429 353.0401907810247L604.6416963318374 364.9702325702214L752.2442346386009 372.712068199381V404.440902745117L779.150286333385 395.68374441049383V359.8936190429037L766.4587525150906 346.4405931955116L617.4601454883147 338.57184222816915L612.8911933137286 296.6897806277977L599.5650828045195 284.7597388386009C531.9192075530104 283.10983944222266 462.87726358148905 282.98292410403974 395.35830366816293 284.7597388386009L382.0321931589539 296.68978062779763L377.46324098436787 338.5718422281691L228.46463395759184 346.3136778573287L215.77310013929747 359.7667037047207V578.9494927466646L242.67915183408155 570.1923344120416V523.7413206370841L242.55223649589857 523.99515131345ZM412.7457049992262 581.2339688339578C406.01919207553016 583.3915295830677 392.4392508899552 587.8335664194708 385.7127379662591 589.9911271685808C409.82665222101843 627.5580672707322 451.96254449775574 652.5603888927722 499.93654233090854 652.5603888927722C577.4818139606872 652.814219569138 640.1779910230615 586.1836670230925 635.1013774957437 508.76531073149675C628.3748645720477 510.92287148060683 614.7949233864726 515.3649083170098 608.0684104627767 517.5224690661199C607.3069184336789 621.7199617143168 473.41123665067323 663.982769329237 412.7457049992261 581.1070534957748L412.7457049992262 581.2339688339578ZM365.1524531806223 530.4678335607802C371.75205076613537 528.3102728116701 385.20507661352735 523.8682359752671 391.93158953722343 521.710675226157C389.2663674353816 460.5374822219781 438.76334932672967 408.88293958151996 500.06345766909146 409.0098549197029C537.50348243306 409.0098549197029 570.6283856988083 428.17407098532743 590.0464324407986 457.23768342922153C596.6460300263118 455.0801226801115 610.0990558737038 450.7650011818914 616.8255687973998 448.60744043278135C542.7070112985606 325.3726470571429 353.0954960532426 385.4036020176753 365.2793685188052 530.4678335607802H365.1524531806223ZM901.6235876799257 374.869628948491C632.4361553939019 456.6031067383069 355.88763349326734 546.5860815100141 90.0 638.9804477071971C92.0306454109271 645.3262146163443 96.21885157096423 658.1446637728216 98.37641232007428 664.6173460201517C367.690759944281 582.8838682303359 644.2392818449157 492.7739781204458 910.0 400.5065272614457L901.6235876799257 374.869628948491Z" fill="#000000"/>
</svg>
