<?xml version="1.0" encoding="UTF-8"?>
<!-- source: turn-off.svg -->
<svg xmlns="http://www.w3.org/2000/svg" viewBox="0 0 1000 1000" width="1000" height="1000">
  <path d="M185.9741214527274 556.7284222908395C185.9741214527274 556.7284222908395 186.09469195706498 556.7284222908395 186.21526246140257 556.7284222908395C317.2754006763709 523.9332451110131 449.4206734303777 489.69122187913536 580.842523158359 454.6052051168945C588.0767534186148 452.676077047493 595.4315541832082 450.7469489780914 602.665784443464 448.81782090868984C668.6178503161298 431.093956771063 734.3287751801204 413.2495221290986 799.5574180267606 395.16394647845897C799.5574180267606 395.16394647845897 799.5574180267606 395.16394647845897 799.6779885310982 395.16394647845897C836.572562858403 384.9154536097632 873.4671371857078 374.66696074106744 909.9999999999998 364.41846787237165L905.9006028525216 354.29054550801345V354.04940449933827C905.9006028525216 354.04940449933827 901.6806352007056 343.6803411263049 901.6806352007056 343.6803411263049C825.4800764593442 362.4893398029701 748.6766651962946 381.90119100132324 671.6321129245698 401.5541832083517C664.397882664314 403.3627407734156 657.1636524040582 405.29186884281717 649.9294221438024 407.1004264078812C634.0141155712397 411.19982355535944 618.2193795030144 415.2992207028378 602.3040729304514 419.3986178503161C602.3040729304514 419.3986178503161 601.9423614174386 419.3986178503161 601.821790913101 419.5191883546537C470.1588001764446 453.6406410821937 338.2546684311131 488.9677988531098 208.2796647551831 524.8978091457138C207.67681223349513 525.0183796500514 207.07395971180705 525.2595206587266 206.47110719011908 525.3800911630642C199.83972945155125 527.1886487281281 193.20835171298341 528.9972062931921 186.69754447875317 530.8057638582561C186.57697397441558 530.8057638582561 186.45640347007787 530.8057638582561 186.33583296574028 530.8057638582561C154.14350830760185 539.7279811792382 121.95118364946336 548.6501985002204 90.0 557.6929863255402C92.04969857373919 562.877518012057 96.26966622555511 573.2465813850904 98.31936479929419 578.431113071607C127.4974268489928 571.1968828113511 156.7960594030289 563.9626525510953 186.0946919570651 556.6078517865019L185.9741214527274 556.7284222908395ZM209.84708131157169 316.0696956329951H578.6722540802821L580.3602411410084 412.526099103073C587.5944714012642 410.5969710336715 594.8287016615202 408.78841346860753 602.1835024261136 406.859285399206L600.4955153653873 305.09777973827374L589.5235994706659 294.24643434789H199.11630642552547L188.14439053080417 305.09777973827374L186.33583296574028 518.2664314071459C193.57006322599608 516.2167328334067 200.92486399058959 514.2876047640052 208.27966475518298 512.237906190266L209.8470813115718 316.0696956329951H209.84708131157169ZM558.5369798559034 613.3965593295103V599.2898103220114C448.21496838700165 597.6018232612851 336.68725187472415 597.6018232612851 226.36524040582248 599.2898103220114V613.3965593295103C250.35877076900437 613.8788413468607 285.08307601823236 614.1199823555359 309.43831789442714 614.361123364211C392.0291133656813 614.8434053815614 475.94618438464914 614.8434053815614 558.657550360241 613.3965593295103H558.5369798559034ZM213.58476694603718 628.2267313630348V642.3334803705336C328.4884575797675 644.02146743126 456.2931921776206 644.02146743126 571.1968828113511 642.3334803705336V628.2267313630348C545.3947948831051 627.7444493456844 508.01793853845 627.5033083370092 481.7335685928537 627.262167328334C399.02220261726194 626.9004558153212 295.81385090427847 626.9004558153212 213.58476694603718 628.2267313630348ZM602.665784443464 460.8748713424496C595.4315541832082 462.8039994118511 588.0767534186148 464.7331274812527 580.8425231583587 466.66225555065427L581.8070871930595 555.7638582561387C497.76944566975413 555.7638582561387 337.290104396412 555.7638582561387 238.18114983090692 555.7638582561387C220.2161446846049 560.3455374209675 202.37171004264047 564.8066460814586 184.40670489633845 569.2677547419496L147.2709895603585 684.8948684017056L158.1223349507423 700.4484634612556C175.00220555800587 701.4130274959564 223.5921188060576 704.1861490957212 239.50742537862044 705.0301426260844C264.2243787678279 705.0301426260844 368.1561535068369 705.6329951477724 394.92280546978355 705.75356565211C422.17173945008057 705.75356565211 524.7772386413758 705.150713130422 550.217615056609 705.0301426260844C566.2534921335093 704.1861490957212 615.0845463902363 701.4130274959565 631.6027054844872 700.4484634612556L642.454050874871 684.8948684017056L603.8714894868399 564.8066460814587L602.7863549478013 460.87487134244964L602.665784443464 460.8748713424496ZM571.5585943243639 679.3486252021761C532.7348919276574 681.6394647845905 435.07278341420357 679.3486252021761 394.8022349654461 679.7103367151889C367.67387148948666 679.8309072195266 265.55065431554164 680.313189236877 240.11027790030863 680.313189236877C225.03896485810895 679.5897662108514 190.07351860020566 677.9017791501249 174.6404940449932 677.1783561240993L204.90369063373015 577.7076900455816C299.5515365387441 577.7076900455816 490.0529333921481 577.7076900455816 584.700779297162 577.7076900455816L614.9639758858989 677.1783561240993L571.5585943243639 679.2280546978385V679.3486252021761ZM799.5574180267606 426.8739891192471V433.62593736215257C799.5574180267606 433.62593736215257 799.5574180267606 433.62593736215257 799.5574180267606 433.62593736215257L799.7985590354356 552.6290251433612L788.2237906190264 561.0689604469931C754.2229083958241 561.5512424643434 718.6546096162328 561.5512424643434 682.604028819291 561.0689604469931L670.908689898544 552.6290251433612L671.511542420232 442.4275841787972C664.3978826643138 444.35671224819873 657.2842229083956 446.28584031760033 650.1705631524774 448.2149683870018L650.4117041611526 557.9341273342154L653.1848257609174 564.5655050727833L672.5966769592706 580.6013821496838L677.7812086457873 582.651080723423L686.1005734450814 583.1333627407734C696.9519188354652 583.3745037494485 710.5763858256137 583.6156447581237 721.4277312159975 583.6156447581237C725.6476988678135 583.6156447581237 729.9882370239668 583.6156447581237 734.3287751801204 583.6156447581237C748.9178062049696 583.6156447581237 763.9891192471694 583.4950742537861 778.0958682546682 583.1333627407734H782.6775474194969C786.0535215409495 582.8922217320982 789.6706366710775 582.8922217320982 792.3231877665046 582.7716512277606L797.3871489486837 581.2042346713718L816.6784296426993 566.0123511248345L820.1749742684897 559.7426848992794V401.79532421702686C813.423026025584 403.7244522864284 806.6710777826786 405.5330098514924 799.7985590354356 407.46213792089395V426.99455962358473L799.5574180267606 426.8739891192471ZM671.7526834289072 389.01485075724156 672.11439494192 318.36053521540947H725.0448463461253C722.8745772680484 318.48110571974706 720.5837376856341 318.48110571974706 718.534039111895 318.60167622408466L714.5552124687542 318.84281723275984V335.9638288486987L718.534039111895 336.2049698573739C723.4774297897363 336.4461108660491 728.661961476253 336.68725187472427 734.3287751801201 336.68725187472427C739.9955888839872 336.68725187472427 745.7829730921919 336.5666813703867 751.8114983090718 336.2049698573739L755.7903249522126 335.9638288486987V318.84281723275984L751.8114983090718 318.60167622408466C749.7617997353327 318.60167622408466 747.9532421702688 318.60167622408466 746.0241141008671 318.48110571974706H799.4368475224228C799.4368475224228 318.48110571974706 799.4368475224228 356.58138509042783 799.4368475224228 356.58138509042783C806.1887957653285 354.8933980297015 813.0613145125712 353.2054109689751 819.8132627554769 351.51742390824876V305.5800617556241L811.6144684605201 295.69328039994116H809.6853403911186C750.7263637700335 294.84928686957795 703.4627260696952 294.96985737391554 660.9013380385234 295.93442140861634H659.2133509777971C659.2133509777971 295.93442140861634 649.8088516394644 305.33892074694893 649.8088516394644 305.33892074694893L650.0499926481396 394.561093956771C657.2842229083953 392.63196588736946 664.5184531686511 390.8234083223055 671.8732539332448 388.89428025290397L671.7526834289072 389.01485075724156Z" fill="#000000"/>
</svg>
