<?xml version="1.0" encoding="UTF-8"?>
<!-- source: wc-no-gents.svg -->
<svg xmlns="http://www.w3.org/2000/svg" viewBox="0 0 1000 1000" width="1000" height="1000">
  <path d="M626.0453346372083 411.9981696344074C626.0453346372083 411.9981696344074 626.0453346372083 411.9981696344074 626.0453346372083 411.9981696344074C626.0453346372083 411.9981696344074 626.0453346372083 412.34298404286255 626.0453346372083 411.9981696344074M633.7174552253348 449.7553473602431V449.5829401560155C633.7174552253348 449.5829401560155 633.7174552253348 449.41053295178796 633.7174552253348 449.7553473602431M796.9870776288344 736.4685279906757C795.7802271992414 694.9183917718337 791.9010651041212 650.4373330811233 787.2460705899771 608.973400464395L780.6083932272161 600.4392438551307C754.9197197973097 590.9568476226149 728.1966031420379 584.3191702598539 701.473486486766 578.5435289182305C692.6807190711604 565.871599407505 681.3880471942553 555.0961491432824 668.2850996729608 546.9068069424733C666.647231232799 529.3212721112621 665.2679735989784 510.87370125891323 658.9751106446724 494.1502024488398C653.3718765072767 478.0301288535629 636.6483776972034 467.5132893956818 633.7174552253348 451.99664101520136C633.7174552253348 451.99664101520136 633.7174552253348 451.99664101520136 633.7174552253348 451.99664101520136C633.7174552253348 451.99664101520136 633.7174552253348 452.1690482194289 633.7174552253348 452.2552518215427C633.7174552253348 452.0828446173151 633.7174552253348 451.99664101520136 633.7174552253348 451.99664101520136C634.4932876443588 435.79036381781066 646.7341991445155 419.6702902225338 645.785959521264 402.17095899343644C647.2514207571983 368.5515541690622 610.1838718482729 345.5351924046829 581.0470543338151 363.2931344401216C559.4961538053701 376.99950717621266 556.4790277313879 406.91215710969436 566.1338311681313 428.6354648423669C567.3406815977241 431.9974053248044 568.2027176188619 435.53175301146933 568.6337356294309 439.2385079023619C570.7888256822754 455.96200671243525 565.3579987491072 476.21985320917355 563.461519502604 494.23640605095363C561.6512438582147 509.9254616356616 560.4443934286218 525.7007208224834 560.7030042349631 541.5621836114188C455.7932204624927 593.8877700944834 490.79188292068744 751.8989727690423 609.5804466334764 753.5368412092042C664.2335303736129 753.5368412092042 709.8352358918028 714.0555914410929 719.3176321243186 662.1610229685973C721.3865185750492 662.2472265707111 723.45540502578 662.4196337749386 725.5242914765106 662.5058373770523C730.1792859906548 693.3667269337857 733.3688192688646 724.6586345010878 735.954927332278 755.7781348641624L753.3680549592616 754.6574880366833C751.988797325441 720.6070652017402 749.4026892620277 685.004977528749 745.6097307690213 650.9545546938058C745.6097307690213 650.9545546938058 735.6963165259365 641.47215846129 735.6963165259365 641.47215846129L721.1279077687077 639.5756792147869C720.8692969623664 626.7313424998335 718.4555961031806 614.4904309996768 714.1454159974915 603.0253519185441C732.0757652371578 607.0769212178917 750.006114476824 611.8181193341496 767.4192421038076 617.7661678800005C773.4534942517721 662.9368553876212 777.5050635511197 710.0040221417452 779.4877463997368 755.5195240578211L797.504299241517 754.743691638797L796.9008740267204 736.5547315927894L796.9870776288344 736.4685279906757ZM581.4780723443839 521.7353551252495C580.9608507317013 492.4261304065642 590.0122289536482 466.9098641808853 586.9088992775521 436.5661962368347C586.1330668585281 429.23889005716336 583.1159407845458 422.1701946838334 580.6160363232461 415.18770291261717C576.0472454112158 400.360683349047 580.2712219147911 379.1545972290571 597.3395351333195 375.4478423381646C607.5115601827456 373.1203450810925 618.8042320596508 377.258117982554 624.0626517885914 386.48190340872844C636.4759704929756 407.8603967329459 615.7009023835546 429.1526864550496 615.5284951793271 451.0484013919497C615.1836807708721 473.80615234998766 638.9758749542752 486.6504890649409 643.4584622641919 507.25314997013436C645.6135523170365 516.821749804764 646.8204027466293 526.8213676499624 647.5962351656533 536.8209854951609C627.3383886689151 529.2350685091483 602.6841584643739 528.1144216816692 581.5642759464979 533.7176558190649C581.4780723443841 529.752290121831 581.4780723443841 525.7869244245971 581.5642759464979 521.7353551252495M609.5804466334764 734.7444559484002C558.2893033757771 734.7444559484002 516.6529635548213 693.0219125253305 516.6529635548213 641.8169728697452C521.7389760795344 518.5458218470396 697.4219171874183 518.5458218470396 702.5079297121313 641.8169728697452C702.5079297121313 693.0219125253305 660.7853862890615 734.7444559484002 609.5804466334762 734.7444559484002M192.8722340154632 750.9507331457909C195.19973127253525 716.8141067087339 197.87204293806246 664.7471310320107 199.7685221845656 630.0932829822711L207.78545718114717 620.7832939539829L233.81894501950876 614.9214490102459L225.8020100229272 624.1452344364203C228.47432168845438 587.5949071401775 227.35367486097525 550.3549510270245 225.8020100229272 513.718420128668L234.3361666321914 502.94296986444544C239.33597555479065 501.9947302411939 247.26670694925843 500.0982509946907 252.35271947397146 498.97760416721155L244.42198807950368 508.6324076039549C245.45643130486906 472.2544875119397 241.49106560763516 435.61795661358315 234.7671846427603 399.8434617363644C232.95690899837092 388.9818078700281 229.68117211804727 378.5511720142607 222.35386593837598 371.13766223247563C218.21609303691451 366.4826677183315 212.52665529740503 365.7068352993075 206.9234211600093 363.72415245069055C199.85472578667935 360.9656371830496 193.6480664344872 355.8796246583366 190.19992234993597 348.98333648923415C178.56243606457565 322.2602198339623 200.37194739936203 307.2607930661646 199.68231858245179 284.9340601186955C197.78583933594862 252.86632013236934 154.68403827905857 256.31446421692056 155.8046851065377 286.65813216097115C155.8908887086515 296.8301572103972 161.8389372545023 306.8297750555957 165.63189574750865 316.7431892986804C174.42466316311422 336.91483219330496 165.97671015596376 361.7414696020736 142.87414478947068 366.13785330987645C143.3051628000396 366.05164970776264 142.87414478947068 366.13785330987645 142.96034839158446 366.13785330987645C125.20240635614576 371.31006943670326 122.35768748639103 393.46439517994474 119.51296861663627 409.1534507646527C113.82353087712679 441.9108195678892 110.2891831904618 475.4440207901497 110.89260840525826 508.7186112060688C110.89260840525826 508.7186112060688 102.96187701079049 499.0638077693254 102.96187701079049 499.0638077693254C108.04788953550351 500.1844545968045 115.9786209299713 502.08093384330766 120.97842985257054 503.0291734665593L129.426382859721 512.5977733011889C128.39193963435562 549.7515258122281 126.49546038785246 587.1638891296086 129.426382859721 624.2314380385342L121.40944786313943 615.0076526123597L147.44293570150103 620.8694975560967L155.45987069808257 630.1794865843849C157.5287571488133 665.7815742573762 160.2010688143405 715.9520706875962 162.61476967352633 750.9507331457909L146.75330688459078 752.4161943817252C142.96034839158446 717.4175319235304 138.30535387744033 667.1608318911966 134.85720979288914 631.731151422433L142.87414478947068 641.0411404507213L116.84065695110908 635.1792955069842L108.82372195452754 625.9555100808097C106.06520668688657 588.7155539676567 107.53066792282084 551.1307834460486 108.82372195452754 513.8908273328956L117.35787856379177 523.4594271675252C111.75464442639606 522.4249839421598 103.91011663404207 520.5285046956566 98.30688249664637 519.2354506639499L90.03133669372352 509.4944436250927C89.60031868315461 474.495781166898 93.65188798250229 439.6695259129308 99.94475093680823 405.3604922716463C103.47909862347322 382.4303341093808 111.66844082428233 354.75897783085736 137.01229984573368 347.7764860596412C146.8395104867046 346.31102482370693 152.0117266135314 338.9837186440356 149.425618550118 328.639286390382C145.9774744655668 315.01911725640474 137.61572506053014 303.4678345731582 137.270910652075 288.2960006011329C135.71924581402698 265.79686044943634 154.16681666637592 243.38392389985347 177.52799283921036 244.24595992099128C200.2857437972483 243.55633110408104 218.4747038432559 264.84862082618474 217.44026061789054 286.9167429673124C217.44026061789054 297.8646004357625 213.04387691008776 307.9504218830748 209.07851121285387 317.0880037071355C205.19934911773376 325.6221603163997 200.80296540993098 338.6389042355805 209.3371220191952 344.93176718988644C211.40600846992592 346.4834320279345 213.90591293122554 347.4316716511861 216.66442819886652 348.03509686598255C230.974226149754 351.1384265420786 241.8358800160903 363.8103560528043 247.0080961429171 376.56848916564377C260.2834508684392 419.58408662042007 263.9902057593318 464.66857052592707 264.9384453825834 509.4944436250927L257.0077139881156 519.149247061836C251.31827624860608 520.4423010935428 243.64615566047965 522.2525767379321 237.95671792097016 523.3732235654113L246.49087453023438 512.5977733011888C248.21494657250997 550.1825438227969 249.24938979787535 588.2845359570878 246.49087453023438 625.8693064786959L238.47393953365284 635.0930919048703L212.44045169529124 640.9549368486074L220.45738669187278 631.6449478203192C217.09544620943535 666.4712030742863 212.1818408889499 718.0209571383269 208.3888823959436 752.3299907796113L192.95843761757692 750.9507331457909H192.8722340154632ZM408.46744290202724 490.5296511600611C395.7955133913016 490.5296511600611 384.15802710594124 484.0643810015276 374.6756308734254 473.20272713519125C393.2956089300019 466.2202353639751 416.57058150072254 447.85886811373996 429.93213982835846 433.4628665607387C439.5869432651018 436.3075854304934 449.6727647124141 438.5488790854517 460.01719696606773 440.10054392349974C450.7072079377795 469.92699025486763 431.1389902579514 490.5296511600611 408.46744290202724 490.5296511600611M351.2282510984773 401.1365157680711C351.2282510984773 397.5159644792923 351.4006583027048 393.9816167926274 351.6592691090462 390.4472691059624C365.10703103879587 403.4640130251432 386.3131171587858 417.17038576123423 411.8293833844647 427.25620720854647C398.1230106483736 440.4453583319548 377.606553345294 455.3585814976388 364.5036058239994 458.28950396950734C356.2280600210765 442.7728555890269 351.22825109847724 422.8598235007437 351.22825109847724 401.13651576807115M408.46744290202724 375.79265674661974C430.96658305372387 375.79265674661974 448.63832148704876 366.1378533098764 458.81034653647487 358.72434352809125C465.70663470557724 378.033950401578 467.5169103499666 402.343366197664 463.9825626633017 423.2046379091988C409.32947892316514 415.87733172952744 365.9690670599337 385.10264577490796 355.27982039782495 368.2067397606071C355.9694492147352 365.5344280950799 356.74528163375925 362.8621164295527 357.60731765489703 360.36221196825306C368.81378592968844 366.65507492255904 388.46820721163033 375.79265674661974 408.4674429020273 375.79265674661974M470.18922201549384 340.7077906863112 456.0518312688339 338.46649703135296C426.9150137543762 366.7412785246728 389.33024323276805 361.7414696020736 358.38315007392106 340.3629762778561L345.45260975685403 343.98352756663485C319.1605111121511 399.41244372579547 337.69428556661387 503.891209487697 408.6398501062548 507.8565751849309C480.7922650754888 503.6325986813557 498.722614315155 396.0505032433581 470.2754256176076 340.7077906863112M408.46744290202724 261.57288394586107C448.46591428282125 262.8659379775678 448.46591428282125 320.8809622001418 408.46744290202724 322.1740162318485C368.4689715212333 320.88096220014177 368.4689715212333 262.8659379775678 408.46744290202724 261.57288394586107M408.46744290202724 339.5009402567183C434.7595415467302 339.5009402567183 456.13803487094765 318.12244693250085 456.13803487094765 291.8303482877979C453.8967412159894 228.81551514262466 363.1243481901789 228.81551514262466 360.88305453522065 291.8303482877979C360.88305453522065 318.12244693250085 382.2615478594381 339.5009402567183 408.553646504141 339.5009402567183M910.0 362.25869121475625 909.4827783873172 349.15574369346166C873.1048582953022 353.724534605492 849.6574785203541 359.5001759471153 851.6401613689709 307.088385861937C849.7436821224678 253.7283561535071 873.6220799079849 260.02121910781307 909.4827783873172 264.6762136219572L910.0 251.74567330489015C864.2258872775828 242.780498685057 833.537404925077 244.59077432944642 835.5200877736941 307.088385861937C833.7960157314185 367.94812895426577 863.3638512564451 371.3100694367032 910.0 362.25869121475625M715.6108772334258 350.4487977251684 697.6805279937596 249.50437964993188H681.2156399900275L704.1457981522931 364.06896685914563H730.782711205451L751.3853721106445 269.3312081361013L772.1604402200655 364.06896685914563H798.7973532732237L821.5551042312616 249.50437964993188H805.2626234317572L787.3322741920908 350.4487977251684H783.1945012906294L760.6091575368189 250.1940084668421H742.3339938886975L719.9210573391147 350.4487977251684H715.7832844376533H715.6108772334258Z" fill="#000000"/>
</svg>
