<svg xmlns="http://www.w3.org/2000/svg" viewBox="-2 -1002 1004 1004"><path transform="scale(1,-1)" d="M763 248C770 241 771 229 766 221C756 199 745 179 731 160C651 57 596 122 494 113C459 112 429 94 394 90C370 89 347 97 327 109C277 140 243 188 214 237C210 244 212 252 219 256C313 280 342 395 327 480C303 547 227 579 165 607C157 610 152 619 156 627C180 693 241 745 310 757C379 770 448 759 512 732C512 732 497 731 497 731C603 795 776 795 840 673C849 660 847 640 832 631C815 622 800 613 785 603C632 495 649 379 763 248ZM746 232C583 396 621 548 818 655C819 655 819 656 819 656C814 665 809 675 802 683C732 766 600 754 513 704C508 702 503 702 499 703C417 738 308 749 236 689C213 670 196 644 184 616L175 636C197 629 217 620 237 610C286 582 340 546 357 489C375 390 340 258 229 230C229 230 239 251 239 251C270 195 336 98 409 119C461 143 523 150 578 136C604 130 628 120 653 128C696 142 724 186 742 225C742 225 745 232 745 232C745 232 745 232 746 231V232ZM582 884C551 878 530 857 524 826C517 796 519 762 523 728L486 725C484 761 483 798 493 834C502 873 538 906 577 910C577 910 582 884 582 884Z"/></svg>