<svg xmlns="http://www.w3.org/2000/svg" viewBox="16.4 -983.9 967.7 967.7"><path transform="scale(1,-1)" d="M519 909C592 897 581 847 585 789C591 814 601 839 627 850C649 861 695 855 711 826C728 789 712 745 711 705C712 705 712 705 713 705C724 735 749 761 783 750C804 744 818 727 821 703C821 637 803 571 795 505C783 366 821 260 702 103C696 94 672 97 672 97C672 97 712 168 730 203C770 280 756 371 758 455C757 539 790 621 786 705C784 720 760 724 753 710C749 703 745 695 742 687C720 619 707 548 681 482C676 477 670 476 664 479C647 485 656 505 656 519C666 608 679 698 686 788C687 813 677 821 653 822C630 823 620 800 618 781C612 738 606 695 600 651C595 610 589 569 583 528C582 518 575 512 567 512C553 511 549 526 550 538C550 636 550 733 550 830C555 860 528 887 498 872C482 864 480 846 480 830C480 751 480 672 480 593C476 574 489 514 465 512C444 509 445 538 441 552C423 635 411 720 389 802C377 838 323 824 325 789C336 689 355 589 368 489C368 469 392 392 349 411C321 436 285 517 249 515C219 517 204 483 218 460C271 369 312 269 386 193C410 163 443 132 444 92L413 90C402 141 356 171 327 211C271 284 232 367 188 446C177 466 177 488 186 508C202 546 246 560 282 540C305 527 317 505 334 486C324 582 306 678 292 774C276 852 389 892 419 817C433 781 435 741 445 704C446 704 447 704 447 704C447 749 447 794 448 839C445 879 480 912 520 910Z" fill="#1a1a1a"/></svg>