<svg xmlns="http://www.w3.org/2000/svg" viewBox="16.2 -983.8 967.6 967.6"><path transform="scale(1,-1)" d="M902 619C632 537 356 447 90 355L98 329C368 411 644 501 910 593L902 619ZM237 422C239 422 243 424 245 424L231 531H456C456 531 452 493 452 493C452 493 475 501 477 501L481 541L470 554H218C218 554 206 541 206 541L220 416L237 422ZM434 350C430 318 420 236 416 205C415 196 406 188 397 188C376 188 355 189 335 188H304C301 188 294 188 292 188C282 187 273 195 272 204C266 249 258 315 253 360C245 358 235 354 227 352C230 323 237 263 240 233C241 229 244 200 244 197C249 175 270 158 292 159C294 159 301 159 304 159C304 159 335 159 335 159C375 161 436 146 444 202C451 267 462 364 469 429L443 421L434 350ZM504 630C509 608 528 590 550 586V525C559 528 572 532 581 535V586C615 591 633 626 630 658C630 663 629 693 629 700C628 739 627 795 625 834H611C609 795 608 739 607 700V666C607 650 607 630 594 619L590 834H574C574 834 570 609 570 609C567 609 564 609 561 609L556 834H540C540 834 537 619 537 619C524 630 524 650 524 666C524 666 523 699 523 699C522 739 521 795 519 834H505C503 795 502 739 502 699C502 678 498 650 503 630H504ZM554 165H578L580 465L551 456L554 165ZM683 624C685 664 688 704 695 744C698 770 708 796 729 811C727 739 726 653 726 581C738 585 746 587 757 591C756 668 755 754 753 831L738 842C695 827 675 783 670 741C659 681 656 620 655 559C664 561 673 564 681 567C682 586 682 605 683 624ZM727 514H725C725 497 725 481 725 465C715 467 700 468 691 471C680 476 681 488 681 499C672 496 663 493 654 490C652 468 669 446 691 442C702 440 715 437 726 435C727 365 729 230 729 158H753C754 269 758 414 757 524C748 521 738 518 728 514H727Z" fill="#1a1a1a"/></svg>