<svg xmlns="http://www.w3.org/2000/svg" viewBox="-2 -1002 1004 1004"><path transform="scale(1,-1)" d="M232 501C277 516 329 510 367 482C327 461 303 413 312 367C315 349 324 327 346 327C357 327 422 352 433 355C431 272 364 206 281 206C110 209 71 443 232 501ZM460 521 409 500C389 518 366 531 340 539L344 596L401 641C417 653 439 653 455 641L478 623C515 596 501 536 460 521ZM910 812C910 812 904 834 904 834H471C440 834 410 824 385 804L243 693C219 674 206 646 206 616L215 538C16 461 67 169 281 166C390 165 480 259 472 368L640 423C677 435 704 448 750 487L806 544C825 567 870 572 901 571L909 596C876 594 819 598 799 576L743 523C699 485 664 472 637 463C576 442 412 384 352 365C344 399 359 437 392 450C392 450 430 466 430 466C455 477 495 489 513 511C553 553 544 621 497 655C497 655 480 668 480 668C449 692 406 692 375 668L317 622C308 615 308 610 308 599V548C295 549 282 550 269 549C259 549 250 547 241 546L235 616C235 634 243 651 257 661L404 778C421 791 449 805 471 805L909 812C909 812 909 812 909 812H910Z"/></svg>