<svg xmlns="http://www.w3.org/2000/svg" viewBox="-2 -1002 1004 1004"><path transform="scale(1,-1)" d="M909 311C887 406 783 439 704 475C657 495 562 538 516 558L551 621C559 634 568 648 569 664C574 705 537 744 495 741C448 738 416 686 437 644L456 652C453 658 452 666 453 673C454 698 478 719 503 716C536 714 556 674 538 646C523 617 506 587 489 559L495 542C586 500 702 451 792 406C830 386 865 359 879 318C880 314 882 311 882 308C884 300 879 291 872 288C870 287 867 286 864 286H742C558 287 316 286 133 286C121 287 112 301 117 312C124 332 135 350 150 365C182 396 223 414 263 434C312 458 410 506 459 530L450 549C401 526 301 479 252 455C191 426 118 394 94 325C80 294 103 258 137 260C238 260 421 259 523 259C523 259 742 259 742 259H851C851 259 865 259 865 259C892 259 914 285 909 312Z"/></svg>