<svg xmlns="http://www.w3.org/2000/svg" viewBox="16.2 -983.8 967.6 967.6"><path transform="scale(1,-1)" d="M186 443C186 443 186 443 186 443C317 476 449 510 581 545C588 547 595 549 603 551C669 569 734 587 800 605C800 605 800 605 800 605C837 615 873 625 910 636L906 646C906 646 902 656 902 656C825 638 749 618 672 598C664 597 657 595 650 593C634 589 618 585 602 581C602 581 602 581 602 580C470 546 338 511 208 475C208 475 207 475 206 475C200 473 193 471 187 469C187 469 186 469 186 469C154 460 122 451 90 442C92 437 96 427 98 422C127 429 157 436 186 443ZM210 684H579L580 587C588 589 595 591 602 593L600 695L590 706H199L188 695L186 482C194 484 201 486 208 488L210 684ZM559 387V401C448 402 337 402 226 401V387C250 386 285 386 309 386C392 385 476 385 559 387ZM214 372V358C328 356 456 356 571 358V372C545 372 508 372 482 373C399 373 296 373 214 372ZM603 539C595 537 588 535 581 533L582 444C498 444 337 444 238 444C220 440 202 435 184 431L147 315L158 300C175 299 224 296 240 295C264 295 368 294 395 294C422 294 525 295 550 295C566 296 615 299 632 300L642 315L604 435L603 539ZM572 321C533 318 435 321 395 320C368 320 266 320 240 320C225 320 190 322 175 323L205 422C300 422 490 422 585 422L615 323L572 321ZM800 573V566C800 566 800 566 800 566V447L788 439C754 438 719 438 683 439L671 447L672 558C664 556 657 554 650 552V442L653 435L673 419L678 417H686C697 417 711 416 721 416C726 416 730 416 734 416C749 416 764 417 778 417H783C786 417 790 417 792 417L797 419L817 434L820 440V598C813 596 807 594 800 593V573ZM672 611V682H725C723 682 721 682 719 681H715V664H719C723 664 729 663 734 663C740 663 746 663 752 664H756V681H752C750 681 748 681 746 682H799C799 682 799 643 799 643C806 645 813 647 820 648V694L812 704H810C751 705 703 705 661 704H659C659 704 650 695 650 695V605C657 607 665 609 672 611Z" fill="#1a1a1a"/></svg>