<svg xmlns="http://www.w3.org/2000/svg" viewBox="-2 -1002 1004 1004"><path transform="scale(1,-1)" d="M406 313C405 354 389 393 389 433L376 447L246 461L233 454C218 427 194 406 178 379C160 351 151 317 152 284H173C171 347 217 387 252 433L361 420C368 374 386 331 385 284H406C407 294 406 303 406 313ZM879 618C861 618 847 603 848 586C740 551 617 530 506 566C509 574 512 582 515 590C529 593 548 598 561 602C588 608 602 640 597 666L588 675C573 678 558 682 543 685L532 703L525 709C510 713 493 718 477 717C468 717 460 714 451 710C413 695 404 651 384 619C368 598 339 596 314 594C278 591 236 591 201 584C173 578 149 560 136 535C115 498 121 453 115 413C114 406 112 400 111 393C100 357 90 320 90 283H111C111 324 126 364 136 403C144 440 138 481 152 516C161 534 175 550 195 557C203 560 212 562 221 563C238 564 255 566 272 567C286 567 322 569 335 571C356 573 378 578 394 592C418 575 444 561 472 550C466 534 460 518 456 502C451 480 448 459 446 437C440 386 439 334 439 283H461C461 333 463 384 470 434C472 455 476 475 481 495C485 511 491 527 496 542C614 506 742 530 856 568C873 546 911 560 910 588C910 605 896 619 879 619V618ZM509 588C509 588 509 588 509 588ZM502 615C502 615 493 607 493 607C489 596 485 586 481 575C456 585 433 598 411 614C424 634 430 660 448 677C453 682 460 685 467 688C482 694 497 689 512 685L523 667L533 660C547 659 561 656 574 653C573 643 567 631 558 627C558 627 545 624 545 624C536 622 512 617 502 615ZM879 578C867 578 867 597 879 597C891 597 891 579 879 578Z"/></svg>