<svg xmlns="http://www.w3.org/2000/svg" viewBox="16.5 -983.7 967.5 967.5"><path transform="scale(1,-1)" d="M728 665C727 683 716 697 707 712C684 749 661 785 640 823C629 841 620 861 607 879C601 888 594 898 581 903C557 912 539 885 521 876C487 860 470 904 437 908C414 910 373 916 365 887C361 870 357 851 352 834C341 828 330 822 319 815C314 810 308 806 303 799C298 792 298 784 297 777C296 750 300 722 300 697C299 682 292 678 279 671C263 658 280 638 291 630C311 612 333 596 353 579C367 566 387 558 393 539C398 526 395 514 398 499C413 459 468 477 497 487C525 495 545 520 557 543C563 554 572 560 584 563C621 548 659 551 662 599C663 609 662 618 661 627C685 631 726 637 727 665H728ZM711 655C695 644 672 641 653 638C625 636 596 635 569 641C569 641 569 642 569 642C575 698 581 755 575 811H568C572 756 566 701 558 647C558 642 557 636 562 632C590 623 620 625 648 625C657 577 638 554 587 574C562 586 537 601 509 610C507 610 505 610 503 609C501 608 500 606 499 604C494 581 494 558 490 535L497 533C502 554 504 576 509 597C528 591 550 579 569 570C566 568 564 567 562 566C545 554 539 531 525 517C508 499 480 493 456 489C443 487 430 487 421 492C409 498 410 509 409 522C408 536 403 551 392 562C360 586 328 611 298 637C292 643 278 655 285 662C319 676 311 708 310 737C310 755 306 776 313 793C325 806 344 815 359 824C368 827 379 833 388 837C398 841 419 852 430 855C437 847 438 835 439 823C441 784 431 744 419 706L428 703C442 752 462 806 444 856C441 860 437 867 431 867C428 867 428 866 425 866C407 859 385 848 365 839C368 852 370 865 372 877C377 905 414 900 435 896C458 893 469 875 490 866C501 862 514 862 525 867C544 875 556 900 578 893C586 890 593 882 598 873C631 818 662 760 697 706C705 693 714 679 716 665C716 661 714 658 711 655ZM493 649C477 626 463 597 438 581C434 579 424 578 420 584C417 587 413 595 411 598C402 614 391 634 384 647C379 646 372 644 367 643C365 643 363 643 361 644C360 644 357 648 357 649C357 684 361 719 358 753L364 754C369 721 367 688 368 655C372 655 376 657 379 658C383 658 386 661 391 657C403 641 417 608 429 591C429 591 429 590 429 590C430 590 431 590 433 591C456 605 471 631 487 652L493 649ZM530 814C532 808 528 802 525 796C517 784 507 773 498 763L492 767C500 781 512 801 517 811C516 814 504 820 499 823C491 827 483 830 474 834L477 842C494 839 510 834 524 823C526 822 529 819 531 814H530ZM338 281H322V373H354C375 373 386 364 386 342C386 317 374 309 354 309H338V281ZM353 322C364 322 370 327 370 342C370 356 364 360 353 360H338V322H353ZM396 314C396 334 401 350 424 350C434 350 453 347 453 347V299C453 294 454 281 454 281H439C439 281 438 286 438 290C438 290 431 280 419 280C402 280 396 291 396 314ZM423 292C432 292 438 303 438 303V336C438 336 429 337 426 337C414 337 411 329 411 313C411 301 413 292 423 292ZM485 348V341C485 341 493 350 503 350C522 350 528 337 528 315C528 292 520 280 500 280C494 280 486 281 486 281V252H470V348H485ZM498 292C509 292 512 300 512 315C512 329 510 337 501 337C492 337 486 327 486 327V293C486 293 493 292 498 292ZM542 374H557V358H542V374ZM557 348V281H542V348H557ZM623 294 624 284C624 284 613 280 600 280C580 280 571 290 571 313C571 334 579 349 600 349C617 349 627 344 627 330C627 313 615 309 592 309H586V307C586 298 591 292 601 292C611 292 623 294 623 294ZM592 320C605 320 611 322 611 329C611 336 608 338 600 338C590 338 587 331 587 320H592ZM655 348V338C655 338 664 347 675 350V334C665 332 655 326 655 326V281H639V348H655ZM344 120V213H375C395 213 406 205 406 184C406 162 395 152 375 152H353V120H344ZM375 160C389 160 397 166 397 184C397 200 389 206 375 206H353V159H375V160ZM417 152C417 174 422 189 445 189C453 189 469 186 469 186V136C469 129 470 120 470 120H462C462 120 461 126 461 132C461 132 453 119 439 119C423 119 417 130 417 152ZM441 126C452 126 461 141 461 141V180C461 180 450 181 446 181C429 181 426 171 426 152C426 137 429 126 441 126ZM518 189C537 189 542 175 542 155C542 132 534 119 513 119C506 119 498 121 498 121V90H489V187H497L498 176C498 176 506 189 518 189ZM513 126C529 126 533 136 533 154C533 169 530 181 518 181C506 181 498 168 498 168V127C498 127 506 126 513 126ZM603 129 604 123C604 123 594 119 581 119C563 119 555 129 555 153C555 176 564 188 584 188C597 188 607 183 607 171C607 155 596 151 572 151H564V149C564 135 569 126 582 126C592 126 604 129 604 129H603ZM572 157C591 157 598 160 598 171C598 179 593 182 584 182C570 182 564 173 564 157H572ZM654 189V180C643 178 631 170 631 170V120H622V187H631V177C631 177 641 186 654 189Z" fill="#1a1a1a"/></svg>