<svg xmlns="http://www.w3.org/2000/svg" viewBox="16.2 -983.9 967.6 967.6"><path transform="scale(1,-1)" d="M309 702C310 668 339 637 374 638C406 637 435 665 438 697L545 698L547 648H556L558 698H581L583 640H592L594 698H616L618 655H627L629 698L655 699V710L438 712C435 745 405 773 371 771C336 770 307 737 309 702ZM324 704C324 731 346 755 372 756C401 758 426 732 425 704C425 704 425 704 425 704C426 678 402 652 374 653C374 653 374 653 374 653C347 653 324 677 324 704ZM122 477C109 477 103 472 103 463C103 452 109 450 125 446C144 442 151 437 151 421C151 400 139 392 121 392C109 392 91 395 91 395L92 405C92 405 111 403 120 403C133 403 139 408 139 420C139 429 134 432 119 435C99 440 90 445 90 462C90 480 102 488 121 488C132 488 149 485 149 485L148 474C148 474 129 477 122 477ZM211 460V450C211 450 200 451 195 451C180 451 177 445 177 428C177 409 180 403 195 403C200 403 211 404 211 404L212 394C212 394 198 392 192 392C171 392 164 402 164 428C164 452 172 462 192 462C199 462 211 460 211 460ZM239 490V457C239 457 249 462 258 462C277 462 282 452 282 429V393H269V429C269 444 267 451 256 451C247 451 239 448 239 448V393H226V490H239ZM313 393H300V490H313V393ZM345 474H332V488H345V474ZM332 461H345V393H332V461ZM414 404 415 394C415 394 399 392 388 392C368 392 360 403 360 426C360 452 371 462 389 462C407 462 417 452 417 431L416 422H373C373 409 377 403 390 403C400 403 414 404 414 404ZM405 431C405 447 400 452 389 452C378 452 373 446 373 431H405ZM454 451C446 451 441 449 441 442C441 437 444 435 458 433C474 430 480 426 480 413C480 397 470 392 454 392C445 392 429 394 429 394L430 405C430 405 446 403 453 403C463 403 468 405 468 413C468 419 465 420 451 422C436 425 428 428 428 442C428 457 440 462 453 462C463 462 478 459 478 459V449C478 449 462 451 454 451ZM517 451C509 451 504 449 504 442C504 437 507 435 521 433C537 430 543 426 543 413C543 397 533 392 517 392C508 392 493 394 493 394V405C493 405 509 403 516 403C526 403 531 405 531 413C531 419 528 420 514 422C499 425 492 428 492 442C492 457 504 462 517 462C527 462 542 459 542 459L541 449C541 449 526 451 517 451ZM561 450H553V461H561V466C561 486 566 491 580 491C585 491 594 490 594 490V480C594 480 587 480 583 480C576 480 574 477 574 466V461H592V450H574V393H561V450ZM621 433 641 435V440C641 449 637 451 630 451C621 451 604 450 604 450V459C604 459 619 462 631 462C647 462 653 455 653 440V407C653 403 656 402 660 401V392C652 392 647 393 643 397C643 397 631 392 620 392C607 392 600 399 600 413C600 427 607 432 621 433ZM620 476H608V490H620V476ZM622 402C631 402 641 405 641 405V426L623 424C616 423 612 420 612 413C612 406 615 402 622 402ZM635 490H647V476H635V490ZM717 460V450C717 450 706 451 701 451C686 451 682 445 682 428C682 409 685 403 701 403C706 403 717 404 717 404V394C717 394 704 392 697 392C676 392 670 402 670 428C670 452 678 462 698 462C705 462 717 460 717 460ZM744 490V457C744 457 755 462 764 462C783 462 787 452 787 429V393H775V429C775 444 773 451 761 451C753 451 744 448 744 448V393H732V490H744ZM856 404V394C856 394 841 392 830 392C809 392 802 403 802 426C802 452 813 462 831 462C849 462 859 452 859 431L858 422H815C815 409 819 403 831 403C842 403 856 404 856 404ZM846 431C846 447 842 452 831 452C820 452 815 446 814 431H846ZM910 462V450C897 447 886 442 886 442V393H874V461H886V452C886 452 898 460 910 462ZM294 325H302V238H345V231H294V325ZM410 265C410 240 404 229 382 229C359 229 353 240 353 265C353 289 361 300 382 300C403 300 410 289 410 265ZM382 237C399 237 402 245 402 266C402 286 397 293 382 293C366 293 362 286 362 266C362 245 364 237 382 237ZM470 298V291C470 291 459 292 454 292C438 292 433 285 433 266C433 245 436 237 454 237C459 237 470 238 470 238V231C470 231 458 229 452 229C430 229 425 239 425 266C425 291 432 300 452 300C458 300 470 298 470 298ZM486 328H494V270H505L526 298H536L512 267L537 231H527L506 263H494V231H486V328ZM596 238 597 231C597 231 581 229 571 229C551 229 545 242 545 264C545 290 556 300 572 300C590 300 599 290 599 268V261H553C553 245 557 237 572 237C582 237 596 238 596 238ZM591 268C591 286 585 293 573 293C560 293 553 286 553 268H591ZM624 298V289C624 289 636 297 649 300V292C636 289 624 281 624 281V231H616V298H624ZM682 292C674 292 666 290 666 281C666 274 670 272 684 269C702 266 708 263 708 250C708 234 698 229 682 229C674 229 659 232 659 232V239C659 239 675 237 682 237C693 237 700 239 700 250C700 258 696 260 681 262C665 264 658 267 658 280C658 295 670 300 682 300C692 300 706 297 706 297V290C706 290 691 292 682 292Z" fill="#1a1a1a"/></svg>