<svg xmlns="http://www.w3.org/2000/svg" viewBox="16.2 -983.8 967.6 967.6"><path transform="scale(1,-1)" d="M477 379 497 252H503C503 252 523 379 523 379C577 390 618 437 618 494C618 551 578 599 523 610L504 737H497C497 737 477 610 477 610C422 599 382 551 382 494C382 438 423 389 477 379ZM611 494C611 441 574 397 524 386L541 494L524 603C575 592 611 546 611 494ZM500 715 534 494H465L500 715ZM475 603 458 495 476 386C426 397 389 441 389 494C389 547 425 591 475 603ZM523 105H521L489 193H460V90H477V179H479L511 90H540V193H523V105ZM495 848C513 843 518 841 518 831C518 823 511 818 499 818C490 818 469 820 469 820L468 807C468 807 487 803 500 803C521 803 535 812 535 833C535 850 525 857 503 863C487 867 482 870 482 879C482 889 488 895 501 895C512 895 532 892 532 892L534 906C534 906 513 910 500 910C480 910 465 900 465 878C465 860 473 854 495 848Z" fill="#1a1a1a"/></svg>