<svg xmlns="http://www.w3.org/2000/svg" viewBox="16.2 -983.8 967.6 967.6"><path transform="scale(1,-1)" d="M536 589C536 610 527 631 527 653L520 660L451 668L444 664C436 649 423 638 415 624C405 609 400 591 401 573H412C411 607 436 628 454 653L512 646C516 621 525 598 525 573H536C536 578 536 584 536 589ZM787 751C778 751 770 743 771 734C713 716 648 704 589 723C591 727 592 732 594 736C601 738 611 740 618 742C633 746 640 763 638 776L633 781C625 783 617 785 609 787L603 796L599 799C591 802 582 804 574 804C569 803 564 802 560 800C540 792 535 768 524 752C516 740 500 739 487 738C468 737 446 736 427 733C412 729 399 720 392 707C381 687 384 663 382 642C381 638 380 635 379 631C373 612 368 593 368 573H379C379 595 387 616 393 637C397 656 394 678 401 697C406 706 413 715 424 718C428 720 433 721 438 721C447 722 456 723 465 724C472 724 491 725 498 726C509 727 521 729 529 737C542 728 556 721 571 715C568 706 565 698 563 689C560 678 558 666 557 655C554 628 554 600 554 573H565C565 599 566 627 570 653C571 664 573 675 576 686C578 694 581 702 584 710C646 691 715 704 775 724C784 713 804 720 804 735C804 744 797 751 788 751H787ZM591 735C591 735 591 735 591 735ZM587 749C587 749 582 745 582 745C580 739 578 734 576 728C563 733 550 740 539 749C545 760 549 773 558 782C561 785 565 787 568 788C576 791 585 789 592 787L598 777L603 773C611 772 618 771 625 770C625 764 622 758 617 756C617 756 610 754 610 754C605 753 592 750 587 749ZM787 730C781 730 781 740 787 740C794 740 794 730 787 730ZM102 378H90V465H102V427H143V465H155V378H143V416H102V378ZM213 378V382C213 382 203 376 195 376C177 376 173 385 173 408V441H185V408C185 392 186 387 197 387C205 387 213 391 213 391V441H224V378H213ZM253 441V437C253 437 263 442 272 442C289 442 293 433 293 412V378H282V411C282 426 280 432 269 432C261 432 253 428 253 428V378H242V441H253ZM331 376C316 376 307 383 307 409C307 432 315 442 334 442C339 442 347 441 349 441V468H360V378H349V382C349 382 339 376 331 376ZM332 387C340 387 349 391 349 391V431C347 431 340 432 334 432C323 432 319 425 319 409C319 391 325 387 332 387ZM425 388 426 379C426 379 411 376 401 376C382 376 375 387 375 409C375 433 385 442 402 442C419 442 428 433 428 413L427 405H387C387 393 391 387 402 387C412 387 426 388 426 388H425ZM416 414C416 428 412 433 402 433C392 433 387 427 387 414H416ZM522 386V376C514 376 510 378 506 381C506 381 495 376 484 376C472 376 466 383 466 396C466 409 473 414 486 415L504 417V422C504 430 501 432 494 432C485 432 470 431 470 431L469 439C469 439 483 442 494 442C509 442 516 436 516 422V391C516 387 518 386 522 386ZM486 386C494 386 504 389 504 389V408L487 407C480 406 477 403 477 396C477 390 480 386 486 386ZM545 441V437C545 437 555 442 564 442C581 442 585 433 585 412V378H574V411C574 426 572 432 561 432C553 432 545 428 545 428V378H533V441H545ZM614 378H603V468H614V378ZM680 388V379C680 379 666 376 655 376C637 376 630 387 630 409C630 433 640 442 657 442C673 442 683 433 683 413L682 405H641C642 393 645 387 657 387C667 387 680 388 680 388ZM671 414C671 428 667 433 657 433C646 433 641 427 641 414H671ZM708 454H697V466H708V454ZM697 441H708V378H697V441ZM737 441V437C737 437 747 442 756 442C773 442 777 433 777 412V378H766V411C766 426 764 432 753 432C745 432 737 428 737 428V378H726V441H737ZM842 388V379C842 379 828 376 817 376C798 376 791 387 791 409C791 433 802 442 818 442C835 442 844 433 844 413V405H803C803 393 807 387 819 387C828 387 842 388 842 388ZM833 414C833 428 828 433 818 433C808 433 803 427 803 414H833ZM870 441V437C870 437 880 442 888 442C906 442 910 433 910 412V378H898V411C898 426 897 432 886 432C878 432 870 428 870 428V378H858V441H870ZM213 314H221V233H261V226H213V314ZM317 233V227C317 227 303 225 293 225C274 225 269 236 269 258C269 282 279 291 295 291C311 291 319 282 319 261V255H276C276 240 281 232 294 232C303 232 317 233 317 233ZM312 261C312 278 306 284 295 284C283 284 276 278 276 261H312ZM387 231 386 225C380 225 376 226 372 230C372 230 360 225 348 225C337 225 331 231 331 244C331 256 337 261 350 262L371 265V270C371 280 367 284 359 284C350 284 335 282 335 282L334 288C334 288 348 291 359 291C373 291 379 284 379 270V237C379 233 383 232 387 231ZM349 231C360 231 371 236 371 236V259L351 257C342 256 339 252 339 244C339 236 342 231 349 231ZM417 284C409 284 402 282 402 273C402 266 405 264 419 262C435 259 442 257 442 244C442 230 432 225 417 225C409 225 395 227 395 227L396 234C396 234 410 232 417 232C427 232 434 234 434 244C434 252 430 253 416 255C401 258 395 260 395 273C395 286 406 290 417 290C426 290 439 288 439 288V282C439 282 426 284 417 284ZM457 317H464V286C464 286 475 291 485 291C502 291 506 282 506 259V226H498V259C498 278 496 284 484 284C474 284 464 279 464 279V226H457V317ZM589 226V231C589 231 579 225 569 225C559 225 547 228 547 257C547 279 553 291 573 291C579 291 587 289 589 289V317H597V226H589ZM570 232C579 232 589 237 589 237V282C587 283 579 284 573 284C558 284 554 274 554 257C554 235 562 232 570 232ZM666 259C666 235 661 225 639 225C618 225 613 235 613 259C613 281 620 291 639 291C659 291 666 281 666 259ZM639 232C656 232 658 239 658 259C658 278 654 284 639 284C625 284 621 278 621 259C621 240 623 232 639 232ZM679 216C679 223 683 227 690 232C687 233 686 236 686 240C686 242 690 250 690 250C685 252 680 257 680 269C680 285 689 291 703 291C710 291 716 289 716 289H735V283H722C725 280 726 277 726 269C726 253 718 248 703 248C701 248 697 248 696 249C696 249 694 242 694 241C694 235 695 235 710 234C727 234 733 231 733 216C733 202 724 196 705 196C685 196 679 201 679 216ZM706 203C720 203 726 207 726 216C726 227 721 228 709 228C704 228 695 228 695 228C689 224 687 222 687 216C687 206 690 203 706 203ZM703 254C715 254 719 258 719 269C719 280 715 284 703 284C692 284 688 280 688 269C688 258 692 254 703 254ZM766 284C758 284 751 282 751 273C751 266 754 264 768 262C784 259 790 257 790 244C790 230 781 225 765 225C758 225 744 227 744 227V234C744 234 759 232 765 232C776 232 782 234 782 244C782 252 778 253 764 255C750 258 743 260 743 273C743 286 754 290 765 290C775 290 788 288 788 288L787 282C787 282 774 284 766 284Z" fill="#1a1a1a"/></svg>