<svg xmlns="http://www.w3.org/2000/svg" viewBox="16.2 -983.8 967.6 967.6"><path transform="scale(1,-1)" d="M382 484C382 490 382 497 383 503C383 530 385 556 388 582C392 607 397 633 405 657C412 681 422 703 435 724C441 734 448 743 455 752C461 761 468 768 476 776C489 789 503 801 517 812C524 817 530 821 535 825L551 837L569 850L426 886L432 910L593 874L599 873L602 868C606 863 610 857 614 851L618 847L617 842L606 674L583 675L587 822L570 810L555 799C549 795 543 791 537 786C523 776 510 765 498 754C492 747 485 740 479 733C473 725 467 717 461 708C449 689 440 669 433 648C426 625 421 602 417 578C414 553 412 528 411 503C411 497 410 490 410 484C410 477 410 471 410 465C410 452 410 439 410 426C410 401 410 376 409 351C409 303 409 258 408 219C408 180 407 148 407 125C407 103 406 90 406 90H383C383 90 383 103 383 126C383 148 383 180 383 219C383 258 383 303 383 351C383 376 383 401 383 426C383 439 383 452 382 464C382 471 382 477 382 484Z" fill="#1a1a1a"/></svg>