<svg xmlns="http://www.w3.org/2000/svg" viewBox="16.2 -983.8 967.6 967.6"><path transform="scale(1,-1)" d="M358 373H327V279H312V373H280V386H358V373ZM401 358V344C386 341 373 335 373 335V279H359V357H373V347C373 347 387 356 401 358ZM472 291V280C472 280 454 277 441 277C418 277 409 290 409 317C409 346 422 359 443 359C463 359 475 347 475 322L474 312H424C424 297 429 290 443 290C455 290 472 291 472 291ZM461 323C461 341 455 346 443 346C430 346 424 340 424 323H461ZM528 358C548 358 557 347 557 319C557 287 547 277 523 277C516 277 508 278 506 279V245H492V357H506V352C506 352 518 359 528 359V358ZM522 290C538 290 543 298 543 319C543 339 536 346 526 346C516 346 506 340 506 340V291C508 291 516 290 522 290ZM611 358C631 358 640 347 640 319C640 287 630 277 606 277C599 277 591 278 589 279V245H575V357H589V352C589 352 601 359 611 359V358ZM605 290C621 290 625 298 625 319C625 339 619 346 609 346C599 346 589 340 589 340V291C591 291 599 290 605 290ZM717 291V280C717 280 699 277 686 277C663 277 654 290 654 317C654 346 667 359 688 359C708 359 720 347 720 322L719 312H669C669 297 674 290 688 290C700 290 717 291 717 291ZM706 323C706 341 700 346 688 346C675 346 669 340 669 323H706ZM359 193C343 193 334 187 334 174C334 158 342 156 361 152C382 148 393 143 393 123C393 99 380 90 359 90C346 90 325 93 325 93L326 102C326 102 347 99 358 99C374 99 383 106 383 123C383 136 376 140 358 143C336 147 324 152 324 173C324 195 337 202 358 202C371 202 390 199 390 199L389 191C389 191 368 193 359 193ZM436 98C441 98 451 100 451 100V92C451 92 441 90 436 90C420 90 415 96 415 118V161H403V170H415V194H424V170H450V161H424V123C424 103 425 98 436 98ZM528 98V90C520 90 514 92 510 97C510 97 495 90 481 90C467 90 460 98 460 114C460 128 467 135 482 137L509 139V146C509 158 504 163 494 163C482 163 464 160 464 160V168C464 168 481 171 494 171C511 171 518 163 518 146V105C519 100 523 98 528 98ZM482 98C495 98 509 104 509 104V132L484 129C473 128 469 123 469 114C469 104 474 98 482 98ZM542 201H552V189H542V201ZM552 170V92H542V170H552ZM584 170V158C584 158 598 168 614 171V162C599 159 584 150 584 150V92H575V170H584ZM651 163C642 163 633 160 633 149C633 141 637 139 654 136C674 133 681 129 681 114C681 96 670 90 651 90C642 90 624 93 624 93L625 101C625 101 643 99 651 99C664 99 672 102 672 114C672 123 667 125 650 128C632 131 623 134 623 149C623 166 637 171 651 171C663 171 679 168 679 168L678 160C678 160 662 163 651 163ZM515 910C411 910 327 826 327 722C327 618 411 533 515 533C618 533 702 618 702 722C702 826 618 910 515 910ZM623 636H542V710H472V784H406V799H488V725H557V651H623V636Z" fill="#1a1a1a"/></svg>