<svg xmlns="http://www.w3.org/2000/svg" viewBox="16.2 -983.9 967.7 967.7"><path transform="scale(1,-1)" d="M370 687C370 687 370 687 370 687C370 687 370 687 370 687ZM383 622C383 622 383 622 383 622ZM667 124C665 196 658 273 650 345L639 360C594 376 548 388 501 398C486 420 466 439 444 453C441 483 438 515 427 545C418 573 389 591 384 618C384 618 384 618 384 618C384 618 384 617 384 617C384 618 384 618 384 618C385 646 406 674 405 704C407 763 343 803 292 772C255 748 249 696 266 658C268 652 270 646 271 640C274 611 265 576 262 544C258 517 256 490 257 462C74 371 135 97 342 94C437 94 516 162 532 253C536 252 539 252 543 252C551 198 557 144 561 90L591 92C589 151 585 213 578 272C578 272 561 289 561 289L535 292C535 314 531 335 523 355C554 348 586 340 616 330C626 251 633 170 637 90L668 92L667 123V124ZM293 497C292 548 308 592 302 645C301 657 296 670 291 682C283 707 291 744 320 751C338 755 358 748 367 732C388 694 352 657 352 619C351 580 393 558 401 522C404 505 406 488 408 470C373 484 330 486 293 476C293 483 293 490 293 497ZM342 127C253 127 180 199 180 288C189 502 494 502 503 288C503 199 431 127 342 127ZM852 711 851 734C787 726 747 716 750 807C747 900 788 889 851 881L852 903C772 919 719 916 722 807C719 701 771 695 852 711ZM514 732 483 907H454L494 708H540L576 872L612 708H658L698 907H670L638 732H631L592 906H560L521 732H514Z" fill="#1a1a1a"/></svg>