<svg xmlns="http://www.w3.org/2000/svg" viewBox="16.2 -983.8 967.6 967.6"><path transform="scale(1,-1)" d="M479 910C415 909 351 882 308 836L326 817C408 900 549 901 632 820L651 839C607 885 543 911 479 910ZM479 834C435 834 391 815 362 783L380 764C433 817 525 818 580 766L598 785C567 817 523 835 479 834ZM480 761C456 761 430 750 415 732L432 713C458 738 501 738 528 714L547 733C531 751 505 762 480 761ZM481 694C473 694 466 691 461 686L481 664L500 686C495 691 488 694 481 694ZM299 338 325 454H346L373 338H377L398 455H417L391 322H360L336 432L312 322H281L254 455H273L294 338H299ZM457 455V338H512V322H438V455H457ZM626 322H608L599 353H545L537 322H519L554 455H591L626 322ZM596 369 577 439H568L549 369H596ZM725 338H728V455H746V322H714L668 439H664V322H646V455H679L725 338ZM392 101H399L427 223H441L469 101H475L500 224H512L484 90H460L434 208L407 90H383L356 224H368L392 101ZM533 225H544V211H533V225ZM544 187V90H533V187H544ZM577 90V176H564V187H577V196C577 224 584 231 602 231C609 231 621 230 621 230V221C621 221 610 221 604 221C592 221 588 216 588 196V187H618V176H588V90H577ZM636 225H647V211H636V225ZM647 187V90H636V187H647Z" fill="#1a1a1a"/></svg>