<svg xmlns="http://www.w3.org/2000/svg" viewBox="16.2 -982.0 967.6 967.6"><path transform="scale(1,-1)" d="M493 843C517 846 538 831 540 806C544 769 500 745 471 769C443 792 456 840 493 843ZM494 828C462 824 465 774 499 775C535 776 533 833 494 828ZM541 760C544 759 552 760 554 757C555 756 558 748 558 746C571 708 565 649 532 623C501 598 465 612 447 644C431 672 428 711 437 742C438 744 441 754 443 756C443 756 453 759 454 759C480 739 516 736 541 760ZM548 685C550 704 550 724 543 742C526 730 506 724 485 728C474 730 463 736 453 740C453 738 451 735 451 733C452 733 456 728 456 727C464 719 476 711 485 706C505 695 526 688 548 685ZM448 714C447 693 449 672 459 654C466 653 501 679 501 681C482 689 463 700 448 714ZM544 670 517 676C506 665 494 654 481 647C477 644 473 643 470 641C469 641 469 641 469 640C470 637 480 630 483 629C513 615 537 645 544 670ZM163 380 183 469H200L220 380H224L240 470H254L234 367H210L191 452L173 367H149L129 470H143L159 380H163ZM282 456H269V472H282V456ZM269 442H282V367H269V442ZM352 441V430C352 430 340 431 334 431C318 431 314 424 314 406C314 385 317 378 334 378C340 378 352 379 352 379V368C352 368 338 366 331 366C307 366 300 377 300 406C300 432 309 443 331 443C338 443 352 441 352 441ZM382 473V412H392L412 442H427L405 407L429 367H413L393 400H382V367H368V473H382ZM495 379 496 369C496 369 479 366 466 366C444 366 436 378 436 404C436 432 448 443 468 443C487 443 498 433 498 409L497 399H450C450 385 455 378 468 378C480 378 496 379 496 379H495ZM485 410C485 426 480 432 468 432C456 432 450 426 450 410H485ZM529 367H516V473H529V367ZM591 443V430C577 427 565 421 565 421V367H551V442H564V432C564 432 577 441 591 443ZM665 376V366C656 366 651 367 646 371C646 371 633 366 620 366C606 366 599 374 599 389C599 404 607 410 622 411L644 413V419C644 428 640 431 632 431C621 431 604 430 604 430L603 440C603 440 619 443 633 443C650 443 657 436 657 419V383C658 379 660 377 665 376ZM623 377C633 377 644 381 644 381V403L624 401C616 401 613 397 613 389C613 382 616 377 623 377ZM724 367V372C724 372 713 366 703 366C682 366 678 376 678 403V442H692V403C692 384 693 378 706 378C716 378 724 383 724 383V442H738V367H724ZM772 442V437C772 437 783 443 793 443C802 443 808 441 812 436C812 436 825 443 838 443C858 443 863 433 863 407V367H850V407C850 424 848 431 835 431C826 431 817 426 817 426C817 424 818 414 818 406V367H805V406C805 424 803 431 790 431C781 431 772 426 772 426V367H759V442H772ZM108 292 151 197H155V292H164V189H146L103 284H99V189H90V292H108ZM244 189H235V194C235 194 224 187 212 187C192 187 188 196 188 224V263H196V224C196 202 199 195 213 195C225 195 235 202 235 202V263H244V189ZM275 263V252C275 252 288 262 303 265V256C289 253 275 245 275 245V189H266V263H275ZM339 256C330 256 322 254 322 244C322 236 325 234 342 231C361 228 368 225 368 210C368 193 357 187 339 187C330 187 314 190 314 190V198C314 198 331 195 339 195C351 195 359 198 359 210C359 219 354 221 338 223C321 226 313 229 313 243C313 260 326 264 339 264C350 264 365 262 365 262V254C365 254 349 256 339 256ZM386 293H395V282H386V293ZM395 263V189H386V263H395ZM417 263H426V258C426 258 438 265 450 265C471 265 475 255 475 228V189H466V227C466 249 464 257 449 257C437 257 426 250 426 250V189H417V263ZM493 176C493 185 497 189 505 195C503 197 501 201 501 205C501 208 506 217 506 217C500 219 494 225 494 239C494 257 505 265 521 265C529 265 536 263 536 263H558V255H543C546 252 548 248 548 239C548 220 539 214 520 214C519 214 514 215 513 215C513 215 510 208 510 206C510 199 511 199 529 198C549 198 556 195 556 177C556 160 545 153 524 153C500 153 493 159 493 176ZM524 161C541 161 548 166 548 177C548 189 542 191 528 191C523 191 511 191 511 191C504 186 502 183 502 177C502 166 506 161 524 161ZM521 222C535 222 540 227 540 239C540 252 535 257 521 257C508 257 503 252 503 239C503 226 508 222 521 222ZM611 263V252C611 252 624 262 639 265V256C625 253 611 245 611 245V189H602V263H611ZM710 227C710 199 703 187 679 187C654 187 647 199 647 227C647 253 655 265 679 265C702 265 710 253 710 227ZM679 195C698 195 701 204 701 227C701 250 696 257 679 257C662 257 657 249 657 227C657 205 659 195 679 195ZM788 227C788 199 782 187 757 187C732 187 726 199 726 227C726 253 734 265 757 265C780 265 788 253 788 227ZM757 195C776 195 779 204 779 227C779 250 774 257 757 257C740 257 735 249 735 227C735 205 738 195 757 195ZM807 263H816V258C816 258 827 265 839 265C849 265 855 262 858 257C858 257 871 265 885 265C905 265 910 255 910 228V189H901V227C901 249 899 257 884 257C872 257 862 250 862 250C863 246 864 237 864 227V189H855V227C855 249 852 256 838 256C826 256 816 250 816 250V189H807V263Z" fill="#1a1a1a"/></svg>