<svg xmlns="http://www.w3.org/2000/svg" viewBox="16.1 -984.0 967.9 967.9"><path transform="scale(1,-1)" d="M789 605C773 672 699 695 643 721C610 736 543 766 510 780L535 825C540 834 547 844 547 855C551 885 525 913 495 910C462 908 439 871 454 841L467 847C465 851 465 857 465 862C466 879 483 894 500 892C524 891 538 862 525 842C514 822 502 801 491 781L495 769C559 739 642 704 706 672C733 658 757 639 768 609C768 607 770 605 770 602C771 597 768 591 763 588C761 588 759 587 757 587H670C540 587 367 587 238 587C229 587 223 597 226 605C232 619 239 633 250 643C272 665 302 678 330 692C365 709 434 743 469 760L463 774C428 757 357 724 322 707C279 686 227 664 210 614C200 592 216 567 241 568C312 568 442 568 515 568C515 568 670 568 670 568H748C748 568 758 568 758 568C777 568 793 586 789 605ZM180 293C143 293 134 315 134 353C134 391 144 413 179 413C197 413 218 409 218 409L217 396C217 396 197 399 181 399C156 399 150 386 150 353C150 320 155 307 181 307C189 307 199 309 202 309V341H185V356H218V297C215 297 193 293 179 293H180ZM310 305V293C300 293 294 295 289 300C289 300 274 293 260 293C243 293 235 302 235 320C235 337 244 343 262 345L286 347V354C286 365 282 368 272 368C261 368 240 366 240 366V378C240 378 258 382 273 382C293 382 302 373 302 354V313C302 308 305 306 310 305ZM262 306C273 306 286 311 286 311V336L264 334C255 333 251 329 251 320C251 312 254 306 262 306ZM371 382V366C355 363 341 356 341 356V295H326V380H341V369C341 369 356 379 371 382ZM412 293C393 293 380 302 380 337C380 367 391 382 416 382C423 382 434 380 436 379V416H451V295H436V300C436 300 423 293 412 293ZM414 307C425 307 436 313 436 313V366C434 367 424 368 417 368C402 368 396 358 396 337C396 313 404 307 414 307ZM539 308V297C539 297 520 293 505 293C480 293 471 307 471 337C471 368 485 382 507 382C530 382 542 369 542 342L541 331H487C487 315 492 307 508 307C521 307 539 308 539 308ZM527 343C527 362 521 369 507 369C493 369 487 362 487 343H527ZM606 382V366C591 363 577 356 577 356V295H561V380H576V369C576 369 591 379 606 382ZM690 338C690 309 682 293 653 293C624 293 616 309 616 338C616 368 625 382 653 382C681 382 690 367 690 338ZM653 307C671 307 674 316 674 338C674 360 669 368 653 368C636 368 632 360 632 338C632 317 635 307 653 307ZM780 339C780 304 770 293 739 293C730 293 709 295 709 295V416H725V376C725 376 737 382 748 382C771 382 780 370 780 339ZM739 307C760 307 764 317 764 339C764 359 759 368 746 368C736 368 725 364 725 364V308C725 308 735 307 739 307ZM863 308 864 297C864 297 844 293 830 293C805 293 795 307 795 337C795 368 809 382 832 382C854 382 866 369 866 342L865 331H811C811 315 817 307 832 307C845 307 863 308 863 308ZM851 343C851 362 845 369 832 369C818 369 811 362 811 343H851ZM191 101H196L221 208H233L258 101H264L285 210H296L271 92H250L227 195L204 92H183L159 210H169L191 101ZM381 98 380 90C372 90 366 92 361 97C361 97 345 90 329 90C314 90 306 99 306 116C306 131 314 139 331 140L360 143V151C360 164 354 169 343 169C331 169 311 166 311 166V174C311 174 329 178 343 178C362 178 370 169 370 151V106C370 101 375 99 381 98ZM331 99C344 99 360 105 360 105V135L332 132C321 131 316 126 316 116C316 105 321 99 331 99ZM406 176V164C406 164 421 175 438 178V168C422 165 406 155 406 155V92H396V177H406V176ZM504 92V98C504 98 491 90 477 90C463 90 447 95 447 133C447 163 456 178 483 178C490 178 501 176 504 176V214H514V92H504ZM478 99C491 99 504 107 504 107V167C501 168 490 169 483 169C463 169 457 156 457 133C457 103 468 99 478 99ZM549 176V164C549 164 564 175 581 178V168C565 165 549 155 549 155V92H539V177H549V176ZM662 135C662 103 655 90 627 90C598 90 591 103 591 135C591 165 600 178 627 178C653 178 662 165 662 135ZM627 99C649 99 652 109 652 135C652 161 646 169 627 169C607 169 602 161 602 135C602 110 605 99 627 99ZM750 135C750 102 742 90 711 90C700 90 684 92 684 92V214H694V172C694 172 707 178 720 178C743 178 750 165 750 135ZM711 99C736 99 740 110 740 135C740 159 736 169 720 169C706 169 694 163 694 163V100C694 100 706 99 711 99ZM833 101 834 92C834 92 815 90 801 90C776 90 768 105 768 134C768 166 783 178 803 178C825 178 837 166 837 138L836 130H779C779 110 785 99 802 99C815 99 833 101 833 101ZM827 138C827 161 819 169 803 169C787 169 779 161 779 138H827Z" fill="#1a1a1a"/></svg>