<svg xmlns="http://www.w3.org/2000/svg" viewBox="16.2 -983.8 967.6 967.6"><path transform="scale(1,-1)" d="M273 298V263H257V361H289C310 361 321 352 321 330C321 313 315 305 306 301L323 263H306L292 298H273ZM289 312C300 312 304 317 304 330C304 342 300 347 289 347H273V312H289ZM384 277 385 266C385 266 374 262 361 262C341 262 332 273 332 297C332 319 340 336 361 336C378 336 388 330 388 315C388 297 376 293 353 293H347V291C347 281 352 275 362 275C372 275 384 277 384 277ZM353 305C366 305 372 306 372 315C372 321 369 324 361 324C351 324 348 316 347 305H353ZM423 323C418 323 413 321 413 315C413 310 416 308 425 306C440 302 449 300 449 285C449 267 438 262 422 262C411 262 397 265 397 265L398 277C398 277 414 275 420 275C430 275 433 277 433 283C433 289 430 290 421 292C406 295 397 299 397 314C397 330 409 336 422 336C435 336 446 333 446 333V321C446 321 432 323 423 323ZM487 275C491 275 497 276 497 276L498 264C498 264 489 261 485 261C469 261 465 270 465 284V321H457V335H465V354H480V335H498V321H480V285C480 279 481 275 487 275ZM539 323C532 323 524 312 524 312V263H509V335H524V326C524 326 532 336 543 336C557 336 562 325 562 325C562 325 571 336 582 336C598 336 605 324 605 306V263H589V303C589 317 587 323 578 323C571 323 565 314 565 314C565 314 565 309 565 304V263H550V302C550 318 547 323 539 323ZM621 335H636V294C636 280 639 275 647 275C655 275 662 285 662 285V335H678V263H662V272C662 272 655 262 644 262C627 262 621 272 621 290V335ZM643 367V350H628V367H643ZM657 367H671V350H657V367ZM711 364V263H695V364H711ZM743 364V263H728V364H743ZM390 103 417 191H433V92H425V183H423L395 95H384L356 183H354V92H346V191H362L390 103ZM454 191H463V180H454V191ZM463 92H455V163H463V92ZM520 163H529L507 127L529 92H520L503 121L485 92H476L498 127L476 163H485L503 133L520 163ZM586 101V94C586 94 576 90 563 90C545 90 537 101 537 127C537 151 546 164 566 164C580 164 589 159 589 146C589 129 578 124 554 124H546V122C546 107 551 98 564 98C574 98 586 101 586 101ZM554 131C573 131 580 134 580 146C580 154 575 157 566 157C552 157 546 148 546 131H554ZM624 90C607 90 602 104 602 126C602 151 609 164 630 164C637 164 646 163 646 163V195H655V91H646V103C646 103 638 90 624 90ZM626 98C638 98 646 113 646 113V155C646 155 638 157 630 157C615 157 611 146 611 126C611 111 613 98 626 98ZM347 799C349 723 351 647 357 571C359 545 359 517 367 491C368 490 373 488 376 487C398 482 422 480 445 479C483 477 521 477 558 478C583 480 611 479 633 488C634 491 636 497 636 501C647 600 645 700 647 799C647 799 659 799 659 799C659 723 659 647 656 571C654 542 654 513 647 484C641 464 577 466 559 464C520 462 482 462 444 464C420 466 395 467 372 473C366 475 361 476 356 482C354 484 352 488 351 491C345 517 344 544 342 570C337 646 335 722 334 798C334 798 347 798 347 798V799ZM425 760 433 537H418L413 759L425 760ZM508 770 510 527H495L498 770H508ZM585 759 583 537H568L576 759H585ZM317 847C437 850 562 851 682 847C682 847 682 840 682 840C652 839 621 839 591 838C537 838 461 837 408 838C378 839 347 839 317 841V847ZM433 839 418 842C419 847 429 888 442 900C456 913 490 910 498 909C504 909 540 909 554 901C570 893 578 854 580 842L565 839C561 860 553 885 547 888C538 893 512 894 498 894H497C482 896 459 895 452 889C445 882 436 855 432 839H433Z" fill="#1a1a1a"/></svg>