<svg xmlns="http://www.w3.org/2000/svg" viewBox="16.2 -983.8 967.6 967.6"><path transform="scale(1,-1)" d="M383 525 248 503V496C248 496 383 476 383 476C394 419 444 375 505 375C565 375 615 418 627 476L761 496V503C761 503 627 525 627 525C615 583 564 625 505 625C445 625 394 581 382 524L383 525ZM505 382C448 382 401 422 390 474L504 457L619 474C607 421 560 382 505 382ZM738 500 505 464V537L738 500ZM619 526 505 544 390 526C402 578 449 618 505 618C561 618 607 579 619 526ZM108 539H110L144 445H174V555H157V461H154L121 555H90V445H108V539ZM879 509C860 514 855 516 855 527C855 536 861 541 875 541C884 541 906 538 906 538L908 553C908 553 887 556 873 556C851 556 837 547 837 525C837 506 847 499 870 493C887 489 892 486 892 477C892 465 886 459 872 459C861 459 839 462 839 462L838 448C838 448 859 444 873 444C895 444 910 454 910 478C910 497 902 503 879 509Z" fill="#1a1a1a"/></svg>