<svg xmlns="http://www.w3.org/2000/svg" viewBox="16.3 -983.5 967.3 967.3"><path transform="scale(1,-1)" d="M139 312H124V420H139V371L156 372L181 420H197L169 366L199 312H182L156 359L139 358V312ZM269 325V314C269 314 251 311 238 311C215 311 206 324 206 351C206 380 219 392 240 392C260 392 272 381 272 356L271 346H221C221 331 226 323 240 323C252 323 269 325 269 325ZM257 357C257 374 252 380 240 380C227 380 221 374 221 357H257ZM303 406H289V422H303V406ZM289 391H303V312H289V391ZM339 391V385C339 385 351 392 362 392C384 392 389 381 389 354V313H375V354C375 372 372 379 359 379C349 379 339 374 339 374V313H325V391H339ZM468 325 469 314C469 314 451 311 438 311C414 311 406 324 406 351C406 380 419 392 439 392C460 392 471 381 471 356L470 346H420C421 331 426 323 440 323C452 323 468 325 468 325ZM457 357C457 374 452 380 439 380C427 380 420 374 420 357H457ZM588 407H537V368H579V355H537V312H522V420H588V407ZM664 352C664 325 657 311 630 311C604 311 596 325 596 352C596 379 605 392 630 392C656 392 664 378 664 352ZM630 323C647 323 650 332 650 352C650 372 645 380 630 380C615 380 611 372 611 352C611 332 614 323 630 323ZM710 324C714 324 723 324 723 324L724 313C724 313 714 311 708 311C691 311 686 317 686 340V378H675V390H686V414H700V390H723V378H700V342C700 328 701 323 710 323V324ZM802 352C802 325 794 311 768 311C741 311 734 325 734 352C734 379 742 392 768 392C793 392 802 378 802 352ZM768 323C784 323 787 332 787 352C787 372 783 380 768 380C753 380 748 372 748 352C748 332 751 323 768 323ZM845 379C836 379 830 377 830 369C830 363 834 361 850 358C869 355 876 351 876 335C876 317 864 311 845 311C835 311 817 314 817 314L818 326C818 326 836 324 844 324C856 324 861 326 861 335C861 342 858 344 842 346C824 349 816 353 816 369C816 386 830 392 845 392C856 392 873 389 873 389V377C873 377 855 379 845 379ZM191 234 237 134H241V234H250V125H231L186 225H182V125H172V234H191ZM337 165C337 136 330 124 304 124C278 124 271 136 271 165C271 193 280 205 304 205C328 205 337 193 337 165ZM304 132C324 132 327 141 327 165C327 189 322 196 304 196C286 196 281 189 281 165C281 142 284 132 304 132ZM401 203V197C401 197 413 205 425 205C445 205 453 192 453 165C453 135 443 124 419 124C411 124 403 125 401 126V90H391V203H401ZM419 132C437 132 443 141 443 165C443 188 436 196 424 196C412 196 400 189 400 189V134C403 133 411 132 419 132ZM473 238H482V199C482 199 495 205 507 205C529 205 533 195 533 166V125H524V166C524 189 522 196 506 196C494 196 482 191 482 191V125H473V238ZM618 165C618 136 612 124 586 124C560 124 553 136 553 165C553 193 561 205 586 205C610 205 618 193 618 165ZM586 132C606 132 609 141 609 165C609 189 603 196 586 196C568 196 563 189 563 165C563 142 565 132 586 132ZM664 132C668 132 678 133 678 133L679 125C679 125 668 123 663 123C647 123 642 129 642 152V195H630V203H642V228H651V203H677V195H651V156C651 137 652 132 664 132ZM754 165C754 136 747 124 721 124C695 124 689 136 689 165C689 193 697 205 721 205C746 205 754 193 754 165ZM721 132C741 132 744 141 744 165C744 189 739 196 721 196C704 196 698 189 698 165C698 142 701 132 721 132ZM798 196C788 196 779 193 779 183C779 175 783 172 800 170C820 166 828 163 828 148C828 129 816 123 798 123C788 123 771 126 771 126V135C771 135 789 132 797 132C810 132 818 135 818 147C818 157 813 159 796 161C778 164 770 167 770 182C770 199 784 204 797 204C809 204 825 202 825 202V194C825 194 808 196 798 196ZM645 653C621 652 584 651 560 650C539 650 502 650 480 650C459 650 422 650 401 650C377 651 339 652 315 653V681L298 676V645L306 636C334 634 373 632 401 630C422 630 459 630 480 630C502 630 539 630 560 630C588 632 627 634 655 636L663 645V794L645 789V653ZM315 754V852L411 857L419 865L422 892C460 893 500 892 539 892L542 865L550 857L645 852V832L663 837V861L655 869L558 874L555 901L546 909C503 910 458 910 414 909L406 901L403 874L306 869L298 861V719L315 724V754ZM426 717C421 716 412 713 408 712C424 687 451 671 482 671C532 671 573 714 569 764C565 763 556 760 552 758C551 691 465 664 426 717ZM395 750C399 751 408 754 412 756C410 795 442 829 482 829C506 829 528 816 540 797C545 799 553 802 558 803C510 883 387 844 395 750ZM742 851C568 798 389 740 217 680C218 676 221 667 222 663C396 716 575 774 747 834L742 851Z" fill="#1a1a1a"/></svg>