<svg xmlns="http://www.w3.org/2000/svg" viewBox="16.2 -983.8 967.6 967.6"><path transform="scale(1,-1)" d="M119 355C96 355 90 368 90 393C90 417 97 431 119 431C130 431 144 429 144 429L143 420C143 420 130 422 120 422C104 422 100 414 100 393C100 372 104 363 120 363C125 363 132 364 134 365V385H123V394H144V357C142 357 128 354 119 354V355ZM199 364V357C199 357 187 355 178 355C162 355 156 364 156 382C156 403 165 411 179 411C193 411 201 403 201 386L200 379H166C166 368 169 363 179 363C187 363 199 364 199 364ZM191 386C191 399 188 403 179 403C170 403 166 398 166 386H191ZM242 411V401C232 399 223 394 223 394V356H213V410H223V403C223 403 232 409 242 411ZM265 388 281 389V393C281 400 278 402 272 402C264 402 251 401 251 401V408C251 408 263 411 273 411C285 411 291 405 291 393V367C291 364 293 363 296 362V355C290 355 286 355 282 359C282 359 273 355 264 355C253 355 248 360 248 371C248 383 254 387 265 388ZM264 422H254V433H264V422ZM265 363C273 363 281 366 281 366V382L266 380C261 380 258 377 258 372C258 366 260 363 265 363ZM276 433H286V422H276V433ZM325 363C328 363 335 364 335 364V356C335 356 328 355 324 355C312 355 309 359 309 375V401H301V410H309V426H318V410H334V401H318V376C318 366 319 363 325 363ZM385 364V357C385 357 373 355 364 355C348 355 342 364 342 382C342 403 351 411 365 411C379 411 387 403 387 386V379H352C352 368 355 363 365 363C374 363 385 364 385 364ZM377 386C377 399 374 403 365 403C356 403 352 398 352 386H377ZM468 362 467 355C461 355 457 355 454 359C454 359 445 355 435 355C425 355 420 360 420 371C420 383 425 387 437 388L452 389V393C452 400 449 402 443 402C436 402 423 401 423 401V408C423 408 434 411 444 411C457 411 462 405 462 393V367C462 364 464 363 468 362ZM437 363C444 363 452 366 452 366V382L438 380C432 380 430 377 430 372C430 366 432 363 437 363ZM522 384C522 362 516 355 497 355C490 355 478 356 478 356V433H487V407C487 407 495 411 502 411C517 411 522 404 522 384ZM497 364C510 364 512 369 512 384C512 397 509 402 501 402C494 402 487 399 487 399V364C487 364 494 364 497 364ZM553 402C546 402 542 400 542 395C542 391 545 389 556 388C569 385 574 382 574 372C574 359 566 355 552 355C545 355 533 357 533 357V365C533 365 546 364 552 364C560 364 564 365 564 371C564 376 561 377 550 379C538 381 532 384 532 395C532 407 542 411 552 411C560 411 572 409 572 409V400C572 400 559 402 553 402ZM621 409V401C621 401 612 402 608 402C596 402 593 397 593 384C593 369 596 363 608 363C612 363 621 364 621 364V356C621 356 611 354 606 354C589 354 583 363 583 384C583 403 590 411 606 411C611 411 621 409 621 409ZM643 433V407C643 407 651 411 659 411C674 411 677 403 677 384V356H667V384C667 397 666 402 657 402C650 402 643 399 643 399V356H633V433H643ZM736 362V355C730 355 726 355 722 359C722 359 713 355 704 355C694 355 688 360 688 371C688 383 694 387 706 388L721 389V393C721 400 718 402 712 402C705 402 692 401 692 401L691 408C691 408 703 411 713 411C726 411 731 405 731 393V367C731 364 733 363 736 362ZM706 363C713 363 721 366 721 366V382L707 380C701 380 698 377 698 372C698 366 701 363 706 363ZM757 356H747V433H757V356ZM792 363C795 363 801 364 801 364L802 356C802 356 794 355 791 355C779 355 775 359 775 375V401H768V410H775V426H785V410H801V401H785V376C785 366 786 363 792 363ZM852 364V357C852 357 840 355 830 355C814 355 808 364 808 382C808 403 817 411 831 411C846 411 854 403 854 386L853 379H818C819 368 822 363 832 363C840 363 852 364 852 364ZM844 386C844 399 840 403 832 403C823 403 819 398 818 386H844ZM876 410V406C876 406 884 411 891 411C906 411 910 403 910 385V356H900V384C900 397 899 402 889 402C882 402 876 399 876 399V356H866V410H876ZM202 301V295H179V226H172V295H148V301H202ZM242 226H236V230C236 230 227 225 219 225C204 225 201 231 201 252V280H207V252C207 236 209 231 220 231C228 231 236 235 236 235V280H242V226ZM265 280V272C265 272 274 279 285 281V275C275 272 265 266 265 266V226H258V280H265ZM295 280H301V276C301 276 310 281 319 281C334 281 337 274 337 254V226H330V254C330 270 329 275 318 275C309 275 301 271 301 271V226H295V280ZM419 254C419 233 415 225 397 225C379 225 374 233 374 254C374 273 380 281 397 281C414 281 419 273 419 254ZM397 231C411 231 413 237 413 254C413 270 409 275 397 275C384 275 381 270 381 254C381 237 383 231 397 231ZM436 226V274H429V280H436V285C436 301 439 305 450 305C454 305 460 305 460 305V299C460 299 454 299 451 299C444 299 442 297 442 285V280H458V274H442V226H436ZM471 226V274H464V280H471V285C471 301 474 305 485 305C489 305 495 305 495 305V299C495 299 489 299 486 299C479 299 477 297 477 285V280H493V274H477V226H471ZM561 226V230C561 230 553 225 544 225C535 225 525 228 525 252C525 271 531 281 548 281C552 281 559 280 561 280V304H568V226H561ZM545 231C553 231 561 235 561 235V274C559 274 552 275 548 275C535 275 532 267 532 252C532 233 538 231 545 231ZM623 232V226C623 226 611 225 603 225C586 225 582 235 582 253C582 274 591 281 604 281C618 281 625 274 625 255V250H588C588 237 592 231 603 231C611 231 623 232 623 232ZM619 256C619 270 614 275 604 275C594 275 588 270 588 256H619ZM653 231H657L671 280H678L662 226H648L632 280H640L653 231ZM689 302H696V294H689V302ZM696 280V226H689V280H696ZM746 280V274C746 274 737 275 733 275C720 275 716 269 716 254C716 237 719 231 733 231C737 231 746 232 746 232V226C746 226 736 225 732 225C714 225 710 233 710 254C710 274 716 281 732 281C737 281 746 280 746 280ZM797 232V226C797 226 785 225 777 225C760 225 756 235 756 253C756 274 765 281 778 281C792 281 799 274 799 255V250H762C762 237 766 231 777 231C785 231 797 232 797 232ZM793 256C793 270 788 275 778 275C768 275 762 270 762 256H793ZM829 275C822 275 816 273 816 266C816 260 819 259 831 257C844 254 850 252 850 242C850 229 842 225 829 225C822 225 810 227 810 227L811 232C811 232 823 231 828 231C838 231 843 233 843 241C843 248 840 249 828 251C815 253 809 255 809 266C809 277 819 281 829 281C837 281 848 279 848 279V273C848 273 836 275 829 275ZM347 651C347 651 347 651 347 651C409 667 472 683 534 700C537 700 540 701 544 702C575 711 606 719 637 728C637 728 637 728 637 728C654 732 672 737 689 742L687 747C687 747 685 752 685 752C649 743 613 734 576 725C573 724 570 723 566 722C559 720 551 718 544 716C544 716 544 716 544 716C481 700 419 683 358 666C357 666 357 666 357 666C354 665 350 664 347 664C347 664 347 664 347 664C332 659 317 655 302 651C303 648 305 643 306 641C319 644 333 648 347 651ZM358 765H533V719C537 720 540 721 544 722L543 770L538 775H353L348 770L347 669C351 670 354 671 358 672V765ZM523 625V631C471 632 418 632 366 631V625C377 624 394 624 405 624C444 624 484 624 523 625ZM360 618V611C414 610 475 610 529 611V618C517 618 499 618 487 618C448 618 399 618 360 618ZM544 697C540 696 537 695 534 694V652C494 652 419 652 372 652C363 650 355 647 346 645L329 591L334 583C342 583 365 582 372 581C384 581 433 581 446 581C459 581 507 581 519 581C527 582 550 583 558 583L563 591L544 647V697ZM529 593C511 592 465 593 446 593C433 593 385 593 373 593C366 593 349 594 342 594L356 641C401 641 491 641 535 641L550 594L529 593ZM637 713V709C637 709 637 709 637 709V653L632 649C616 649 599 649 582 649L576 653V705C573 704 570 703 566 703V651L568 648L577 640L579 639H583C588 639 595 639 600 639C602 639 604 639 606 639C613 639 620 639 627 639H629C631 639 632 639 634 639L636 640L645 647L647 650V724C643 724 640 723 637 722V713ZM577 731V764H602C601 764 600 764 599 764H597V756L599 755C601 755 603 755 606 755C609 755 612 755 614 755L616 756V764H614C613 764 613 764 612 764H637C637 764 637 746 637 746C640 747 643 747 647 748V770L643 775H642C614 775 592 775 571 774C571 774 566 770 566 770V728C570 729 573 730 577 731Z" fill="#1a1a1a"/></svg>