<svg xmlns="http://www.w3.org/2000/svg" viewBox="16.2 -983.8 967.6 967.6"><path transform="scale(1,-1)" d="M327 354C327 342 323 337 316 333C325 329 329 323 329 311C329 292 319 285 300 285H268V377H299C316 377 327 370 327 354ZM299 338C308 338 312 344 312 352C312 360 308 364 299 364H283V338H299ZM299 298C309 298 314 302 314 312C314 322 309 326 299 326H283V298H300H299ZM343 378H358V362H343V378ZM358 352V285H343V352H358ZM426 319C426 298 422 283 399 283C376 283 371 298 371 319C371 339 377 354 399 354C420 354 426 339 426 319ZM399 296C410 296 412 305 412 319C412 332 410 341 399 341C387 341 385 332 385 319C385 305 387 296 399 296ZM437 317C437 338 442 354 464 354C473 354 492 351 492 351V303C492 298 492 285 492 285L478 284C478 284 477 290 477 294C477 294 471 283 459 283C443 283 437 295 437 317ZM462 296C471 296 477 307 477 307V340C477 340 469 341 465 341C455 341 452 333 452 317C452 304 454 295 462 295V296ZM563 320C563 294 553 283 532 283C525 283 508 285 508 285V380H522V346C522 346 531 354 540 354C557 354 563 341 563 320ZM533 296C545 296 548 303 548 320C548 331 546 341 537 341C529 341 522 334 522 334V296C522 296 530 296 533 296ZM592 255H578V340H572V352H578V356C578 375 584 382 597 382C601 382 610 380 610 380L609 369C609 369 604 369 600 369C594 369 593 364 593 356V352H609V340H593V285L592 256V255ZM615 317C615 338 620 354 643 354C652 354 670 351 670 351V303C670 298 671 285 671 285L656 284C656 284 655 290 655 294C655 294 649 283 638 283C621 283 615 295 615 317ZM641 296C649 296 655 307 655 307V340C655 340 647 341 644 341C633 341 630 333 630 317C630 304 632 295 641 295V296ZM701 380V285H686V380H701ZM732 380V285H718V380H732ZM319 213C324 216 331 218 340 218C368 218 374 203 374 170C374 147 371 132 360 125C355 122 349 121 340 121C312 121 306 137 306 170C306 192 309 206 319 213ZM354 131C364 136 366 149 366 170C366 198 363 210 340 210C335 210 331 209 327 208C317 203 315 191 315 170C315 142 318 128 340 128C346 128 350 129 354 131ZM422 191V182C412 180 399 172 399 172V122H391V190H399V179C399 179 410 188 422 191ZM429 108C429 117 436 124 442 128C439 130 439 133 439 136C439 141 443 147 443 147C434 150 430 158 430 168C430 182 438 191 452 191C458 191 464 189 464 189L483 190V183H470C474 180 476 174 476 168C476 154 467 145 452 145C450 145 449 146 449 146C449 146 446 140 446 137C446 134 447 131 459 131C474 131 483 129 483 113C483 99 472 90 455 90C440 90 429 93 429 108ZM455 97C467 97 475 103 475 113C475 123 469 124 458 124C455 124 450 125 448 125C442 123 437 116 437 109C437 99 443 97 455 97ZM452 153C464 153 468 159 468 168C468 178 464 184 453 184C442 184 438 178 438 168C438 158 442 153 452 153ZM493 154C493 176 498 191 520 191C527 191 543 189 543 189V138C543 131 544 122 544 122H536C536 122 535 129 535 134C535 134 527 121 514 121C498 121 493 133 493 155V154ZM516 128C527 128 535 143 535 143V183C535 183 525 184 521 184C505 184 502 174 502 154C502 139 504 128 516 128ZM570 190V179C570 179 579 191 590 191C605 191 611 181 611 164V122H603V162C603 177 599 184 589 184C579 184 570 170 570 170V122H562V190H570ZM629 216H637V206H629V216ZM637 122H629V190H637V122ZM695 189V183C695 183 686 184 681 184C666 184 662 175 662 157C662 139 664 128 681 128C686 128 695 129 695 129V123C695 123 686 121 680 121C658 121 653 134 653 157C653 180 661 191 680 191C686 191 695 189 695 189ZM642 562C646 558 646 552 643 548C638 536 632 526 625 516C583 461 554 496 501 491C482 491 466 481 448 479C435 478 423 483 413 489C387 505 369 530 353 556C351 560 352 564 356 566C405 579 421 639 413 684C400 719 360 736 328 751C323 752 321 757 323 761C336 796 367 823 404 830C440 837 477 831 510 817C510 817 502 816 502 816C558 849 649 849 683 786C687 778 686 768 678 764C669 759 661 754 654 749C573 692 582 631 642 562ZM633 553C547 640 567 720 671 776C671 776 671 776 671 777C669 781 666 786 663 790C626 834 556 828 511 802C508 800 505 800 503 801C460 820 403 825 365 794C353 784 344 770 338 755L333 766C344 762 355 758 365 752C391 738 419 719 429 689C438 636 420 567 361 552C361 552 367 564 367 563C383 534 417 483 456 494C483 507 516 510 545 503C559 500 571 495 584 499C606 506 621 529 631 550C631 550 633 554 633 554C633 554 633 553 633 553ZM547 896C530 893 520 882 516 866C513 850 514 832 516 815L496 813C495 832 495 851 500 870C505 890 524 908 544 910C544 910 547 896 547 896Z" fill="#1a1a1a"/></svg>