<svg xmlns="http://www.w3.org/2000/svg" viewBox="16.2 -983.9 967.7 967.7"><path transform="scale(1,-1)" d="M173 556C173 547 170 542 164 539C170 537 175 532 175 522C175 506 166 501 152 501H123V575H151C165 575 173 569 173 556ZM151 543C159 543 163 547 163 555C163 563 159 566 150 566H133V543H151ZM152 510C160 510 165 512 165 522C165 532 157 534 151 534H133V510H152ZM198 565H188V576H198V565ZM188 555H198V501H188V555ZM232 508C235 508 241 509 241 509L242 501C242 501 234 500 231 500C219 500 215 504 215 520V546H208V554H215V570H225V554H241V546H225V521C225 512 226 508 232 508ZM270 508C273 508 279 509 279 509L280 501C280 501 273 500 269 500C257 500 253 504 253 520V546H246V554H253V570H263V554H279V546H263V521C263 512 264 508 270 508ZM329 509 330 502C330 502 317 500 308 500C292 500 286 509 286 527C286 547 295 556 309 556C323 556 331 548 331 531V524H296C297 514 300 508 310 508C318 508 329 509 329 509ZM322 531C322 543 318 547 309 547C301 547 296 543 296 531H322ZM377 555V551C377 551 385 556 393 556C407 556 411 548 411 529V501H401V529C401 542 400 547 390 547C383 547 377 544 377 544V501H367V555H377ZM458 501V504C458 504 450 500 443 500C428 500 425 507 425 527V555H435V527C435 513 436 509 445 509C452 509 458 512 458 512V555H468V501H458ZM512 556V546C502 544 493 539 493 539V501H483V555H493V548C493 548 502 554 512 556ZM554 555V551C554 551 562 556 569 556C576 556 580 554 583 550C583 550 593 556 602 556C616 556 620 548 620 529V501H610V529C610 542 609 547 600 547C593 547 586 544 586 544C587 542 588 535 588 529V501H578V529C578 542 576 547 567 547C561 547 554 544 554 544V501H545V555H554ZM644 565H634V576H644V565ZM634 555H644V501H634V555ZM678 508C681 508 688 509 688 509V501C688 501 681 500 677 500C666 500 662 504 662 520V546H655V554H662V570H672V554H687V546H672V521C672 512 672 508 678 508ZM738 500C726 500 719 505 719 527C719 547 725 556 741 556C745 556 752 555 754 554V577H763V501H754V504C754 504 746 500 738 500ZM740 509C747 509 754 512 754 512V546C752 546 746 547 742 547C732 547 729 541 729 527C729 512 733 509 740 509ZM819 509V502C819 502 807 500 798 500C782 500 776 509 776 527C776 547 785 556 799 556C813 556 821 548 821 531L820 524H786C786 514 789 508 799 508C807 508 819 509 819 509ZM811 531C811 543 807 547 799 547C790 547 786 543 786 531H811ZM843 555V551C843 551 851 556 858 556C873 556 877 548 877 529V501H867V529C867 542 865 547 856 547C849 547 843 544 843 544V501H833V555H843ZM208 372H198L193 389H163L159 372H148L168 446H189L208 372ZM191 398 181 437H176L165 398H191ZM251 372V376C251 376 243 371 236 371C220 371 217 378 217 398V426H227V398C227 384 228 380 237 380C245 380 251 383 251 383V426H261V372H251ZM273 363C273 369 276 372 281 376C279 377 278 380 278 384C278 386 282 392 282 392C278 394 274 399 274 408C274 422 282 427 295 427C300 427 306 425 306 425L322 426V418H312C314 416 316 413 316 408C316 394 308 390 294 390C293 390 290 390 289 390C289 390 288 386 288 385C288 381 289 380 300 380C316 380 321 377 321 364C321 352 312 347 297 347C281 347 273 350 273 363ZM297 355C307 355 311 358 311 364C311 371 308 371 299 372C295 372 288 372 288 372C284 369 283 367 283 364C283 357 286 355 297 355ZM294 398C303 398 306 401 306 408C306 416 303 419 294 419C287 419 284 416 284 408C284 401 287 398 294 398ZM372 380V373C372 373 360 371 351 371C335 371 329 380 329 398C329 418 338 427 352 427C366 427 374 419 374 402L373 395H339C339 385 342 379 352 379C360 379 372 380 372 380ZM364 402C364 415 360 419 352 419C343 419 339 414 339 402H364ZM396 426V422C396 422 404 427 411 427C426 427 430 419 430 401V372H420V400C420 413 418 418 409 418C402 418 396 415 396 415V372H386V426H396ZM512 400C512 378 506 371 486 371C480 371 468 372 468 372V449H477V423C477 423 485 427 492 427C507 427 512 419 512 400ZM486 380C500 380 502 386 502 400C502 413 499 418 491 418C484 418 477 415 477 415V380C477 380 484 380 487 380H486ZM565 380V373C565 373 553 371 544 371C528 371 522 380 522 398C522 418 531 427 545 427C559 427 567 419 567 402V395H532C532 385 536 379 545 379C554 379 565 380 565 380ZM557 402C557 415 554 419 545 419C536 419 532 414 532 402H557ZM608 427V417C598 415 589 410 589 410V372H579V426H589V419C589 419 598 425 608 427ZM617 398V426H627V398C627 384 628 380 637 380C644 380 650 383 650 383V426H660V372H650V376C650 376 642 371 635 371C620 371 617 378 617 398ZM633 449H623V438H633V449ZM645 438H655V449H645V438ZM685 449V423C685 423 693 427 700 427C715 427 719 419 719 401V372H709V400C709 413 707 418 698 418C692 418 685 415 685 415V372H675V449H685ZM762 427V417C752 415 743 410 743 410V372H733V426H743V419C743 419 752 425 762 427ZM811 380V373C811 373 799 371 790 371C774 371 768 380 768 398C768 418 777 427 791 427C805 427 813 419 813 402L812 395H778C778 385 781 379 791 379C799 379 811 380 811 380ZM803 402C803 415 799 419 791 419C782 419 778 414 778 402H803ZM835 426V422C835 422 843 427 850 427C865 427 869 419 869 401V372H859V400C859 413 857 418 848 418C841 418 835 415 835 415V372H825V426H835ZM116 243H109V318H136C152 318 159 310 159 294C159 278 152 269 136 269H116V243ZM136 275C148 275 153 282 153 294C153 306 148 312 136 312H116V275H136ZM178 321V243H172V321H178ZM234 249V243C234 243 222 242 214 242C198 242 193 252 193 270C193 290 202 298 215 298C229 298 236 290 236 272V267H199C199 255 203 248 214 248C222 248 234 249 234 249ZM230 273C230 287 225 292 215 292C205 292 199 287 199 273H230ZM293 247V242C288 242 284 243 281 246C281 246 271 242 260 242C251 242 246 247 246 258C246 268 251 273 262 274L280 276V281C280 289 276 292 269 292C262 292 249 290 249 290V296C249 296 260 298 270 298C281 298 286 292 286 281V252C286 249 290 248 293 247ZM261 247C270 247 280 251 280 251V271L262 269C255 268 252 265 252 258C252 251 255 247 261 247ZM319 292C312 292 306 290 306 283C306 277 309 276 321 274C335 271 340 269 340 259C340 246 332 242 319 242C312 242 301 244 301 244V250C301 250 313 248 319 248C328 248 333 250 333 258C333 265 330 266 318 268C306 270 300 272 300 283C300 294 309 298 319 298C327 298 338 296 338 296V290C338 290 326 292 319 292ZM391 249 392 243C392 243 379 242 371 242C355 242 350 252 350 270C350 290 359 298 372 298C386 298 393 290 393 272V267H357C357 255 360 248 372 248C380 248 391 249 391 249ZM387 273C387 287 382 292 372 292C362 292 357 287 357 273H387ZM448 248C451 248 458 248 458 248L459 243C459 243 451 242 448 242C437 242 433 246 433 261V291H425V297H433V314H440V297H458V291H440V265C440 251 441 248 448 248ZM510 271C510 250 506 242 488 242C470 242 465 250 465 271C465 290 471 298 488 298C505 298 510 290 510 271ZM488 248C502 248 504 254 504 271C504 287 500 292 488 292C476 292 472 287 472 271C472 255 474 248 488 248ZM565 243H558V247C558 247 550 242 542 242C527 242 524 249 524 269V297H530V269C530 253 532 248 542 248C551 248 558 252 558 252V297H565V243ZM615 296 614 291C614 291 606 292 602 292C589 292 585 286 585 271C585 254 588 248 602 248C606 248 614 249 614 249L615 243C615 243 605 242 601 242C583 242 578 250 578 271C578 291 585 298 601 298C605 298 615 296 615 296ZM627 321H634V294C634 294 643 298 651 298C666 298 669 291 669 271V243H662V271C662 287 661 292 650 292C642 292 634 288 634 288V243H627V321ZM722 249H723L737 296H744L758 249H760L772 297H778L765 243H754L741 287L728 243H717L704 297H710L722 249ZM790 318H796V310H790V318ZM796 297V243H790V297H796ZM830 248C833 248 840 248 840 248V243C840 243 833 242 829 242C819 242 815 246 815 261V291H807V297H815V314H821V297H839V291H821V265C821 251 822 248 830 248ZM849 321H856V294C856 294 865 298 873 298C888 298 891 291 891 271V243H885V271C885 287 883 292 872 292C864 292 856 288 856 288V243H849V321ZM213 120H217L231 168H238L215 90H208L215 114H208L192 168H199L213 120ZM290 142C290 121 286 113 268 113C250 113 245 121 245 142C245 161 251 169 268 169C285 169 290 161 290 142ZM268 119C282 119 284 125 284 142C284 158 280 163 268 163C256 163 252 158 252 142C252 126 254 119 268 119ZM344 114H338V118C338 118 330 113 322 113C307 113 304 120 304 140V168H310V140C310 124 312 119 322 119C331 119 338 123 338 123V168H344V114ZM367 168V160C367 160 376 167 387 169V162C377 160 367 154 367 154V114H361V168H367ZM459 120 460 115C460 115 447 113 439 113C423 113 418 123 418 141C418 162 427 169 440 169C454 169 461 162 461 143V138H425C425 126 428 119 440 119C448 119 459 120 459 120ZM455 144C455 158 450 163 440 163C430 163 425 158 425 144H455ZM489 120H493L508 168H514L491 90H485L492 114H484L469 168H475L490 120H489ZM563 120V115C563 115 551 113 543 113C527 113 522 123 522 141C522 162 531 169 544 169C558 169 565 162 565 143V138H528C528 126 532 119 543 119C551 119 563 120 563 120ZM559 144C559 158 554 163 544 163C534 163 528 158 528 144H559ZM594 163C588 163 582 161 582 154C582 148 584 147 596 145C610 142 615 140 615 130C615 117 607 113 594 113C588 113 576 115 576 115V121C576 121 588 119 594 119C603 119 608 121 608 129C608 136 605 137 593 139C581 141 575 143 575 154C575 165 585 169 594 169C602 169 613 167 613 167V161C613 161 601 163 594 163ZM694 142C694 121 690 113 672 113C654 113 649 121 649 142C649 161 655 169 672 169C689 169 694 161 694 142ZM672 119C686 119 688 125 688 142C688 158 684 163 672 163C660 163 656 158 656 142C656 126 658 119 672 119ZM708 168H715V164C715 164 724 169 732 169C747 169 750 162 750 142V114H744V142C744 158 742 163 731 163C723 163 715 159 715 159V114H708V168ZM773 192V114H766V192H773ZM805 120H809L823 168H830L807 90H800L807 114H800L784 168H791L805 120ZM362 873 357 882C357 882 439 927 527 903C607 880 650 802 650 802L640 797C640 797 588 869 525 888C446 911 362 873 362 873ZM495 692C419 692 380 759 380 759C380 759 386 768 396 778C405 761 431 724 479 733C526 743 538 785 531 812C577 792 604 749 604 749C604 749 547 692 495 692ZM492 833C408 834 367 762 367 762V755C367 755 414 679 492 679C552 678 615 744 615 744V753C615 753 572 831 492 833Z" fill="#1a1a1a"/></svg>