<svg xmlns="http://www.w3.org/2000/svg" viewBox="16.3 -983.8 967.6 967.6"><path transform="scale(1,-1)" d="M365 380H312V346H356V332H312V297H365V283H297V393H365V380ZM398 379H383V395H398V379ZM383 363H398V283H383V363ZM434 363V358C434 358 447 365 458 365C480 365 485 353 485 326V283H471V325C471 344 468 352 455 352C444 352 435 347 435 347V283H420V363H434ZM535 295C539 295 548 295 548 295L549 283C549 283 539 281 533 281C516 281 510 288 510 311V350H499V363H510V387H525V363H548V350H525V314C525 299 525 294 535 294V295ZM606 365V350C591 347 578 340 578 340V283H563V363H577V353C577 353 591 362 606 365ZM634 379H619V395H634V379ZM619 363H634V283H619V363ZM685 295C689 295 698 295 698 295L699 283C699 283 689 281 683 281C666 281 660 288 660 311V350H649V363H660V387H675V363H698V350H675V314C675 299 675 294 685 294V295ZM741 295C746 295 755 295 755 295L756 283C756 283 745 281 740 281C722 281 717 288 717 311V350H706V363H717V387H731V363H755V350H731V314C731 299 732 294 741 294V295ZM480 203V194H424V148H471V139H424V92H414V203H480ZM551 100V92C551 92 533 90 521 90C497 90 490 105 490 131C490 162 503 173 522 173C543 173 554 162 554 135V128H499C499 109 505 99 521 99C533 99 551 100 551 100ZM544 136C544 157 538 165 523 165C508 165 499 157 499 136H544ZM631 100 632 92C632 92 614 90 601 90C577 90 570 105 570 131C570 162 584 173 603 173C624 173 634 162 634 135V128H580C580 109 585 99 602 99C614 99 631 100 631 100ZM625 136C625 157 618 165 603 165C588 165 580 157 580 136H625ZM325 720C351 729 380 725 402 709C379 697 366 669 371 644C372 633 378 621 390 621C396 621 433 635 440 636C439 589 400 552 353 552C255 553 233 687 325 720ZM455 731 426 719C415 729 401 737 387 742L389 774L421 800C430 807 443 807 452 800L465 790C486 774 479 740 455 731ZM712 897C712 897 708 910 708 910H462C444 910 426 904 412 893L331 829C318 819 310 803 310 786L315 741C202 697 231 531 353 529C415 528 466 582 462 644L558 675C579 682 594 690 620 712H621L652 745C663 758 689 761 707 760L711 774C692 773 660 775 648 763L617 732C591 711 572 703 556 698C521 686 428 653 394 642C389 662 397 683 416 691C416 691 438 700 438 700C452 706 475 713 485 726C508 750 503 789 476 808C476 808 466 815 466 815C449 829 424 829 407 815L373 789C369 785 368 782 368 776V747C361 747 353 748 346 747C341 747 335 746 330 746L327 786C327 796 332 805 340 811L423 878C433 886 449 893 461 893L711 897C711 897 711 897 711 897H712Z" fill="#1a1a1a"/></svg>