<svg xmlns="http://www.w3.org/2000/svg" viewBox="16.2 -983.8 967.6 967.6"><path transform="scale(1,-1)" d="M153 375C153 349 147 331 120 331H90V416H120C146 416 153 400 153 375ZM120 341C138 341 141 356 141 375C141 393 138 406 120 406H102V341H120ZM201 394V383C190 380 180 375 180 375V331H168V393H179V385C179 385 190 392 201 394ZM263 338V329C256 329 251 331 247 334C247 334 237 329 226 329C214 329 208 336 208 349C208 362 215 366 228 367L246 369V374C246 382 242 384 236 384C227 384 212 383 212 383V391C212 391 225 394 236 394C251 394 257 388 257 374V344C257 340 259 339 263 338ZM228 339C236 339 246 342 246 342V361L229 359C223 359 220 355 220 349C220 343 222 339 228 339ZM313 331V335C313 335 304 329 295 329C278 329 274 338 274 360V393H285V360C285 345 287 340 297 340C305 340 313 344 313 344V393H324V331H313ZM361 384C354 384 349 382 349 376C349 371 352 369 365 367C380 365 385 361 385 349C385 335 376 329 361 329C353 329 339 332 339 332V342C339 342 354 340 360 340C370 340 374 342 374 349C374 354 371 356 359 358C345 360 338 363 338 376C338 389 349 394 361 394C370 394 384 392 384 392L383 382C383 382 369 384 361 384ZM419 384C412 384 407 382 407 376C407 371 410 369 423 367C438 365 443 361 443 349C443 335 434 329 419 329C411 329 397 332 397 332V342C397 342 412 340 418 340C428 340 432 342 432 349C432 354 429 356 416 358C403 360 396 363 396 376C396 389 407 394 419 394C428 394 442 392 442 392L441 382C441 382 427 384 419 384ZM504 341V332C504 332 490 329 479 329C461 329 454 340 454 361C454 385 464 394 481 394C497 394 506 385 506 365L505 357H466C466 345 470 340 481 340C491 340 504 341 504 341ZM495 366C495 380 491 385 481 385C471 385 466 379 466 366H495ZM531 393V389C531 389 541 394 549 394C567 394 571 385 571 364V331H559V364C559 378 558 384 547 384C539 384 531 380 531 380V331H520V393H531ZM667 406H625V379H659V369H625V341H667V331H614V416H667V406ZM701 384C693 384 689 382 689 376C689 371 691 369 704 367C719 365 725 361 725 349C725 335 716 329 700 329C692 329 678 332 678 332L679 342C679 342 693 340 700 340C709 340 714 342 714 349C714 354 711 356 698 358C684 360 677 363 677 376C677 389 688 394 700 394C709 394 723 392 723 392V382C723 382 709 384 701 384ZM759 384C751 384 747 382 747 376C747 371 749 369 762 367C777 365 783 361 783 349C783 335 773 329 758 329C750 329 736 332 736 332L737 342C737 342 751 340 757 340C767 340 771 342 771 349C771 354 769 356 756 358C742 360 735 363 735 376C735 389 746 394 758 394C767 394 781 392 781 392V382C781 382 766 384 759 384ZM843 341V332C843 332 829 329 819 329C800 329 794 340 794 361C794 385 804 394 820 394C836 394 845 385 845 365V357H805C805 345 809 340 820 340C830 340 843 341 843 341ZM834 366C834 380 830 385 820 385C810 385 805 379 805 366H834ZM871 393V389C871 389 880 394 889 394C906 394 910 385 910 364V331H899V364C899 378 897 384 886 384C878 384 871 380 871 380V331H859V393H871ZM270 268V261H226V229H263V222H226V189H270V182H218V268H270ZM336 187V181C330 181 325 182 322 186C322 186 310 181 298 181C287 181 281 187 281 199C281 211 287 216 300 218L321 220V225C321 235 316 238 309 238C300 238 285 237 285 237V243C285 243 298 245 309 245C322 245 328 239 328 225V192C328 188 332 187 336 187ZM299 187C309 187 321 191 321 191V214L300 212C292 211 289 207 289 200C289 192 293 187 299 187ZM368 187C371 187 379 188 379 188L380 182C380 182 372 181 367 181C355 181 351 185 351 203V237H341V244H351V263H358V244H379V237H358V207C358 191 359 187 368 187ZM464 214C464 190 459 181 439 181C418 181 413 190 413 214C413 236 419 245 439 245C458 245 464 236 464 214ZM439 187C455 187 457 195 457 214C457 233 453 239 439 239C424 239 420 232 420 214C420 195 422 187 439 187ZM527 182H520V187C520 187 510 181 501 181C483 181 480 188 480 212V244H487V212C487 193 489 187 501 187C511 187 520 193 520 193V244H527V182ZM566 187C570 187 578 188 578 188V182C578 182 570 181 566 181C553 181 549 185 549 203V237H540V244H549V263H556V244H577V237H556V207C556 191 557 187 566 187ZM607 238C600 238 593 236 593 228C593 221 596 220 609 217C625 215 631 212 631 200C631 185 622 181 607 181C600 181 586 183 586 183L587 189C587 189 600 187 607 187C617 187 624 190 624 200C624 207 620 209 606 211C592 213 585 216 585 228C585 241 596 245 607 245C616 245 629 243 629 243V236C629 236 615 238 607 238ZM646 269H653V259H646V269ZM653 244V182H646V244H653ZM711 182V187C711 187 701 181 691 181C681 181 669 184 669 212C669 234 676 245 695 245C701 245 709 244 711 244V271H719V182H711ZM692 187C701 187 711 193 711 193V237C709 238 701 239 696 239C681 239 677 229 677 212C677 190 685 187 692 187ZM782 189V182C782 182 768 181 758 181C740 181 734 192 734 213C734 237 745 245 760 245C776 245 784 237 784 216V210H742C742 195 746 187 759 187C768 187 782 189 782 189ZM777 216C777 233 771 239 760 239C748 239 742 233 742 216H777ZM654 724C539 689 420 650 306 611L310 600C425 635 544 673 658 713L654 724ZM369 639C370 640 372 640 372 640L367 686H463C463 686 461 670 461 670C461 670 471 673 472 673L474 691L469 696H361C361 696 356 691 356 691L362 637L369 639ZM454 609C452 595 448 560 446 546C445 542 442 539 438 539C429 539 420 539 411 539H398C397 539 394 539 393 539C389 539 385 542 384 546C382 565 378 594 376 613C373 612 368 610 365 609C366 597 369 571 371 558C371 557 372 544 372 543C374 534 383 527 393 527C394 527 397 527 398 527C398 527 411 527 411 527C428 527 455 521 458 545C461 573 466 614 469 643L457 639L454 609ZM483 728C486 719 494 711 503 710V684C507 685 513 687 517 688V710C531 712 539 727 538 740C538 743 537 756 537 758C537 775 536 799 536 816H530C529 799 528 775 528 758V744C528 737 528 728 522 724L521 816H514C514 816 512 720 512 720C510 720 509 720 508 720L506 816H499C499 816 498 724 498 724C492 729 492 737 492 744C492 744 492 758 492 758C491 775 491 799 490 816H484C483 799 483 775 483 758C483 749 481 737 483 728ZM505 529H515L516 658L504 654L505 529ZM560 726C561 743 562 760 565 777C567 788 571 800 580 806C579 775 579 738 579 708C584 709 587 710 592 712C592 745 591 782 590 815L584 819C566 813 557 794 555 776C550 750 549 724 548 698C552 699 556 700 560 702C560 710 560 718 560 726ZM579 679H578C578 672 578 665 578 658C574 659 568 659 564 660C559 663 559 668 559 672C556 671 552 670 548 669C547 659 554 650 564 648C568 647 574 646 579 645C579 615 580 557 580 526H590C591 574 592 636 592 683C588 682 584 680 579 679Z" fill="#1a1a1a"/></svg>