<svg xmlns="http://www.w3.org/2000/svg" viewBox="-537.3 -4022.3 7044.6 7044.6"><path transform="scale(1,-1)" d="M1306 500H1491V145C1491 145 1352 123 1276 123C1078 123 1022 285 1022 486C1022 706 1074 847 1280 847C1388 847 1491 820 1491 820L1487 758C1487 758 1369 777 1285 777C1124 777 1102 652 1102 486C1102 328 1137 192 1284 192C1335 192 1413 205 1413 205V433H1306V500ZM1989 392C1989 232 1964 123 1790 123C1616 123 1591 232 1591 392C1591 554 1633 651 1790 651C1947 651 1989 554 1989 392ZM1916 392C1916 521 1891 585 1790 585C1690 585 1664 521 1664 392C1664 268 1674 189 1790 189C1906 189 1916 268 1916 392ZM2427 208 2431 152C2431 152 2358 124 2266 124C2132 124 2074 200 2074 379C2074 548 2135 650 2280 650C2384 650 2450 611 2450 514C2450 391 2372 360 2204 360H2151V345C2151 249 2188 189 2270 189C2342 189 2427 208 2427 208ZM2203 419C2326 419 2375 437 2375 513C2375 569 2339 587 2280 587C2189 587 2153 525 2152 419H2203ZM2646 575V280C2646 224 2663 189 2712 189C2742 189 2792 195 2792 195L2796 135C2796 135 2737 123 2703 123C2600 123 2571 180 2571 276V575H2505V641H2571V792H2646V641H2789V575H2646ZM2866 133V863H2943V566C2943 566 3005 651 3090 651C3202 651 3246 573 3246 450V133H3170V428C3170 537 3144 585 3075 585C3007 585 2943 493 2943 493V133H2866ZM3699 208 3703 152C3703 152 3630 124 3537 124C3403 124 3345 200 3345 379C3345 548 3406 650 3551 650C3655 650 3721 611 3721 514C3721 391 3643 360 3475 360H3422V345C3422 249 3459 189 3541 189C3613 189 3699 208 3699 208ZM3474 419C3597 419 3646 437 3646 513C3646 569 3610 587 3551 587C3460 587 3424 525 3423 419H3474ZM3798 377C3798 539 3837 651 4002 651C4060 651 4185 634 4185 634V258C4185 210 4191 134 4191 134L4114 131C4114 131 4109 178 4109 218C4109 218 4054 123 3961 123C3840 123 3798 210 3798 377ZM3876 377C3876 265 3895 189 3976 189C4053 189 4108 295 4108 295V576C4108 576 4038 585 4011 585C3901 585 3876 513 3876 377ZM4310 133V641H4385L4386 565C4386 565 4448 651 4533 651C4644 651 4689 573 4689 449V133H4613V428C4613 537 4587 585 4518 585C4450 585 4386 491 4386 491V133H4310ZM5185 641V133H5110L5109 209C5109 209 5047 123 4962 123C4851 123 4806 192 4806 329V641H4882V347C4882 238 4907 189 4977 189C5045 189 5109 284 5109 284V641H5185ZM5607 133V422C5607 538 5580 585 5516 585C5452 585 5386 491 5386 491V133H5310V641H5385L5386 565C5386 565 5451 651 5531 651C5636 651 5662 564 5662 564C5662 564 5730 651 5815 651C5924 651 5970 573 5970 438V133H5895V428C5895 537 5870 585 5799 585C5732 585 5680 505 5680 505C5680 505 5684 471 5684 432V133H5607ZM272 835 751 1000V0H466L467 367C467 391 462 413 455 436C433 503 272 835 272 835ZM251 658C251 658 396 426 396 372L399 0H231L230 128C228 205 52 424 52 424L251 658ZM0 148 112 228C112 228 164 140 169 110C173 79 170 0 170 0H51C51 0 51 29 51 42C52 64 44 83 33 102C28 111 5 141 0 148Z" fill="#1a1a1a"/></svg>