<svg xmlns="http://www.w3.org/2000/svg" viewBox="16.1 -984.0 967.8 967.8"><path transform="scale(1,-1)" d="M170 278H157V368H170V327H184L205 368H219L195 323L220 278H205L184 317L170 316V278ZM278 288 279 279C279 279 264 276 253 276C233 276 226 287 226 310C226 334 237 345 254 345C271 345 281 335 281 314L280 306H238C238 293 242 287 254 287C264 287 278 288 278 288ZM269 315C269 330 264 335 254 335C243 335 238 329 238 315H269ZM307 356H295V369H307V356ZM295 343H307V278H295V343ZM337 343V339C337 339 347 345 356 345C375 345 379 335 379 313V278H367V312C367 328 365 334 354 334C346 334 337 330 337 330V278H325V343H337ZM446 288V279C446 279 431 276 420 276C400 276 393 287 393 310C393 334 404 345 421 345C438 345 448 335 448 314L447 306H405C406 293 410 287 422 287C432 287 446 288 446 288ZM436 315C436 330 432 335 421 335C411 335 405 329 405 315H436ZM505 278H493V368H505V329H548V368H560V278H548V318H505V278ZM620 278V282C620 282 610 276 601 276C583 276 579 286 579 309V343H591V309C591 293 592 287 603 287C612 287 620 291 620 291V343H632V278H620ZM662 343V339C662 339 672 345 681 345C699 345 703 335 703 313V278H691V312C691 328 690 334 679 334C670 334 662 330 662 330V278H650V343H662ZM742 276C727 276 718 284 718 310C718 334 726 345 745 345C751 345 759 343 761 343V371H773V278H761V282C761 282 751 276 742 276ZM744 287C752 287 761 291 761 291V333C759 333 751 334 746 334C734 334 730 326 730 310C730 291 736 287 744 287ZM840 288V279C840 279 825 276 814 276C795 276 788 287 788 310C788 334 798 345 816 345C833 345 843 335 843 314L842 306H800C800 293 804 287 816 287C826 287 840 288 840 288ZM831 315C831 330 826 335 816 335C805 335 800 329 800 315H831ZM314 212 352 128H356V212H363V121H348L309 205H307V121H298V212H314ZM436 155C436 130 431 120 409 120C387 120 381 130 381 155C381 178 388 188 409 188C429 188 436 178 436 155ZM409 127C426 127 428 135 428 155C428 175 424 181 409 181C394 181 389 174 389 155C389 135 392 127 409 127ZM523 121V126C523 126 512 120 502 120C491 120 479 123 479 153C479 176 486 188 506 188C512 188 520 186 523 186V215H531V121H523ZM503 127C513 127 523 132 523 132V179C520 180 512 181 507 181C491 181 487 171 487 153C487 130 495 127 503 127ZM602 155C602 130 597 120 575 120C553 120 547 130 547 155C547 178 555 188 575 188C595 188 602 178 602 155ZM575 127C592 127 594 135 594 155C594 175 590 181 575 181C560 181 556 174 556 155C556 135 558 127 575 127ZM616 110C616 118 620 121 627 127C625 128 623 131 623 135C623 138 628 146 628 146C622 148 617 153 617 165C617 181 626 188 641 188C647 188 654 186 654 186H673V179L660 180C663 177 665 173 665 165C665 149 657 144 640 144C639 144 635 144 633 144C633 144 631 138 631 136C631 130 632 130 647 130C665 130 672 126 672 111C672 96 662 90 643 90C622 90 616 95 616 110ZM644 97C658 97 664 101 664 110C664 122 659 123 647 123C642 123 632 123 632 123C626 119 624 116 624 111C624 101 627 97 643 97H644ZM641 150C653 150 657 154 657 165C657 177 653 181 641 181C630 181 625 177 625 165C625 154 630 150 641 150ZM705 180C697 180 690 178 690 169C690 163 693 161 708 158C724 156 731 152 731 140C731 125 721 120 705 120C697 120 683 122 683 122V129C683 129 698 127 705 127C716 127 723 129 723 140C723 147 719 149 704 151C689 154 682 156 682 169C682 183 694 188 705 188C715 188 728 185 728 185V178C728 178 714 180 705 180ZM430 597C429 614 428 632 426 649C422 648 417 647 413 646C416 618 418 590 418 562H430C430 573 430 587 429 597H430ZM627 569C627 592 618 614 613 636C611 656 612 679 605 698C601 697 596 696 592 695C592 694 592 694 592 694C600 675 597 652 601 632C607 609 616 586 616 562H627C627 564 627 567 627 569ZM340 771C341 760 347 749 357 744C366 741 378 739 387 736C395 717 403 697 408 677C412 678 417 680 422 681C419 692 415 703 412 714C427 720 442 728 455 738C474 722 502 725 524 723C536 722 548 722 560 720C568 719 576 723 584 724C575 731 564 733 553 735C538 736 516 738 501 739C493 739 485 740 478 742C462 746 456 761 450 774C444 788 433 802 418 806C406 811 393 807 381 804C381 804 377 800 377 800L371 790C363 789 354 786 345 784C345 784 340 779 340 779C340 777 340 774 340 771ZM391 735C391 735 391 735 391 735ZM356 772C363 774 370 775 377 776L383 780C383 780 389 790 389 790C398 793 408 795 417 791C433 784 437 764 446 749C434 741 420 733 407 728C404 734 402 740 400 746C400 746 394 750 394 750C394 750 378 754 378 754C374 755 367 756 362 758C357 760 355 767 354 772H356ZM648 843C503 987 255 884 255 680C252 556 361 447 485 450C689 450 792 698 648 843ZM270 680C276 926 612 977 690 744C553 709 411 671 275 631C272 647 270 663 270 680ZM485 465C387 465 305 530 279 619C416 654 558 692 694 731C728 599 622 463 485 465ZM592 577C590 591 585 605 577 617C568 632 555 644 547 659L539 664L465 655L458 648C457 619 446 592 448 563H460C460 590 470 614 474 640L536 648C545 634 557 623 566 610C575 596 580 580 580 563H592C592 568 592 573 592 577Z" fill="#1a1a1a"/></svg>