<svg xmlns="http://www.w3.org/2000/svg" viewBox="16.2 -983.8 967.6 967.6"><path transform="scale(1,-1)" d="M103 315H90V412H103V367L118 368L141 412H156L130 363L157 315H141L118 357L103 356V315ZM220 326V316C220 316 204 314 192 314C171 314 164 325 164 350C164 376 175 387 193 387C212 387 222 377 222 354V345H177C177 332 181 325 194 325C205 325 220 326 220 326ZM210 355C210 371 205 376 193 376C182 376 177 370 176 355H210ZM251 399H238V413H251V399ZM238 385H251V315H238V385ZM283 385V381C283 381 294 387 304 387C323 387 328 376 328 352V315H315V352C315 368 313 375 301 375C292 375 283 371 283 371V315H270V385H283ZM399 326V316C399 316 383 314 372 314C351 314 343 325 343 350C343 376 354 387 373 387C391 387 402 377 402 354L401 345H356C356 332 361 325 373 325C384 325 399 326 399 326ZM389 355C389 371 384 376 373 376C362 376 356 370 356 355H389ZM508 400H479V315H466V400H438V412H508V400ZM566 324 565 314C557 314 552 315 547 319C547 319 535 314 523 314C510 314 503 321 503 336C503 350 511 355 525 356L545 358V364C545 373 542 376 534 376C524 376 508 374 508 374L507 383C507 383 522 387 535 387C551 387 558 379 558 364V330C559 326 561 324 566 324ZM526 324C535 324 545 328 545 328V349L527 347C519 346 516 343 516 336C516 329 519 324 526 324ZM601 375C593 375 587 373 587 366C587 360 591 359 605 356C622 353 628 350 628 336C628 319 618 314 601 314C592 314 576 316 576 316V327C576 327 593 325 600 325C610 325 616 327 616 335C616 342 612 343 598 345C582 348 575 351 575 366C575 381 587 387 600 387C611 387 626 384 626 384V373C626 373 610 375 601 375ZM690 384V374C690 374 678 375 673 375C658 375 654 369 654 351C654 332 657 325 673 325C679 325 690 326 690 326V316C690 316 677 313 670 313C648 313 641 324 641 351C641 376 649 387 670 387C677 387 690 384 690 384ZM718 415V381C718 381 729 387 739 387C758 387 763 376 763 352V315H750V352C750 368 748 375 736 375C727 375 718 372 718 372V315H705V415H718ZM834 326 835 316C835 316 819 314 807 314C786 314 778 325 778 350C778 376 790 387 808 387C827 387 837 377 837 354L836 345H791C791 332 796 325 809 325C819 325 834 326 834 326ZM824 355C824 371 819 376 808 376C797 376 791 370 791 355H824ZM865 385V381C865 381 876 387 886 387C905 387 910 376 910 352V315H897V352C897 368 895 375 883 375C874 375 866 371 866 371V315H853V385H865ZM289 244 330 154H333V244H342V147H325L284 236H281V147H272V244H289ZM420 183C420 156 414 145 390 145C367 145 361 156 361 183C361 208 369 218 390 218C412 218 420 208 420 183ZM390 153C408 153 411 161 411 183C411 204 406 211 390 211C374 211 370 204 370 183C370 162 372 153 390 153ZM524 183C524 156 517 145 491 145C482 145 469 147 469 147V248H477V213C477 213 488 218 499 218C518 218 524 208 524 183ZM491 153C512 153 515 162 515 183C515 202 512 211 498 211C487 211 477 206 477 206V154C477 154 487 153 491 153ZM599 152V145C592 145 587 147 583 151C583 151 570 145 557 145C544 145 537 152 537 166C537 179 544 186 558 187L582 189V196C582 207 577 211 568 211C558 211 542 209 542 209L541 215C541 215 557 218 568 218C584 218 590 211 590 196V158C590 154 595 153 599 152ZM558 152C569 152 582 157 582 157V183L559 180C549 180 546 175 546 167C546 158 550 152 558 152ZM609 135C609 144 613 147 620 153C618 154 617 158 617 162C617 165 621 173 621 173C615 176 610 181 610 194C610 211 620 218 635 218C642 218 650 216 650 216L670 217V209L656 210C659 207 661 203 661 194C661 177 652 171 634 171C633 171 629 171 627 171C627 171 624 165 624 163C624 157 626 156 642 156C661 156 668 153 668 136C668 120 658 113 638 113C615 113 609 119 609 135ZM638 121C653 121 660 125 660 135C660 147 655 149 642 149C636 149 626 149 626 149C619 144 617 142 617 136C617 125 621 121 638 121ZM635 178C648 178 652 182 652 194C652 206 648 211 635 211C623 211 618 207 618 194C618 182 623 178 635 178ZM704 210C696 210 688 208 688 199C688 191 691 189 707 187C725 184 731 180 731 167C731 151 721 145 704 145C696 145 680 148 680 148L681 155C681 155 697 153 704 153C716 153 723 156 723 167C723 175 719 177 703 179C687 182 679 185 679 198C679 214 692 218 704 218C715 218 729 216 729 216V208C729 208 714 210 704 210ZM690 770 694 757C560 710 422 665 286 624C285 627 283 634 282 637C416 683 555 728 690 770ZM432 819C436 835 439 853 452 863C463 870 475 871 488 871C501 871 512 870 522 864C524 863 526 861 527 860C543 843 544 817 548 796C513 796 463 796 429 796C430 804 431 812 432 819ZM377 678C382 679 386 681 391 682L399 782C455 782 522 783 578 782C579 770 580 757 581 744C584 745 590 747 594 748C593 762 591 776 590 790L584 796H561C553 844 550 887 488 887C427 887 423 845 415 796H392C392 796 386 790 386 790L376 677L377 678ZM604 628C604 630 596 717 597 715C592 714 588 712 583 711C583 710 583 709 584 708L590 627C590 616 594 600 589 590C583 573 566 563 548 563C528 562 508 562 488 562C465 562 442 562 419 564C399 567 383 587 385 607C386 617 387 637 388 647C385 646 376 643 373 643C372 634 370 616 370 608C367 580 388 553 416 549C426 547 437 547 447 547C483 545 519 546 554 548C584 550 609 578 606 608C606 608 604 628 604 628Z" fill="#1a1a1a"/></svg>