<svg xmlns="http://www.w3.org/2000/svg" viewBox="16.2 -983.8 967.6 967.6"><path transform="scale(1,-1)" d="M588 910H428C418 910 409 901 409 891V563C409 552 418 543 428 543H588C598 543 607 552 607 563V891C607 901 598 910 588 910ZM504 858H515L575 810L565 797L509 841L454 797L443 810L504 858ZM515 595H504L443 643L454 656L509 613L565 656L576 643L515 595ZM269 366H219V328H261V315H219V274H205V378H269V366ZM342 283 341 272C333 272 327 274 322 278C322 278 309 272 296 272C282 272 274 280 274 296C274 312 282 317 298 319L320 321V327C320 336 316 339 308 339C297 339 279 338 279 338V348C279 348 295 351 309 351C326 351 334 344 334 327V290C334 285 337 284 342 283ZM299 284C309 284 320 288 320 288V310L300 309C292 308 288 304 288 296C288 289 292 284 299 284ZM369 382V346C369 346 381 351 392 351C413 351 418 340 418 314V274H404V314C404 332 401 339 389 339C379 339 369 335 369 335V274H355V382H369ZM478 351V338C464 335 452 328 452 328V274H438V350H452V340C452 340 465 349 478 351ZM516 339C507 339 501 337 501 329C501 323 505 321 520 318C539 315 546 311 546 296C546 278 534 272 516 272C506 272 489 275 489 275V287C489 287 507 285 515 285C526 285 532 287 532 296C532 303 529 304 513 307C496 309 488 313 488 329C488 345 501 351 515 351C527 351 543 348 543 348V337C543 337 526 339 516 339ZM590 285C594 285 603 285 603 285V274C603 274 593 272 588 272C572 272 566 278 566 300V338H556V350H566V372H580V350H602V338H580V303C580 289 581 285 590 285ZM663 274V279C663 279 652 272 641 272C620 272 615 283 615 310V350H629V310C629 291 631 285 644 285C654 285 663 290 663 290V350H677V274H663ZM712 382V346C712 346 723 351 734 351C755 351 760 340 760 314V274H746V314C746 332 744 339 731 339C721 339 712 335 712 335V274H698V382H712ZM795 274H781V382H795V274ZM409 197H419V100H467V92H409V197ZM481 198H489V187H481V198ZM489 168V92H481V168H489ZM515 92V160H505V168H515V175C515 197 521 203 535 203C541 203 550 202 550 202V194C550 194 541 195 537 195C527 195 524 191 524 175V168H547V160H524V92H515ZM587 98C591 98 601 99 601 99V92C601 92 591 90 586 90C571 90 565 96 565 117V160H554V168H565V191H575V168H600V160H575V122C575 103 576 98 587 98Z" fill="#1a1a1a"/></svg>