<svg xmlns="http://www.w3.org/2000/svg" viewBox="16.5 -983.8 967.6 967.6"><path transform="scale(1,-1)" d="M455 797C455 797 455 797 455 797C455 797 455 796 455 797ZM471 719V720C471 720 471 720 471 719ZM807 130C804 215 796 307 787 392L773 410C720 429 665 443 610 455C592 481 569 503 542 520C539 556 536 594 523 628C511 661 477 683 471 715C471 715 471 715 471 715C471 715 471 715 471 714C471 715 471 715 471 715C472 748 498 781 496 817C499 887 422 934 362 897C318 869 312 808 332 763C334 756 336 749 337 741C341 707 330 665 326 628C323 596 320 563 321 531C105 423 177 98 421 95C534 95 627 176 647 283C651 282 655 282 660 282C669 218 676 154 681 90L717 92C714 162 709 236 701 306C701 306 681 325 681 325L651 329C650 355 645 381 636 404C673 396 710 386 746 374C758 281 767 184 771 91L808 92L806 130H807ZM363 571C362 632 381 684 374 746C373 762 367 776 362 790C352 821 361 865 396 872C417 877 440 868 451 849C476 805 434 762 433 717C433 670 482 643 491 601C495 581 498 561 499 540C458 556 407 558 363 547C363 555 363 563 363 571ZM421 133C316 133 230 219 230 324C240 578 602 578 612 324C612 219 526 133 421 133Z" fill="#1a1a1a"/></svg>