<svg xmlns="http://www.w3.org/2000/svg" viewBox="16.2 -983.8 967.6 967.6"><path transform="scale(1,-1)" d="M153 370C153 358 149 353 142 349C150 346 156 340 156 327C156 307 144 300 126 300H90V395H125C143 395 153 387 153 370ZM125 353C136 353 140 359 140 369C140 379 135 383 124 383H103V354H125V353ZM126 311C136 311 143 315 143 327C143 340 133 342 125 342H103V311H126ZM185 382H172V396H185V382ZM172 369H185V300H172V369ZM228 310C232 310 240 311 240 311L241 300C241 300 232 299 227 299C212 299 207 304 207 324V358H198V369H207V389H220V369H240V358H220V326C220 314 220 310 228 310ZM277 310C281 310 289 311 289 311V300C289 300 280 299 275 299C261 299 256 304 256 324V358H247V369H256V389H268V369H289V358H268V326C268 314 269 310 277 310ZM353 311V301C353 301 337 299 326 299C305 299 298 310 298 334C298 359 309 370 327 370C345 370 355 360 355 338L354 329H311C311 316 315 310 328 310C338 310 353 311 353 311ZM343 339C343 354 338 360 327 360C316 360 311 354 311 339H343ZM454 309V299C446 299 441 300 437 304C437 304 425 299 413 299C400 299 394 306 394 320C394 334 401 339 415 341L435 342V348C435 356 431 359 424 359C414 359 398 358 398 358V367C398 367 412 370 425 370C441 370 447 363 447 348V315C448 311 450 309 454 309ZM416 309C425 309 435 313 435 313V333L417 331C409 331 406 327 406 320C406 313 409 309 416 309ZM479 369V364C479 364 490 370 499 370C518 370 523 360 523 337V300H510V336C510 352 508 359 497 359C488 359 479 355 479 355V300H467V369H479ZM544 358H536V369H544V374C544 394 549 399 563 399C568 399 577 398 577 398V388C577 388 570 388 566 388C559 388 557 385 557 374V369H576V358H557V300H544V358ZM644 309V299C636 299 631 300 626 304C626 304 615 299 603 299C590 299 583 306 583 320C583 334 591 339 605 341L625 342V348C625 356 621 359 614 359C604 359 588 358 588 358L587 367C587 367 602 370 614 370C630 370 637 363 637 348V315C637 311 640 309 644 309ZM605 309C614 309 625 313 625 313V333L606 331C599 331 596 327 596 320C596 313 599 309 605 309ZM679 359C671 359 666 357 666 350C666 344 669 343 683 340C699 337 705 334 705 320C705 304 695 299 679 299C670 299 654 302 654 302L655 312C655 312 671 310 678 310C688 310 693 312 693 320C693 326 690 328 676 330C661 332 653 335 653 350C653 365 665 370 678 370C688 370 704 367 704 367L703 357C703 357 688 359 679 359ZM743 359C735 359 729 357 729 350C729 344 733 343 747 340C763 337 769 334 769 320C769 304 759 299 743 299C734 299 718 302 718 302L719 312C719 312 735 310 742 310C752 310 757 312 757 320C757 326 754 328 740 330C725 332 717 335 717 350C717 365 729 370 742 370C752 370 767 367 767 367V357C767 357 751 359 743 359ZM836 311V301C836 301 821 299 809 299C789 299 781 310 781 334C781 359 792 370 811 370C829 370 839 360 839 338L838 329H794C794 316 799 310 811 310C822 310 836 311 836 311ZM826 339C826 354 822 360 811 360C800 360 794 354 794 339H826ZM866 369V364C866 364 877 370 887 370C905 370 910 360 910 337V300H898V336C898 352 896 359 884 359C875 359 867 355 867 355V300H854V369H866ZM151 136H143V231H178C198 231 207 221 207 201C207 181 198 169 178 169H151V136ZM178 176C193 176 199 185 199 201C199 216 193 223 178 223H151V176H178ZM231 235V136H223V235H231ZM302 143 303 136C303 136 287 134 276 134C256 135 250 147 250 170C250 196 261 206 278 206C296 206 305 196 305 173V167H258C258 151 263 142 277 142C287 142 302 143 302 143ZM297 173C297 192 291 199 278 199C265 199 258 192 258 173H297ZM378 141 377 135C371 135 366 136 362 140C362 140 349 134 336 134C324 134 317 141 317 155C317 168 324 174 338 175L361 177V184C361 194 356 198 347 198C338 198 322 196 322 196L321 203C321 203 336 206 348 206C363 206 369 198 369 184V147C369 143 373 142 378 141ZM337 141C348 141 361 146 361 146V171L338 169C329 168 326 163 326 155C326 146 330 141 337 141ZM411 198C402 198 395 196 395 186C395 179 398 177 413 175C431 172 437 169 437 156C437 140 427 134 411 134C402 134 387 137 387 137L388 144C388 144 403 142 410 142C422 142 429 145 429 155C429 163 425 165 409 168C394 170 386 173 386 186C386 201 399 205 411 205C421 205 435 203 435 203L434 196C434 196 420 198 411 198ZM503 143V136C503 136 488 134 477 134C457 135 451 147 451 170C451 196 462 206 479 206C497 206 506 196 506 173V167H459C459 151 464 142 478 142C488 142 503 143 503 143ZM498 173C498 192 492 199 479 199C466 199 459 192 459 173H498ZM576 142C579 142 588 143 588 143L589 136C589 136 580 134 575 134C561 134 556 139 556 159V197H546V204H556V226H565V204H588V197H565V163C565 146 566 142 576 142ZM655 171C655 145 649 134 626 134C603 134 597 145 597 171C597 195 605 206 626 206C648 206 655 195 655 171ZM626 142C644 142 647 150 647 171C647 192 642 198 626 198C611 198 606 192 606 171C606 151 608 142 626 142ZM724 136H716V141C716 141 705 134 695 134C676 134 672 143 672 169V204H680V169C680 148 682 142 696 142C707 142 716 148 716 148V204H724V136ZM788 204 787 197C787 197 776 198 771 198C755 198 750 191 750 171C750 150 753 142 771 142C776 142 788 143 788 143V136C788 136 776 134 770 134C748 134 742 144 742 171C742 196 750 206 770 206C776 206 788 204 788 204ZM804 235H812V200C812 200 823 206 834 206C853 206 857 197 857 172V136H849V171C849 192 847 198 833 198C822 198 812 194 812 194V136H804V235ZM473 865C503 860 498 839 500 815C503 826 507 836 518 841C527 845 546 843 553 830C560 815 554 796 553 780C553 780 554 780 554 780C559 792 569 803 583 798C592 796 598 789 599 779C599 751 592 723 588 696C583 637 599 593 549 527C547 523 537 524 537 524C537 524 554 554 561 569C578 601 572 639 573 675C572 710 586 745 585 780C584 786 573 788 571 782C569 779 567 775 566 772C557 744 551 714 540 686C538 684 536 684 533 685C526 687 530 696 530 701C534 739 540 777 542 815C543 825 539 829 529 829C519 829 515 819 514 811C511 793 509 775 507 757C504 740 502 723 500 705C499 701 496 698 492 699C487 698 485 705 486 710C486 750 486 791 486 832C488 845 476 856 464 850C457 846 456 839 456 832C456 799 456 766 456 733C455 725 460 700 450 699C441 698 441 709 440 715C432 750 427 786 418 820C413 835 390 830 391 815C396 773 404 731 409 689C409 681 419 648 401 656C389 667 374 701 359 700C347 701 340 687 346 677C368 638 386 597 417 565C427 552 441 539 441 522L428 521C423 543 404 555 392 572C368 603 352 638 334 671C329 679 329 688 333 697C340 713 358 719 373 710C383 705 388 696 395 688C391 728 383 768 377 809C370 841 418 858 430 827C436 811 437 795 442 779C442 779 442 779 442 779C442 798 442 817 443 836C442 853 456 866 473 866Z" fill="#1a1a1a"/></svg>