<svg xmlns="http://www.w3.org/2000/svg" viewBox="16.1 -983.9 967.8 967.8"><path transform="scale(1,-1)" d="M401 353C401 384 399 415 396 445C388 443 380 441 372 439C378 390 380 340 380 291H402C402 309 402 334 401 353ZM754 302C752 343 737 383 728 422C724 458 727 498 714 533C706 531 698 528 691 526C691 526 691 525 691 525C705 491 700 451 707 414C717 373 733 333 733 290L754 291C754 294 754 299 754 302ZM242 662C244 643 254 622 272 614C288 609 309 605 325 600C339 566 354 531 363 495C371 497 379 499 387 502C383 522 376 541 370 560C397 571 423 585 447 603C480 575 531 581 570 577C592 575 613 574 634 571C648 569 663 577 676 579C660 590 641 596 622 597C594 600 556 603 528 605C514 606 500 607 487 611C459 617 449 644 438 667C427 692 408 717 380 725C359 733 336 727 316 721C316 721 308 714 308 714L298 697C283 694 266 690 252 686C252 686 243 677 243 677C241 672 241 667 242 662ZM332 598C332 598 332 598 332 598ZM270 665C282 667 296 670 308 671L318 678C318 678 328 696 328 696C345 701 362 706 378 697C407 685 415 649 430 624C409 608 385 595 360 586C356 596 352 607 348 617C348 617 339 625 339 625C339 625 310 632 310 632C302 634 289 636 281 639C272 643 268 655 266 664L270 665ZM790 790C532 1047 90 864 90 500C86 280 280 85 500 90C864 90 1047 532 790 790ZM117 500C127 939 726 1029 866 614C622 552 369 483 127 414C120 442 117 470 117 500ZM500 117C326 117 179 233 132 392C377 454 630 522 872 592C933 355 745 114 500 117ZM690 317C687 342 678 367 665 388C649 415 624 436 610 464L596 471L465 456L453 442C451 392 431 343 435 292H456C455 339 474 383 480 429L591 443C606 418 628 399 644 375C661 351 670 322 670 292H692C692 300 691 309 690 317Z" fill="#1a1a1a"/></svg>