<svg xmlns="http://www.w3.org/2000/svg" viewBox="-2 -1002 1004 1004"><path transform="scale(1,-1)" d="M902 606 910 581C644 488 368 398 98 316C96 323 92 336 90 342C356 434 632 524 902 606ZM389 705C396 736 403 772 429 792C449 806 474 808 500 809C525 809 548 806 568 794C572 792 576 789 578 786C609 752 611 701 619 658C550 658 450 658 381 659C384 674 386 690 389 705ZM280 423C288 426 298 429 307 432L322 631C434 632 567 632 678 632C680 606 682 581 684 555C691 557 704 561 711 563C708 591 706 619 704 646L691 658H645C629 755 623 841 500 839C378 841 371 756 355 659H310C310 659 296 646 296 646L276 422L280 423ZM731 325C731 328 716 501 716 498C707 495 699 492 690 489C690 487 690 485 690 483L703 322C704 301 710 268 701 249C689 215 655 194 620 195C580 193 540 192 500 192C454 193 407 193 362 197C322 203 291 242 295 282C296 302 299 343 301 363C295 361 276 355 270 353C268 337 266 301 264 284C259 229 301 175 356 166C377 163 398 163 419 162C490 160 561 161 632 165C691 169 740 225 734 284C734 284 731 325 731 325Z"/></svg>