<svg xmlns="http://www.w3.org/2000/svg" viewBox="-2 -1002 1004 1004"><path transform="scale(1,-1)" d="M752 320C715 319 658 316 620 314C588 314 531 315 497 315C464 315 407 314 374 314C337 316 279 319 243 320V363L216 355V307L228 294C271 290 331 287 374 284C407 284 464 284 497 283C531 283 588 284 621 284C664 287 724 290 766 294L779 307V538L752 529V320ZM243 476V627L390 635L403 647L407 689C467 690 528 689 587 689L592 647L605 635L752 627V596L779 604V640L766 654L617 661L613 703L600 715C532 717 463 717 395 715L382 703L377 661L228 654L216 640V421L243 430V476ZM413 419C406 417 392 412 386 410C410 372 452 347 500 347C577 347 640 414 635 491C628 489 615 485 608 482C607 378 473 336 413 419ZM365 470C372 472 385 476 392 478C389 539 439 591 500 591C538 591 571 572 590 543C597 545 610 549 617 551C543 675 353 615 365 470ZM902 625C632 543 356 453 90 361C92 355 96 342 98 335C368 417 644 507 910 599L902 625Z"/></svg>