<svg xmlns="http://www.w3.org/2000/svg" viewBox="-2 -1002 1004 1004"><path transform="scale(1,-1)" d="M523 621 503 748H497C497 748 477 621 477 621C423 610 382 563 382 506C382 449 422 401 477 390L496 263H503C503 263 523 390 523 390C578 401 618 449 618 506C618 562 577 611 523 621ZM389 506C389 559 426 603 476 614L459 506L476 397C425 408 389 454 389 506ZM500 285 466 506H535L500 285ZM524 397 542 505 524 614C574 603 611 559 611 506C611 453 575 409 524 397ZM477 895H479L511 807H540V910H523V821H521L489 910H460V807H477V895ZM505 152C487 157 482 159 482 169C482 177 489 182 501 182C510 182 531 180 531 180L532 193C532 193 513 197 500 197C479 197 465 188 465 167C465 150 475 143 497 137C513 133 518 130 518 121C518 111 512 105 499 105C488 105 468 108 468 108L466 94C466 94 487 90 500 90C520 90 535 100 535 122C535 140 527 146 505 152Z"/></svg>