<svg xmlns="http://www.w3.org/2000/svg" viewBox="16.2 -983.8 967.6 967.6"><path transform="scale(1,-1)" d="M618 475 752 497V504C752 504 618 524 618 524C606 581 556 624 495 624C435 624 385 582 373 524L239 504V497C239 497 373 475 373 475C385 417 436 376 496 376C555 376 606 419 618 476V475ZM495 618C551 618 598 578 610 526L496 543L381 526C393 579 440 618 495 618ZM262 500 495 536V463L262 500ZM381 474 495 456 610 474C598 422 551 382 495 382C439 382 393 421 381 474ZM892 461H890L856 555H826V445H844V539H846L879 445H910V555H892V461ZM121 491C140 486 145 484 145 473C145 464 139 459 125 459C116 459 94 462 94 462L92 447C92 447 113 444 127 444C149 444 163 453 163 475C163 494 153 501 130 507C113 511 108 514 108 523C108 535 114 541 128 541C139 541 161 538 161 538L162 552C162 552 141 556 127 556C105 556 90 546 90 522C90 503 98 497 121 491Z" fill="#1a1a1a"/></svg>