<svg xmlns="http://www.w3.org/2000/svg" viewBox="15.8 -983.9 968.1 968.1"><path transform="scale(1,-1)" d="M910 451C908 483 889 509 874 536C832 602 790 667 752 735C733 769 715 804 693 837C682 853 669 871 646 879C602 896 571 848 538 832C477 803 446 881 386 888C346 893 272 903 256 852C249 820 242 787 234 755C213 745 194 734 174 721C164 713 154 706 145 693C137 679 136 665 135 652C132 605 141 554 141 508C138 483 125 474 101 461C73 438 103 403 123 387C160 355 199 327 236 295C261 272 297 259 308 224C316 200 311 179 317 153C344 80 443 112 495 131C545 144 581 190 602 232C614 251 630 263 651 268C718 240 787 247 792 333C793 350 792 366 789 383C833 390 907 401 910 451ZM880 434C852 414 810 408 775 403C726 399 673 397 624 408C624 409 624 410 624 410C636 511 646 613 635 715L622 714C630 615 620 517 605 419C605 410 603 398 612 392C662 375 716 378 767 379C782 292 749 250 658 287C612 309 566 336 517 351C513 352 510 352 505 350C502 349 500 344 499 341C489 300 488 258 482 216L494 214C504 252 507 292 516 329C551 317 589 296 624 279C619 277 615 275 612 273C581 251 570 210 546 185C514 153 464 141 420 134C398 131 373 130 357 140C336 151 339 171 337 193C334 219 326 245 306 265C247 309 190 354 135 401C125 412 100 433 113 446C175 471 160 528 157 580C158 613 151 652 164 681C184 705 218 722 247 737C263 744 281 753 298 761C316 769 354 787 374 794C387 779 389 757 391 736C393 665 375 593 355 524L370 519C395 607 432 704 398 795C394 803 387 815 376 815C371 815 370 814 366 812C332 800 292 780 258 765C261 788 266 811 270 834C279 884 346 874 382 868C424 862 444 830 482 813C502 806 525 807 545 816C580 830 601 874 640 862C655 857 667 842 677 826C736 727 793 622 856 525C869 502 886 477 888 451C888 444 886 439 880 434ZM488 423C459 381 433 329 387 301C381 296 364 294 357 305C351 311 344 324 340 331C323 359 304 396 291 420C282 418 269 413 260 412C257 412 253 412 250 413C247 413 242 420 243 423C242 485 250 549 245 610L255 612C264 553 261 492 262 433C269 434 277 437 281 438C289 439 294 444 303 437C325 407 350 348 372 318C372 317 372 316 372 316C373 316 376 317 379 318C420 344 447 389 477 428L488 423ZM555 720C558 708 550 698 544 688C531 666 513 647 496 628L486 636C499 661 522 696 531 714C528 720 507 731 498 735C484 743 469 749 454 755L458 770C488 766 518 755 543 736C547 733 553 728 555 720Z" fill="#1a1a1a"/></svg>