<svg xmlns="http://www.w3.org/2000/svg" viewBox="16.2 -983.8 967.6 967.6"><path transform="scale(1,-1)" d="M382 516C382 510 382 503 383 497C383 470 385 444 388 418C392 393 397 367 405 343C412 319 422 297 435 276C441 266 448 257 455 248C461 239 468 232 476 224C489 211 503 199 517 188C524 183 530 179 535 175L551 163L569 150L426 114L432 90L593 126L599 127L602 132C606 137 610 143 614 149L618 153L617 158L606 326L583 325L587 178L570 190L555 201C549 205 543 209 537 214C523 224 510 235 498 246C492 253 485 260 479 267C473 275 467 283 461 292C449 311 440 331 433 352C426 375 421 398 417 422C414 447 412 472 411 497C411 503 410 510 410 516C410 523 410 529 410 535C410 548 410 561 410 574C410 599 410 624 409 649C409 697 409 742 408 781C408 820 407 852 407 875C407 897 406 910 406 910H383C383 910 383 897 383 874C383 852 383 820 383 781C383 742 383 697 383 649C383 624 383 599 383 574C383 561 383 548 382 536C382 529 382 523 382 516Z" fill="#1a1a1a"/></svg>