<svg xmlns="http://www.w3.org/2000/svg" viewBox="-2 -1002 1004 1004"><path transform="scale(1,-1)" d="M618 516C618 510 618 503 617 497C617 470 615 444 612 418C608 393 603 367 595 343C588 319 578 297 565 276C559 266 552 257 545 248C539 239 532 232 524 224C511 211 497 199 483 188C476 183 470 179 465 175L449 163L431 150L574 114L568 90L407 126L401 127L398 132C394 137 390 143 386 149L382 153L383 158L394 326L417 325L413 178L430 190L445 201C451 205 457 209 463 214C477 224 490 235 502 246C508 253 515 260 521 267C527 275 533 283 539 292C551 311 560 331 567 352C574 375 579 398 583 422C586 447 588 472 589 497C589 503 590 510 590 516C590 523 590 529 590 535C590 548 590 561 590 574C590 599 590 624 591 649C591 697 591 742 592 781C592 820 593 852 593 875C593 897 594 910 594 910H617C617 910 617 897 617 874C617 852 617 820 617 781C617 742 617 697 617 649C617 624 617 599 617 574C617 561 617 548 618 536C618 529 618 523 618 516Z"/></svg>