<svg xmlns="http://www.w3.org/2000/svg" viewBox="-2 -1002 1004 1004"><path transform="scale(1,-1)" d="M516 618C510 618 503 618 497 617C470 617 444 615 418 612C393 608 367 603 343 595C319 588 297 578 276 565C266 559 257 552 248 545C239 539 232 532 224 524C211 511 199 497 188 483C183 476 179 470 175 465L163 449L150 431L114 574L90 568L126 407L127 401L132 398C137 394 143 390 149 386L153 382L158 383L326 394L325 417L178 413L190 430L201 445C205 451 209 457 214 463C224 477 235 490 246 502C253 508 260 515 267 521C275 527 283 533 292 539C311 551 331 560 352 567C375 574 398 579 422 583C447 586 472 588 497 589C503 589 510 590 516 590C523 590 529 590 535 590C548 590 561 590 574 590C599 590 624 590 649 591C697 591 742 591 781 592C820 592 852 593 875 593C897 593 910 594 910 594V617C910 617 897 617 874 617C852 617 820 617 781 617C742 617 697 617 649 617C624 617 599 617 574 617C561 617 548 617 536 618C529 618 523 618 516 618Z"/></svg>