<svg xmlns="http://www.w3.org/2000/svg" viewBox="-2 -1002 1004 1004"><path transform="scale(1,-1)" d="M484 618C490 618 497 618 503 617C530 617 556 615 582 612C607 608 633 603 657 595C681 588 703 578 724 565C734 559 743 552 752 545C761 539 768 532 776 524C789 511 801 497 812 483C817 476 821 470 825 465L837 449L850 431L886 574L910 568L874 407L873 401L868 398C863 394 857 390 851 386L847 382L842 383L674 394L675 417L822 413L810 430L799 445C795 451 791 457 786 463C776 477 765 490 754 502C747 508 740 515 733 521C725 527 717 533 708 539C689 551 669 560 648 567C625 574 602 579 578 583C553 586 528 588 503 589C497 589 490 590 484 590C477 590 471 590 465 590C452 590 439 590 426 590C401 590 376 590 351 591C303 591 258 591 219 592C180 592 148 593 125 593C103 593 90 594 90 594V617C90 617 103 617 126 617C148 617 180 617 219 617C258 617 303 617 351 617C376 617 401 617 426 617C439 617 452 617 464 618C471 618 477 618 484 618Z"/></svg>