<svg xmlns="http://www.w3.org/2000/svg" viewBox="16.2 -983.8 967.6 967.6"><path transform="scale(1,-1)" d="M484 382C490 382 497 382 503 383C530 383 556 385 582 388C607 392 633 397 657 405C681 412 703 422 724 435C734 441 743 448 752 455C761 461 768 468 776 476C789 489 801 503 812 517C817 524 821 530 825 535L837 551L850 569L886 426L910 432L874 593L873 599L868 602C863 606 857 610 851 614L847 618L842 617L674 606L675 583L822 587L810 570L799 555C795 549 791 543 786 537C776 523 765 510 754 498C747 492 740 485 733 479C725 473 717 467 708 461C689 449 669 440 648 433C625 426 602 421 578 417C553 414 528 412 503 411C497 411 490 410 484 410C477 410 471 410 465 410C452 410 439 410 426 410C401 410 376 410 351 409C303 409 258 409 219 408C180 408 148 407 125 407C103 407 90 406 90 406V383C90 383 103 383 126 383C148 383 180 383 219 383C258 383 303 383 351 383C376 383 401 383 426 383C439 383 452 383 464 382C471 382 477 382 484 382Z" fill="#1a1a1a"/></svg>