<svg xmlns="http://www.w3.org/2000/svg" viewBox="-2 -1002 1004 1004"><path transform="scale(1,-1)" d="M516 382C510 382 503 382 497 383C470 383 444 385 418 388C393 392 367 397 343 405C319 412 297 422 276 435C266 441 257 448 248 455C239 461 232 468 224 476C211 489 199 503 188 517C183 524 179 530 175 535L163 551L150 569L114 426L90 432L126 593L127 599L132 602C137 606 143 610 149 614L153 618L158 617L326 606L325 583L178 587L190 570L201 555C205 549 209 543 214 537C224 523 235 510 246 498C253 492 260 485 267 479C275 473 283 467 292 461C311 449 331 440 352 433C375 426 398 421 422 417C447 414 472 412 497 411C503 411 510 410 516 410C523 410 529 410 535 410C548 410 561 410 574 410C599 410 624 410 649 409C697 409 742 409 781 408C820 408 852 407 875 407C897 407 910 406 910 406V383C910 383 897 383 874 383C852 383 820 383 781 383C742 383 697 383 649 383C624 383 599 383 574 383C561 383 548 383 536 382C529 382 523 382 516 382Z"/></svg>