<svg xmlns="http://www.w3.org/2000/svg" viewBox="-2 -1002 1004 1004"><path transform="scale(1,-1)" d="M618 484C618 490 618 497 617 503C617 530 615 556 612 582C608 607 603 633 595 657C588 681 578 703 565 724C559 734 552 743 545 752C539 761 532 768 524 776C511 789 497 801 483 812C476 817 470 821 465 825L449 837L431 850L574 886L568 910L407 874L401 873L398 868C394 863 390 857 386 851L382 847L383 842L394 674L417 675L413 822L430 810L445 799C451 795 457 791 463 786C477 776 490 765 502 754C508 747 515 740 521 733C527 725 533 717 539 708C551 689 560 669 567 648C574 625 579 602 583 578C586 553 588 528 589 503C589 497 590 490 590 484C590 477 590 471 590 465C590 452 590 439 590 426C590 401 590 376 591 351C591 303 591 258 592 219C592 180 593 148 593 125C593 103 594 90 594 90H617C617 90 617 103 617 126C617 148 617 180 617 219C617 258 617 303 617 351C617 376 617 401 617 426C617 439 617 452 618 464C618 471 618 477 618 484Z"/></svg>