<svg xmlns="http://www.w3.org/2000/svg" viewBox="16.2 -983.7 967.6 967.6"><path transform="scale(1,-1)" d="M221 706C225 567 228 428 238 289C243 240 243 190 258 143C260 140 269 137 274 136C315 125 357 123 400 120C469 116 539 116 608 118C652 122 705 119 745 137C747 143 749 153 750 161C770 342 767 525 770 707C770 707 793 707 793 707C793 568 792 428 786 289C782 235 784 182 770 129C759 92 642 95 608 92C538 89 468 89 398 93C355 96 309 98 266 109C255 113 246 115 236 125C233 130 230 136 229 142C217 189 215 239 211 287C202 427 199 566 197 705C197 705 221 706 221 706ZM363 634 378 226H350L341 634H363ZM515 653 520 208H492L497 653H515ZM656 634 653 226H625L640 634H656ZM165 794C385 801 615 801 835 794C835 794 835 782 835 782C779 780 723 779 667 778C569 778 430 777 333 779C277 780 221 781 165 783V794ZM377 780 350 786C352 795 370 869 395 892C420 915 483 910 498 908C508 909 574 908 600 894C629 878 644 807 648 786L621 781C614 819 598 864 587 870C571 878 523 881 497 881H496C469 884 425 883 413 872C399 859 384 809 377 780Z" fill="#1a1a1a"/></svg>