<svg xmlns="http://www.w3.org/2000/svg" viewBox="-2 -1002 1004 1004"><path transform="scale(1,-1)" d="M344 93C353 205 362 335 369 448L386 462C396 463 407 465 417 468L405 453C408 516 405 580 398 643C396 655 394 669 387 677C382 684 374 688 366 689C355 692 346 696 337 705C321 721 324 746 331 766C338 785 348 805 341 824C334 853 286 853 280 825C269 790 303 760 294 725C291 711 279 698 266 693C255 688 241 688 234 677C227 669 224 654 223 643C215 580 213 516 216 453L204 468C214 465 224 462 235 462L252 447C259 334 267 205 276 93L250 90C239 203 229 332 220 446L236 431C223 431 209 434 196 437L184 451C182 512 184 572 191 632C194 669 204 710 246 718C267 722 269 735 262 753C261 756 259 762 257 766C235 813 250 877 311 876C348 877 374 845 373 809C373 790 366 772 360 756C355 744 351 726 366 721C377 718 387 716 396 710C423 693 427 660 430 632C437 572 439 512 436 451L425 437C411 434 398 430 384 431L401 446C392 333 382 202 372 90L343 93H344Z"/></svg>