<svg xmlns="http://www.w3.org/2000/svg" viewBox="26.3 -917.7 835.4 835.4"><path transform="scale(1,-1)" d="M626 588C626 588 626 588 626 588C626 588 626 588 626 588ZM634 550C634 550 634 551 634 550ZM797 264C796 305 792 350 787 391L781 400C755 409 728 416 701 421C693 434 681 445 668 453C667 471 665 489 659 506C653 522 637 532 634 548C634 548 634 548 634 548C634 548 634 548 634 548C634 548 634 548 634 548C634 564 647 580 646 598C647 631 610 654 581 637C559 623 556 593 566 571C567 568 568 564 569 561C571 544 565 524 563 506C562 490 560 474 561 458C456 406 491 248 610 246C664 246 710 286 719 338C721 338 723 338 726 337C730 307 733 275 736 244L753 245C752 279 749 315 746 349C746 349 736 359 736 359L721 360C721 373 718 386 714 397C732 393 750 388 767 382C773 337 778 290 779 244L798 245L797 263V264ZM581 478C581 508 590 533 587 563C586 571 583 578 581 585C576 600 580 621 597 625C608 627 619 623 624 614C636 592 616 571 616 549C615 526 639 513 643 493C646 483 647 473 648 463C627 471 603 472 582 466C581 470 581 474 582 478ZM610 265C558 265 517 307 517 358C522 481 697 481 703 358C703 307 661 265 610 265ZM193 249C195 283 198 335 200 370L208 379L234 385L226 376C228 412 227 450 226 486L234 497C239 498 247 500 252 501L244 491C245 528 241 564 235 600C233 611 230 621 222 629C218 634 213 634 207 636C200 639 194 644 190 651C179 678 200 693 200 715C198 747 155 744 156 713C156 703 162 693 166 683C174 663 166 638 143 634C143 634 143 634 143 634C125 629 122 607 120 591C114 558 110 525 111 491C111 491 103 501 103 501C108 500 116 498 121 497L129 487C128 450 126 413 129 376L121 385L147 379L155 370C158 334 160 284 163 249L147 248C143 283 138 333 135 368L143 359L117 365L109 374C106 411 108 449 109 486L117 477C112 478 104 479 98 481L90 491C90 526 94 560 100 595C103 618 112 645 137 652C147 654 152 661 149 671C146 685 138 697 137 712C136 734 154 757 178 756C200 756 218 735 217 713C217 702 213 692 209 683C205 674 201 661 209 655C211 654 214 653 217 652C231 649 242 636 247 623C260 580 264 535 265 491L257 481C251 480 244 478 238 477L246 487C248 450 249 412 246 374L238 365L212 359L220 368C217 334 212 282 208 248L193 249ZM408 509C396 509 384 516 375 527C393 534 417 552 430 567C440 564 450 561 460 560C451 530 431 509 408 509ZM351 599C351 602 351 606 352 610C365 597 386 583 412 573C398 560 378 545 365 542C356 557 351 577 351 599ZM408 624C431 624 449 634 459 641C466 622 468 598 464 577C409 584 366 615 355 632C356 634 357 637 358 640C369 633 388 624 408 624ZM470 659 456 662C427 633 389 638 358 660L345 656C319 601 338 496 409 492C481 496 499 604 470 659ZM408 738C448 737 448 679 408 678C368 679 368 737 408 738ZM408 660C435 660 456 682 456 708C454 771 363 771 361 708C361 682 382 660 409 660Z" fill="#1a1a1a"/></svg>