<svg xmlns="http://www.w3.org/2000/svg" viewBox="-2 -1002 1004 1004"><path transform="scale(1,-1)" d="M693 567C693 567 693 567 693 567C693 567 693 567 693 567ZM817 416 811 423C792 430 771 435 751 440C744 449 735 458 725 464C724 477 723 492 718 504C714 517 701 525 699 537C699 537 699 537 699 537C699 549 709 562 708 575C709 601 681 618 659 605C642 594 640 571 647 555C648 552 649 549 649 547C651 534 646 518 645 504C644 492 643 480 643 468C563 428 589 307 680 306C722 306 757 336 765 376C766 376 768 376 769 375C773 352 775 328 777 304L791 305C790 331 788 358 785 384C785 384 777 392 777 392L766 393C766 403 764 412 761 421C774 418 788 414 801 410C806 375 809 339 811 304L824 305V319C823 350 820 385 817 416ZM671 595C679 597 687 594 691 587C701 571 685 554 685 537C685 520 703 510 706 494C708 487 709 479 710 472C694 477 675 478 659 474C659 477 659 480 659 483C659 506 665 525 663 549C662 554 660 560 658 565C655 576 658 593 671 595ZM680 320C641 320 609 352 609 391C613 486 748 486 752 391C752 352 720 320 680 320ZM392 613C388 616 383 617 378 619C370 621 372 630 374 636C377 644 381 653 381 663C381 680 368 696 350 696C320 696 312 664 323 641C324 639 325 636 326 634C329 626 328 619 318 617C297 613 292 593 290 575C287 545 286 515 287 485L293 478C297 477 301 476 305 475C310 421 315 359 320 305L333 307C328 363 324 427 321 483L312 490C309 490 306 491 303 492C302 521 303 551 306 580C307 586 308 593 312 597C315 602 322 603 328 605C334 607 340 613 342 620C346 638 329 653 334 670C337 684 361 684 365 670C368 660 364 650 360 641C356 631 355 619 363 611C367 606 372 604 377 603C381 602 385 600 388 597C391 593 392 586 393 580C397 551 398 521 397 492C394 491 390 491 387 490L379 483C375 427 371 363 366 307L381 306C385 359 390 421 394 475C399 476 403 477 407 478L413 485C414 515 413 545 409 575C408 589 406 605 393 613H392ZM187 616C185 617 183 618 181 619C175 624 178 634 181 640C184 647 188 655 188 663C188 680 174 697 157 696C139 697 125 679 126 662C127 651 133 642 136 631C138 623 134 618 126 617C107 611 100 590 98 573C93 546 90 519 90 493L96 485C98 485 101 484 104 484C103 457 102 430 104 403L110 396L125 393C127 366 131 331 133 307L145 308C144 334 142 373 140 400L134 407L120 411C118 437 119 464 120 490L114 498C111 498 109 499 106 499C106 523 109 547 113 570C115 582 117 599 131 603C131 603 131 603 131 603C148 606 155 625 148 641C145 648 141 656 140 664C140 687 173 690 174 665C175 648 158 636 167 616C169 611 174 607 180 605C184 603 188 602 191 599C197 593 200 585 201 577C206 551 209 525 208 499C206 499 203 498 201 498L194 490C195 463 196 437 195 411L180 407L174 400C173 374 171 334 169 308L181 307C184 331 187 367 190 393L204 396L210 404C212 430 211 457 210 484C213 484 216 485 218 485L224 493C224 527 221 562 211 595C207 604 198 614 187 617V616ZM106 493C106 493 106 493 106 493ZM130 603C130 603 130 603 130 603C131 603 130 603 130 603ZM563 624C540 602 511 606 488 622L478 619C458 577 472 497 526 494C582 497 595 580 573 622L563 624ZM493 532C486 544 482 559 482 576C482 579 482 581 483 584C493 574 509 563 529 556C518 546 502 534 493 532ZM526 507C516 507 508 512 500 521C515 526 532 540 543 551C550 549 558 547 566 546C559 523 544 507 526 507ZM569 559C527 564 494 588 485 601C486 603 487 605 487 607C496 602 511 595 526 595C543 595 557 603 565 608C570 593 571 575 569 559ZM526 623C546 623 563 639 563 660C561 708 491 708 490 660C490 639 506 623 526 623ZM526 683C557 682 557 637 526 636C496 637 496 682 526 683ZM865 650C864 691 882 686 910 682V692C875 699 851 698 853 650C852 603 874 601 910 608V618C882 614 864 610 865 650ZM816 617H813L795 693H781L764 617H761L747 694H735L752 606H773L788 679L804 606H825L842 694H830L816 617Z"/></svg>