<svg xmlns="http://www.w3.org/2000/svg" viewBox="-2 -1002 1004 1004"><path transform="scale(1,-1)" d="M339 92C343 145 347 226 350 279L363 294L403 303L390 289C395 345 393 403 390 460L404 476C411 478 424 481 432 482L419 467C421 524 415 581 404 636C402 653 396 669 385 680C379 688 370 689 361 692C350 696 341 704 335 715C317 756 351 779 350 814C347 863 280 858 282 811C282 795 291 780 297 765C311 733 298 695 262 688C263 688 262 688 262 688C235 680 230 646 226 621C217 571 212 519 213 467C213 467 200 482 200 482C208 481 220 478 228 476L241 461C240 404 237 346 241 288L229 303L269 294L282 279C285 224 289 146 293 92L268 90C262 144 255 222 250 277L262 262L222 272L209 286C205 343 207 402 209 459L223 445C214 446 202 449 193 451L180 466C180 520 186 574 196 627C201 663 214 706 253 717C268 719 276 730 272 746C267 767 254 785 253 809C251 844 279 878 316 877C351 878 379 845 377 811C377 794 371 778 364 764C358 751 352 731 365 721C368 719 372 717 376 716C398 711 415 692 423 672C444 605 449 536 451 466L439 451C430 449 418 446 409 445L422 461C425 403 427 344 422 286L410 272L370 263L382 277C377 223 369 143 363 90L339 92Z"/></svg>