<svg xmlns="http://www.w3.org/2000/svg" viewBox="16.1 -983.8 967.6 967.6"><path transform="scale(1,-1)" d="M692 611 648 618C557 529 440 545 344 612L303 600C221 428 279 102 500 90C725 103 781 438 692 611ZM363 244C337 293 321 355 321 422C321 434 322 445 323 456C365 415 431 372 510 341C467 300 403 254 363 244ZM500 144C460 144 424 164 394 198C452 219 525 277 566 322C596 313 628 306 660 301C631 208 570 144 500 144ZM672 354C502 377 367 472 334 525C336 534 338 542 341 550C376 530 437 502 500 502C570 502 625 532 656 555C678 495 683 419 672 354ZM500 614C581 614 648 681 648 763C641 959 358 959 351 763C351 681 418 614 500 614ZM500 857C624 853 624 672 500 668C375 672 375 853 500 857Z" fill="#1a1a1a"/></svg>