<?xml version="1.0" encoding="UTF-8"?><svg id="uuid-e5bb45b1-5420-40c0-9c92-485118708ba9" xmlns="http://www.w3.org/2000/svg" xmlns:xlink="http://www.w3.org/1999/xlink" viewBox="0 0 16.71 58.29"><defs><style>.uuid-6e72d7b8-203a-43d9-9ade-e2f9a7e48fd1{fill:none;}.uuid-3218b030-0af8-40d0-bb3e-3cec63102a3e{clip-path:url(#uuid-e9f8ca61-12b2-425e-ba96-84a72396f86a);}.uuid-78b2cad4-9644-4825-97c8-35ccf5767d0f{fill:#1d1d1d;}</style><clipPath id="uuid-e9f8ca61-12b2-425e-ba96-84a72396f86a"><rect class="uuid-6e72d7b8-203a-43d9-9ade-e2f9a7e48fd1" width="16.71" height="58.29"/></clipPath></defs><g id="uuid-3280a76b-73a2-4d32-87ee-9379a510a874"><g class="uuid-3218b030-0af8-40d0-bb3e-3cec63102a3e"><path class="uuid-78b2cad4-9644-4825-97c8-35ccf5767d0f" d="M0,30.28c0-.46,0-.93.02-1.39.04-1.86.17-3.72.4-5.57.22-1.82.61-3.61,1.15-5.36.52-1.67,1.24-3.26,2.15-4.75.43-.69.9-1.36,1.41-2,.47-.59.98-1.15,1.51-1.69.92-.92,1.91-1.78,2.95-2.56.46-.35.88-.66,1.27-.95l1.08-.79,1.28-.93L3.11,1.7,3.52,0l11.47,2.58.36.08.23.31c.3.4.6.8.89,1.2l.23.31-.02.36-.77,11.91-1.66-.08.29-10.42-1.23.87-1.08.77c-.39.28-.81.59-1.25.91-.97.71-1.89,1.48-2.75,2.32-.48.47-.94.97-1.37,1.49-.46.56-.88,1.14-1.27,1.75-.83,1.33-1.5,2.75-1.98,4.24-.52,1.63-.9,3.29-1.13,4.98-.25,1.78-.4,3.56-.46,5.35-.02.45-.03.9-.04,1.36,0,.45-.01.9-.02,1.36,0,.91,0,1.82-.02,2.73-.01,1.81-.02,3.59-.04,5.31-.02,3.44-.05,6.65-.08,9.41-.03,2.75-.06,5.05-.08,6.66-.02,1.61-.04,2.51-.04,2.51H.02s0-.93.02-2.53c.01-1.6.01-3.9.01-6.65s0-5.96-.02-9.4c0-1.72-.01-3.5-.02-5.3,0-.9,0-1.81-.01-2.73C0,31.22,0,30.75,0,30.29"/></g></g></svg>