<?xml version="1.0" encoding="UTF-8"?><svg id="uuid-11014993-74c9-41b0-8941-6005ac84dcc8" xmlns="http://www.w3.org/2000/svg" viewBox="0 0 76.8 107.7"><defs><style>.uuid-1bed201b-f08f-4761-b6fa-eed767954c4d{font-family:Goetheanum-Text-Englisch, 'Goetheanum Text';}.uuid-b6f25782-0482-47c7-91da-e36e281cf823{font-size:19px;}.uuid-b6f25782-0482-47c7-91da-e36e281cf823,.uuid-aa3f066c-43c4-403d-8bec-9e6ca5d817ee{fill:#222221;}.uuid-d7ecc9c0-d7f2-428c-941c-94d84340c81e{letter-spacing:0em;}.uuid-ad179ae4-ca56-4f90-a4bd-2b6f054c9ee4{font-family:Goetheanum-Text-Deutsch, 'Goetheanum Text';}.uuid-83f05180-b13e-47a4-a4a8-5727a372887a{letter-spacing:-.03em;}</style></defs><g id="uuid-2ce98644-f582-477d-ab90-eb6c62d61510"><path class="uuid-aa3f066c-43c4-403d-8bec-9e6ca5d817ee" d="M49.44,0h-19.95c-1.34,0-2.43,1.09-2.43,2.43v41.04c0,1.34,1.09,2.43,2.43,2.43h19.95c1.34,0,2.43-1.09,2.43-2.43V2.43c0-1.34-1.09-2.43-2.43-2.43ZM38.96,6.5h1.32l7.62,5.97-1.32,1.68-6.97-5.46-6.97,5.46-1.32-1.68,7.63-5.97ZM40.28,39.4h-1.32l-7.62-5.97,1.32-1.68,6.97,5.46,6.97-5.46,1.32,1.68-7.63,5.97Z"/><text class="uuid-b6f25782-0482-47c7-91da-e36e281cf823" transform="translate(0 79.62)"><tspan class="uuid-ad179ae4-ca56-4f90-a4bd-2b6f054c9ee4"><tspan class="uuid-83f05180-b13e-47a4-a4a8-5727a372887a" x="0" y="0">F</tspan><tspan class="uuid-d7ecc9c0-d7f2-428c-941c-94d84340c81e" x="9.48" y="0">ahrstuhl</tspan></tspan><tspan class="uuid-1bed201b-f08f-4761-b6fa-eed767954c4d"><tspan x="25.48" y="22.8">Lift</tspan></tspan></text></g></svg>