<?xml version="1.0" encoding="UTF-8"?><svg id="uuid-0f8e6001-9138-4da7-817e-9206e8cee37b" xmlns="http://www.w3.org/2000/svg" viewBox="0 0 67.16 113.98"><defs><style>.uuid-ba9ade80-84ca-44b0-af9d-b2c7b9fb4445{fill:#222221;font-size:19px;}.uuid-ac730f42-4bfe-462c-ab00-916b4fa2ada5{font-family:Goetheanum-Titel-Englisch, 'Goetheanum Titel';font-style:italic;}.uuid-f4e7a5a9-d488-4792-acb7-d2116377d077{fill:#1d1d1b;}.uuid-06e1036e-c171-4c0a-ba01-6072b10101d6{font-family:GoetheanumTitel-Deutsch, 'Goetheanum Titel';}.uuid-ac65af25-bb47-400e-8cef-0fd2077621cd{letter-spacing:-.01em;}.uuid-1e9394fe-188f-4e1b-b33a-1d70cf82a869{letter-spacing:0em;}</style></defs><g id="uuid-650f4782-8651-407f-b0ed-d26dff77f00a"><text class="uuid-ba9ade80-84ca-44b0-af9d-b2c7b9fb4445" transform="translate(0 85.93)"><tspan class="uuid-06e1036e-c171-4c0a-ba01-6072b10101d6"><tspan class="uuid-1e9394fe-188f-4e1b-b33a-1d70cf82a869" x="0" y="0">R</tspan><tspan x="10.58" y="0">estmüll</tspan></tspan><tspan class="uuid-ac730f42-4bfe-462c-ab00-916b4fa2ada5"><tspan x="11.63" y="22.8">Mi</tspan><tspan class="uuid-ac65af25-bb47-400e-8cef-0fd2077621cd" x="30.08" y="22.8">x</tspan><tspan x="37.7" y="22.8">ed</tspan></tspan></text><path class="uuid-f4e7a5a9-d488-4792-acb7-d2116377d077" d="M13.34,14.81c.29,10.07.56,20.16,1.26,30.19.35,3.55.38,7.2,1.42,10.6.16.21.82.41,1.18.53,2.95.78,6.05.93,9.14,1.13,5,.26,10.04.28,15.04.12,3.24-.25,7.05-.07,9.98-1.35.12-.41.3-1.15.38-1.76,1.4-13.11,1.21-26.37,1.44-39.55,0,0,1.64,0,1.64,0,0,10.1-.04,20.19-.49,30.31-.28,3.87-.19,7.75-1.2,11.56-.77,2.68-9.23,2.45-11.69,2.71-5.08.19-10.14.18-15.22-.07-3.18-.2-6.45-.35-9.6-1.18-.81-.28-1.47-.4-2.14-1.16-.28-.34-.45-.82-.56-1.22-.85-3.45-.98-7.03-1.27-10.53-.64-10.11-.9-20.2-.99-30.3,0,0,1.67-.02,1.67-.02h0Z"/><polygon class="uuid-f4e7a5a9-d488-4792-acb7-d2116377d077" points="23.64 19.97 24.71 49.55 22.71 49.61 22.04 20.02 23.64 19.97 23.64 19.97"/><polygon class="uuid-f4e7a5a9-d488-4792-acb7-d2116377d077" points="34.67 18.66 35.01 50.86 33.01 50.86 33.36 18.66 34.67 18.66 34.67 18.66"/><polygon class="uuid-f4e7a5a9-d488-4792-acb7-d2116377d077" points="44.92 20.02 44.66 49.59 42.66 49.55 43.71 20 44.92 20.02 44.92 20.02"/><path class="uuid-f4e7a5a9-d488-4792-acb7-d2116377d077" d="M9.32,8.41c15.9-.48,32.61-.53,48.53-.02,0,0,0,.86,0,.86-4.04.16-8.09.23-12.13.29-7.16.05-17.21.1-24.26-.03-4.04-.06-8.09-.13-12.13-.28v-.83h0Z"/><path class="uuid-f4e7a5a9-d488-4792-acb7-d2116377d077" d="M24.69,9.42l-1.95-.45c.14-.61,1.44-6.01,3.21-7.66C27.76-.36,32.38,0,33.43.11c.75-.03,5.49.01,7.41,1.06,2.07,1.13,3.17,6.29,3.46,7.84l-1.97.36c-.51-2.75-1.62-6-2.45-6.45-1.15-.63-4.63-.85-6.5-.82h-.11c-1.96-.21-5.1-.13-5.97.68-1,.92-2.14,4.56-2.62,6.64Z"/></g></svg>