<?xml version="1.0" encoding="UTF-8"?><svg id="uuid-301e3946-e8fd-470a-9dfe-888084bd9f75" xmlns="http://www.w3.org/2000/svg" viewBox="0 0 17.29 30.54"><defs><style>.uuid-b5f99a0c-77b3-46d9-a5d4-b1fde15d21f4{fill:none;}.uuid-735d43a9-9627-465f-9901-e8970abf3297{fill:#222221;}</style></defs><g id="uuid-72598a4c-a7b4-45e8-8f01-2f752f28c346"><path class="uuid-b5f99a0c-77b3-46d9-a5d4-b1fde15d21f4" d="M2.05,16.92c-.03.41-.05.82-.05,1.24,0,2.52.58,4.83,1.54,6.63,1.51-.34,3.9-2.07,5.49-3.6-2.96-1.16-5.42-2.76-6.98-4.27Z"/><path class="uuid-b5f99a0c-77b3-46d9-a5d4-b1fde15d21f4" d="M4.72,26.52c1.1,1.26,2.45,2.01,3.92,2.01,2.62,0,4.9-2.39,5.98-5.85-1.2-.17-2.37-.43-3.49-.77-1.54,1.67-4.25,3.8-6.41,4.61Z"/><path class="uuid-b5f99a0c-77b3-46d9-a5d4-b1fde15d21f4" d="M8.64,9c4.64-.15,4.64-6.88,0-7.03-4.64.15-4.64,6.88,0,7.03Z"/><path class="uuid-b5f99a0c-77b3-46d9-a5d4-b1fde15d21f4" d="M8.64,15.22c-2.32,0-4.61-1.06-5.9-1.79-.1.3-.19.6-.27.91,1.24,1.96,6.27,5.53,12.61,6.38.41-2.42.2-5.23-.6-7.48-1.18.86-3.22,1.98-5.84,1.98Z"/><path class="uuid-735d43a9-9627-465f-9901-e8970abf3297" d="M15.8,11.15l-1.64-.26c-3.38,3.28-7.74,2.7-11.33.22l-1.5.42c-3.05,6.43-.9,18.55,7.33,19.01,8.37-.49,10.45-12.97,7.15-19.39ZM3.54,24.79c-.96-1.8-1.54-4.11-1.54-6.63,0-.42.02-.83.05-1.24,1.56,1.51,4.02,3.1,6.98,4.27-1.59,1.53-3.98,3.26-5.49,3.6ZM8.64,28.53c-1.47,0-2.82-.75-3.92-2.01,2.16-.8,4.86-2.94,6.41-4.61,1.12.33,2.29.59,3.49.77-1.08,3.46-3.35,5.85-5.98,5.85ZM15.08,20.71c-6.34-.85-11.37-4.41-12.61-6.38.08-.31.17-.62.27-.91,1.3.73,3.58,1.79,5.9,1.79,2.61,0,4.66-1.12,5.84-1.98.8,2.24,1.01,5.06.6,7.48Z"/><path class="uuid-735d43a9-9627-465f-9901-e8970abf3297" d="M8.64,11.01c3.05,0,5.53-2.48,5.53-5.53-.26-7.31-10.79-7.31-11.05,0,0,3.05,2.48,5.53,5.53,5.53ZM8.64,1.97c4.64.15,4.64,6.88,0,7.03-4.64-.15-4.64-6.88,0-7.03Z"/></g></svg>