<?xml version="1.0" encoding="UTF-8"?><svg id="uuid-46ca8d2a-364b-4bb0-aa52-52582a8daac8" xmlns="http://www.w3.org/2000/svg" viewBox="0 0 47.92 61.43"><defs><style>.uuid-9b6bee9d-4d3c-4419-a581-8fb82c285f0a{fill:#121212;}.uuid-0be1bd45-29c9-469d-a188-12033cf350a9{fill:#222221;}</style></defs><g id="uuid-f6fcd719-a357-411b-940a-7726adff3f50"><path class="uuid-9b6bee9d-4d3c-4419-a581-8fb82c285f0a" d="M11.93,61.27c.27-3.96.58-10,.8-14.02l.93-1.08,3.02-.68-.93,1.07c.31-4.24.18-8.56,0-12.81l.99-1.25c.58-.11,1.5-.33,2.09-.46l-.92,1.12c.12-4.22-.34-8.47-1.12-12.62-.21-1.26-.59-2.47-1.44-3.33-.48-.54-1.14-.63-1.79-.86-.82-.32-1.54-.91-1.94-1.71-1.35-3.1,1.18-4.84,1.1-7.43-.22-3.72-5.22-3.32-5.09.2.01,1.18.7,2.34,1.14,3.49,1.02,2.34.04,5.22-2.64,5.73.05-.01,0,0,.01,0-2.06.6-2.39,3.17-2.72,4.99-.66,3.8-1.07,7.69-1,11.55h0s-.92-1.12-.92-1.12c.59.13,1.51.35,2.09.46l.98,1.11c-.12,4.31-.34,8.65,0,12.95l-.93-1.07,3.02.68.93,1.08c.24,4.13.55,9.95.83,14.01l-1.84.17c-.44-4.06-.98-9.89-1.38-14l.93,1.08-3.02-.68-.93-1.07c-.32-4.32-.15-8.68,0-13l.99,1.11c-.65-.12-1.56-.34-2.21-.49L0,33.26c-.05-4.06.42-8.1,1.15-12.08.41-2.66,1.36-5.87,4.3-6.68,1.14-.17,1.74-1.02,1.44-2.22-.4-1.58-1.37-2.92-1.41-4.68-.19-2.62,1.95-5.22,4.66-5.11,2.64-.08,4.75,2.39,4.63,4.95,0,1.27-.51,2.44-.97,3.5-.45.99-.96,2.5.03,3.23.24.18.53.29.85.36,1.66.36,2.92,1.83,3.52,3.31,1.54,4.99,1.97,10.22,2.08,15.42l-.92,1.12c-.66.15-1.55.36-2.21.49l.99-1.25c.2,4.36.32,8.78,0,13.14l-.93,1.07-3.02.68.93-1.08c-.39,4.04-.96,10.02-1.4,14l-1.79-.16Z"/><path class="uuid-0be1bd45-29c9-469d-a188-12033cf350a9" d="M47.92,13.28l-.06-1.52c-4.22.53-6.94,1.2-6.71-4.88-.22-6.19,2.55-5.46,6.71-4.92l.06-1.5c-5.31-1.04-8.87-.83-8.64,6.42-.2,7.06,3.23,7.45,8.64,6.4M25.37,11.91L23.28.21h-1.91l2.66,13.29h3.09l2.39-10.99,2.41,10.99h3.09L37.65.21h-1.89l-2.08,11.71h-.48L30.58.28h-2.12l-2.6,11.63h-.48Z"/></g></svg>