<?xml version="1.0" encoding="UTF-8"?>
<!-- source: arrow-curved.svg -->
<svg xmlns="http://www.w3.org/2000/svg" viewBox="0 0 1000 1000" width="1000" height="1000">
  <path d="M382.4952805903552 516.1129226016819C382.4952805903552 509.6396087180368 382.4952805903552 503.0255706195299 382.7767290200789 496.5522567358848C383.3396258795263 470.37755277158067 385.1690406727304 444.20284880727655 388.40569761455293 418.1688690578343C391.5016303415136 392.55706195297756 396.9898747211258 367.36742749270644 404.5889823236657 342.74068989188265C411.9066414964819 319.2397460099537 422.03878496653505 296.86459584691954 434.84468851896344 275.8966878325039C440.89582975802296 266.18671700703624 447.5098678565299 256.7581946112923 454.6868028144843 247.7518448601339C461.30084091299125 239.44911618328476 468.4777758709456 231.56856015102113 475.93615925862366 223.96945254848126C488.88278702591384 211.02282478119105 502.81448429723696 198.92054230307195 517.4498026428694 187.94405354384764C523.9231165265145 183.0187060236829 529.8335335507122 178.65625536296554 535.3217779303243 174.57525313197186L550.5199931354041 163.45804015788573L568.532692637721 150.37068817573368L426.26051141239054 113.9231165265145L432.0302042217264 90.0L593.4408786682684 126.30684743435731L598.506950403295 127.43264115325212L601.7436073451175 131.79509181396946C605.9653337909731 137.42406040844347 610.1870602368285 143.05302900291747 614.2680624678222 148.68199759739147L617.5047194096447 153.04444825810882L617.223270979921 158.11051999313543L606.3875064355586 325.7130598935988L583.0272867684915 324.58726617470404L587.1082889994851 177.9526342886563L569.7992105714776 190.19564098163727L554.6009953663978 201.03140552599973C549.1127509867856 204.9716835421315 543.2023339625879 209.33413420284887 537.0104685086665 213.83730907842806C523.3602196670671 223.8287283336194 510.41359189977686 234.66449287798187 498.31130942165777 246.48532692637727C491.55654710828895 253.09936502488424 485.0832332246439 260.1355757679768 479.0320919855843 267.4532349407929C472.5587781019392 275.3337909730566 466.6483610777415 283.4957954350439 461.16011669812934 292.0799725416167C449.4800068645958 310.7962931182427 440.05148446885187 330.77913162862546 433.29672215548305 351.7470396430411C425.97906298266685 374.68508666552265 420.6315428179165 398.04530633258975 417.394885876094 421.8276986442424C413.87678050454775 446.8766088896517 411.76591728162 471.925519135061 410.9215719924489 497.1151535953322C410.6401235627252 503.4477432641154 410.49939934786335 509.78033293289866 410.3586751330015 516.2536468165438C410.3586751330015 522.5862364853269 410.21795091813965 528.9188261541102 410.0772267032778 535.3921400377553C410.0772267032778 548.1980435901837 410.0772267032778 561.0039471426121 409.7957782735541 573.8098506950404C409.65505405869226 599.2809335850352 409.5143298438304 624.3298438304446 409.2328814141067 648.5344087866828C408.95143298438296 696.9435386991591 408.5292603397974 742.116011669813 408.1070876952119 780.9558949716836C407.68491505062633 819.6550540586924 407.2627424060408 852.0216234769179 406.9812939763171 874.6782220696757C406.6998455465934 897.3348206624336 406.4183971168697 910.0 406.4183971168697 910.0H382.7767290200789C382.7767290200789 910.0 382.7767290200789 896.9126480178479 383.0581774498026 874.3967736399519C383.19890166466445 851.8808992620559 383.19890166466445 819.5143298438304 383.19890166466445 780.8151707568217C383.19890166466445 742.1160116698129 383.19890166466445 696.943538699159 382.91745323494075 648.5344087866827C382.91745323494075 624.3298438304445 382.7767290200789 599.2809335850352 382.63600480521706 573.9505749099021C382.63600480521706 561.2853955723357 382.63600480521706 548.4794920199073 382.4952805903552 535.5328642526172C382.4952805903552 529.3409987986959 382.4952805903552 522.7269607001888 382.4952805903552 516.2536468165438" fill="#000000"/>
</svg>
