<?xml version="1.0" encoding="UTF-8"?>
<!-- source: compass-n-s.svg -->
<svg xmlns="http://www.w3.org/2000/svg" viewBox="0 0 1000 1000" width="1000" height="1000">
  <path d="M256.5220139035181 469.59764061512533 90.0 496.0269643985675V504.4912576364019C90.0 504.4912576364019 256.5220139035181 530.0568780282283 256.5220139035181 530.0568780282283C270.68674952601646 600.7078154623973 333.0461344006741 654.2574257425742 407.8428481145987 654.2574257425742C482.63956182852337 654.2574257425742 544.998946703181 602.0897408889825 559.1636823256794 530.0568780282283L725.5129555508743 504.66399831472506V496.1997050768906C725.5129555508743 496.1997050768906 558.9909416473563 469.59764061512533 558.9909416473563 469.59764061512533C544.6534653465347 397.7375184326943 481.4303770802612 345.7425742574257 407.67010743627554 345.7425742574257C333.90983779229 345.7425742574257 270.5140088476934 399.1194438592795 256.349273225195 469.77038129344845L256.5220139035181 469.59764061512533ZM407.67010743627554 645.6203918264167C338.2283547503687 645.6203918264167 280.0147461554666 596.7347798609649 265.50452917632185 531.6115441331367L406.97914472298294 553.3768696018539L549.8356856962291 531.6115441331367C535.1527280387612 597.9439646092269 476.07541605224344 645.7931325047399 407.67010743627543 645.7931325047399L407.67010743627554 645.6203918264167ZM696.838002949231 500.1727406783231 407.67010743627554 544.567095007373V453.87823888771857L696.838002949231 500.1727406783231ZM549.8356856962292 467.8702338318938 408.53381082789133 445.241204971561 265.8500105329682 468.04297451021694C280.36022751211294 402.9197387823889 338.57383610701504 354.20686749526016 407.8428481145987 354.20686749526016C477.1118601221824 354.20686749526016 534.9799873604381 401.7105540341268 549.8356856962292 467.8702338318938ZM871.4788287339372 488.9445965873183C848.3315778386349 482.55319148936167 841.2492100273857 479.6165999578681 841.2492100273857 467.0065304402781C841.2492100273857 455.43290499262696 849.7135032652202 449.3869812513166 866.2966083842427 449.3869812513166C877.6974931535707 449.3869812513166 905.3360016852749 452.49631346113335 905.3360016852749 452.49631346113335L907.0634084685064 434.7040235938488C907.0634084685064 434.7040235938488 881.3250473983568 430.04002527912365 864.2237202443649 430.04002527912365C837.1034337476301 430.04002527912365 819.1384032020225 441.2681693701285 819.1384032020225 468.5611965451865C819.1384032020225 492.05392879713503 831.7484727196124 500.8637033916158 860.9416473562251 508.46429323783445C881.6705287550034 513.4737729092058 887.7164524963135 517.2740678323152 887.7164524963135 528.8476932799663C887.7164524963135 543.0124289024648 879.9431219717717 550.6130187486834 863.187276174426 550.6130187486834C849.1952812302507 550.6130187486834 822.5932167684854 546.9854645038972 822.5932167684854 546.9854645038972L820.5203286286076 564.6050136928586C820.5203286286076 564.6050136928586 847.122393090373 569.9599747208763 864.7419422793344 569.9599747208763C891.3440067410997 569.9599747208763 910.0 557.1771645249631 910.0 527.4657678533811C910.0 504.3185169580788 899.8082999789341 496.89066779018333 871.306088055614 488.9445965873183H871.4788287339372Z" fill="#000000"/>
</svg>
