<?xml version="1.0" encoding="UTF-8"?>
<!-- source: compass-false.svg -->
<svg xmlns="http://www.w3.org/2000/svg" viewBox="0 0 1000 1000" width="1000" height="1000">
  <path d="M471.07815631262525 751.5871743486973 496.22044088176347 910.0H504.2725450901803C504.2725450901803 910.0 528.5931863727454 751.5871743486973 528.5931863727454 751.5871743486973C595.8036072144289 738.1122244488978 646.7454909819639 678.7895791583165 646.7454909819639 607.6352705410821C646.7454909819639 536.4809619238476 597.1182364729459 477.1583166332665 528.5931863727454 463.683366733467L504.43687374749493 305.434869739479H496.3847695390781C496.3847695390781 305.434869739479 471.0781563126252 463.84769539078155 471.0781563126252 463.84769539078155C402.71743486973946 477.48697394789576 353.25450901803606 537.6312625250501 353.25450901803606 607.7995991983968C353.25450901803606 677.9679358717434 404.0320641282565 738.2765531062123 471.2424849699398 751.751503006012L471.07815631262525 751.5871743486973ZM638.5290581162325 607.7995991983968C638.5290581162325 673.8597194388777 592.0240480961924 729.2384769539078 530.0721442885772 743.0420841683367L550.7775551102204 608.4569138276554L530.0721442885772 472.55711422845695C593.1743486973949 486.5250501002005 638.6933867735471 542.7254509018036 638.6933867735471 607.7995991983969L638.5290581162325 607.7995991983968ZM500.1643286573146 332.7134268537074 542.3967935871743 607.7995991983968H456.12424849699397L500.1643286573146 332.7134268537074ZM469.4348697394789 472.7214428857715 447.9078156312625 607.1422845691383 469.59919839679355 742.877755511022C407.64729458917833 729.0741482965931 361.3066132264529 673.695390781563 361.3066132264529 607.7995991983968C361.3066132264529 541.9038076152304 406.49699398797594 486.8537074148296 469.4348697394789 472.7214428857715ZM493.59118236472943 167.0701402805611C515.6112224448898 173.1503006012024 522.3486973947896 175.9438877755511 522.3486973947896 187.93987975951904C522.3486973947896 198.9498997995992 514.2965931863728 204.70140280561122 498.52104208416836 204.70140280561122C487.6753507014028 204.70140280561122 461.38276553106215 201.74348697394788 461.38276553106215 201.74348697394788L459.7394789579158 218.6693386773547C459.7394789579158 218.6693386773547 484.2244488977956 223.10621242484973 500.4929859719439 223.10621242484973C526.2925851703408 223.10621242484973 543.3827655310622 212.4248496993988 543.3827655310622 186.46092184368737C543.3827655310622 164.1122244488978 531.3867735470942 155.7314629258517 503.61523046092185 148.501002004008C483.89579158316633 143.73547094188376 478.1442885771543 140.1202404809619 478.1442885771543 129.11022044088176C478.1442885771543 115.63527054108216 485.53907815631266 108.40480961923848 501.47895791583164 108.40480961923848C514.7895791583167 108.40480961923848 540.0961923847696 111.85571142284569 540.0961923847696 111.85571142284569L542.0681362725451 95.09418837675351C542.0681362725451 95.09418837675351 516.7615230460922 90.0 500.0 90.0C474.6933867735471 90.0 456.9458917835671 102.16032064128257 456.9458917835671 130.4248496993988C456.9458917835671 152.4448897795591 466.64128256513027 159.51102204408818 493.75551102204406 167.07014028056113L493.59118236472943 167.0701402805611Z" fill="#000000"/>
</svg>
