<?xml version="1.0" encoding="UTF-8"?>
<!-- source: compass-true.svg -->
<svg xmlns="http://www.w3.org/2000/svg" viewBox="0 0 1000 1000" width="1000" height="1000">
  <path d="M528.9218436873748 248.41282565130265 503.77955911823653 90.0H495.72745490981964C495.72745490981964 90.0 471.4068136272545 248.41282565130265 471.4068136272545 248.41282565130265C404.1963927855711 261.8877755511022 353.25450901803606 321.21042084168346 353.25450901803606 392.36472945891796C353.25450901803606 463.51903807615236 402.8817635270541 522.8416833667335 471.4068136272545 536.3166332665331L495.563126252505 694.5651302605212H503.6152304609219C503.6152304609219 694.5651302605212 528.9218436873748 536.1523046092185 528.9218436873748 536.1523046092185C597.2825651302605 522.5130260521044 646.7454909819639 462.36873747494997 646.7454909819639 392.20040080160334C646.7454909819639 322.0320641282567 595.9679358717435 261.7234468937877 528.7575150300602 248.24849699398808L528.9218436873748 248.41282565130265ZM361.4709418837675 392.2004008016032C361.4709418837675 326.14028056112227 407.97595190380764 270.7615230460922 469.92785571142286 256.9579158316634L449.2224448897796 391.5430861723447L469.92785571142286 527.4428857715432C406.8256513026052 513.4749498997996 361.3066132264529 457.27454909819653 361.3066132264529 392.2004008016032H361.4709418837675ZM499.8356713426854 667.2865731462927 457.60320641282567 392.2004008016032H543.8757515030061L499.8356713426854 667.2865731462927ZM530.4008016032064 527.2785571142285 551.9278557114228 392.85771543086184 530.2364729458918 257.122244488978C592.1883767535071 270.9258517034069 638.5290581162325 326.304609218437 638.5290581162325 392.20040080160334C638.5290581162325 458.09619238476955 593.3386773547095 513.1462925851704 530.4008016032064 527.2785571142285ZM506.40881763527057 832.929859719439C484.3887775551102 826.8496993987978 477.65130260521045 824.0561122244491 477.65130260521045 812.0601202404811C477.65130260521045 801.0501002004008 485.7034068136273 795.2985971943889 501.47895791583164 795.2985971943889C512.3246492985973 795.2985971943889 538.6172344689379 798.2565130260522 538.6172344689379 798.2565130260522L540.2605210420842 781.3306613226454C540.2605210420842 781.3306613226454 515.7755511022044 776.8937875751503 499.5070140280561 776.8937875751503C473.7074148296593 776.8937875751503 456.61723446893785 787.5751503006012 456.61723446893785 813.5390781563126C456.61723446893785 835.8877755511021 468.6132264529058 844.2685370741482 496.38476953907815 851.498997995992C516.1042084168337 856.2645290581162 521.8557114228457 859.879759519038 521.8557114228457 870.8897795591182C521.8557114228457 884.3647294589179 514.4609218436874 891.5951903807614 498.52104208416836 891.5951903807614C485.21042084168334 891.5951903807614 459.90380761523045 888.1442885771543 459.90380761523045 888.1442885771543L457.9318637274549 904.9058116232464C457.9318637274549 904.9058116232464 483.2384769539078 910.0 500.0 910.0C525.3066132264529 910.0 543.054108216433 897.8396793587174 543.054108216433 869.5751503006012C543.054108216433 847.5551102204408 533.3587174348697 840.4889779559118 506.24448897795594 832.9298597194389L506.40881763527057 832.929859719439Z" fill="#000000"/>
</svg>
