<?xml version="1.0" encoding="UTF-8"?>
<!-- source: compass-s-n.svg -->
<svg xmlns="http://www.w3.org/2000/svg" viewBox="0 0 1000 1000" width="1000" height="1000">
  <path d="M743.5130581297389 530.3959561920809 910.0 503.97219882055606V495.50968828980626C910.0 495.50968828980626 743.5130581297389 469.949452401011 743.5130581297389 469.949452401011C729.3513058129739 399.31339511373216 667.0050547598989 345.7750631844988 592.2240943555181 345.7750631844988C517.4431339511374 345.7750631844988 455.0968828980623 397.9317607413648 440.9351305812974 469.949452401011L274.62089300758214 495.33698399326033V503.79949452401013C274.62089300758214 503.79949452401013 441.1078348778433 530.3959561920809 441.1078348778433 530.3959561920809C455.44229149115415 602.2409435551813 518.6520640269588 654.2249368155012 592.396798652064 654.2249368155012C666.1415332771693 654.2249368155012 729.5240101095197 600.8593091828138 743.6857624262847 530.223251895535L743.5130581297389 530.3959561920809ZM592.2240943555181 354.4102780117945C661.6512215669756 354.4102780117945 719.8525695029485 403.28559393428816 734.3597304128053 468.39511373209774L592.9149115417017 446.6343723673126L450.0884582982308 468.39511373209774C464.76832350463354 402.07666385846676 523.8331929233361 354.2375737152486 592.2240943555181 354.2375737152486V354.4102780117945ZM303.1171019376579 499.8272957034541 592.224094355518 455.4422914911542V546.1120471777591L303.1171019376579 499.8272957034541ZM450.2611625947767 531.9502948609941 591.5332771693344 554.5745577085089 734.1870261162595 531.7775905644482C719.6798652064026 596.8871103622578 661.4785172704296 645.5897219882056 592.2240943555181 645.5897219882056C522.9696714406066 645.5897219882056 465.11373209772535 598.0960404380792 450.26116259477675 531.9502948609941H450.2611625947767ZM128.5130581297388 511.0530749789385C151.65543386689126 517.4431339511374 158.73631002527372 520.3791069924179 158.73631002527372 532.9865206402696C158.73631002527372 544.5577085088458 150.27379949452396 550.6023588879528 133.6941870261162 550.6023588879528C122.29570345408587 550.6023588879528 94.66301600673962 547.4936815501264 94.66301600673962 547.4936815501264L92.93597304128049 565.2822240943556C92.93597304128049 565.2822240943556 118.66891322662168 569.9452401010952 135.76663858466716 569.9452401010952C162.88121314237569 569.9452401010952 180.84245998315072 558.7194608256108 180.84245998315072 531.4321819713564C180.84245998315072 507.94439764111206 168.235046335299 499.13647851727046 139.04802021903953 491.5374894692502C118.32350463352984 486.5290648694187 112.27885425442285 482.7295703454086 112.27885425442285 471.15838247683234C112.27885425442285 456.9966301600674 120.05054759898898 449.39764111204715 136.80286436394266 449.39764111204715C150.7919123841617 449.39764111204715 177.38837405223245 453.02443133951135 177.38837405223245 453.02443133951135L179.46082561078344 435.40859309182815C179.46082561078344 435.40859309182815 152.86436394271266 430.0547598989048 135.24852569502943 430.0547598989048C108.65206402695867 430.0547598989048 89.99999999999994 442.8348778433025 89.99999999999994 472.5400168491997C89.99999999999994 495.6823925863522 100.18955349620887 503.10867733782646 128.6857624262847 511.0530749789385H128.5130581297388Z" fill="#000000"/>
</svg>
