<?xml version="1.0" encoding="UTF-8"?>
<!-- source: eat-outside.svg -->
<svg xmlns="http://www.w3.org/2000/svg" viewBox="0 0 1000 1000" width="1000" height="1000">
  <path d="M901.620215533259 381.31178000743216C632.4005945745076 463.1289483463396 355.867707172055 553.0211817168339 90.0 645.3511705685619L98.37978446674094 670.9476031215161C367.7517651430694 589.2827945001858 644.2846525455221 499.0858416945373 910.0000000000001 406.90821256038646L901.620215533259 381.31178000743216ZM237.48420661464138 578.1605351170568C239.16016350798952 577.5510962467484 242.81679672984023 576.3322185061315 244.64511334076553 575.7227796358231L231.3898179115571 469.223337049424H456.27276105536976C456.27276105536976 469.223337049424 451.5496098104793 507.008547008547 451.5496098104793 507.008547008547C452.1590486807877 506.85618729096996 475.47008547008545 499.23820141211445 476.8413229282794 498.7811222593832L481.25975473801554 458.71051653660356L469.5280564845781 445.60758082497216H217.82980304719422C217.82980304719422 445.60758082497216 205.94574507617972 458.71051653660356 205.94574507617972 458.71051653660356L219.81047937569656 584.1025641025642L237.3318468970641 578.160535117057L237.48420661464138 578.1605351170568ZM434.02824228911186 649.7696023782981C430.06688963210706 682.0698625046451 419.8587885544407 763.8870308435527 415.8974358974359 794.9684132292829C414.83091787439616 804.4147157190636 405.99405425492387 812.032701597919 396.54775176514306 811.7279821627649C375.82683017465627 811.5756224451878 355.2582683017465 811.4232627276106 334.5373467112597 811.7279821627649H303.60832404310656C301.0182088442957 811.7279821627649 294.46674098848007 812.0327015979191 292.0289855072464 812.0327015979191C282.4303232998884 812.6421404682276 273.28874024526203 805.3288740245264 271.917502787068 795.8825715347456C266.2801932367149 750.9364548494984 258.2051282051282 685.1170568561873 252.72017837235228 640.0185804533631C244.94983277591973 642.456335934597 234.89409141583053 645.6558900037162 227.12374581939798 647.9412857673728C230.32329988851723 677.4990709773319 237.02712746191003 737.3764399851357 240.22668153102939 767.0865849126719C240.68376068376062 770.8955778520997 243.73095503530283 799.9962839093275 244.49275362318838 803.0434782608696C248.75882571534748 824.9832775919733 269.7844667409885 841.5904868078782 292.0289855072464 840.9810479375698C294.46674098848007 840.9810479375698 301.17056856187287 840.9810479375698 303.60832404310656 840.9810479375698C303.60832404310656 840.9810479375698 334.5373467112597 841.1334076551468 334.5373467112597 841.1334076551468C374.7603121516164 839.4574507617987 436.16127833519135 853.931623931624 444.08398364920095 798.4726867335564C451.2448903753251 732.9580081753996 461.9100706057227 636.3619472315125 469.07097733184685 570.6949089557787L442.56038647342984 579.2270531400967L433.8758825715346 649.617242660721L434.02824228911186 649.7696023782981ZM503.6566332218506 370.4942400594574C508.5321441843181 392.4340393905611 527.7294685990338 410.26012634708286 549.6692679301374 414.22147900408766L550.278706800446 475.0130063173541C559.1155704199182 472.11817168338905 572.2185061315496 467.85209959123006 580.7506503158677 465.10962467484205L581.207729468599 414.22147900408766C614.87922705314 408.88888888888886 633.4671125975475 374.15087328130807 629.962839093274 342.3076923076923C629.962839093274 336.82274247491637 629.2010405053885 306.5031586770717 629.0486807878113 300.4087699739874C628.1345224823486 261.0999628390933 627.3727238944631 205.0315867707172 625.0873281308064 166.33221850613154H611.3749535488665C609.0895577852096 205.03158677071718 608.4801189149015 261.2523225566704 607.4136008918616 300.4087699739874L606.6518023039761 333.9279078409513C606.6518023039761 350.38275733927907 606.9565217391302 370.34188034188037 593.5488665923448 381.4641397250093L590.3493125232254 166.33221850613157H574.3515421776291C574.3515421776291 166.33221850613157 569.6283909327387 390.75808249721297 569.6283909327387 390.75808249721297C566.5811965811965 391.06280193236717 563.6863619472315 391.06280193236717 560.6391675956893 390.75808249721297L555.9160163507988 166.33221850613157H539.9182460052025C539.9182460052025 166.33221850613157 536.7186919360831 381.31178000743216 536.7186919360831 381.31178000743216C523.6157562244517 370.03716090672617 524.0728353771831 350.3827573392791 523.9204756596059 334.0802675585285C523.9204756596059 334.0802675585285 523.1586770717205 300.5611296915645 523.1586770717205 300.5611296915645C522.2445187662578 261.0999628390933 521.4827201783722 205.33630620587144 519.1973244147156 166.48457822370867H505.4849498327759C503.19955406911924 205.18394648829434 502.4377554812337 261.40468227424753 501.5235971757711 300.5611296915645C501.8283166109253 321.58677071720547 498.1716833890747 349.92567818654777 503.0471943515422 370.49424005945747L503.6566332218506 370.4942400594574ZM683.136380527685 376.13154960981046C685.1170568561873 335.9085841694538 687.8595317725752 295.5332590115199 694.7157190635452 255.91973244147158C698.3723522853958 230.47565960609438 707.9710144927539 204.26978818283166 729.3013749535488 188.72909698996656C727.4730583426234 260.642883686362 726.4065403195838 346.87848383500557 725.7971014492754 419.09698996655516C738.290598290598 415.13563730955036 746.0609438870307 412.69788182831655 756.7261241174284 409.3459680416202C756.11668524712 332.4043106651802 754.897807506503 245.55927164622813 752.7647714604235 168.9223337049424L737.985878855444 157.95243403939054C695.4775176514305 172.7313266443701 674.9089557785209 216.61092530657746 669.5763656633222 258.66220735785953C659.3682645856558 319.1490152359718 656.4734299516907 380.39762170196957 654.6451133407655 441.4938684503902C663.634336677815 438.59903381642516 672.6235600148644 435.85655890003716 681.3080639167596 432.9617242660721C681.6127833519137 413.91675956893357 682.2222222222223 394.8717948717949 683.136380527685 375.9791898922334V376.13154960981046ZM727.4730583426234 485.6781865477518 725.3400222965439 486.43998513563736C725.3400222965439 502.742474916388 725.3400222965439 519.1973244147157 725.3400222965439 535.4998141954663C714.8272017837236 533.3667781493868 700.3530286138981 532.4526198439243 691.2114455592717 529.1007060572277C679.7844667409885 523.768115942029 681.0033444816053 511.8840579710145 681.0033444816053 501.2188777406168C672.166480862133 504.266072092159 662.7201783723523 507.3132664437012 653.7309550353028 510.20810107766624C652.0549981419546 532.4526198439241 668.5098476402824 554.3924191750278 690.7543664065403 558.3537718320326C701.5719063545149 560.4868078781122 714.8272017837236 562.7722036417688 725.6447417316984 564.9052396878483C726.7112597547381 634.8383500557413 728.5395763656635 770.4384986993682 729.453734671126 842.0475659606094H753.2218506131552C754.2883686361948 730.5202526941657 757.7926421404683 585.9308807134895 757.1832032701601 475.77480490523976C747.5845410628023 478.974358974359 737.6811594202901 482.3262727610554 727.625418060201 485.6781865477518H727.4730583426234Z" fill="#000000"/>
</svg>
