<?xml version="1.0" encoding="UTF-8"?>
<!-- source: eyes-only.svg -->
<svg xmlns="http://www.w3.org/2000/svg" viewBox="0 0 1000 1000" width="1000" height="1000">
  <path d="M173.05273498738484 444.1439627003372C173.05273498738484 453.47239063170184 169.94325901026332 457.9952647802422 163.8939148365905 460.9916689036503C170.3390104982606 463.366177831634 175.08802835422802 467.8890519801744 175.08802835422802 478.2916625218174C175.08802835422802 493.66943462685475 166.0422800571472 499.15341953196 151.9082983429584 499.15341953196H123.35765528029704V425.1478912764675H150.83411573268006C165.30731300800937 425.1478912764675 173.05273498738484 430.74494803528626 173.05273498738484 444.1439627003372ZM150.94718758639357 457.37336958481797C159.20143290747984 457.37336958481797 162.7631962994554 453.30278285113155 162.7631962994554 445.21814531061557C162.7631962994554 437.1335077700996 158.69260956576903 433.91095993926456 150.32529239096925 433.91095993926456H133.47758618765621V457.3168336579612H151.00372351325032L150.94718758639357 457.37336958481797ZM151.5125468549611 490.3338149423062C159.65372032233387 490.3338149423062 164.85502559315535 487.6766263800387 164.85502559315535 477.7828391801066C164.85502559315535 467.8890519801744 156.88345990635287 465.9668304670447 151.11679536696383 465.9668304670447H133.47758618765621V490.3338149423062H151.5125468549611ZM197.8154709506436 434.8155347689726H187.92168375071145V423.9606368124756H197.8154709506436V434.8155347689726ZM187.92168375071145 445.4442890180426H197.81547095064363V499.15341953196H187.92168375071145V445.4442890180426ZM231.8500989184102 491.521069406298C234.84650304181827 491.521069406298 241.0654549960613 491.0122460645872 241.0654549960613 491.0122460645872L241.6308142646289 499.04034767824646C241.6308142646289 499.04034767824646 234.45075155382096 500.3406739959518 230.66284445441835 500.3406739959518C219.07297944878354 500.3406739959518 215.28507234938095 495.93087170112494 215.28507234938095 480.49656366923074V453.9812139734126H207.99193778485954V445.5008249448993H215.28507234938095V429.5011576444376H225.06578769559962V445.5008249448993H240.9523831423478V453.9812139734126H225.06578769559962V478.57434215610107C225.06578769559962 488.4681293560332 225.5746110373104 491.57760533315474 231.8500989184102 491.57760533315474V491.521069406298ZM269.9553136198632 491.521069406298C272.9517177432713 491.521069406298 279.1706696975143 491.0122460645872 279.1706696975143 491.0122460645872L279.73602896608185 499.04034767824646C279.73602896608185 499.04034767824646 272.555966255274 500.3406739959518 268.76805915587136 500.3406739959518C257.17819415023655 500.3406739959518 253.39028705083393 495.93087170112494 253.39028705083393 480.49656366923074V453.9812139734126H246.09715248631255V445.5008249448993H253.39028705083393V429.5011576444376H263.17100239705263V445.5008249448993H279.0575978438008V453.9812139734126H263.17100239705263V478.57434215610107C263.17100239705263 488.4681293560332 263.6798257387634 491.57760533315474 269.9553136198632 491.57760533315474V491.521069406298ZM329.3745727463129 490.67303050344674 329.6007164537399 498.1923087753952C329.6007164537399 498.1923087753952 317.33242032582405 500.3406739959518 308.23013610188644 500.3406739959518C292.23046880142476 500.3406739959518 286.40726833517897 491.29492569887105 286.40726833517897 472.75114168985533C286.40726833517897 452.6808876557073 295.11380107111927 444.25703455405073 309.3043187121648 444.25703455405073C323.4948363532103 444.25703455405073 331.40986611315606 452.0024565334262 331.40986611315606 469.1893782978798L330.78797091773174 476.36944100868766H296.4141273888246C296.52719924253813 486.4893719160469 299.86281892708666 491.6341412600116 309.64353427330536 491.6341412600116C317.8977795943916 491.6341412600116 329.43110867316966 490.67303050344674 329.43110867316966 490.67303050344674H329.3745727463129ZM321.62915076693747 468.6240190293122C321.62915076693747 456.58186660882336 317.95431552124836 452.511279875137 309.30431871216484 452.511279875137C300.65432190308127 452.511279875137 296.4141273888246 457.0341540236774 296.3010555351112 468.6240190293122H321.62915076693747ZM376.7516794522737 445.4442890180426V449.0060524100181C376.7516794522737 449.0060524100181 385.00592477336 444.2570345540507 392.52520304530844 444.2570345540507C407.3376158817783 444.2570345540507 410.8993792737539 452.22860024085315 410.8993792737539 470.54624054244186V499.09688360510324H401.11866392753524V470.71584832301215C401.11866392753524 458.277944414526 399.5921939024028 453.0201032168478 390.48990967846527 453.0201032168478C383.4794547482276 453.0201032168478 376.8647513059872 456.46879475510985 376.8647513059872 456.46879475510985V499.0968836051033H366.9709641060551V445.3877530911859H376.7516794522737V445.4442890180426ZM458.2764859797147 499.15341953196V495.5916561399845C458.2764859797147 495.5916561399845 450.30492029291224 500.34067399595193 443.0117857283908 500.34067399595193C427.8601573307804 500.34067399595193 424.63760949994537 492.8213957240035 424.63760949994537 473.4861087389932V445.44428901804264H434.5313966998775V473.4861087389932C434.5313966998775 486.82858747718745 435.60557931015586 491.4079975525846 444.70786353409346 491.4079975525846C451.8879262449014 491.4079975525846 458.21995005285794 488.072377868036 458.21995005285794 488.072377868036V445.44428901804264H468.0006653990766V499.15341953196H458.219950052858H458.2764859797147ZM511.6464009324916 444.2570345540507V454.1508217539828C501.63954187884593 456.18611512082606 492.76340136233534 460.70898926936644 492.76340136233534 460.70898926936644V499.1534195319599H482.8696141624032V445.4442890180425H492.65032950862184V452.34167209456666C492.65032950862184 452.34167209456666 501.86568558627295 446.12272014032357 511.6464009324916 444.3135704809074V444.2570345540507ZM554.274489782485 445.4442890180426V449.0060524100181C554.274489782485 449.0060524100181 562.1329836155741 444.2570345540507 569.0869026189549 444.2570345540507C576.0408216223359 444.2570345540507 580.0548724291655 445.8965764328966 582.93820469886 449.62794760544244C582.93820469886 449.62794760544244 592.6058481913651 444.2570345540507 601.7646683421594 444.2570345540507C616.3509374712022 444.2570345540507 620.1388445706049 451.6632409722856 620.1388445706049 470.54624054244186V499.09688360510324H610.2450573706727V470.71584832301215C610.2450573706727 458.277944414526 608.8316591992539 453.0201032168478 600.0685905364568 453.0201032168478C593.1712074599327 453.0201032168478 586.4434321639789 456.46879475510985 586.4434321639789 456.46879475510985C587.0653273594031 458.277944414526 587.5176147742571 465.40147119847717 587.5176147742571 471.1681357378662V499.09688360510324H577.7368994280384V471.3942794452932C577.7368994280384 458.05180070709895 576.3235012566196 453.02010321684776 567.447360740109 453.02010321684776C560.6630495172984 453.02010321684776 554.4440975630554 456.4687947551098 554.4440975630554 456.4687947551098V499.09688360510324H544.5503103631232V445.3877530911858H554.3310257093419L554.274489782485 445.4442890180426ZM644.336221265296 434.8155347689726H634.4424340653638V423.9606368124756H644.336221265296V434.8155347689726ZM634.4424340653638 445.4442890180426H644.336221265296V499.15341953196H634.4424340653638V445.4442890180426ZM678.3708492330626 491.521069406298C681.3672533564707 491.521069406298 687.5862053107137 491.0122460645872 687.5862053107137 491.0122460645872L688.1515645792812 499.04034767824646C688.1515645792812 499.04034767824646 680.9715018684733 500.3406739959518 677.1835947690707 500.3406739959518C665.5937297634359 500.3406739959518 661.8058226640333 495.93087170112494 661.8058226640333 480.49656366923074V453.9812139734126H654.5126880995118V445.5008249448993H661.8058226640333V429.5011576444376H671.586538010252V445.5008249448993H687.4731334570001V453.9812139734126H671.586538010252V478.57434215610107C671.586538010252 488.4681293560332 672.0953613519628 491.57760533315474 678.3708492330626 491.57760533315474V491.521069406298ZM738.2989317012232 500.3406739959518C726.1437074270208 500.3406739959518 718.5113573013588 494.5174735297061 718.5113573013588 472.52499798242826C718.5113573013588 453.41585470484506 725.0695248167424 444.2570345540507 740.8430484097771 444.2570345540507C745.3659225583175 444.2570345540507 752.4329134154119 445.4442890180426 753.6201678794039 445.6704327254696V422.6037745679135H763.4008832256225V499.15341953196H753.6201678794039V495.930871701125C753.6201678794039 495.930871701125 745.5920662657446 500.34067399595193 738.2423957743664 500.34067399595193L738.2989317012232 500.3406739959518ZM739.712329872642 491.40799755258456C746.6097129491661 491.40799755258456 753.6767038062605 488.07237786803597 753.6767038062605 488.07237786803597V454.0377499002694C752.4894493422687 453.8116061928423 746.0443536805986 452.8504954362775 741.5214795320582 452.8504954362775C731.9669078932665 452.8504954362775 728.5182163550045 459.40866295166114 728.5182163550045 472.5249979824284C728.5182163550045 488.072377868036 733.2672342109719 491.4079975525846 739.712329872642 491.4079975525846V491.40799755258456ZM818.8626274720992 490.67303050344674 819.0887711795264 498.1923087753952C819.0887711795264 498.1923087753952 806.8204750516104 500.3406739959518 797.7181908276729 500.3406739959518C781.7185235272111 500.3406739959518 775.8953230609653 491.29492569887105 775.8953230609653 472.75114168985533C775.8953230609653 452.6808876557073 784.6018557969057 444.25703455405073 798.7923734379511 444.25703455405073C812.9828910789967 444.25703455405073 820.8979208389425 452.0024565334262 820.8979208389425 469.1893782978798L820.2760256435181 476.36944100868766H785.902182114611C786.0152539683245 486.4893719160469 789.350873652873 491.6341412600116 799.1315889990917 491.6341412600116C807.385834320178 491.6341412600116 818.919163398956 490.67303050344674 818.919163398956 490.67303050344674H818.8626274720992ZM811.1172054927238 468.6240190293122C811.1172054927238 456.58186660882336 807.4423702470347 452.511279875137 798.7923734379511 452.511279875137C790.1423766288675 452.511279875137 785.9021821146109 457.0341540236774 785.7891102608975 468.6240190293122H811.1172054927238ZM842.6077167519364 445.4442890180426V449.0060524100181C842.6077167519364 449.0060524100181 850.8619620730227 444.2570345540507 858.381240344971 444.2570345540507C873.1936531814409 444.2570345540507 876.7554165734165 452.22860024085315 876.7554165734165 470.54624054244186V499.09688360510324H866.9747012271979V470.71584832301215C866.9747012271979 458.277944414526 865.4482312020655 453.0201032168478 856.345946978128 453.0201032168478C849.3920279747472 453.0201032168478 842.72078860565 456.46879475510985 842.72078860565 456.46879475510985V499.0968836051033H832.8270014057179V445.3877530911859H842.6077167519364V445.4442890180426ZM208.04847371171633 628.0553327653619H197.92854280435714L193.29259680210322 610.5291954397678H163.21548371430944L158.57953771205553 628.0553327653619H148.45960680469636L167.79489378970663 554.0498045098693H188.60011487299252L207.9354018580028 628.0553327653619H208.04847371171633ZM191.20076750840326 601.6530549232572 181.0808366010441 562.643265392096H175.59685169593882L165.42038486172288 601.6530549232572H191.20076750840326ZM250.90270626913673 628.0553327653619V624.4935693733863C250.90270626913673 624.4935693733863 242.93114058233425 629.2425872293537 235.6380060178128 629.2425872293537C220.48637762020246 629.2425872293537 217.26382978936738 621.7233089574054 217.26382978936738 602.3880219723951V574.3462022514445H227.15761698929956V602.3880219723951C227.15761698929956 615.7305007105892 228.23179959957793 620.3099107859865 237.33408382351547 620.3099107859865C244.5141465343234 620.3099107859865 250.84617034228 616.9742911014379 250.84617034228 616.9742911014379V574.3462022514444H260.62688568849865V628.0553327653619H250.84617034228H250.90270626913673ZM273.008253670128 637.270688843013C273.008253670128 631.4474883767672 275.778514086109 628.3380123996457 281.3755708449277 624.0412819585322C279.22720562437104 622.6278837871133 278.0399511603792 619.7445515174188 278.0399511603792 616.4089318328703C278.0399511603792 614.1474947586 281.8278582597818 607.928542804357 281.8278582597818 607.928542804357C277.6441996723819 605.6671057300867 273.79975664612255 601.4834471426869 273.79975664612255 591.7027317964682C273.79975664612255 578.360253058274 282.39321752834934 573.2154837143092 294.5484418025517 573.2154837143092C299.6932111465164 573.2154837143092 305.62948346647573 574.6288818857282 305.62948346647573 574.6288818857282L321.968366328078 574.1765944708742V582.3177679382469L312.41379468928636 581.8654805233929C314.10987249498896 583.7877020365225 315.6363425201214 586.671034306217 315.6363425201214 591.6461958696115C315.6363425201214 605.9497853643707 308.3432079556 610.020372098057 294.26576216826794 610.020372098057C293.1915795579896 610.020372098057 290.4213191420086 609.7942283906299 289.34713653173026 609.568084683203C289.34713653173026 609.568084683203 287.6510587260276 613.7517432706028 287.6510587260276 615.1651414420216C287.6510587260276 619.0095844682811 288.61216948259244 619.688015590562 299.9193548539435 619.8010874442756C316.03209400811875 619.8010874442756 321.40300705951046 623.1367071288241 321.40300705951046 635.6876828910238C321.40300705951046 648.2386586532234 311.84843542071883 653.1007483629044 297.1490944379625 653.1007483629044C280.52753194207645 653.1007483629044 273.1778614506983 649.5389849709288 273.1778614506983 637.2141529161562L273.008253670128 637.270688843013ZM297.09255851110566 645.0161108223884C306.76020200361086 645.0161108223884 311.39614800586475 642.4154581869777 311.39614800586475 636.3095780864481C311.39614800586475 629.2991231562105 308.2866720287432 628.5641561070726 299.0147800242354 628.4510842533591C295.4530166322598 628.4510842533591 287.9337383603114 627.8291890579349 287.9337383603114 627.8291890579349C284.1458312609088 630.8255931813428 282.78896901634664 632.6347428407589 282.78896901634664 636.4226499401616C282.78896901634664 642.6416018944046 286.12458870089523 645.0161108223883 297.0925585111057 645.0161108223883L297.09255851110566 645.0161108223884ZM294.49190587569495 602.388021972395C302.63307934306766 602.388021972395 305.68601939333246 599.2785459952735 305.68601939333246 591.759267723325C305.68601939333246 584.2399894513766 302.68961526992445 581.130513474255 294.49190587569495 581.130513474255C286.859555750033 581.130513474255 283.52393606548446 584.35306130509 283.52393606548446 591.759267723325C283.52393606548446 599.1654741415599 286.85955575003305 602.388021972395 294.49190587569495 602.388021972395ZM371.83305381573604 619.5749437368486 372.05919752316305 627.094222008797C372.05919752316305 627.094222008797 359.79090139524715 629.2425872293537 350.6886171713096 629.2425872293537C334.68894987084786 629.2425872293537 328.86574940460207 620.1968389322728 328.86574940460207 601.6530549232572C328.86574940460207 581.5828008891091 337.57228214054237 573.1589477874525 351.76279978158794 573.1589477874525C365.95331742263346 573.1589477874525 373.8683471825792 580.904369766828 373.8683471825792 598.0912915312815L373.2464519871549 605.2713542420895H338.8726084582478C338.9856803119613 615.3912851494487 342.3212999965098 620.5360544934133 352.1020153427285 620.5360544934133C360.35626066381474 620.5360544934133 371.8895897425928 619.5749437368485 371.8895897425928 619.5749437368485L371.83305381573604 619.5749437368486ZM364.0876318363606 597.525932262714C364.0876318363606 585.4837798422252 360.4127965906715 581.4131931085388 351.76279978158794 581.4131931085388C343.1128029725044 581.4131931085388 338.8726084582478 585.9360672570792 338.7595366045343 597.525932262714H364.08763183636063H364.0876318363606ZM395.5781430955732 574.3462022514444V577.90796564342C395.5781430955732 577.90796564342 403.83238841665946 573.1589477874525 411.3516666886079 573.1589477874525C426.16407952507774 573.1589477874525 429.72584291705334 581.1305134742549 429.72584291705334 599.4481537758437V627.9987968385051H419.9451275708347V599.6177615564139C419.9451275708347 587.1798576479279 418.4186575457023 581.9220164502497 409.31637332176473 581.9220164502497C402.3059183915271 581.9220164502497 395.6912149492867 585.3707079885116 395.6912149492867 585.3707079885116V627.9987968385052H385.79742774935454V574.2896663245878H395.5781430955732V574.3462022514444ZM512.2117602010592 600.3527286055518C512.2117602010592 622.1755963722593 505.8797363931025 629.2425872293537 486.43137755437874 629.2425872293537C480.43856930756266 629.2425872293537 467.6049139110793 627.9422609116483 467.6049139110793 627.9422609116483V551.4491518744585H477.3856292572979V576.6641752525712C477.3856292572979 576.6641752525712 485.2441230903869 573.1024118605957 491.9718983863408 573.1024118605957C506.5581675153836 573.1024118605957 512.1552242742024 580.6216901325441 512.1552242742024 600.296192678695L512.2117602010592 600.3527286055518ZM486.4879134812355 620.3099107859864C499.83039221942977 620.3099107859864 502.26143707427025 614.4301743928838 502.26143707427025 600.3527286055518C502.26143707427025 587.3494654284981 499.26503295086223 581.9785523771063 491.010787629776 581.9785523771063C484.4526201143924 581.9785523771063 477.49870111101154 584.6357409393738 477.49870111101154 584.6357409393738V619.8576233711324C477.49870111101154 619.8576233711324 483.9437967726816 620.3099107859864 486.5444494080923 620.3099107859864H486.4879134812355ZM565.1859236658388 619.5749437368486 565.4120673732658 627.094222008797C565.4120673732658 627.094222008797 553.14377124535 629.2425872293537 544.0414870214124 629.2425872293537C528.0418197209507 629.2425872293537 522.2186192547049 620.1968389322728 522.2186192547049 601.6530549232572C522.2186192547049 581.5828008891091 530.9251519906452 573.1589477874525 545.1156696316907 573.1589477874525C559.3061872727362 573.1589477874525 567.2212170326819 580.904369766828 567.2212170326819 598.0912915312815L566.5993218372577 605.2713542420895H532.2254783083505C532.338550162064 615.3912851494487 535.6741698466126 620.5360544934133 545.4548851928313 620.5360544934133C553.7091305139174 620.5360544934133 565.2424595926956 619.5749437368485 565.2424595926956 619.5749437368485L565.1859236658388 619.5749437368486ZM557.4405016864633 597.525932262714C557.4405016864633 585.4837798422252 553.7656664407742 581.4131931085388 545.1156696316906 581.4131931085388C536.4656728226071 581.4131931085388 532.2254783083505 585.9360672570792 532.1124064546369 597.525932262714H557.4405016864633ZM607.9270843695457 573.1589477874525V583.0527349873847C597.9202253159001 585.0880283542278 589.0440847993895 589.6109025027682 589.0440847993895 589.6109025027682V628.0553327653618H579.1502975994573V574.3462022514443H588.931012945676V581.2435853279685C588.931012945676 581.2435853279685 598.146369023327 575.0246333737255 607.9270843695457 573.2154837143092V573.1589477874525ZM616.6336171054859 602.388021972395V574.3462022514444H626.527404305418V602.388021972395C626.527404305418 615.7305007105892 627.6015869156964 620.3099107859864 636.703871139634 620.3099107859864C643.8839338504418 620.3099107859864 650.2159576583985 616.9742911014378 650.2159576583985 616.9742911014378V574.3462022514443H659.9966730046172V628.0553327653618H650.2159576583985V624.4935693733862C650.2159576583985 624.4935693733862 642.244391971596 629.2425872293537 634.9512574070745 629.2425872293537C619.7996290094642 629.2425872293537 616.5770811786291 621.7233089574053 616.5770811786291 602.388021972395H616.6336171054859ZM632.6332844059477 551.1664722401747H623.1917846208696V562.1344420503852H632.6332844059477V551.1664722401747ZM645.1277242412906 562.1344420503854H654.6822958800822V551.1664722401748H645.1277242412906V562.1344420503854ZM684.759408967876 551.4491518744586V577.2295345211389C684.759408967876 577.2295345211389 693.0136542889622 573.1589477874526 700.4198607071971 573.1589477874526C715.232273543667 573.1589477874526 718.7940369356426 581.130513474255 718.7940369356426 599.4481537758438V627.9987968385052H708.9002497357104V599.617761556414C708.9002497357104 587.1798576479279 707.3737797105781 581.9220164502497 698.384567340354 581.9220164502497C691.6002561175433 581.9220164502497 684.759408967876 584.6922768662307 684.759408967876 584.6922768662307V627.9987968385052H674.8656217679438V551.4491518744586H684.759408967876ZM761.87441320049 573.1589477874525V583.0527349873847C751.8675541468444 585.0880283542278 742.9914136303338 589.6109025027682 742.9914136303338 589.6109025027682V628.0553327653618H733.0976264304016V574.3462022514443H742.8783417766203V581.2435853279685C742.8783417766203 581.2435853279685 752.0936978542713 575.0246333737255 761.87441320049 573.2154837143092V573.1589477874525ZM810.83452585844 619.5749437368486 811.0606695658671 627.094222008797C811.0606695658671 627.094222008797 798.7923734379511 629.2425872293537 789.6900892140136 629.2425872293537C773.6904219135519 629.2425872293537 767.8672214473061 620.1968389322728 767.8672214473061 601.6530549232572C767.8672214473061 581.5828008891091 776.5737541832465 573.1589477874525 790.764271824292 573.1589477874525C804.9547894653374 573.1589477874525 812.8698192252832 580.904369766828 812.8698192252832 598.0912915312815L812.2479240298588 605.2713542420895H777.8740805009518C777.9871523546652 615.3912851494487 781.3227720392138 620.5360544934133 791.1034873854325 620.5360544934133C799.3577327065187 620.5360544934133 810.8910617852968 619.5749437368485 810.8910617852968 619.5749437368485L810.83452585844 619.5749437368486ZM803.1456398059213 597.525932262714C803.1456398059213 585.4837798422252 799.4708045602322 581.4131931085388 790.8208077511487 581.4131931085388C782.1708109420651 581.4131931085388 777.9306164278084 585.9360672570792 777.817544574095 597.525932262714H803.1456398059213ZM834.5796151382772 574.3462022514444V577.90796564342C834.5796151382772 577.90796564342 842.8338604593634 573.1589477874525 850.3531387313118 573.1589477874525C865.1655515677817 573.1589477874525 868.7273149597572 581.1305134742549 868.7273149597572 599.4481537758437V627.9987968385051H858.9465996135386V599.6177615564139C858.9465996135386 587.1798576479279 857.4201295884062 581.9220164502497 848.3178453644687 581.9220164502497C841.3639263610878 581.9220164502497 834.6926869919907 585.3707079885116 834.6926869919907 585.3707079885116V627.9987968385052H824.7988997920586V574.2896663245878H834.5796151382772V574.3462022514444ZM115.55569737406483 756.9572459987637H108.88445800496771V682.3298225478468H136.19131067678046C152.1909779772422 682.3298225478468 159.37104068805007 690.0752445272223 159.37104068805007 705.9618399739704C159.37104068805007 721.8484354207186 152.1909779772422 731.007255571513 136.19131067678046 731.007255571513H115.55569737406483V757.0137819256204V756.9572459987637ZM136.19131067678046 725.0709832515537C147.7811756824153 725.0709832515537 152.53019353838272 718.1170642481728 152.53019353838272 705.9618399739705C152.53019353838272 693.8066156997681 147.7811756824153 688.2660948678061 136.19131067678046 688.2660948678061H115.55569737406483V725.1275191784105H136.19131067678046V725.0709832515537ZM178.31057618506307 679.3899543512956V756.9572459987637H171.9785523771065V679.3899543512956H178.31057618506307ZM233.82885635839665 751.2471173862314 234.05500006582366 756.5049585839097C234.05500006582366 756.5049585839097 221.89977579162132 758.031428609042 213.53245861682154 758.031428609042C197.5327913163598 757.9183567553285 192.6707016066789 748.2507132628233 192.6707016066789 730.3288244492319C192.6707016066789 709.5801392928028 201.71644990375972 702.1739328745679 214.77624900767017 702.1739328745679C228.62755108757517 702.1739328745679 235.9206856520966 709.5801392928028 235.9206856520966 727.6150999601076L235.6945419446696 732.7598693040724H199.17233319520574C199.17233319520574 745.4239169199855 202.8471684408948 752.2082281427961 214.09781788538908 752.2082281427961C221.95631171847805 752.2082281427961 233.77232043153992 751.2471173862313 233.77232043153992 751.2471173862313L233.82885635839665 751.2471173862314ZM229.53212591728328 727.4454921795375C229.53212591728328 712.9722949042081 224.89617991502934 707.7709896333866 214.8327849345269 707.7709896333866C204.76938995402446 707.7709896333866 199.28540504891924 713.1419026847784 199.28540504891924 727.4454921795375H229.58866184414H229.53212591728328ZM293.1350436311329 752.7735874113638 292.7958280699923 757.9183567553285C287.5379868723141 757.9183567553285 283.5804719923412 756.8441741450501 280.64060379578996 753.6216263142151C280.64060379578996 753.6216263142151 270.5206728884308 758.031428609042 260.45727790792836 758.031428609042C251.01577812285024 758.031428609042 245.75793692517198 752.5474437039368 245.75793692517198 741.8056176011532C245.75793692517198 731.9118304012211 250.67656256170972 727.2193484721104 261.5314605182067 726.1451658618321L279.7925648929386 724.336016202416V719.3043187121648C279.7925648929386 711.163145244792 276.1177296472495 707.9971333408137 269.27688249758216 707.9971333408137C261.5314605182067 707.9971333408137 248.98048475600706 709.6366752196597 248.98048475600706 709.6366752196597L248.64126919486654 704.4919058756949C248.64126919486654 704.4919058756949 260.45727790792836 702.2304688014246 269.5030262050092 702.2304688014246C281.2059630643575 702.2304688014246 286.1245887008952 707.940597413957 286.1245887008952 719.3043187121648V748.0811054822532C286.46380426203575 751.3036533130881 289.57328023915727 752.3778359233665 293.0785077042761 752.8301233382206L293.1350436311329 752.7735874113638ZM261.3053168107797 752.5474437039368C270.01184954672 752.5474437039368 279.7925648929386 748.8160725313909 279.7925648929386 748.8160725313909V729.3677136926672L262.2664275673445 731.1768633520833C255.0863648565366 731.7987585475075 252.37264036741237 735.2474500857696 252.37264036741237 741.6925457474398C252.37264036741237 748.5899288239639 255.3690444908204 752.5474437039368 261.3053168107797 752.5474437039368ZM319.0284981315267 708.1102051945272C312.3572587624296 708.1102051945272 306.36445051561356 709.9193548539433 306.36445051561356 717.2124894184648C306.36445051561356 722.8095461772836 309.02163907788105 724.3925521292726 320.7811118640861 726.3713095692591C334.51934209027763 728.6327466435293 339.66411143424233 731.1203274252266 339.66411143424233 741.409866113156C339.66411143424233 753.9608418753556 331.80561760115336 758.0879645358988 318.9154262778132 758.0879645358988C312.3572587624296 758.0879645358988 300.54125004936776 756.1657430227691 300.54125004936776 756.1657430227691L300.9935374642218 750.4556144102368C300.9935374642218 750.4556144102368 313.0356898847107 752.2647640696529 318.5196747898159 752.2647640696529C327.735030867467 752.2647640696529 333.1059439188587 750.1163988490962 333.1059439188587 741.7490816742965C333.1059439188587 735.3039860126264 329.8833960880237 733.8905878412074 317.8412436675348 732.0814381817913C305.51641161276217 730.1592166686617 299.80628300022994 727.8977795943915 299.80628300022994 717.4951690527486C299.80628300022994 705.7922321934002 309.4739264927351 702.3435406551381 318.80235442409963 702.3435406551381C326.8304560377589 702.3435406551381 337.7984258479694 704.1526903145542 337.7984258479694 704.1526903145542L337.57228214054237 709.8628189270866C337.57228214054237 709.8628189270866 326.09548898862107 708.1667411213839 318.9719622046699 708.1667411213839L319.0284981315267 708.1102051945272ZM391.3944845081733 751.2471173862314 391.62062821560033 756.5049585839097C391.62062821560033 756.5049585839097 379.465403941398 758.031428609042 371.0980867665982 758.031428609042C355.0984194661365 757.9183567553285 350.2363297564556 748.2507132628233 350.2363297564556 730.3288244492319C350.2363297564556 709.5801392928028 359.2820780535364 702.1739328745679 372.34187715744685 702.1739328745679C386.19317923735184 702.1739328745679 393.4863138018733 709.5801392928028 393.4863138018733 727.6150999601076L393.26017009444627 732.7598693040724H356.7379613449824C356.7379613449824 745.4239169199855 360.4127965906715 752.2082281427961 371.6634460351658 752.2082281427961C379.5219398682548 752.2082281427961 391.3379485813166 751.2471173862313 391.3379485813166 751.2471173862313L391.3944845081733 751.2471173862314ZM387.09775406705995 727.4454921795375C387.09775406705995 712.9722949042081 382.461808064806 707.7709896333866 372.39841308430357 707.7709896333866C362.33501810380113 707.7709896333866 356.8510331986959 713.1419026847784 356.8510331986959 727.4454921795375H387.1542899939167H387.09775406705995ZM448.2130909992123 752.3212999965098C451.2094951226203 752.3212999965098 458.10687819914443 751.586332947372 458.10687819914443 751.586332947372L458.55916561399846 757.0703178524773C458.55916561399846 757.0703178524773 451.4921747569041 758.1445004627556 447.7042676575015 758.1445004627556C437.0755134084315 758.1445004627556 433.23107038217216 754.1869855827827 433.23107038217216 738.6961416240318V708.9582440973785H425.2595046953697V703.2481154848463H433.23107038217216V686.4004092815331H439.6761660438422V703.2481154848463H457.5980548574336V708.9582440973785H439.6761660438422V735.4735937931968C439.6761660438422 748.9291443851045 440.52420494669354 752.3212999965098 448.26962692606907 752.3212999965098H448.2130909992123ZM510.402610541643 729.3677136926672C510.402610541643 749.6641114342423 505.8797363931026 758.031428609042 487.95784757951117 758.031428609042C470.0359587659198 758.031428609042 465.4000127636659 749.6641114342422 465.4000127636659 729.3677136926672C465.4000127636659 710.3716422687975 471.2797491567685 702.1739328745679 487.95784757951117 702.1739328745679C504.6359460022539 702.1739328745679 510.402610541643 710.3151063419407 510.402610541643 729.3677136926672ZM487.95784757951117 752.3212999965098C501.8091496594162 752.3212999965098 503.8444430262594 745.7631324811261 503.8444430262594 729.3111777658105C503.8444430262594 712.8592230504947 500.1696077805703 707.8275255602435 487.95784757951117 707.8275255602435C475.7460873784521 707.8275255602435 472.071252132763 713.1984386116353 472.071252132763 729.3111777658105C472.071252132763 745.4239169199857 473.99347364589266 752.3212999965098 487.95784757951117 752.3212999965098ZM564.5640284704144 756.9572459987637H558.2320046624578V752.9997311187908C558.2320046624578 752.9997311187908 549.9777593413717 758.031428609042 541.6669780934286 758.031428609042C526.7414934032452 758.031428609042 523.7450892798372 751.3601892399448 523.7450892798372 731.2899352057967V703.2481154848463H530.0771130877938V731.1768633520833C530.0771130877938 747.176530652545 531.7166549666397 752.2082281427962 542.4584810694231 752.2082281427962C550.9388700979364 752.2082281427962 558.2320046624578 747.6853539942558 558.2320046624578 747.6853539942558V703.1915795579895H564.5640284704144V756.9007100719069V756.9572459987637ZM614.5983237386428 703.5873310459867 614.2591081775022 709.0713159510921C614.2591081775022 709.0713159510921 605.7787191489889 707.9971333408137 601.7081324153025 707.9971333408137C588.8179410919624 707.9971333408137 585.0865699194165 713.707261953346 585.0865699194165 729.1415699852402C585.0865699194165 745.9892761885532 587.6872225548273 752.2082281427962 601.7081324153025 752.2082281427962C605.7787191489889 752.2082281427962 614.4852518849292 751.2471173862314 614.4852518849292 751.2471173862314L614.7113955923563 756.7311022913366C614.7113955923563 756.7311022913366 605.1568239535648 758.031428609042 600.5208779513108 758.031428609042C583.1078124794302 758.031428609042 578.4153305503195 750.2860066296665 578.4153305503195 729.1415699852402C578.4153305503195 709.4670674390893 584.6342825045625 702.1739328745679 600.6339498050244 702.1739328745679C605.2698958072782 702.1739328745679 614.5983237386429 703.5873310459867 614.5983237386429 703.5873310459867H614.5983237386428ZM627.2058354276992 679.3899543512956H633.5378592356558V706.3575914619678C633.5378592356558 706.3575914619678 642.5836075327366 702.1739328745679 650.9509247075364 702.1739328745679C665.6502656902927 702.1739328745679 668.8728135211278 709.0713159510921 668.8728135211278 728.6892825703861V756.9572459987637H662.4277178594576V729.0284981315266C662.4277178594576 713.2549745384919 660.7316400537551 707.9971333408137 650.0463498778283 707.9971333408137C641.6790327030285 707.9971333408137 633.5378592356558 711.6719685865028 633.5378592356558 711.6719685865028V757.0137819256205H627.2058354276992V679.4464902781524V679.3899543512956ZM721.9035129127641 751.3601892399449H723.4299829378965L737.394356871515 704.3222980951246H744.1786680943256L758.1430420279441 751.3601892399448H759.78258390679L771.598592619852 703.2481154848462H778.1567601352355L764.7577454701845 756.9572459987636H753.563631952547L740.8995843366338 712.6896152699243L728.1224648670071 756.9572459987636H717.0414232030831L703.5858726111754 703.2481154848462H710.144040126559L721.9600488396209 751.3601892399448L721.9035129127641 751.3601892399449ZM789.6900892140135 681.7644632792793H796.0221130219701V689.7925648929386H789.6900892140135V681.7644632792793ZM796.0221130219701 703.2481154848463V756.9572459987637H789.6900892140135V703.2481154848463H796.0221130219701ZM830.0002050628799 752.3212999965098C832.996609186288 752.3212999965098 839.893992262812 751.586332947372 839.893992262812 751.586332947372L840.3462796776662 757.0703178524773C840.3462796776662 757.0703178524773 833.2792888205718 758.1445004627556 829.4913817211693 758.1445004627556C818.8626274720993 758.1445004627556 815.0181844458399 754.1869855827827 815.0181844458399 738.6961416240318V708.9582440973785H807.0466187590375V703.2481154848463H815.0181844458399V686.4004092815331H821.4632801075101V703.2481154848463H839.3851689211015V708.9582440973785H821.4632801075101V735.4735937931968C821.4632801075101 748.9291443851045 822.3113190103614 752.3212999965098 830.0567409897368 752.3212999965098H830.0002050628799ZM849.4485639016037 679.3899543512956H855.7805877095603V706.3575914619678C855.7805877095603 706.3575914619678 864.8263360066411 702.1739328745679 873.1936531814409 702.1739328745679C887.8929941641973 702.1739328745679 891.1155419950323 709.0713159510921 891.1155419950323 728.6892825703861V756.9572459987637H884.6704463333623V729.0284981315266C884.6704463333623 713.2549745384919 882.9743685276595 707.9971333408137 872.2890783517329 707.9971333408137C863.9217611769332 707.9971333408137 855.7805877095605 711.6719685865028 855.7805877095605 711.6719685865028V757.0137819256205H849.4485639016038V679.4464902781524L849.4485639016037 679.3899543512956ZM212.967099348254 880.2621024733468H216.81154237451335L231.22820372298594 832.1500287182481H237.7863712383695L214.6066412270999 910.0H208.16154556542983L215.3416082762377 885.8591592321656H207.9354018580028L192.1618782649681 832.1500287182481H198.7200457803517L213.0236352751108 880.2621024733468H212.967099348254ZM290.3082472882951 858.2696269260689C290.3082472882951 878.566024667644 285.7853731397547 886.9333418424437 267.8634843261633 886.9333418424437C249.9415955125719 886.9333418424437 245.30564951031795 878.566024667644 245.30564951031795 858.2696269260689C245.30564951031795 839.2735555021991 251.18538590342052 831.0758461079696 267.8634843261633 831.0758461079696C284.5415827489061 831.0758461079696 290.3082472882951 839.2170195753423 290.3082472882951 858.2696269260689ZM267.8634843261633 881.2232132299115C281.7147864060683 881.2232132299115 283.7500797729115 874.6650457145279 283.7500797729115 858.2130909992121C283.7500797729115 841.7611362838965 280.07524452722237 836.7294387936452 267.8634843261633 836.7294387936452C255.65172412510418 836.7294387936452 251.97688887941507 842.1003518450368 251.97688887941507 858.2130909992121C251.97688887941507 874.3258301533875 253.89911039254474 881.2232132299115 267.8634843261633 881.2232132299115ZM344.46966521706656 885.8591592321656H338.13764140910996V881.9016443521928C338.13764140910996 881.9016443521928 329.88339608802374 886.9333418424438 321.5726148400807 886.9333418424438C306.64713014989735 886.9333418424438 303.65072602648934 880.2621024733468 303.65072602648934 860.1918484391987V832.1500287182481H309.9827498344459V860.0787765854851C309.9827498344459 876.078443885947 311.62229171329176 881.110141376198 322.36411781607524 881.110141376198C330.8445068445885 881.110141376198 338.13764140910996 876.5872672276575 338.13764140910996 876.5872672276575V832.0934927913912H344.4696652170665V885.8026233053087L344.46966521706656 885.8591592321656ZM366.91442817919835 832.1500287182481V839.8954506976236C366.91442817919835 839.8954506976236 376.2428561105629 833.1111394748131 387.2108259207734 831.0758461079698V837.5209417696398C376.92128723284395 839.6693069901964 366.9144281791983 845.5490433832989 366.9144281791983 845.5490433832989V885.8026233053087H360.58240437124175V832.0934927913912H366.9144281791983L366.91442817919835 832.1500287182481ZM459.4072045168498 880.1490306196331 459.6333482242768 885.4068718173114C459.6333482242768 885.4068718173114 447.47812395007446 886.9333418424438 439.1108067752747 886.9333418424438C423.11113947481294 886.8202699887303 418.24904976513204 877.1526264962253 418.24904976513204 859.2307376826338C418.24904976513204 838.4820525262047 427.29479806221286 831.0758461079698 440.3545971661233 831.0758461079698C454.20589924602837 831.0758461079698 461.49903381054975 838.4820525262047 461.49903381054975 856.5170131935096L461.27289010312273 861.6617825374743H424.7506813536589C424.7506813536589 874.3258301533875 428.42551659934793 881.110141376198 439.6761660438422 881.110141376198C447.5346598769312 881.110141376198 459.350668589993 880.1490306196333 459.350668589993 880.1490306196333L459.4072045168498 880.1490306196331ZM455.1104740757364 856.3474054129393C455.1104740757364 841.87420813761 450.4745280734825 836.6729028667886 440.41113309298004 836.6729028667886C430.34773811247766 836.6729028667886 424.8637532073724 842.0438159181803 424.8637532073724 856.3474054129393H455.16701000259314H455.1104740757364ZM489.48431760464354 880.2621024733468H493.32876063090293L507.7454219793755 832.1500287182481H514.3035894947591L491.12385948348947 910.0H484.6787638218194L491.8588265326273 885.8591592321656H484.45262011439235L468.6790965213576 832.1500287182481H475.2372640367412L489.54085353150026 880.2621024733468H489.48431760464354ZM562.8679506647119 880.1490306196331 563.0940943721389 885.4068718173114C563.0940943721389 885.4068718173114 550.9388700979365 886.9333418424438 542.5715529231368 886.9333418424438C526.571885622675 886.8202699887303 521.7097959129941 877.1526264962253 521.7097959129941 859.2307376826338C521.7097959129941 838.4820525262047 530.755544210075 831.0758461079698 543.8153433139854 831.0758461079698C557.6666453938905 831.0758461079698 564.9597799584118 838.4820525262047 564.9597799584118 856.5170131935096L564.7336362509848 861.6617825374743H528.2114275015209C528.2114275015209 874.3258301533875 531.88626274721 881.110141376198 543.1369121917043 881.110141376198C550.9954060247933 881.110141376198 562.8114147378551 880.1490306196333 562.8114147378551 880.1490306196333L562.8679506647119 880.1490306196331ZM558.5146842967417 856.3474054129393C558.5146842967417 841.87420813761 553.8787382944878 836.6729028667886 543.8153433139854 836.6729028667886C533.7519483334829 836.6729028667886 528.2679634283777 842.0438159181803 528.2679634283777 856.3474054129393H558.5712202235985H558.5146842967417ZM594.4149978507812 837.012118427929C587.743758481684 837.012118427929 581.7509502348681 838.8212680873451 581.7509502348681 846.1144026518666C581.7509502348681 851.7114594106854 584.4081387971356 853.2944653626746 596.1676115833407 855.273222802661C609.9058418095321 857.5346598769312 615.0506111534969 860.0222406586284 615.0506111534969 870.3117793465578C615.0506111534969 882.8627551087575 607.1921173204079 886.9898777693006 594.3019259970678 886.9898777693006C587.7437584816842 886.9898777693006 575.9277497686223 885.0676562561708 575.9277497686223 885.0676562561708L576.3800371834764 879.3575276436386C576.3800371834764 879.3575276436386 588.4221896039652 881.1666773030548 593.9061745090704 881.1666773030548C603.1215305867215 881.1666773030548 608.4924436381132 879.0183120824981 608.4924436381132 870.6509949076982C608.4924436381132 864.2058992460283 605.2698958072782 862.7925010746094 593.2277433867893 860.983351415193C580.9029113320166 859.0611299020634 575.1927827194844 856.7996928277931 575.1927827194844 846.3970822861502C575.1927827194844 834.6941454268019 584.8604262119895 831.2454538885397 594.1888541433542 831.2454538885397C602.2169557570134 831.2454538885397 613.1849255672239 833.0546035479558 613.1849255672239 833.0546035479558L612.9587818597968 838.764732160488C612.9587818597968 838.764732160488 601.4819887078755 837.0686543547854 594.3584619239243 837.0686543547854L594.4149978507812 837.012118427929ZM694.4270524603811 858.2696269260689C694.4270524603811 878.566024667644 689.9041783118407 886.9333418424437 671.9822894982493 886.9333418424437C654.0604006846579 886.9333418424437 649.424454682404 878.566024667644 649.424454682404 858.2696269260689C649.424454682404 839.2735555021991 655.3041910755065 831.0758461079696 671.9822894982493 831.0758461079696C688.660387920992 831.0758461079696 694.4270524603811 839.2170195753423 694.4270524603811 858.2696269260689ZM671.9822894982493 881.2232132299115C685.8335915781544 881.2232132299115 687.8688849449975 874.6650457145279 687.8688849449975 858.2130909992121C687.8688849449975 841.7611362838965 684.1940496993084 836.7294387936452 671.9822894982493 836.7294387936452C659.7705292971901 836.7294387936452 656.095694051501 842.1003518450368 656.095694051501 858.2130909992121C656.095694051501 874.3258301533875 658.0179155646308 881.2232132299115 671.9822894982493 881.2232132299115ZM708.2783545402862 832.1500287182481H714.6103783482428V836.1075435982209C714.6103783482428 836.1075435982209 723.6561266453235 831.0758461079698 732.1365156738368 831.0758461079698C746.8358566565931 831.0758461079698 750.0584044874282 837.9732291844939 750.0584044874282 857.591195803788V885.8591592321656H743.613308825758V857.9304113649284C743.613308825758 842.1568877718938 741.9172310200555 836.8990465742156 731.175404917272 836.8990465742156C722.8080877424721 836.8990465742156 714.6103783482426 841.421920722756 714.6103783482426 841.421920722756V885.9156951590224H708.278354540286V832.206564645105L708.2783545402862 832.1500287182481ZM772.50316744956 808.2918675846973V885.8591592321656H766.1711436416034V808.2918675846975H772.50316744956V808.2918675846973ZM804.9547894653374 880.2621024733468H808.7992324915969L823.2158938400694 832.1500287182481H829.774061355453L806.5943313441834 910.0H800.1492356825133L807.3292983933212 885.8591592321656H799.9230919750862L784.1495683820515 832.1500287182481H790.7077358974351L805.0113253921942 880.2621024733468H804.9547894653374ZM361.99580254266067 126.97741303394066 357.2467846866932 118.27088029800038C357.2467846866932 118.27088029800038 438.6019834335639 72.53331547088543 527.2503167449561 97.40912328785771C607.2486532472647 119.85388624998951 650.329029512112 197.59078567802788 650.329029512112 197.59078567802788L640.2656345316096 203.41398614427368C640.2656345316096 203.41398614427368 587.9699021891112 130.53917642591622 525.2150233781128 112.27807205118431C445.7820461443718 89.09834203991468 361.9392666158039 127.0339489607974 361.9392666158039 127.0339489607974M495.0248384366056 308.0619867561275C418.64480125312934 308.0619867561275 380.48305062481955 240.89730565030231 380.48305062481955 240.89730565030231C380.48305062481955 240.89730565030231 385.91049960306805 232.4734525486458 396.313110144711 221.90123422643262C405.3023225149351 239.37083562516995 430.8565614541884 276.45840364320134 478.57288372128977 266.847296077553C525.7238467198237 257.3492603656181 537.5963913597421 215.00385114990848 530.9816879175019 188.31889367352002C577.1715401594709 207.82378843910055 603.5738180015755 251.07377248451826 603.5738180015755 251.07377248451826C603.5738180015755 251.07377248451826 546.642139656823 308.06198675612745 495.02483843660553 308.06198675612745M491.7457546789138 167.28752888280712C408.07258293091616 165.76105885767473 367.14057188662537 238.0705093074646 367.14057188662537 238.0705093074646L367.31017966719565 244.91135645713194C367.31017966719565 244.91135645713194 413.83924747030517 321.347929567465 491.7457546789138 321.4610014211785C552.1261245619283 321.5175373480352 615.3332907877806 256.0489340479127 615.3332907877806 256.0489340479127V247.45547316568593C615.3332907877806 247.45547316568593 571.5744834006522 168.75746298108274 491.7457546789138 167.2875288828071" fill="#000000"/>
</svg>
