<?xml version="1.0" encoding="UTF-8"?>
<!-- source: lockers.svg -->
<svg xmlns="http://www.w3.org/2000/svg" viewBox="0 0 1000 1000" width="1000" height="1000">
  <path d="M90.23236950459125 505.692275887214C91.41432077410059 586.4026625765663 161.82484640058578 658.6705401979947 243.21063381537203 657.1508885657684C320.54401687755467 658.8393903793533 388.92834032773817 592.987819649547 395.6823475820772 518.6937398518168L649.9707207079446 516.1609871314397L654.1919752419064 633.5118631755815H676.311348999867L680.5326035338289 515.8232867687227L733.8892608431079 515.3167362246472L738.2793655584285 653.098484213165H760.3987393163891L764.7888440317095 514.9790358619302L818.1455013409884 514.4724853178549L822.3667558749503 617.8087963092432H844.4861296329109L848.7073841668728 514.1347849551379L910.0000000000002 513.459384229704V486.44335521234757L395.34464721936035 481.3778497715933C388.7594901463797 404.38216707212746 316.49161252495117 338.02404579824577 236.79432692374985 343.08955123900006C153.5511875140204 345.1157534153018 85.50456442655388 423.4622375656354 90.23236950459125 505.692275887214ZM126.02860795258846 500.12021990238424C124.50895632036213 438.152203343823 176.34596199741475 380.5742915005821 238.31397855597606 378.2103889615634C306.52945182480096 372.80718315809213 365.9647156629851 434.0997989912195 364.2762138494003 500.2890700837428C364.2762138494003 500.2890700837428 364.2762138494003 500.62677044645966 364.2762138494003 500.62677044645966V500.2890700837428C365.9647156629851 563.1013375490965 310.075305633329 624.3939533822238 244.22373490352277 622.1989010245636C244.22373490352277 622.1989010245636 243.5483341780889 622.1989010245636 244.22373490352277 622.1989010245636C180.06066598730138 623.043151931356 124.50895632036224 564.2832888186058 126.02860795258846 500.12021990238424Z" fill="#000000"/>
</svg>
