<?xml version="1.0" encoding="UTF-8"?>
<!-- source: no-bags.svg -->
<svg xmlns="http://www.w3.org/2000/svg" viewBox="0 0 1000 1000" width="1000" height="1000">
  <path d="M901.6146393972012 393.8669040705762 910.0 419.46432064754066C644.3164693218514 511.70328727832646 367.7466810190169 601.7355800662706 98.3853606027987 683.5296238409387C96.32579834947973 677.2038254914589 92.20667384284172 664.2580056134539 90.0 657.9322072639741C355.8306422676713 565.5461290436656 632.4004305705059 475.6609478452443 901.614639397201 393.8669040705762M389.3720846788663 294.5665811426968C395.9921062073917 263.5260357533893 402.75923932543964 227.92503108887547 429.09221385001814 207.9178549137768C449.3936132041625 193.50091914054394 473.9612486544674 191.58846847674775 500.0000000000003 191.1471337081794C525.0089702188736 191.44135688722497 548.3997129529962 193.50091914054397 568.4068891280949 206.00540424998064C571.790455687119 208.35918968234517 575.6153570147114 211.15430988327807 578.4104772156443 214.24365326325653C608.7154646573379 248.07931885349694 610.7750269106568 298.83281723885756 618.8661643344099 341.9365129690334C550.1650520272697 341.9365129690334 450.12917115177635 341.7894013795106 381.42805884463604 341.49517820046503C383.9289558665234 325.7542381215271 386.4298528884107 310.01329804258916 389.3720846788663 294.5665811426968M279.6268388948692 576.7266098473972C288.4535342662363 573.7843780569415 297.57445281664894 570.695034676963 306.69537136706157 567.6056912969846L322.4363114459995 368.7108222621801C433.7997847147473 368.2694874936118 566.9357732328672 367.9752643145662 678.2992465016148 368.122375904089C680.3588087549338 393.71979248105345 682.4183710082527 419.3172090580179 684.4779332615717 444.7675140454596C691.2450663796199 442.70795179214065 703.6024398995337 438.73593887502545 710.5166846071045 436.52926503218373C708.16289917474 408.8722862019003 705.9562253318982 381.3624189611396 703.6024398995337 353.7054401308561L690.509508432006 341.64228978998784H645.1991388589884C628.8697524219592 244.69575229447292 622.6910656620023 159.37103037125797 500.00000000000017 160.84214626648583C377.75026910656635 159.0768071922124 370.54180121994995 244.25441752590456 354.9479727305348 341.2009550214194H309.63760315751716C309.63760315751716 341.2009550214194 295.8091137423755 353.7054401308561 295.8091137423755 353.7054401308561L276.390383925368 577.7563909740567L279.6268388948692 576.5794982578744V576.7266098473972ZM731.2594187298171 675.4384864171855C730.9651955507716 672.2020314476842 715.9598134194473 499.34591375841256 716.1069250089702 502.2881455488683C707.4273412271259 505.2303773393239 698.600645855759 508.17260912977963 689.7739504843919 511.11484092023534C689.9210620739148 513.0272915840314 690.0681736634374 515.0868538373505 690.2152852529603 516.9993045011468L702.8668819519196 677.7922718495499C703.6024398995335 698.8292291513083 710.3695730175816 731.635113614889 700.9544312881235 751.495178200465C689.038392536778 784.889509022137 655.0556153570146 806.2206895029408 620.0430570505921 805.1909083762812C580.0287047003949 807.1033590400775 540.0143523501974 807.986028577214 499.8528884104773 807.6918053981685C453.8069608898457 806.9562474505547 407.4668101901687 806.9562474505547 361.56799425905996 802.8371229439167C321.84786508790813 796.6584361839598 291.3957660566918 757.9680881394675 294.6322210261931 717.8066241997474C296.25044851094384 697.7994480246487 299.3397918909223 657.3437609058831 300.9580193756729 637.1894731412615C294.92644420523874 639.1019238050577 276.39038392536787 644.986387385969 270.0645855758882 646.8988380497651C268.4463580911375 663.0811128972715 265.7983494797274 699.1234523303535 264.1801219949768 715.7470619464282C259.1783279512021 771.208131196518 301.10513096519566 825.050972961857 355.9777538571943 834.0247799227468C376.72048797990686 837.1141233027254 397.75744528166496 836.8199001236796 418.6472909939004 837.9967928398621C489.7021887334052 840.3505782722266 560.9041980624329 839.1736855560443 631.9590958019376 834.7603378703609C691.3921779691427 831.3767713113368 739.9390025116613 775.0330325241105 734.4958736993183 715.894173535951C734.4958736993183 715.894173535951 730.9651955507716 675.4384864171855 730.9651955507716 675.4384864171855H731.2594187298171Z" fill="#000000"/>
</svg>
