<?xml version="1.0" encoding="UTF-8"?>
<!-- source: nursing.svg -->
<svg xmlns="http://www.w3.org/2000/svg" viewBox="0 0 1000 1000" width="1000" height="1000">
  <path d="M322.63588312229047 544.3324875173938C321.8304480727692 555.3400998608496 321.2934913730886 566.3477122043055 321.2934913730886 577.6238028976016C321.2934913730886 645.2803470573789 336.86523566383096 707.2988458705082 362.639157248508 755.6249488417777C403.17938807440635 746.4966849472046 467.3457136862586 700.0499304248177 510.03377131088007 658.9727428992386C430.56417975812576 627.8292543177538 364.51850569739065 584.872718343292 322.63588312229047 544.3324875173937V544.3324875173938ZM394.5880808795142 802.0717033641646C424.1206993619568 835.8999754440532 460.3652765904088 856.0358516820822 499.8315940169456 856.0358516820822C570.1729216751268 856.0358516820822 631.3859854387348 791.8695260702299 660.3816472214968 698.9760170254563C628.1642452406503 694.4118850781696 596.7522783093253 687.4314479823196 566.6827031272018 678.3031840877464C525.3370372517824 723.139068511091 452.57940444503777 780.3249570270933 394.5880808795142 802.0717033641646ZM499.83159401694536 331.6976344438078C624.4055483428848 327.670459196202 624.4055483428848 146.984529753622 499.83159401694536 142.9573545060162C375.25763969100615 146.98452975362198 375.25763969100615 327.670459196202 499.83159401694536 331.6976344438078ZM499.83159401694536 498.6911680445281C437.54461685397575 498.6911680445281 376.06307474052744 470.23246296144714 341.4293676111175 450.63354342309896C338.7445841127136 458.6878939183105 336.3282789641502 466.7422444135221 334.180452165427 475.0650732585741C367.4717675456351 527.6868298272898 502.5163775153493 623.5336007203077 672.7316513141542 646.3542604567405C683.73926365761 581.3824997953669 678.101218310962 505.94008349021846 656.6229503237308 445.53245477613154C624.9425050425654 468.6215928624048 570.1729216751265 498.69116804452807 499.83159401694513 498.69116804452807L499.83159401694536 498.6911680445281ZM691.7936141528215 389.42047965949087 647.7631647789982 382.4400425636408C557.0174825329476 470.50094131128753 439.9609220025392 454.92919702054513 343.5771944098407 388.34656626012935L303.3054419337826 399.6226569534256C221.41954523246488 572.2542359007939 279.1423904481479 897.6499959073421 500.10007236678587 909.9999999999999C724.8164511831891 896.8445608578211 780.6599479499895 561.7835802570188 692.062092502662 389.4204796594909L691.7936141528215 389.42047965949087ZM362.639157248508 755.6249488417777C336.86523566383096 707.2988458705081 321.2934913730886 645.2803470573789 321.2934913730886 577.6238028976016C321.2934913730886 566.3477122043054 321.8304480727694 555.3400998608496 322.63588312229047 544.3324875173938C364.51850569739065 584.8727183432921 430.56417975812553 627.5607759679135 510.03377131088007 658.9727428992387C467.3457136862586 700.0499304248178 403.1793880744066 746.4966849472047 362.639157248508 755.6249488417778V755.6249488417777ZM499.83159401694536 856.0358516820822C460.3652765904086 856.0358516820822 424.12069936195655 835.8999754440532 394.588080879514 802.0717033641646C452.57940444503754 780.5934353769337 525.0685589019416 723.1390685110911 566.6827031272018 678.3031840877466C596.7522783093249 687.1629696324793 628.1642452406501 694.1434067283294 660.3816472214966 698.9760170254563C631.3859854387348 791.86952607023 570.441400024967 856.0358516820822 499.8315940169456 856.0358516820822H499.83159401694536ZM672.7316513141544 646.0857821069002C502.5163775153493 623.2651223704672 367.4717675456351 527.6868298272898 334.18045216542725 474.79659490873377C336.3282789641502 466.47376606368175 338.7445841127138 458.15093721862985 341.42936761111775 450.3650650732586C376.33155309036795 469.9639846116068 437.544616853976 498.42268969468773 499.8315940169456 498.42268969468773C569.9044433252865 498.42268969468773 624.9425050425656 468.35311451256445 656.6229503237313 445.2639764262912C678.101218310962 505.4031267905378 683.7392636576102 581.1140214455266 672.7316513141546 646.0857821069002H672.7316513141544ZM499.83159401694536 385.6617827617254C581.7174907182631 385.6617827617254 648.300121478679 319.07915200130964 648.300121478679 237.1932552999918C641.319684382829 40.93558156666941 358.61198200090223 40.93558156666941 351.631544905052 237.1932552999918C351.631544905052 319.07915200130964 418.2141756654679 385.6617827617254 500.10007236678587 385.6617827617254H499.83159401694536ZM499.83159401694536 142.9573545060162C624.4055483428848 146.984529753622 624.4055483428848 327.670459196202 499.83159401694536 331.6976344438078C375.25763969100615 327.670459196202 375.25763969100615 146.984529753622 499.83159401694536 142.9573545060162Z" fill="#000000"/>
</svg>
