<?xml version="1.0" encoding="UTF-8"?>
<!-- source: organic.svg -->
<svg xmlns="http://www.w3.org/2000/svg" viewBox="0 0 1000 1000" width="1000" height="1000">
  <path d="M763.1366323641499 752.1135906477075C770.1847197159782 759.297218140917 770.8624204228847 771.089210441091 765.8474351917762 779.4926992067325C756.2240851537031 800.7725014035984 744.9742534190542 821.1035226107952 730.7425385740165 839.8080621214161C651.1804755831866 943.225189995357 595.6090176168489 877.6237615668022 494.49607214639036 887.3826517462566C458.9845551044866 887.7892721704005 429.16572400059806 905.6805708327337 393.65420695869443 909.8823152155543C370.0702223583462 911.1021764879861 346.89285818214194 902.6986877223447 327.375077823233 891.1777757049332C277.22522551214774 860.1390833286129 243.3401901668198 812.2934134210099 213.9279794870752 763.227882240975C209.99731538701715 756.4508751719094 212.30149779049947 747.6407659821242 219.07850485956504 743.7101018820662C312.6012024126701 720.2616574230993 341.8778729510334 605.4591576731283 327.375077823233 520.068868602902C302.5712319504531 452.56987819500876 226.80429291829984 420.71794497040054 164.99798844842172 393.3388364113755C156.5944996827804 390.49249344236796 152.1216750171971 381.14022368705747 155.6457186931112 372.8722750627974C180.0429441417473 306.99976635148 240.76492748057493 254.54573163691236 310.4325601505691 242.61819919535694C378.7447914067502 229.606345622751 448.4124240767444 240.7206372160186 511.709670101817 267.82866549228095C511.709670101817 267.82866549228095 497.3424151153979 268.5063661991875 497.3424151153979 268.5063661991875C603.1992655342024 205.48020045687755 775.7418655126121 205.20912017411493 840.2589728101163 326.51754671038884C849.0690819999016 340.47818127266396 847.3070601619446 359.99596163157287 831.9910241858564 368.6705306799768C814.5063459476671 377.61618001114334 800.1390909612481 386.5618293423099 785.0941352679225 397.13396037005225C631.5271550828965 504.75283262681376 649.2829136038482 621.1818140733604 763.13663236415 752.3846709304702L763.1366323641499 752.1135906477075ZM745.7874942673421 768.2428674720835C583.1393246097682 603.6971358351711 620.9550240551541 451.6210972053395 818.3014699063439 345.35762636239116C818.7080903304878 345.08654607962853 818.8436304718691 344.2733052313407 818.5725501891066 343.86668480719675C814.0997255235233 334.5144150518862 808.9492001510334 325.43322557933834 802.3077332233491 317.436357237841C732.0979399878297 233.94363014695298 600.3529225651948 246.00670272988972 512.9295313742487 295.8854747582124C508.4567067086655 298.4607374444573 503.035101053413 298.4607374444573 498.5622763878297 296.563175465119C416.6960309935174 261.7293591301219 308.1283777470868 251.0216879609983 235.61440210808505 310.930430451538C212.57257807326206 330.0415903863029 195.90114068336072 356.06529753151483 184.24468852456795 384.25764693882763L174.89241876925743 363.7910855902495C196.98546181441125 370.7036328006964 216.90986259746404 379.7848222732443 236.83426338051686 390.3569533009866C286.4419551260769 417.6005217186303 339.5736905475511 453.65419932605914 357.329449068503 511.2587594131166C374.81412730669217 610.3386027628554 339.8447708303138 742.0836201854904 228.8373950390195 770.4115097341845C228.8373950390195 770.4115097341845 239.0029056426179 748.9961673959373 239.0029056426179 749.1317075373187C269.9060578775569 805.2453260691816 335.77856658887447 901.8854468740569 409.105783076164 880.6056446771909C461.01765722520634 857.2927403596053 522.5528814123219 849.9735727250145 578.259879520041 864.4763678528149C604.2835866652529 870.3045939322112 627.5964909828384 880.0634841116656 652.9424974211437 871.524455204643C695.5021018148756 857.8349009251306 723.6944512221884 814.3265155417296 741.9923703086654 774.6132541170052C741.9923703086654 774.6132541170052 745.2453337018169 767.565166765177 745.2453337018169 767.565166765177C745.2453337018169 767.8362470479397 745.2453337018169 768.2428674720835 745.5164139845796 768.6494878962275L745.7874942673421 768.2428674720835ZM581.9194633373363 116.15924728659314C550.7452308196347 121.85193322460825 530.2786694710566 143.26727556285547 523.7727426847536 174.03488765641322C516.8601954743067 204.26033918444574 519.2999180191704 238.0098343883923 523.0950419778471 271.6237894509576L485.95704323936764 274.8767528441091C483.92394111864803 238.55199495391756 482.70407984621613 201.68507649820077 493.0051305911959 165.6313988907719C501.6796996395998 127.1379987384794 537.7333772470287 93.65958381729541 577.446638671753 90.0C577.446638671753 90.0 581.9194633373363 116.15924728659314 581.9194633373363 116.15924728659314Z" fill="#000000"/>
</svg>
