<?xml version="1.0" encoding="UTF-8"?>
<!-- source: paper.svg -->
<svg xmlns="http://www.w3.org/2000/svg" viewBox="0 0 1000 1000" width="1000" height="1000">
  <path d="M910.0 549.2675432052852C908.113170170718 516.6523418705544 888.5710040817264 490.77581849754506 873.6111390067053 464.2254273283635C832.2356563217371 397.7820626257923 790.1863058405968 332.55165995633104 752.449709254958 264.7605596614156C733.0423167252009 230.9323962935751 715.3869804654912 196.4303651295625 693.2841167510456 163.00652243942528C682.0979113345885 146.96846889052878 669.0248760888493 128.50449127541265 646.382918137466 120.55285128058163C602.0424171493405 104.11047705398187 570.7749514069541 151.68554346373364 538.2945236314579 168.1279176903334C476.56823350209163 197.1042329257346 446.3789562335806 118.93556856976853 386.26994881502736 111.65779637110963C345.5683339262312 106.67117467943592 271.57764990653226 96.56315773685411 255.9439170353391 148.45097804210744C249.07046551438344 179.98799090296274 241.5231461972557 213.41183359309994 233.57150620242464 244.67929933548638C213.22069875802657 255.19163695577146 193.54375910980065 266.1082952537598 174.4059136985124 279.4508776179678C164.2978967559306 286.9981969350956 154.05510625411432 294.1411955745201 144.89050422617348 307.0794572610248C136.6693171128736 320.8263603029361 135.72590219823263 334.9775840225507 135.0520344020605 347.5115250313521C132.49133677660643 394.81704432263496 140.5777503306719 446.30054395018504 140.5777503306719 491.71923341218604C137.88227914598343 517.3262096667266 125.48311169641639 525.8169438984953 101.49341815268888 538.6204320257657C73.32574427269421 561.6667106548523 103.38024798197081 596.7078360558025 122.92241407096233 612.6111160454647C160.1199164196634 645.091543820961 198.53038080147434 673.39399126019 235.86265670940986 704.526683443342C261.2000858454816 727.8425091908973 297.04985260183844 741.3198651143398 307.56219022212355 776.2262169560557C316.4572451315956 799.9463633813143 310.79675564374975 820.9710386218845 316.99633936853326 847.1171091133629C343.54673053771484 920.0296046591862 442.7400701342511 887.818724002159 495.436531794911 869.2199728278084C544.6288809154759 855.742616904366 580.8829683495359 810.0543803238961 602.4467378270438 767.735482724287C614.0372639212043 749.2715051091708 630.3448645885696 737.276658337307 651.0999927106709 732.0204895271645C717.812904531711 759.6490691702214 786.6821933005018 753.449485445438 791.9383621106442 666.9248604169376C793.0165505845196 650.0781655126345 791.9383621106442 633.5010177268005 789.2428909259557 617.0586435002006C833.3138447956125 610.185191979245 907.4393023745457 599.403307240491 909.8652264407655 549.1327696460507L910.0 549.2675432052852ZM880.0802698499577 566.2490116688226C852.182143088432 586.3302719947519 809.8632454888227 592.2603086010665 775.2264407655757 597.1121567335058C725.6297709673075 600.7510428328353 672.7985357474132 603.0421933398204 624.1452808637861 591.5864408048944C623.8757337453172 591.1821201271912 623.8757337453172 590.2387052125501 623.8757337453172 589.6996109756125C635.7358069579466 489.15853578673193 646.2481445782315 386.7306307685695 635.4662598394776 285.2461406650481L621.9889039160353 286.3243291389235C630.2100910293351 385.24812161699083 619.69775340905 483.36327273965173 605.2769825709667 581.3436503030782C604.6031147747946 589.564837416378 602.5815113862781 601.6944577474762 612.4199812103911 607.8940414722597C661.8818774494248 625.1450570542661 715.5217540247256 621.5061709549366 767.2748007707446 620.9670767179989C781.965118727297 707.8960224242026 749.0803702740973 749.5410522276396 657.5691235539233 712.6130969974074C611.6113398549846 690.6450068421962 566.0578768337492 664.3641627914835 516.8655277131844 648.7304299202902C513.4961887323237 647.9217885648836 509.85730263299433 647.6522414464149 505.4097751782583 649.6738448349312C501.50134196046 651.4259011049787 499.6145121311781 655.6038814412458 498.53632365730266 658.5688997444032C488.96740095165853 700.0791559886059 488.42830671472086 741.8589593512773 482.09394943070293 783.6387627139488L494.49311688027 786.0646867801685C504.1968131451485 748.1933166352952 506.892284329837 708.3003431019057 516.4612070354812 670.8332936347357C550.6936910810249 682.8281404065995 589.2389290220701 703.5832685287008 623.8757337453172 720.5647369922383C619.4282062905812 722.8558874992235 615.3849995135485 725.1470380062087 612.4199812103911 727.3034149539594C581.2872890272391 748.732410872233 570.1010836107819 790.37744067567 545.7070693893511 814.7714548971009C513.7657358507926 846.9823355541282 463.62997181558677 858.8424087667576 419.9633386236333 866.2549545246509C397.59092779071887 869.2199728278082 373.3316871285225 869.6242935055114 356.8893129019228 860.3249179183363C336.1341847798214 848.8691653834102 338.56010884604103 829.4617728536531 336.80805257599354 806.8198149022699C334.2473549505395 780.9432915292604 325.62184715953634 754.6624474785477 305.9449075113104 734.5811871526184C247.45318280357026 690.914553960665 190.03964656970555 645.9001851763674 135.4563550797637 598.5946658850844C124.53969678177535 588.0823282647992 99.74136188264129 567.057653024229 113.08394424684928 553.8498442192555C174.54068725774675 529.4558299978247 160.3894635381322 471.7727466454911 157.42444523497488 419.88492634023777C158.36786014961586 387.4044985647415 151.09008795095693 348.1853928275241 163.7588025189928 318.8047569144196C184.2443835226253 294.8150633706921 218.2073204497002 278.3726891440923 246.77931500739817 263.1432769506024C262.95214211552906 256.40459898888116 281.41611973064516 246.70090272400262 298.1280410757138 239.2883569661093C316.1876980131267 231.4714905305127 354.3286152764687 212.6031922376933 374.27510204316354 206.13406139444095C387.34813728890265 220.9591529102276 388.69587288124694 243.33156374314203 390.71747626976327 263.54759762830565C393.0086267767485 335.112357581785 375.2185169578045 407.08143821296756 354.8677095134064 475.68117986328946L369.6928010291931 480.937348673432C394.89545660603045 392.93021449335293 432.0929589547315 295.6237047260986 398.39956914612543 205.05587292056555C394.0868152506239 197.10423292573452 386.809043051965 184.70506547616748 375.7576111947422 184.9746125946363C370.77098950306845 185.37893327233962 369.8275745884275 186.32234818698055 365.64959425216034 187.5353102200904C332.495298680492 199.93447766965744 292.19800446939917 219.8809644363522 257.5611997461521 234.97560307060775C261.334859404716 212.06409800075562 265.9171604186864 188.61349869396582 270.09514075495355 166.24108786105137C279.2597427828944 115.56622958890786 345.7031074854656 126.21334076842737 382.0919684787602 131.73905669703876C423.8717718414317 138.34296109952555 443.5487114896576 169.7452004011464 481.55485519376526 186.86144242391828C502.3099833158666 194.13921462257719 525.4910355041875 193.46534682640507 545.302748711648 184.30074479846422C579.5352327571917 169.610426841912 601.2337757939339 125.80902009072409 640.1833344126825 137.93864042182227C655.277973046938 142.92526211349596 667.1380462595674 158.01990074775148 677.3808367613836 173.6536336189447C736.1421085875926 273.2512938931842 792.6122299068163 377.97034941833186 855.686255628527 475.14208562635173C868.7592908742661 498.45791137390717 886.2798535747413 523.1214727138067 888.3014569632577 549.1327696460507C888.3014569632577 556.2757682854751 885.6059857785691 560.99284285868 879.6759491722545 566.2490116688226H880.0802698499577ZM487.88921247778325 577.4352170852799C458.64335012391325 619.0802468887169 433.0363738693726 670.6985200755015 387.4829108481372 699.4052881924339C380.6094593271815 703.5832685287011 363.7627644228785 706.2787397133895 356.61976578345406 695.2273078561667C351.36359697331153 689.0277241313833 343.8162776561838 675.8199153264096 339.5035237606822 668.6769166869851C323.46547021178566 641.1831106031626 304.0580776820286 604.2551553729304 290.85026887705504 580.4002353884373C281.68566684911417 582.2870652177193 269.42127295878157 587.0041397909241 260.3914444900751 587.9475547055652C257.4264261869178 588.3518753832684 253.24844585065068 588.217101824034 249.87910686979006 587.2736869093931C247.1836356851016 586.8693662316898 242.06224043419343 580.1306882699685 242.60133467113116 577.1656699668113C242.1970139934279 514.7655120412728 250.28342754749337 451.28716564185896 244.62293805964754 389.5608755124926L255.40482279840148 387.6740456832107C264.0303305894046 447.3787324240606 260.660991608544 507.8920605203171 262.27827431935714 567.3272001426982C268.61263160337506 565.9794645503539 277.3729129536126 563.0144462471966 281.41611973064533 561.8014842140868C288.6938919293043 560.7232957402115 293.8152871802124 556.2757682854755 302.84511564891886 563.1492198064311C324.5436586856611 592.7994028380044 349.88108782173293 652.0997689011512 371.57963085847524 682.4238197288965C371.8491779769441 682.8281404065999 372.2534986546474 683.502008202772 372.2534986546474 683.502008202772C373.33168712852273 683.502008202772 376.4314789909145 683.232461084303 379.12695017560304 681.61517837349C420.23288574210244 656.0082021189494 447.05282402975286 610.7242862161829 477.3768748574983 571.6399540381999L487.6196653593146 576.8961228483424L487.88921247778325 577.4352170852799ZM554.8716714172921 279.58565117720224C557.5671426019805 291.7152715083005 549.7502761663839 302.36238268781995 544.2245602377725 312.0660789526985C530.6124307550957 333.7646219894408 513.0918680546206 353.4415616376667 496.1103995910831 371.635992134314L486.0023826485013 364.4929934948895C499.21019145347486 339.4251114772866 522.3912436417959 304.3839860763363 531.1515249920334 286.3243291389234C528.3212802481105 279.9899718549055 506.892284329837 269.34286067538596 498.2667765388339 264.6257861021811C484.1155528192193 257.3480139035222 469.15568774419825 251.14843017873872 453.79150199147387 245.08362001318963L457.83470876850663 229.8542078196997C488.2935331554865 234.43650883367013 518.2132633055287 245.08362001318963 543.415918882366 263.54759762830577C547.4591256593986 266.78216304993197 552.7152944695412 271.7687847416056 555.0064449765264 279.58565117720224H554.8716714172921Z" fill="#000000"/>
</svg>
