<?xml version="1.0" encoding="UTF-8"?>
<!-- source: wardrobe.svg -->
<svg xmlns="http://www.w3.org/2000/svg" viewBox="0 0 1000 1000" width="1000" height="1000">
  <path d="M909.2285914017922 688.5153206402322C886.6303470833382 593.8537861062634 782.6784232184496 561.0863318445051 704.0867513109371 525.0546867367478C657.3837130527987 504.59072104837 562.2199953117533 462.4073316539225 515.8935944589225 441.6922743620063L551.2975105578338 379.42155668448845C558.7047128622161 365.9881558951852 567.995102193136 352.0525718988052 568.9994686072895 336.23380087588737C574.3979380833646 294.6781404902857 536.9852891561462 255.50785033829874 495.05299136523706 259.3997701931436C448.3499531070986 261.659594624989 416.33577365595545 314.01219396274087 437.30192255141003 356.3211291589576L456.00824701501915 348.4117436474987C453.3717851778662 341.75781615373165 452.4929645654819 334.35061384934954 452.8696019707894 327.19450314850576C454.2506057902506 302.46198019997547 477.85321652285813 281.3702855027517 502.83683107492675 284.13229314167387C536.4831059490695 286.1410259699809 556.3193426286012 326.06459093258303 537.8641097685305 354.1868505288814C522.5475219526894 382.9368391340257 505.59883871384886 413.0678315586311 489.4034302856235 441.31563695669865L494.80189976169856 457.6365911866933C585.9481518461299 500.0710721846792 702.4546558879374 548.9083890728938 791.7177209458309 594.2304235115711C829.8836446836646 614.066660191103 864.5342859719606 641.0590075714786 878.9720531754174 682.4891221553111C880.1019653913402 685.75331300131 881.7340608143396 688.8919580455397 882.3617898231855 692.4072404950771C883.6172478408773 700.1910802047666 879.0975989771865 708.6026489233025 872.0670340781121 711.8668397693014C869.6816638444975 712.996751985224 867.1707478091137 713.6244809940699 864.4087401701915 713.6244809940699H741.7504918416938C558.2025296551393 713.2478435887624 315.64804063706583 714.1266642011467 132.97889906289555 714.1266642011467C120.675410489515 713.2478435887624 112.13829596921016 699.1867137906132 117.16012803997774 687.8875916313862C124.31623874082152 668.0513549518544 134.61099448589502 649.5961220917835 149.8020364999669 634.7817174830192C181.81621595111014 604.3996334548754 223.49742213848094 586.1954921983429 262.6677122904679 566.2337097170418C311.6305749804517 542.3800073808959 409.9329377657267 493.9193278979889 458.7702546539414 469.81453395830465L449.8565027283289 451.23375529646466C400.5170026330376 474.45972862376465 301.4613650371473 521.162766881903 252.24741074362512 544.6398318127414C190.85551367849166 574.3941868320392 118.29004025590032 605.5295456707981 94.4363379197544 675.4585572562364C79.87302491452844 706.4683702932261 102.97345244005925 741.7467405903683 137.37300212481708 740.2401909691381C237.80964354016842 740.4912825726765 421.2320599249538 740.6168283744457 523.3007967633044 740.867919977984C523.3007967633044 740.867919977984 741.8760376434628 740.867919977984 741.8760376434628 740.867919977984H851.1008851826574C851.1008851826574 740.867919977984 865.0364691790375 740.867919977984 865.0364691790375 740.867919977984C891.7777249558746 740.867919977984 914.1248776707904 714.6288474082235 909.3541372035612 688.2642290366938" fill="#000000"/>
</svg>
