<?xml version="1.0" encoding="UTF-8"?>
<!-- source: wc-gents.svg -->
<svg xmlns="http://www.w3.org/2000/svg" viewBox="0 0 1000 1000" width="1000" height="1000">
  <path d="M343.6063814001514 907.3383508879951C352.65598838096804 795.149840816989 361.7055953617847 664.9951992399498 369.4243777865988 552.4074418021428L386.19276719222967 537.5022067749155C396.4401162734485 537.3691243193152 406.9536302658678 534.7074752073104 416.93481443588615 532.3119910065059L404.95739343186415 546.8179786669326C407.7521249994693 483.6038122568164 405.3566407986649 419.8573160242993 397.50477591825046 357.0423969809839C396.30703381784826 345.46422334376257 393.6453847058434 331.0913181389362 386.99126192583117 322.7071234361208C382.2002935242224 316.05300065610857 374.21534618820766 312.3266918993017 365.8311514853923 310.7297024320988C355.18455503737266 307.80188840889343 345.86878314535556 303.94249719648633 337.4845884425402 295.4252200380706C321.1154464037101 279.1891604548408 323.64401306011473 253.5042465239936 331.36279548492894 234.20729046195817C338.28308317614164 215.04341685552293 347.86501997935926 195.34721342668672 341.2108971993471 175.65100999785054C334.0244445969338 146.77211713259746 285.8485956696453 147.17136449939818 279.72680271203404 175.25176263104981C268.94712380841423 209.72011863151317 302.7500675308763 240.19600096396917 294.2327903724607 275.462851698034C291.4380588048556 289.4365095360597 278.9283079784326 301.8131779068824 266.2854746964093 306.73722876409147C254.97346597038856 311.52819716570025 241.3990554991636 311.7943620769007 233.81335552994966 322.7071234361208C227.02615029433719 331.0913181389362 224.3645011823323 345.73038825496315 223.16675908193008 357.1754794365841C215.31489420151567 419.85731602429934 213.0524924563115 483.869977168017 215.98030647951688 546.9510611225329L204.00288547549488 532.4450734621062C213.98406964551322 534.8405576629107 224.49758363793254 537.5022067749155 234.7449327191514 537.6352892305158L251.51332212478218 552.5405242577431C258.96593963839587 665.660611517951 267.4832167968116 794.8836759057886 276.2666588664277 907.4714333435954L249.51708529077854 909.8669175443998C239.0035712983592 797.0129951953925 228.75622221714036 667.5237658963545 219.70661523632373 554.2705961805464L236.47500464195457 569.1758312077736C222.76751171512936 569.4419961189742 209.1931012439044 566.1149347289681 196.0179381394802 563.0540382501624L184.0405171354582 548.5480505897358C181.91119784585428 487.99553329162444 184.30668204665866 428.10842827151436 190.9608048266709 367.82207588460363C193.6224539386758 330.69207077213537 203.60363810869416 290.23500426966103 246.05694144517216 281.5846446556451C266.8178045188103 277.59217098763776 268.6809588972137 265.215502616815 262.293001028402 247.24937111078202C260.96217647239956 243.52306235397518 258.83285718279564 237.53435185196415 257.368950171193 233.94112555075756C235.27726254155235 187.2291836350717 250.18249756877975 122.81727512455333 311.0011797780915 124.28118213615602C347.59885506815874 123.34960494695432 374.3484286438079 155.42247674661326 373.15068654340575 190.8224099362783C373.15068654340575 210.11936599831375 365.5649865741918 227.5531676819458 359.5762760721808 244.32155708757662C354.9183901261722 256.4320605471989 350.79283400256463 273.5996973196304 366.3634813077932 278.78991308803995C376.6108303890121 282.3831393892466 387.12434438143146 283.8470464008493 396.44011627344855 290.36808672526126C423.0566073934974 307.40264104209257 426.9159986059045 340.00784266415246 429.8438126291099 368.08824079580404C436.63101786472237 428.10842827151436 438.8934196099265 488.2616982028249 436.49793540912214 548.681133045336L424.52051440510013 563.1871207057627C411.34535130067593 566.2480171845682 397.770940829451 569.7081610301747 384.0634479026258 569.3089136633739L400.83183730825664 554.4036786361465C392.1814776942407 667.257600985154 382.06721106862216 797.5453250177934 371.95294444300356 910.0000000000001L343.2071340333507 907.4714333435954L343.6063814001514 907.3383508879951ZM816.7145110590209 266.6794096284177 815.9160163254194 246.45087637718052C759.7552200621162 253.50424652399346 723.5567921388497 262.42077104920986 726.6176886176552 181.50663804426117C723.68987459445 99.12859802770976 760.5537147957177 108.84361728652762 815.9160163254194 116.03006988894083L816.7145110590209 96.06770154890414C746.0477271352911 82.22712616647871 698.670372941604 85.02185773408384 701.7312694204095 181.50663804426117C699.0696203084046 275.46285169803383 744.7169025792884 280.6530674664434 816.7145110590209 266.6794096284177M516.6135736804694 248.4471132111842 488.93242291561853 92.74064015889803H463.5136738959718L498.91360708563684 269.6072236516231H540.0360858661124L571.8427927545708 123.34960494695429L603.9156645542298 269.6072236516231H645.0381433347054L680.17191161317 92.74064015889803H655.0193275047238L627.3381767398729 248.58019566678445H620.9502188710612L585.9495330481968 93.67221734809974H557.736052460945L523.1346140048813 248.4471132111842H516.7466561360695H516.6135736804694Z" fill="#000000"/>
</svg>
