<svg xmlns="http://www.w3.org/2000/svg" width="3202" height="661"><rect width="3202" height="661" fill="#fff"/><text x="70" y="58" font-family="Helvetica,Arial" font-size="23" fill="#23272b">Mediävalziffern – Entwurf (mechanische Skizze, NICHT eingebaut)</text><text x="70" y="82" font-family="Helvetica,Arial" font-size="15" fill="#737a80">Ranging: 0 1 2 auf x-Höhe · 6 8 steigen · 3 4 5 7 9 hängen ab. Formen ungezeichnet – nur zum Ansehen.</text><line x1="60" y1="260.0" x2="3162" y2="260.0" stroke="#efeae0" stroke-width="1"/><line x1="60" y1="160.0" x2="3162" y2="160.0" stroke="#efeae0" stroke-width="1"/><path d="M123.796 152.64C96.054 152.64 78.4 164.79999999999998 78.4 208.64C78.4 241.92 90.428 261.6 123.99000000000001 261.6C157.94 261.6 169.38600000000002 241.6 169.38600000000002 208.48C169.38600000000002 164.79999999999998 152.31400000000002 152.64 123.796 152.64ZM123.99000000000001 164.15999999999997C143.584 164.15999999999997 153.09 174.71999999999997 153.09 208.64C153.09 233.12 148.046 250.07999999999998 123.99000000000001 250.07999999999998C99.546 250.07999999999998 94.696 231.51999999999998 94.696 208.79999999999998C94.696 174.39999999999998 104.59 164.15999999999997 123.99000000000001 164.15999999999997Z" fill="#23272b"/><path d="M186.186 176.79999999999998 193.752 187.04 225.18 169.76V260.0H241.28199999999998V154.23999999999998H226.538Z" fill="#23272b"/><path d="M340.144 260.0V248.48H276.51200000000006L310.26800000000003 220.79999999999998C326.564 207.68 337.04 197.76 337.04 181.12C337.04 160.64 321.326 152.64 297.076 152.64C280.004 152.64 258.858 157.11999999999998 258.858 157.11999999999998L260.02200000000005 167.51999999999998C260.02200000000005 167.51999999999998 281.55600000000004 164.15999999999997 294.74800000000005 164.15999999999997C311.432 164.15999999999997 320.55 169.11999999999998 320.55 182.56C320.55 194.71999999999997 312.014 202.72 295.136 217.28L258.08200000000005 249.12V260.0Z" fill="#23272b"/><path d="M359.85400000000004 194.88C359.85400000000004 194.88 378.86600000000004 192.15999999999997 395.35600000000005 192.15999999999997C413.398 192.15999999999997 420.38200000000006 197.11999999999998 420.38200000000006 209.76C420.38200000000006 220.64 407.966 227.67999999999998 398.266 227.83999999999997L373.24 228.48V239.04H398.46000000000004C412.42800000000005 239.51999999999998 423.48600000000005 244.16 423.48600000000005 258.08C423.48600000000005 271.36 414.17400000000004 278.08 396.908 278.08C377.314 278.08 358.884 275.36 358.884 275.36L356.944 285.44C356.944 285.44 379.64200000000005 289.6 398.65400000000005 289.6C426.00800000000004 289.6 439.78200000000004 279.04 439.78200000000004 257.6C439.78200000000004 240.79999999999998 431.24600000000004 235.83999999999997 418.442 231.83999999999997C430.66400000000004 227.04 436.87200000000007 220.0 436.87200000000007 208.32C436.87200000000007 189.44 424.84400000000005 180.64 396.13200000000006 180.64C379.44800000000004 180.64 358.884 184.95999999999998 358.884 184.95999999999998Z" fill="#23272b"/><path d="M516.14 288.32H532.048V268.32H547.1800000000001V256.96H532.048V223.04H516.14V256.96H472.49L511.29 182.23999999999998H494.218L456.582 258.4V268.32H516.14Z" fill="#23272b"/><path d="M569.994 182.23999999999998 565.92 237.6 576.978 239.51999999999998C576.978 239.51999999999998 591.528 233.27999999999997 606.272 233.27999999999997C621.016 233.27999999999997 632.0740000000001 238.23999999999998 632.0740000000001 253.76C632.0740000000001 269.44 620.628 277.92 604.526 277.92C586.29 277.92 565.726 274.4 565.726 274.4L563.98 284.48C563.98 284.48 587.454 289.44 605.302 289.44C631.104 289.44 648.564 277.76 648.564 253.12C648.564 229.76 631.88 221.76 608.6 221.76C595.02 221.76 579.5 228.0 579.5 228.0L582.992 193.92H643.326V182.23999999999998Z" fill="#23272b"/><path d="M749.7540000000001 129.79999999999998C749.7540000000001 129.79999999999998 729.19 125.79999999999998 714.8340000000001 125.79999999999998C686.1220000000001 125.79999999999998 665.3640000000001 143.39999999999998 665.3640000000001 198.6C665.3640000000001 239.2 680.4960000000001 262.0 711.7300000000001 262.0C739.0840000000001 262.0 754.9920000000001 247.2 754.9920000000001 217.8C754.9920000000001 189.8 738.8900000000001 177.39999999999998 712.7000000000002 177.39999999999998C699.5080000000002 177.39999999999998 681.6600000000001 185.6 681.6600000000001 185.6C683.4060000000001 154.39999999999998 694.2700000000001 140.2 714.8340000000001 140.2C729.9660000000001 140.2 748.0080000000002 143.39999999999998 748.0080000000002 143.39999999999998ZM711.3420000000001 191.8C728.6080000000001 191.8 738.6960000000001 200.0 738.6960000000001 217.8C738.6960000000001 237.6 728.8020000000001 247.6 711.7300000000001 247.6C691.5540000000001 247.6 681.6600000000001 229.2 681.6600000000001 202.0C681.6600000000001 201.0 681.6600000000001 199.8 681.8540000000002 199.0C681.8540000000002 199.0 697.7620000000001 191.8 711.3420000000001 191.8Z" fill="#23272b"/><path d="M771.7920000000001 193.76H833.4840000000002V199.51999999999998L786.5360000000001 286.24L801.2800000000001 290.24L849.5860000000001 200.48V182.23999999999998H771.7920000000001Z" fill="#23272b"/><path d="M913.5280000000001 125.79999999999998C886.5620000000001 125.79999999999998 868.5200000000001 137.39999999999998 868.5200000000001 160.2C868.5200000000001 176.39999999999998 874.9220000000001 184.0 888.1140000000001 191.2C876.0860000000001 197.8 866.3860000000001 206.0 866.3860000000001 225.4C866.3860000000001 253.0 887.5320000000002 262.2 913.5280000000001 262.2C940.1060000000001 262.2 961.2520000000002 252.2 961.2520000000002 223.2C961.2520000000002 205.4 951.9400000000002 196.8 938.5540000000001 191.2C952.9100000000001 184.0 959.3120000000001 177.2 959.3120000000001 160.39999999999998C959.3120000000001 137.2 940.4940000000001 125.79999999999998 913.5280000000001 125.79999999999998ZM913.5280000000001 247.8C895.8740000000001 247.8 882.6820000000001 241.0 882.6820000000001 223.4C882.6820000000001 209.4 890.8300000000002 202.8 903.4400000000002 199.0H922.8400000000001C935.0620000000001 202.8 944.9560000000001 207.8 944.9560000000001 222.4C944.9560000000001 241.0 931.9580000000001 247.8 913.5280000000001 247.8ZM913.7220000000001 140.2C931.7640000000001 140.2 943.0160000000001 147.2 943.0160000000001 162.39999999999998C943.0160000000001 174.0 935.2560000000001 180.6 922.8400000000001 185.0H903.4400000000002C891.4120000000001 180.6 884.8160000000001 173.8 884.8160000000001 162.2C884.8160000000001 147.0 895.8740000000001 140.2 913.7220000000001 140.2Z" fill="#23272b"/><path d="M982.7080000000001 286.24C982.7080000000001 286.24 1003.4660000000001 289.6 1017.8220000000001 289.6C1047.698 289.6 1067.486 276.48 1067.486 235.35999999999999C1067.486 199.67999999999998 1051.9660000000001 180.64 1021.8960000000001 180.64C996.8700000000001 180.64 978.052 193.27999999999997 978.052 215.2C978.052 237.6 994.3480000000001 248.32 1019.374 248.32C1031.79 248.32 1050.996 242.72 1050.996 242.72C1050.8020000000001 266.08 1039.162 277.44 1017.8220000000001 277.44C1002.69 277.44 984.4540000000001 274.71999999999997 984.4540000000001 274.71999999999997ZM1020.5380000000001 236.48C1004.436 236.48 994.7360000000001 229.6 994.7360000000001 215.2C994.7360000000001 201.11999999999998 1005.988 192.79999999999998 1021.8960000000001 192.79999999999998C1042.0720000000001 192.79999999999998 1050.996 208.15999999999997 1051.19 231.51999999999998C1051.19 231.51999999999998 1032.9540000000002 236.48 1020.5380000000001 236.48Z" fill="#23272b"/><text x="70" y="328.0" font-family="Helvetica,Arial" font-size="16" fill="#a07a33">im Lauftext (Entwurf):</text><path d="M76.93 449.85H90.625L98.215 421.8H139.96L147.55 449.85H161.08L132.205 335.83500000000004H105.805ZM116.86000000000001 347.88H121.315L137.155 409.755H100.855Z" fill="#23272b"/><path d="M188.305 449.85V391.935C188.305 391.935 198.205 377.25 208.93 377.25C219.82 377.25 223.945 384.84000000000003 223.945 402.165V449.85H237.145V398.535C237.145 378.735 229.885 365.70000000000005 211.735 365.70000000000005C198.04000000000002 365.70000000000005 188.305 379.23 188.305 379.23L188.14000000000001 367.35H174.94V449.85Z" fill="#23272b"/><path d="M264.37 449.85V391.935C264.37 391.935 274.27 377.25 284.995 377.25C295.885 377.25 300.01 384.84000000000003 300.01 402.165V449.85H313.21000000000004V398.535C313.21000000000004 378.735 305.95 365.70000000000005 287.8 365.70000000000005C274.105 365.70000000000005 264.37 379.23 264.37 379.23L264.205 367.35H251.005V449.85Z" fill="#23272b"/><path d="M359.74 365.70000000000005C334.0 365.70000000000005 327.07 381.87 327.07 407.94C327.07 433.68 331.525 451.5 359.74 451.5C387.955 451.5 392.40999999999997 433.68 392.40999999999997 407.94C392.40999999999997 381.87 385.315 365.70000000000005 359.74 365.70000000000005ZM359.74 439.95000000000005C341.59 439.95000000000005 339.94 427.41 339.94 407.94C339.94 387.64500000000004 343.9 377.25 359.74 377.25C375.58 377.25 379.53999999999996 387.64500000000004 379.53999999999996 407.94C379.53999999999996 427.41 377.72499999999997 439.95000000000005 359.74 439.95000000000005Z" fill="#23272b"/><path d="M455.77 381.21000000000004 462.01194999999996 389.658 487.9400499999999 375.40200000000004V449.85H501.22419999999994V362.598H489.06039999999996Z" fill="#23272b"/><path d="M564.21955 473.21400000000006H577.34365V456.71400000000006H589.82755V447.34200000000004H577.34365V419.35800000000006H564.21955V447.34200000000004H528.2083L560.2183 385.69800000000004H546.1339L515.0842 448.53000000000003V456.71400000000006H564.21955Z" fill="#23272b"/><path d="M607.5287500000001 471.49800000000005C607.5287500000001 471.49800000000005 624.6541 474.27000000000004 636.4978 474.27000000000004C661.1455 474.27000000000004 677.4706 463.446 677.4706 429.52200000000005C677.4706 400.086 664.6666 384.37800000000004 639.85885 384.37800000000004C619.2124 384.37800000000004 603.68755 394.80600000000004 603.68755 412.89000000000004C603.68755 431.37000000000006 617.13175 440.21400000000006 637.7782 440.21400000000006C648.0214 440.21400000000006 663.86635 435.59400000000005 663.86635 435.59400000000005C663.7063 454.86600000000004 654.1033 464.23800000000006 636.4978 464.23800000000006C624.0139 464.23800000000006 608.9692 461.994 608.9692 461.994ZM638.7385 430.446C625.45435 430.446 617.45185 424.77000000000004 617.45185 412.89000000000004C617.45185 401.27400000000006 626.73475 394.41 639.85885 394.41C656.50405 394.41 663.86635 407.08200000000005 664.0264 426.35400000000004C664.0264 426.35400000000004 648.9817 430.446 638.7385 430.446Z" fill="#23272b"/><path d="M759.0317500000001 449.85V440.346H706.5353500000001L734.3840500000001 417.51C747.8282500000001 406.68600000000004 756.4709500000001 398.502 756.4709500000001 384.774C756.4709500000001 367.87800000000004 743.5069000000001 361.278 723.5006500000001 361.278C709.4162500000001 361.278 691.9708 364.97400000000005 691.9708 364.97400000000005L692.9311000000001 373.55400000000003C692.9311000000001 373.55400000000003 710.6966500000001 370.78200000000004 721.5800500000001 370.78200000000004C735.3443500000001 370.78200000000004 742.8667000000002 374.874 742.8667000000002 385.962C742.8667000000002 395.994 735.8245000000001 402.59400000000005 721.9001500000002 414.606L691.3306000000001 440.874V449.85Z" fill="#23272b"/><path d="M822.3917500000001 410.08500000000004H836.08675V389.95500000000004H822.3917500000001Z" fill="#23272b"/><path d="M901.8475 396.12600000000003C901.8475 396.12600000000003 917.5324 393.88200000000006 931.13665 393.88200000000006C946.0213 393.88200000000006 951.7831 397.97400000000005 951.7831 408.40200000000004C951.7831 417.37800000000004 941.5399 423.18600000000004 933.5374 423.31800000000004L912.89095 423.84600000000006V432.55800000000005H933.69745C945.22105 432.95400000000006 954.3439000000001 436.78200000000004 954.3439000000001 448.266C954.3439000000001 459.22200000000004 946.6615 464.766 932.41705 464.766C916.2520000000001 464.766 901.0472500000001 462.52200000000005 901.0472500000001 462.52200000000005L899.4467500000001 470.838C899.4467500000001 470.838 918.1726 474.27000000000004 933.8575000000001 474.27000000000004C956.4245500000001 474.27000000000004 967.7881 465.55800000000005 967.7881 447.87000000000006C967.7881 434.01000000000005 960.7459 429.91800000000006 950.1826 426.61800000000005C960.26575 422.658 965.38735 416.85 965.38735 407.21400000000006C965.38735 391.63800000000003 955.46425 384.37800000000004 931.77685 384.37800000000004C918.01255 384.37800000000004 901.0472500000001 387.942 901.0472500000001 387.942Z" fill="#23272b"/><path d="M1051.2698500000001 342.435C1051.2698500000001 342.435 1034.30455 339.135 1022.46085 339.135C998.77345 339.135 981.6481000000001 353.65500000000003 981.6481000000001 399.19500000000005C981.6481000000001 432.69 994.1320000000001 451.5 1019.9000500000001 451.5C1042.4671 451.5 1055.5912 439.29 1055.5912 415.035C1055.5912 391.935 1042.3070500000001 381.70500000000004 1020.7003000000001 381.70500000000004C1009.8169 381.70500000000004 995.0923 388.47 995.0923 388.47C996.5327500000001 362.73 1005.4955500000001 351.015 1022.46085 351.015C1034.94475 351.015 1049.8294 353.65500000000003 1049.8294 353.65500000000003ZM1019.57995 393.58500000000004C1033.8244 393.58500000000004 1042.1470000000002 400.35 1042.1470000000002 415.035C1042.1470000000002 431.37 1033.9844500000002 439.62 1019.9000500000001 439.62C1003.25485 439.62 995.0923 424.44 995.0923 402.0C995.0923 401.175 995.0923 400.185 995.2523500000001 399.52500000000003C995.2523500000001 399.52500000000003 1008.3764500000001 393.58500000000004 1019.57995 393.58500000000004Z" fill="#23272b"/><path d="M1118.9512 367.35 1140.5662 449.85H1164.3262L1185.9412 367.35H1172.5762L1154.9212 438.46500000000003H1149.9712L1132.3162 367.35Z" fill="#23272b"/><path d="M1232.4712000000002 365.70000000000005C1206.7312000000002 365.70000000000005 1199.8012 381.87 1199.8012 407.94C1199.8012 433.68 1204.2562000000003 451.5 1232.4712000000002 451.5C1260.6862 451.5 1265.1412000000003 433.68 1265.1412000000003 407.94C1265.1412000000003 381.87 1258.0462000000002 365.70000000000005 1232.4712000000002 365.70000000000005ZM1232.4712000000002 439.95000000000005C1214.3212 439.95000000000005 1212.6712000000002 427.41 1212.6712000000002 407.94C1212.6712000000002 387.64500000000004 1216.6312000000003 377.25 1232.4712000000002 377.25C1248.3112 377.25 1252.2712000000001 387.64500000000004 1252.2712000000001 407.94C1252.2712000000001 427.41 1250.4562 439.95000000000005 1232.4712000000002 439.95000000000005Z" fill="#23272b"/><path d="M1292.3662 449.85V391.935C1292.3662 391.935 1302.2662 377.25 1312.9912 377.25C1323.8812 377.25 1328.0062 384.84000000000003 1328.0062 402.165V449.85H1341.2062V398.535C1341.2062 378.735 1333.9462 365.70000000000005 1315.7962 365.70000000000005C1302.1012 365.70000000000005 1292.3662 379.23 1292.3662 379.23L1292.2012 367.35H1279.0012V449.85Z" fill="#23272b"/><path d="M1404.5662000000002 395.20200000000006H1455.4621000000002V399.95400000000006L1416.7300000000002 471.49800000000005L1428.8938 474.79800000000006L1468.7462500000001 400.74600000000004V385.69800000000004H1404.5662000000002Z" fill="#23272b"/><path d="M1487.5678000000003 385.69800000000004 1484.2067500000003 431.37000000000006 1493.3296000000003 432.95400000000006C1493.3296000000003 432.95400000000006 1505.33335 427.80600000000004 1517.4971500000001 427.80600000000004C1529.6609500000002 427.80600000000004 1538.7838000000002 431.898 1538.7838000000002 444.70200000000006C1538.7838000000002 457.63800000000003 1529.3408500000003 464.63400000000007 1516.0567 464.63400000000007C1501.0120000000002 464.63400000000007 1484.0467 461.73 1484.0467 461.73L1482.6062500000003 470.04600000000005C1482.6062500000003 470.04600000000005 1501.9723000000001 474.13800000000003 1516.6969000000001 474.13800000000003C1537.9835500000002 474.13800000000003 1552.3880500000002 464.50200000000007 1552.3880500000002 444.17400000000004C1552.3880500000002 424.90200000000004 1538.6237500000002 418.302 1519.4177500000003 418.302C1508.2142500000002 418.302 1495.4102500000001 423.45000000000005 1495.4102500000001 423.45000000000005L1498.2911500000002 395.33400000000006H1548.0667000000003V385.69800000000004Z" fill="#23272b"/><path d="M1605.1402000000003 339.135C1582.8932500000003 339.135 1568.0086000000003 348.70500000000004 1568.0086000000003 367.515C1568.0086000000003 380.88 1573.2902500000002 387.15000000000003 1584.1736500000004 393.09000000000003C1574.2505500000004 398.535 1566.2480500000004 405.3 1566.2480500000004 421.305C1566.2480500000004 444.07500000000005 1583.6935000000003 451.665 1605.1402000000003 451.665C1627.0670500000003 451.665 1644.5125000000003 443.415 1644.5125000000003 419.49C1644.5125000000003 404.805 1636.8301000000004 397.71000000000004 1625.7866500000002 393.09000000000003C1637.6303500000004 387.15000000000003 1642.9120000000003 381.54 1642.9120000000003 367.68C1642.9120000000003 348.54 1627.3871500000002 339.135 1605.1402000000003 339.135ZM1605.1402000000003 439.785C1590.5756500000002 439.785 1579.6922500000003 434.175 1579.6922500000003 419.65500000000003C1579.6922500000003 408.105 1586.4143500000002 402.66 1596.8176000000003 399.52500000000003H1612.8226000000004C1622.9057500000004 402.66 1631.0683000000004 406.785 1631.0683000000004 418.83000000000004C1631.0683000000004 434.175 1620.3449500000004 439.785 1605.1402000000003 439.785ZM1605.3002500000002 351.015C1620.1849000000004 351.015 1629.4678000000004 356.79 1629.4678000000004 369.33000000000004C1629.4678000000004 378.90000000000003 1623.0658000000003 384.345 1612.8226000000004 387.975H1596.8176000000003C1586.8945000000003 384.345 1581.4528000000003 378.735 1581.4528000000003 369.165C1581.4528000000003 356.625 1590.5756500000002 351.015 1605.3002500000002 351.015Z" fill="#23272b"/><path d="M1707.8725000000004 335.83500000000004V449.85H1746.6475000000005C1769.4175000000005 449.85 1781.6275000000005 440.28000000000003 1781.6275000000005 417.345C1781.6275000000005 403.485 1776.8425000000004 395.565 1764.1375000000005 390.78000000000003C1773.2125000000005 386.49 1778.4925000000005 379.23 1778.4925000000005 364.545C1778.4925000000005 344.08500000000004 1765.7875000000004 335.83500000000004 1745.6575000000005 335.83500000000004ZM1745.9875000000004 397.545C1760.3425000000004 397.545 1767.4375000000005 403.32000000000005 1767.4375000000005 416.52000000000004C1767.4375000000005 431.20500000000004 1761.0025000000005 437.97 1746.4825000000005 437.97H1721.4025000000004V397.545ZM1745.6575000000005 347.71500000000003C1758.1975000000004 347.71500000000003 1764.4675000000004 353.32500000000005 1764.4675000000004 365.865C1764.4675000000004 377.415 1758.8575000000005 385.83000000000004 1745.8225000000004 385.83000000000004H1721.4025000000004V347.71500000000003Z" fill="#23272b"/><path d="M1807.6975000000002 347.88H1819.9075000000003V331.875H1807.6975000000002ZM1839.2125000000003 347.88H1851.2575000000002V331.875H1839.2125000000003ZM1822.0525000000002 451.5C1836.9025000000004 451.5 1845.6475000000003 436.32000000000005 1845.6475000000003 436.32000000000005C1845.6475000000003 442.755 1846.4725000000003 450.18 1846.4725000000003 450.18L1859.8375000000003 449.685C1859.8375000000003 449.685 1858.8475000000003 436.65000000000003 1858.8475000000003 429.225V368.505C1858.8475000000003 368.505 1838.2225000000003 365.70000000000005 1828.4875000000002 365.70000000000005C1801.7575000000002 365.70000000000005 1795.4875000000002 384.18 1795.4875000000002 410.25C1795.4875000000002 437.31 1802.2525000000003 451.5 1822.0525000000002 451.5ZM1829.9725000000003 377.25C1834.4275000000002 377.25 1845.4825000000003 378.57000000000005 1845.4825000000003 378.57000000000005V423.45000000000005C1845.4825000000003 423.45000000000005 1836.9025000000004 439.95000000000005 1824.6925000000003 439.95000000000005C1811.9875000000002 439.95000000000005 1809.0175000000002 427.90500000000003 1809.0175000000002 410.25C1809.0175000000002 388.635 1812.9775000000002 377.25 1829.9725000000003 377.25Z" fill="#23272b"/><path d="M1922.7025000000003 367.35V425.26500000000004C1922.7025000000003 425.26500000000004 1912.6375000000005 439.95000000000005 1902.0775000000003 439.95000000000005C1891.0225000000005 439.95000000000005 1887.0625000000005 432.36 1887.0625000000005 415.035V367.35H1873.6975000000004V418.17C1873.6975000000004 440.28000000000003 1881.1225000000004 451.5 1899.2725000000005 451.5C1912.9675000000004 451.5 1922.7025000000003 437.97 1922.7025000000003 437.97L1922.8675000000003 449.85H1935.9025000000004V367.35Z" fill="#23272b"/><path d="M2011.1425000000004 449.85V401.505C2011.1425000000004 395.565 2010.4825000000003 389.79 2010.4825000000003 389.79C2010.4825000000003 389.79 2018.8975000000003 377.25 2029.2925000000005 377.25C2040.5125000000003 377.25 2044.4725000000003 384.84000000000003 2044.4725000000003 402.165V449.85H2057.5075V400.51500000000004C2057.5075 378.735 2050.0825000000004 365.70000000000005 2032.0975000000003 365.70000000000005C2018.5675000000003 365.70000000000005 2007.6775000000005 379.56 2007.6775000000005 379.56C2007.6775000000005 379.56 2003.2225000000003 365.70000000000005 1986.2275000000004 365.70000000000005C1973.3575000000003 365.70000000000005 1963.1275000000003 379.23 1963.1275000000003 379.23L1962.9625000000003 367.35H1949.7625000000003V449.85H1963.1275000000003V391.935C1963.1275000000003 391.935 1973.3575000000003 377.25 1983.4225000000004 377.25C1993.6525000000004 377.25 1997.9425000000003 384.675 1997.9425000000003 403.32000000000005V449.85Z" fill="#23272b"/><path d="M2103.7075000000004 439.95000000000005C2090.6725000000006 439.95000000000005 2084.7325000000005 430.71000000000004 2084.7325000000005 415.86V413.385H2092.9825000000005C2120.0425000000005 413.385 2132.9125000000004 408.435 2132.9125000000004 388.305C2132.9125000000004 372.3 2122.1875000000005 365.865 2104.8625000000006 365.865C2081.1025000000004 365.865 2071.3675000000007 383.02500000000003 2071.3675000000007 410.08500000000004C2071.3675000000007 438.96000000000004 2080.7725000000005 451.33500000000004 2102.8825000000006 451.33500000000004C2118.0625000000005 451.33500000000004 2129.9425000000006 446.71500000000003 2129.9425000000006 446.71500000000003L2129.2825000000007 436.98C2129.2825000000007 436.98 2115.2575000000006 439.95000000000005 2103.7075000000004 439.95000000000005ZM2084.8975000000005 403.15500000000003C2085.0625000000005 386.65500000000003 2090.6725000000006 376.755 2104.8625000000006 376.755C2114.2675000000004 376.755 2119.8775000000005 379.725 2119.8775000000005 388.47C2119.8775000000005 400.35 2112.1225000000004 403.15500000000003 2092.9825000000005 403.15500000000003Z" fill="#23272b"/><path d="M2160.1375000000007 449.85V391.935C2160.1375000000007 391.935 2170.0375000000004 377.25 2180.7625000000007 377.25C2191.6525000000006 377.25 2195.7775000000006 384.84000000000003 2195.7775000000006 402.165V449.85H2208.9775000000004V398.535C2208.9775000000004 378.735 2201.7175000000007 365.70000000000005 2183.5675000000006 365.70000000000005C2169.8725000000004 365.70000000000005 2160.1375000000007 379.23 2160.1375000000007 379.23L2159.9725000000008 367.35H2146.7725000000005V449.85Z" fill="#23272b"/><path d="M2272.3375000000005 410.08500000000004H2286.0325000000007V389.95500000000004H2272.3375000000005Z" fill="#23272b"/><path d="M2398.527850000001 473.21400000000006H2411.651950000001V456.71400000000006H2424.1358500000006V447.34200000000004H2411.651950000001V419.35800000000006H2398.527850000001V447.34200000000004H2362.516600000001L2394.5266000000006 385.69800000000004H2380.442200000001L2349.392500000001 448.53000000000003V456.71400000000006H2398.527850000001Z" fill="#23272b"/><path d="M2487.4958500000002 449.85H2551.5158500000002V437.805H2501.0258500000004V398.04H2542.2758500000004V385.995H2501.0258500000004V347.88H2551.5158500000002V335.83500000000004H2487.4958500000002Z" fill="#23272b"/><path d="M2565.3758500000004 449.85H2578.7408500000006V331.71000000000004H2565.3758500000004Z" fill="#23272b"/><path d="M2592.6008500000003 449.85H2605.9658500000005V331.71000000000004H2592.6008500000003Z" fill="#23272b"/><path d="M2652.1658500000003 439.95000000000005C2639.1308500000005 439.95000000000005 2633.1908500000004 430.71000000000004 2633.1908500000004 415.86V413.385H2641.4408500000004C2668.5008500000004 413.385 2681.3708500000002 408.435 2681.3708500000002 388.305C2681.3708500000002 372.3 2670.6458500000003 365.865 2653.3208500000005 365.865C2629.5608500000003 365.865 2619.8258500000006 383.02500000000003 2619.8258500000006 410.08500000000004C2619.8258500000006 438.96000000000004 2629.2308500000004 451.33500000000004 2651.3408500000005 451.33500000000004C2666.5208500000003 451.33500000000004 2678.4008500000004 446.71500000000003 2678.4008500000004 446.71500000000003L2677.7408500000006 436.98C2677.7408500000006 436.98 2663.7158500000005 439.95000000000005 2652.1658500000003 439.95000000000005ZM2633.3558500000004 403.15500000000003C2633.5208500000003 386.65500000000003 2639.1308500000005 376.755 2653.3208500000005 376.755C2662.7258500000003 376.755 2668.3358500000004 379.725 2668.3358500000004 388.47C2668.3358500000004 400.35 2660.5808500000003 403.15500000000003 2641.4408500000004 403.15500000000003Z" fill="#23272b"/><path d="M2708.5958500000006 449.85V391.935C2708.5958500000006 391.935 2718.4958500000002 377.25 2729.2208500000006 377.25C2740.1108500000005 377.25 2744.2358500000005 384.84000000000003 2744.2358500000005 402.165V449.85H2757.4358500000003V398.535C2757.4358500000003 378.735 2750.1758500000005 365.70000000000005 2732.0258500000004 365.70000000000005C2718.3308500000003 365.70000000000005 2708.5958500000006 379.23 2708.5958500000006 379.23L2708.4308500000006 367.35H2695.2308500000004V449.85Z" fill="#23272b"/><path d="M2834.1608500000007 449.85V391.605C2834.1608500000007 391.605 2844.0608500000003 377.25 2854.7858500000007 377.25C2865.6758500000005 377.25 2869.8008500000005 384.84000000000003 2869.8008500000005 402.165V449.85H2883.0008500000004V398.37C2883.0008500000004 378.735 2875.9058500000006 365.70000000000005 2857.5908500000005 365.70000000000005C2843.8958500000003 365.70000000000005 2834.1608500000007 379.06500000000005 2834.1608500000007 379.06500000000005V331.71000000000004H2820.7958500000004V449.85Z" fill="#23272b"/><path d="M2929.5308500000006 365.70000000000005C2903.790850000001 365.70000000000005 2896.860850000001 381.87 2896.860850000001 407.94C2896.860850000001 433.68 2901.315850000001 451.5 2929.5308500000006 451.5C2957.7458500000007 451.5 2962.2008500000006 433.68 2962.2008500000006 407.94C2962.2008500000006 381.87 2955.105850000001 365.70000000000005 2929.5308500000006 365.70000000000005ZM2929.5308500000006 439.95000000000005C2911.380850000001 439.95000000000005 2909.730850000001 427.41 2909.730850000001 407.94C2909.730850000001 387.64500000000004 2913.690850000001 377.25 2929.5308500000006 377.25C2945.3708500000007 377.25 2949.3308500000007 387.64500000000004 2949.3308500000007 407.94C2949.3308500000007 427.41 2947.5158500000007 439.95000000000005 2929.5308500000006 439.95000000000005Z" fill="#23272b"/><path d="M3008.2358500000005 365.70000000000005C2985.7958500000004 365.70000000000005 2976.0608500000008 378.735 2976.0608500000008 407.61C2976.0608500000008 435.495 2982.165850000001 451.5 3007.9058500000006 451.5C3016.8158500000004 451.5 3028.5308500000006 449.02500000000003 3028.5308500000006 449.02500000000003L3028.0358500000007 438.63C3028.0358500000007 438.63 3016.9808500000004 439.95000000000005 3011.040850000001 439.95000000000005C2992.395850000001 439.95000000000005 2989.5908500000005 427.74 2989.5908500000005 407.61C2989.5908500000005 387.15000000000003 2994.3758500000004 377.415 3011.040850000001 377.415C3016.9808500000004 377.415 3028.0358500000007 378.90000000000003 3028.0358500000007 378.90000000000003L3028.5308500000006 368.34000000000003C3028.5308500000006 368.34000000000003 3016.9808500000004 365.70000000000005 3008.2358500000005 365.70000000000005Z" fill="#23272b"/><path d="M3055.7558500000005 449.85V391.605C3055.7558500000005 391.605 3065.65585 377.25 3076.3808500000005 377.25C3087.2708500000003 377.25 3091.3958500000003 384.84000000000003 3091.3958500000003 402.165V449.85H3104.59585V398.37C3104.59585 378.735 3097.5008500000004 365.70000000000005 3079.1858500000003 365.70000000000005C3065.49085 365.70000000000005 3055.7558500000005 379.06500000000005 3055.7558500000005 379.06500000000005V331.71000000000004H3042.3908500000002V449.85Z" fill="#23272b"/><text x="70" y="503.85" font-family="Helvetica,Arial" font-size="16" fill="#a07a33">dieselbe Zeile in Versalziffern (Bestand):</text><path d="M76.93 625.7H90.625L98.215 597.6500000000001H139.96L147.55 625.7H161.08L132.205 511.68500000000006H105.805ZM116.86000000000001 523.73H121.315L137.155 585.605H100.855Z" fill="#23272b"/><path d="M188.305 625.7V567.7850000000001C188.305 567.7850000000001 198.205 553.1 208.93 553.1C219.82 553.1 223.945 560.69 223.945 578.0150000000001V625.7H237.145V574.385C237.145 554.585 229.885 541.5500000000001 211.735 541.5500000000001C198.04000000000002 541.5500000000001 188.305 555.08 188.305 555.08L188.14000000000001 543.2H174.94V625.7Z" fill="#23272b"/><path d="M264.37 625.7V567.7850000000001C264.37 567.7850000000001 274.27 553.1 284.995 553.1C295.885 553.1 300.01 560.69 300.01 578.0150000000001V625.7H313.21000000000004V574.385C313.21000000000004 554.585 305.95 541.5500000000001 287.8 541.5500000000001C274.105 541.5500000000001 264.37 555.08 264.37 555.08L264.205 543.2H251.005V625.7Z" fill="#23272b"/><path d="M359.74 541.5500000000001C334.0 541.5500000000001 327.07 557.72 327.07 583.7900000000001C327.07 609.5300000000001 331.525 627.35 359.74 627.35C387.955 627.35 392.40999999999997 609.5300000000001 392.40999999999997 583.7900000000001C392.40999999999997 557.72 385.315 541.5500000000001 359.74 541.5500000000001ZM359.74 615.8000000000001C341.59 615.8000000000001 339.94 603.26 339.94 583.7900000000001C339.94 563.495 343.9 553.1 359.74 553.1C375.58 553.1 379.53999999999996 563.495 379.53999999999996 583.7900000000001C379.53999999999996 603.26 377.72499999999997 615.8000000000001 359.74 615.8000000000001Z" fill="#23272b"/><path d="M455.77 539.9000000000001 462.2049999999999 550.46 488.93499999999995 532.6400000000001V625.7H502.62999999999994V516.635H490.09Z" fill="#23272b"/><path d="M567.145 626.0300000000001H580.675V605.4050000000001H593.5450000000001V593.69H580.675V558.71H567.145V593.69H530.02L563.02 516.635H548.5L516.49 595.1750000000001V605.4050000000001H567.145Z" fill="#23272b"/><path d="M611.365 623.885C611.365 623.885 629.02 627.35 641.23 627.35C666.64 627.35 683.47 613.82 683.47 571.4150000000001C683.47 534.62 670.27 514.985 644.6949999999999 514.985C623.41 514.985 607.405 528.02 607.405 550.625C607.405 573.725 621.265 584.7800000000001 642.55 584.7800000000001C653.11 584.7800000000001 669.4449999999999 579.005 669.4449999999999 579.005C669.28 603.095 659.38 614.8100000000001 641.23 614.8100000000001C628.36 614.8100000000001 612.85 612.005 612.85 612.005ZM643.54 572.57C629.845 572.57 621.595 565.475 621.595 550.625C621.595 536.105 631.165 527.5250000000001 644.6949999999999 527.5250000000001C661.855 527.5250000000001 669.4449999999999 543.365 669.61 567.455C669.61 567.455 654.1 572.57 643.54 572.57Z" fill="#23272b"/><path d="M767.125 625.7V613.82H713.0049999999999L741.7149999999999 585.2750000000001C755.5749999999999 571.745 764.4849999999999 561.5150000000001 764.4849999999999 544.355C764.4849999999999 523.235 751.1199999999999 514.985 730.4949999999999 514.985C715.9749999999999 514.985 697.9899999999999 519.605 697.9899999999999 519.605L698.9799999999999 530.33C698.9799999999999 530.33 717.295 526.865 728.515 526.865C742.7049999999999 526.865 750.4599999999999 531.98 750.4599999999999 545.84C750.4599999999999 558.38 743.1999999999999 566.63 728.8449999999999 581.6450000000001L697.3299999999999 614.48V625.7Z" fill="#23272b"/><path d="M830.485 585.9350000000001H844.18V565.8050000000001H830.485Z" fill="#23272b"/><path d="M910.0149999999999 529.6700000000001C910.0149999999999 529.6700000000001 926.1849999999998 526.865 940.2099999999999 526.865C955.5549999999998 526.865 961.4949999999999 531.98 961.4949999999999 545.0150000000001C961.4949999999999 556.235 950.9349999999998 563.495 942.6849999999998 563.6600000000001L921.3999999999999 564.32V575.21H942.8499999999999C954.7299999999999 575.705 964.1349999999999 580.49 964.1349999999999 594.845C964.1349999999999 608.5400000000001 956.2149999999999 615.47 941.5299999999999 615.47C924.8649999999999 615.47 909.1899999999998 612.6650000000001 909.1899999999998 612.6650000000001L907.5399999999998 623.0600000000001C907.5399999999998 623.0600000000001 926.8449999999999 627.35 943.0149999999999 627.35C966.2799999999999 627.35 977.9949999999999 616.46 977.9949999999999 594.35C977.9949999999999 577.0250000000001 970.7349999999999 571.9100000000001 959.8449999999999 567.7850000000001C970.2399999999999 562.835 975.5199999999999 555.575 975.5199999999999 543.5300000000001C975.5199999999999 524.0600000000001 965.2899999999998 514.985 940.8699999999999 514.985C926.6799999999998 514.985 909.1899999999998 519.44 909.1899999999998 519.44Z" fill="#23272b"/><path d="M1063.6299999999999 518.2850000000001C1063.6299999999999 518.2850000000001 1046.1399999999999 514.985 1033.9299999999998 514.985C1009.5099999999999 514.985 991.8549999999999 529.505 991.8549999999999 575.0450000000001C991.8549999999999 608.5400000000001 1004.7249999999999 627.35 1031.29 627.35C1054.5549999999998 627.35 1068.0849999999998 615.1400000000001 1068.0849999999998 590.885C1068.0849999999998 567.7850000000001 1054.3899999999999 557.5550000000001 1032.115 557.5550000000001C1020.8949999999999 557.5550000000001 1005.7149999999999 564.32 1005.7149999999999 564.32C1007.1999999999999 538.58 1016.4399999999999 526.865 1033.9299999999998 526.865C1046.8 526.865 1062.145 529.505 1062.145 529.505ZM1030.9599999999998 569.4350000000001C1045.645 569.4350000000001 1054.225 576.2 1054.225 590.885C1054.225 607.22 1045.81 615.47 1031.29 615.47C1014.1299999999999 615.47 1005.7149999999999 600.2900000000001 1005.7149999999999 577.85C1005.7149999999999 577.0250000000001 1005.7149999999999 576.0350000000001 1005.8799999999999 575.375C1005.8799999999999 575.375 1019.4099999999999 569.4350000000001 1030.9599999999998 569.4350000000001Z" fill="#23272b"/><path d="M1131.4449999999997 543.2 1153.0599999999997 625.7H1176.8199999999997L1198.4349999999997 543.2H1185.0699999999997L1167.4149999999997 614.315H1162.4649999999997L1144.8099999999997 543.2Z" fill="#23272b"/><path d="M1244.965 541.5500000000001C1219.225 541.5500000000001 1212.2949999999998 557.72 1212.2949999999998 583.7900000000001C1212.2949999999998 609.5300000000001 1216.75 627.35 1244.965 627.35C1273.1799999999998 627.35 1277.635 609.5300000000001 1277.635 583.7900000000001C1277.635 557.72 1270.54 541.5500000000001 1244.965 541.5500000000001ZM1244.965 615.8000000000001C1226.8149999999998 615.8000000000001 1225.165 603.26 1225.165 583.7900000000001C1225.165 563.495 1229.125 553.1 1244.965 553.1C1260.8049999999998 553.1 1264.7649999999999 563.495 1264.7649999999999 583.7900000000001C1264.7649999999999 603.26 1262.9499999999998 615.8000000000001 1244.965 615.8000000000001Z" fill="#23272b"/><path d="M1304.8599999999997 625.7V567.7850000000001C1304.8599999999997 567.7850000000001 1314.7599999999998 553.1 1325.4849999999997 553.1C1336.3749999999998 553.1 1340.4999999999998 560.69 1340.4999999999998 578.0150000000001V625.7H1353.6999999999998V574.385C1353.6999999999998 554.585 1346.4399999999998 541.5500000000001 1328.2899999999997 541.5500000000001C1314.5949999999998 541.5500000000001 1304.8599999999997 555.08 1304.8599999999997 555.08L1304.6949999999997 543.2H1291.4949999999997V625.7Z" fill="#23272b"/><path d="M1417.06 528.5150000000001H1469.53V534.455L1429.6 623.885L1442.1399999999999 628.01L1483.225 535.445V516.635H1417.06Z" fill="#23272b"/><path d="M1502.1999999999998 516.635 1498.735 573.725 1508.1399999999999 575.705C1508.1399999999999 575.705 1520.5149999999999 569.2700000000001 1533.0549999999998 569.2700000000001C1545.5949999999998 569.2700000000001 1555.0 574.385 1555.0 590.3900000000001C1555.0 606.5600000000001 1545.2649999999999 615.3050000000001 1531.57 615.3050000000001C1516.06 615.3050000000001 1498.57 611.6750000000001 1498.57 611.6750000000001L1497.0849999999998 622.07C1497.0849999999998 622.07 1517.05 627.1850000000001 1532.23 627.1850000000001C1554.175 627.1850000000001 1569.0249999999999 615.1400000000001 1569.0249999999999 589.73C1569.0249999999999 565.6400000000001 1554.8349999999998 557.3900000000001 1535.0349999999999 557.3900000000001C1523.485 557.3900000000001 1510.2849999999999 563.825 1510.2849999999999 563.825L1513.2549999999999 528.6800000000001H1564.57V516.635Z" fill="#23272b"/><path d="M1622.98 514.985C1600.0449999999998 514.985 1584.6999999999998 524.5550000000001 1584.6999999999998 543.365C1584.6999999999998 556.73 1590.145 563.0 1601.365 568.94C1591.135 574.385 1582.885 581.1500000000001 1582.885 597.1550000000001C1582.885 619.9250000000001 1600.87 627.5150000000001 1622.98 627.5150000000001C1645.5849999999998 627.5150000000001 1663.57 619.2650000000001 1663.57 595.34C1663.57 580.6550000000001 1655.6499999999999 573.5600000000001 1644.2649999999999 568.94C1656.475 563.0 1661.9199999999998 557.3900000000001 1661.9199999999998 543.5300000000001C1661.9199999999998 524.3900000000001 1645.915 514.985 1622.98 514.985ZM1622.98 615.635C1607.965 615.635 1596.745 610.0250000000001 1596.745 595.505C1596.745 583.955 1603.675 578.51 1614.3999999999999 575.375H1630.8999999999999C1641.2949999999998 578.51 1649.7099999999998 582.635 1649.7099999999998 594.6800000000001C1649.7099999999998 610.0250000000001 1638.655 615.635 1622.98 615.635ZM1623.145 526.865C1638.49 526.865 1648.06 532.6400000000001 1648.06 545.1800000000001C1648.06 554.75 1641.4599999999998 560.195 1630.8999999999999 563.825H1614.3999999999999C1604.1699999999998 560.195 1598.56 554.585 1598.56 545.0150000000001C1598.56 532.475 1607.965 526.865 1623.145 526.865Z" fill="#23272b"/><path d="M1726.93 511.68500000000006V625.7H1765.7050000000002C1788.4750000000001 625.7 1800.6850000000002 616.13 1800.6850000000002 593.195C1800.6850000000002 579.335 1795.9 571.4150000000001 1783.1950000000002 566.63C1792.2700000000002 562.34 1797.5500000000002 555.08 1797.5500000000002 540.395C1797.5500000000002 519.9350000000001 1784.845 511.68500000000006 1764.7150000000001 511.68500000000006ZM1765.045 573.3950000000001C1779.4 573.3950000000001 1786.4950000000001 579.1700000000001 1786.4950000000001 592.37C1786.4950000000001 607.0550000000001 1780.0600000000002 613.82 1765.5400000000002 613.82H1740.46V573.3950000000001ZM1764.7150000000001 523.565C1777.255 523.565 1783.525 529.1750000000001 1783.525 541.715C1783.525 553.2650000000001 1777.9150000000002 561.6800000000001 1764.88 561.6800000000001H1740.46V523.565Z" fill="#23272b"/><path d="M1826.7549999999999 523.73H1838.965V507.725H1826.7549999999999ZM1858.27 523.73H1870.3149999999998V507.725H1858.27ZM1841.11 627.35C1855.96 627.35 1864.705 612.1700000000001 1864.705 612.1700000000001C1864.705 618.605 1865.53 626.0300000000001 1865.53 626.0300000000001L1878.895 625.5350000000001C1878.895 625.5350000000001 1877.905 612.5 1877.905 605.075V544.355C1877.905 544.355 1857.28 541.5500000000001 1847.5449999999998 541.5500000000001C1820.8149999999998 541.5500000000001 1814.5449999999998 560.0300000000001 1814.5449999999998 586.1C1814.5449999999998 613.1600000000001 1821.31 627.35 1841.11 627.35ZM1849.03 553.1C1853.485 553.1 1864.54 554.4200000000001 1864.54 554.4200000000001V599.3000000000001C1864.54 599.3000000000001 1855.96 615.8000000000001 1843.75 615.8000000000001C1831.0449999999998 615.8000000000001 1828.0749999999998 603.755 1828.0749999999998 586.1C1828.0749999999998 564.485 1832.0349999999999 553.1 1849.03 553.1Z" fill="#23272b"/><path d="M1941.76 543.2V601.115C1941.76 601.115 1931.6950000000002 615.8000000000001 1921.135 615.8000000000001C1910.0800000000002 615.8000000000001 1906.1200000000001 608.21 1906.1200000000001 590.885V543.2H1892.755V594.0200000000001C1892.755 616.13 1900.18 627.35 1918.3300000000002 627.35C1932.025 627.35 1941.76 613.82 1941.76 613.82L1941.925 625.7H1954.96V543.2Z" fill="#23272b"/><path d="M2030.2 625.7V577.355C2030.2 571.4150000000001 2029.54 565.6400000000001 2029.54 565.6400000000001C2029.54 565.6400000000001 2037.955 553.1 2048.35 553.1C2059.57 553.1 2063.53 560.69 2063.53 578.0150000000001V625.7H2076.565V576.365C2076.565 554.585 2069.14 541.5500000000001 2051.155 541.5500000000001C2037.625 541.5500000000001 2026.7350000000001 555.4100000000001 2026.7350000000001 555.4100000000001C2026.7350000000001 555.4100000000001 2022.28 541.5500000000001 2005.285 541.5500000000001C1992.415 541.5500000000001 1982.185 555.08 1982.185 555.08L1982.02 543.2H1968.82V625.7H1982.185V567.7850000000001C1982.185 567.7850000000001 1992.415 553.1 2002.48 553.1C2012.71 553.1 2017.0 560.5250000000001 2017.0 579.1700000000001V625.7Z" fill="#23272b"/><path d="M2122.765 615.8000000000001C2109.73 615.8000000000001 2103.79 606.5600000000001 2103.79 591.71V589.235H2112.04C2139.1 589.235 2151.97 584.2850000000001 2151.97 564.1550000000001C2151.97 548.1500000000001 2141.245 541.715 2123.92 541.715C2100.16 541.715 2090.425 558.875 2090.425 585.9350000000001C2090.425 614.8100000000001 2099.83 627.1850000000001 2121.94 627.1850000000001C2137.12 627.1850000000001 2149.0 622.565 2149.0 622.565L2148.34 612.83C2148.34 612.83 2134.315 615.8000000000001 2122.765 615.8000000000001ZM2103.955 579.005C2104.12 562.505 2109.73 552.605 2123.92 552.605C2133.325 552.605 2138.935 555.575 2138.935 564.32C2138.935 576.2 2131.18 579.005 2112.04 579.005Z" fill="#23272b"/><path d="M2179.195 625.7V567.7850000000001C2179.195 567.7850000000001 2189.095 553.1 2199.82 553.1C2210.71 553.1 2214.835 560.69 2214.835 578.0150000000001V625.7H2228.035V574.385C2228.035 554.585 2220.775 541.5500000000001 2202.625 541.5500000000001C2188.93 541.5500000000001 2179.195 555.08 2179.195 555.08L2179.03 543.2H2165.83V625.7Z" fill="#23272b"/><path d="M2291.395 585.9350000000001H2305.09V565.8050000000001H2291.395Z" fill="#23272b"/><path d="M2419.105 626.0300000000001H2432.635V605.4050000000001H2445.505V593.69H2432.635V558.71H2419.105V593.69H2381.98L2414.98 516.635H2400.46L2368.4500000000003 595.1750000000001V605.4050000000001H2419.105Z" fill="#23272b"/><path d="M2508.865 625.7H2572.8849999999998V613.6550000000001H2522.395V573.8900000000001H2563.645V561.845H2522.395V523.73H2572.8849999999998V511.68500000000006H2508.865Z" fill="#23272b"/><path d="M2586.745 625.7H2600.11V507.56000000000006H2586.745Z" fill="#23272b"/><path d="M2613.97 625.7H2627.335V507.56000000000006H2613.97Z" fill="#23272b"/><path d="M2673.535 615.8000000000001C2660.5 615.8000000000001 2654.56 606.5600000000001 2654.56 591.71V589.235H2662.81C2689.87 589.235 2702.74 584.2850000000001 2702.74 564.1550000000001C2702.74 548.1500000000001 2692.015 541.715 2674.69 541.715C2650.93 541.715 2641.195 558.875 2641.195 585.9350000000001C2641.195 614.8100000000001 2650.6 627.1850000000001 2672.71 627.1850000000001C2687.89 627.1850000000001 2699.77 622.565 2699.77 622.565L2699.11 612.83C2699.11 612.83 2685.085 615.8000000000001 2673.535 615.8000000000001ZM2654.725 579.005C2654.89 562.505 2660.5 552.605 2674.69 552.605C2684.095 552.605 2689.705 555.575 2689.705 564.32C2689.705 576.2 2681.95 579.005 2662.81 579.005Z" fill="#23272b"/><path d="M2729.965 625.7V567.7850000000001C2729.965 567.7850000000001 2739.865 553.1 2750.59 553.1C2761.48 553.1 2765.605 560.69 2765.605 578.0150000000001V625.7H2778.805V574.385C2778.805 554.585 2771.545 541.5500000000001 2753.395 541.5500000000001C2739.7 541.5500000000001 2729.965 555.08 2729.965 555.08L2729.8 543.2H2716.6V625.7Z" fill="#23272b"/><path d="M2855.53 625.7V567.455C2855.53 567.455 2865.43 553.1 2876.155 553.1C2887.045 553.1 2891.17 560.69 2891.17 578.0150000000001V625.7H2904.37V574.22C2904.37 554.585 2897.275 541.5500000000001 2878.96 541.5500000000001C2865.265 541.5500000000001 2855.53 554.9150000000001 2855.53 554.9150000000001V507.56000000000006H2842.165V625.7Z" fill="#23272b"/><path d="M2950.9 541.5500000000001C2925.1600000000003 541.5500000000001 2918.2300000000005 557.72 2918.2300000000005 583.7900000000001C2918.2300000000005 609.5300000000001 2922.6850000000004 627.35 2950.9 627.35C2979.1150000000002 627.35 2983.57 609.5300000000001 2983.57 583.7900000000001C2983.57 557.72 2976.4750000000004 541.5500000000001 2950.9 541.5500000000001ZM2950.9 615.8000000000001C2932.7500000000005 615.8000000000001 2931.1000000000004 603.26 2931.1000000000004 583.7900000000001C2931.1000000000004 563.495 2935.0600000000004 553.1 2950.9 553.1C2966.7400000000002 553.1 2970.7000000000003 563.495 2970.7000000000003 583.7900000000001C2970.7000000000003 603.26 2968.885 615.8000000000001 2950.9 615.8000000000001Z" fill="#23272b"/><path d="M3029.605 541.5500000000001C3007.165 541.5500000000001 2997.4300000000003 554.585 2997.4300000000003 583.46C2997.4300000000003 611.345 3003.5350000000003 627.35 3029.275 627.35C3038.185 627.35 3049.9 624.875 3049.9 624.875L3049.405 614.48C3049.405 614.48 3038.35 615.8000000000001 3032.4100000000003 615.8000000000001C3013.7650000000003 615.8000000000001 3010.96 603.59 3010.96 583.46C3010.96 563.0 3015.745 553.2650000000001 3032.4100000000003 553.2650000000001C3038.35 553.2650000000001 3049.405 554.75 3049.405 554.75L3049.9 544.19C3049.9 544.19 3038.35 541.5500000000001 3029.605 541.5500000000001Z" fill="#23272b"/><path d="M3077.125 625.7V567.455C3077.125 567.455 3087.0249999999996 553.1 3097.75 553.1C3108.64 553.1 3112.765 560.69 3112.765 578.0150000000001V625.7H3125.9649999999997V574.22C3125.9649999999997 554.585 3118.87 541.5500000000001 3100.555 541.5500000000001C3086.8599999999997 541.5500000000001 3077.125 554.9150000000001 3077.125 554.9150000000001V507.56000000000006H3063.7599999999998V625.7Z" fill="#23272b"/></svg>