<?xml version="1.0" encoding="UTF-8"?>
<!-- source: lift.svg -->
<svg xmlns="http://www.w3.org/2000/svg" viewBox="0 0 1000 1000" width="1000" height="1000">
  <path d="M678.2026143790849 90.00000000000006H321.79738562091507C297.85838779956424 90.00000000000006 278.3856209150327 109.47276688453165 278.3856209150327 133.4117647058824V866.5882352941176C278.3856209150327 890.5272331154686 297.85838779956424 910.0 321.79738562091507 910.0H678.2026143790849C702.1416122004357 910.0 721.6143790849673 890.5272331154683 721.6143790849673 866.5882352941176V133.4117647058824C721.6143790849673 109.47276688453165 702.1416122004356 90.00000000000006 678.2026143790849 90.00000000000006ZM490.97821350762524 206.12200435729852H514.5599128540305L650.6906318082788 312.7755991285403L627.1089324618736 342.78867102396515L502.5904139433551 245.24618736383442L378.0718954248366 342.78867102396515L354.4901960784314 312.7755991285403L490.7995642701526 206.12200435729852H490.97821350762524ZM514.5599128540305 793.8779956427015H490.97821350762524L354.8474945533769 687.2244008714597L378.42919389978204 657.2113289760348L502.9477124183006 754.7538126361655L627.4662309368191 657.2113289760348L651.0479302832243 687.2244008714597L514.7385620915031 793.8779956427015H514.5599128540305Z" fill="#000000"/>
</svg>
