<?xml version="1.0" encoding="UTF-8"?>
<!-- source: mixed.svg -->
<svg xmlns="http://www.w3.org/2000/svg" viewBox="0 0 1000 1000" width="1000" height="1000">
  <path d="M215.73134439982994 283.76173159684254C219.80134736818582 425.08907604975354 223.59066047665516 566.6971103625511 233.4148055726867 707.463075095689C238.32687812070247 757.2855252255632 238.74791291053242 808.5114246548707 253.34378562463644 856.2287008355953C255.58930450372935 859.1759443644048 264.85206987998765 862.1231878932143 269.9044873579468 863.6669821225906C311.30624169122257 874.6138866581687 354.81316997364803 876.7190606073183 398.17975332613014 879.5259592061844C468.3522182977841 883.1749273847105 539.0860629892112 883.4556172445971 609.2585279608651 881.2100983655041C654.7302852624969 877.7014751169214 708.2017035708972 880.227683855901 749.3227680442864 862.2635328231576C751.006907203606 856.509390695482 753.5331159425855 846.1238658796772 754.6558753821321 837.5628251531353C774.3041655741952 653.7109669274021 771.6376119052724 467.4732448926325 774.8655452939684 282.49862722735287C774.8655452939684 282.49862722735287 797.8821138046709 282.49862722735287 797.8821138046709 282.49862722735287C797.8821138046709 424.24700647009377 797.3207340848976 565.8550407828914 791.0052122374487 707.884109885519C787.0755541990361 762.1975977735791 788.338658568526 816.6514305915827 774.1638206442517 870.122848899983C763.357261038617 907.7352901247895 644.6254503065785 904.5073567360934 610.1005975405249 908.1563249146194C538.8053731293246 910.8228785835422 467.7908385780107 910.6825336535989 396.49561416681036 907.1739104050162C351.72558151489517 904.36701180615 305.97313435337685 902.2618378570004 261.76448142123485 890.6132086717059C250.39654209582687 886.6835506332933 241.13377671956857 884.9994114739736 231.73066641336698 874.3331967982822C227.80100837495434 869.5614691802097 225.41514456591813 862.824912542931 223.8713503365417 857.2111153451987C211.94203129136054 808.7921145147575 210.1175472020975 758.5486295950533 206.04754423374163 709.4279041148955C197.06546871736992 567.5391799422113 193.41650053884388 425.9311456294136 192.15339616935415 284.18276638667265C192.15339616935415 284.18276638667265 215.59099946988653 283.90207652678606 215.59099946988653 283.90207652678606L215.73134439982994 283.76173159684254ZM360.286622241437 356.1797154475894 375.44387467531425 771.320018219894 347.3748886866527 772.1620877995539 337.97177838045104 356.8814400973059 360.286622241437 356.1797154475894ZM515.2274248988489 337.794529625016 519.9991525169214 789.7052040424674H491.9301665282598L496.70189414633217 337.794529625016H515.2274248988489ZM659.0809780907393 356.8814400973059 655.4320099122134 771.8813979396672 627.3630239235519 771.320018219894 641.9588966376558 356.6007502374193 659.0809780907393 356.8814400973059ZM159.45302749256348 193.9409764331255C382.601466102423 187.20441979584672 617.1178440376902 186.50269514613018 840.5469725074364 193.66028657323886C840.5469725074364 193.66028657323886 840.5469725074364 205.72995054836338 840.5469725074364 205.72995054836338C783.8476208103401 207.9754694274563 727.0079241833004 208.95788393705942 670.308572486204 209.79995351671926C569.8216026467954 210.5016781664358 428.77494805377114 211.20340281615233 329.8317724437391 209.37891872688937C273.13242074664277 208.53684914722947 216.29272411960306 207.55443463762634 159.59337242250666 205.44926068847673C159.59337242250666 205.44926068847673 159.59337242250666 193.8006315031822 159.59337242250666 193.8006315031822L159.45302749256348 193.9409764331255ZM361.4093816809835 204.88788096870348C361.4093816809835 204.88788096870348 379.7945675035568 125.31230569084795 402.3901012244293 104.54125605923838C424.8452900153586 83.77020642762882 497.2632738661054 91.34883264456744 497.2632738661054 91.34883264456744C497.2632738661054 91.34883264456744 569.8216026467956 90.78745292479421 595.2240349665342 104.54125605923838C620.6264672862729 118.29505919368255 636.6257892998101 204.88788096870348 636.6257892998101 204.88788096870348" fill="#000000"/>
  <path d="M478 129C478 117.40202025355333 487.40202025355336 108 499 108H502C513.5979797464466 108 523 117.40202025355333 523 129V133C523 144.59797974644667 513.5979797464466 154 502 154H499C487.40202025355336 154 478 144.59797974644667 478 133Z" fill="#000000"/>
</svg>
