<?xml version="1.0" encoding="UTF-8"?>
<!-- source: touch.svg -->
<svg xmlns="http://www.w3.org/2000/svg" viewBox="0 0 1000 1000" width="1000" height="1000">
  <path d="M519.3128600538562 90.76379400777402C592.1185928856953 103.29874329250102 580.6139134051923 152.75169389525956 584.7349926220891 210.9619378339233C590.7448998133964 185.72032763043197 601.3910211237126 161.16556396309002 626.6326313272039 149.83259611662453C649.4702786541723 139.18647480630844 694.9738616740717 144.68124709550386 710.599620371471 174.04393651589174C727.9424954092442 211.47707273603538 712.488448345882 254.92011614748645 711.1147552735831 294.5855036101157C711.6298901756952 294.5855036101157 712.3167367118444 294.92892687819045 712.8318716139565 295.10063851222776C724.164839460422 265.39452582376515 748.5478914937266 238.779222547975 782.5467950331233 250.11219039444046C804.3541725558673 256.1220975857479 817.9193916448187 273.29326098948354 820.6667777894163 296.81775485260135C821.3536243255658 363.44186885909556 803.152191117606 429.0357130613656 794.7383210497753 495.14469216574764C782.7185066671605 633.715980833894 820.6667777894163 739.6620590349428 702.1857503036404 897.1216274471982C695.8324198442581 905.5354975150287 672.1362143471031 903.303246272543 672.1362143471031 903.303246272543C672.1362143471031 903.303246272543 711.9733134437697 832.3863414151149 730.0030350176921 796.8420331693821C770.3552690164709 720.086932754684 755.7597801232957 629.0797667148853 758.335454633856 545.4562009386929C756.6183382934826 461.3175002603884 790.1021069307669 378.7242042884201 786.1527393479078 295.10063851222765C784.4356230075343 279.99001471694027 759.5374360721178 275.69722386600637 753.0123939786979 289.60586622303225C748.8913147618016 297.3328897547132 744.7702355449048 305.2316249204316 742.3662726683817 313.47378335422474C720.0437602435256 380.78474389686835 706.8219644226492 452.3884952904458 680.7217960489709 517.8106278586785C676.0855819299622 522.9619768797992 670.0756747386549 523.820535049986 663.7223442792726 521.0731489053883C647.4097390457237 514.7198184460061 655.651897479517 494.6295572636355 655.8236091135543 481.40776144275907C665.6111722536834 391.60257684122183 679.1763913426346 301.96910387372196 685.7014334360542 211.64878437007258C686.9034148743156 187.43744397080536 676.9441401001491 178.50843900086286 652.7327997008817 177.82159246471343C630.4102872760254 176.7913226604893 619.7641659657093 200.48752815764448 617.5319147232237 219.3758079017536C611.6937191659536 262.30371641109264 606.027235242721 305.40333655446904 600.1890396854508 348.50295669784543C594.6942673962553 389.88546050084824 589.0277834730227 431.0962526698137 583.3612995497899 472.47875647281654C581.987606477491 482.26631961294584 575.1191411159969 488.44793843829063 566.5335594141291 488.2762268042533C553.3117635932526 488.619650072328 548.8472611082814 473.5090262770407 550.3926658146177 461.6609235284631C550.3926658146177 364.4721386633195 550.3926658146177 267.4550654322133 550.2209541805803 170.26628056706977C554.8571682995889 139.87332134245773 528.0701533897613 113.08630643263018 498.19232906726137 128.1969302279175C482.22314710178733 136.0956653936359 479.81918422526434 154.12538696755828 480.16260749333907 169.92285729899507C480.16260749333907 248.91020895617885 479.9908958593017 328.0692722474001 479.81918422526434 407.05662390458394C476.38495154451715 426.11661528273044 489.4350357313563 485.52884065965566 465.223695332089 488.10451517021596C444.2748759795316 490.6801896807763 444.96172251568095 462.1760584305752 440.66893166474705 447.92399280547465C422.63921009082475 364.9872735654317 410.791107342247 280.16172635097774 389.1554414535403 198.08356528112148C376.6204921688133 162.0241221332767 323.2181739831955 175.76105285626517 324.7635786895317 210.6185145658485C335.7531232679225 311.0698204777018 354.813114646069 410.66256821936844 367.86319883290804 510.9421624971843C367.86319883290804 531.032423679555 392.41796250025 608.4743706304025 348.9749190887988 588.5558210820692C320.8142111066724 564.1727690487647 285.09819122690243 483.46830105120733 248.69532481098298 484.67028248946883C219.33263539059504 483.29658941716997 203.878588327233 516.608646420417 218.1306539523335 540.4765635516095C271.18954886987666 631.3120179573709 312.4003410388421 730.9047656990374 386.2363436749052 807.4881544796983C409.5891259039856 837.3659788021984 443.07289454127005 867.587226392773 444.44658761356885 907.5960371234769L413.3667818528074 909.9999999999999C401.6903907382671 859.3450679589798 355.6716728162557 828.9521087343678 326.6524066639426 788.9432980036639C271.18954886987666 716.4809884398996 232.21100794339674 633.2008459317819 187.90940636175884 553.698359372486C177.0915734174054 533.7798098241527 176.57643851529343 512.4875672035206 185.8488667533107 491.53874785096315C202.33318362089682 454.2773232648569 246.11965030042262 439.853546005719 282.17909344826745 460.28723045616437C304.8450291411984 473.16560300896606 317.0365551578507 494.9729805317103 333.6925836594742 514.3763951779315C323.7333088853076 417.8744568489373 306.04701057945994 322.23107669013 292.13836822243405 226.07256162921055C275.99747462292265 148.28719141028824 388.81201818546555 108.45009231362164 418.86155414200294 183.31636475390889C432.7701964990288 219.37580790175366 434.65902447343973 259.2129069984203 445.3051457837558 296.1309083164519C445.8202806858678 296.1309083164519 446.50712722201723 295.95919668241453 447.1939737581667 295.78748504837716C447.1939737581667 250.97074856462723 447.0222621241293 206.15401208087727 447.5373970262414 161.3372755971273C445.47685741779316 121.32846486642335 479.9908958593017 88.18811949721362 519.8279949559683 90.07694747162452" fill="#000000"/>
</svg>
