<?xml version="1.0" encoding="UTF-8"?>
<!-- source: Wheelchair.svg -->
<svg xmlns="http://www.w3.org/2000/svg" viewBox="0 0 1000 1000" width="1000" height="1000">
  <path d="M454.98833258972843 202.85053780926262C454.98833258972843 202.85053780926262 454.98833258972843 202.85053780926262 454.98833258972843 202.85053780926262C454.98833258972843 202.85053780926262 454.98833258972843 203.55981510333555 454.98833258972843 202.85053780926262M470.5924330593334 280.51640151025134V280.16176286321485C470.5924330593334 280.16176286321485 470.5924330593334 279.8071242161784 470.5924330593334 280.51640151025134M806.6125511263966 870.2804715319146C804.1300805971412 784.8125575961234 796.1507110388204 693.3157866607121 786.5754675688355 608.025192048439L772.9218796579311 590.4705790201333C720.0807212494958 570.965453433127 665.1117309588417 557.3118655222225 610.1427406681876 545.4314708465006C592.0561696693271 519.3655302893195 568.8273382884379 497.2006148495396 541.8748011136654 480.35527911530687C538.5057339668189 444.1821371175861 535.668624790527 406.2358018846829 522.7243141736957 371.8358531221445C511.1985581450101 338.6771396242338 476.7986093824717 317.0441821550086 470.7697523828516 285.1267039217256C470.7697523828516 285.1267039217256 470.7697523828516 285.1267039217256 470.7697523828516 285.1267039217256C470.7697523828516 285.1267039217256 470.7697523828516 285.48134256876205 470.7697523828516 285.6586618922803C470.7697523828516 285.3040232452438 470.7697523828516 285.1267039217256 470.7697523828516 285.1267039217256C472.3656262945158 251.79067110029666 497.5449702341057 218.6319576023859 495.594457675405 182.63613492818337C498.60888617521516 113.48159875607013 422.3615770623723 66.13733937670028 362.4276457132074 102.66512002145754C318.0978148336477 130.85889246085756 311.8916385105093 192.38869772168653 331.7514027445521 237.0731672482828C334.23387327380743 243.9886208654941 336.00706650898985 251.25871312974192 336.89366312658103 258.88344404102617C341.326646214537 293.2833928035646 330.15552883288797 334.9534338303508 326.25450371548663 372.0131724456627C322.53079792160366 404.28528932598226 320.0483273923483 436.73472552981997 320.58028536290306 469.361481057176C104.78266864120602 576.9943104327472 176.7743139896111 902.0206304416794 421.1203417977446 905.3896975885259C533.5407929083082 905.3896975885259 627.3427150494567 824.1774474171724 646.847840636463 717.4312146591924C651.1035044009008 717.6085339827106 655.3591681653385 717.9631726297472 659.6148319297762 718.1404919532654C669.1900753997611 781.6208097727949 675.750890369936 845.9877242099158 681.0704700754832 910.0000000000001L716.8889734261675 907.694848794263C714.0518642498756 837.6537160045584 708.7322845443284 764.4208353915258 700.930234309526 694.3797026018212C700.930234309526 694.3797026018212 680.5385121049285 674.8745770148149 680.5385121049285 674.8745770148149L650.5715464303461 670.9735518974137C650.0395884597913 644.5529726931961 645.0746474012807 619.3736287536061 636.2086812253687 595.7901587256803C673.0911005171624 604.1241669310375 709.9735198089562 613.8767297245407 745.7920231596405 626.1117630472992C758.2043758059173 719.0270885708566 766.5383840112744 815.8434392118149 770.616728452194 909.4680420294452L807.676467067506 907.872168117781L806.4352318028783 870.4577908554326L806.6125511263966 870.2804715319146ZM363.3142423307988 428.7553559714992C362.25032638968935 368.4667859752979 380.8688553591045 315.98026621389914 374.48535971244786 253.56386433547897C372.8894858007837 238.49172183642867 366.68330947764537 223.95153730793305 361.54104909561636 209.58867210295568C352.14312494914975 179.08974845781853 360.8317718015435 135.46919487233174 395.9409978581548 127.84446396104744C416.864678033307 123.05684222605498 440.0935094141963 131.56816975493047 450.9099881488089 150.54133737138204C476.4439707354353 194.51652960390535 433.71001376753964 238.31440251291036 433.3553751205032 283.35351068654313C432.64609782643026 330.16581209535826 481.5862311174642 356.5863912995759 490.8068359404126 398.96570962043506C495.23981902836863 418.6481545309596 497.722289557624 439.2171960590753 499.31816346928815 459.78623758719107C457.648122442502 444.182137117586 406.93479591628557 441.87698591184886 363.49156165431697 453.40274194053444C363.3142423307987 445.24605305869545 363.3142423307987 437.0893641768564 363.49156165431697 428.7553559714992M421.1203417977447 866.7340850615499C315.61534430439247 866.7340850615499 229.97011104508297 780.9115324787222 229.97011104508297 675.5838543088881C240.43195113265907 422.01722167780616 601.8087324628303 422.01722167780616 612.2705725504064 675.5838543088881C612.2705725504064 780.9115324787222 526.4480199675787 866.7340850615499 421.1203417977447 866.7340850615499" fill="#000000"/>
</svg>
