<?xml version="1.0" encoding="UTF-8"?><svg id="uuid-ea6f67d5-111a-4d1b-8f9d-1dbbff0ff2cb" xmlns="http://www.w3.org/2000/svg" viewBox="0 0 106.08 119.93"><defs><style>.uuid-34aa6f3b-88d7-4adc-9bac-5c26b57d82d6{font-family:Goetheanum-Text-Englisch, 'Goetheanum Text';}.uuid-5a15a807-41e1-4727-be8a-91bf5b697127{font-size:19px;}.uuid-5a15a807-41e1-4727-be8a-91bf5b697127,.uuid-81f139db-77e3-4aac-9107-1608e608cf3a{fill:#222221;}.uuid-56bcb308-abec-4d49-aec1-b27fd47cbbb1{font-family:Goetheanum-Text-Deutsch, 'Goetheanum Text';}.uuid-1fac83a9-12ff-4d25-a96c-f9fb469c0072{letter-spacing:-.02em;}.uuid-295b12c2-3e58-4795-9789-20ad932befb8{letter-spacing:0em;}</style></defs><g id="uuid-255eba92-e408-4c8d-b45e-58f6d9313d94"><text class="uuid-5a15a807-41e1-4727-be8a-91bf5b697127" transform="translate(0 91.85)"><tspan class="uuid-56bcb308-abec-4d49-aec1-b27fd47cbbb1"><tspan class="uuid-1fac83a9-12ff-4d25-a96c-f9fb469c0072" x="0" y="0">K</tspan><tspan x="10.64" y="0">eine Hunde </tspan></tspan><tspan class="uuid-34aa6f3b-88d7-4adc-9bac-5c26b57d82d6"><tspan class="uuid-295b12c2-3e58-4795-9789-20ad932befb8" x="20.39" y="22.8">N</tspan><tspan x="33.06" y="22.8">o dogs</tspan></tspan></text><path class="uuid-81f139db-77e3-4aac-9107-1608e608cf3a" d="M41.09,45.46c-.07-2.52-.21-5.06-.48-7.57-.65.17-1.29.34-1.93.5.48,3.99.66,8.11.7,12.14h1.74c.01-1.5,0-3.56-.04-5.06Z"/><path class="uuid-81f139db-77e3-4aac-9107-1608e608cf3a" d="M69.83,49.59c-.11-3.34-1.35-6.58-2.08-9.78-.36-2.95-.1-6.19-1.2-9.04-.61.17-1.23.35-1.86.54,0,.01.03.06.03.07,1.14,2.83.76,6.07,1.28,9.08.85,3.32,2.12,6.63,2.12,10.09l1.73-.04c0-.28,0-.63-.02-.91Z"/><path class="uuid-81f139db-77e3-4aac-9107-1608e608cf3a" d="M28.07,20.25c.18,1.56.98,3.2,2.48,3.86,1.3.41,3,.79,4.32,1.16,1.13,2.82,2.39,5.64,3.07,8.59.66-.18,1.32-.37,1.98-.56-.33-1.64-.88-3.21-1.43-4.77,2.25-.89,4.38-2.06,6.35-3.47,2.64,2.3,6.78,1.8,10.02,2.12,1.75.13,3.51.19,5.23.49,1.1.15,2.35-.53,3.43-.7-1.31-.9-2.89-1.32-4.46-1.47-2.27-.25-5.36-.45-7.66-.6-1.14-.09-2.25-.17-3.34-.49-2.24-.51-3.09-2.69-3.95-4.59-.91-2.06-2.47-4.09-4.73-4.77-1.73-.64-3.63-.11-5.29.4,0,0-.64.51-.64.51l-.83,1.45c-1.21.23-2.57.56-3.76.86,0,0-.73.71-.73.71-.1.4-.11.84-.06,1.24ZM35.42,25.41h0s.01,0,.01,0h-.01ZM30.35,20c1-.18,2.11-.39,3.11-.5l.81-.54s.86-1.52.86-1.52c1.34-.39,2.77-.77,4.07-.1,2.38,1.03,2.98,3.91,4.26,6.01-1.78,1.27-3.7,2.31-5.72,3.11-.33-.86-.66-1.72-1-2.58-.01,0-.76-.67-.78-.66,0,0-2.31-.53-2.31-.53-.69-.18-1.7-.35-2.37-.57-.74-.38-1.09-1.29-1.23-2.08l.3-.06Z"/><path class="uuid-81f139db-77e3-4aac-9107-1608e608cf3a" d="M72.78,9.8C51.77-11.18,15.72,3.76,15.69,33.44c-.37,17.98,15.47,33.82,33.44,33.44,29.69-.03,44.62-36.08,23.65-57.09ZM17.88,33.44c.86-35.83,49.72-43.16,61.1-9.29-19.92,5.05-40.55,10.64-60.3,16.32-.52-2.26-.8-4.61-.8-7.03ZM49.13,64.69c-14.17,0-26.16-9.48-29.98-22.43,19.92-5.05,40.57-10.63,60.32-16.32,5,19.3-10.36,39.02-30.35,38.75Z"/><path class="uuid-81f139db-77e3-4aac-9107-1608e608cf3a" d="M64.65,48.36c-.24-2.05-1-4.04-2.1-5.79-1.3-2.18-3.27-3.93-4.45-6.16l-1.12-.6-10.67,1.19-1.03,1.14c-.16,4.09-1.79,8.09-1.47,12.26h1.75c-.07-3.86,1.42-7.41,1.97-11.2l8.99-1.09c1.29,1.99,3.07,3.56,4.36,5.53,1.37,1.99,2.12,4.36,2.14,6.78l1.74-.04c0-.64-.03-1.38-.11-2.03Z"/></g></svg>