<?xml version="1.0" encoding="UTF-8"?><svg id="uuid-0a3a50fd-7269-448e-a37e-e51128fcd23d" xmlns="http://www.w3.org/2000/svg" xmlns:xlink="http://www.w3.org/1999/xlink" viewBox="0 0 83.98 97.01"><defs><style>.uuid-ec54bd4e-a9cc-4251-b96a-40192153a34f{fill:none;}.uuid-79486724-b9d3-49b6-9f80-c4851c88aa9d{font-family:Goetheanum-Text-Englisch, 'Goetheanum Text';}.uuid-21332d73-5108-4953-ab87-f71606790341{font-size:19px;}.uuid-21332d73-5108-4953-ab87-f71606790341,.uuid-73d0c089-0ff7-4a81-8e6b-454d9cca7fdb{fill:#222221;}.uuid-6a1dff46-5f47-4f69-ae95-f47e77e00672{clip-path:url(#uuid-54d40203-2092-4361-bc43-12358d0523e2);}.uuid-0de69e2a-812f-4105-a0fb-871082557705{letter-spacing:0em;}.uuid-e4584f81-de12-496f-83d8-2fc0190cf9de{font-family:Goetheanum-Text-Deutsch, 'Goetheanum Text';}.uuid-99d26755-c8af-480b-bfd5-46393442273b{letter-spacing:-.01em;}.uuid-4fcc2023-7e9c-4e93-ba44-ded0bfdf3bab{letter-spacing:-.01em;}.uuid-1342d6ec-7c06-464c-9105-9c7a69b0876d{letter-spacing:-.02em;}.uuid-ffc3da21-cd2c-4a2b-abbb-a58b5ddc0c00{letter-spacing:0em;}.uuid-409f02de-a454-4186-833a-d93d8254eb01{letter-spacing:0em;}</style><clipPath id="uuid-54d40203-2092-4361-bc43-12358d0523e2"><rect class="uuid-ec54bd4e-a9cc-4251-b96a-40192153a34f" x="9.26" width="65.3" height="38.39"/></clipPath></defs><g id="uuid-c7560752-4b7d-4372-8f49-3ae86a9cc86d"><g class="uuid-6a1dff46-5f47-4f69-ae95-f47e77e00672"><path class="uuid-73d0c089-0ff7-4a81-8e6b-454d9cca7fdb" d="M74.52,34.19c-1.8-7.54-10.08-10.15-16.34-13.02-3.72-1.63-11.3-4.99-14.99-6.64l2.82-4.96c.59-1.07,1.33-2.18,1.41-3.44.43-3.31-2.55-6.43-5.89-6.12-3.72.18-6.27,4.35-4.6,7.72l1.49-.63c-.21-.53-.28-1.12-.25-1.69h0c.11-1.97,1.99-3.65,3.98-3.43,2.68.16,4.26,3.34,2.79,5.58-1.22,2.29-2.57,4.69-3.86,6.94l.43,1.3c7.26,3.38,16.54,7.27,23.65,10.88,3.04,1.58,5.8,3.73,6.95,7.03.09.26.22.51.27.79.1.62-.26,1.29-.82,1.55-.19.09-.39.14-.61.14h-9.77c-14.62-.03-33.94.04-48.49.04-.98-.07-1.66-1.19-1.26-2.09.57-1.58,1.39-3.05,2.6-4.23,2.55-2.42,5.87-3.87,8.99-5.46,3.9-1.9,11.73-5.76,15.62-7.68l-.71-1.48c-3.93,1.85-11.82,5.57-15.74,7.44-4.89,2.37-10.67,4.85-12.57,10.42-1.16,2.47.68,5.28,3.42,5.16,8,.02,22.61.03,30.74.05,0,0,17.41,0,17.41,0h8.7s1.11,0,1.11,0c2.13,0,3.91-2.09,3.53-4.19"/></g><text class="uuid-21332d73-5108-4953-ab87-f71606790341" transform="translate(0 68.93)"><tspan class="uuid-e4584f81-de12-496f-83d8-2fc0190cf9de"><tspan x="0" y="0">Ga</tspan><tspan class="uuid-ffc3da21-cd2c-4a2b-abbb-a58b5ddc0c00" x="21.26" y="0">r</tspan><tspan x="27.82" y="0">de</tspan><tspan class="uuid-409f02de-a454-4186-833a-d93d8254eb01" x="47.61" y="0">r</tspan><tspan x="54.21" y="0">obe</tspan></tspan><tspan class="uuid-79486724-b9d3-49b6-9f80-c4851c88aa9d"><tspan class="uuid-99d26755-c8af-480b-bfd5-46393442273b" x="3.21" y="22.8">W</tspan><tspan x="19.53" y="22.8">a</tspan><tspan class="uuid-1342d6ec-7c06-464c-9105-9c7a69b0876d" x="29.01" y="22.8">r</tspan><tspan class="uuid-0de69e2a-812f-4105-a0fb-871082557705" x="35.15" y="22.8">d</tspan><tspan class="uuid-4fcc2023-7e9c-4e93-ba44-ded0bfdf3bab" x="45.09" y="22.8">r</tspan><tspan class="uuid-0de69e2a-812f-4105-a0fb-871082557705" x="51.28" y="22.8">obe</tspan></tspan></text></g></svg>