<?xml version="1.0" encoding="UTF-8"?>
<!-- source: compass-true.svg -->
<svg xmlns="http://www.w3.org/2000/svg" viewBox="0 0 1000 1000" width="1000" height="1000">
  <path d="M523.2249758609591 378.72867718056006 503.035082072739 251.51915030576117H496.5690376569038C496.5690376569038 251.51915030576117 477.03894431927904 378.72867718056006 477.03894431927904 378.72867718056006C423.0672674605729 389.5494045703251 382.15963952365627 437.1869971033151 382.15963952365627 494.32571612487936C382.15963952365627 551.4644351464435 422.0115867396202 599.1020276794336 477.03894431927904 609.9227550691986L496.4370775667847 737.0003218538784H502.90312198261995C502.90312198261995 737.0003218538784 523.2249758609591 609.7907949790796 523.2249758609591 609.7907949790796C578.120373350499 598.8381074991955 617.8403604763438 550.54071451561 617.8403604763438 494.1937560347603C617.8403604763438 437.8467975539107 577.0646926295462 389.41744448020603 523.0930157708401 378.596717090441L523.2249758609591 378.72867718056006ZM388.75764402961056 494.19375603476027C388.75764402961056 441.1457998068877 426.1023495333119 396.67524943675573 475.8513035082073 385.59060186675254L459.22433215320245 493.6659156742839L475.8513035082073 602.796910202768C425.1786289024783 591.5803025426457 388.62568393949147 546.4499517219183 388.62568393949147 494.19375603476027H388.75764402961056ZM499.86803990988096 715.0949468941101 465.95429674927584 494.19375603476027H535.233344061796L499.86803990988096 715.0949468941101ZM524.4126166720309 602.664950112649 541.6993884776311 494.72159639523665 524.2806565819119 385.7225619568717C574.0296105568073 396.8072095268749 611.2423559703894 441.2777598970069 611.2423559703894 494.1937560347603C611.2423559703894 547.1097521725137 574.9533311876409 591.3163823624076 524.4126166720309 602.664950112649ZM476.90698422916 104.64757000321855H479.01834567106533L511.21660766012235 193.3247505632443H539.851947215964V90.0H523.0930157708401V178.54522046990667H520.8496942388156L489.4431927904732 90.0H460.14805278403605V193.3247505632443H476.90698422916V104.64757000321855ZM505.1464435146444 848.1107177341488C487.4637914386869 843.2281943997427 482.0534277438043 840.9848728677182 482.0534277438043 831.3517862890249C482.0534277438043 822.5104602510461 488.5194721596396 817.8918570968781 501.1876408110718 817.8918570968781C509.89700675893147 817.8918570968781 531.0106211779852 820.2671387190217 531.0106211779852 820.2671387190217L532.3302220791761 806.6752494367557C532.3302220791761 806.6752494367557 512.6681686514323 803.1123270035404 499.6041197296428 803.1123270035404C478.88638558094624 803.1123270035404 465.16253620856133 811.689732861281 465.16253620856133 832.5394271000965C465.16253620856133 850.4859993562922 474.7956227872546 857.2159639523655 497.0968780173801 863.0222079176053C512.9320888316704 866.8490505310589 517.5506919858385 869.7521725136787 517.5506919858385 878.5934985516575C517.5506919858385 889.4142259414226 511.6124879304796 895.2204699066623 498.8123591889282 895.2204699066623C488.1235918892823 895.2204699066623 467.80173801094304 892.4493080141615 467.80173801094304 892.4493080141615L466.218216929514 905.9092372063083C466.218216929514 905.9092372063083 486.5400708078532 910.0 500.0 910.0C520.3218538783392 910.0 534.5735436112005 900.2349533311876 534.5735436112005 877.5378178307049C534.5735436112005 859.8551657547473 526.7878982941745 854.1808818796266 505.0144834245253 848.1107177341487L505.1464435146444 848.1107177341488Z" fill="#000000"/>
</svg>
