<?xml version="1.0" encoding="UTF-8"?>
<!-- source: leash-dogs.svg -->
<svg xmlns="http://www.w3.org/2000/svg" viewBox="0 0 1000 1000" width="1000" height="1000">
  <path d="M406.0583446317231 686.9574195237507C405.1821555759815 646.1520434992086 389.0352429773129 607.3493853163618 388.659733381995 566.9195188871377L376.14274687139925 553.1508337254822L246.34159675652165 538.6311293731912L232.69808145997217 545.8909815493367C218.42871683789303 572.8025025471175 194.27093287244327 594.3317193453422 178.49952986909273 620.7425608826992C160.47506929383485 648.9057805315397 150.8369896806762 682.5764742450422 151.71317873641783 715.9968282283328L172.86688593932456 716.2471679585447C170.86416809762932 653.0363860800362 217.42735791704547 613.2323689763418 251.9742406862896 566.6691791569258L361.24753292379046 579.8120149930512C367.8815357744062 625.6241856218317 386.03116621477 669.1832986787048 385.15497715902825 716.1219980934388H406.433854227041C406.55902409214696 706.3587486151741 406.433854227041 696.7206690020155 405.93317476661707 686.9574195237508L406.0583446317231 686.9574195237507ZM879.0752648671357 381.6681185303207C861.4263138871956 381.6681185303207 847.2821191302223 396.6885023430356 848.408647916176 414.33745332297565C739.6360351390992 448.508826496902 616.969567335261 469.6625336998087 505.56838739095906 434.1142920097169C508.6976340186079 426.1034206429356 511.9520505113629 418.09254927615433 515.3316368692236 410.206847774479C528.724812435561 406.70209155151224 547.7506319316667 401.8204668123799 560.8934677677921 398.3157105894131C588.055328495785 391.80687760390333 602.0743533876523 359.76339213677824 597.3178985136258 333.978399924951L588.4308380911027 325.34167923264C573.2852844132819 321.58658327946125 558.0145608703551 317.8314873262825 542.6186674623225 314.8274105637396L532.4799083887399 297.17845958379957L524.7193767521705 291.0451361936077C509.6989929394556 286.66419091489917 493.4269104756812 281.5322264455549 477.1548280119067 282.65875523150856C468.2677675893839 283.28460455703834 459.50587703196686 285.7880018591575 451.49500566518554 289.5430978123362C413.06785707765675 305.3145008156868 404.1807966551337 349.37429333298377 383.77810864286266 380.5415897443671C368.13187550461805 402.44631613790966 338.84212706982396 403.69801478896926 314.3088335090564 405.8259024957705C278.25991235854065 408.70480939320754 236.07766781783312 409.4558285838433 200.65459599284725 416.3401711646709C173.24239553464258 422.34832468975685 149.08461156919282 440.49795513012066 135.9417757330673 465.2815884211002C115.03840826037242 502.20669862735764 120.67105219014047 546.7671706050785 115.41391785569022 587.1970370343026C114.41255893484265 593.9562097500243 112.40984109314729 600.4650427355341 110.53229311655787 607.0990455861499C100.14319431276351 642.5221174111357 89.75409550896904 679.6975673476052 90.0044352391809 716.9981871491805L111.0329725769817 717.4988666096042C111.0329725769817 676.0676412595324 125.92818652459061 636.3887940209438 136.44245519349113 596.7099467823555C143.70230736963663 560.03517630631 138.06966343986858 519.3549701468738 152.46419792705365 484.30740791720575C161.10091861936462 466.032607611736 175.37028324144376 450.1360347432794 194.77161233286722 443.37686202755776C203.0328234298604 440.2476153999088 212.17022358259533 438.4952372884254 220.93211414001235 437.49387836757774C237.95521579442254 435.74150025609435 255.10348731393867 434.48980160503476 272.37692869856085 433.36327281908115C285.77010426489824 432.8625933586573 322.31970487583783 430.60953578675003 335.3373708468573 429.3578371356905C356.11556845444625 427.10477956378327 377.51961538756495 422.34832468975685 393.79169785133945 407.9537902025718C417.8243119516833 424.85172199187605 443.85964389372236 438.8707468837432 471.6473539472448 449.51018541774965C465.88954015237084 465.5319281513122 460.2568962226028 481.6788407499806 456.2514605392121 498.3264328090729C451.2446659349737 519.6053098770857 448.24058917243076 541.3848664055223 445.8623617354176 562.9140832037469C440.4800575358613 613.7330484367656 439.2283588848019 665.9288821859498 439.47869861501374 717.1233570142863H460.63240581792047C461.1330852783444 666.9302411067974 463.38614285025153 615.6105964133549 469.64463610554935 565.7929901011839C472.27320327277437 545.3903020889129 475.5276197655294 524.7372743464299 480.5344143697678 504.7100959294768C484.6650199182643 488.9386929261261 490.54800357824433 473.41762965298744 496.30581737311843 458.0217362449547C613.8403207076124 494.0706573954704 742.3897721714304 470.28838302533853 855.9188398225338 431.9864043029156C873.317451072262 453.51562110114025 910.6180708738373 440.2476153999088 909.9922215483075 412.08439575106837C909.9922215483075 395.18646396176416 896.2235363866523 381.41777880010886 879.3256045973478 381.41777880010886L879.0752648671357 381.6681185303207ZM508.69763401860814 411.95922588596244C508.69763401860814 411.95922588596244 508.8228038837142 411.95922588596244 508.8228038837142 411.95922588596244H508.69763401860814ZM502.18880103309823 385.42321448349946C502.18880103309823 385.42321448349946 492.9262310152575 393.4340858502808 492.80106115015144 393.4340858502808C488.54528573654886 403.9483545191812 484.53985005315826 414.33745332297565 480.6595842348736 424.85172199187605C456.001120809 414.8381327833995 432.71952589929197 401.69529694727396 411.4406488312792 386.2994035392412C423.8324654767689 365.6463757967582 430.46646832738463 340.11172331514297 448.1154193073247 323.4641312560506C453.37255364177497 318.45733665181234 460.1317263574965 314.57707083352767 467.14123880343016 311.94850366630254C481.91128288593325 306.0655200063226 497.4323461590719 310.696805015243 512.3275601066808 314.8274105637396L522.8418287755812 333.2273807343153L532.730248118952 339.86138358493105C546.6241031457132 341.3634219662025 560.5179581724744 343.99198913342764 574.2866433341296 346.62055630065277C572.6594350877524 356.5089756440234 567.402300753302 369.1511320197251 557.7642211401434 372.5307183775859C557.7642211401434 372.5307183775859 544.621385304018 375.5347951401289 544.621385304018 375.5347951401289C535.609155016389 377.6626828469301 511.7017107811512 383.0449870464863 502.4391407633102 385.1728747532876L502.18880103309823 385.42321448349946ZM879.0752648671357 421.59730549912115C866.9337879518578 421.59730549912115 866.9337879518578 403.1973353285454 879.0752648671357 403.07216546343943C891.2167417824135 403.07216546343943 891.2167417824135 421.4721356340152 879.0752648671357 421.59730549912115Z" fill="#000000"/>
</svg>
