<?xml version="1.0" encoding="UTF-8"?>
<!-- source: wc-wheelchair.svg -->
<svg xmlns="http://www.w3.org/2000/svg" viewBox="0 0 1000 1000" width="1000" height="1000">
  <path d="M370.26007394615965 312.62549250020106C370.26007394615965 312.62549250020106 370.26007394615965 312.62549250020106 370.26007394615965 312.62549250020106C370.26007394615965 312.62549250020106 370.26007394615965 313.22451431769895 370.26007394615965 312.62549250020106M383.4385539311138 378.2183815162231V377.9188706074741C383.4385539311138 377.9188706074741 383.4385539311138 377.61935969872525 383.4385539311138 378.2183815162231M667.2251399707526 876.4547782201167C665.1285636095099 804.2726492116176 658.3895681626583 726.9988347543862 650.3027736264364 654.9664612002614L638.7716036396014 640.1406712171879C594.1444782360065 623.6675712359952 547.7202873799179 612.1364012491603 501.2960965238292 602.1027858060701C486.02104017763224 580.0887340130216 466.40307565457545 561.3693022162116 443.64024658965445 547.1425340506361C440.79489295653934 516.5924213582423 438.3988056865477 484.54475412210365 427.4666575172107 455.4921959734546C417.7325529828696 427.48792600542686 388.67999483422057 409.2177605717404 383.58830938548823 382.26177878433407C383.58830938548823 382.26177878433407 383.58830938548823 382.26177878433407 383.58830938548823 382.26177878433407C383.58830938548823 382.26177878433407 383.58830938548823 382.56128969308304 383.58830938548823 382.7110451474575C383.58830938548823 382.41153423870855 383.58830938548823 382.26177878433407 383.58830938548823 382.26177878433407C384.93610847485854 354.10775336193194 406.2013829960347 326.1034833939042 404.55407299791534 295.70312615588483C407.0999157222815 237.29849894983778 342.7050703412553 197.31379263185175 292.0877267626812 228.16341623299454C254.64886316906131 251.97453347853678 249.40742226595452 303.93967614648125 266.18003315589624 341.6780506488501C268.2766095171389 347.5185133694548 269.7741640608837 353.6584869988085 270.5229413327561 360.097971536911C274.2668276921181 389.15052968556006 264.83223406652587 424.3430614635628 261.53761407028736 455.641951427829C258.3927495284233 482.8974441239843 256.29617316718054 510.302692274514 256.745439530304 537.8576958794183C74.49305155656235 628.7592566847275 135.29376603260107 903.2610045531484 341.65678216063395 906.1063581862636C436.601740234054 906.1063581862636 515.8223755981537 837.518360082752 532.2954755793464 747.3655765493153C535.889606484334 747.5153320036897 539.4837373893215 747.8148429124387 543.0778682943089 747.9645983668131C551.1646628305308 801.5770510328769 556.7056146423866 855.9382809708129 561.198278273621 910.0000000000001L591.4488800572659 908.0531790931318C589.0527927872741 848.8997746152123 584.5601291560398 787.0507719585523 577.9708891635627 727.8973674806329C577.9708891635627 727.8973674806329 560.7490119104976 711.42426749944 560.7490119104976 711.42426749944L535.4403401212105 708.1296475032016C534.991073758087 685.816084801404 530.7979210356017 664.5508102802279 523.3101483168776 644.6333348484221C554.4592828267695 651.6718412040227 585.6084173366612 659.9083911946192 615.859019120306 670.2415175464582C626.3419009265197 748.7133756386855 633.3804072821201 830.4798537271513 636.8247827327333 909.5507336368765L668.1236726969995 908.2029345475062L667.0753845163781 876.604533674491L667.2251399707526 876.4547782201167ZM292.8365040345537 503.413941373288C291.9379713083068 452.497086885965 307.6622940176272 408.16947239111903 302.27109766014587 355.4555524513022C300.9232985707756 342.7263388294714 295.68185766766885 330.44639157076404 291.3389494908089 318.3161997664312C283.4019104089615 292.5582616140207 290.73992767331094 255.71841983789875 320.3915076394579 249.27893529979613C338.06265125564653 245.2355380316852 357.6806157787033 252.4237998416602 366.8156984955466 268.4476334597295C388.3804839254716 305.5869861446005 352.2894194212221 342.5765833750969 351.9899085124731 380.61446878621473C351.39088669497517 420.1499087410773 392.72339210233156 442.4634714428747 400.51067572980446 478.2550250383754C404.2545620891665 494.8778804739426 406.35113845040917 512.2495131813822 407.69893753977954 529.6211458888218C372.5064057617768 516.4426659038677 329.6763458106756 514.4958449969994 292.9862594889281 524.2299495313406C292.8365040345536 517.3411986301146 292.8365040345536 510.4524477288885 292.9862594889281 503.4139413732879M341.656782160634 873.3099136782527C252.5522868078187 873.3099136782527 180.22040234494506 800.8282737610044 180.22040234494506 711.8735338625636C189.05597415303936 497.7232341070578 494.2575901682287 497.7232341070578 503.093161976323 711.8735338625636C503.093161976323 800.8282737610044 430.6115220590749 873.3099136782527 341.656782160634 873.3099136782527M851.574104305737 288.8143752546588 850.6755715794901 266.0515461897379C787.4787698334598 273.9885852715853 746.7452862436013 284.0222007146754 750.1896616942142 192.97088445499185C746.8950416979757 100.272258197189 788.3773025597065 111.20440636652602 850.6755715794901 119.29120090274792L851.574104305737 96.82788274657598C772.0539580328883 81.2533154916301 718.7410162755737 84.39818003349417 722.1853917261866 192.97088445499185C719.190282638697 298.6982352433744 770.5564034891435 304.5386979639792 851.574104305737 288.8143752546588M513.8755546912855 268.2978780053551 482.7264201813938 93.08399638721399H454.1231283958682L493.95807925947975 292.10899525089735H540.2325146611939L576.0240682566946 127.52775089334429L612.1151327609441 292.10899525089735H658.3895681626583L697.9250081175209 93.08399638721399H669.6212272407442L638.4720927308525 268.44763345972956H631.2838309208776L591.8981464203894 94.13228456783534H560.1499900929997L521.213571955635 268.2978780053551H514.02531014566H513.8755546912855Z" fill="#000000"/>
</svg>
