<?xml version="1.0" encoding="UTF-8"?>
<!-- source: compass-false.svg -->
<svg xmlns="http://www.w3.org/2000/svg" viewBox="0 0 1000 1000" width="1000" height="1000">
  <path d="M476.7750241390408 621.2713228194399 496.96491792726096 748.4808496942388H503.43096234309616C503.43096234309616 748.4808496942388 522.9610556807208 621.2713228194399 522.9610556807208 621.2713228194399C576.932732539427 610.4505954296749 617.8403604763437 562.8130028966848 617.8403604763437 505.6742838751207C617.8403604763437 448.5355648535565 577.9884132603797 400.89797232056645 522.9610556807208 390.07724493080144L503.56292243321525 262.99967814612165H497.09687801738005C497.09687801738005 262.99967814612165 476.7750241390408 390.2092050209205 476.7750241390408 390.2092050209205C421.87962664950106 401.1618925008046 382.1596395236562 449.45928548439014 382.1596395236562 505.80624396523973C382.1596395236562 562.1532024460894 422.93530737045376 610.5825555197939 476.9069842291599 621.403282909559L476.7750241390408 621.2713228194399ZM611.2423559703893 505.8062439652398C611.2423559703893 558.8542001931123 573.8976504666881 603.3247505632443 524.1486964917926 614.4093981332476L540.7756678467975 506.33408432571616L524.1486964917926 397.2030897972321C574.8213710975217 408.41969745735446 611.3743160605085 453.5500482780818 611.3743160605085 505.80624396523984L611.2423559703893 505.8062439652398ZM500.13196009011904 284.9050531058899 534.045703250724 505.80624396523973H464.766655938204L500.13196009011904 284.9050531058899ZM475.45542323784997 397.33504988735115 458.1686514322497 505.2784036047634 475.58738332796906 614.2774380431284C425.83842935307365 603.1927904731251 388.6256839394914 558.7222401029932 388.6256839394914 505.80624396523973C388.6256839394914 452.8902478274863 424.91470872224005 408.68361763759253 475.45542323784997 397.33504988735115ZM523.09301577084 895.3524299967814H520.9816543289346L488.78339233987765 806.6752494367557H460.148052784036V910.0H476.9069842291599V821.4547795300933H479.15030576118437L510.5568072095268 910.0H539.7199871258448V806.6752494367557H523.09301577084V895.3524299967814ZM494.8535564853556 151.8892822658513C512.5362085613131 156.7718056002575 517.9465722561956 159.01512713228192 517.9465722561956 168.6482137109752C517.9465722561956 177.48953974895397 511.4805278403604 182.10814290312197 498.8123591889282 182.10814290312197C490.10299324106853 182.10814290312197 468.98937882201477 179.73286128097843 468.98937882201477 179.73286128097843L467.6697779208239 193.32475056324427C467.6697779208239 193.32475056324427 487.33183134856773 196.88767299645963 500.3958802703572 196.88767299645963C521.1136144190538 196.88767299645963 534.8374637914387 188.31026713871904 534.8374637914387 167.46057289990344C534.8374637914387 149.51400064370776 525.2043772127454 142.78403604763437 502.90312198261984 136.9777920823946C487.06791116832954 133.1509494689411 482.44930801416155 130.2478274863212 482.44930801416155 121.40650144834245C482.44930801416155 110.5857740585774 488.3875120695204 104.77953009333763 501.18764081107173 104.77953009333763C511.8764081107177 104.77953009333763 532.198261989057 107.55069198583843 532.198261989057 107.55069198583843L533.781783070486 94.09076279369165C533.781783070486 94.09076279369165 513.4599291921468 90.0 499.99999999999994 90.0C479.6781461216607 90.0 465.4264563887994 99.76504666881235 465.4264563887994 122.46218216929515C465.4264563887994 140.14483424525264 473.2121017058255 145.81911812037333 494.98551657547466 151.8892822658513H494.8535564853556Z" fill="#000000"/>
</svg>
