<?xml version="1.0" encoding="UTF-8"?>
<!-- source: wc-all.svg -->
<svg xmlns="http://www.w3.org/2000/svg" viewBox="0 0 1000 1000" width="1000" height="1000">
  <path d="M692.9300414348581 432.57547760027046C692.9300414348581 432.57547760027046 692.9300414348581 432.57547760027046 692.9300414348581 432.57547760027046C692.9300414348581 432.57547760027046 692.9300414348581 432.57547760027046 692.9300414348581 432.57547760027046ZM816.5641030711993 583.566301137972 811.4099305390589 577.0244667702552C791.7183483008816 569.7557619172369 771.2338164423752 564.6676685201239 750.815363718896 560.2403664732855C744.0752919460971 550.5267336242517 735.4189252575025 542.2668417458217 725.3748967333315 535.9893239182147C724.1193931678101 522.5091803726169 723.0621270073711 508.3682454767447 718.238350150368 495.5488932814212C713.9432063735843 483.1920950312898 701.1238541782608 475.1304405579421 698.8771635873278 463.23619625300284C698.8771635873278 463.23619625300284 698.8771635873278 463.23619625300284 698.8771635873278 463.23619625300284C699.4718758025748 450.81331886784403 708.8551129764713 438.4565206177126 708.1282424911695 425.0424562071422C709.251587786636 399.27159354644044 680.8375597248366 381.6284644941138 658.5028120855617 395.24076630976657C641.9830283287016 405.7473487791296 639.6702586027412 428.6768086336515 647.0711217258145 445.32875066056647C647.9962296161987 447.90583692663665 648.657020966473 450.6150814627617 648.9874166416103 453.3904051339142C650.6393950172964 466.2097573292376 646.4764095105676 481.7383540606861 645.0226685399639 495.5488932814212C643.6350067043877 507.5752958564153 642.7098988140035 519.6677775664369 642.9742153541132 531.826338411486C562.5559080257182 571.9363733731424 589.384036846859 693.0594278784407 680.441084914672 694.3149314439621C722.3352565220692 694.3149314439621 757.2911189515852 664.0506876013944 764.5598238046038 624.2710483148752C766.1457230452622 624.3371274499026 767.7316222859209 624.4692857199575 769.3175215265794 624.5353648549849C772.8857948180613 648.1916951948086 775.3307228140765 672.1784212097696 777.3130968648996 696.0329889546756L790.6610821404427 695.1739601993188C789.6038159800036 669.0727018634798 787.6214419291804 641.7159399621194 784.713959987973 615.680760761308C784.713959987973 615.680760761308 777.1148594598172 608.4120559082894 777.1148594598172 608.4120559082894L765.9474856401798 607.0243940727132C765.7492482350975 597.1786029536245 763.8990324543291 587.7292866447006 760.5950757029572 579.0068408210784C774.3395357886648 582.1125601673681 788.0839958743724 585.7469125938774 801.4319811499154 590.3063729107707C806.0575206018362 624.9318396651495 809.1632399481259 661.011047390132 810.6830600537571 695.9008306846206L824.4935992744922 695.3061184693736L824.0310453293001 681.3634209785837C823.1059374389159 649.5132778953574 820.1323763626812 615.4164442211982 816.5641030711994 583.6323802729993L816.5641030711993 583.566301137972ZM670.991768605748 404.62400348366316C678.789106538986 402.8398668379223 687.4454732275806 406.0116653192394 691.4763004642545 413.08213276717555C700.9916959082059 429.4697582539808 685.0666243665928 445.79130460575857 684.9344660965379 462.57540490272845C684.6701495564281 480.0202965499727 702.9079908240017 489.86608766906136 706.3441058454285 505.65900094061965C707.9960842211146 512.9937849286655 708.9211921114987 520.6589645918486 709.5159043267457 528.3241442550317C693.9873075952972 522.5091803726169 675.0886749774493 521.6501516172602 658.8992868957264 525.9452953940438C658.8332077606989 522.9056551827816 658.8332077606989 519.8660149715193 658.8992868957264 516.7602956252297C658.5028120855617 494.2933897158999 665.4411212634429 474.73396574777746 663.062272402455 451.4741102181184C662.467560187208 445.85738374078596 660.1547904612477 440.43889466853585 658.2384955454519 435.0864847313132C654.7363013889975 423.7208735065934 657.9741790053421 407.4654062898431 671.0578477407754 404.62400348366316H670.991768605748ZM680.3750057796445 679.9757591430075C641.1239995733449 679.9757591430075 609.1416982200637 647.9934577897263 609.1416982200637 608.7424515834267C613.0403671866827 514.2492884941869 747.7096443726064 514.2492884941869 751.6083133392253 608.7424515834267C751.6083133392253 647.9934577897263 719.6260119859442 679.9757591430075 680.3750057796445 679.9757591430075ZM392.46821446508636 386.8487161612817C387.8426750131655 383.61083854493705 382.62242334599773 382.8839680596352 377.5343299488848 381.0998314138943C369.80307115067427 378.52274514782414 371.85152433652496 369.99853672928435 374.1642940624854 363.98533544178724C377.1378551387202 355.65936442832975 380.90436583528435 347.00299773973506 380.90436583528435 337.4215231607562C381.4990780505313 319.84447324345706 368.21717191001574 303.91940170184387 350.0454097774696 304.38195564703597C319.84724506992933 303.6550851617341 312.44638194685604 335.6373865150153 323.4155183614111 358.8311629096469C324.14238884671295 360.6813786904152 325.19965500715205 363.65493976665005 325.8604463574264 365.5051555474184C329.0322448387435 374.4258387761229 328.1071369483594 380.57119833367483 317.7987918840787 382.553572384498C296.71954781032514 386.8487161612817 291.7636126832671 407.002852344651 290.44202998271834 425.37285188227946C287.07199409631886 455.24062091468255 285.8825696658249 485.0423108120582 287.0059149612914 515.1083172495436L292.95303711376107 522.3109429675346C296.98386435043494 523.2360508579188 301.0807707221362 524.2272378833304 305.243756228865 524.8219500985774C309.60497914067605 579.4033156312432 314.56091426773406 640.724752936708 319.51684939479213 694.5131688490445L332.79875553530763 693.3237444185506C328.43753262349657 637.420796185336 324.2084679817404 573.1918769386639 320.5080364202037 517.0906913003669L312.18206540674623 509.6898281772935C309.0102669254291 509.6898281772935 305.8384684441119 509.0951159620465 302.6666699627948 508.4343246117721C301.5433246673283 479.02910952456114 302.6666699627948 449.22741962718544 306.3671015243315 420.08652108008425C306.895734604551 414.4037154677244 308.28339644012726 407.13501061470595 311.65343232652674 402.9720251079772C315.3538638880634 397.55353603572706 322.16001479588977 397.4874569006996 327.77674127322217 395.04252890468433C334.05425910082903 392.66368004369644 340.26569779340844 386.5183204861445 341.6533596289847 379.51393217323584C345.8824242707409 362.06904052599157 329.098323973771 346.8708394696802 334.4507339109936 329.75634349757314C337.4903741222559 315.8136460067832 361.3449418671619 315.6154086017009 364.9792942936711 329.9545809026555C368.2171719100157 339.7342928867167 363.5255533230674 349.51400487077785 360.0894383016405 359.0294003147293C356.25684847004896 368.6108748937081 355.00134490452757 381.3641479540041 363.12907851290277 389.42580242735187C367.29206401963154 393.6548670691081 371.91760347155235 395.5711619849038 377.270013408775 397.0249029555075C381.4329989155038 397.88393171086426 385.3977470171502 399.7341474916326 387.7765958781381 402.9720251079772C391.1466317645375 407.13501061470595 392.46821446508636 414.2715571976695 392.99684754530585 420.02044194505686C396.6311999718151 449.22741962718555 397.820624402309 478.8969512545063 396.82943737689743 508.3021663417173C393.6576388955803 508.96295769199173 390.4858404142631 509.4915907722112 387.38012106797345 509.5576699072387L379.05415005451596 516.958533030312C375.2215602229244 572.8614812635267 370.72817904105847 637.4868753203634 366.2347978591925 693.1915861484957L380.5739701601471 694.447089714017C385.3316678821228 640.7908320717354 390.155444739126 579.2050782261608 394.38450938088215 524.75587096355C398.5474948876109 524.161158748303 402.6444012593122 523.2360508579188 406.67522849598606 522.2448638325072L412.62235064845567 515.0422381145162C413.8117750789496 485.04231081205825 412.62235064845567 455.17454177965516 409.31839389708364 425.3728518822795C407.86465292648 411.43015439148957 405.9483580106842 395.2407663097666 392.7325310051961 386.7826370262543L392.46821446508636 386.8487161612817ZM187.0942627998014 383.6108385449371C184.9797304789233 383.148284599745 183.06343556312754 382.3553349794157 181.47753632246895 381.2319896839492C174.93570195475235 376.34213369191866 178.30573784115182 366.36418430277513 181.27929891738665 359.888429070086C184.3189391286489 352.8840407571773 187.6228958800209 345.1527819589667 187.68897501504836 336.7607318104818C188.4158455003502 319.7783941084296 174.47314800956025 303.45684775665177 157.09433549734342 303.9854808368713C139.18688990490708 303.3246894865969 125.0459550090348 320.50526459373145 126.30145857455616 337.7519188358934C126.56577511466594 349.3818466007229 132.97545121232767 358.1703715593725 135.61861661342527 368.6769540287355C137.60099066424849 376.60645023202835 133.63624256260206 382.2231767093608 126.10322116947385 383.3465220048273C106.67595547140635 388.69893194204997 100.39843764379951 409.91033428585837 97.68919310767446 427.48738420315755C92.79933711564387 453.8529590791063 89.69361776935416 480.5489296301922 90.02401344449136 507.31097931630563L96.10329386701588 514.711842439379C98.4160635929763 515.2404755195985 101.25746639915624 515.9012668698729 104.03279007030874 516.4959790851199C103.10768217992457 543.1258705011784 102.18257428954041 569.9539993223192 104.23102747539106 596.5178116033503L110.37638703294303 603.5882790512865L124.78163846892504 606.826156667631C127.35872473499522 633.522127218717 130.5966023513398 668.5440687832604 133.30584688746487 693.4559026886054L145.4644077325139 692.3325573931389C143.61419195174557 665.5044285719981 141.56573876589493 626.9802928510003 139.97983952523634 599.7556892196949L133.8344799676844 592.6191426367313L119.75962420683958 589.4473441554142C118.173724966181 562.9496110094105 119.36314939667494 536.1875613232971 120.09001988197677 509.6237490422661L113.6142646492876 502.2889650542202C111.49973232840952 501.8924902440556 108.72440865725702 501.29777802880864 106.01516412113196 500.6369866785342C106.01516412113196 477.11281460876546 108.52617125217469 453.4564842689417 112.55699848884856 430.26270787431014C114.7376099447541 418.236305299316 116.98430053568708 401.2539675972638 130.53052321631236 397.2892194956173C130.53052321631236 397.2892194956173 130.53052321631236 397.2892194956173 130.53052321631236 397.2892194956173C148.2397314036664 393.9191836092179 154.7154866363556 374.9544718563425 147.97541486355667 359.42587512489393C145.1340120573767 351.8267745967383 140.5084726054559 344.09551579852774 140.44239347042844 336.36425700031725C139.64944385009915 313.10440147065816 172.6890113638194 310.4612360695606 174.07667319939566 335.0426742997684C174.53922714458773 352.1571702718755 157.88728511767272 363.65493976665016 166.8079683463772 384.1394716251567C169.4511337474748 389.4258024273519 174.2088314694505 393.3244713939709 179.62732054170064 395.43900371484904C183.9224643184843 396.8927446854527 188.2176080952679 397.5535360357271 191.45548571161248 401.1218093272089C197.07221218894495 406.8706940745962 199.58321931998768 414.8662694129165 200.97088115556392 423.1261612913466C205.79465801256708 448.63270741193855 208.636060818747 474.6018074777227 208.37174427863727 500.5709075435068C205.59642060748473 501.1656197587538 202.82109693633225 501.8264111090282 200.70656461545417 502.2228859191928L194.230809382765 510.4827777976229C195.4202338132589 536.6501152684893 196.08102516353333 563.2139275495203 194.5612050579022 589.3812650203868L180.4863492970574 592.553063501704L174.3409897395054 599.6896100846675C172.8872487689017 626.2534223656985 170.77271644802363 666.1652199222726 169.0546589373102 692.332557393139L180.882824107222 693.389823553578C183.5920686433471 668.940543593425 186.96210452974654 633.1256524085524 189.53919079581672 606.7600775326036L203.94444223179875 603.522199916259L210.0898017893507 596.4517324683229C212.0060967051465 569.8879201872918 211.41138448989952 543.059791366151 210.35411832946048 516.4298999500925C213.12944200061298 515.8351877348455 215.838686536738 515.1743963845711 218.2175353977259 514.6457633043516L224.2968158202504 507.24490018127824C223.636024469976 472.8837499670092 220.72854252876863 438.3243623476578 210.55235573454283 405.350873968965C206.58760763289638 395.5711619849038 198.2616366194389 385.8575291358701 187.29250020488377 383.4786802748822L187.0942627998014 383.6108385449371ZM105.88300585107707 506.71626710105863C105.88300585107707 506.71626710105863 105.88300585107707 506.71626710105863 105.88300585107707 506.71626710105863ZM130.4644440812849 397.3552986306447C130.4644440812849 397.3552986306447 130.4644440812849 397.3552986306447 130.4644440812849 397.3552986306447C130.53052321631236 397.3552986306447 130.4644440812849 397.3552986306447 130.4644440812849 397.3552986306447ZM562.6219871607456 376.27605455689115C540.2872395214707 397.95001084589165 511.47673664950656 394.11742101430013 487.7543271746555 377.72979552749484L477.8424569205394 380.5051191986474C457.6883207371701 422.9940030212916 471.8953347680698 503.08191467454947 526.2123837606258 506.12155488581175C581.5206197785935 502.88367726946717 595.2650798643011 420.41691675522145 573.4589653052458 377.99411206760465L562.6219871607456 376.2760545568912V376.27605455689115ZM492.5120248966312 468.059973110006C486.1684279339969 456.1657288050667 482.3358381024054 440.90144861372795 482.3358381024054 424.24950658681297C482.3358381024054 421.47418291566044 482.4679963724603 418.7649383795354 482.6662337775425 416.0556938434104C492.97457884182325 426.03364323255386 509.23004605857363 436.54022570191694 528.789470026696 444.2714845001274C518.282887557333 454.3815921593258 502.4899742857747 465.813282519073 492.51202489663115 468.059973110006H492.5120248966312ZM526.2123837606259 492.77356961026874C516.4987509115922 492.77356961026874 507.57806768288765 487.81763448321067 500.3093628298692 479.49166346975323C514.5824559957963 474.1392535325306 532.4238224532053 460.06439777168566 542.6660883824585 449.02918222210315C550.066951505532 451.2097936780087 557.7982103037425 452.9278511887221 565.7277065070352 454.11727561921606C558.5911599240717 476.98065633871045 543.5911962728427 492.77356961026874 526.2123837606258 492.77356961026874H526.2123837606259ZM568.7673467182975 441.1657651538377C526.8731751109003 435.5490386765053 493.63537019209775 411.95878747170906 485.4415574486951 399.0072770063307C485.9701905289146 396.95882382048006 486.5649027441616 394.91037063462943 487.225694094436 392.99407571883364C495.81598164800323 397.8178525758368 510.8820244342597 404.82224088874545 526.2123837606259 404.82224088874545C543.4590380027879 404.82224088874545 557.0052606834131 397.4213777656721 564.8025986166512 391.73857215331225C570.0889294188464 406.54029839945895 571.4765912544227 425.1746144771971 568.7673467182975 441.1657651538377ZM526.2123837606259 377.00292504219306C546.3665199439952 377.00292504219306 562.7541454308005 360.6152995553878 562.7541454308005 340.46116337201846C561.036087920087 292.1573156669595 491.4547587361922 292.1573156669595 489.7367012254788 340.46116337201846C489.7367012254788 360.6152995553878 506.12432671228396 377.00292504219306 526.2784628956534 377.00292504219306H526.2123837606259ZM526.2123837606259 317.2673869773869C556.8731024133583 318.25857400279847 556.8731024133583 362.7298318762659 526.2123837606259 363.7210189016775C495.5516651078935 362.7298318762659 495.5516651078935 318.25857400279847 526.2123837606259 317.2673869773868V317.2673869773869ZM865.2644255864228 350.1747962210522C863.8106846158192 309.2718116390665 882.1146050184202 314.0955884960697 909.6035251898354 317.66386178755147L910.0 307.75199153343544C874.9119793004292 300.87976149058164 851.3878072306603 302.2674233261579 852.9076273362915 350.1747962210522C851.5860446357426 396.82666555042516 874.2511879501548 399.40375181649534 910.0 392.4654426386141L909.6035251898354 382.42141411444317C881.7181302082555 385.9236082708975 863.7446054807917 390.350910317736 865.2644255864228 350.1747962210522ZM815.9033117209249 383.41260113985476H812.7315132396078L795.4187798624183 306.5625671029415H781.4100032366009L764.1633489944389 383.41260113985476H760.9915505131219L747.2470904274143 306.03393402272195H734.6259756371732L752.2030255544722 393.85310447419033H772.555399142924L788.4143915495097 321.2321350790333L804.3394630911228 393.85310447419033H824.6918366795745L842.2028074618462 306.03393402272195H829.71385094166L815.9033117209249 383.41260113985476Z" fill="#000000"/>
</svg>
