<?xml version="1.0" encoding="UTF-8"?><svg id="uuid-3d59fe53-867f-486e-bdd4-8a9b5081f960" xmlns="http://www.w3.org/2000/svg" viewBox="0 0 606.21 946"><defs><style>.uuid-e44d930d-f21e-4984-a105-f0d427a63a67{fill:#111;}</style></defs><g id="uuid-3afe8757-9b9e-45d2-8869-0d8d32412ed1"><g id="uuid-bf86c558-e838-42ff-a3f9-9f2f5d921876"><path class="uuid-e44d930d-f21e-4984-a105-f0d427a63a67" d="M139,298h127v-72h-127v-39c0-76,11-115,61-115s73,7,73,7l1-69S216,0,184,0C94,0,55,52,55,186v40H0v72h55v648h76l7-220,1-428Z"/></g><path class="uuid-e44d930d-f21e-4984-a105-f0d427a63a67" d="M404.71,298h127v-72h-127v-39c0-76,11-115,61-115s139.5,14.9,139.5,14.9l1-69S481.71,0,449.71,0c-90,0-129,52-129,186v40h-55v72h55v648h76l7-220,1-428Z"/></g></svg>