<?xml version="1.0" encoding="UTF-8"?><svg id="uuid-95ffe8ab-9059-49a6-87e6-c316ad814cb3" xmlns="http://www.w3.org/2000/svg" viewBox="0 0 538.37 946"><defs><style>.uuid-124675c1-42ca-4111-ad66-d543f9dd9559{fill:#111;}</style></defs><g id="uuid-ad65680a-1c96-4eb9-aaf0-973231cadf5d"><g id="uuid-1cd9a90f-2933-4f49-948c-9b59da546984"><path class="uuid-124675c1-42ca-4111-ad66-d543f9dd9559" d="M139,298h127v-72h-127v-39c0-76,11-115,61-115s73,7,73,7l1-69S216,0,184,0C94,0,55,52,55,186v40H0v72h55v648h76l7-220,1-428Z"/><path class="uuid-124675c1-42ca-4111-ad66-d543f9dd9559" d="M403.37,298h127v-72h-127v-39c0-76,11-115,61-115s73,7,73,7l1-69S480.37,0,448.37,0c-90,0-129,52-129,186v40h-55v72h55v648h76l7-220,1-428Z"/></g></g></svg>