<?xml version="1.0" encoding="UTF-8"?><svg id="uuid-778395ef-0f46-4c8f-9576-0a4b71dc41b9" xmlns="http://www.w3.org/2000/svg" viewBox="0 0 541.05 946"><defs><style>.uuid-f4d61a5a-2458-443a-80de-32957010b78a{fill:#111;}</style></defs><g id="uuid-4fb20d5c-e098-4398-a241-b326e99a10d6"><g id="uuid-1d231d3a-0203-4cc6-a294-02e102a5eb61"><path class="uuid-f4d61a5a-2458-443a-80de-32957010b78a" d="M139,298h126.52v-72h-126.52v-39c0-76,11-115,61-115s198.72,13,198.72,13l1.09-69S216,0,184,0C94,0,55,52,55,186v40H0v72h55v648h76l7-220,1-428h0Z"/><path class="uuid-f4d61a5a-2458-443a-80de-32957010b78a" d="M534.72,298v-72h-136V81l-83-5v507c0,97,28,153,132,153s93-13,93-13l-4-65s-47,6-78,6c-45,0-60-33-60-86v-281l136,1Z"/></g></g></svg>