<?xml version="1.0" encoding="UTF-8"?><svg id="uuid-54fc3584-06ae-49f8-92e3-11751403bdec" xmlns="http://www.w3.org/2000/svg" viewBox="0 0 505.34 946"><defs><style>.uuid-7778db06-b1ea-4b6d-b41b-905b445ca7c0{fill:#111;}</style></defs><g id="uuid-b8054fd5-6dfd-49e3-884f-eaeec0e2d1e3"><g id="uuid-bd2ce59e-fb74-43e5-bf54-6885b44dd74c"><path class="uuid-7778db06-b1ea-4b6d-b41b-905b445ca7c0" d="M139,298h96.2v-72h-96.2v-39c0-76,11-115,61-115s162.9,13,162.9,13l1.1-69S216,0,184,0C94,0,55,52,55,186v40H0v72h55v648h76l7-220,1-428h0Z"/><path class="uuid-7778db06-b1ea-4b6d-b41b-905b445ca7c0" d="M499,298v-72h-136V81l-83-5v507c0,97,28,153,132,153s93-13,93-13l-4-65s-47,6-78,6c-45,0-60-33-60-86v-281l136,1Z"/></g></g></svg>