<?xml version="1.0" encoding="UTF-8"?><svg id="uuid-c98ced43-46cd-4d10-8a88-7de968ac891b" xmlns="http://www.w3.org/2000/svg" viewBox="0 0 61.2 102.66"><defs><style>.uuid-208a52af-737f-453a-94b2-dd5cbe413857{font-family:Goetheanum-Text-Englisch, 'Goetheanum Text';}.uuid-9acf070a-4802-46f1-b4b5-7403a2fb6f85{font-size:19px;}.uuid-9acf070a-4802-46f1-b4b5-7403a2fb6f85,.uuid-17cc99e5-0533-4c75-9eee-cf746feb61e8{fill:#222221;}.uuid-63aa547c-e762-4785-ae17-51b88e62c0a4{font-family:Goetheanum-Text-Deutsch, 'Goetheanum Text';}.uuid-68c87f1d-ac8b-4947-9e7b-d1e9f9498d28{letter-spacing:-.02em;}.uuid-d6b0756a-6c58-4284-bf4d-61a517e35138{letter-spacing:0em;}</style></defs><g id="uuid-0c0016d0-3a6e-4927-9920-e10380e3be76"><text class="uuid-9acf070a-4802-46f1-b4b5-7403a2fb6f85" transform="translate(4.73 74.57)"><tspan class="uuid-63aa547c-e762-4785-ae17-51b88e62c0a4"><tspan x="0" y="0">Ei</tspan><tspan class="uuid-d6b0756a-6c58-4284-bf4d-61a517e35138" x="14.88" y="0">n</tspan><tspan x="25.14" y="0">tritt</tspan></tspan><tspan class="uuid-208a52af-737f-453a-94b2-dd5cbe413857"><tspan class="uuid-68c87f1d-ac8b-4947-9e7b-d1e9f9498d28" x="13.84" y="22.8">F</tspan><tspan x="23.47" y="22.8">ee</tspan></tspan></text><path class="uuid-17cc99e5-0533-4c75-9eee-cf746feb61e8" d="M9.64,22.6c3.04-1.03,6.55-.57,9.18,1.28-2.75,1.45-4.37,4.74-3.74,7.8.19,1.26.82,2.76,2.32,2.72.71,0,5.11-1.66,5.85-1.85-.1,5.59-4.68,10.1-10.29,10.1-11.61-.2-14.23-16.12-3.32-20.05M25.1,21.26l-3.46,1.43c-1.35-1.21-2.93-2.12-4.65-2.68l.24-3.85,3.85-3.03c1.09-.86,2.62-.86,3.71,0l1.52,1.18c2.5,1.85,1.59,5.92-1.2,6.96M55.64,1.54s-.4-1.52-.4-1.54h-29.37c-2.11,0-4.19.72-5.85,2.03l-9.64,7.58c-1.61,1.26-2.53,3.16-2.53,5.2l.61,5.33c-13.51,5.22-10,24.99,4.5,25.23,7.39.03,13.49-6.32,12.97-13.72l11.4-3.74c2.48-.79,4.31-1.68,7.43-4.33l.04-.04,3.76-3.86c1.31-1.56,4.37-1.9,6.5-1.78l.53-1.71c-2.27.13-6.13-.17-7.49,1.34l-3.77,3.62c-3.03,2.57-5.35,3.44-7.23,4.04-4.15,1.46-15.25,5.37-19.3,6.67-.57-2.31.43-4.88,2.69-5.78,0,0,2.56-1.06,2.56-1.06,1.73-.76,4.46-1.56,5.66-3.11,2.7-2.84,2.06-7.46-1.07-9.77,0,0-1.21-.88-1.21-.88-2.08-1.63-4.99-1.63-7.07,0l-3.99,3.14c-.57.45-.59.82-.59,1.55v3.45c-.88-.05-1.78-.13-2.67-.06-.62.02-1.25.17-1.88.19l-.37-4.74c0-1.2.54-2.32,1.49-3.06l9.95-7.89c1.18-.93,3.03-1.82,4.54-1.82l29.76-.5h0s0,0,0,0Z"/></g></svg>