<?xml version="1.0" encoding="UTF-8"?><svg id="uuid-9f90346b-4294-4594-b49d-1d0dd00a207c" xmlns="http://www.w3.org/2000/svg" viewBox="0 0 61.33 110.79"><defs><style>.uuid-f920f8ae-8770-4e69-9a25-4c1b6402210d{font-family:Goetheanum-Titel-Englisch, 'Goetheanum Titel';font-style:italic;}.uuid-082cd1c6-9eb2-43a6-a9ca-26af5992949e{font-family:GoetheanumTitel-Deutsch, 'Goetheanum Titel';}.uuid-1662a597-18d8-43c1-84b9-6809ae20e0af{stroke:#3c3c3b;stroke-miterlimit:10;stroke-width:.5px;}.uuid-1662a597-18d8-43c1-84b9-6809ae20e0af,.uuid-70a36dde-a493-497c-9754-e65eb2ca9d9e{fill:#3c3c3b;}.uuid-7dc363f7-7073-42ed-9b9a-836d03d3a87e{letter-spacing:0em;}.uuid-70a36dde-a493-497c-9754-e65eb2ca9d9e{font-size:17.92px;}</style></defs><g id="uuid-7d8659f2-a659-4201-81ed-7861aa888358"><path class="uuid-1662a597-18d8-43c1-84b9-6809ae20e0af" d="M61.08,33.04c-.14-2.42-1.59-4.34-2.7-6.31-3.07-4.93-6.19-9.77-8.99-14.8-1.44-2.51-2.75-5.07-4.39-7.55-.83-1.19-1.8-2.56-3.48-3.15-3.29-1.22-5.61,2.31-8.02,3.53-4.58,2.15-6.82-3.65-11.28-4.19-3.02-.37-8.51-1.12-9.67,2.73-.51,2.34-1.07,4.82-1.66,7.14-1.51.78-2.97,1.59-4.39,2.58-.75.56-1.51,1.09-2.19,2.05-.61,1.02-.68,2.07-.73,3-.19,3.51.41,7.33.41,10.7-.2,1.9-1.12,2.53-2.9,3.48-2.09,1.71.14,4.31,1.59,5.49,2.76,2.41,5.61,4.51,8.38,6.82,1.88,1.73,4.54,2.73,5.32,5.32.66,1.76.24,3.32.7,5.26,1.97,5.41,9.33,3.02,13.24,1.64,3.65-1,6.34-4.39,7.94-7.53.86-1.37,2.07-2.26,3.61-2.65,4.95,2.05,10.06,1.59,10.45-4.83.08-1.25,0-2.48-.2-3.7,3.27-.51,8.77-1.31,8.95-5.04ZM58.86,34.3c-2.07,1.49-5.21,1.93-7.78,2.29-3.68.27-7.6.44-11.21-.41-.02-.03-.02-.1-.02-.14.88-7.46,1.66-15.06.86-22.59l-1,.08c.61,7.34-.17,14.62-1.24,21.89-.05.61-.2,1.51.53,1.97,3.67,1.28,7.65,1.01,11.49.97,1.09,6.45-1.35,9.54-8.14,6.8-3.41-1.63-6.79-3.58-10.44-4.74-.25-.06-.52-.08-.85.07-.29.13-.43.44-.51.66-.71,3.08-.75,6.18-1.22,9.28l.92.18c.72-2.81.92-5.77,1.63-8.55,2.54.89,5.4,2.43,7.97,3.69-.33.17-.63.34-.85.5-2.31,1.59-3.14,4.68-4.95,6.49-2.37,2.39-6.09,3.27-9.33,3.82-1.66.22-3.46.25-4.68-.44-1.54-.85-1.36-2.29-1.49-3.97-.19-1.92-.83-3.87-2.29-5.36-4.34-3.24-8.6-6.58-12.65-10.09-.81-.78-2.65-2.34-1.66-3.32,4.56-1.81,3.51-6.09,3.29-9.94.07-2.41-.47-5.32.47-7.5,1.52-1.78,4.04-3,6.16-4.13,1.2-.5,2.57-1.22,3.81-1.77,1.34-.58,4.17-1.98,5.65-2.46.97,1.1,1.07,2.76,1.22,4.26.17,5.31-1.15,10.65-2.66,15.74l1.1.39c1.87-6.53,4.63-13.75,2.13-20.47-.32-.59-.86-1.51-1.68-1.49-.37.03-.44.1-.75.19-2.46.92-5.45,2.4-8.02,3.52.28-1.7.62-3.44.93-5.1.68-3.76,5.61-2.97,8.31-2.56,3.1.49,4.56,2.82,7.38,4.09,1.54.54,3.26.49,4.73-.19,2.54-1.09,4.15-4.34,7.04-3.44,1.12.37,2,1.49,2.76,2.65,4.36,7.39,8.55,15.16,13.23,22.37.97,1.73,2.27,3.56,2.42,5.49,0,.53-.2.88-.64,1.27ZM29.76,35.13c-2.17,3.09-4.07,6.92-7.45,9.05-.51.31-1.76.51-2.29-.31-.39-.46-.95-1.44-1.27-1.97-1.19-2.04-2.63-4.78-3.61-6.55-.68.14-1.59.49-2.26.56-.22.03-.53.02-.78-.05-.2-.03-.58-.53-.54-.75-.03-4.63.57-9.34.15-13.92l.8-.14c.64,4.43.39,8.92.51,13.33.47-.1,1.12-.32,1.42-.41.54-.08.92-.41,1.59.1,1.61,2.2,3.49,6.6,5.1,8.85.02.03.05.08.05.08.08,0,.31-.02.51-.14,3.05-1.9,5.04-5.26,7.29-8.16l.76.39ZM34.73,13.03c.2.9-.38,1.69-.79,2.41-1.01,1.61-2.31,3.07-3.57,4.42l-.75-.53c.98-1.86,2.7-4.46,3.35-5.8-.21-.47-1.8-1.26-2.44-1.61-1.05-.54-2.16-1-3.3-1.45l.3-1.13c2.26.34,4.48,1.13,6.35,2.5.3.24.69.61.86,1.19Z"/><text class="uuid-70a36dde-a493-497c-9754-e65eb2ca9d9e" transform="translate(5.58 84.33) scale(1.06 1)"><tspan class="uuid-082cd1c6-9eb2-43a6-a9ca-26af5992949e"><tspan x="0" y="0">Papier</tspan></tspan><tspan class="uuid-f920f8ae-8770-4e69-9a25-4c1b6402210d"><tspan class="uuid-7dc363f7-7073-42ed-9b9a-836d03d3a87e" x="2.56" y="21.51">P</tspan><tspan x="12.28" y="21.51">aper</tspan></tspan></text></g></svg>