<?xml version="1.0" encoding="UTF-8"?><svg id="uuid-efb605f8-455a-4046-a076-900e4653ca18" xmlns="http://www.w3.org/2000/svg" viewBox="0 0 95.12 59.32"><defs><style>.uuid-4fb72b65-897b-4d49-a051-4b658b633bec{fill:#121212;}.uuid-9a1f17c6-2978-433c-82fc-c42a283e4c53{fill:#222221;}</style></defs><g id="uuid-f0281bc6-6102-4984-9562-51a1ec1f054e"><path class="uuid-9a1f17c6-2978-433c-82fc-c42a283e4c53" d="M62.18,19.46s0,0,0,0c0,0,0,.04,0,0"/><path class="uuid-9a1f17c6-2978-433c-82fc-c42a283e4c53" d="M63.07,23.84v-.02s0-.02,0,.02"/><path class="uuid-9a1f17c6-2978-433c-82fc-c42a283e4c53" d="M82.01,57.1c-.14-4.82-.59-9.98-1.13-14.79l-.77-.99c-2.98-1.1-6.08-1.87-9.18-2.54-1.02-1.47-2.33-2.72-3.85-3.67-.19-2.04-.35-4.18-1.08-6.12-.65-1.87-2.59-3.09-2.93-4.89,0,0,0,0,0,0,0,0,0,.02,0,.03,0-.02,0-.03,0-.03.09-1.88,1.51-3.75,1.4-5.78.17-3.9-4.13-6.57-7.51-4.51-2.5,1.59-2.85,5.06-1.73,7.58.14.39.24.8.29,1.23.25,1.94-.38,4.29-.6,6.38-.21,1.82-.35,3.65-.32,5.49-12.17,6.07-8.11,24.4,5.67,24.59,6.34,0,11.63-4.58,12.73-10.6.24.01.48.03.72.04.54,3.58.91,7.21,1.21,10.82l2.02-.13c-.16-3.95-.46-8.08-.9-12.03,0,0-1.15-1.1-1.15-1.1l-1.69-.22c-.03-1.49-.31-2.91-.81-4.24,2.08.47,4.16,1.02,6.18,1.71.7,5.24,1.17,10.7,1.4,15.98l2.09-.09-.07-2.11ZM57.01,32.19c-.06-3.4.99-6.36.63-9.88-.09-.85-.44-1.67-.73-2.48-.53-1.72-.04-4.18,1.94-4.61,1.18-.27,2.49.21,3.1,1.28,1.44,2.48-.97,4.95-.99,7.49-.04,2.64,2.72,4.13,3.24,6.52.25,1.11.39,2.27.48,3.43-2.35-.88-5.21-1.01-7.66-.36-.01-.46-.01-.92,0-1.39M60.27,56.9c-5.95,0-10.78-4.84-10.78-10.78.59-14.3,20.97-14.3,21.56,0,0,5.94-4.84,10.78-10.78,10.78"/><path class="uuid-4fb72b65-897b-4d49-a051-4b658b633bec" d="M11.93,58.78c.27-3.96.58-10,.8-14.02l.93-1.08,3.02-.68-.93,1.07c.31-4.24.18-8.56,0-12.81l.99-1.25c.58-.11,1.5-.33,2.09-.46l-.92,1.12c.12-4.22-.34-8.47-1.12-12.62-.21-1.26-.59-2.47-1.44-3.33-.48-.54-1.14-.63-1.79-.86-.82-.32-1.54-.91-1.94-1.71-1.35-3.1,1.18-4.84,1.1-7.43-.22-3.72-5.22-3.32-5.09.2.01,1.18.7,2.34,1.14,3.49,1.02,2.34.04,5.22-2.64,5.73.05-.01,0,0,.01,0-2.06.6-2.39,3.17-2.72,4.99-.66,3.8-1.07,7.69-1,11.55h0s-.92-1.12-.92-1.12c.59.13,1.51.35,2.09.46l.98,1.11c-.12,4.31-.34,8.65,0,12.95l-.93-1.07,3.02.68.93,1.08c.24,4.13.55,9.95.83,14.01l-1.84.17c-.44-4.06-.98-9.89-1.38-14l.93,1.08-3.02-.68-.93-1.07c-.32-4.32-.15-8.68,0-13l.99,1.11c-.65-.12-1.56-.34-2.21-.49L0,30.77c-.05-4.06.42-8.1,1.15-12.08.41-2.66,1.36-5.87,4.3-6.68,1.14-.17,1.74-1.02,1.44-2.22-.4-1.58-1.37-2.92-1.41-4.68C5.3,2.5,7.44-.1,10.15,0c2.64-.08,4.75,2.39,4.63,4.95,0,1.27-.51,2.44-.97,3.5-.45.99-.96,2.5.03,3.23.24.18.53.29.85.36,1.66.36,2.92,1.83,3.52,3.31,1.54,4.99,1.97,10.22,2.08,15.42l-.92,1.12c-.66.15-1.55.36-2.21.49l.99-1.25c.2,4.36.32,8.78,0,13.14l-.93,1.07-3.02.68.93-1.08c-.39,4.04-.96,10.02-1.4,14l-1.79-.16Z"/><path class="uuid-9a1f17c6-2978-433c-82fc-c42a283e4c53" d="M36.94,28.57c-1.47,0-2.82-.75-3.92-2.01,2.16-.81,4.86-2.94,6.41-4.61,1.12.33,2.29.59,3.49.77-1.08,3.46-3.35,5.85-5.98,5.85M30.3,18.2c0-.42.02-.83.05-1.24,1.56,1.51,4.02,3.1,6.98,4.27-1.59,1.53-3.97,3.26-5.49,3.6-.96-1.8-1.54-4.11-1.54-6.63M36.94,15.26c2.61,0,4.66-1.12,5.84-1.98.8,2.24,1.01,5.06.6,7.48-6.34-.85-11.37-4.42-12.61-6.38.08-.31.17-.62.27-.91,1.3.73,3.58,1.79,5.9,1.79M44.1,11.19l-1.64-.26c-3.38,3.28-7.74,2.7-11.33.22l-1.5.42c-3.05,6.43-.9,18.55,7.33,19.01,8.37-.49,10.45-12.97,7.15-19.39"/><path class="uuid-9a1f17c6-2978-433c-82fc-c42a283e4c53" d="M36.94,2.01c4.64.15,4.64,6.88,0,7.03-4.64-.15-4.64-6.88,0-7.03M36.94,11.05c3.05,0,5.53-2.48,5.53-5.53-.26-7.31-10.79-7.31-11.05,0,0,3.05,2.48,5.53,5.53,5.53"/><path class="uuid-9a1f17c6-2978-433c-82fc-c42a283e4c53" d="M95.12,13.69l-.06-1.52c-4.22.53-6.94,1.2-6.71-4.88-.22-6.19,2.55-5.46,6.71-4.92l.06-1.5c-5.31-1.04-8.87-.83-8.64,6.42-.2,7.06,3.23,7.45,8.64,6.4M72.57,12.32l-2.08-11.71h-1.91l2.66,13.29h3.09l2.39-10.99,2.41,10.99h3.09l2.64-13.29h-1.89l-2.08,11.71h-.48l-2.62-11.63h-2.12l-2.6,11.63h-.48Z"/></g></svg>