<svg xmlns="http://www.w3.org/2000/svg" width="5910" height="4160" viewBox="0 0 5910 4160">
<rect width="5910" height="4160" fill="#fff"/>
<text x="60" y="86" font-family="Helvetica,Arial" font-size="46" fill="#23272b">f-Ligaturen — editierbar, je Glyph eine Gruppe</text>
<g id="metriken" stroke="#d8d2c4" stroke-width="1.5" fill="none"><line x1="60" y1="1020" x2="1090" y2="1020"/><line x1="60" y1="520" x2="1090" y2="520"/><line x1="60" y1="330" x2="1090" y2="330"/><line x1="60" y1="1240" x2="1090" y2="1240"/><text x="80" y="1320" stroke="none" fill="#9aa0a6" font-family="Helvetica,Arial" font-size="30">ff</text><line x1="1210" y1="1020" x2="2240" y2="1020"/><line x1="1210" y1="520" x2="2240" y2="520"/><line x1="1210" y1="330" x2="2240" y2="330"/><line x1="1210" y1="1240" x2="2240" y2="1240"/><text x="1230" y="1320" stroke="none" fill="#9aa0a6" font-family="Helvetica,Arial" font-size="30">fb</text><line x1="2360" y1="1020" x2="3390" y2="1020"/><line x1="2360" y1="520" x2="3390" y2="520"/><line x1="2360" y1="330" x2="3390" y2="330"/><line x1="2360" y1="1240" x2="3390" y2="1240"/><text x="2380" y="1320" stroke="none" fill="#9aa0a6" font-family="Helvetica,Arial" font-size="30">fh</text><line x1="3510" y1="1020" x2="4540" y2="1020"/><line x1="3510" y1="520" x2="4540" y2="520"/><line x1="3510" y1="330" x2="4540" y2="330"/><line x1="3510" y1="1240" x2="4540" y2="1240"/><text x="3530" y="1320" stroke="none" fill="#9aa0a6" font-family="Helvetica,Arial" font-size="30">fi</text><line x1="4660" y1="1020" x2="5690" y2="1020"/><line x1="4660" y1="520" x2="5690" y2="520"/><line x1="4660" y1="330" x2="5690" y2="330"/><line x1="4660" y1="1240" x2="5690" y2="1240"/><text x="4680" y="1320" stroke="none" fill="#9aa0a6" font-family="Helvetica,Arial" font-size="30">fj</text><line x1="60" y1="2340" x2="1090" y2="2340"/><line x1="60" y1="1840" x2="1090" y2="1840"/><line x1="60" y1="1650" x2="1090" y2="1650"/><line x1="60" y1="2560" x2="1090" y2="2560"/><text x="80" y="2640" stroke="none" fill="#9aa0a6" font-family="Helvetica,Arial" font-size="30">fk</text><line x1="1210" y1="2340" x2="2240" y2="2340"/><line x1="1210" y1="1840" x2="2240" y2="1840"/><line x1="1210" y1="1650" x2="2240" y2="1650"/><line x1="1210" y1="2560" x2="2240" y2="2560"/><text x="1230" y="2640" stroke="none" fill="#9aa0a6" font-family="Helvetica,Arial" font-size="30">fl</text><line x1="2360" y1="2340" x2="3390" y2="2340"/><line x1="2360" y1="1840" x2="3390" y2="1840"/><line x1="2360" y1="1650" x2="3390" y2="1650"/><line x1="2360" y1="2560" x2="3390" y2="2560"/><text x="2380" y="2640" stroke="none" fill="#9aa0a6" font-family="Helvetica,Arial" font-size="30">ft</text><line x1="3510" y1="2340" x2="4540" y2="2340"/><line x1="3510" y1="1840" x2="4540" y2="1840"/><line x1="3510" y1="1650" x2="4540" y2="1650"/><line x1="3510" y1="2560" x2="4540" y2="2560"/><text x="3530" y="2640" stroke="none" fill="#9aa0a6" font-family="Helvetica,Arial" font-size="30">ffb</text><line x1="4660" y1="2340" x2="5690" y2="2340"/><line x1="4660" y1="1840" x2="5690" y2="1840"/><line x1="4660" y1="1650" x2="5690" y2="1650"/><line x1="4660" y1="2560" x2="5690" y2="2560"/><text x="4680" y="2640" stroke="none" fill="#9aa0a6" font-family="Helvetica,Arial" font-size="30">ffh</text><line x1="60" y1="3660" x2="1090" y2="3660"/><line x1="60" y1="3160" x2="1090" y2="3160"/><line x1="60" y1="2970" x2="1090" y2="2970"/><line x1="60" y1="3880" x2="1090" y2="3880"/><text x="80" y="3960" stroke="none" fill="#9aa0a6" font-family="Helvetica,Arial" font-size="30">ffi</text><line x1="1210" y1="3660" x2="2240" y2="3660"/><line x1="1210" y1="3160" x2="2240" y2="3160"/><line x1="1210" y1="2970" x2="2240" y2="2970"/><line x1="1210" y1="3880" x2="2240" y2="3880"/><text x="1230" y="3960" stroke="none" fill="#9aa0a6" font-family="Helvetica,Arial" font-size="30">ffj</text><line x1="2360" y1="3660" x2="3390" y2="3660"/><line x1="2360" y1="3160" x2="3390" y2="3160"/><line x1="2360" y1="2970" x2="3390" y2="2970"/><line x1="2360" y1="3880" x2="3390" y2="3880"/><text x="2380" y="3960" stroke="none" fill="#9aa0a6" font-family="Helvetica,Arial" font-size="30">ffk</text><line x1="3510" y1="3660" x2="4540" y2="3660"/><line x1="3510" y1="3160" x2="4540" y2="3160"/><line x1="3510" y1="2970" x2="4540" y2="2970"/><line x1="3510" y1="3880" x2="4540" y2="3880"/><text x="3530" y="3960" stroke="none" fill="#9aa0a6" font-family="Helvetica,Arial" font-size="30">ffl</text><line x1="4660" y1="3660" x2="5690" y2="3660"/><line x1="4660" y1="3160" x2="5690" y2="3160"/><line x1="4660" y1="2970" x2="5690" y2="2970"/><line x1="4660" y1="3880" x2="5690" y2="3880"/><text x="4680" y="3960" stroke="none" fill="#9aa0a6" font-family="Helvetica,Arial" font-size="30">fft</text></g>
<g id="ff" fill="#111"><path d="M248.0 592.0L375.0 592.0L375.0 520.0L248.0 520.0L248.0 481.0C248.0 405.0 259.0 366.0 309.0 366.0C338.0 366.0 382.0 373.0 382.0 373.0L383.0 304.0C383.0 304.0 325.0 294.0 293.0 294.0C203.0 294.0 164.0 346.0 164.0 480.0L164.0 520.0L109.0 520.0L109.0 592.0L164.0 592.0L164.0 1240.0L240.0 1240.0L247.0 1020.0Z"/><path d="M560.0 592.0L687.0 592.0L687.0 520.0L560.0 520.0L560.0 481.0C560.0 405.0 571.0 366.0 621.0 366.0C650.0 366.0 694.0 373.0 694.0 373.0L695.0 304.0C695.0 304.0 637.0 294.0 605.0 294.0C515.0 294.0 476.0 346.0 476.0 480.0L476.0 520.0L421.0 520.0L421.0 592.0L476.0 592.0L476.0 1240.0L552.0 1240.0L559.0 1020.0Z"/></g>
<g id="fb" fill="#111"><path d="M1398.0 592.0L1525.0 592.0L1525.0 520.0L1398.0 520.0L1398.0 481.0C1398.0 405.0 1409.0 366.0 1459.0 366.0C1488.0 366.0 1532.0 373.0 1532.0 373.0L1533.0 304.0C1533.0 304.0 1475.0 294.0 1443.0 294.0C1353.0 294.0 1314.0 346.0 1314.0 480.0L1314.0 520.0L1259.0 520.0L1259.0 592.0L1314.0 592.0L1314.0 1240.0L1390.0 1240.0L1397.0 1020.0Z"/><path d="M1740.0 510.0C1665.0 510.0 1600.0 576.0 1600.0 576.0L1600.0 304.0L1517.0 304.0L1517.0 1018.0C1517.0 1018.0 1633.0 1029.0 1691.0 1029.0C1843.0 1029.0 1905.0 947.0 1905.0 759.0C1905.0 602.0 1867.0 508.0 1741.0 508.0ZM1695.0 956.0C1673.0 956.0 1602.0 949.0 1602.0 949.0L1602.0 646.0C1602.0 646.0 1660.0 580.0 1725.0 580.0C1801.0 580.0 1820.0 656.0 1820.0 758.0C1820.0 891.0 1794.0 956.0 1694.0 956.0Z"/></g>
<g id="fh" fill="#111"><path d="M2548.0 592.0L2675.0 592.0L2675.0 520.0L2548.0 520.0L2548.0 481.0C2548.0 405.0 2559.0 366.0 2609.0 366.0C2638.0 366.0 2682.0 373.0 2682.0 373.0L2683.0 304.0C2683.0 304.0 2625.0 294.0 2593.0 294.0C2503.0 294.0 2464.0 346.0 2464.0 480.0L2464.0 520.0L2409.0 520.0L2409.0 592.0L2464.0 592.0L2464.0 1240.0L2540.0 1240.0L2547.0 1020.0Z"/><path d="M2750.0 1020.0L2750.0 668.0C2750.0 668.0 2810.0 582.0 2874.0 582.0C2939.0 582.0 2963.0 628.0 2963.0 732.0L2963.0 1020.0L3046.0 1020.0L3046.0 708.0C3046.0 589.0 3003.0 509.0 2891.0 509.0C2808.0 509.0 2750.0 589.0 2750.0 589.0L2750.0 304.0L2667.0 304.0L2667.0 1019.0Z"/></g>
<g id="fi" fill="#111"><path d="M3698.0 592.0L3825.0 592.0L3825.0 520.0L3698.0 520.0L3698.0 481.0C3698.0 405.0 3709.0 366.0 3759.0 366.0C3788.0 366.0 3832.0 373.0 3832.0 373.0L3833.0 304.0C3833.0 304.0 3775.0 294.0 3743.0 294.0C3653.0 294.0 3614.0 346.0 3614.0 480.0L3614.0 520.0L3559.0 520.0L3559.0 592.0L3614.0 592.0L3614.0 1240.0L3690.0 1240.0L3697.0 1020.0Z"/><path d="M3816.0 1020.0L3899.0 1020.0L3899.0 520.0L3816.0 520.0Z"/></g>
<g id="fj" fill="#111"><path d="M4848.0 592.0L4975.0 592.0L4975.0 520.0L4848.0 520.0L4848.0 481.0C4848.0 405.0 4859.0 366.0 4909.0 366.0C4938.0 366.0 4982.0 373.0 4982.0 373.0L4983.0 304.0C4983.0 304.0 4925.0 294.0 4893.0 294.0C4803.0 294.0 4764.0 346.0 4764.0 480.0L4764.0 520.0L4709.0 520.0L4709.0 592.0L4764.0 592.0L4764.0 1240.0L4840.0 1240.0L4847.0 1020.0Z"/><path d="M4966.0 1020.0C4966.0 1111.0 4962.0 1125.0 4856.0 1190.0L4888.0 1254.0C5037.0 1176.0 5050.0 1151.0 5050.0 1020.0L5050.0 520.0L4967.0 520.0Z"/></g>
<g id="fk" fill="#111"><path d="M248.0 1912.0L375.0 1912.0L375.0 1840.0L248.0 1840.0L248.0 1801.0C248.0 1725.0 259.0 1686.0 309.0 1686.0C338.0 1686.0 382.0 1693.0 382.0 1693.0L383.0 1624.0C383.0 1624.0 325.0 1614.0 293.0 1614.0C203.0 1614.0 164.0 1666.0 164.0 1800.0L164.0 1840.0L109.0 1840.0L109.0 1912.0L164.0 1912.0L164.0 2560.0L240.0 2560.0L247.0 2340.0Z"/><path d="M450.0 2340.0L450.0 2117.0L511.0 2112.0L648.0 2340.0L741.0 2340.0L580.0 2071.0L738.0 1840.0L645.0 1840.0L510.0 2041.0L450.0 2045.0L450.0 1625.0L367.0 1625.0L367.0 2340.0Z"/></g>
<g id="fl" fill="#111"><path d="M1398.0 1912.0L1525.0 1912.0L1525.0 1840.0L1398.0 1840.0L1398.0 1801.0C1398.0 1725.0 1409.0 1686.0 1459.0 1686.0C1488.0 1686.0 1532.0 1693.0 1532.0 1693.0L1533.0 1624.0C1533.0 1624.0 1475.0 1614.0 1443.0 1614.0C1353.0 1614.0 1314.0 1666.0 1314.0 1800.0L1314.0 1840.0L1259.0 1840.0L1259.0 1912.0L1314.0 1912.0L1314.0 2560.0L1390.0 2560.0L1397.0 2340.0Z"/><path d="M1520.0 2340.0L1604.0 2340.0L1604.0 1625.0L1520.0 1625.0Z"/></g>
<g id="ft" fill="#111"><path d="M2548.0 1912.0L2675.0 1912.0L2675.0 1840.0L2548.0 1840.0L2548.0 1801.0C2548.0 1725.0 2559.0 1686.0 2609.0 1686.0C2638.0 1686.0 2682.0 1693.0 2682.0 1693.0L2683.0 1624.0C2683.0 1624.0 2625.0 1614.0 2593.0 1614.0C2503.0 1614.0 2464.0 1666.0 2464.0 1800.0L2464.0 1840.0L2409.0 1840.0L2409.0 1912.0L2464.0 1912.0L2464.0 2560.0L2540.0 2560.0L2547.0 2340.0Z"/><path d="M2908.0 1912.0L2908.0 1840.0L2772.0 1840.0L2772.0 1695.0L2689.0 1695.0L2689.0 1840.0L2626.0 1840.0L2626.0 1912.0L2689.0 1912.0L2689.0 2197.0C2689.0 2294.0 2717.0 2350.0 2821.0 2350.0C2855.0 2350.0 2914.0 2337.0 2914.0 2337.0L2910.0 2272.0C2910.0 2272.0 2863.0 2278.0 2832.0 2278.0C2787.0 2278.0 2772.0 2245.0 2772.0 2192.0L2772.0 1911.0Z"/></g>
<g id="ffb" fill="#111"><path d="M3698.0 1912.0L3825.0 1912.0L3825.0 1840.0L3698.0 1840.0L3698.0 1801.0C3698.0 1725.0 3709.0 1686.0 3759.0 1686.0C3788.0 1686.0 3832.0 1693.0 3832.0 1693.0L3833.0 1624.0C3833.0 1624.0 3775.0 1614.0 3743.0 1614.0C3653.0 1614.0 3614.0 1666.0 3614.0 1800.0L3614.0 1840.0L3559.0 1840.0L3559.0 1912.0L3614.0 1912.0L3614.0 2560.0L3690.0 2560.0L3697.0 2340.0Z"/><path d="M4010.0 1912.0L4137.0 1912.0L4137.0 1840.0L4010.0 1840.0L4010.0 1801.0C4010.0 1725.0 4021.0 1686.0 4071.0 1686.0C4100.0 1686.0 4144.0 1693.0 4144.0 1693.0L4145.0 1624.0C4145.0 1624.0 4087.0 1614.0 4055.0 1614.0C3965.0 1614.0 3926.0 1666.0 3926.0 1800.0L3926.0 1840.0L3871.0 1840.0L3871.0 1912.0L3926.0 1912.0L3926.0 2560.0L4002.0 2560.0L4009.0 2340.0Z"/><path d="M4352.0 1830.0C4277.0 1830.0 4212.0 1896.0 4212.0 1896.0L4212.0 1624.0L4129.0 1624.0L4129.0 2338.0C4129.0 2338.0 4245.0 2349.0 4303.0 2349.0C4455.0 2349.0 4517.0 2267.0 4517.0 2079.0C4517.0 1922.0 4479.0 1828.0 4353.0 1828.0ZM4307.0 2276.0C4285.0 2276.0 4214.0 2269.0 4214.0 2269.0L4214.0 1966.0C4214.0 1966.0 4272.0 1900.0 4337.0 1900.0C4413.0 1900.0 4432.0 1976.0 4432.0 2078.0C4432.0 2211.0 4406.0 2276.0 4306.0 2276.0Z"/></g>
<g id="ffh" fill="#111"><path d="M4848.0 1912.0L4975.0 1912.0L4975.0 1840.0L4848.0 1840.0L4848.0 1801.0C4848.0 1725.0 4859.0 1686.0 4909.0 1686.0C4938.0 1686.0 4982.0 1693.0 4982.0 1693.0L4983.0 1624.0C4983.0 1624.0 4925.0 1614.0 4893.0 1614.0C4803.0 1614.0 4764.0 1666.0 4764.0 1800.0L4764.0 1840.0L4709.0 1840.0L4709.0 1912.0L4764.0 1912.0L4764.0 2560.0L4840.0 2560.0L4847.0 2340.0Z"/><path d="M5160.0 1912.0L5287.0 1912.0L5287.0 1840.0L5160.0 1840.0L5160.0 1801.0C5160.0 1725.0 5171.0 1686.0 5221.0 1686.0C5250.0 1686.0 5294.0 1693.0 5294.0 1693.0L5295.0 1624.0C5295.0 1624.0 5237.0 1614.0 5205.0 1614.0C5115.0 1614.0 5076.0 1666.0 5076.0 1800.0L5076.0 1840.0L5021.0 1840.0L5021.0 1912.0L5076.0 1912.0L5076.0 2560.0L5152.0 2560.0L5159.0 2340.0Z"/><path d="M5362.0 2340.0L5362.0 1988.0C5362.0 1988.0 5422.0 1902.0 5486.0 1902.0C5551.0 1902.0 5575.0 1948.0 5575.0 2052.0L5575.0 2340.0L5658.0 2340.0L5658.0 2028.0C5658.0 1909.0 5615.0 1829.0 5503.0 1829.0C5420.0 1829.0 5362.0 1909.0 5362.0 1909.0L5362.0 1624.0L5279.0 1624.0L5279.0 2339.0Z"/></g>
<g id="ffi" fill="#111"><path d="M248.0 3232.0L375.0 3232.0L375.0 3160.0L248.0 3160.0L248.0 3121.0C248.0 3045.0 259.0 3006.0 309.0 3006.0C338.0 3006.0 382.0 3013.0 382.0 3013.0L383.0 2944.0C383.0 2944.0 325.0 2934.0 293.0 2934.0C203.0 2934.0 164.0 2986.0 164.0 3120.0L164.0 3160.0L109.0 3160.0L109.0 3232.0L164.0 3232.0L164.0 3880.0L240.0 3880.0L247.0 3660.0Z"/><path d="M560.0 3232.0L687.0 3232.0L687.0 3160.0L560.0 3160.0L560.0 3121.0C560.0 3045.0 571.0 3006.0 621.0 3006.0C650.0 3006.0 694.0 3013.0 694.0 3013.0L695.0 2944.0C695.0 2944.0 637.0 2934.0 605.0 2934.0C515.0 2934.0 476.0 2986.0 476.0 3120.0L476.0 3160.0L421.0 3160.0L421.0 3232.0L476.0 3232.0L476.0 3880.0L552.0 3880.0L559.0 3660.0Z"/><path d="M678.0 3660.0L761.0 3660.0L761.0 3160.0L678.0 3160.0Z"/></g>
<g id="ffj" fill="#111"><path d="M1398.0 3232.0L1525.0 3232.0L1525.0 3160.0L1398.0 3160.0L1398.0 3121.0C1398.0 3045.0 1409.0 3006.0 1459.0 3006.0C1488.0 3006.0 1532.0 3013.0 1532.0 3013.0L1533.0 2944.0C1533.0 2944.0 1475.0 2934.0 1443.0 2934.0C1353.0 2934.0 1314.0 2986.0 1314.0 3120.0L1314.0 3160.0L1259.0 3160.0L1259.0 3232.0L1314.0 3232.0L1314.0 3880.0L1390.0 3880.0L1397.0 3660.0Z"/><path d="M1710.0 3232.0L1837.0 3232.0L1837.0 3160.0L1710.0 3160.0L1710.0 3121.0C1710.0 3045.0 1721.0 3006.0 1771.0 3006.0C1800.0 3006.0 1844.0 3013.0 1844.0 3013.0L1845.0 2944.0C1845.0 2944.0 1787.0 2934.0 1755.0 2934.0C1665.0 2934.0 1626.0 2986.0 1626.0 3120.0L1626.0 3160.0L1571.0 3160.0L1571.0 3232.0L1626.0 3232.0L1626.0 3880.0L1702.0 3880.0L1709.0 3660.0Z"/><path d="M1828.0 3660.0C1828.0 3751.0 1824.0 3765.0 1718.0 3830.0L1750.0 3894.0C1899.0 3816.0 1912.0 3791.0 1912.0 3660.0L1912.0 3160.0L1829.0 3160.0Z"/></g>
<g id="ffk" fill="#111"><path d="M2548.0 3232.0L2675.0 3232.0L2675.0 3160.0L2548.0 3160.0L2548.0 3121.0C2548.0 3045.0 2559.0 3006.0 2609.0 3006.0C2638.0 3006.0 2682.0 3013.0 2682.0 3013.0L2683.0 2944.0C2683.0 2944.0 2625.0 2934.0 2593.0 2934.0C2503.0 2934.0 2464.0 2986.0 2464.0 3120.0L2464.0 3160.0L2409.0 3160.0L2409.0 3232.0L2464.0 3232.0L2464.0 3880.0L2540.0 3880.0L2547.0 3660.0Z"/><path d="M2860.0 3232.0L2987.0 3232.0L2987.0 3160.0L2860.0 3160.0L2860.0 3121.0C2860.0 3045.0 2871.0 3006.0 2921.0 3006.0C2950.0 3006.0 2994.0 3013.0 2994.0 3013.0L2995.0 2944.0C2995.0 2944.0 2937.0 2934.0 2905.0 2934.0C2815.0 2934.0 2776.0 2986.0 2776.0 3120.0L2776.0 3160.0L2721.0 3160.0L2721.0 3232.0L2776.0 3232.0L2776.0 3880.0L2852.0 3880.0L2859.0 3660.0Z"/><path d="M3062.0 3660.0L3062.0 3437.0L3123.0 3432.0L3260.0 3660.0L3353.0 3660.0L3192.0 3391.0L3350.0 3160.0L3257.0 3160.0L3122.0 3361.0L3062.0 3365.0L3062.0 2945.0L2979.0 2945.0L2979.0 3660.0Z"/></g>
<g id="ffl" fill="#111"><path d="M3698.0 3232.0L3825.0 3232.0L3825.0 3160.0L3698.0 3160.0L3698.0 3121.0C3698.0 3045.0 3709.0 3006.0 3759.0 3006.0C3788.0 3006.0 3832.0 3013.0 3832.0 3013.0L3833.0 2944.0C3833.0 2944.0 3775.0 2934.0 3743.0 2934.0C3653.0 2934.0 3614.0 2986.0 3614.0 3120.0L3614.0 3160.0L3559.0 3160.0L3559.0 3232.0L3614.0 3232.0L3614.0 3880.0L3690.0 3880.0L3697.0 3660.0Z"/><path d="M4010.0 3232.0L4137.0 3232.0L4137.0 3160.0L4010.0 3160.0L4010.0 3121.0C4010.0 3045.0 4021.0 3006.0 4071.0 3006.0C4100.0 3006.0 4144.0 3013.0 4144.0 3013.0L4145.0 2944.0C4145.0 2944.0 4087.0 2934.0 4055.0 2934.0C3965.0 2934.0 3926.0 2986.0 3926.0 3120.0L3926.0 3160.0L3871.0 3160.0L3871.0 3232.0L3926.0 3232.0L3926.0 3880.0L4002.0 3880.0L4009.0 3660.0Z"/><path d="M4132.0 3660.0L4216.0 3660.0L4216.0 2945.0L4132.0 2945.0Z"/></g>
<g id="fft" fill="#111"><path d="M4848.0 3232.0L4975.0 3232.0L4975.0 3160.0L4848.0 3160.0L4848.0 3121.0C4848.0 3045.0 4859.0 3006.0 4909.0 3006.0C4938.0 3006.0 4982.0 3013.0 4982.0 3013.0L4983.0 2944.0C4983.0 2944.0 4925.0 2934.0 4893.0 2934.0C4803.0 2934.0 4764.0 2986.0 4764.0 3120.0L4764.0 3160.0L4709.0 3160.0L4709.0 3232.0L4764.0 3232.0L4764.0 3880.0L4840.0 3880.0L4847.0 3660.0Z"/><path d="M5160.0 3232.0L5287.0 3232.0L5287.0 3160.0L5160.0 3160.0L5160.0 3121.0C5160.0 3045.0 5171.0 3006.0 5221.0 3006.0C5250.0 3006.0 5294.0 3013.0 5294.0 3013.0L5295.0 2944.0C5295.0 2944.0 5237.0 2934.0 5205.0 2934.0C5115.0 2934.0 5076.0 2986.0 5076.0 3120.0L5076.0 3160.0L5021.0 3160.0L5021.0 3232.0L5076.0 3232.0L5076.0 3880.0L5152.0 3880.0L5159.0 3660.0Z"/><path d="M5520.0 3232.0L5520.0 3160.0L5384.0 3160.0L5384.0 3015.0L5301.0 3015.0L5301.0 3160.0L5238.0 3160.0L5238.0 3232.0L5301.0 3232.0L5301.0 3517.0C5301.0 3614.0 5329.0 3670.0 5433.0 3670.0C5467.0 3670.0 5526.0 3657.0 5526.0 3657.0L5522.0 3592.0C5522.0 3592.0 5475.0 3598.0 5444.0 3598.0C5399.0 3598.0 5384.0 3565.0 5384.0 3512.0L5384.0 3231.0Z"/></g>
</svg>