<svg xmlns="http://www.w3.org/2000/svg" width="858" height="1120" viewBox="0 0 858 1120">
<rect width="858" height="1120" fill="#fff"/>
<g id="metriken" stroke="#cfcabe" stroke-width="1" fill="none">
<line x1="0" y1="820" x2="858" y2="820"/>
<line x1="0" y1="320" x2="858" y2="320"/>
<line x1="0" y1="130" x2="858" y2="130"/>
<line x1="0" y1="1040" x2="858" y2="1040"/>
</g><g id="fb" fill="#111">
<path d="M238.0 392.0L365.0 392.0L365.0 320.0L238.0 320.0L238.0 281.0C238.0 205.0 249.0 166.0 299.0 166.0C328.0 166.0 372.0 173.0 372.0 173.0L373.0 104.0C373.0 104.0 315.0 94.0 283.0 94.0C193.0 94.0 154.0 146.0 154.0 280.0L154.0 320.0L99.0 320.0L99.0 392.0L154.0 392.0L154.0 1040.0L230.0 1040.0L237.0 820.0Z"/>
<path d="M580.0 310.0C505.0 310.0 440.0 376.0 440.0 376.0L440.0 104.0L357.0 104.0L357.0 818.0C357.0 818.0 473.0 829.0 531.0 829.0C683.0 829.0 745.0 747.0 745.0 559.0C745.0 402.0 707.0 308.0 581.0 308.0ZM535.0 756.0C513.0 756.0 442.0 749.0 442.0 749.0L442.0 446.0C442.0 446.0 500.0 380.0 565.0 380.0C641.0 380.0 660.0 456.0 660.0 558.0C660.0 691.0 634.0 756.0 534.0 756.0Z"/>
</g></svg>