<svg xmlns="http://www.w3.org/2000/svg" width="893" height="1120" viewBox="0 0 893 1120">
<rect width="893" height="1120" fill="#fff"/>
<g id="metriken" stroke="#cfcabe" stroke-width="1" fill="none">
<line x1="0" y1="820" x2="893" y2="820"/>
<line x1="0" y1="320" x2="893" y2="320"/>
<line x1="0" y1="130" x2="893" y2="130"/>
<line x1="0" y1="1040" x2="893" y2="1040"/>
</g><g id="ffl" fill="#111">
<path d="M238.0 392.0L365.0 392.0L365.0 320.0L238.0 320.0L238.0 281.0C238.0 205.0 337.0 166.0 387.0 166.0C416.0 166.0 460.0 173.0 460.0 173.0L461.0 104.0C461.0 104.0 403.0 94.0 371.0 94.0C193.0 94.0 154.0 146.0 154.0 280.0L154.0 320.0L99.0 320.0L99.0 392.0L154.0 392.0L154.0 1040.0L230.0 1040.0L237.0 820.0Z"/>
<path d="M550.0 392.0L677.0 392.0L677.0 320.0L550.0 320.0L550.0 281.0C550.0 205.0 649.0 166.0 699.0 166.0C728.0 166.0 772.0 173.0 772.0 173.0L773.0 104.0C773.0 104.0 715.0 94.0 683.0 94.0C505.0 94.0 466.0 146.0 466.0 280.0L466.0 320.0L411.0 320.0L411.0 392.0L466.0 392.0L466.0 1040.0L542.0 1040.0L549.0 820.0Z"/>
<path d="M672.0 820.0L756.0 820.0L756.0 105.0L672.0 105.0Z"/>
<path d="M320.0 320.0 L532.0 320.0 L532.0 280.0 L320.0 280.0Z"/>
</g></svg>