<svg xmlns="http://www.w3.org/2000/svg" width="999" height="1120" viewBox="0 0 999 1120">
<rect width="999" height="1120" fill="#fff"/>
<g id="metriken" stroke="#cfcabe" stroke-width="1" fill="none">
<line x1="0" y1="820" x2="999" y2="820"/>
<line x1="0" y1="320" x2="999" y2="320"/>
<line x1="0" y1="130" x2="999" y2="130"/>
<line x1="0" y1="1040" x2="999" y2="1040"/>
</g><g id="fft" fill="#111">
<path d="M238.0 392.0L365.0 392.0L365.0 320.0L238.0 320.0L238.0 281.0C238.0 205.0 249.0 166.0 299.0 166.0C328.0 166.0 372.0 173.0 372.0 173.0L373.0 104.0C373.0 104.0 315.0 94.0 283.0 94.0C193.0 94.0 154.0 146.0 154.0 280.0L154.0 320.0L99.0 320.0L99.0 392.0L154.0 392.0L154.0 1040.0L230.0 1040.0L237.0 820.0Z"/>
<path d="M550.0 392.0L677.0 392.0L677.0 320.0L550.0 320.0L550.0 281.0C550.0 205.0 561.0 166.0 611.0 166.0C640.0 166.0 684.0 173.0 684.0 173.0L685.0 104.0C685.0 104.0 627.0 94.0 595.0 94.0C505.0 94.0 466.0 146.0 466.0 280.0L466.0 320.0L411.0 320.0L411.0 392.0L466.0 392.0L466.0 1040.0L542.0 1040.0L549.0 820.0Z"/>
<path d="M910.0 392.0L910.0 320.0L774.0 320.0L774.0 175.0L691.0 175.0L691.0 320.0L628.0 320.0L628.0 392.0L691.0 392.0L691.0 677.0C691.0 774.0 719.0 830.0 823.0 830.0C857.0 830.0 916.0 817.0 916.0 817.0L912.0 752.0C912.0 752.0 865.0 758.0 834.0 758.0C789.0 758.0 774.0 725.0 774.0 672.0L774.0 391.0Z"/>
</g></svg>