<svg xmlns="http://www.w3.org/2000/svg" width="819" height="1120" viewBox="0 0 819 1120">
<rect width="819" height="1120" fill="#fff"/>
<g id="metriken" stroke="#cfcabe" stroke-width="1" fill="none">
<line x1="0" y1="820" x2="819" y2="820"/>
<line x1="0" y1="320" x2="819" y2="320"/>
<line x1="0" y1="130" x2="819" y2="130"/>
<line x1="0" y1="1040" x2="819" y2="1040"/>
</g><g id="fk" fill="#111">
<path d="M238.0 392.0L365.0 392.0L365.0 320.0L238.0 320.0L238.0 281.0C238.0 205.0 249.0 166.0 299.0 166.0C328.0 166.0 372.0 173.0 372.0 173.0L373.0 104.0C373.0 104.0 315.0 94.0 283.0 94.0C193.0 94.0 154.0 146.0 154.0 280.0L154.0 320.0L99.0 320.0L99.0 392.0L154.0 392.0L154.0 1040.0L230.0 1040.0L237.0 820.0Z"/>
<path d="M440.0 820.0L440.0 597.0L501.0 592.0L638.0 820.0L731.0 820.0L570.0 551.0L728.0 320.0L635.0 320.0L500.0 521.0L440.0 525.0L440.0 105.0L357.0 105.0L357.0 820.0Z"/>
</g></svg>