<svg xmlns="http://www.w3.org/2000/svg" width="687" height="1120" viewBox="0 0 687 1120">
<rect width="687" height="1120" fill="#fff"/>
<g id="metriken" stroke="#cfcabe" stroke-width="1" fill="none">
<line x1="0" y1="820" x2="687" y2="820"/>
<line x1="0" y1="320" x2="687" y2="320"/>
<line x1="0" y1="130" x2="687" y2="130"/>
<line x1="0" y1="1040" x2="687" y2="1040"/>
</g><g id="ft" fill="#111">
<path d="M238.0 392.0L365.0 392.0L365.0 320.0L238.0 320.0L238.0 281.0C238.0 205.0 249.0 166.0 299.0 166.0C328.0 166.0 372.0 173.0 372.0 173.0L373.0 104.0C373.0 104.0 315.0 94.0 283.0 94.0C193.0 94.0 154.0 146.0 154.0 280.0L154.0 320.0L99.0 320.0L99.0 392.0L154.0 392.0L154.0 1040.0L230.0 1040.0L237.0 820.0Z"/>
<path d="M598.0 392.0L598.0 320.0L462.0 320.0L462.0 175.0L379.0 175.0L379.0 320.0L316.0 320.0L316.0 392.0L379.0 392.0L379.0 677.0C379.0 774.0 407.0 830.0 511.0 830.0C545.0 830.0 604.0 817.0 604.0 817.0L600.0 752.0C600.0 752.0 553.0 758.0 522.0 758.0C477.0 758.0 462.0 725.0 462.0 672.0L462.0 391.0Z"/>
</g></svg>