<?xml version="1.0" encoding="UTF-8"?>
<svg xmlns="http://www.w3.org/2000/svg" viewBox="0 0 5167 1320">
<defs><style>.base{fill:#111}.stretch{fill:#111}.guide{fill:none;stroke:#c98a2b;stroke-width:3;stroke-dasharray:10 8;opacity:.75}.ml{fill:none;stroke:#cdd2d6;stroke-width:2}.mt{fill:#9aa0a6;font:28px Helvetica}.lab{fill:#23272b;font:30px Helvetica}.title{fill:#23272b;font:36px Helvetica}.note{fill:#6b7177;font:24px Helvetica}</style></defs>
<text class="title" x="40" y="58">Laut neu zeichnen — am korrekten Gewicht (v2.4.1)</text>
<text class="note" x="40" y="98">Schwarz = echte v2.4.1-Laut-Buchstaben (richtige Fette, editierbar). Gold gestrichelt = deine bisherige Bogenform (Form/Reichweite). Ziehe die Bögen am schwarzen f auf diese Reichweite.</text>
<line class="ml" x1="40" y1="800.0" x2="5127" y2="800.0"/>
<text class="mt" x="4867" y="790.0">Grundlinie</text>
<line class="ml" x1="40" y1="300.0" x2="5127" y2="300.0"/>
<text class="mt" x="4867" y="290.0">x-Höhe</text>
<line class="ml" x1="40" y1="85.0" x2="5127" y2="85.0"/>
<text class="mt" x="4867" y="75.0">Versal/Oberlänge</text>
<line class="ml" x1="40" y1="1050.0" x2="5127" y2="1050.0"/>
<text class="mt" x="4867" y="1040.0">Unterlänge</text>
<path class="guide" d="M1690.0 393.0L1791.1 393.0L1791.1 300.0L1690.0 300.0L1690.0 271.0C1690.0 212.0 1697.0 174.0 1740.0 174.0C1783.0 174.0 1864.8 180.0 1864.8 180.0L1865.8 92.0C1865.8 92.0 1747.0 81.0 1715.0 81.0C1624.0 81.0 1582.0 136.0 1582.0 270.0L1582.0 300.0L1532.0 300.0L1532.0 393.0L1582.0 393.0L1582.0 1015.0L1682.0 1015.0L1690.0 800.0L1690.0 393.0Z"/>
<path class="guide" d="M2314.0 393.0L2415.1 393.0L2415.1 300.0L2314.0 300.0L2314.0 271.0C2314.0 212.0 2321.0 174.0 2364.0 174.0C2407.0 174.0 2508.3 180.0 2508.3 180.0L2509.3 92.0C2509.3 92.0 2371.0 81.0 2339.0 81.0C2248.0 81.0 2206.0 136.0 2206.0 270.0L2206.0 300.0L2156.0 300.0L2156.0 393.0L2206.0 393.0L2206.0 1015.0L2306.0 1015.0L2314.0 800.0L2314.0 393.0Z"/>
<path class="guide" d="M3247.0 394.0L3337.2 394.0L3337.2 301.0L3247.0 301.0L3247.0 272.0C3247.0 213.0 3254.0 175.0 3297.0 175.0C3340.0 175.0 3441.3 181.0 3441.3 181.0L3442.3 93.0C3442.3 93.0 3304.0 82.0 3272.0 82.0C3181.0 82.0 3139.0 137.0 3139.0 271.0L3139.0 301.0L3089.0 301.0L3089.0 394.0L3139.0 394.0L3139.0 1016.0L3239.0 1016.0L3247.0 801.0L3247.0 394.0Z"/>
<path class="guide" d="M4181.0 394.0L4283.2 394.0L4283.2 301.0L4181.0 301.0L4181.0 272.0C4181.0 213.0 4188.0 175.0 4231.0 175.0C4274.0 175.0 4431.2 180.5 4431.2 180.5L4432.2 92.5C4432.2 92.5 4238.0 82.0 4206.0 82.0C4115.0 82.0 4073.0 137.0 4073.0 271.0L4073.0 301.0L4023.0 301.0L4023.0 394.0L4073.0 394.0L4073.0 1016.0L4173.0 1016.0L4181.0 801.0L4181.0 394.0Z"/>
<path class="base" d="M291.0 407.0L398.0 407.0L398.0 300.0L291.0 300.0L291.0 278.0C291.0 230.0 295.0 193.0 333.0 193.0C364.0 193.0 402.0 198.0 402.0 198.0L404.0 97.0C404.0 97.0 334.0 85.0 303.0 85.0C211.0 85.0 167.0 142.0 167.0 276.0L167.0 299.0L120.0 299.0L120.0 406.0L167.0 406.0L167.0 1011.0L282.0 1011.0L292.0 799.0Z"/>
<path class="base" d="M685.0 407.0L792.0 407.0L792.0 300.0L685.0 300.0L685.0 278.0C685.0 230.0 689.0 193.0 727.0 193.0C758.0 193.0 796.0 198.0 796.0 198.0L798.0 97.0C798.0 97.0 728.0 85.0 697.0 85.0C605.0 85.0 561.0 142.0 561.0 276.0L561.0 299.0L514.0 299.0L514.0 406.0L561.0 406.0L561.0 1011.0L676.0 1011.0L686.0 799.0Z"/>
<path class="base" d="M1309.0 407.0L1416.0 407.0L1416.0 300.0L1309.0 300.0L1309.0 278.0C1309.0 230.0 1313.0 193.0 1351.0 193.0C1382.0 193.0 1420.0 198.0 1420.0 198.0L1422.0 97.0C1422.0 97.0 1352.0 85.0 1321.0 85.0C1229.0 85.0 1185.0 142.0 1185.0 276.0L1185.0 299.0L1138.0 299.0L1138.0 406.0L1185.0 406.0L1185.0 1011.0L1300.0 1011.0L1310.0 799.0Z"/>
<path class="stretch" d="M1703.0 407.0L1810.0 407.0L1810.0 300.0L1703.0 300.0L1703.0 278.0C1703.0 230.0 1707.0 193.0 1745.0 193.0C1776.0 193.0 1814.0 198.0 1814.0 198.0L1816.0 97.0C1816.0 97.0 1746.0 85.0 1715.0 85.0C1623.0 85.0 1579.0 142.0 1579.0 276.0L1579.0 299.0L1532.0 299.0L1532.0 406.0L1579.0 406.0L1579.0 1011.0L1694.0 1011.0L1704.0 799.0Z"/>
<path class="stretch" d="M2327.0 407.0L2434.0 407.0L2434.0 300.0L2327.0 300.0L2327.0 278.0C2327.0 230.0 2331.0 193.0 2369.0 193.0C2400.0 193.0 2438.0 198.0 2438.0 198.0L2440.0 97.0C2440.0 97.0 2370.0 85.0 2339.0 85.0C2247.0 85.0 2203.0 142.0 2203.0 276.0L2203.0 299.0L2156.0 299.0L2156.0 406.0L2203.0 406.0L2203.0 1011.0L2318.0 1011.0L2328.0 799.0Z"/>
<path class="base" d="M2550.0 800.0L2676.0 800.0L2676.0 300.0L2550.0 300.0Z"/>
<path class="stretch" d="M3260.0 407.0L3367.0 407.0L3367.0 300.0L3260.0 300.0L3260.0 278.0C3260.0 230.0 3264.0 193.0 3302.0 193.0C3333.0 193.0 3371.0 198.0 3371.0 198.0L3373.0 97.0C3373.0 97.0 3303.0 85.0 3272.0 85.0C3180.0 85.0 3136.0 142.0 3136.0 276.0L3136.0 299.0L3089.0 299.0L3089.0 406.0L3136.0 406.0L3136.0 1011.0L3251.0 1011.0L3261.0 799.0Z"/>
<path class="base" d="M3483.0 800.0L3609.0 800.0L3609.0 97.0L3483.0 97.0Z"/>
<path class="stretch" d="M4194.0 407.0L4301.0 407.0L4301.0 300.0L4194.0 300.0L4194.0 278.0C4194.0 230.0 4198.0 193.0 4236.0 193.0C4267.0 193.0 4305.0 198.0 4305.0 198.0L4307.0 97.0C4307.0 97.0 4237.0 85.0 4206.0 85.0C4114.0 85.0 4070.0 142.0 4070.0 276.0L4070.0 299.0L4023.0 299.0L4023.0 406.0L4070.0 406.0L4070.0 1011.0L4185.0 1011.0L4195.0 799.0Z"/>
<path class="base" d="M4708.0 407.0L4708.0 300.0L4594.0 300.0L4594.0 169.0L4469.0 169.0L4469.0 300.0L4417.0 300.0L4417.0 407.0L4469.0 407.0L4469.0 648.0C4469.0 754.0 4496.0 812.0 4612.0 812.0C4646.0 812.0 4709.0 795.0 4709.0 795.0L4703.0 700.0C4703.0 700.0 4664.0 705.0 4630.0 705.0C4599.0 705.0 4593.0 679.0 4593.0 641.0L4593.0 408.0Z"/>
<text class="lab" x="120" y="1180">ff-standard</text>
<text class="lab" x="1138" y="1180">ff-wortende</text>
<text class="lab" x="2156" y="1180">fi-weit</text>
<text class="lab" x="3089" y="1180">fl</text>
<text class="lab" x="4023" y="1180">ft</text>
</svg>