<?xml version="1.0" encoding="UTF-8"?>
<svg xmlns="http://www.w3.org/2000/svg" viewBox="0 0 3412 6580">
<defs><style>.g{fill:#111;} .m{stroke:#cdd2d6;stroke-width:2;fill:none;} .lbl{font-family:Helvetica,Arial;fill:#9aa0a6;} .hd{font-family:Helvetica,Arial;fill:#23272b;}</style></defs>
<rect width="3412" height="6580" fill="#ffffff"/>
<g id="metriken">
<line class="m" x1="50" y1="1180" x2="3372" y2="1180"/>
<line class="m" x1="50" y1="680" x2="3372" y2="680"/>
<line class="m" x1="50" y1="490" x2="3372" y2="490"/>
<line class="m" x1="50" y1="1400" x2="3372" y2="1400"/>
<text class="hd" x="50" y="360" font-size="46">Deine Ligaturen (Klar)</text>
<text class="lbl" x="80" y="1510" font-size="34">ff-standard</text>
<text class="lbl" x="778" y="1510" font-size="34">ff-wortende</text>
<text class="lbl" x="1545" y="1510" font-size="34">fi-weit</text>
<text class="lbl" x="2062" y="1510" font-size="34">fl</text>
<text class="lbl" x="2620" y="1510" font-size="34">ft</text>
<line class="m" x1="50" y1="2680" x2="3372" y2="2680"/>
<line class="m" x1="50" y1="2180" x2="3372" y2="2180"/>
<line class="m" x1="50" y1="1990" x2="3372" y2="1990"/>
<line class="m" x1="50" y1="2900" x2="3372" y2="2900"/>
<text class="hd" x="50" y="1860" font-size="46">Einzelbuchstaben — Klar (normal)</text>
<text class="lbl" x="80" y="3010" font-size="34">f</text>
<text class="lbl" x="552" y="3010" font-size="34">dotlessi</text>
<text class="lbl" x="924" y="3010" font-size="34">i</text>
<text class="lbl" x="1296" y="3010" font-size="34">l</text>
<text class="lbl" x="1675" y="3010" font-size="34">t</text>
<line class="m" x1="50" y1="4180" x2="3372" y2="4180"/>
<line class="m" x1="50" y1="3680" x2="3372" y2="3680"/>
<line class="m" x1="50" y1="3490" x2="3372" y2="3490"/>
<line class="m" x1="50" y1="4400" x2="3372" y2="4400"/>
<text class="hd" x="50" y="3360" font-size="46">Einzelbuchstaben — Laut (fett)</text>
<text class="lbl" x="80" y="4510" font-size="34">f</text>
<text class="lbl" x="559" y="4510" font-size="34">dotlessi</text>
<text class="lbl" x="947" y="4510" font-size="34">i</text>
<text class="lbl" x="1335" y="4510" font-size="34">l</text>
<text class="lbl" x="1726" y="4510" font-size="34">t</text>
<line class="m" x1="50" y1="5680" x2="3372" y2="5680"/>
<line class="m" x1="50" y1="5180" x2="3372" y2="5180"/>
<line class="m" x1="50" y1="4990" x2="3372" y2="4990"/>
<line class="m" x1="50" y1="5900" x2="3372" y2="5900"/>
<text class="hd" x="50" y="4860" font-size="46">Einzelbuchstaben — Leise (duenn)</text>
<text class="lbl" x="80" y="6010" font-size="34">f</text>
<text class="lbl" x="544" y="6010" font-size="34">dotlessi</text>
<text class="lbl" x="904" y="6010" font-size="34">i</text>
<text class="lbl" x="1264" y="6010" font-size="34">l</text>
<text class="lbl" x="1626" y="6010" font-size="34">t</text>
</g>
<g id="r0-ff-standard"><path class="g" d="M219.0 752.0L346.0 752.0L346.0 680.0L219.0 680.0L219.0 641.0C219.0 565.0 230.0 526.0 280.0 526.0C330.0 526.0 353.0 533.0 353.0 533.0L354.0 464.0C354.0 464.0 296.0 454.0 264.0 454.0C174.0 454.0 135.0 506.0 135.0 640.0L135.0 680.0L80.0 680.0L80.0 752.0L135.0 752.0L135.0 1400.0L211.0 1400.0L218.0 1180.0L219.0 752.0ZM483.4 752.0L610.4 752.0L610.4 680.0L483.4 680.0L483.4 641.0C483.4 565.0 494.4 526.0 544.4 526.0C594.4 526.0 617.4 533.0 617.4 533.0L618.4 464.0C618.4 464.0 560.4 454.0 528.4 454.0C438.4 454.0 399.4 506.0 399.4 640.0L399.4 680.0L344.4 680.0L344.4 752.0L399.4 752.0L399.4 1400.0L475.4 1400.0L482.4 1180.0L483.4 752.0Z"/></g>
<g id="r0-ff-wortende"><path class="g" d="M917.4 752.0L1044.4 752.0L1044.4 680.0L917.4 680.0L917.4 641.0C917.4 565.0 928.4 526.0 978.4 526.0C1028.4 526.0 1051.4 533.0 1051.4 533.0L1052.4 464.0C1052.4 464.0 994.4 454.0 962.4 454.0C872.4 454.0 833.4 506.0 833.4 640.0L833.4 680.0L778.4 680.0L778.4 752.0L833.4 752.0L833.4 1400.0L909.4 1400.0L916.4 1180.0L917.4 752.0ZM1183.1 752.0L1310.1 752.0L1310.1 680.0L1183.1 680.0L1183.1 641.0C1183.1 565.0 1194.1 526.0 1244.1 526.0C1294.1 526.0 1383.6 540.9 1383.6 540.9L1384.6 471.9C1384.6 471.9 1260.1 454.0 1228.1 454.0C1138.1 454.0 1099.1 506.0 1099.1 640.0L1099.1 680.0L1044.1 680.0L1044.1 752.0L1099.1 752.0L1099.1 1400.0L1175.1 1400.0L1182.1 1180.0L1183.1 752.0Z"/></g>
<g id="r0-fi-weit"><path class="g" d="M1683.6 752.0L1822.5 752.0L1822.5 680.0L1683.6 680.0L1683.6 641.0C1683.6 565.0 1694.6 526.0 1744.6 526.0C1794.6 526.0 1901.4 540.9 1901.4 540.9L1902.0 471.9C1902.0 471.9 1760.6 454.0 1728.6 454.0C1638.6 454.0 1599.6 506.0 1599.6 640.0L1599.6 680.0L1544.6 680.0L1544.6 752.0L1599.6 752.0L1599.6 1400.0L1675.6 1400.0L1682.6 1180.0L1683.6 752.0ZM1819.4 1180.0L1902.4 1180.0L1902.4 680.0L1819.4 680.0L1819.4 1180.0Z"/></g>
<g id="r0-fl"><path class="g" d="M2201.4 752.0L2327.9 752.0L2327.9 680.0L2201.4 680.0L2201.4 641.0C2201.4 565.0 2212.4 526.0 2262.4 526.0C2312.4 526.0 2419.3 538.2 2419.3 538.2L2419.9 469.2C2419.9 469.2 2278.4 454.0 2246.4 454.0C2156.4 454.0 2117.4 506.0 2117.4 640.0L2117.4 680.0L2062.4 680.0L2062.4 752.0L2117.4 752.0L2117.4 1400.0L2193.4 1400.0L2200.4 1180.0L2201.4 752.0ZM2376.3 1180.0L2460.3 1180.0L2460.3 465.0L2376.3 465.0L2376.3 1180.0Z"/></g>
<g id="r0-ft"><path class="g" d="M2759.3 752.0L2885.8 752.0L2885.8 680.0L2759.3 680.0L2759.3 641.0C2759.3 565.0 2770.3 526.0 2820.3 526.0C2870.3 526.0 3019.0 539.0 3019.0 539.0L3020.1 470.0C3020.1 470.0 2836.3 454.0 2804.3 454.0C2714.3 454.0 2675.3 506.0 2675.3 640.0L2675.3 680.0L2620.3 680.0L2620.3 752.0L2675.3 752.0L2675.3 1400.0L2751.3 1400.0L2758.3 1180.0L2759.3 752.0L2759.3 752.0ZM3155.0 752.0L3155.0 680.0L3019.0 680.0L3019.0 535.0L2936.0 530.0L2936.0 1037.0C2936.0 1134.0 2964.0 1190.0 3068.0 1190.0C3172.0 1190.0 3161.0 1177.0 3161.0 1177.0L3157.0 1112.0C3157.0 1112.0 3110.0 1118.0 3079.0 1118.0C3034.0 1118.0 3019.0 1085.0 3019.0 1032.0L3019.0 751.0L3155.0 752.0Z"/></g>
<g id="r1-f"><path class="g" d="M219.0 2252.0L346.0 2252.0L346.0 2180.0L219.0 2180.0L219.0 2141.0C219.0 2065.0 230.0 2026.0 280.0 2026.0C309.0 2026.0 353.0 2033.0 353.0 2033.0L354.0 1964.0C354.0 1964.0 296.0 1954.0 264.0 1954.0C174.0 1954.0 135.0 2006.0 135.0 2140.0L135.0 2180.0L80.0 2180.0L80.0 2252.0L135.0 2252.0L135.0 2900.0L211.0 2900.0L218.0 2680.0Z"/></g>
<g id="r1-dotlessi"><path class="g" d="M552.0 2680.0L635.0 2680.0L635.0 2180.0L552.0 2180.0Z"/></g>
<g id="r1-i"><path class="g" d="M925.0 2680.0L1008.0 2680.0L1008.0 2180.0L925.0 2180.0ZM924.0 2083.0L1009.0 2083.0L1009.0 1987.0L924.0 1987.0Z"/></g>
<g id="r1-l"><path class="g" d="M1296.0 2680.0L1380.0 2680.0L1380.0 1965.0L1296.0 1965.0Z"/></g>
<g id="r1-t"><path class="g" d="M1957.0 2252.0L1957.0 2180.0L1821.0 2180.0L1821.0 2035.0L1738.0 2035.0L1738.0 2180.0L1675.0 2180.0L1675.0 2252.0L1738.0 2252.0L1738.0 2537.0C1738.0 2634.0 1766.0 2690.0 1870.0 2690.0C1904.0 2690.0 1963.0 2677.0 1963.0 2677.0L1959.0 2612.0C1959.0 2612.0 1912.0 2618.0 1881.0 2618.0C1836.0 2618.0 1821.0 2585.0 1821.0 2532.0L1821.0 2251.0Z"/></g>
<g id="r2-f"><path class="g" d="M238.0 3773.0L354.0 3773.0L354.0 3680.0L238.0 3680.0L238.0 3651.0C238.0 3592.0 245.0 3554.0 288.0 3554.0C318.0 3554.0 359.0 3560.0 359.0 3560.0L360.0 3472.0C360.0 3472.0 295.0 3461.0 263.0 3461.0C172.0 3461.0 130.0 3516.0 130.0 3650.0L130.0 3680.0L80.0 3680.0L80.0 3773.0L130.0 3773.0L130.0 4395.0L230.0 4395.0L238.0 4180.0Z"/></g>
<g id="r2-dotlessi"><path class="g" d="M559.0 4180.0L667.0 4180.0L667.0 3680.0L559.0 3680.0Z"/></g>
<g id="r2-i"><path class="g" d="M948.0 4180.0L1056.0 4180.0L1056.0 3680.0L948.0 3680.0ZM947.0 3605.0L1057.0 3605.0L1057.0 3489.0L947.0 3489.0Z"/></g>
<g id="r2-l"><path class="g" d="M1335.0 4180.0L1444.0 4180.0L1444.0 3472.0L1335.0 3472.0Z"/></g>
<g id="r2-t"><path class="g" d="M2013.0 3773.0L2013.0 3680.0L1891.0 3680.0L1891.0 3543.0L1783.0 3543.0L1783.0 3680.0L1726.0 3680.0L1726.0 3773.0L1783.0 3773.0L1783.0 4032.0C1783.0 4134.0 1810.0 4191.0 1922.0 4191.0C1956.0 4191.0 2017.0 4176.0 2017.0 4176.0L2012.0 4093.0C2012.0 4093.0 1969.0 4099.0 1937.0 4099.0C1900.0 4099.0 1891.0 4070.0 1891.0 4026.0L1891.0 3773.0Z"/></g>
<g id="r3-f"><path class="g" d="M191.0 5225.0L335.0 5225.0L335.0 5180.0L191.0 5180.0L191.0 5128.0C191.0 5030.0 209.0 4990.0 268.0 4990.0C296.0 4990.0 345.0 4998.0 345.0 4998.0L345.0 4955.0C345.0 4955.0 297.0 4945.0 264.0 4945.0C178.0 4945.0 142.0 4993.0 142.0 5127.0L142.0 5180.0L80.0 5180.0L80.0 5225.0L142.0 5225.0L142.0 5907.0L188.0 5907.0L192.0 5680.0Z"/></g>
<g id="r3-dotlessi"><path class="g" d="M544.0 5680.0L594.0 5680.0L594.0 5180.0L544.0 5180.0Z"/></g>
<g id="r3-i"><path class="g" d="M905.0 5680.0L955.0 5680.0L955.0 5180.0L905.0 5180.0ZM904.0 5053.0L956.0 5053.0L956.0 4983.0L904.0 4983.0Z"/></g>
<g id="r3-l"><path class="g" d="M1264.0 5680.0L1313.0 5680.0L1313.0 4955.0L1264.0 4955.0Z"/></g>
<g id="r3-t"><path class="g" d="M1898.0 5225.0L1898.0 5180.0L1745.0 5180.0L1745.0 5023.0L1696.0 5023.0L1696.0 5180.0L1626.0 5180.0L1626.0 5225.0L1696.0 5225.0L1696.0 5545.0C1696.0 5634.0 1725.0 5690.0 1819.0 5690.0C1852.0 5690.0 1908.0 5680.0 1908.0 5680.0L1905.0 5639.0C1905.0 5639.0 1851.0 5645.0 1823.0 5645.0C1767.0 5645.0 1745.0 5607.0 1745.0 5542.0L1745.0 5224.0Z"/></g>
</svg>