<svg xmlns="http://www.w3.org/2000/svg" width="929" height="1120" viewBox="0 0 929 1120">
<rect width="929" height="1120" fill="#fff"/>
<g id="metriken" stroke="#cfcabe" stroke-width="1" fill="none">
<line x1="0" y1="820" x2="929" y2="820"/>
<line x1="0" y1="320" x2="929" y2="320"/>
<line x1="0" y1="130" x2="929" y2="130"/>
<line x1="0" y1="1040" x2="929" y2="1040"/>
</g><g id="numero" fill="#111">
<path d="M145.0 820.0L230.0 820.0L230.0 215.0L246.0 215.0L484.0 820.0L627.0 820.0L627.0 130.0L545.0 130.0L545.0 732.0L528.0 732.0L291.0 130.0L145.0 130.0Z"/>
<path d="M752.2 196.0C689.4 196.0 672.6 235.6 672.6 298.4C672.6 360.8 683.8 404.4 751.8 404.4C819.8 404.4 831.0 360.8 831.0 298.4C831.0 235.6 813.8 196.0 751.4 196.0ZM751.4 375.2C708.2 375.2 703.8 344.8 703.8 298.4C703.8 250.0 713.0 224.8 751.0 224.8C789.0 224.8 798.2 250.0 798.2 298.4C798.2 344.8 793.8 375.2 751.0 375.2Z"/>
<path d="M655.0 428.0 L849.4 428.0 L849.4 376.0 L655.0 376.0Z"/>
</g></svg>