<svg xmlns="http://www.w3.org/2000/svg" width="700" height="1120" viewBox="0 0 700 1120">
<rect width="700" height="1120" fill="#fff"/>
<g id="metriken" stroke="#cfcabe" stroke-width="1" fill="none">
<line x1="0" y1="820" x2="700" y2="820"/>
<line x1="0" y1="320" x2="700" y2="320"/>
<line x1="0" y1="130" x2="700" y2="130"/>
<line x1="0" y1="1040" x2="700" y2="1040"/>
</g><g id="schlummernde-0" fill="#111">
<path d="M349.0 149.0C205.0 149.0 114.0 226.0 114.0 500.0C114.0 710.0 178.0 831.0 350.0 831.0C524.0 831.0 585.0 709.0 585.0 499.0C585.0 226.0 496.0 149.0 349.0 149.0ZM350.0 223.0C450.0 223.0 498.0 289.0 498.0 499.0C498.0 652.0 472.0 755.0 351.0 755.0C227.0 755.0 202.0 641.0 202.0 499.0C202.0 286.0 252.0 222.0 351.0 222.0Z"/>
<path d="M220.0 765.0 L315.0 765.0 L500.0 220.0 L405.0 220.0Z"/>
</g></svg>