<?xml version="1.0" encoding="UTF-8"?><svg id="Ebene_2" xmlns="http://www.w3.org/2000/svg" viewBox="0 0 147.1044 24.6398"><g id="Components"><g id="_7562207d-203a-4563-a8f9-0fe196ceba1a_1"><g><path d="m32.1913,12.3201h4.5571v8.7388s-3.4304.5509-5.3083.5509c-4.8828,0-6.26-3.9813-6.26-8.9391,0-5.4336,1.2771-8.8892,6.3601-8.8892,2.6543,0,5.2083.6511,5.2083.6511l-.1001,1.5273s-2.9045-.4757-4.9829-.4757c-3.9812,0-4.5071,3.0798-4.5071,7.1864,0,3.8811.8513,7.2365,4.4819,7.2365,1.252,0,3.1802-.3256,3.1802-.3256v-5.6089h-2.6292v-1.6526Z" style="fill:#393f4a;"/><path d="m49.0187,14.9742c0,3.9563-.626,6.6355-4.9077,6.6355s-4.908-2.6792-4.908-6.6355c0-3.9813,1.0266-6.3851,4.908-6.3851,3.856,0,4.9077,2.4038,4.9077,6.3851Zm-1.803,0c0-3.1801-.626-4.7576-3.1047-4.7576s-3.105,1.5775-3.105,4.7576c0,3.0548.2505,5.0079,3.105,5.0079s3.1047-1.9531,3.1047-5.0079Z" style="fill:#393f4a;"/><path d="m59.8114,19.5065l.1001,1.3772s-1.8027.701-4.0813.701c-3.3054,0-4.7327-1.8779-4.7327-6.2849,0-4.1566,1.5024-6.6857,5.0833-6.6857,2.554,0,4.1814.9766,4.1814,3.3553,0,3.0298-1.928,3.806-6.0596,3.806h-1.302v.3756c0,2.3538.9014,3.8311,2.9297,3.8311,1.7778,0,3.8811-.4757,3.8811-.4757Zm-5.5337-5.1832c3.0298,0,4.2317-.4507,4.2317-2.3287,0-1.3772-.8765-1.8279-2.3286-1.8279-2.2537,0-3.1301,1.5275-3.155,4.1566h1.252Z" style="fill:#393f4a;"/><path d="m65.1954,10.4672v7.2615c0,1.4022.4258,2.2535,1.6277,2.2535.7512,0,1.978-.1503,1.978-.1503l.1003,1.4774s-1.4524.3004-2.3037.3004c-2.5291,0-3.2551-1.4022-3.2551-3.781v-7.3616h-1.6277v-1.6276h1.6277v-3.7059h1.8528v3.7059h3.5308v1.6276h-3.5308Z" style="fill:#393f4a;"/><path d="m70.6295,21.3594V3.3808h1.8779v7.3116s1.5276-2.1034,3.6309-2.1034c2.7544,0,3.8311,1.9281,3.8311,4.9579v7.8124h-1.853v-7.2615c0-2.6793-.6509-3.8812-2.3538-3.8812-1.6775,0-3.2551,2.2787-3.2551,2.2787v8.864h-1.8779Z" style="fill:#393f4a;"/><path d="m91.1376,19.5065l.1001,1.3772s-1.8027.701-4.0813.701c-3.3054,0-4.7327-1.8779-4.7327-6.2849,0-4.1566,1.5024-6.6857,5.0833-6.6857,2.554,0,4.1814.9766,4.1814,3.3553,0,3.0298-1.928,3.806-6.0596,3.806h-1.302v.3756c0,2.3538.9014,3.8311,2.9297,3.8311,1.7778,0,3.8811-.4757,3.8811-.4757Zm-5.5337-5.1832c3.0298,0,4.2317-.4507,4.2317-2.3287,0-1.3772-.8765-1.8279-2.3286-1.8279-2.2537,0-3.1301,1.5275-3.155,4.1566h1.252Z" style="fill:#393f4a;"/><path d="m93.5919,15.3498c0-3.9813.9517-6.7607,5.0081-6.7607,1.4272,0,4.5071.4257,4.5071.4257v9.2648c0,1.1768.1504,3.0548.1504,3.0548l-1.8782.0751s-.125-1.1519-.125-2.1533c0,0-1.3523,2.3536-3.656,2.3536-2.9795,0-4.0063-2.1534-4.0063-6.2599Zm1.9031,0c0,2.7544.4758,4.6323,2.479,4.6323,1.9031,0,3.2551-2.6041,3.2551-2.6041v-6.9359s-1.7278-.2255-2.4038-.2255c-2.7043,0-3.3303,1.7778-3.3303,5.1332Z" style="fill:#393f4a;"/><path d="m106.1879,21.3594v-12.5198h1.853l.0249,1.8779s1.5276-2.1284,3.6309-2.1284c2.7292,0,3.8311,1.9281,3.8311,4.9829v7.7874h-1.853v-7.2615c0-2.6793-.6509-3.8812-2.3538-3.8812-1.6775,0-3.2551,2.3287-3.2551,2.3287v8.814h-1.8779Z" style="fill:#393f4a;"/><path d="m127.7479,8.8396v12.5198h-1.8279l-.0251-1.8779s-1.5273,2.1283-3.6306,2.1283c-2.7295,0-3.8562-1.7026-3.8562-5.083v-7.6871h1.8779v7.2615c0,2.6792.626,3.8811,2.3538,3.8811,1.6777,0,3.2551-2.3286,3.2551-2.3286v-8.814h1.853Z" style="fill:#393f4a;"/><path d="m138.1651,21.3594v-7.1113c0-2.8545-.676-4.0314-2.2537-4.0314s-3.2051,2.3287-3.2051,2.3287v8.814h-1.8779v-12.5198h1.853l.0249,1.8779s1.6025-2.1284,3.5808-2.1284c2.5791,0,3.23,2.1534,3.23,2.1534,0,0,1.6777-2.1534,3.7561-2.1534,2.7041,0,3.8311,1.9281,3.8311,5.2583v7.512h-1.853v-7.2615c0-2.6793-.626-3.8812-2.3538-3.8812-1.6526,0-2.9546,1.9781-2.9546,1.9781,0,0,.1001.8513.1001,1.8029v7.3617h-1.8779Z" style="fill:#393f4a;"/></g><g><path d="m6.6917,4.0605L18.506,0v24.6393h-7.0186l.0085-9.0512c.0032-.5855-.1007-1.1333-.2834-1.6815-.5552-1.6719-4.5208-9.8461-4.5208-9.8461" style="fill:#393f4a;"/><path d="m6.1886,8.4157s3.5804,5.7244,3.5804,7.0617l.0565,9.161h-4.1377l-.0256-3.1488c-.0405-1.9096-4.3732-7.2967-4.3732-7.2967l4.8996-5.7771Z" style="fill:#393f4a;"/><path d="m0,20.9864l2.754-1.9564s1.2894,2.1541,1.4045,2.9096c.1156.7555.0234,2.7002.0234,2.7002H1.2537s.0059-.7097.0096-1.0246c.008-.5568-.1689-1.0326-.439-1.4897-.1257-.2142-.7118-.9564-.8242-1.1391" style="fill:#393f4a;"/></g></g></g></svg>