<?xml version="1.0" encoding="UTF-8"?><svg id="Ebene_2" xmlns="http://www.w3.org/2000/svg" viewBox="0 0 325.8082 24.036"><g id="Components"><g id="cc62639a-7dd5-49a1-aef5-50da4882a242_5"><g><path d="m24.9754,22.1319V4.4864h6.0751c3.6299,0,5.8481,1.6641,5.8481,6.0244v5.748c0,3.5039-2.0923,5.873-5.8481,5.873h-6.0751Zm10.9905-11.6211c0-3.6797-1.8654-5.167-4.9154-5.167h-5.1676v15.9307h5.1676c3.2013,0,4.9154-2.1172,4.9154-5.0156v-5.748Z" style="fill:#fff;"/><path d="m44.8895,4.4864h2.8232l5.344,17.6455h-.9075l-1.7141-5.4199h-8.2681l-1.689,5.4199h-.9075l5.3188-17.6455Zm-2.4703,11.3691h7.7639l-3.2014-10.5117h-1.3612l-3.2013,10.5117Z" style="fill:#fff;"/><path d="m65.3329,5.4698s-3.403-.4033-4.865-.4033c-2.8737,0-4.4869,1.0078-4.4869,3.5293,0,3.0752,1.588,3.4277,4.739,3.957,3.2013.5293,5.1423,1.2354,5.1423,4.4619,0,3.9326-1.8654,5.2939-5.344,5.2939-1.9158,0-5.3944-.4033-5.3944-.4033l.1008-.8828s3.4786.4287,5.2683.4287c2.8737,0,4.4114-1.21,4.4114-4.3604,0-2.5713-1.3612-3.126-4.4114-3.6309-3.4282-.5791-5.47-1.083-5.47-4.8145,0-3.252,2.0922-4.4365,5.4448-4.4365,1.9409,0,4.9154.4033,4.9154.4033l-.0504.8574Z" style="fill:#fff;"/></g><g><path d="m84.0632,21.0733v-6.8311h-3.8063v-.8574h4.7137v8.4189s-3.9576.5547-5.4196.5547c-3.6299,0-6.7305-1.6631-6.7305-6.0244v-6.2012c0-3.6045,2.7981-5.873,6.7305-5.873,1.2855,0,5.3691.7559,5.3691.7559l-.126.8574s-4.134-.7559-5.2432-.7559c-3.3527,0-5.7979,2.0166-5.7979,5.0156v6.2012c0,3.6807,2.7224,5.168,5.7726,5.168,1.2604,0,4.5374-.4287,4.5374-.4287Z" style="fill:#fff;"/><path d="m88.9032,10.3097c0-4.1846,2.1678-6.0498,6.3523-6.0498s6.5035,1.8652,6.5035,6.0498v5.999c0,4.1846-2.3191,6.0752-6.5035,6.0752s-6.3523-1.8906-6.3523-6.0752v-5.999Zm.9327,5.999c0,3.6299,1.7897,5.2178,5.4196,5.2178s5.5709-1.5879,5.5709-5.2178v-5.999c0-3.6299-1.941-5.1924-5.5709-5.1924s-5.4196,1.5625-5.4196,5.1924v5.999Z" style="fill:#fff;"/><path d="m106.1455,4.4864h10.3099v.9072h-9.4025v7.1094h7.89v.9072h-7.89v7.8145h9.4025v.9072h-10.3099V4.4864Z" style="fill:#fff;"/><path d="m117.9933,4.4864h12.3517v.8574h-5.6969v16.7881h-.9075V5.3438h-5.7473v-.8574Z" style="fill:#fff;"/><path d="m144.4109,13.713h-10.5367v8.4189h-.9075V4.4864h.9075v8.3691h10.5367V4.4864h.9075v17.6455h-.9075v-8.4189Z" style="fill:#fff;"/><path d="m150.2595,4.4864h10.3098v.9072h-9.4023v7.1094h7.8899v.9072h-7.8899v7.8145h9.4023v.9072h-10.3098V4.4864Z" style="fill:#fff;"/><path d="m168.0562,4.4864h2.8232l5.344,17.6455h-.9075l-1.7141-5.4199h-8.2681l-1.6888,5.4199h-.9075l5.3187-17.6455Zm-2.4703,11.3691h7.7639l-3.2014-10.5117h-1.3611l-3.2014,10.5117Z" style="fill:#fff;"/><path d="m179.4501,4.4864h2.8232v.1006l7.6378,16.6875h1.2604V4.4864h.8823v17.6455h-2.8232v-.1006l-7.6379-16.6875h-1.2351v16.7881h-.9075V4.4864Z" style="fill:#fff;"/><path d="m209.3466,4.4864v11.9238c0,3.0752-.9832,5.9736-6.2012,5.9736-5.2683,0-6.2262-2.6211-6.2262-5.9736V4.4864h.9075v11.9238c0,2.7217.9075,5.1162,5.3187,5.1162,4.4871,0,5.2937-2.5703,5.2937-5.1162V4.4864h.9075Z" style="fill:#fff;"/><path d="m214.2118,4.4864h2.8232l4.8398,16.1582,5.1423-16.1582h2.8232v17.6455h-.9075V5.3438h-1.1847l-5.1927,16.2842h-1.3612l-4.9155-16.2842h-1.1595v16.7881h-.9075V4.4864Z" style="fill:#fff;"/></g><g><path d="m6.5277,3.961L18.0527,0v24.036h-6.847l.008-8.83c.003-.571-.098-1.105-.275-1.64-.543-1.631-4.411-9.605-4.411-9.605" style="fill:#fff;"/><path d="m6.0367,8.2095s3.492,5.584,3.492,6.889l.056,8.937h-4.036l-.025-3.073c-.041-1.862-4.267-7.118-4.267-7.118l4.78-5.635Z" style="fill:#fff;"/><path d="m0,20.4723l2.686-1.909s1.258,2.101,1.371,2.838c.113.737.022,2.634.022,2.634H1.223s.005-.691.009-.999c.008-.543-.164-1.007-.428-1.453-.123-.208-.695-.933-.804-1.111" style="fill:#fff;"/></g><g><path d="m238.4811,4.2776l1.0708,5.4395h.2805l1.2408-5.3711h.6205l1.2324,5.3711h.2804l1.0709-5.4395h.5354l-1.2153,5.9072h-1.054l-1.1643-5.1846-1.1644,5.1846h-1.0538l-1.2155-5.9072h.5355Z" style="fill:#fff;"/><path d="m245.689,7.261c0-1.9463.4845-3.0684,2.3033-3.0684s2.3118,1.1133,2.3118,3.0684c0,2.0312-.4845,3.0088-2.3118,3.0088s-2.3033-1.0449-2.3033-3.0088Zm4.0712,0c0-1.6572-.3315-2.5918-1.7678-2.5918-1.4448,0-1.7594.9258-1.7594,2.5918,0,1.6748.2889,2.5332,1.7594,2.5332s1.7678-.7988,1.7678-2.5332Z" style="fill:#fff;"/><path d="m255.1576,10.0911c-.4165.085-1.037.1787-1.5979.1787-1.7593,0-2.1418-1.0967-2.1418-3.0176,0-1.9375.3485-3.0596,2.1418-3.0596.595,0,1.2153.1025,1.5979.1787l-.0256.459c-.3739-.0684-1.0538-.1611-1.5298-.1611-1.4279,0-1.6404.9004-1.6404,2.583,0,1.666.2211,2.542,1.6489,2.542.4929,0,1.1049-.085,1.5212-.1621l.0256.459Z" style="fill:#fff;"/><path d="m260.0704,7.4563h-3.2042v2.7285h-.527v-5.9072h.527v2.7119h3.2042v-2.7119h.5184v5.9072h-.5184v-2.7285Z" style="fill:#fff;"/><path d="m262.1618,4.2776h3.5441v.4766h-3.0172v2.1924h2.5073v.4678h-2.5073v2.3027h3.0172v.4678h-3.5441v-5.9072Z" style="fill:#fff;"/><path d="m266.9386,4.2776h1.0369l2.4731,5.4395h.1956v-5.4395h.5184v5.9072h-1.0199l-2.4902-5.4307h-.187v5.4307h-.5269v-5.9072Z" style="fill:#fff;"/><path d="m275.9992,4.7962s-1.1729-.1445-1.6658-.1445c-.8839,0-1.3684.3145-1.3684,1.0459,0,.875.4504,1.0029,1.4958,1.207,1.1559.2295,1.7084.5098,1.7084,1.5547,0,1.3096-.6885,1.7939-1.8529,1.7939-.6714,0-1.8442-.1621-1.8442-.1621l.0596-.4502s1.1643.1445,1.7678.1445c.8838,0,1.3342-.3828,1.3342-1.292,0-.7393-.3823-.9268-1.3683-1.1045-1.1984-.2295-1.8358-.4844-1.8358-1.6572,0-1.1221.731-1.5469,1.8699-1.5469.6884,0,1.7422.1611,1.7422.1611l-.0425.4502Z" style="fill:#fff;"/><path d="m280.9461,10.0911c-.4164.085-1.0369.1787-1.5978.1787-1.7594,0-2.1418-1.0967-2.1418-3.0176,0-1.9375.3484-3.0596,2.1418-3.0596.5948,0,1.2153.1025,1.5978.1787l-.0255.459c-.374-.0684-1.054-.1611-1.5298-.1611-1.428,0-1.6404.9004-1.6404,2.583,0,1.666.2209,2.542,1.6488,2.542.493,0,1.1049-.085,1.5214-.1621l.0255.459Z" style="fill:#fff;"/><path d="m285.8589,7.4563h-3.2042v2.7285h-.5269v-5.9072h.5269v2.7119h3.2042v-2.7119h.5184v5.9072h-.5184v-2.7285Z" style="fill:#fff;"/><path d="m288.4772,7.8558v2.3291h-.527v-5.9072h2.1674c1.2153,0,1.8357.5273,1.8357,1.751,0,.8926-.3484,1.5127-1.1388,1.7256l1.2153,2.4307h-.5864l-1.1644-2.3291h-1.8018Zm1.6404-3.1104h-1.6404v2.6436h1.6404c.9603,0,1.2917-.5615,1.2917-1.3516,0-.8838-.408-1.292-1.2917-1.292Z" style="fill:#fff;"/><path d="m293.2626,4.2776h.527v5.9072h-.527v-5.9072Z" style="fill:#fff;"/><path d="m295.3537,4.2776h3.4846v.4766h-2.9578v2.4395h2.5157v.4668h-2.5157v2.5244h-.5269v-5.9072Z" style="fill:#fff;"/><path d="m299.2721,4.2776h4.2495v.4766h-1.8528v5.4307h-.5269v-5.4307h-1.8699v-.4766Z" style="fill:#fff;"/></g><g><path d="m238.4046,15.4571h3.4846v.4766h-2.9576v2.4385h2.5156v.4678h-2.5156v2.5244h-.527v-5.9072Z" style="fill:#fff;"/><path d="m244.9069,20.9737c.9773,0,1.5298-.3574,1.5298-1.3428v-4.1738h.5269v4.1738c0,1.3174-.7394,1.8184-2.0566,1.8184-1.2495,0-1.9889-.501-1.9889-1.8184v-4.1738h.5184v4.1738c0,.9766.5525,1.3428,1.4705,1.3428Zm-1.071-7.25h.5015v.6797h-.5015v-.6797Zm1.7084,0h.493v.6797h-.493v-.6797Z" style="fill:#fff;"/><path d="m249.0123,19.0353v2.3291h-.5269v-5.9072h2.1672c1.2153,0,1.8358.5273,1.8358,1.751,0,.8926-.3485,1.5127-1.1388,1.7256l1.2153,2.4307h-.5864l-1.1644-2.3291h-1.8019Zm1.6404-3.1104h-1.6404v2.6436h1.6404c.9604,0,1.2919-.5615,1.2919-1.3516,0-.8838-.408-1.292-1.2919-1.292Z" style="fill:#fff;"/><path d="m256.8407,15.4571h1.2323l1.6913,5.9072h-.5184l-.476-1.6318h-2.6348l-.4674,1.6318h-.527l1.7-5.9072Zm-.578,3.8076h2.3798l-.9604-3.3486h-.459l-.9603,3.3486Z" style="fill:#fff;"/><path d="m260.7932,15.4571h1.0369l2.4733,5.4395h.1956v-5.4395h.5183v5.9072h-1.0198l-2.4902-5.4307h-.187v5.4307h-.527v-5.9072Z" style="fill:#fff;"/><path d="m265.9613,15.4571h4.2495v.4766h-1.8528v5.4307h-.527v-5.4307h-1.8698v-.4766Z" style="fill:#fff;"/><path d="m274.8772,18.6358h-3.2042v2.7285h-.5269v-5.9072h.5269v2.7119h3.2042v-2.7119h.5184v5.9072h-.5184v-2.7285Z" style="fill:#fff;"/><path d="m277.4955,19.0353v2.3291h-.5271v-5.9072h2.1674c1.2155,0,1.8358.5273,1.8358,1.751,0,.8926-.3484,1.5127-1.1389,1.7256l1.2153,2.4307h-.5864l-1.1643-2.3291h-1.8018Zm1.6403-3.1104h-1.6403v2.6436h1.6403c.9603,0,1.2919-.5615,1.2919-1.3516,0-.8838-.408-1.292-1.2919-1.292Z" style="fill:#fff;"/><path d="m282.0514,18.4405c0-1.9463.4844-3.0684,2.3032-3.0684s2.3118,1.1133,2.3118,3.0684c0,2.0312-.4844,3.0088-2.3118,3.0088s-2.3032-1.0449-2.3032-3.0088Zm4.071,0c0-1.6572-.3314-2.5918-1.7678-2.5918-1.4448,0-1.7593.9258-1.7593,2.5918,0,1.6748.2889,2.5332,1.7593,2.5332s1.7678-.7988,1.7678-2.5332Z" style="fill:#fff;"/><path d="m288.5197,19.3077v2.0566h-.5269v-5.9072h2.1587c1.2664,0,1.8359.6123,1.8359,1.8701,0,1.2666-.5696,1.9805-1.8359,1.9805h-1.6318Zm1.6318-.4678c.918,0,1.292-.5527,1.292-1.5127,0-.9521-.374-1.4023-1.292-1.4023h-1.6318v2.915h1.6318Z" style="fill:#fff;"/><path d="m292.8887,18.4405c0-1.9463.4845-3.0684,2.3033-3.0684s2.3118,1.1133,2.3118,3.0684c0,2.0312-.4845,3.0088-2.3118,3.0088s-2.3033-1.0449-2.3033-3.0088Zm4.0712,0c0-1.6572-.3315-2.5918-1.7678-2.5918-1.4449,0-1.7594.9258-1.7594,2.5918,0,1.6748.2889,2.5332,1.7594,2.5332s1.7678-.7988,1.7678-2.5332Z" style="fill:#fff;"/><path d="m302.0936,15.9757s-1.1729-.1445-1.6658-.1445c-.8839,0-1.3684.3145-1.3684,1.0459,0,.875.4504,1.0029,1.4958,1.207,1.156.2295,1.7084.5098,1.7084,1.5547,0,1.3096-.6884,1.7939-1.8528,1.7939-.6715,0-1.8444-.1621-1.8444-.1621l.0596-.4502s1.1643.1445,1.7678.1445c.8838,0,1.3344-.3828,1.3344-1.292,0-.7393-.3824-.9268-1.3684-1.1045-1.1984-.2295-1.8358-.4844-1.8358-1.6572,0-1.1221.731-1.5469,1.8699-1.5469.6884,0,1.7423.1611,1.7423.1611l-.0426.4502Z" style="fill:#fff;"/><path d="m303.2839,18.4405c0-1.9463.4845-3.0684,2.3033-3.0684s2.3118,1.1133,2.3118,3.0684c0,2.0312-.4845,3.0088-2.3118,3.0088s-2.3033-1.0449-2.3033-3.0088Zm4.0712,0c0-1.6572-.3315-2.5918-1.7678-2.5918-1.4449,0-1.7594.9258-1.7594,2.5918,0,1.6748.2889,2.5332,1.7594,2.5332s1.7678-.7988,1.7678-2.5332Z" style="fill:#fff;"/><path d="m309.7523,19.3077v2.0566h-.527v-5.9072h2.1588c1.2664,0,1.8357.6123,1.8357,1.8701,0,1.2666-.5693,1.9805-1.8357,1.9805h-1.6318Zm1.6318-.4678c.9178,0,1.2917-.5527,1.2917-1.5127,0-.9521-.3739-1.4023-1.2917-1.4023h-1.6318v2.915h1.6318Z" style="fill:#fff;"/><path d="m318.0819,18.6358h-3.2042v2.7285h-.527v-5.9072h.527v2.7119h3.2042v-2.7119h.5183v5.9072h-.5183v-2.7285Z" style="fill:#fff;"/><path d="m320.1731,15.4571h.527v5.9072h-.527v-5.9072Z" style="fill:#fff;"/><path d="m322.2641,15.4571h3.5442v.4766h-3.0172v2.1924h2.5072v.4678h-2.5072v2.3027h3.0172v.4678h-3.5442v-5.9072Z" style="fill:#fff;"/></g></g></g></svg>