<?xml version="1.0" encoding="UTF-8"?><svg id="Ebene_2" xmlns="http://www.w3.org/2000/svg" viewBox="0 0 230.8958 24.036"><g id="Components"><g id="_9621458a-3002-4aa3-a305-2a3b3b1e3b2b_4"><g><path d="m26.0306,22.6221V4.9766h6.075c3.6299,0,5.8481,1.6641,5.8481,6.0244v5.748c0,3.5039-2.092,5.873-5.8481,5.873h-6.075Zm10.9905-11.6211c0-3.6797-1.8652-5.167-4.9155-5.167h-5.1675v15.9307h5.1675c3.2014,0,4.9155-2.1172,4.9155-5.0156v-5.748Z"/><path d="m45.9446,4.9766h2.8232l5.344,17.6455h-.9075l-1.7141-5.4199h-8.2681l-1.6887,5.4199h-.9075l5.3186-17.6455Zm-2.4702,11.3691h7.7639l-3.2014-10.5117h-1.3611l-3.2014,10.5117Z"/><path d="m66.3882,5.96s-3.4031-.4033-4.8652-.4033c-2.8735,0-4.4868,1.0078-4.4868,3.5293,0,3.0752,1.5881,3.4277,4.739,3.957,3.2014.5293,5.1423,1.2354,5.1423,4.4619,0,3.9326-1.8655,5.2939-5.344,5.2939-1.9158,0-5.3945-.4033-5.3945-.4033l.1008-.8828s3.4788.4287,5.2686.4287c2.8735,0,4.4111-1.21,4.4111-4.3604,0-2.5713-1.3611-3.126-4.4111-3.6309-3.4282-.5791-5.4702-1.083-5.4702-4.8145,0-3.252,2.0923-4.4365,5.4448-4.4365,1.9412,0,4.9155.4033,4.9155.4033l-.0503.8574Z"/></g><g><path d="m85.1185,21.5635v-6.8311h-3.8064v-.8574h4.7139v8.4189s-3.9575.5547-5.4197.5547c-3.6299,0-6.7302-1.6631-6.7302-6.0244v-6.2012c0-3.6045,2.7979-5.873,6.7302-5.873,1.2856,0,5.3694.7559,5.3694.7559l-.1262.8574s-4.134-.7559-5.2432-.7559c-3.3525,0-5.7976,2.0166-5.7976,5.0156v6.2012c0,3.6807,2.7224,5.168,5.7725,5.168,1.2605,0,4.5374-.4287,4.5374-.4287Z"/><path d="m89.9585,10.7999c0-4.1846,2.1677-6.0498,6.3523-6.0498s6.5034,1.8652,6.5034,6.0498v5.999c0,4.1846-2.3191,6.0752-6.5034,6.0752s-6.3523-1.8906-6.3523-6.0752v-5.999Zm.9326,5.999c0,3.6299,1.7898,5.2178,5.4197,5.2178s5.5708-1.5879,5.5708-5.2178v-5.999c0-3.6299-1.9409-5.1924-5.5708-5.1924s-5.4197,1.5625-5.4197,5.1924v5.999Z"/><path d="m107.2007,4.9766h10.3098v.9072h-9.4023v7.1094h7.8901v.9072h-7.8901v7.8145h9.4023v.9072h-10.3098V4.9766Z"/><path d="m119.0484,4.9766h12.3518v.8574h-5.697v16.7881h-.9075V5.834h-5.7473v-.8574Z"/><path d="m145.4661,14.2032h-10.5366v8.4189h-.9075V4.9766h.9075v8.3691h10.5366V4.9766h.9075v17.6455h-.9075v-8.4189Z"/><path d="m151.3147,4.9766h10.3098v.9072h-9.4023v7.1094h7.8899v.9072h-7.8899v7.8145h9.4023v.9072h-10.3098V4.9766Z"/><path d="m169.1114,4.9766h2.8232l5.344,17.6455h-.9075l-1.7141-5.4199h-8.2681l-1.689,5.4199h-.9075l5.3188-17.6455Zm-2.4702,11.3691h7.7639l-3.2014-10.5117h-1.3613l-3.2012,10.5117Z"/><path d="m180.5052,4.9766h2.8232v.1006l7.6379,16.6875h1.2605V4.9766h.8823v17.6455h-2.8232v-.1006l-7.6379-16.6875h-1.2351v16.7881h-.9077V4.9766Z"/><path d="m210.4017,4.9766v11.9238c0,3.0752-.9829,5.9736-6.2009,5.9736-5.2683,0-6.2263-2.6211-6.2263-5.9736V4.9766h.9075v11.9238c0,2.7217.9075,5.1162,5.3188,5.1162,4.4868,0,5.2935-2.5703,5.2935-5.1162V4.9766h.9075Z"/><path d="m215.2671,4.9766h2.8232l4.8398,16.1582,5.1423-16.1582h2.8232v17.6455h-.9075V5.834h-1.1848l-5.1929,16.2842h-1.3611l-4.9155-16.2842h-1.1594v16.7881h-.9075V4.9766Z"/></g><g><path d="m6.5277,3.961L18.0527,0v24.036h-6.847l.008-8.83c.003-.571-.098-1.105-.275-1.64-.543-1.631-4.411-9.605-4.411-9.605"/><path d="m6.0367,8.2095s3.492,5.584,3.492,6.889l.056,8.937h-4.036l-.025-3.073c-.041-1.862-4.267-7.118-4.267-7.118l4.78-5.635Z"/><path d="m0,20.4723l2.686-1.909s1.258,2.101,1.371,2.838c.113.737.022,2.634.022,2.634H1.223s.005-.691.009-.999c.008-.543-.164-1.007-.428-1.453-.123-.208-.695-.933-.804-1.111"/></g></g></g></svg>