<?xml version="1.0" encoding="UTF-8"?>
<!-- source: fee.svg -->
<svg xmlns="http://www.w3.org/2000/svg" viewBox="0 0 1000 1000" width="1000" height="1000">
  <path d="M365.13887276742673 619.9702777493081H311.9401436498701V654.4275904478835H355.5580589927009V667.538177718561H311.9401436498701V703.4242082607358H365.13887276742673V716.7028799836014H296.98062740512273V606.6916060264424H365.13887276742673V619.970277749308V619.9702777493081ZM397.9153409441204 621.1468689146254H383.20795137765526V605.0107615045608H397.9153409441204V621.1468689146254ZM383.20795137765526 636.9468074203136H397.9153409441204V716.7869222096956H383.20795137765526V636.9468074203136ZM434.4737092950479 636.9468074203136V642.241467664241C434.4737092950479 642.241467664241 446.7438743047845 635.1819206723377 457.92149037529794 635.1819206723377C479.9405536119486 635.1819206723377 485.235213855876 647.0318745516038 485.235213855876 674.2615558060878V716.7028799836014H470.69590874159906V674.5136824843702C470.69590874159906 656.0243927436711 468.4267686370588 648.2084657169212 454.89597023591085 648.2084657169212C444.47473420024414 648.2084657169212 434.6417937472361 653.3350415086604 434.6417937472361 653.3350415086604V716.7028799836015H419.93440418077097V636.8627651942196H434.4737092950479V636.9468074203136ZM534.7360850252928 705.4412216869939C539.1903230082794 705.4412216869939 548.434967878629 704.6848416521472 548.434967878629 704.6848416521472L549.2753901395698 716.6188377575074C549.2753901395698 716.6188377575074 538.6020274256208 718.5518089576715 532.9711982773171 718.5518089576715C515.7425419280294 718.5518089576715 510.1117127797256 711.9965153223327 510.1117127797256 689.0529875986471V649.6371835605206H499.2702656135885V637.0308496464077H510.1117127797256V613.2468996617813H524.6510178940025V637.0308496464077H548.2668834264408V649.6371835605206H524.6510178940025V686.1955519114481C524.6510178940025 700.9029414779133 525.4073979288494 705.525263913088 534.7360850252929 705.525263913088L534.7360850252928 705.4412216869939ZM605.6677238487017 635.1819206723378V649.8893102388029C590.7922498300484 652.91483037819 577.597620333277 659.6382084657168 577.597620333277 659.6382084657168V716.7869222096956H562.8902307668118V636.9468074203136H577.4295358810887V647.1999590037921C577.4295358810887 647.1999590037921 591.1284187344248 637.9553141334427 605.6677238487017 635.2659628984318V635.1819206723378ZM634.0739962685028 621.1468689146254H619.3666067020378V605.0107615045608H634.0739962685028V621.1468689146254ZM619.3666067020378 636.9468074203136H634.0739962685028V716.7869222096956H619.3666067020378V636.9468074203136ZM684.6674163771428 705.4412216869939C689.1216543601294 705.4412216869939 698.366299230479 704.6848416521472 698.366299230479 704.6848416521472L699.2067214914198 716.6188377575074C699.2067214914198 716.6188377575074 688.5333587774708 718.5518089576715 682.902529629167 718.5518089576715C665.6738732798794 718.5518089576715 660.0430441315756 711.9965153223327 660.0430441315756 689.0529875986471V649.6371835605206H649.2015969654385V637.0308496464077H660.0430441315756V613.2468996617813H674.5823492458525V637.0308496464077H698.1982147782908V649.6371835605206H674.5823492458525V686.1955519114481C674.5823492458525 700.9029414779133 675.3387292806993 705.525263913088 684.6674163771429 705.525263913088L684.6674163771428 705.4412216869939ZM741.395918990651 705.4412216869939C745.8501569736377 705.4412216869939 755.0948018439872 704.6848416521472 755.0948018439872 704.6848416521472L755.935224104928 716.6188377575074C755.935224104928 716.6188377575074 745.261861390979 718.5518089576715 739.6310322426752 718.5518089576715C722.4023758933877 718.5518089576715 716.7715467450838 711.9965153223327 716.7715467450838 689.0529875986471V649.6371835605206H705.9300995789467V637.0308496464077H716.7715467450838V613.2468996617813H731.3108518593607V637.0308496464077H754.926717391799V649.6371835605206H731.3108518593607V686.1955519114481C731.3108518593607 700.9029414779133 732.0672318942076 705.525263913088 741.3959189906511 705.525263913088L741.395918990651 705.4412216869939ZM479.52034248147817 797.3834170339244V806.2918929998975H423.9684310332872V852.0949062211746H471.2001620981637V860.8352977349596H423.9684310332872V908.2351132520242H414.05144835418497V797.2993748078303H479.52034248147817V797.3834170339244ZM550.7881502092633 899.9149328687097 551.1243191136397 907.7308598954597C551.1243191136397 907.7308598954597 533.0552405034111 910.0 520.6169910414864 910.0C496.83304105685994 909.8319155478118 489.6054096127685 895.460694885723 489.6054096127685 868.8193092138977C489.6054096127685 837.975812237368 503.05216578782233 826.9662806190427 522.4659200155562 826.9662806190427C543.0562654086074 826.9662806190427 553.8977125747446 837.975812237368 553.8977125747446 864.7852823613815L553.5615436703682 872.4331249359433H499.27026561358844C499.27026561358844 891.2585835810186 504.733010309704 901.343650712309 521.4574133024272 901.343650712309C533.1392827295052 901.343650712309 550.7041079831693 899.9149328687096 550.7041079831693 899.9149328687096L550.7881502092633 899.9149328687097ZM544.4009410261127 864.4491134570052C544.4009410261127 842.9343035769191 537.5094784863977 835.2024187762631 522.5499622416503 835.2024187762631C507.590445996903 835.2024187762631 499.4383500657766 843.1864302552013 499.4383500657766 864.4491134570052H544.4849832522068H544.4009410261127ZM631.300602807398 899.9149328687097 631.6367717117744 907.7308598954597C631.6367717117744 907.7308598954597 613.5676931015458 910.0 601.129443639621 910.0C577.3454936549946 909.8319155478118 570.1178622109031 895.460694885723 570.1178622109031 868.8193092138977C570.1178622109031 837.975812237368 583.564618385957 826.9662806190427 602.9783726136909 826.9662806190427C623.5687180067421 826.9662806190427 634.4101651728793 837.975812237368 634.4101651728793 864.7852823613815L634.0739962685029 872.4331249359433H579.7827182117231C579.7827182117231 891.2585835810186 585.2454629078387 901.343650712309 601.9698659005619 901.343650712309C613.6517353276399 901.343650712309 631.216560581304 899.9149328687096 631.216560581304 899.9149328687096L631.300602807398 899.9149328687097ZM624.8293513981533 864.4491134570052C624.8293513981533 842.9343035769191 617.9378888584382 835.2024187762631 602.9783726136909 835.2024187762631C588.0188563689435 835.2024187762631 579.8667604378171 843.1864302552013 579.8667604378171 864.4491134570052H624.9133936242474H624.8293513981533ZM325.13477314664163 279.935430972635C350.6836098792439 271.2790816849441 380.1824312382682 275.1450240852721 402.28553670101286 290.6928359126781C379.1739245251391 302.8789586963206 365.55908389789715 330.528851081275 370.85374414182456 356.2457722660654C372.4505464376122 366.83509275392026 377.7452066815397 379.4414266680332 390.35154059565264 379.1052577636569C396.3185386483327 379.1052577636569 433.2971181297307 365.1542482320386 439.51624286069307 363.55744593625093C438.6758205997522 410.5370503228451 400.1844810486607 448.44009429127806 353.0367922098783 448.44009429127806C255.46376771464412 446.7592497693963 233.4447044779935 312.96402582761095 325.13477314664163 279.93543097263506M455.0640546880991 268.6737726760275 425.9854444595452 280.6918110074818C414.6397439368435 270.52270165009736 401.3610722139779 262.8748590755355 386.9058093257951 258.16849441426666L388.92282275205315 225.81223736804344L421.27907979827637 200.3474428615353C430.43968244253176 193.11981141744388 443.29814303492697 193.11981141744388 452.45874567918236 200.3474428615353L465.2331640454835 210.2644255406375C486.24372056900506 225.81223736804344 478.59587799444324 260.01742338833657 455.14809691419316 268.75781490212154M711.7290131794385 102.94250281848929C711.7290131794385 102.94250281848929 708.3673241356752 90.16808445218817 708.3673241356752 90.0H461.53530609734366C443.80239639149147 90.0 426.32161336392153 96.05104027877421 412.37060383230323 107.06057189709952L331.353897877604 170.76457927641692C317.82309947645615 181.35389976427177 310.09121467580025 197.3219227221482 310.09121467580025 214.4665368453418L315.2177904675395 259.2610433534898C201.6767430144289 303.13108537460283 231.1755643734532 469.2825663626114 353.0367922098783 471.29957978886955C415.14399729340806 471.5517064671518 466.4097552108007 418.184892897407 462.0395594539083 355.99364558778313L557.8476972011666 324.5618530285949C578.6901692725 317.922517167162 594.0698966477179 310.4427590447884 620.2910711890728 288.1715691298555L620.6272400934491 287.8354002254792L652.2271171048255 255.3951009531619C663.2366487231508 242.28451368248443 688.9535699079412 239.4270779952855 706.8545640659815 240.43558470841452L711.3088020489682 226.06436404632575C692.2312167256106 227.15691298554887 659.7909174532932 224.63564620272626 648.3611747044976 237.3260223429333L616.677255467027 267.7493081889926C591.2124609605188 289.34816029517276 571.7146645066908 296.65983396535825 555.9147260010026 301.7023675310034C521.0372021719568 313.97253254074 427.75033120752096 346.83304294352774 393.713229639416 357.75853233575896C388.9228227520531 338.344778108025 397.3270453614617 316.74592600184485 416.32058845872524 309.18212565337706C416.32058845872524 309.18212565337706 437.8353983388113 300.2736496874039 437.8353983388113 300.2736496874039C452.3747034530883 293.8864405042534 475.3182311767738 287.1630624167265 485.4032983080641 274.1365173721431C508.0946993534675 250.26852516142262 502.7159968834459 211.44101670595475 476.4107801159969 192.02726247822082C476.4107801159969 192.02726247822082 466.2416707586125 184.63154658194122 466.2416707586125 184.63154658194122C448.76088773104254 170.93266372860515 424.3045999376634 170.93266372860515 406.82381691009346 184.63154658194122L373.290968698553 211.0208055754843C368.5005618111901 214.8027057497182 368.3324773590019 217.9122681151994 368.3324773590019 224.0473506200677V253.04191862252748C360.9367614627223 252.62170749205706 353.37296111425457 251.94936968330438 345.8932029918809 252.53766526596297C340.68258497404753 252.70574971815114 335.3879247301201 253.96638310956246 330.09326448619265 254.13446756175063L326.9837021207115 214.29845239315372C326.9837021207115 204.21338526186338 331.5219823297922 194.8006559393257 339.50599380873035 188.58153120836332L423.1280087723462 122.27221482012922C433.04499145144837 114.4562877933792 448.5928032788544 106.97652967100552 461.2831794190614 106.97652967100552L711.3928442750622 102.7744183663012C711.3928442750622 102.7744183663012 711.3928442750622 102.7744183663012 711.3928442750622 102.7744183663012L711.7290131794385 102.94250281848929Z" fill="#000000"/>
</svg>
