<?xml version="1.0" encoding="UTF-8"?>
<!-- source: leash-dogs.svg -->
<svg xmlns="http://www.w3.org/2000/svg" viewBox="0 0 1000 1000" width="1000" height="1000">
  <path d="M535.9905889988643 411.1963571337574C535.5249067012819 389.5088672749224 526.9430472172644 368.8857940962756 526.743469089729 347.3978823649759L520.0908648385526 340.0800176886819L451.1033587538537 332.3629967573173L443.85202012007136 336.22150722299955C436.2680512737303 350.5246063630288 423.4285250689599 361.9670856750522 415.0462437124777 376.0040806450343C405.4664935907837 390.97244021018116 400.3439883173779 408.8679456458456 400.8096706149602 426.6303989964865L412.0525717994483 426.7634510815101C410.9881551192601 393.1677996130694 435.7358429336362 372.0125180943285 454.097030666883 347.26483027995243L512.1742657796528 354.25006474368763C515.7001460327763 378.59859630299314 525.3464221969821 401.7496590970869 524.8807398993997 426.69692503899836H536.1901671263995C536.2566931689113 421.50789372308077 536.1901671263995 416.385388449675 535.9240629563524 411.1963571337574H535.9905889988643ZM787.3925036508193 248.93933944756554C778.0123316566606 248.93933944756554 770.4948888528313 256.9224645489772 771.0936232354372 266.3026365431359C713.2824922927146 284.4642461488474 648.0869706311861 295.70714733333546 588.8787927957163 276.81375125999455C590.5419438585104 272.5560845392417 592.2716209638163 268.2984178184888 594.0678241116339 264.1072771402477C601.1861106603925 262.2445479499183 611.2980691221807 259.6500322919595 618.2833035859159 257.78730310163013C632.7194548109686 254.32794889101842 640.1703715722862 237.2972820080069 637.6423819568391 223.59291725058358L632.919032938504 219.00262031727186C624.8693817945806 217.00683904191897 616.7532046081453 215.01105776656604 608.5705013791984 213.41443274628372L603.1818919357455 204.03426075212502L599.0572773000162 200.7744846690486C591.0741521986046 198.44607318113688 582.4257666720753 195.71850543815455 573.777381145546 196.31723982076042C569.0540321272108 196.64987003331925 564.3972091513873 197.98039088355452 560.1395424306344 199.97617215890745C539.716047379523 208.35845351538967 534.9926983611878 231.77562047953052 524.1489534317702 248.34060506495968C515.8331981177998 259.9826625045183 500.266104170047 260.64792292963597 487.22699983774135 261.778865652336C468.0674995943534 263.3089646301065 445.648223267889 263.7081208851771 426.8213532370599 267.3670532233241C412.25214992698363 270.5603032638888 399.41262372221325 280.2065794280945 392.427389258478 293.37873584542376C381.31754015901345 313.00391838639405 384.31121207204285 336.6871895205819 381.5171182865488 358.17510125188164C380.98490994645465 361.76750754751686 379.9204932662664 365.2268617581286 378.92260262858997 368.75274201125205C373.4009411001136 387.5796120420812 367.8792795716372 407.33784666807503 368.0123316566607 427.16260733658066L379.18870679863704 427.4287115066277C379.18870679863704 405.4085914352339 387.1053058575369 384.31983595900476 392.6934934285251 363.2310804827757C396.55200389420736 343.7389500268289 393.558331981178 322.1179862105057 401.20882687003086 303.4906943072118C405.7991238033425 293.77789210049434 413.3830926496836 285.32908470150034 423.694629239007 281.73667840586506C428.0853480447834 280.073527343071 432.94174914814215 279.1421627479063 437.59857212396565 278.6099544078122C446.6461139055655 277.6785898126475 455.76018172967713 277.0133293875299 464.94077559630057 276.41459500492397C472.0590621450593 276.14849083487695 491.4846665584943 274.9510220696652 498.40337497971774 274.28576164454756C509.4466980366705 273.08829287933577 520.8226513061821 270.5603032638888 529.4710368327114 262.90980837503594C542.2440369949701 271.89082411412403 556.0814538374169 279.3417408754416 570.8502352750285 284.9964544889415C567.7900373194874 293.51178793044727 564.796365406458 302.0936474144648 562.6675320460815 310.94161106852937C560.0064903456109 322.2510382955292 558.4098653253286 333.8265696925761 557.1458705176051 345.2690490045994C554.2852506895993 372.27862226437554 553.6199902644817 400.01998199178104 553.7530423495051 427.2291333790924H564.9959435339932C565.2620477040404 400.5521903318752 566.459516469252 373.276512902052 569.7858185948402 346.79914798237C571.1828654875872 335.95540305295253 572.912542592893 324.97860603851154 575.5735842933636 314.33443923662935C577.7689436962519 305.95215788014707 580.8956676943047 297.70292860868835 583.9558656498459 289.5202253797414C646.4238195683921 308.6797256231294 714.7460652279734 296.0397775458943 775.0851857861431 275.6828085372946C784.3323056952784 287.12528784931794 804.157066363784 280.07352734307096 803.8244361512252 265.1051677779242C803.8244361512252 256.12415203883603 796.5065714749312 248.80628736254204 787.525555735843 248.80628736254204L787.3925036508193 248.93933944756554ZM590.5419438585105 265.0386417354124C590.5419438585105 265.0386417354124 590.6084699010223 265.0386417354124 590.6084699010223 265.0386417354124H590.5419438585105ZM587.0825896478988 250.93512072291847C587.0825896478988 250.93512072291847 582.1596625020283 255.19278744367136 582.0931364595165 255.19278744367136C579.8312510141164 260.78097501465953 577.7024176537401 266.3026365431359 575.6401103358754 271.89082411412403C562.534479961058 266.56874071318293 550.1606360538699 259.58350624944774 538.85120882687 251.40080302050083C545.4372870355346 240.4240060060598 548.963167288658 226.85269333366 558.3433392828168 218.0047296795954C561.1374330683109 215.34368797912487 564.7298393639461 213.2813806612602 568.4552977446049 211.88433376851316C576.305370760993 208.75760977046025 584.5546000324517 211.2190733433955 592.4711990913515 213.41443274628372L598.0593866623398 223.193760995513L603.3149440207692 226.7196412486365C610.6993347395749 227.51795375877765 618.0837254583806 228.91500065152468 625.4015901346746 230.3120475442717C624.5367515820218 235.56760490270105 621.7426577965276 242.2867351963892 616.6201525231219 244.0829383442068C616.6201525231219 244.0829383442068 609.6349180593867 245.67956336448913 609.6349180593867 245.67956336448913C604.8450429985397 246.81050608718914 592.1385688787929 249.67112591519498 587.2156417329223 250.80206863789493L587.0825896478988 250.93512072291847ZM787.3925036508193 270.1611470088182C780.9394775271783 270.1611470088182 780.9394775271783 260.3818187595889 787.3925036508193 260.31529271707717C793.8455297744604 260.31529271707717 793.8455297744604 270.0946209663064 787.3925036508193 270.1611470088182ZM101.90816160960571 622.1504379385601H90.0V535.0678482906615H101.90816160960571V573.1207446073902H142.88820379685217V535.0678482906615H154.79636540645788V622.1504379385601H142.88820379685217V583.631859324249H101.90816160960571V622.1504379385601ZM212.8070744767159 622.1504379385601V617.9592972603191C212.8070744767159 617.9592972603191 203.42690248255718 623.5474848313072 194.84504299853967 623.5474848313072C177.016063605387 623.5474848313072 173.22407918221649 614.6995211772426 173.22407918221649 591.9476146382194V558.9506975523846H184.86613662177513V591.9476146382194C184.86613662177513 607.6477606709957 186.13013142949865 613.0363701144486 196.84082427389262 613.0363701144486C205.2896316728866 613.0363701144486 212.74054843420413 609.1113336062544 212.74054843420413 609.1113336062544V558.9506975523846H224.24955378873926V622.1504379385601H212.74054843420413H212.8070744767159ZM253.25490832386822 558.9506975523847V563.1418382306258C253.25490832386822 563.1418382306258 262.96771053058575 557.5536506596376 271.81567418465033 557.5536506596376C289.24549732273243 557.5536506596376 293.4366380009735 566.9338226537963 293.4366380009735 588.4882604276078V622.0839118960484H281.9276326464384V588.6878385551431C281.9276326464384 574.052109202555 280.1314294986208 567.8651872489611 269.4207366542268 567.8651872489611C261.1715073827681 567.8651872489611 253.38796040889173 571.9232758421786 253.38796040889173 571.9232758421786V622.0839118960484H241.7459029693331V558.8841715098729H253.25490832386822V558.9506975523847ZM330.69122180756125 623.5474848313072C316.388122667532 623.5474848313072 307.4071069284439 616.6953024525956 307.4071069284439 590.8166719155195C307.4071069284439 568.3308695465433 315.1241278598085 557.5536506596376 333.6848937205906 557.5536506596376C339.0069771215317 557.5536506596376 347.32273243550213 558.9506975523847 348.7197793282492 559.2168017224317V532.074176377632H360.2287846827843V622.1504379385603H348.7197793282492V618.3584535153898C348.7197793282492 618.3584535153898 339.2730812915787 623.5474848313072 330.62469576504947 623.5474848313072H330.69122180756125ZM332.35437287035535 613.0363701144486C340.4705500567905 613.0363701144486 348.78630537076094 609.1113336062544 348.78630537076094 609.1113336062544V569.0626560141727C347.3892584780139 568.7965518441256 339.80528963167285 567.6656091214256 334.48320623073175 567.6656091214256C323.2403050462437 567.6656091214256 319.1822164530261 575.3826300527902 319.1822164530261 590.8166719155195C319.1822164530261 609.1113336062544 324.7704040240143 613.0363701144486 332.35437287035535 613.0363701144486ZM425.49083238682454 612.1715315617956 425.7569365568716 621.0194952158602C425.7569365568716 621.0194952158602 411.32078533181885 623.5474848313072 400.6100924874249 623.5474848313072C381.78322245659575 623.5474848313072 374.9310400778841 612.903318029425 374.9310400778841 591.0827760855666C374.9310400778841 567.4660309938904 385.17605062469573 557.5536506596376 401.8740872951484 557.5536506596376C418.57212396560107 557.5536506596376 427.885769917248 566.6677184837492 427.885769917248 586.8916354073253L427.1539834496186 595.3404428063194H386.70614960246627C386.8392016874898 607.2486044159251 390.76423819568384 613.3024742844957 402.273243550219 613.3024742844957C411.9860457569365 613.3024742844957 425.5573584293363 612.1715315617956 425.5573584293363 612.1715315617956H425.49083238682454ZM416.37676456271294 586.2929010247195C416.37676456271294 572.1228539697138 412.0525717994483 567.3329789088668 401.87408729514846 567.3329789088668C391.69560279084857 567.3329789088668 386.7061496024663 572.6550623098079 386.5730975174428 586.2929010247195H416.37676456271294ZM521.9535940288821 614.4334170071957 521.5544377738115 623.5474848313072C514.369625182541 623.5474848313072 509.7793282492293 622.4165421086072 505.6547136134999 618.6245576854367C505.6547136134999 618.6245576854367 494.8774947265942 623.5474848313072 484.0337497971767 623.5474848313072C472.0590621450592 623.5474848313072 465.73908810644167 616.6953024525956 465.73908810644167 603.7227241628017C465.73908810644167 590.7501458730078 472.5912704851533 586.0267968546725 485.8299529449943 584.8958541319726L503.92503650819407 583.2327030691785V578.1767238382845C503.92503650819407 570.3266508218962 500.53220834009414 567.6656091214257 493.68002596138246 567.6656091214257C484.9651143923414 567.6656091214257 469.79717669965925 569.0626560141728 469.79717669965925 569.0626560141728L469.39802044458867 560.6138486151788C469.39802044458867 560.6138486151788 483.1689112445237 557.5536506596377 494.4118124290118 557.5536506596377C509.3136459516469 557.5536506596377 515.5005679052409 564.1397288683022 515.5005679052409 578.1767238382845V608.7787033936958C515.7666720752879 612.5706878168663 518.0285575206879 613.9677347096133 521.953594028882 614.4334170071957H521.9535940288821ZM486.1625831575531 613.8346826245897C494.41181242901183 613.8346826245897 503.8585104656823 610.5749065415133 503.8585104656823 610.5749065415133V591.7480365106842L487.1604737952296 593.2781354884547C480.4413435015415 593.9433959135724 477.4476715885121 597.2031719966487 477.4476715885121 603.5231460352663C477.4476715885121 609.8431200738839 480.2417653740062 613.9012086671015 486.1625831575532 613.9012086671015L486.1625831575531 613.8346826245897ZM544.9716047379522 558.9506975523847V563.1418382306258C544.9716047379522 563.1418382306258 554.6844069446697 557.5536506596376 563.5323705987344 557.5536506596376C580.9621937368165 557.5536506596376 585.1533344150577 566.9338226537963 585.1533344150577 588.4882604276078V622.0839118960484H573.6443290605225V588.6878385551431C573.6443290605225 574.052109202555 571.8481259127049 567.8651872489611 561.1374330683109 567.8651872489611C552.954729839364 567.8651872489611 545.1046568229759 571.9232758421786 545.1046568229759 571.9232758421786V622.0839118960484H533.4625993834172V558.8841715098729H544.9716047379524L544.9716047379522 558.9506975523847ZM614.3582670777218 622.1504379385601H602.7162096381633V532.074176377632H614.3582670777218V622.1504379385601ZM680.2190491643679 612.1715315617956 680.485153334415 621.0194952158602C680.485153334415 621.0194952158602 666.0490021093623 623.5474848313072 655.3383092649683 623.5474848313072C636.5114392341392 623.5474848313072 629.6592568554275 612.903318029425 629.6592568554275 591.0827760855666C629.6592568554275 567.4660309938904 639.9042674022392 557.5536506596376 656.6023040726918 557.5536506596376C673.3003407431445 557.5536506596376 682.6139866947915 566.6677184837492 682.6139866947915 586.8916354073253L681.882200227162 595.3404428063194H641.4343663800097C641.5674184650331 607.2486044159251 645.4924549732273 613.3024742844957 657.0014603277624 613.3024742844957C666.7142625344799 613.3024742844957 680.2855752068798 612.1715315617956 680.2855752068798 612.1715315617956H680.2190491643679ZM671.1049813402564 586.2929010247195C671.1049813402564 572.1228539697138 666.7807885769917 567.3329789088668 656.6023040726918 567.3329789088668C646.423819568392 567.3329789088668 641.4343663800097 572.6550623098079 641.3013142949862 586.2929010247195H671.1049813402564ZM708.2265130618206 546.443801560173H696.5844556222619V533.6708013979144H708.2265130618206V546.443801560173ZM696.6509816647736 558.9506975523847H708.2930391043323V622.1504379385603H696.6509816647736V558.9506975523848V558.9506975523847ZM737.1653415544378 558.9506975523847V563.1418382306258C737.1653415544378 563.1418382306258 746.8781437611552 557.5536506596376 755.7261074152199 557.5536506596376C773.155930553302 557.5536506596376 777.347071231543 566.9338226537963 777.347071231543 588.4882604276078V622.0839118960484H765.8380658770079V588.6878385551431C765.8380658770079 574.052109202555 764.0418627291904 567.8651872489611 753.3311698847964 567.8651872489611C745.1484666558493 567.8651872489611 737.2983936394613 571.9232758421786 737.2983936394613 571.9232758421786V622.0839118960484H725.6563361999026V558.8841715098729H737.1653415544379L737.1653415544378 558.9506975523847ZM841.8773324679538 612.1715315617956 842.1434366380009 621.0194952158602C842.1434366380009 621.0194952158602 827.7072854129482 623.5474848313072 816.9965925685542 623.5474848313072C798.1697225377251 623.5474848313072 791.3175401590134 612.903318029425 791.3175401590134 591.0827760855666C791.3175401590134 567.4660309938904 801.5625507058251 557.5536506596376 818.2605873762777 557.5536506596376C834.9586240467304 557.5536506596376 844.2722699983773 566.6677184837492 844.2722699983773 586.8916354073253L843.5404835307479 595.3404428063194H803.0926496835956C803.225701768619 607.2486044159251 807.1507382768132 613.3024742844957 818.6597436313483 613.3024742844957C828.3725458380658 613.3024742844957 841.9438585104656 612.1715315617956 841.9438585104656 612.1715315617956H841.8773324679538ZM832.7632646438423 586.2929010247195C832.7632646438423 572.1228539697138 828.4390718805776 567.3329789088668 818.2605873762777 567.3329789088668C808.0821028719779 567.3329789088668 803.0926496835956 572.6550623098079 802.959597598572 586.2929010247195H832.7632646438423ZM869.8182703228946 558.9506975523847V563.1418382306258C869.8182703228946 563.1418382306258 879.5310725296121 557.5536506596376 888.3790361836768 557.5536506596376C905.8088593217589 557.5536506596376 910.0 566.9338226537963 910.0 588.4882604276078V622.0839118960484H898.4909946454649V588.6878385551431C898.4909946454649 574.052109202555 896.6947914976472 567.8651872489611 885.9840986532532 567.8651872489611C877.7348693817946 567.8651872489611 869.9513224079183 571.9232758421786 869.9513224079183 571.9232758421786V622.0839118960484H858.3092649683596V558.8841715098729H869.8182703228947L869.8182703228946 558.9506975523847ZM213.07317864676293 686.0154387498535H220.92325166315106V766.7780543591346H261.10498134025636V773.8298148653816H213.07317864676293V686.0154387498535ZM316.9868570501379 767.1106845716934 317.252961220185 773.2976065252874C317.252961220185 773.2976065252874 302.94986208015575 775.0938096731052 293.1040077884147 775.0938096731052C274.2771377575856 774.9607575880816 268.55589810157386 763.5848043185699 268.55589810157386 742.4960488423408C268.55589810157386 718.0809912405234 279.2000649034561 709.3660796714823 294.56758072367353 709.3660796714823C310.8664611390557 709.3660796714823 319.4483206230732 718.0809912405234 319.4483206230732 739.3027988017761L319.1822164530261 745.3566686703466H276.2063929904267C276.2063929904267 760.2585021929817 280.53058575369135 768.2416272943933 293.76926821353237 768.2416272943933C303.01638812266754 768.2416272943933 316.92033100762615 767.1106845716934 316.92033100762615 767.1106845716934H316.9868570501379ZM311.93087781924385 739.1032206742409C311.93087781924385 722.0725537912292 306.47574233327924 715.9521578801471 294.63410676618525 715.9521578801471C282.7924711990913 715.9521578801471 276.3394450754502 722.2721319187647 276.3394450754502 739.1032206742409H311.9974038617556H311.93087781924385ZM386.77267564497805 768.9068877195109 386.37351938990747 774.9607575880816C380.18659743631343 774.9607575880816 375.52977446048993 773.6967627803581 372.0704202498783 769.9047783571875C372.0704202498783 769.9047783571875 360.16225864027257 775.0938096731049 348.3206230731786 775.0938096731049C337.210773973714 775.0938096731049 331.02385202012005 768.640783549464 331.02385202012005 756.0008354722288C331.02385202012005 744.3587780326702 336.81161771864345 738.8371165041938 349.5846178809021 737.5731216964703L371.0725296122018 735.4442883360939V729.5234705525468C371.0725296122018 719.9437204308529 366.74833684893713 716.2182620501942 358.6986857050137 716.2182620501942C349.5846178809021 716.2182620501942 334.81583644329055 718.1475172830353 334.81583644329055 718.1475172830353L334.41668018821997 712.0936474144648C334.41668018821997 712.0936474144648 348.3206230731786 709.4326057139942 358.9647898750608 709.4326057139942C372.7356806749959 709.4326057139942 378.5234463735193 716.1517360076823 378.5234463735193 729.5234705525468V763.3852261910347C378.92260262858986 767.177210614205 382.58153496673685 768.4412054219288 386.7061496024662 768.9734137620228L386.77267564497805 768.9068877195109ZM349.38503975336687 768.640783549464C359.6300503001784 768.640783549464 371.1390556547136 764.2500647436875 371.1390556547136 764.2500647436875V741.3651061196408L350.5159824760668 743.4939394800174C342.0671750770728 744.2257259476467 338.8739250365082 748.2838145408643 338.8739250365082 755.8677833872055C338.8739250365082 763.9839605736406 342.3998052896317 768.640783549464 349.38503975336687 768.640783549464ZM417.2416031153659 716.3513141352178C409.39153009897774 716.3513141352178 402.3397695927308 718.4801474955941 402.3397695927308 727.0620069796116C402.3397695927308 733.6480851882764 405.46649359078367 735.5108143786056 419.30391043323056 737.8392258665174C435.46973876358913 740.500267566988 441.52360863215966 743.4274134375055 441.52360863215966 755.5351531746467C441.52360863215966 770.3039346122582 432.2764887230245 775.1603357156168 417.1085510303423 775.1603357156168C409.39153009897774 775.1603357156168 395.48758721401913 772.8984502702169 395.48758721401913 772.8984502702169L396.0197955541132 766.1793199765286C396.0197955541132 766.1793199765286 410.1898426091189 768.3081533369052 416.64286873276 768.3081533369052C427.4866136621775 768.3081533369052 433.80658770079503 765.7801637214582 433.80658770079503 755.9343094297171C433.80658770079503 748.350340583376 430.0146032776245 746.6871895205818 415.8445562226188 744.5583561602054C401.3418789550543 742.2964707148055 394.6227486613662 739.6354290143349 394.6227486613662 727.3946371921704C394.6227486613662 713.6237463922355 405.99870193087776 709.5656577990178 416.9754989453188 709.5656577990178C426.42219698198926 709.5656577990178 439.3282492292714 711.6944911593941 439.3282492292714 711.6944911593941L439.06214505922435 718.4136214530822C439.06214505922435 718.4136214530822 425.5573584293363 716.4178401777294 417.1750770728541 716.4178401777294L417.2416031153659 716.3513141352178ZM456.8245984098653 682.6226105817534H464.2755151711828V714.3555328598648C464.2755151711828 714.3555328598648 474.919681973065 709.4326057139942 484.76553626480603 709.4326057139942C502.0623073178646 709.4326057139942 505.8542917410351 717.5487829004294 505.8542917410351 740.6333196520113V773.8963409078933H498.27032289469406V741.032475907082C498.27032289469406 722.4717100462999 496.27454161934116 716.2847880927059 483.7011195846178 716.2847880927059C473.85526529287677 716.2847880927059 464.27551517118275 720.6089808559707 464.27551517118275 720.6089808559707V773.962866950405H456.82459840986525V682.6891366242653L456.8245984098653 682.6226105817534ZM589.1448969657635 773.8298148653814V769.172991889558C589.1448969657635 769.172991889558 579.1659905889989 775.0938096731049 568.9209800421872 775.0938096731049C558.6759694953755 775.0938096731049 546.7012818432581 771.5679294199815 546.7012818432581 742.9617311399231C546.7012818432581 720.8750850260176 553.4204121369463 709.3660796714823 573.2451728054518 709.3660796714823C578.8333603764399 709.3660796714823 586.7499594353399 710.6300744792059 589.1448969657633 711.0292307342766V682.6226105817534H596.7288658121043V773.8963409078933H589.1448969657633L589.1448969657635 773.8298148653814ZM569.6527665098167 768.3081533369052C579.2325166315106 768.3081533369052 589.1448969657636 762.8530178509404 589.1448969657636 762.8530178509404V717.6153089429413C586.6169073503165 717.2161526878706 578.5007301638814 716.0852099651706 573.4447509329873 716.0852099651706C558.4098653253286 716.0852099651706 554.4848288171346 725.6649600868645 554.4848288171346 743.0282571824348C554.4848288171346 765.3810074663875 562.3349018335228 768.3081533369052 569.6527665098167 768.3081533369052ZM665.849423981827 741.3651061196408C665.849423981827 765.2479553813641 660.527340580886 775.0938096731049 639.4385851046568 775.0938096731049C618.3498296284276 775.0938096731049 612.8946941424631 765.2479553813639 612.8946941424631 741.3651061196408C612.8946941424631 719.0123558356881 619.8134025636866 709.3660796714823 639.4385851046568 709.3660796714823C659.0637676456271 709.3660796714823 665.849423981827 718.9458297931765 665.849423981827 741.3651061196408ZM639.4385851046568 768.4412054219288C655.7374655200389 768.4412054219288 658.1324030504625 760.7241844905641 658.1324030504625 741.3651061196408C658.1324030504625 722.0060277487175 653.8082102871978 716.0852099651706 639.4385851046568 716.0852099651706C625.0689599221158 716.0852099651706 620.7447671588511 722.4051840037882 620.7447671588511 741.3651061196408C620.7447671588511 760.3250282354934 623.0066526042511 768.4412054219285 639.4385851046568 768.4412054219285V768.4412054219288ZM679.3542106117151 784.3409295822403C679.3542106117151 776.6239086508756 682.8800908648385 773.3641325677993 689.5992211585267 768.4412054219288C687.4703877981503 767.0441585291817 686.405971117962 763.7843824461052 686.405971117962 759.8593459379113C686.405971117962 757.7305125775347 690.4640597111796 750.01349164617 690.4640597111796 750.01349164617C685.008924225215 747.7516062007701 680.0859970793445 742.695626969876 680.0859970793445 730.9205174452939C680.0859970793445 715.4864755825647 689.2000649034561 709.4326057139942 702.9709557033912 709.4326057139942C709.5570339120558 709.4326057139942 716.2096381632322 711.0957567767882 716.2096381632322 711.0957567767882L734.5042998539672 710.6966005217175V717.4157308154058L721.864351776732 717.1496266453587C724.5253934772026 719.8106683458293 726.388122667532 723.4696006839763 726.388122667532 730.9205174452939C726.388122667532 746.9532936906287 718.4049975661203 752.0092729215228 702.5052734058088 752.0092729215228C701.3743306831087 752.0092729215228 697.4492941749147 751.7431687514759 696.0522472821677 751.4770645814287C696.0522472821677 751.4770645814287 693.5242576667207 757.6639865350228 693.5242576667207 759.327137597817C693.5242576667207 764.7822730837815 694.5221483043972 765.3810074663875 709.5570339120558 765.514059551411C726.7207528800908 765.514059551411 733.1737790037319 768.5742575069521 733.1737790037319 783.808721242146C733.1737790037319 797.9787682971516 723.7270809670614 803.7665339956752 705.4989453188382 803.7665339956752C685.1419763102384 803.7665339956752 679.2211585266915 798.9766589348283 679.2211585266915 784.34092958224L679.3542106117151 784.3409295822403ZM705.831575531397 797.2469818295224C719.7355184163557 797.2469818295224 725.6563361999026 793.4549974063518 725.6563361999026 784.0748254121931C725.6563361999026 773.2976065252874 721.1325653091027 772.1666638025874 709.2244036994971 772.1666638025874C704.43452863865 772.1666638025874 694.9213045594678 771.6344554624934 694.9213045594678 771.6344554624934C688.8674346908973 775.958648225758 686.9381794580561 778.3535857561815 686.9381794580561 783.7421951996344C686.9381794580561 793.5880494913754 690.3310076261561 797.1139297444988 705.7650494888852 797.1139297444988L705.831575531397 797.2469818295224ZM703.0374817459029 745.6892988829054C714.6795391854616 745.6892988829054 718.804153821191 741.7642623747115 718.804153821191 730.9205174452939C718.804153821191 720.0767725158764 714.61301314295 715.7525797526118 703.0374817459029 715.7525797526118C692.3933149440207 715.7525797526118 687.8695440532208 719.9437204308529 687.8695440532208 730.9205174452939C687.8695440532208 741.8973144597351 692.3933149440207 745.6892988829054 703.0374817459029 745.6892988829054ZM765.5719617069608 716.3513141352178C757.7218886905727 716.3513141352178 750.6701281843258 718.4801474955941 750.6701281843258 727.0620069796116C750.6701281843258 733.6480851882764 753.7968521823786 735.5108143786056 767.6342690248255 737.8392258665174C783.8000973551841 740.500267566988 789.8539672237546 743.4274134375055 789.8539672237546 755.5351531746467C789.8539672237546 770.3039346122582 780.6068473146195 775.1603357156168 765.4389096219373 775.1603357156168C757.7218886905728 775.1603357156168 743.8179458056142 772.8984502702169 743.8179458056142 772.8984502702169L744.3501541457082 766.1793199765286C744.3501541457082 766.1793199765286 758.5202012007138 768.3081533369052 764.973227324355 768.3081533369052C775.8169722537724 768.3081533369052 782.13694629239 765.7801637214582 782.13694629239 755.9343094297171C782.13694629239 748.350340583376 778.3449618692194 746.6871895205818 764.1749148142137 744.5583561602054C749.6722375466492 742.2964707148055 742.9531072529611 739.6354290143349 742.9531072529611 727.3946371921704C742.9531072529611 713.6237463922355 754.3290605224727 709.5656577990178 765.3058575369138 709.5656577990178C774.7525555735842 709.5656577990178 787.6586078208663 711.6944911593941 787.6586078208663 711.6944911593941L787.3925036508192 718.4136214530822C787.3925036508192 718.4136214530822 773.8877170209312 716.4178401777294 765.5054356644489 716.4178401777294L765.5719617069608 716.3513141352178Z" fill="#000000"/>
</svg>
