<?xml version="1.0" encoding="UTF-8"?>
<!-- source: lift.svg -->
<svg xmlns="http://www.w3.org/2000/svg" viewBox="0 0 1000 1000" width="1000" height="1000">
  <path d="M587.7201870615744 90.0H428.337879968823C417.63250194855806 90.0 408.9243959469992 98.70810600155885 408.9243959469992 109.41348402182385V437.28565861262666C408.9243959469992 447.9910366328917 417.63250194855806 456.6991426344505 428.337879968823 456.6991426344505H587.7201870615744C598.4255650818395 456.6991426344505 607.1336710833982 447.9910366328916 607.1336710833982 437.28565861262666V109.41348402182385C607.1336710833982 98.70810600155885 598.4255650818394 90.0 587.7201870615744 90.0ZM503.9945440374123 141.9290724863601H514.5401402961809L575.4169914263446 189.62392829306313L564.871395167576 203.0455962587685L509.1874512860483 159.42517537022601L453.50350740452063 203.0455962587685L442.9579111457521 189.62392829306313L503.9146531566641 141.9290724863601H503.9945440374123ZM514.5401402961809 404.7700701480904H503.9945440374123L443.1176929072486 357.0752143413874L453.66328916601714 343.653546375682L509.34723304754476 387.2739672642245L565.0311769290724 343.653546375682L575.5767731878409 357.0752143413874L514.6200311769289 404.7700701480904H514.5401402961809ZM268.9555728760717 634.1367887763055H219.423226812159V672.0849571317225H260.88659392049885V684.7077162899454H219.423226812159V726.1710833982852H205.1227591582229V621.5939204988308H268.8756819953235V634.2166796570538L268.9555728760717 634.1367887763055ZM341.6562743569758 716.8238503507404 341.17692907248636 727.7689010132502C332.5487139516757 727.7689010132502 327.03624318004677 726.41075604053 322.0830085736555 721.85697583788C322.0830085736555 721.85697583788 309.1406858924396 727.7689010132502 296.11847233047547 727.7689010132502C281.7381137957911 727.7689010132502 274.1484801247077 719.5401402961808 274.1484801247077 703.9614185502728C274.1484801247077 688.3826968043647 282.37724084177705 682.7104442712392 298.27552611067813 681.352299298519L320.0058456742011 679.3550272798129V673.2833203429461C320.0058456742011 663.856196414653 315.9314107560405 660.6605611847233 307.70265003897117 660.6605611847233C297.2369446609509 660.6605611847233 279.02182385035076 662.3382696804364 279.02182385035076 662.3382696804364L278.54247856586124 652.1921278254091C278.54247856586124 652.1921278254091 295.0798908807482 648.5171473109898 308.58144972720186 648.5171473109898C326.47700701480903 648.5171473109898 333.9068589243959 656.4263445050661 333.9068589243959 673.2833203429461V710.0331254871394C334.2264224473889 714.5869056897894 336.9427123928293 716.2646141855026 341.6562743569758 716.8238503507403V716.8238503507404ZM298.6749805144193 716.1048324240063C308.58144972720186 716.1048324240063 319.92595479345283 712.1901792673423 319.92595479345283 712.1901792673423V689.5810600155886L299.873343725643 691.4185502727983C291.80436477007015 692.2174590802807 288.209275136399 696.1321122369449 288.209275136399 703.7217459080282C288.209275136399 711.3113795791116 291.5646921278254 716.1847233047547 298.6749805144193 716.1847233047547V716.1048324240063ZM369.45830085736554 617.9189399844115V654.3491816056119C369.45830085736554 654.3491816056119 381.1223694466095 648.5970381917381 391.58807482462976 648.5970381917381C412.51948558067033 648.5970381917381 417.55261106780983 659.8616523772408 417.55261106780983 685.7462977396727V726.091192517537H403.5717069368667V685.9859703819175C403.5717069368667 668.4099766173032 401.41465315666403 660.9801247077164 388.7120031176929 660.9801247077164C379.12509742790337 660.9801247077164 369.45830085736554 664.8947778643804 369.45830085736554 664.8947778643804V726.091192517537H355.47739672642246V617.9189399844116H369.45830085736554V617.9189399844115ZM478.42946219797346 648.5171473109898V662.498051441933C464.2887763055339 665.3741231488698 451.74590802805926 671.7653936087295 451.74590802805926 671.7653936087295V726.0911925175369H437.7650038971161V650.194855806703H451.5861262665627V659.941543257989C451.5861262665627 659.941543257989 464.6083398285269 651.1535463756819 478.42946219797346 648.597038191738V648.5171473109898ZM516.2178487918941 661.1399064692127C506.95050662509743 661.1399064692127 501.3581449727202 663.456742010912 501.3581449727202 671.0463756819952C501.3581449727202 677.118082618862 504.873343725643 678.7957911145751 520.2922837100546 681.5120810600155C538.8269680436476 684.7077162899454 545.6176929072486 688.7821512081059 545.6176929072486 703.8016367887762C545.6176929072486 721.537412314887 534.353078721746 727.7689010132502 515.898285268901 727.7689010132502C505.91192517537024 727.7689010132502 488.5756040530008 724.5732657833203 488.5756040530008 724.5732657833203L489.21473109898676 712.7494154325798C489.21473109898676 712.7494154325798 506.9505066250974 715.1461418550272 514.6999220576772 715.1461418550272C526.3639906469213 715.1461418550272 531.8764614185502 712.7494154325798 531.8764614185502 704.2010911925174C531.8764614185502 697.4902572096647 528.5210444271238 695.7326578332032 512.7825409197194 693.2560405300076C495.9255650818394 690.5397505845672 487.6169134840218 687.0245518316444 487.6169134840218 671.3659392049882C487.6169134840218 654.5089633671082 500.9586905689789 648.597038191738 515.4189399844115 648.597038191738C526.6835541699141 648.597038191738 543.4606391270459 651.6328916601714 543.4606391270459 651.6328916601714L543.141075604053 663.4567420109119C543.141075604053 663.4567420109119 525.7248636009352 661.0600155884645 516.2977396726421 661.0600155884645L516.2178487918941 661.1399064692127ZM589.557677318784 715.3059236165237C593.7918939984411 715.3059236165237 602.5798908807483 714.5869056897895 602.5798908807483 714.5869056897895L603.3787996882307 725.9314107560405C603.3787996882307 725.9314107560405 593.2326578332035 727.7689010132502 587.879968823071 727.7689010132502C571.5023382696805 727.7689010132502 566.1496492595479 721.537412314887 566.1496492595479 699.7272018706157V662.2583787996882H555.8437256430243V650.2747466874513H566.1496492595479V627.6656274356976H579.9707716289945V650.2747466874513H602.4201091192518V662.2583787996882H579.9707716289945V697.0109119251753C579.9707716289945 710.9918160561184 580.6897895557288 715.3858144972719 589.5576773187842 715.3858144972719L589.557677318784 715.3059236165237ZM662.9773967264225 726.091192517537V721.0580670303975C662.9773967264225 721.0580670303975 651.7127825409198 727.7689010132503 641.4068589243959 727.7689010132503C619.9961028838659 727.7689010132503 615.4423226812158 717.1434138737336 615.4423226812158 689.8207326578333V650.1948558067032H629.423226812159V689.8207326578333C629.423226812159 708.6749805144194 630.9411535463756 715.1461418550274 643.8035853468432 715.1461418550274C653.9497272018706 715.1461418550274 662.8975058456741 710.4325798908808 662.8975058456741 710.4325798908808V650.1948558067031H676.7186282151207V726.091192517537H662.8975058456741H662.9773967264225ZM711.7108339828526 617.9189399844115V654.3491816056119C711.7108339828526 654.3491816056119 723.3749025720965 648.5970381917381 733.8406079501168 648.5970381917381C754.7720187061574 648.5970381917381 759.8051441932969 659.8616523772408 759.8051441932969 685.7462977396727V726.091192517537H745.8242400623537V685.9859703819175C745.8242400623537 668.4099766173032 743.6671862821512 660.9801247077164 730.96453624318 660.9801247077164C721.3776305533904 660.9801247077164 711.7108339828526 664.8947778643804 711.7108339828526 664.8947778643804V726.091192517537H697.7299298519094V617.9189399844116H711.7108339828526V617.9189399844115ZM794.8772408417772 726.091192517537H780.896336710834V617.9189399844116H794.8772408417772V726.091192517537ZM409.48363211223693 802.7864380358535H418.91075604053V899.7739672642244H467.16484801247077V908.2424006235386H409.48363211223693V802.7864380358535ZM480.5066250974279 801.987529228371H489.4544037412315V813.3320342946221H480.5066250974279V801.987529228371ZM489.4544037412315 832.3460639127046V908.2424006235386H480.5066250974279V832.3460639127046H489.4544037412315ZM515.259158222915 908.2424006235386V840.4150428682775H505.43257989088073V832.3460639127046H515.259158222915V824.5966484801247C515.259158222915 802.7065471551053 520.6917381137957 797.114185502728 535.3117692907249 797.114185502728C540.5046765393608 797.114185502728 550.0116913484021 797.9130943102105 550.0116913484021 797.9130943102105V805.6625097427903C550.0116913484021 805.6625097427903 541.0639127045986 805.3429462197973 536.669914263445 805.3429462197973C527.4025720966486 805.3429462197973 524.366718628215 809.0978176149648 524.366718628215 824.7564302416212V832.3460639127046H547.2954014029617V840.4150428682775H524.366718628215V908.2424006235386H515.259158222915ZM586.601714731099 901.7712392829307C590.8359314107561 901.7712392829307 600.5826188620421 900.7326578332035 600.5826188620421 900.7326578332035L601.221745908028 908.4820732657834C601.221745908028 908.4820732657834 591.2353858144972 910.0 585.8826968043647 910.0C570.8632112236944 910.0 565.4306313328136 904.4076383476228 565.4306313328136 882.5175370226033V840.4949337490257H554.1660171473109V832.4259547934528H565.4306313328136V808.6184723304754H574.5381917381137V832.4259547934528H599.8636009353079V840.4949337490257H574.5381917381137V877.9637568199532C574.5381917381137 896.9777864380358 575.7365549493375 901.7712392829307 586.6816056118472 901.7712392829307H586.601714731099Z" fill="#000000"/>
</svg>
