<?xml version="1.0" encoding="UTF-8"?>
<!-- source: lockers.svg -->
<svg xmlns="http://www.w3.org/2000/svg" viewBox="0 0 1000 1000" width="1000" height="1000">
  <path d="M309.27913844015984 297.9773311333357C309.777661976724 332.0193669158613 339.4754212263332 362.5005202943571 373.80232760118116 361.85956146163176C406.42001042209483 362.5717379424377 435.2631578947369 334.7968551910046 438.1118638179608 303.46109003554176L545.3656418273407 302.39282531433275L547.1460830293556 351.8890907303481H556.4755949279139L558.2560361299289 302.2503900181716L580.7608129233977 302.03673707392977L582.6124717734932 360.15033790769735H591.9419836720516L593.7936425221471 301.8943017777686L616.2984193156159 301.6806488335268L618.0788605176308 345.2658494588525H627.4083724161891L629.1888136182041 301.5382135373656L655.0408198714609 301.25334294504324V289.85851925214763L437.9694285217996 287.7219898097297C435.19194024665626 255.2467422849772 404.7107868681605 227.25820658930235 371.0960569741185 229.39473603172027C335.9857564703839 230.24934780868745 307.28504429390307 263.2943365180847 309.27913844015984 297.9773311333357ZM324.37727983324646 295.62714874667597C323.73632100052106 269.4902719010967 345.6001389612645 245.20505390561294 371.73701580684383 244.20800683248459C400.5089456314052 241.92904209390545 425.57755775577556 267.78104834716237 424.8653812749696 295.6983663947566C424.8653812749696 295.6983663947566 424.8653812749696 295.84080169091783 424.8653812749696 295.84080169091783V295.6983663947566C425.57755775577556 322.1913314807389 402.00451624109775 348.04333773399577 374.22963348966476 347.117508308948C374.22963348966476 347.117508308948 373.94476289734234 347.117508308948 374.22963348966476 347.117508308948C347.1669272190377 347.473596549351 323.7363210005211 322.6898550173031 324.37727983324646 295.62714874667597ZM121.5494180997047 523.4524049565075C109.22876498176133 523.4524049565075 102.89039430258813 527.796681489424 102.89039430258813 537.1261933879823C102.89039430258813 547.5239700077495 108.58780614903594 549.5892818020868 124.68299461525099 553.5062524465197C143.76932430085114 558.3490525160004 151.31839499739448 563.2630702335615 151.31839499739448 579.3582586997766C151.31839499739448 599.797723698908 139.2826124717735 608.3438414685799 120.90845926697932 608.3438414685799C109.37120027792253 608.3438414685799 90.99704707312836 604.9253943607112 90.99704707312836 604.9253943607112L92.20774709049851 594.6700530371052C92.20774709049851 594.6700530371052 110.58190029529268 597.0914530718454 120.19628278617336 597.0914530718454C132.51693590411674 597.0914530718454 138.57043599096752 591.5364765215588 138.57043599096752 580.1416528286633C138.57043599096752 570.9545762262661 133.7276359214869 568.1058703030423 118.9855827688032 564.9722937874959C99.25829425047768 560.2007113660959 90.0 554.9306054081317 90.0 537.9095875168689C90.0 519.5354343120747 102.17821782178217 512.2000165597732 120.55237102657634 512.2000165597732C131.94719471947195 512.2000165597732 149.39551849921833 515.1911577791583 149.39551849921833 515.1911577791583L148.32725377800938 525.5889343989255C148.32725377800938 525.5889343989255 129.38335938857043 523.4524049565076 121.5494180997047 523.4524049565076V523.4524049565075ZM211.42608997741877 540.1173346073673 210.99878408893522 550.1590229867315C210.99878408893522 550.1590229867315 200.1737015806844 548.9483229693614 195.04603091888134 548.9483229693614C180.30397776619765 548.9483229693614 176.529442417926 555.1442583523734 176.529442417926 572.0940585955556C176.529442417926 590.7530823926721 179.5205836373111 597.2338883680065 195.18846621504258 597.2338883680065C200.31613687684558 597.2338883680065 211.1412193850964 596.1656236467976 211.1412193850964 596.1656236467976L211.56852527357998 606.2073120261618C211.56852527357998 606.2073120261618 198.46447802675004 608.486276764741 191.84123675525444 608.486276764741C170.76081292339757 608.486276764741 163.99513635574084 598.3733707372961 163.99513635574084 572.0940585955556C163.99513635574084 547.7376229519913 171.97151294076775 537.8383698687882 192.12610734757686 537.8383698687882C198.8917839152336 537.8383698687882 211.49730762549936 540.1173346073673 211.49730762549936 540.1173346073673H211.42608997741877ZM238.63123154420703 510.4907930058388V542.9660405305913C238.63123154420703 542.9660405305913 249.0290081639743 537.8383698687883 258.35852006253253 537.8383698687883C277.0175438596491 537.8383698687883 281.50425568872674 547.8800582481525 281.50425568872674 570.9545762262661V606.9194885069678H269.0411672746222V571.168229170508C269.0411672746222 555.5003465927764 267.1182907764461 548.8771053212809 255.79468473163104 548.8771053212809C247.24856696195934 548.8771053212809 238.63123154420703 552.3667700772302 238.63123154420703 552.3667700772302V606.9194885069678H226.16814313010246V510.4907930058388H238.63123154420703ZM312.7688031961091 606.9194885069678H300.30571478200454V510.4907930058388H312.7688031961091V606.9194885069678ZM344.67430953621675 525.8738049912479H332.2112211221122V512.2000165597731H344.67430953621675V525.8738049912479ZM332.2112211221122 539.2627228304002H344.67430953621675V606.9194885069678H332.2112211221122V539.2627228304002ZM414.39638700712175 596.2368412948782 414.68125759944417 605.7087884895977C414.68125759944417 605.7087884895977 399.22702796595445 608.4150591166604 387.7609866249783 608.4150591166604C367.60639221816916 608.4150591166604 360.2709744658676 597.0202354237648 360.2709744658676 573.6608468533287C360.2709744658676 548.3785817847166 371.2384922702796 537.7671522207077 389.1141219385096 537.7671522207077C406.98975160673956 537.7671522207077 416.9602223380232 547.5239700077494 416.9602223380232 569.1741350242512L416.17682820913666 578.2187763304871H372.87649817613334C373.0189334722946 590.966735336914 377.2207747090498 597.4475413122484 389.5414278269932 597.4475413122484C399.93920444676047 597.4475413122484 414.46760465520236 596.2368412948782 414.46760465520236 596.2368412948782H414.39638700712175ZM404.6395692200799 568.5331761915257C404.6395692200799 553.3638171503585 400.0104220948411 548.2361464885555 389.11412193850964 548.2361464885555C378.2178217821782 548.2361464885555 372.8764981761334 553.9335583350032 372.7340628799722 568.5331761915257H404.6395692200799ZM453.993399339934 549.0195406174421C445.7321521625847 549.0195406174421 440.74691679694286 551.0848524117794 440.74691679694286 557.8505289794361C440.74691679694286 563.2630702335615 443.88049331248914 564.758640843254 457.62549939204445 567.1800408779944C474.1479937467431 570.0287468012183 480.2014938335939 573.6608468533287 480.2014938335939 587.0497646924812C480.2014938335939 602.8600825663738 470.1598054542297 608.4150591166604 453.70852874761164 608.4150591166604C444.8063227375369 608.4150591166604 429.35209310404724 605.5663531934365 429.35209310404724 605.5663531934365L429.921834288692 595.0261412775081C429.921834288692 595.0261412775081 445.73215216258467 597.162670719926 452.64026402640263 597.162670719926C463.03804064616986 597.162670719926 467.95205836373106 595.0261412775081 467.95205836373106 587.4058529328842C467.95205836373106 581.423570494114 464.96091714434596 579.8567822363408 450.9310404724683 577.6490351458423C435.90411672746217 575.227635111102 428.49748132708004 572.0940585955557 428.49748132708004 558.1353995717586C428.49748132708004 543.1084758267525 440.3908285565399 537.8383698687883 453.281222859128 537.8383698687883C463.3229112384922 537.8383698687883 478.27861733541766 540.544640495851 478.27861733541766 540.544640495851L477.9937467430953 551.0848524117794C477.9937467430953 551.0848524117794 462.468299461525 548.9483229693615 454.06461698801456 548.9483229693615L453.993399339934 549.0195406174421ZM517.2346708355046 549.0195406174421C508.97342365815535 549.0195406174421 503.9881882925135 551.0848524117794 503.9881882925135 557.8505289794361C503.9881882925135 563.2630702335615 507.12176480805977 564.758640843254 520.8667708876151 567.1800408779944C537.3892652423137 570.0287468012183 543.4427653291646 573.6608468533287 543.4427653291646 587.0497646924812C543.4427653291646 602.8600825663738 533.4010769498003 608.4150591166604 516.9498002431823 608.4150591166604C508.04759423310753 608.4150591166604 492.5933645996178 605.5663531934365 492.5933645996178 605.5663531934365L493.1631057842626 595.0261412775081C493.1631057842626 595.0261412775081 508.97342365815524 597.162670719926 515.8815355219732 597.162670719926C526.2793121417404 597.162670719926 531.1933298593017 595.0261412775081 531.1933298593017 587.4058529328842C531.1933298593017 581.423570494114 528.2021886399166 579.8567822363408 514.1723119680389 577.6490351458423C499.1453882230328 575.227635111102 491.7387528226506 572.0940585955557 491.7387528226506 558.1353995717586C491.7387528226506 543.1084758267525 503.63210005211045 537.8383698687883 516.5224943546986 537.8383698687883C526.5641827340628 537.8383698687883 541.5198888309883 540.544640495851 541.5198888309883 540.544640495851L541.2350182386658 551.0848524117794C541.2350182386658 551.0848524117794 525.7095709570956 548.9483229693615 517.3058884835851 548.9483229693615L517.2346708355046 549.0195406174421ZM561.3183949973945 549.9453700424898H553.1995831162064V539.2627228304002H561.3183949973945V533.992616872436C561.3183949973945 514.4789812983522 566.3036303630364 508.99522239614623 579.9774187945111 508.99522239614623C584.60656591975 508.99522239614623 594.14973076255 510.2059224135164 594.14973076255 510.2059224135164L594.0072954663888 520.3188284409613C594.0072954663888 520.3188284409613 586.8143130102484 520.0339578486389 582.7549070696545 520.0339578486389C575.8467952058364 520.0339578486389 573.7102657634185 523.1675343641851 573.7102657634185 534.1350521685972V539.2627228304002H592.3692895605352V549.9453700424898H573.7102657634185V606.9194885069678H561.247177349314V549.9453700424898H561.3183949973945ZM621.4260899774188 567.0376055818332 640.7972902553413 565.2571643798183V559.8446231256929C640.7972902553413 551.4409406521823 637.1651902032308 548.5922347289585 629.8297724509292 548.5922347289585C620.500260552371 548.5922347289585 604.2626367899948 550.087805338651 604.2626367899948 550.087805338651L603.8353309015112 541.0431640324151C603.8353309015112 541.0431640324151 618.5773840541948 537.7671522207077 630.6131665798158 537.7671522207077C646.5659197498696 537.7671522207077 653.1891610213653 544.8176993806868 653.1891610213653 559.8446231256929V592.6047412427678C653.4740316136877 596.6641471833618 655.8954316484279 598.1597177930544 660.0972728851832 598.6582413296186L659.6699669966996 608.4150591166604C651.9784610039951 608.4150591166604 647.0644432864339 607.2043590992903 642.6489491054368 603.1449531586961C642.6489491054368 603.1449531586961 631.1116901163799 608.4150591166604 619.5032134792426 608.4150591166604C606.684036824735 608.4150591166604 599.9183602570782 601.0796413643588 599.9183602570782 587.1921999886424C599.9183602570782 573.3047586129259 607.2537780093799 568.2483055992035 621.4260899774187 567.0376055818333L621.4260899774188 567.0376055818332ZM619.5032134792427 523.8797108449911H607.609866249783V510.0634871173552H619.5032134792427V523.8797108449911ZM621.7821782178218 598.0172824968931C630.6131665798158 598.0172824968931 640.7260726072607 594.5276177409438 640.7260726072607 594.5276177409438V574.3730233341348L622.8504429390307 576.0110292399885C615.6574604828903 576.7232057207945 612.4526663192635 580.2128704767438 612.4526663192635 586.9785470444006C612.4526663192635 593.7442236120572 615.4438075386486 598.0885001449738 621.7821782178218 598.0885001449738V598.0172824968931ZM635.3135313531353 510.0634871173552H647.2068785825951V523.8797108449911H635.3135313531353V510.0634871173552ZM717.0713913496613 540.1173346073673 716.6440854611777 550.1590229867315C716.6440854611777 550.1590229867315 705.819002952927 548.9483229693614 700.6913322911239 548.9483229693614C685.9492791384403 548.9483229693614 682.1747437901686 555.1442583523734 682.1747437901686 572.0940585955556C682.1747437901686 590.7530823926721 685.1658850095537 597.2338883680065 700.8337675872853 597.2338883680065C705.9614382490882 597.2338883680065 716.786520757339 596.1656236467976 716.786520757339 596.1656236467976L717.2138266458226 606.2073120261618C717.2138266458226 606.2073120261618 704.1097793989926 608.486276764741 697.4865381274972 608.486276764741C676.4061142956404 608.486276764741 669.6404377279836 598.3733707372961 669.6404377279836 572.0940585955556C669.6404377279836 547.7376229519913 677.6168143130104 537.8383698687882 697.7714087198195 537.8383698687882C704.5370852874763 537.8383698687882 717.1426089977421 540.1173346073673 717.1426089977421 540.1173346073673H717.0713913496613ZM744.2765329164496 510.4907930058388V542.9660405305913C744.2765329164496 542.9660405305913 754.6743095362168 537.8383698687883 764.0038214347751 537.8383698687883C782.6628452318917 537.8383698687883 787.1495570609693 547.8800582481525 787.1495570609693 570.9545762262661V606.9194885069678H774.6864686468647V571.168229170508C774.6864686468647 555.5003465927764 772.7635921486885 548.8771053212809 761.4399861038736 548.8771053212809C752.8938683342018 548.8771053212809 744.2765329164496 552.3667700772302 744.2765329164496 552.3667700772302V606.9194885069678H731.813444502345V510.4907930058388H744.2765329164496ZM856.1594580510683 596.2368412948782 856.4443286433908 605.7087884895977C856.4443286433908 605.7087884895977 840.9900990099011 608.4150591166604 829.5240576689249 608.4150591166604C809.3694632621158 608.4150591166604 802.0340455098143 597.0202354237648 802.0340455098143 573.6608468533287C802.0340455098143 548.3785817847166 813.0015633142264 537.7671522207077 830.8771929824562 537.7671522207077C848.7528226506862 537.7671522207077 858.7232933819698 547.5239700077494 858.7232933819698 569.1741350242512L857.9398992530832 578.2187763304871H814.63956922008C814.7820045162412 590.966735336914 818.9838457529964 597.4475413122484 831.3044988709398 597.4475413122484C841.702275490707 597.4475413122484 856.230675699149 596.2368412948782 856.230675699149 596.2368412948782H856.1594580510683ZM846.4026402640264 568.5331761915257C846.4026402640264 553.3638171503585 841.7734931387876 548.2361464885555 830.8771929824561 548.2361464885555C819.9808928261247 548.2361464885555 814.6395692200799 553.9335583350032 814.4971339239187 568.5331761915257H846.4026402640264ZM910.0 537.7671522207077V550.2302406348122C897.3944762897343 552.7940759657137 886.2133055410804 558.4914878121615 886.2133055410804 558.4914878121615V606.9194885069678H873.7502171269758V539.2627228304001H886.0708702449192V547.951275896233C886.0708702449192 547.951275896233 897.6793468820566 540.1173346073673 910.0 537.8383698687882V537.7671522207077ZM293.68247351050894 675.2884306643415H302.08615598401946V761.7466554341869H345.10161542470036V769.2957261307303H293.682473510509V675.2884306643416L293.68247351050894 675.2884306643415ZM409.90967517804415 734.5415138673986C409.90967517804415 760.1086495283332 404.2122633315964 770.6488614442617 381.63626889004695 770.6488614442617C359.0602744484975 770.6488614442617 353.2204273058885 760.1086495283332 353.2204273058885 734.5415138673987C353.2204273058885 710.612384112318 360.62706270627064 700.2858251406313 381.63626889004695 700.2858251406313C402.6454750738232 700.2858251406313 409.90967517804415 710.5411664642373 409.90967517804415 734.5415138673987V734.5415138673986ZM381.6362688900469 763.4558789881213C399.0845926697933 763.4558789881213 401.6484280006948 755.194631810772 401.6484280006948 734.470296219318C401.6484280006948 713.7459606278641 397.019280875456 707.407589948691 381.6362688900469 707.407589948691C366.2532569046378 707.407589948691 361.62410977939896 714.1732665163478 361.62410977939896 734.470296219318C361.62410977939896 754.7673259222883 364.0455098141393 763.4558789881212 381.6362688900469 763.4558789881212V763.4558789881213ZM470.088587806149 702.0662663426461 469.6612819176654 708.9743782064642C469.6612819176654 708.9743782064642 458.9786347055758 707.6212428929327 453.85096404377276 707.6212428929327C437.6133402813965 707.6212428929327 432.9129755080771 714.8142253490731 432.9129755080771 734.2566432750763C432.9129755080771 755.4795024030943 436.18898731978464 763.31344369196 453.85096404377276 763.31344369196C458.9786347055758 763.31344369196 469.9461525099878 762.1027436745898 469.9461525099878 762.1027436745898L470.2310231023102 769.0108555384078C470.2310231023102 769.0108555384078 458.19524057668923 770.6488614442616 452.3553934340802 770.6488614442616C430.4203578252562 770.6488614442616 424.50929303456655 760.8920436572197 424.50929303456655 734.2566432750763C424.50929303456655 709.4729017430283 432.3432343234323 700.2858251406312 452.4978287302414 700.2858251406312C458.3376758728504 700.2858251406312 470.088587806149 702.0662663426461 470.088587806149 702.0662663426461ZM485.9701233281223 671.656330612231H493.94649991314924V729.8411490940791L505.4125412541254 729.5562785017567L526.2793121417405 701.710178102243H535.6088240402988L512.4630884141046 732.689855017303L536.6770887615078 769.3669437788108H527.2051415667883L505.55497655028665 736.7492609578971L493.94649991314924 737.0341315502195V769.3669437788109H485.9701233281223V671.656330612231ZM596.4999131492096 762.1027436745898 596.7847837415321 768.7259849460854C596.7847837415321 768.7259849460854 581.4729894042036 770.6488614442616 570.9327774882753 770.6488614442616C550.7781830814662 770.5064261481003 544.6534653465347 758.3282083263181 544.6534653465347 735.7522138847687C544.6534653465347 709.6153370391894 556.0482890394303 700.2858251406311 572.4995657460483 700.2858251406311C589.9478895257948 700.2858251406311 599.1349661281918 709.6153370391894 599.1349661281918 732.3337667769L598.8500955358694 738.8145727522343H552.8434948758035C552.8434948758035 754.7673259222881 557.4726420010423 763.3134436919598 571.6449539690811 763.3134436919598C581.5442070522843 763.3134436919598 596.4286955011291 762.1027436745898 596.4286955011291 762.1027436745898H596.4999131492096ZM591.0873718950843 732.1201138326583C591.0873718950843 713.8883959240253 585.2475247524753 707.3363723006104 572.570783394129 707.3363723006104C559.8940420357826 707.3363723006104 552.9859301719646 714.1020488682672 552.9859301719646 732.1201138326583H591.1585895431649H591.0873718950843ZM623.8474900121591 701.6389604541625V711.3957782412044C623.8474900121591 711.3957782412044 635.5984019454578 702.8496604715327 649.4146256730937 700.2858251406312V708.4046370218193C636.453013722425 711.1109076488821 623.8474900121591 718.5175430492642 623.8474900121591 718.5175430492642V769.2245084826496H615.8711134271322V701.567742806082H623.8474900121591V701.6389604541625ZM682.1747437901685 707.763678189094C673.771061316658 707.763678189094 666.2219906201148 710.042642927673 666.2219906201148 719.2297195300702C666.2219906201148 726.2802666900493 669.5692200799028 728.274360836306 684.3824908806671 730.766978519127C701.6883793642523 733.6156844423509 708.1691853395866 736.7492609578971 708.1691853395866 749.7108729085659C708.1691853395866 765.5211907824585 698.2699322563836 770.7200790923422 682.0323084940073 770.7200790923422C673.771061316658 770.7200790923422 658.8865728678131 768.2986790576018 658.8865728678131 768.2986790576018L659.456314052458 761.1056966014614C659.456314052458 761.1056966014614 674.6256730936252 763.3846613400405 681.5337849574431 763.3846613400405C693.1422615945805 763.3846613400405 699.9079381622373 760.6783907129778 699.9079381622373 750.1381787970494C699.9079381622373 742.0193669158613 695.8485322216433 740.2389257138464 680.6791731804759 737.9599609752672C665.1537258989056 735.538560940527 657.9607434427653 732.6898550173031 657.9607434427653 719.5858077704731C657.9607434427653 704.8437546177895 670.1389612645474 700.499478084873 681.8898731978461 700.499478084873C692.002779225291 700.499478084873 705.8190029529269 702.778442823452 705.8190029529269 702.778442823452L705.5341323606044 709.9714252795924C705.5341323606044 709.9714252795924 691.0769498002431 707.8348958371745 682.1035261420877 707.8348958371745L682.1747437901685 707.763678189094Z" fill="#000000"/>
</svg>
