<?xml version="1.0" encoding="UTF-8"?>
<!-- source: nursing_x.svg -->
<svg xmlns="http://www.w3.org/2000/svg" viewBox="0 0 1000 1000" width="1000" height="1000">
  <path d="M322.63588312229047 544.3324875173938C321.83044807276934 555.3400998608496 321.29349137308856 566.3477122043055 321.29349137308856 577.6238028976016C321.29349137308856 645.2803470573789 336.86523566383096 707.2988458705082 362.63915724850807 755.6249488417777C403.17938807440635 746.4966849472046 467.3457136862587 700.0499304248177 510.0337713108802 658.9727428992386C430.5641797581258 627.8292543177538 364.51850569739076 584.872718343292 322.6358831222905 544.3324875173937L322.63588312229047 544.3324875173938ZM394.3196025296736 802.0717033641646C423.85222101211616 835.8999754440532 460.0967982405683 856.0358516820822 499.5631156671051 856.0358516820822C569.9044433252864 856.0358516820822 631.1175070888944 791.8695260702299 660.1131688716562 698.9760170254563C627.8957668908098 694.4118850781696 596.4837999594845 687.4314479823196 566.4142247773614 678.3031840877464C525.0685589019417 723.139068511091 452.3109260951971 780.3249570270933 394.31960252967366 802.0717033641646H394.3196025296736ZM499.5631156671051 331.6976344438078C624.1370699930444 327.670459196202 624.1370699930444 146.984529753622 499.5631156671051 142.9573545060162C374.98916134116587 146.98452975362198 374.98916134116587 327.670459196202 499.5631156671051 331.6976344438078ZM499.5631156671051 498.6911680445281C437.2761385041355 498.6911680445281 375.794596390687 470.23246296144714 341.16088926127713 450.63354342309896C338.4761057628733 458.6878939183105 336.05980061430984 466.7422444135221 333.91197381558675 475.0650732585741C367.20328919579464 527.6868298272898 502.24789916550895 623.5336007203077 672.4631729643138 646.3542604567405C683.4707853077697 581.3824997953669 677.8327399611215 505.94008349021846 656.3544719738907 445.53245477613154C624.6740266927252 468.6215928624048 569.9044433252863 498.69116804452807 499.5631156671051 498.69116804452807V498.6911680445281ZM691.7936141528216 389.42047965949087 647.7631647789983 382.4400425636408C557.0174825329477 470.50094131128753 439.9609220025393 454.92919702054513 343.5771944098406 388.34656626012935L303.3054419337827 399.6226569534256C221.41954523246486 572.2542359007939 279.1423904481479 897.6499959073421 500.10007236678587 909.9999999999999C724.8164511831892 896.8445608578211 780.6599479499896 561.7835802570188 692.0620925026622 389.4204796594909L691.7936141528216 389.42047965949087ZM362.63915724850807 755.6249488417777C336.86523566383096 707.2988458705081 321.29349137308856 645.2803470573789 321.29349137308856 577.6238028976016C321.29349137308856 566.3477122043054 321.83044807276934 555.3400998608496 322.63588312229047 544.3324875173938C364.51850569739076 584.8727183432921 430.56417975812576 627.5607759679135 510.0337713108802 658.9727428992387C467.34571368625876 700.0499304248178 403.1793880744064 746.4966849472047 362.63915724850807 755.6249488417778V755.6249488417777ZM499.5631156671051 856.0358516820822C460.0967982405683 856.0358516820822 423.85222101211616 835.8999754440532 394.31960252967366 802.0717033641646C452.3109260951971 780.5934353769337 524.8000805521015 723.1390685110911 566.4142247773614 678.3031840877466C596.4837999594845 687.1629696324793 627.8957668908098 694.1434067283294 660.1131688716562 698.9760170254563C631.1175070888944 791.86952607023 570.1729216751266 856.0358516820822 499.5631156671051 856.0358516820822ZM672.4631729643138 646.0857821069002C502.24789916550895 623.2651223704672 367.20328919579464 527.6868298272898 333.91197381558675 474.79659490873377C336.05980061430984 466.47376606368175 338.4761057628733 458.15093721862985 341.16088926127713 450.3650650732586C376.0630747405274 469.9639846116068 437.2761385041355 498.42268969468773 499.5631156671051 498.42268969468773C569.6359649754459 498.42268969468773 624.6740266927252 468.35311451256445 656.3544719738907 445.2639764262912C677.8327399611217 505.4031267905378 683.4707853077697 581.1140214455266 672.4631729643138 646.0857821069002ZM499.5631156671051 385.6617827617254C581.4490123684229 385.6617827617254 648.0316431288388 319.07915200130964 648.0316431288388 237.1932552999918C641.0512060329887 40.93558156666941 358.34350365106195 40.93558156666941 351.36306655521184 237.1932552999918C351.36306655521184 319.07915200130964 417.9456973156277 385.6617827617254 499.8315940169455 385.6617827617254H499.5631156671051ZM499.5631156671051 142.9573545060162C624.1370699930444 146.984529753622 624.1370699930444 327.670459196202 499.5631156671051 331.6976344438078C374.98916134116587 327.670459196202 374.98916134116587 146.984529753622 499.5631156671051 142.9573545060162Z" fill="#000000"/>
</svg>
