<?xml version="1.0" encoding="UTF-8"?>
<!-- source: nursing.svg -->
<svg xmlns="http://www.w3.org/2000/svg" viewBox="0 0 1000 1000" width="1000" height="1000">
  <path d="M446.53195758096876 286.0201108244961C446.2969332186873 289.2321104423427 446.1402503104997 292.44411006018925 446.1402503104997 295.7344511321296C446.1402503104997 315.4764975637719 450.68405464794114 333.57337345944404 458.2048342409478 347.6748351963314C470.03439380911436 345.0112257571416 488.75800133753705 331.4581541989109 501.21429253845423 319.4719117225567C478.0252221266839 310.3843030476737 458.7532244196045 297.8496703926627 446.53195758096876 286.0201108244961ZM467.5274672781122 361.227906754562C476.1450272284323 371.0989299703832 486.7211235310978 376.9745390274196 498.23731728288914 376.9745390274196C518.7627782554696 376.9745390274196 536.6246297888604 358.2509314989969 545.0855068309927 331.14478838253564C535.6845323397345 329.8129836629407 526.5185822107578 327.77610585650143 517.74433935225 325.1124964173116C505.67975542180193 338.1955192509793 484.4492213623771 354.8822489729627 467.5274672781122 361.227906754562ZM498.2373172828891 223.9736791821917C534.587751982421 222.7985573707844 534.587751982421 170.07475876564445 498.2373172828891 168.89963695423717C461.88688258335725 170.07475876564445 461.88688258335725 222.7985573707844 498.2373172828891 223.9736791821917ZM498.2373172828891 272.7020636285469C480.06209993312314 272.7020636285469 462.12190694563867 264.3978694946021 452.0158593675361 258.6789433457534C451.2324448265979 261.02918696856796 450.52737173975356 263.3794305913825 449.90064010700297 265.80801566829086C459.6149804146365 281.16294067067935 499.0207318238273 309.13083978217264 548.6892137193083 315.78986338014715C551.9012133371548 296.83123148944304 550.2560428011848 274.81728288908 543.9887264736792 257.1904557179708C534.7444348906085 263.9278207700392 518.7627782554696 272.7020636285469 498.237317282889 272.7020636285469H498.2373172828891ZM554.2514569599695 240.81709181236272 541.4034584885832 238.78021400592343C514.9240470048724 264.47621094869595 480.7671730199675 259.93240661125446 452.64259100028664 240.50372599598745L440.89137288621384 243.79406706792784C416.99722938759913 294.16762205025327 433.84064201777016 389.11746441196146 498.3156587369829 392.72117130027715C563.8874558135092 388.88244004968004 580.1824782650235 291.1123053405943 554.3297984140632 240.81709181236272H554.2514569599695ZM458.2048342409478 347.6748351963314C450.68405464794114 333.57337345944404 446.1402503104997 315.4764975637719 446.1402503104997 295.7344511321296C446.1402503104997 292.44411006018925 446.29693321868734 289.2321104423427 446.53195758096876 286.0201108244961C458.7532244196045 297.84967039266274 478.02522212668384 310.3059615935799 501.21429253845423 319.4719117225567C488.75800133753705 331.45815419891096 470.0343938091144 345.0112257571416 458.2048342409478 347.6748351963314ZM498.2373172828891 376.9745390274196C486.72112353109776 376.9745390274196 476.14502722843224 371.0989299703832 467.52746727811217 361.227906754562C484.44922136237705 354.96059042705656 505.601413967708 338.1955192509794 517.7443393522499 325.1124964173116C526.5185822107576 327.69776440240764 535.6845323397345 329.73464220884694 545.0855068309927 331.1447883825357C536.6246297888604 358.2509314989969 518.8411197095634 376.9745390274196 498.23731728288914 376.9745390274196H498.2373172828891ZM548.6892137193083 315.71152192605336C499.0207318238273 309.05249832807874 459.61498041463653 281.16294067067935 449.900640107003 265.7296742141971C450.52737173975356 263.30108913728867 451.23244482659794 260.8725040603803 452.01585936753617 258.60060189165955C462.2002483997326 264.3195280405083 480.0620999331232 272.6237221744531 498.23731728288914 272.6237221744531C518.6844368013758 272.6237221744531 534.7444348906085 263.8494793159454 543.9887264736792 257.112114263877C550.2560428011848 274.66059998089236 551.901213337155 296.75289003534925 548.6892137193084 315.71152192605336H548.6892137193083ZM498.2373172828891 239.72031145504926C522.1314607815038 239.72031145504926 541.5601413967709 220.29163083978221 541.5601413967709 196.39748734116753C539.5232635903316 139.12988439858609 457.0297124295405 139.12988439858609 454.99283462310115 196.39748734116753C454.99283462310115 220.29163083978221 474.42151523836816 239.72031145504926 498.3156587369829 239.72031145504926H498.2373172828891ZM498.2373172828891 168.89963695423717C534.587751982421 170.07475876564445 534.587751982421 222.7985573707844 498.2373172828891 223.9736791821917C461.88688258335725 222.7985573707844 461.88688258335725 170.07475876564445 498.2373172828891 168.89963695423717ZM163.24925957772047 620.459778351008 183.38301327983186 530.6804719594918H199.75637718544L219.9684723416452 620.459778351008H223.65052068405467L239.7105187732875 530.132081780835H254.28202923473776L233.9132511703449 632.6810451896438H210.09744912582403L191.45218305149518 547.8372504060382L172.963599885354 632.6810451896438H149.1477978408331L128.62233686825263 530.132081780835H143.35053023789055L159.41052832712336 620.459778351008H163.09257666953283H163.24925957772047ZM282.4849527085125 543.5284704308781H268.77519824209423V528.4869112448648H282.4849527085125V543.5284704308781ZM268.77519824209423 558.256663800516H282.4849527085125V632.6810451896438H268.77519824209423V558.256663800516ZM352.13050539791726 559.118419795548 351.66045667335436 570.1645648227764C351.66045667335436 570.1645648227764 339.75255565109387 568.8327601031815 334.11197095633895 568.8327601031815C317.8952899589185 568.8327601031815 313.7431928919461 575.6484666093437 313.7431928919461 594.2937326836725C313.7431928919461 614.819193656253 317.0335339638865 621.9482659787905 334.2686538645266 621.9482659787905C339.9092385592815 621.9482659787905 351.81713958154194 620.7731441673833 351.81713958154194 620.7731441673833L352.2871883061049 631.8192891946117C352.2871883061049 631.8192891946117 337.8723607528422 634.3262157256139 330.5866055221171 634.3262157256139C307.3975351103468 634.3262157256139 299.955096971434 623.2017292442916 299.955096971434 594.2937326836725C299.955096971434 567.5009553835865 308.7293398299417 556.6114932645457 330.8999713384924 556.6114932645457C338.34240947740517 556.6114932645457 352.20884685201105 559.1184197955479 352.20884685201105 559.1184197955479L352.13050539791726 559.118419795548ZM382.056940861756 526.5283748925194V588.4181236266361L392.4763542562339 587.7130505397918L411.98337632559475 558.256663800516H427.33830132798323L404.54093818668196 592.80524505589L428.5134231393905 632.6810451896438H413.0018152288144L392.7897200726092 599.6209515620523L382.05694086175606 600.4043661029905V632.6810451896438H368.3471863953378V526.6067163466132H382.05694086175606L382.056940861756 526.5283748925194ZM495.4953663896054 620.929827075571 495.8087322059807 631.3492404700488C495.8087322059807 631.3492404700488 478.808636667622 634.326215725614 466.19566255851726 634.326215725614C444.02503104996657 634.326215725614 435.95586127830325 621.7915830706029 435.95586127830325 596.0955861278304C435.95586127830325 568.2843699245248 448.0204452087513 556.6114932645457 467.68415018629975 556.6114932645457C487.34785516384824 556.6114932645457 498.3156587369829 567.344272475399 498.3156587369829 591.1600745199198L497.4539027419509 601.1094391898348H449.8222986529092C449.9789815610968 615.1325594726284 454.6011273526321 622.2616317951658 468.15419891086276 622.2616317951658C479.5920512085603 622.2616317951658 495.5737078436993 620.929827075571 495.5737078436993 620.929827075571H495.4953663896054ZM484.7625871787523 590.3766599789817C484.7625871787523 573.6899302569982 479.6703926626541 568.0493455622434 467.6841501862998 568.0493455622434C455.6979077099456 568.0493455622434 449.8222986529092 574.3166618897487 449.66561574472155 590.3766599789817H484.76258717875237H484.7625871787523ZM529.4172160122289 632.6810451896438H515.7074615458107V526.6067163466132H529.4172160122289V632.6810451896438ZM590.7585745676889 556.6114932645457V570.321247730964C576.892137193083 573.1415400783416 564.5925289003535 579.408856405847 564.5925289003535 579.408856405847V632.6810451896437H550.8827744339352V558.256663800516H564.4358459921658V567.8143211999618C564.4358459921658 567.8143211999618 577.2055030094582 559.1967612496417 590.7585745676889 556.6898347186395V556.6114932645457ZM665.026273048629 623.5934365147607 664.5562243240661 634.3262157256139C656.0953472819338 634.3262157256139 650.6897869494602 632.9944110060189 645.8326167956435 628.5289481226713C645.8326167956435 628.5289481226713 633.1413012324448 634.3262157256139 620.3716442151524 634.3262157256139C606.270182478265 634.3262157256139 598.8277443393522 626.2570459539505 598.8277443393522 610.980462405656C598.8277443393522 595.7038788573614 606.8969141110156 590.1416356167001 622.4868634756855 588.8098308971053L643.7957389892041 586.8512945447599V580.8973440336297C643.7957389892041 571.653052450559 639.8003248304193 568.5193942868063 631.731155058756 568.5193942868063C621.4684245724658 568.5193942868063 603.6065730390751 570.1645648227765 603.6065730390751 570.1645648227765L603.1365243145121 560.2152001528615C603.1365243145121 560.2152001528615 619.3532053119326 556.6114932645457 632.592911053788 556.6114932645457C650.1413967708033 556.6114932645457 657.4271520015285 564.3672972198339 657.4271520015285 580.8973440336297V616.9344129167862C657.7405178179039 621.3998758001339 660.4041272570936 623.0450463361041 665.0262730486289 623.5934365147608L665.026273048629 623.5934365147607ZM622.8785707461547 622.8883634279164C632.5929110537882 622.8883634279164 643.7173975351104 619.0496321773193 643.7173975351104 619.0496321773193V596.8790006687686L624.0536925575618 598.6808541129265C616.1412056940861 599.4642686538646 612.6158402598644 603.3029999044618 612.6158402598644 610.7454380433744C612.6158402598644 618.1878761822873 615.9061813318048 622.9667048820102 622.8785707461547 622.9667048820102V622.8883634279164ZM724.4090952517436 632.6810451896438V627.7455335817331C724.4090952517436 627.7455335817331 713.3629502245152 634.326215725614 703.2569026464125 634.326215725614C682.2613929492691 634.326215725614 677.7959300659214 623.9068023311361 677.7959300659214 597.11402503105V558.256663800516H691.5056845323397V597.11402503105C691.5056845323397 615.6026081971913 692.9941721601223 621.9482659787906 705.6071462692271 621.9482659787906C715.556510939142 621.9482659787906 724.3307537976498 617.3261201872554 724.3307537976498 617.3261201872554V558.256663800516H737.8838253558804V632.6810451896438H724.3307537976498H724.4090952517436ZM772.0406993407853 558.256663800516V563.1921754084266C772.0406993407853 563.1921754084266 782.9301614598261 556.6114932645457 792.5661603133659 556.6114932645457C802.2021591669056 556.6114932645457 807.7644024075666 558.8833954332665 811.7598165663514 564.0539314034586C811.7598165663514 564.0539314034586 825.1562052163944 556.6114932645457 837.8475207795931 556.6114932645457C858.0596159357983 556.6114932645457 863.3084933600842 566.8742237508361 863.3084933600842 593.0402694181714V632.6027037355499H849.5987388936659V593.275293780453C849.5987388936659 576.0401738798128 847.6402025413204 568.7544186490877 835.4972771567785 568.7544186490877C825.9396197573327 568.7544186490877 816.6169867201683 573.5332473488106 816.6169867201683 573.5332473488106C817.4787427152003 576.0401738798128 818.1054743479508 585.911197095634 818.1054743479508 593.9020254132035V632.6027037355499H804.5524027897201V594.2153912295787C804.5524027897201 575.7268080634376 802.5938664373747 568.7544186490877 790.2942581446451 568.7544186490877C780.8932836533869 568.7544186490877 772.2757237030669 573.5332473488106 772.2757237030669 573.5332473488106V632.6027037355499H758.5659692366486V558.1783223464222H772.1190407948793L772.0406993407853 558.256663800516ZM108.17521734976594 707.8888411197097 151.49804146364767 803.1520492977932H154.94506544377566V707.8888411197097H164.03267411865863V811.2995605235503H146.170822585268L102.534632655011 716.1930352536544H99.2442915830706V811.2995605235503H90.0V707.8888411197097H108.17521734976593H108.17521734976594ZM244.09764020254133 811.2995605235503H235.32339734403365V805.8156587369829C235.32339734403365 805.8156587369829 223.8855450463361 812.7880481513328 212.36935129454477 812.7880481513328C191.68720741377663 812.7880481513328 187.53511034680423 803.5437565682621 187.53511034680423 775.7325403649565V736.8751791344225H196.30935320531194V775.575857456769C196.30935320531194 797.7464889653197 198.58125537403265 804.7188783796696 213.46613165185823 804.7188783796696C225.21734976593103 804.7188783796696 235.32339734403365 798.451562052164 235.32339734403365 798.451562052164V736.7968376803287H244.09764020254133V811.2212190694565V811.2995605235503ZM275.1991974777874 736.8751791344225V747.6079583452758C275.1991974777874 747.6079583452758 288.1255374032674 738.2069838540174 303.32377949746825 735.3866915066401V744.3176172733354C289.06563485239326 747.2945925289005 275.1991974777874 755.4421037546576 275.1991974777874 755.4421037546576V811.2212190694565H266.4249546192797V736.7968376803287H275.1991974777874V736.8751791344225ZM339.3608483806248 743.612544186491C330.1165567975542 743.612544186491 321.8123626636094 746.1194707174932 321.8123626636094 756.2255182955957C321.8123626636094 763.9813222508837 325.4944110060189 766.1748829655107 341.78943345753316 768.9168338587945C360.8264068023311 772.0504920225471 367.95547912486865 775.4975160026752 367.95547912486865 789.7556606477501C367.95547912486865 807.147463456578 357.0660170058278 812.8663896054268 339.2041654724372 812.8663896054268C330.1165567975542 812.8663896054268 313.7431928919461 810.2027801662368 313.7431928919461 810.2027801662368L314.3699245246966 802.290293302761C314.3699245246966 802.290293302761 331.05665424668 804.7972198337632 338.65577529378044 804.7972198337632C351.4254323110729 804.7972198337632 358.8678704499856 801.8202445781981 358.8678704499856 790.2257093723131C358.8678704499856 781.2947836056176 354.402407566638 779.3362472532722 337.7156778446546 776.82932072227C320.6372408522021 774.1657112830801 312.72475398872643 771.0320531193274 312.72475398872643 756.6172255660649C312.72475398872643 740.4005445686444 326.12114263876936 735.6217158689215 339.0474825642495 735.6217158689215C350.17196904557176 735.6217158689215 365.37021113977255 738.1286423999236 365.37021113977255 738.1286423999236L365.0568453233973 746.0411292633992C365.0568453233973 746.0411292633992 349.1535301423521 743.6908856405846 339.28250692653097 743.6908856405846L339.3608483806248 743.612544186491ZM385.89567211235317 707.1054265787716H394.6699149708608V718.2299130600938H385.89567211235317V707.1054265787716ZM394.6699149708608 736.8751791344225V811.2995605235503H385.89567211235317V736.8751791344225H394.6699149708608ZM417.075570841693 736.8751791344225H425.8498137002006V742.35908092099C425.8498137002006 742.35908092099 438.38444635521165 735.3866915066401 450.13566446928445 735.3866915066401C470.5044425336773 735.3866915066401 474.96990541702496 744.9443489060859 474.96990541702496 772.1288334766409V811.2995605235503H466.0389796503296V772.5988822012039C466.0389796503296 750.7416165090285 463.68873602751506 743.4558612783032 448.8038597496895 743.4558612783032C437.20932454380437 743.4558612783032 425.9281551542944 749.7231776058088 425.9281551542944 749.7231776058088V811.3779019776441H417.15391229578677V736.9535205885163L417.075570841693 736.8751791344225ZM493.0667813126971 823.6775102703737C493.0667813126971 814.5899015954908 497.2188783796695 810.7511703448936 505.1313652431452 804.953902741951C502.624438712143 803.3087322059807 501.37097544664186 799.4700009553837 501.37097544664186 794.8478551638484C501.37097544664186 792.3409286328463 506.14980414636483 783.2533199579632 506.14980414636483 783.2533199579632C499.7258049106717 780.5897105187732 493.9285373077291 774.6357600076431 493.9285373077291 760.7693226330371C493.9285373077291 742.5941052832713 504.6613165185822 735.4650329607337 520.8779975160028 735.4650329607337C528.6338014712908 735.4650329607337 536.4679468806726 737.423569313079 536.4679468806726 737.423569313079L558.0118467564728 736.9535205885161V744.8660074519919L543.1269704786473 744.5526416356165C546.2606286424 747.6862997993694 548.454189357027 751.9950797745294 548.454189357027 760.7693226330371C548.454189357027 779.6496130696473 539.0532148657686 785.6035635807775 520.329607337346 785.6035635807775C518.9978026177511 785.6035635807775 514.3756568262158 785.2901977644021 512.7304862902456 784.976831948027C512.7304862902456 784.976831948027 509.75351103468046 792.2625871787523 509.75351103468046 794.2211235310976C509.75351103468046 800.6451227667908 510.9286328460877 801.3501958536351 528.6338014712908 801.5068787618229C548.8458966274959 801.5068787618229 556.4450176745963 805.1105856501385 556.4450176745963 823.0507786376229C556.4450176745963 839.7375083596064 545.3205311932741 846.5532148657685 523.8549727715679 846.5532148657685C499.8824878188593 846.5532148657685 492.9100984045094 840.9126301710137 492.9100984045094 823.6775102703734L493.0667813126971 823.6775102703737ZM524.2466800420369 838.7974109104807C540.6200439476451 838.7974109104807 547.5924333619948 834.331948027133 547.5924333619948 823.2858029999045C547.5924333619948 810.594487436706 542.2652144836152 809.2626827171109 528.2420942008216 809.2626827171109C522.6015095060667 809.2626827171109 511.39868157065064 808.6359510843604 511.39868157065064 808.6359510843604C504.26960924811317 813.7281456004587 501.9977070793924 816.5484379478362 501.9977070793924 822.8940957294353C501.9977070793924 834.4886309353205 505.9931212381771 838.6407280022929 524.168338587943 838.6407280022929L524.2466800420369 838.7974109104807ZM520.9563389700966 778.0827839877711C534.6660934365148 778.0827839877711 539.5232635903315 773.4606381962358 539.5232635903315 760.6909811789435C539.5232635903315 747.921324161651 534.587751982421 742.8291296455527 520.9563389700966 742.8291296455527C508.4217063150855 742.8291296455527 503.09448743670583 747.7646412534634 503.09448743670583 760.6909811789435C503.09448743670583 773.6173211044236 508.4217063150855 778.0827839877711 520.9563389700966 778.0827839877711ZM610.6573039075189 736.8751791344225V747.6079583452758C610.6573039075189 747.6079583452758 623.5836438329991 738.2069838540174 638.7818859271998 735.3866915066401V744.3176172733354C624.5237412821249 747.2945925289005 610.6573039075189 755.4421037546576 610.6573039075189 755.4421037546576V811.2212190694565H601.8830610490112V736.7968376803287H610.6573039075189V736.8751791344225ZM709.6809018821057 773.0689309257668C709.6809018821057 801.1935129454478 703.4135855546002 812.7880481513328 678.5793446068598 812.7880481513328C653.7451036591192 812.7880481513328 647.321104423426 801.1935129454475 647.321104423426 773.0689309257668C647.321104423426 746.7462023502437 655.4686156491833 735.3866915066401 678.5793446068598 735.3866915066401C701.6900735645361 735.3866915066401 709.6809018821057 746.6678608961499 709.6809018821057 773.0689309257668ZM678.5793446068598 804.8755612878572C697.7730008598453 804.8755612878572 700.5932932072228 795.7879526129743 700.5932932072228 772.990589471673C700.5932932072228 750.1932263303718 695.5010986911245 743.2208369160221 678.5793446068598 743.2208369160221C661.6575905225949 743.2208369160221 656.5653960064966 750.6632750549347 656.5653960064966 772.990589471673C656.5653960064966 795.3179038884114 659.2290054456865 804.8755612878572 678.5793446068598 804.8755612878572ZM788.1006974300183 773.0689309257668C788.1006974300183 801.1935129454478 781.8333811025128 812.7880481513328 756.9991401547722 812.7880481513328C732.1648992070317 812.7880481513328 725.7408999713386 801.1935129454475 725.7408999713386 773.0689309257668C725.7408999713386 746.7462023502437 733.8884111970958 735.3866915066401 756.9991401547722 735.3866915066401C780.1098691124487 735.3866915066401 788.1006974300183 746.6678608961499 788.1006974300183 773.0689309257668ZM756.9991401547722 804.8755612878572C776.1927964077579 804.8755612878572 779.0130887551353 795.7879526129743 779.0130887551353 772.990589471673C779.0130887551353 750.1932263303718 773.920894239037 743.2208369160221 756.9991401547722 743.2208369160221C740.0773860705075 743.2208369160221 734.9851915544092 750.6632750549347 734.9851915544092 772.990589471673C734.9851915544092 795.3179038884114 737.648800993599 804.8755612878572 756.9991401547722 804.8755612878572ZM807.2943536830037 736.8751791344225H816.0685965415115V742.35908092099C816.0685965415115 742.35908092099 827.3497659310214 735.3866915066401 838.8659596828127 735.3866915066401C849.1286901691029 735.3866915066401 854.6125919556703 737.7369351294547 858.3729817521735 743.2991783701157C858.3729817521735 743.2991783701157 871.4560045858412 735.3866915066401 885.1657590522594 735.3866915066401C905.3778542084647 735.3866915066401 910.0 744.6309830897108 910.0 772.1288334766409V811.2995605235503H901.2257571414923V772.5988822012039C901.2257571414923 750.7416165090285 898.8755135186777 743.4558612783032 884.1473201490397 743.4558612783032C871.9260533104041 743.4558612783032 861.5066399159261 749.7231776058088 861.5066399159261 749.7231776058088C863.1518104518963 753.8752746727812 863.7785420846469 762.8062004394765 863.7785420846469 772.6772236552977V811.3779019776441H854.8476163179516V772.990589471673C854.8476163179516 750.6632750549347 852.4973726951371 743.534202732397 837.847520779593 743.534202732397C826.2529855737077 743.534202732397 816.1469379956052 749.8015190599026 816.1469379956052 749.8015190599026V811.4562434317379H807.3726951370975V737.0318620426101L807.2943536830037 736.8751791344225Z" fill="#000000"/>
</svg>
