<?xml version="1.0" encoding="UTF-8"?>
<!-- source: nursing_text_upload.svg (top symbol paths cleaned) -->
<svg xmlns="http://www.w3.org/2000/svg" viewBox="0 0 1000 1000" width="1000" height="1000">
  <path d="M480.31335552849293 90.94033730283131C565.8604716648553 82.24440977202819 638.4751827554079 134.49429912377687 647.9143519555106 221.4164123483431C662.2217540895243 353.2303223985939 507.6274868752465 437.5882518640772 405.5060815135072 352.3384323954346C307.2866949155899 270.32171418824447 351.54673632236984 104.05855276596594 480.31335552849293 90.94033730283131ZM485.85050596477356 144.82535832703869C374.02979681867726 157.68343920591855 383.61761435263963 335.9499535873826 503.8741164452846 331.9736106566307C628.2184477190762 327.848619392019 622.5326489489356 129.10579702135612 485.85050596477356 144.82535832703869ZM649.0292144594597 382.5883683359207C658.951490744607 386.15592834855784 688.1237262646088 385.15255209500367 694.143983785934 392.5849687879978C699.086540886775 398.71671255971796 708.2284134191578 424.47003640094255 711.1270559294256 433.2031260152106C755.2756110858105 565.6116294009009 734.0560614273126 774.3882143071058 617.9617126827442 866.0299121317233C509.52275313196003 951.6141903515506 384.286531855009 904.381182267573 320.5535587125843 792.2260143702916C264.66178518126856 693.8579794385145 253.17870139059266 555.6521910322888 285.06376900353746 447.65917648308414C287.7022769295503 438.70311436802626 298.92522613597146 403.17616257551435 305.42859074234127 399.27414381169245C307.88128825102956 397.7876604730936 342.1818912891971 388.1998429391312 344.1514817128408 388.4971396068509C435.9418278713182 456.3179419304223 563.9280433246769 468.1726465557479 649.0292144594597 382.6626925028506V382.5883683359207ZM673.9278103809901 645.9932159356324C680.9142820724045 579.8075452845197 680.9142820724045 509.6083696191903 656.2758207351291 447.2132314815046C597.2995942762205 489.24354788038636 526.3943390250566 508.5306691987061 454.2627350195486 494.9293466505269C414.3878194616351 487.3854437071378 377.7460051651743 469.547643643952 341.32716336950295 452.75038191778526C340.28662503248404 459.7740156926647 334.0805570938338 470.5881819809711 336.05014751747706 477.38884325506075C336.6447408529167 479.3955957621692 350.72917048614056 496.4158299891257 353.3676784121536 499.2029862489985C379.30681267070315 526.7772521800067 422.0803707388842 555.429218531499 455.2661112731031 573.8244498466594C522.195023593515 610.9122091447001 597.7455392778003 636.4425604851349 673.890648297525 645.9932159356324H673.9278103809901ZM322.7832837204827 545.6555905802117C319.5501824590302 617.2297633337452 328.3204341567633 691.8512269314061 363.66157553195023 754.8037963210663C386.9993639479518 760.0064880061622 508.4822147949409 669.0337076839141 508.51937687840575 659.9289972349964C441.40465414066887 631.1283825496441 376.40817016043536 595.712917007527 322.7461216370176 545.6555905802117H322.7832837204827ZM660.9210811682502 699.8782369598398 567.3097929199893 679.8478739722207C528.8470365337447 717.9390095238156 486.4450993002132 754.9524446549264 439.17492913277067 781.932117250495C426.3911724208207 789.2530476930942 411.4520148679027 794.567225628585 399.411499825252 801.6651835703943C398.2966373213029 802.3341010727639 395.7696156456849 801.7023456538593 397.070288566959 804.8239606649169C400.8979831638509 814.0029952807646 436.98236620833734 839.0502395361548 447.16477707773936 843.918472470066C551.0328003623323 893.7528263965916 634.3501914907964 788.8814268584445 660.8839190847854 699.8782369598399L660.9210811682502 699.8782369598398Z" fill="#000000"/>
</svg>
