<?xml version="1.0" encoding="UTF-8"?>
<!-- source: paper.svg -->
<svg xmlns="http://www.w3.org/2000/svg" viewBox="0 0 1000 1000" width="1000" height="1000">
  <path d="M727.5742015319911 335.2556615686525C726.5268996007092 317.1522996136367 715.6798438838609 302.7893016989135 707.3762357144115 288.05226738016097C684.4104005070155 251.1722779428768 661.0705288955903 214.96555403284526 640.124490269952 177.3374917875026C629.3522418339097 158.56086430523416 619.5524880483433 139.41020041893648 607.2840939961839 120.85799477908563C601.0750896892982 111.95592836318944 593.8187834511308 101.70733089278795 581.2511602757479 97.2937013252428C556.6395648906232 88.16721306692907 539.2842757436661 114.57418319139421 521.2557210694561 123.70067144970793C486.9939864603767 139.78423682296574 470.2371555598662 96.39601395557258 436.873108320457 92.35642079205667C414.2813095170902 89.58855140224021 373.2121123546784 83.97800534180143 364.5344677811998 112.7788084520538C360.7192964601014 130.28371216062274 356.5300887349738 148.83591780047362 352.1164591674286 166.19120694743089C340.82055976574526 172.0261748502872 329.8986967680911 178.0855645955611 319.27606289366037 185.49148539534025C313.6655168332216 189.68069312046788 307.980163491977 193.6454790031779 302.89326839717916 200.82697796053958C298.33002426802227 208.45732060273627 297.80637330238136 216.31208508735057 297.4323368983521 223.26916220229464C296.0109985630409 249.52651776514807 300.49943541139197 278.1028990329829 300.49943541139197 303.3129526645544C299.00328979527495 317.5263360176659 292.1210199611367 322.2391947084345 278.80532397769537 329.3458863849903C263.17060228927267 342.13793140279074 279.8526259089773 361.5878244123118 290.6996816258256 370.4150835474021C311.34649112824025 388.44363822161205 332.6665661579076 404.1531671908406 353.3881829411281 421.433649056992C367.45195173262795 434.3753086364041 387.3506884269841 441.85603671698914 393.1856563298404 461.2311224457044C398.12293686302655 474.397203867534 394.98103106918086 486.06713967324663 398.42216598625 500.57975214958157C413.1592003050024 541.0504910655466 468.2173589781082 523.1715509529483 497.46700577319575 512.848146201741C524.7716632673311 505.367418121156 544.8948218041048 480.0077499279728 556.8639867330407 456.5182637549358C563.2974128823439 446.2696662845343 572.3490938598518 439.6118182928136 583.8694151039527 436.69433434138546C620.8990191028487 452.02982690658473 659.1255395946382 448.58869198951567 662.0430235460663 400.5624177121598C662.6414817925131 391.2115076114285 662.0430235460663 382.01021207230895 660.5468779299492 372.8837238139952C685.0088587534623 369.06855249289686 726.1528631966798 363.0839700284288 727.4993942511852 335.1808542878466L727.5742015319911 335.2556615686525ZM710.9669851930923 344.6813789501896C695.4818780662813 355.8276637902613 671.9923918932443 359.1191841457187 652.7669207261408 361.8122462547293C625.237841389588 363.8320428364873 595.9133873136946 365.1037666101867 568.9079589427827 358.7451477416895C568.7583443811709 358.5207258992719 568.7583443811709 357.997074933631 568.7583443811709 357.69784581040756C575.3413850920858 301.8916143292432 581.1763529949421 245.03808091679704 575.1917705304741 188.70819846999183L567.7110424498891 189.30665671643862C572.2742865790459 244.2152008279327 566.4393186761896 298.6749012545917 558.4349396299635 353.05979440044484C558.0609032259345 357.62303852960173 556.9387940138465 364.35569380212826 562.3997255126737 367.7968287191974C589.8539975684207 377.3721606623462 619.6272953291491 375.35236408058825 648.3532911585957 375.0531349573648C656.5072847664334 423.3038310771383 638.254308249806 446.41928084614597 587.4601645826335 425.922085905343C561.9508818278387 413.7284991339894 536.6660209154612 399.1410793768486 509.3613634213259 390.4634348033699C507.49118140117963 390.01459111853484 505.4713848194217 389.8649765569232 503.00274455282863 390.9870857690109C500.833333409459 391.959580419487 499.78603147817705 394.2786061244683 499.1875732317302 395.924366302197C493.87625629451486 418.9650087903989 493.57702717129143 442.15526584021245 490.0610849734165 465.3455228900261L496.9433548075547 466.6920539445313C502.32947902557595 445.6712080380874 503.82562464169297 423.5282529195557 509.1369415789083 402.73182885552933C528.1379909035943 409.38967684725003 549.5328732140674 420.90999809135093 568.7583443811709 430.33571547288807C566.289704114578 431.60743924658755 564.0454856904024 432.879163020287 562.3997255126737 434.07607951318056C545.1192436465222 445.9704371613108 538.9102393396367 469.0858869303185 525.3701215137778 482.62600475617745C507.64079596279123 500.5049448687756 479.81248750301495 507.0879855796905 455.5749285219195 511.20238602401224C443.1569199081483 512.848146201741 429.69160936309527 513.0725680441585 420.5651211047816 507.91086566855483C409.04479986068066 501.55224680005756 410.39133091518596 490.7799983640151 409.4188362647099 478.2123751886323C407.9974979293987 463.849377273909 403.20983195782435 449.26195751676823 392.2879689601702 438.11567267669653C359.8216090904312 413.87811369560103 327.953707467139 388.8924819064471 297.6567587407696 362.6351263435936C291.59736899549574 356.8001584407373 277.83282932721926 345.1302226350246 285.23875012699847 337.79910911605134C319.3508701744662 324.2589912901924 311.4961056898519 292.2414751052885 309.8503455121232 263.44067199503615C310.37399647776414 245.41211732082624 306.3344033142482 223.6431986063238 313.3662877099982 207.33521139064845C324.7369943924874 194.0195154072071 343.58842915556164 184.8930271488934 359.44757268640194 176.4398044178323C368.42444638310394 172.69944037753982 378.6730438535054 167.3133161595186 387.94914667343085 163.19891571519682C397.97332230141484 158.8600934284575 419.1437827694705 148.38707411563846 430.2152603287363 144.79632463695765C437.4715665669038 153.0251255256012 438.2196393749623 165.44313413937232 439.34174858705 176.66422626024988C440.6134723607495 216.38689236815634 430.7389112943772 256.3339803184804 419.44301189269385 294.4108862486582L427.6718127813374 297.32837020008634C441.6607742920314 248.4792158338661 462.30758379444603 194.46835909204222 443.60576359298346 144.19786639051085C441.2119306071962 139.78423682296568 437.17233744368036 132.90196698882747 431.03814041760063 133.05158155043915C428.27027102778413 133.27600339285672 427.7466200621432 133.79965435849766 425.42759435716187 134.47291988575031C407.02500327892267 141.35518971988856 384.6576263179735 152.4266672791544 365.43215515086996 160.8050827294096C367.5267590134338 148.08784499241509 370.0702065608327 135.07137813219714 372.38923226581403 122.65336951842599C377.4761273606118 94.52583193542628 414.356116797896 100.43560711908846 434.55408261547564 103.50270563212831C457.7443396652892 107.16826239161497 468.6662026629433 124.59835881937809 489.7618558501931 134.0988834817211C501.28217709429407 138.13847664523698 514.1490293929003 137.76444024120775 525.1456996713603 132.6775451464099C544.1467489960462 124.52355153857224 556.1907212057881 100.2111852766709 577.8100253586788 106.94384054919742C586.188440808934 109.71170993901389 592.771481519849 118.0901253892691 598.4568348610935 126.76776996274774C631.0728092924442 182.05035047827107 662.4170599500956 240.17560766441673 697.4268673672334 294.1116571254348C704.683173605401 307.0533167048469 714.4081201101615 320.7430490923175 715.5302293222492 335.1808542878466C715.5302293222492 339.1456401705567 714.0340837061322 341.76389499876143 710.7425633506748 344.6813789501896H710.9669851930923ZM493.2777980480681 350.8903832570752C477.0446181131986 374.00583302608294 462.83123476008706 402.6570215747236 437.5463738477097 418.59097238636974C433.7312025266113 420.9099980913511 424.38029242588004 422.40614370746806 420.41550654316995 416.2719466813884C417.4980225917418 412.83081176431926 413.30881486661417 405.49969824534594 410.914981880827 401.53491236263585C402.01291546493076 386.2742270782424 391.24066702888837 365.77703213743945 383.90955350991504 352.536143434804C378.8226584151172 353.58344536608587 372.01519586178483 356.20170019429065 367.00310804779286 356.7253511599316C365.3573478700642 356.94977300234916 363.03832216508283 356.87496572154333 361.16814014493656 356.35131475590237C359.6719945288196 356.1268929134848 356.8293178581972 352.3865288731923 357.12854698142064 350.7407686954636C356.9041251390031 316.1049976823549 361.39256198735416 280.8707684227994 358.2506561935084 246.60903381372L364.2352386579764 245.5617318824381C369.02290462955085 278.70135727942977 367.1527226094046 312.2898263612566 368.0504099790748 345.2798371966365C371.56635217694975 344.531764388578 376.42882542933 342.88600421084925 378.67304385350553 342.2127386835966C382.71263701702145 341.6142804371499 385.5553136876438 339.1456401705568 390.56740150163574 342.96081149165514C402.6113737113776 359.41841326894223 416.6751425028775 392.33361682351637 428.7191147126194 409.16525500483266C428.8687292742311 409.38967684725026 429.09315111664864 409.76371325127946 429.09315111664864 409.76371325127946C429.69160936309544 409.76371325127946 431.41217682163 409.61409868966774 432.908322437747 408.7164113199976C455.72454308353133 394.503027966886 470.6111919638955 369.36778161612034 487.4428301452119 347.67367018242373L493.12818348645646 350.59115413385194L493.2777980480681 350.8903832570752ZM530.4570166085757 185.5662926761461C531.9531622246927 192.29894794867263 527.6143399379533 198.2087231323348 524.5472414249135 203.59484735035602C516.9917060635227 215.63881956009791 507.2667595587621 226.56068255775205 497.84104217722495 236.65966546654184L492.2304961167862 232.69487958383175C499.5616096357595 218.7807253539436 512.4284619343657 199.33083234442253 517.2909351867461 189.3066567164386C515.7199822898232 185.79071451856362 503.82562464169297 179.88093933490148 499.03795867011854 177.2626845066967C491.18319418550425 173.2230913431808 482.8795860160549 169.7819564261117 474.35155600418796 166.41562878984843L476.5957744283635 157.96240605878734C493.50221989048566 160.50585360618626 510.1094362293844 166.41562878984843 524.0983977400783 176.6642262602499C526.3426161642539 178.45960099959035 529.260100115682 181.2274703894068 530.5318238893815 185.5662926761461H530.4570166085757ZM338.12749765673465 718.9422048218585H322.1935468450885V627.0788639922744H354.0614484683807C374.932679813213 627.0788639922744 386.1537719340905 635.8313158465588 386.1537719340905 658.3483073691198C386.1537719340905 682.660673631021 374.1097997243486 691.4879327661114 354.0614484683807 691.4879327661114H338.12749765673465V719.0170121026644V718.9422048218585ZM353.01414653709884 678.3218513442819C363.936009534753 678.3218513442819 369.7709774376093 673.4593780919015 369.7709774376093 657.8994636842847C369.7709774376093 643.8356948927849 363.936009534753 640.0953308524923 352.8645319754871 640.0953308524923H338.0526903759288V678.3218513442819H353.01414653709884ZM395.6542965964335 686.4758449521195C395.6542965964335 665.8290354497047 401.1900353760664 650.4187356036996 424.38029242588004 650.4187356036996C433.880817088223 650.4187356036996 453.2559028169382 652.8125685894868 453.2559028169382 652.8125685894868V700.9884574284542C453.2559028169382 705.7013161192228 453.9291683441909 718.7925902602466 453.9291683441909 718.7925902602466L438.59367577899155 719.3162412258876C438.59367577899155 719.3162412258876 437.84560297093304 713.9301170078663 437.84560297093304 709.5164874403212C437.84560297093304 709.5164874403212 431.33736954082406 720.3635431571694 419.21859005027636 720.3635431571694C401.8633009033191 720.3635431571694 395.6542965964335 708.8432219130684 395.6542965964335 686.4010376713134V686.4758449521195ZM422.6597249673455 708.0951491050101C431.6365986640475 708.0951491050101 437.8456029709331 696.724442422521 437.8456029709331 696.724442422521V663.8840461487528C437.8456029709331 663.8840461487528 429.1679583974544 662.8367442174708 425.8016307611912 662.8367442174708C414.43092407870193 662.8367442174708 411.2890182848562 670.9159305445027 411.2890182848562 686.5506522329254C411.2890182848562 699.4175045315316 413.30881486661417 708.169956385816 422.6597249673455 708.169956385816V708.0951491050101ZM485.34822628264794 651.9148812198167 485.49784084425966 659.3956093004017C485.49784084425966 659.3956093004017 492.60453252081544 650.4187356036997 503.3767809568579 650.4187356036997C521.5549501926795 650.4187356036997 527.838761780371 662.9115514982767 527.838761780371 684.6056629319733C527.838761780371 707.5714981393693 520.2832264189801 720.2887358763638 500.01045332059465 720.2887358763638C493.50221989048566 720.2887358763638 485.64745540587137 718.5681684178293 485.64745540587137 718.5681684178293V747.8178152129167H470.3119628406721V651.9148812198167H485.348226282648H485.34822628264794ZM498.1402713004484 707.9455345433985C509.0621342981025 707.9455345433985 512.2040400919482 699.8663482163666 512.2040400919482 684.6056629319731C512.2040400919482 671.4395815101435 510.03462894857853 662.7619369366649 500.53410428623556 662.7619369366649C492.4549179592037 662.7619369366649 485.5726481250655 672.7861125646489 485.5726481250655 672.7861125646489V706.7486180505049C485.5726481250655 706.7486180505049 492.67933980162127 707.9455345433985 498.0654640196425 707.9455345433985H498.1402713004484ZM541.6781087294532 626.25598390341H557.3128304178758V641.8158983110269H541.6781087294531V626.25598390341H541.6781087294532ZM557.1632158562643 651.9148812198167V718.9422048218586H541.8277232910649V651.9148812198167H557.1632158562643ZM623.21804480783 705.7761234000288 623.6668884926651 716.2491427128479C623.6668884926651 716.2491427128479 613.1190618990403 720.2887358763638 599.803365915599 720.2887358763638C579.7550146596311 720.2887358763638 570.9277555245408 709.9653311251566 570.9277555245408 687.2987250409839C570.9277555245408 666.27787913454 579.0069418515725 650.5683501653115 600.3270168812398 650.5683501653115C616.9342332201386 650.5683501653115 626.5095651632876 656.1788962257502 626.5095651632876 670.3922795788618C626.5095651632876 687.1491104793722 614.6900147959632 690.7398599580531 592.2478305542081 690.7398599580531H586.4128626513518V692.9092711014227C586.4128626513518 701.8861447981249 591.275335903732 707.7959199817869 600.9254751276867 707.7959199817869C610.5756143516414 707.7959199817869 623.21804480783 705.7761234000291 623.21804480783 705.7761234000291V705.7761234000288ZM592.247830554208 679.8928042412047C605.4887192568435 679.8928042412047 611.2488798788941 678.3966586250876 611.2488798788941 670.5418941404733C611.2488798788941 664.258082552782 607.5833231194073 662.238285971024 600.3270168812398 662.238285971024C590.22803397245 662.238285971024 586.7120917745751 669.4945922091915 586.5624772129634 679.9676115220105H592.2478305542079L592.247830554208 679.8928042412047ZM654.6371027462872 651.9148812198167V661.7146350053831C654.6371027462872 661.7146350053831 663.6139764429892 652.9621831510987 674.685454002255 650.4187356036997V665.6046136072873C665.3345439015237 667.774024750657 654.7867173078987 673.9082217767367 654.7867173078987 673.9082217767367V718.9422048218585H639.4512247426994V651.9148812198167H654.6371027462872ZM344.11208012120267 879.8526658352424V786.642793951153H374.932679813213C395.42987475401594 786.642793951153 405.7532795052233 795.096016682214 405.7532795052233 816.0420553078521C405.7532795052233 838.0353958647721 394.68180194595743 847.8351496503385 375.0822943748247 847.8351496503385H352.7897246946813V879.9274731160483H344.11208012120267V879.8526658352424ZM374.63345068998956 840.4292288505593C389.14606316632455 840.4292288505593 396.62679124690953 833.6217662972269 396.62679124690953 815.8924407462404C396.62679124690953 799.5096462497592 388.921641323907 794.1983293125438 374.63345068998956 794.1983293125438H352.71491741387547V840.5040361313651H374.63345068998956V840.4292288505593ZM416.8247570644891 847.7603423695326C416.8247570644891 826.0662309358361 422.21088128251034 811.4040038978894 445.10190920910054 811.4040038978894C452.6574445704914 811.4040038978894 469.26466090939016 813.7230296028708 469.26466090939016 813.7230296028708V863.9935223044022C469.26466090939016 870.9505994193463 470.08754099825455 879.8526658352424 470.08754099825455 879.8526658352424L461.5595109863876 880.151894958466C461.5595109863876 880.151894958466 460.8862454591349 873.5688542475511 460.8862454591349 867.8086936255006C460.8862454591349 867.8086936255006 452.8070591321031 881.1991968897478 439.11732674463246 881.1991968897478C422.5101104057337 881.1991968897478 416.8247570644891 869.5292610840352 416.8247570644891 847.8351496503386V847.7603423695326ZM440.7630869223612 874.0925052131919C452.43302272807387 874.0925052131919 460.9610527399408 858.9066272096043 460.9610527399408 858.9066272096043V819.8572266289505C460.9610527399408 819.8572266289505 450.4132261463159 818.5106955744451 446.4484402636058 818.5106955744451C429.39238023987195 818.5106955744451 425.7268234803853 828.8341003256525 425.7268234803853 847.7603423695325C425.7268234803853 863.3202567771494 428.56950015100756 874.017697932386 440.76308692236114 874.017697932386L440.7630869223612 874.0925052131919ZM518.3382371180279 811.4040038978894C536.6660209154613 811.4040038978894 541.5284941678415 824.9441217237484 541.5284941678415 845.4413166645513C541.5284941678415 868.4071518719472 534.272187929674 881.1243896089418 513.4009565848419 881.1243896089418C506.1446503466744 881.1243896089418 497.6166203348074 879.4038221504072 497.6166203348074 879.4038221504072V910.0H489.0885903229405V812.7505349523947H497.46700577319575L497.6166203348074 823.597590669243C497.6166203348074 823.597590669243 505.99503578506267 811.4040038978894 518.338237118028 811.4040038978894H518.3382371180279ZM512.6528837767834 874.0925052131919C528.5868345884294 874.0925052131919 532.8508495943629 863.9187150235963 532.8508495943629 845.5161239453572C532.8508495943629 831.0035114690222 530.4570166085757 818.5855028552511 517.6649715907753 818.5855028552511C506.2942649082861 818.5855028552511 497.6166203348074 832.4996570851392 497.6166203348074 832.4996570851392V872.596359597075C497.6166203348074 872.596359597075 505.99503578506267 874.092505213192 512.6528837767834 874.092505213192V874.0925052131919ZM603.4689226750855 871.3994431041813 604.0673809215323 877.4588328494552C604.0673809215323 877.4588328494552 594.1180125743542 881.049582328136 581.3259675565539 881.049582328136C563.1477983207322 881.049582328136 555.4426483977297 871.0254067001521 555.4426483977297 847.0122695614742C555.4426483977297 824.3456634773015 564.1202929712083 811.628425740307 584.0190296655644 811.628425740307C597.4843402106176 811.628425740307 606.6108284689312 816.8649353967165 606.6108284689312 828.9089076064585C606.6108284689312 844.8428584181045 596.0630018753064 849.3312952664555 572.0498647366285 849.3312952664555H564.1202929712083V851.2014772866019C564.1202929712083 865.2652460781017 569.2071880660062 874.1673124939978 581.774811241389 874.1673124939978C591.8737941501788 874.1673124939978 603.5437299558914 871.4742503849872 603.5437299558914 871.4742503849872L603.4689226750855 871.3994431041813ZM572.0498647366285 842.6734472747349C590.8264922188969 842.6734472747349 598.0827984570643 839.9803851657243 598.0827984570643 828.9837148872643C598.0827984570643 821.0541431218442 592.5470596774314 818.3610810128336 583.8694151039527 818.3610810128336C569.9552608740646 818.3610810128336 564.4195220944316 827.113532867118 564.1202929712083 842.6734472747349H572.0498647366285ZM654.0386444998403 811.4040038978894V820.0068411905622C643.4908179062154 822.4006741763494 630.6987728884151 830.1806313801579 630.6987728884151 830.1806313801579V879.7778585544365H622.170742876548V812.7505349523948H630.6987728884151V823.2235542652138C630.6987728884151 823.2235542652138 641.4710213244575 814.4711024109293 654.0386444998403 811.4040038978895V811.4040038978894Z" fill="#000000"/>
</svg>
