<?xml version="1.0" encoding="UTF-8"?>
<!-- source: touch.svg -->
<svg xmlns="http://www.w3.org/2000/svg" viewBox="0 0 1000 1000" width="1000" height="1000">
  <path d="M153.36527472527473 629.7023058751091C153.36527472527473 641.5968113696147 149.40043956043957 647.3638443366477 141.68703296703296 651.184503677307C149.90505494505496 654.2121959849993 155.96043956043957 659.9792289520323 155.96043956043957 673.2434047762082C155.96043956043957 692.8513168641202 144.42637362637362 699.8438443366476 126.40439560439562 699.8438443366476H90.0V605.4807674135707H125.03472527472528C143.48923076923077 605.4807674135707 153.36527472527473 612.617470710274 153.36527472527473 629.7023058751091ZM125.1789010989011 646.5708773036805C135.70373626373626 646.5708773036805 140.24527472527473 641.3805476333508 140.24527472527473 631.0719762047794C140.24527472527473 620.763404776208 135.05494505494505 616.6543937871969 124.38593406593407 616.6543937871969H102.90373626373628V646.4987893915926H125.25098901098902L125.1789010989011 646.5708773036805ZM125.89978021978021 688.5981300509333C136.28043956043956 688.5981300509333 142.91252747252747 685.2099981828014 142.91252747252747 672.5946135674168C142.91252747252747 659.9792289520321 132.74813186813188 657.5282399410431 125.39516483516485 657.5282399410431H102.90373626373626V688.5981300509333H125.89978021978023H125.89978021978021ZM184.86769230769232 617.8078003806037H172.25230769230768V603.9669212597245H184.86769230769232V617.8078003806037ZM172.3243956043956 631.360327853131H184.93978021978023V699.8438443366476H172.3243956043956V631.360327853131ZM228.3367032967033 690.1119762047795C232.15736263736264 690.1119762047795 240.08703296703297 689.4631849959883 240.08703296703297 689.4631849959883L240.8079120879121 699.6996685124718C240.8079120879121 699.6996685124718 231.65274725274728 701.3576904904938 226.82285714285715 701.3576904904938C212.04483516483515 701.3576904904938 207.21494505494505 695.7348333476366 207.21494505494505 676.0548333476366V642.2456025784059H197.91560439560442V631.432415765219H207.21494505494505V611.0315366443399H219.68615384615384V631.432415765219H239.94285714285715V642.2456025784059H219.68615384615384V673.6038443366476C219.68615384615384 686.2192289520322 220.33494505494505 690.1840641168674 228.3367032967033 690.1840641168674V690.1119762047795ZM276.923956043956 690.1119762047795C280.7446153846154 690.1119762047795 288.6742857142857 689.4631849959883 288.6742857142857 689.4631849959883L289.3951648351648 699.6996685124718C289.3951648351648 699.6996685124718 280.24 701.3576904904938 275.4101098901099 701.3576904904938C260.63208791208785 701.3576904904938 255.8021978021978 695.7348333476366 255.8021978021978 676.0548333476366V642.2456025784059H246.50285714285715V631.432415765219H255.8021978021978V611.0315366443399H268.2734065934066V631.432415765219H288.5301098901099V642.2456025784059H268.2734065934066V673.6038443366476C268.2734065934066 686.2192289520322 268.9221978021978 690.1840641168674 276.923956043956 690.1840641168674V690.1119762047795ZM352.6883516483516 689.0306575234607 352.97670329670325 698.6183498311531C352.97670329670325 698.6183498311531 337.3336263736263 701.3576904904937 325.7274725274725 701.3576904904937C305.3265934065934 701.3576904904937 297.90153846153845 689.8236245564278 297.90153846153845 666.1787893915927C297.90153846153845 640.5875806003838 309.00307692307695 629.8464816992848 327.09714285714284 629.8464816992848C345.19120879120874 629.8464816992848 355.28351648351645 639.7225256553288 355.28351648351645 661.637250930054L354.49054945054945 670.792415765219H310.6610989010989C310.8052747252748 683.6961520289552 315.05846153846153 690.2561520289552 327.52967032967035 690.2561520289552C338.0545054945055 690.2561520289552 352.76043956043964 689.0306575234607 352.76043956043964 689.0306575234607H352.6883516483516ZM342.81230769230774 660.9163718091751C342.81230769230774 645.5616465344499 338.12659340659343 640.3713168641202 327.0971428571429 640.3713168641202C316.0676923076923 640.3713168641202 310.6610989010989 646.1383498311532 310.51692307692315 660.9163718091751H342.81230769230774ZM454.47648351648354 691.4816465344499 454.043956043956 701.3576904904938C446.2584615384616 701.3576904904938 441.2843956043955 700.1321959849993 436.81494505494504 696.0231849959883C436.81494505494504 696.0231849959883 425.13670329670333 701.3576904904938 413.3863736263736 701.3576904904938C400.4105494505494 701.3576904904938 393.5621978021977 693.9326355454389 393.5621978021977 679.8754926882959C393.5621978021977 665.8183498311531 400.9872527472527 660.7001080729113 415.33274725274725 659.4746135674169L434.9406593406593 657.6724157652191V652.1937344465377C434.9406593406593 643.687360820164 431.2641758241758 640.8038443366476 423.83912087912086 640.8038443366476C414.3956043956043 640.8038443366476 397.9595604395605 642.3176904904936 397.9595604395605 642.3176904904936L397.52703296703294 633.1625256553289C397.52703296703294 633.1625256553289 412.4492307692308 629.8464816992849 424.63208791208785 629.8464816992849C440.77978021978026 629.8464816992849 447.483956043956 636.9831849959883 447.483956043956 652.1937344465377V685.3541740069772C447.77230769230766 689.4631849959882 450.2232967032967 690.9770311498344 454.47648351648354 691.4816465344497V691.4816465344499ZM415.6931868131868 690.8328553256586C424.63208791208797 690.8328553256586 434.8685714285715 687.3005476333509 434.8685714285715 687.3005476333509V666.8996685124719L416.77450549450555 668.5576904904938C409.4936263736264 669.2785696113729 406.2496703296704 672.8108773036806 406.2496703296704 679.6592289520323C406.2496703296704 686.507580600384 409.27736263736267 690.9049432377466 415.6931868131869 690.9049432377466L415.6931868131868 690.8328553256586ZM479.34681318681316 631.360327853131V635.9018663146695C479.34681318681316 635.9018663146695 489.87164835164833 629.8464816992848 499.4593406593407 629.8464816992848C518.3463736263736 629.8464816992848 522.8879120879121 640.0108773036804 522.8879120879121 663.3673608201641V699.7717564245596H510.4167032967033V663.5836245564278C510.4167032967033 647.7242838970872 508.47032967032965 641.0201080729113 496.86417582417585 641.0201080729113C487.9973626373627 641.0201080729113 479.4909890109891 645.417470710274 479.4909890109891 645.417470710274V699.7717564245597H466.87560439560446V631.2882399410432H479.34681318681316V631.360327853131ZM544.1538461538462 642.1735146663179H535.9358241758242V631.360327853131H544.1538461538462V626.0258223586256C544.1538461538462 606.2737344465378 549.2 600.7229652157685 563.0408791208791 600.7229652157685C567.7265934065935 600.7229652157685 577.3863736263736 601.9484597212629 577.3863736263736 601.9484597212629L577.2421978021979 612.1849432377464C577.2421978021979 612.1849432377464 569.9613186813187 611.8965915893948 565.8523076923077 611.8965915893948C558.8597802197803 611.8965915893948 556.6971428571429 615.0684597212629 556.6971428571429 626.1699981828015V631.360327853131H575.584175824176V642.1735146663179H556.6971428571429V699.8438443366476H544.0817582417583V642.1735146663179H544.1538461538462ZM644.1397802197803 691.4816465344499 643.7072527472528 701.3576904904938C635.9217582417583 701.3576904904938 630.9476923076924 700.1321959849993 626.4782417582418 696.0231849959883C626.4782417582418 696.0231849959883 614.8000000000001 701.3576904904938 603.0496703296704 701.3576904904938C590.0738461538463 701.3576904904938 583.2254945054946 693.9326355454389 583.2254945054946 679.8754926882959C583.2254945054946 665.8183498311531 590.6505494505495 660.7001080729113 604.996043956044 659.4746135674169L624.603956043956 657.6724157652191V652.1937344465377C624.603956043956 643.687360820164 620.9274725274726 640.8038443366476 613.5024175824176 640.8038443366476C604.0589010989011 640.8038443366476 587.6228571428571 642.3176904904936 587.6228571428571 642.3176904904936L587.1903296703296 633.1625256553289C587.1903296703296 633.1625256553289 602.1125274725274 629.8464816992849 614.2953846153846 629.8464816992849C630.4430769230769 629.8464816992849 637.1472527472528 636.9831849959883 637.1472527472528 652.1937344465377V685.3541740069772C637.4356043956044 689.4631849959882 639.8865934065934 690.9770311498344 644.1397802197802 691.4816465344497L644.1397802197803 691.4816465344499ZM605.3564835164835 690.8328553256586C614.2953846153846 690.8328553256586 624.5318681318681 687.3005476333509 624.5318681318681 687.3005476333509V666.8996685124719L606.4378021978022 668.5576904904938C599.156923076923 669.2785696113729 595.912967032967 672.8108773036806 595.912967032967 679.6592289520323C595.912967032967 686.507580600384 598.9406593406594 690.9049432377466 605.3564835164835 690.9049432377466V690.8328553256586ZM678.9582417582418 641.236371809175C670.596043956044 641.236371809175 665.5498901098902 643.3269212597246 665.5498901098902 650.1752729080762C665.5498901098902 655.6539542267575 668.7217582417583 657.1678003806036 682.6347252747254 659.6187893915926C699.359120879121 662.5023058751092 705.4865934065936 666.1787893915927 705.4865934065936 679.7313168641201C705.4865934065936 695.7348333476366 695.3221978021979 701.3576904904938 678.6698901098903 701.3576904904938C669.6589010989012 701.3576904904938 654.0158241758243 698.4741740069773 654.0158241758243 698.4741740069773L654.5925274725275 687.8051630179663C654.5925274725275 687.8051630179663 670.596043956044 689.9678003806036 677.5885714285715 689.9678003806036C688.1134065934067 689.9678003806036 693.0874725274726 687.8051630179663 693.0874725274726 680.0917564245597C693.0874725274726 674.036371809175 690.0597802197804 672.4504377432409 675.8584615384617 670.2157124685157C660.6479120879122 667.7647234575265 653.1507692307694 664.5928553256584 653.1507692307694 650.4636245564277C653.1507692307694 635.2530751058782 665.1894505494506 629.9185696113728 678.2373626373627 629.9185696113728C688.4017582417583 629.9185696113728 703.5402197802199 632.6579102707134 703.5402197802199 632.6579102707134L703.2518681318683 643.3269212597245C703.2518681318683 643.3269212597245 687.5367032967033 641.1642838970871 679.0303296703298 641.1642838970871L678.9582417582418 641.236371809175ZM742.9002197802198 641.236371809175C734.538021978022 641.236371809175 729.4918681318682 643.3269212597246 729.4918681318682 650.1752729080762C729.4918681318682 655.6539542267575 732.6637362637363 657.1678003806036 746.5767032967034 659.6187893915926C763.301098901099 662.5023058751092 769.4285714285714 666.1787893915927 769.4285714285714 679.7313168641201C769.4285714285714 695.7348333476366 759.2641758241759 701.3576904904938 742.6118681318682 701.3576904904938C733.6008791208792 701.3576904904938 717.9578021978023 698.4741740069773 717.9578021978023 698.4741740069773L718.5345054945055 687.8051630179663C718.5345054945055 687.8051630179663 734.538021978022 689.9678003806036 741.5305494505495 689.9678003806036C752.0553846153846 689.9678003806036 757.0294505494506 687.8051630179663 757.0294505494506 680.0917564245597C757.0294505494506 674.036371809175 754.0017582417584 672.4504377432409 739.8004395604396 670.2157124685157C724.5898901098901 667.7647234575265 717.0927472527472 664.5928553256584 717.0927472527472 650.4636245564277C717.0927472527472 635.2530751058782 729.1314285714286 629.9185696113728 742.1793406593407 629.9185696113728C752.3437362637363 629.9185696113728 767.4821978021979 632.6579102707134 767.4821978021979 632.6579102707134L767.1938461538462 643.3269212597245C767.1938461538462 643.3269212597245 751.4786813186813 641.1642838970871 742.9723076923077 641.1642838970871L742.9002197802198 641.236371809175ZM836.181978021978 689.0306575234607 836.4703296703298 698.6183498311531C836.4703296703298 698.6183498311531 820.8272527472528 701.3576904904937 809.2210989010989 701.3576904904937C788.8202197802199 701.3576904904937 781.3951648351649 689.8236245564278 781.3951648351649 666.1787893915927C781.3951648351649 640.5875806003838 792.4967032967033 629.8464816992848 810.5907692307693 629.8464816992848C828.6848351648351 629.8464816992848 838.7771428571428 639.7225256553288 838.7771428571428 661.637250930054L837.9841758241758 670.792415765219H794.1547252747253C794.2989010989011 683.6961520289552 798.5520879120879 690.2561520289552 811.0232967032968 690.2561520289552C821.5481318681318 690.2561520289552 836.2540659340659 689.0306575234607 836.2540659340659 689.0306575234607H836.181978021978ZM826.3059340659341 660.9163718091751C826.3059340659341 645.5616465344499 821.6202197802198 640.3713168641202 810.5907692307693 640.3713168641202C799.5613186813187 640.3713168641202 794.1547252747253 646.1383498311532 794.0105494505494 660.9163718091751H826.3059340659341ZM866.4589010989012 631.360327853131V635.9018663146695C866.4589010989012 635.9018663146695 876.9837362637362 629.8464816992848 886.5714285714287 629.8464816992848C905.4584615384616 629.8464816992848 910.0000000000001 640.0108773036804 910.0000000000001 663.3673608201641V699.7717564245596H897.5287912087913V663.5836245564278C897.5287912087913 647.7242838970872 895.5824175824176 641.0201080729113 883.9762637362638 641.0201080729113C875.1094505494506 641.0201080729113 866.603076923077 645.417470710274 866.603076923077 645.417470710274V699.7717564245597H853.9876923076924V631.2882399410432H866.4589010989013L866.4589010989012 631.360327853131ZM151.4189010989011 864.2042838970872H142.91252747252747V769.0482399410431H177.73098901098902C198.13186813186815 769.0482399410431 207.28703296703296 778.9242838970871 207.28703296703296 799.1809871937904C207.28703296703296 819.4376904904938 198.13186813186815 831.1159322487356 177.730989010989 831.1159322487356H151.41890109890107V864.2763718091751L151.4189010989011 864.2042838970872ZM177.73098901098902 823.5467014795047C192.50901098901102 823.5467014795047 198.5643956043956 814.6798882926915 198.5643956043956 799.1809871937904C198.5643956043956 783.6820860948894 192.50901098901102 776.617470710274 177.73098901098902 776.617470710274H151.4189010989011V823.6187893915926H177.73098901098902V823.5467014795047ZM231.3643956043956 765.2996685124717V864.2042838970872H223.29054945054946V765.2996685124717H231.3643956043956ZM302.22681318681316 856.923404776208 302.5151648351648 863.6275806003839C302.5151648351648 863.6275806003839 287.01626373626374 865.5739542267576 276.34725274725275 865.5739542267576C255.94637362637363 865.4297784025817 249.74681318681317 853.1027454355487 249.74681318681317 830.2508773036806C249.74681318681317 803.7946135674168 261.28087912087915 794.3510970839003 277.9331868131868 794.3510970839003C295.5947252747253 794.3510970839003 304.8940659340659 803.7946135674168 304.8940659340659 826.7906575234608L304.60571428571427 833.3506575234608H258.0369230769231C258.0369230769231 849.4983498311531 262.72263736263733 858.1488992817025 277.0681318681319 858.1488992817025C287.08835164835165 858.1488992817025 302.15472527472525 856.9234047762079 302.15472527472525 856.9234047762079L302.22681318681316 856.923404776208ZM296.74813186813185 826.5023058751092C296.74813186813185 808.0478003806037 290.8369230769231 801.4157124685157 278.0052747252747 801.4157124685157C265.17362637362635 801.4157124685157 258.1810989010989 808.2640641168674 258.1810989010989 826.5023058751092H296.82021978021976H296.74813186813185ZM377.847032967033 858.8697784025817 377.41450549450553 865.4297784025816C370.71032967032966 865.4297784025816 365.6641758241758 864.0601080729114 361.9156043956044 859.9510970839003C361.9156043956044 859.9510970839003 349.01186813186814 865.5739542267575 336.1802197802198 865.5739542267575C324.14153846153846 865.5739542267575 317.43736263736264 858.5814267542299 317.43736263736264 844.8847234575267C317.43736263736264 832.269338842142 323.70901098901095 826.2860421388453 337.54989010989016 824.9163718091751L360.83428571428567 822.6095586223619V816.1937344465377C360.83428571428567 805.8130751058784 356.14857142857136 801.7761520289553 347.42593406593403 801.7761520289553C337.54989010989016 801.7761520289553 321.54637362637357 803.8667014795047 321.54637362637357 803.8667014795047L321.1138461538461 797.3067014795048C321.1138461538461 797.3067014795048 336.1802197802198 794.4231849959883 347.71428571428567 794.4231849959883C362.6364835164834 794.4231849959883 368.9081318681318 801.7040641168675 368.9081318681318 816.1937344465377V852.886481699285C369.3406593406593 856.9954926882959 373.3054945054944 858.3651630179663 377.77494505494496 858.9418663146696L377.847032967033 858.8697784025817ZM337.2615384615384 858.58142675423C348.36307692307696 858.58142675423 360.8342857142858 853.823624556428 360.8342857142858 853.823624556428V829.0253827981861L338.487032967033 831.3321959849993C329.33186813186813 832.1251630179663 325.87164835164833 836.522525655329 325.87164835164833 844.740547633351C325.87164835164833 853.5352729080762 329.69230769230774 858.58142675423 337.2615384615384 858.58142675423ZM410.79120879120876 801.9203278531311C402.28483516483516 801.9203278531311 394.64351648351646 804.2271410399442 394.64351648351646 813.5264816992849C394.64351648351646 820.6631849959882 398.0316483516483 822.6816465344498 413.02593406593405 825.2047234575267C430.54329670329673 828.0882399410432 437.1032967032967 831.2601080729114 437.1032967032967 844.3801080729113C437.1032967032967 860.3836245564278 427.0830769230769 865.6460421388454 410.64703296703294 865.6460421388454C402.28483516483516 865.6460421388454 387.2184615384615 863.1950531278563 387.2184615384615 863.1950531278563L387.79516483516477 855.9141740069772C387.79516483516477 855.9141740069772 403.14989010989007 858.2209871937904 410.1424175824176 858.2209871937904C421.8927472527472 858.2209871937904 428.7410989010988 855.4816465344497 428.7410989010988 844.8126355454386C428.7410989010988 836.5946135674167 424.63208791208785 834.792415765219 409.27736263736256 832.4856025784057C393.5621978021977 830.0346135674167 386.28131868131857 827.1510970839004 386.28131868131857 813.8869212597244C386.28131868131857 798.9647234575267 398.6083516483516 794.567360820164 410.5028571428571 794.567360820164C420.73934065934066 794.567360820164 434.72439560439557 796.8741740069771 434.72439560439557 796.8741740069771L434.43604395604393 804.1550531278563C434.43604395604393 804.1550531278563 419.8021978021977 801.9924157652189 410.71912087912085 801.9924157652189L410.79120879120876 801.9203278531311ZM503.13582417582415 856.923404776208 503.4241758241758 863.6275806003839C503.4241758241758 863.6275806003839 487.9252747252747 865.5739542267576 477.2562637362637 865.5739542267576C456.85538461538454 865.4297784025817 450.65582417582414 853.1027454355487 450.65582417582414 830.2508773036806C450.65582417582414 803.7946135674168 462.18989010989014 794.3510970839003 478.8421978021978 794.3510970839003C496.5037362637363 794.3510970839003 505.8030769230769 803.7946135674168 505.8030769230769 826.7906575234608L505.51472527472527 833.3506575234608H458.9459340659341C458.9459340659341 849.4983498311531 463.6316483516483 858.1488992817025 477.9771428571429 858.1488992817025C487.9973626373627 858.1488992817025 503.06373626373625 856.9234047762079 503.06373626373625 856.9234047762079L503.13582417582415 856.923404776208ZM497.65714285714284 826.5023058751092C497.65714285714284 808.0478003806037 491.7459340659341 801.4157124685157 478.9142857142857 801.4157124685157C466.08263736263734 801.4157124685157 459.09010989010983 808.2640641168674 459.09010989010983 826.5023058751092H497.72923076923075H497.65714285714284ZM575.5841758241759 858.2930751058784C579.4048351648352 858.2930751058784 588.1995604395605 857.3559322487356 588.1995604395605 857.3559322487356L588.7762637362638 864.348459721263C588.7762637362638 864.348459721263 579.7652747252747 865.7181300509334 574.9353846153846 865.7181300509334C561.3828571428571 865.7181300509334 556.4808791208791 860.6719762047795 556.4808791208791 840.9198882926916V803.0016465344498H546.3164835164836V795.7207674135707H556.4808791208791V774.2385696113728H564.698901098901V795.7207674135707H587.5507692307692V803.0016465344498H564.698901098901V836.8108773036805C564.698901098901 853.9678003806036 565.7802197802198 858.2930751058784 575.6562637362637 858.2930751058784H575.5841758241759ZM654.8808791208792 829.0253827981861C654.8808791208792 854.9049432377466 649.1138461538462 865.5739542267576 626.261978021978 865.5739542267576C603.41010989011 865.5739542267576 597.4989010989012 854.9049432377466 597.4989010989012 829.0253827981861C597.4989010989012 804.8038443366477 604.9960439560441 794.3510970839004 626.261978021978 794.3510970839004C647.5279120879121 794.3510970839004 654.8808791208792 804.7317564245598 654.8808791208792 829.0253827981861ZM626.261978021978 858.2930751058784C643.9235164835166 858.2930751058784 646.5186813186814 849.9308773036806 646.5186813186814 828.9532948860981C646.5186813186814 807.9757124685157 641.8329670329671 801.5598882926915 626.261978021978 801.5598882926915C610.6909890109891 801.5598882926915 606.0052747252747 808.4082399410432 606.0052747252747 828.9532948860981C606.0052747252747 849.4983498311531 608.4562637362638 858.2930751058783 626.261978021978 858.2930751058783V858.2930751058784ZM723.9410989010989 864.2042838970872H715.8672527472528V859.1581300509332C715.8672527472528 859.1581300509332 705.3424175824176 865.5739542267575 694.7454945054944 865.5739542267575C675.7142857142857 865.5739542267575 671.8936263736264 857.0675806003837 671.8936263736264 831.476371809175V795.7207674135707H679.9674725274725V831.3321959849992C679.9674725274725 851.7330751058784 682.058021978022 858.1488992817025 695.7547252747253 858.1488992817025C706.5679120879121 858.1488992817025 715.8672527472528 852.3818663146695 715.8672527472528 852.3818663146695V795.6486795014827H723.9410989010989V864.1321959849992V864.2042838970872ZM787.7389010989011 796.1532948860981 787.3063736263736 803.1458223586257C787.3063736263736 803.1458223586257 776.4931868131868 801.7761520289553 771.3028571428572 801.7761520289553C754.8668131868131 801.7761520289553 750.109010989011 809.0570311498344 750.109010989011 828.7370311498344C750.109010989011 850.2192289520322 753.4250549450549 858.1488992817025 771.3028571428572 858.1488992817025C776.4931868131868 858.1488992817025 787.5947252747253 856.9234047762079 787.5947252747253 856.9234047762079L787.883076923077 863.9159322487354C787.883076923077 863.9159322487354 775.7002197802199 865.5739542267575 769.789010989011 865.5739542267575C747.5859340659341 865.5739542267575 741.6026373626374 855.6979102707135 741.6026373626374 828.7370311498344C741.6026373626374 803.6504377432409 749.5323076923078 794.3510970839003 769.9331868131869 794.3510970839003C775.8443956043957 794.3510970839003 787.7389010989012 796.1532948860981 787.7389010989012 796.1532948860981H787.7389010989011ZM803.8145054945055 765.2996685124717H811.8883516483517V799.6856025784058C811.8883516483517 799.6856025784058 823.4224175824176 794.3510970839003 834.0914285714287 794.3510970839003C852.8342857142857 794.3510970839003 856.9432967032968 803.1458223586257 856.9432967032968 828.1603278531311V864.2042838970872H848.7252747252747V828.5928553256585C848.7252747252747 808.480327853131 846.5626373626375 801.7761520289553 833.0101098901099 801.7761520289553C822.3410989010989 801.7761520289553 811.8883516483517 806.4618663146696 811.8883516483517 806.4618663146696V864.2763718091751H803.8145054945054V765.3717564245597L803.8145054945055 765.2996685124717ZM472.6426373626374 134.6025256553289C503.20791208791206 139.86494323774647 498.37802197802205 160.62626191906514 500.10813186813186 185.06406411686734C502.6312087912088 174.46714103994427 507.1006593406594 164.15856961137285 517.6975824175825 159.40076741357063C527.2852747252747 154.9313168641201 546.3885714285715 157.23813005093328 552.9485714285714 169.56516301796626C560.2294505494506 185.2803278531311 553.7415384615384 203.51856961137284 553.1648351648352 220.17087730368053C553.3810989010989 220.17087730368053 553.6694505494505 220.31505312785634 553.8857142857142 220.38714103994425C558.6435164835165 207.9159322487355 568.88 196.7423058751091 583.1534065934065 201.5001080729113C592.3085714285714 204.02318499598823 598.0035164835165 211.23197620477941 599.1569230769231 221.1080201608234C599.4452747252748 249.07813005093328 591.8039560439561 276.6157124685157 588.2716483516483 304.36955862236186C583.2254945054945 362.5445036773069 599.1569230769231 407.0227454355487 549.4162637362637 473.127360820164C546.7490109890109 476.65966851247174 536.800879120879 475.7225256553288 536.800879120879 475.7225256553288C536.800879120879 475.7225256553288 553.5252747252746 445.95021796302115 561.0945054945055 431.0280201608233C578.0351648351648 398.8047234575266 571.9076923076923 360.59813005093326 572.989010989011 325.49131686412C572.268131868132 290.1682399410431 586.3252747252748 255.49395422675738 584.6672527472529 220.3871410399442C583.9463736263738 214.04340477620792 573.4936263736264 212.24120697401014 570.7542857142857 218.080327853131C569.0241758241759 221.32428389708707 567.2940659340659 224.640327853131 566.2848351648352 228.1005476333508C556.9134065934065 256.3590091718123 551.3626373626374 286.4196685124717 540.4052747252747 313.8851630179662C538.458901098901 316.0478003806036 535.9358241758241 316.4082399410431 533.2685714285714 315.2548333476365C526.4202197802197 312.5875806003838 529.8804395604395 304.1532948860981 529.9525274725274 298.6025256553288C534.0615384615384 260.9005476333508 539.7564835164834 223.27065752346073 542.495824175824 185.35241576521895C543.0004395604394 175.18802016082333 538.8193406593406 171.43944873225192 528.654945054945 171.15109708390025C519.2835164835163 170.7185696113728 514.8140659340658 180.66670147950467 513.8769230769229 188.596371809175C511.4259340659339 206.618349831153 509.0470329670328 224.71241576521896 506.5960439560439 242.80648169928486C504.2892307692307 260.17966851247166 501.9103296703296 277.48076741357056 499.5314285714285 294.8539542267574C498.9547252747252 298.96296521576835 496.07120879120873 301.5581300509332 492.46681318681317 301.4860421388453C486.91604395604395 301.6302179630211 485.0417582417582 295.2864816992849 485.6905494505494 290.31241576521893C485.6905494505494 249.51065752346068 485.6905494505494 208.78098719379037 485.6184615384615 167.97922895203214C487.56483516483513 155.21966851247169 476.3191208791209 143.9739542267574 463.77582417582414 150.31769049049367C457.0716483516484 153.63373444653763 456.06241758241754 161.2029652157684 456.20659340659336 167.8350531278563C456.20659340659336 200.99549268829588 456.13450549450556 234.22802016082335 456.06241758241754 267.38845972126296C454.62065934065924 275.39021796302114 460.09934065934067 300.33263554543873 449.93494505494505 301.4139542267574C441.1402197802198 302.4952729080761 441.42857142857144 290.52867950148266 439.6263736263736 284.545382798186C432.0571428571428 249.72692125972446 427.0830769230769 214.1154926882959 418.0 179.65747071027388C412.7375824175824 164.51900917181234 390.3182417582418 170.28604213884532 390.967032967033 184.9198882926915C395.5806593406593 227.09131686412005 403.5824175824175 268.90230587510905 409.06109890109883 311.0016465344497C409.06109890109883 319.4359322487354 419.36967032967027 351.9475806003838 401.1314285714285 343.58538279818595C389.30901098901097 333.3488992817025 374.3147252747252 299.46758060038377 359.03208791208783 299.9721959849992C346.70505494505494 299.39549268829586 340.2171428571428 313.38054763335083 346.2004395604396 323.4007674135706C368.47560439560436 361.5352729080761 385.7767032967033 403.3462619190651 416.77450549450543 435.4974707102739C426.5784615384615 448.0407674135706 440.63560439560433 460.72823994104317 441.2123076923076 477.52472345752665L428.1643956043955 478.5339542267574C423.2624175824176 457.2680201608233 403.94285714285706 444.50845972126297 391.76 427.7119762047794C368.47560439560436 397.29087730368053 352.11164835164834 362.3282399410432 333.512967032967 328.95153664433985C328.97142857142853 320.58933884214207 328.7551648351648 311.650437743241 332.6479120879121 302.85571246851566C339.5683516483516 287.21263554543873 357.9507692307692 281.15725093005415 373.08923076923077 289.73571246851566C382.6048351648352 295.14230587510906 387.723076923077 304.29747071027396 394.7156043956044 312.443404776208C390.53450549450554 271.92999818280134 383.10945054945057 231.77703114983436 377.2703296703296 191.4078003806036C370.49406593406593 158.7519762047794 417.8558241758242 142.0275806003838 430.4712087912088 173.45791027071346C436.3103296703297 188.59637180917503 437.1032967032967 205.32076741357062 441.57274725274726 220.8196685124717C441.789010989011 220.8196685124717 442.0773626373626 220.7475806003838 442.36571428571426 220.6754926882959C442.36571428571426 201.86054763335085 442.29362637362635 183.04560257840578 442.5098901098901 164.23065752346074C441.6448351648352 147.4341740069772 456.13450549450556 133.52120697401017 472.85890109890113 134.3141740069772" fill="#000000"/>
</svg>
