<?xml version="1.0" encoding="UTF-8"?>
<!-- source: turn-off.svg -->
<svg xmlns="http://www.w3.org/2000/svg" viewBox="0 0 1000 1000" width="1000" height="1000">
  <path d="M119.33453737149209 645.4765212559045C96.09474854126147 645.4765212559045 90.0 631.521255904418 90.0 607.1992220061129C90.0 582.8771881078078 96.72131147540983 568.6940816893582 118.99277577104752 568.6940816893582C130.327868852459 568.6940816893582 143.88441233676022 571.4851347596555 143.88441233676022 571.4851347596555L143.42873020283412 579.6874131703252C143.42873020283412 579.6874131703252 130.2139483189775 577.7507641011392 120.3598221728258 577.7507641011392C104.24006668519033 577.7507641011392 100.42372881355934 586.0669630452904 100.42372881355934 607.1992220061129C100.42372881355934 628.3314809669354 103.89830508474577 636.5337593776051 120.13198110586275 636.5337593776051C125.2014448457905 636.5337593776051 131.6949152542373 635.6793553764935 133.7454848569047 635.2236732425674V614.6610169491526H122.92303417616006V605.6612948041123H143.82745207001946V642.9133092525703C142.17560433453738 643.2550708530148 127.82161711586554 645.5334815226453 119.27757710475133 645.5334815226453L119.33453737149209 645.4765212559045ZM199.0219505418172 635.7363156432343 199.24979160878024 643.3120311197555C199.24979160878024 643.3120311197555 186.88941372603503 645.4765212559043 177.71881078077246 645.4765212559043C161.59905529313698 645.4765212559043 155.73214781883857 636.3628785773826 155.73214781883857 617.6799110864129C155.73214781883857 597.4590163934427 164.50402889691583 588.9719366490692 178.80105584884691 588.9719366490692C193.098082800778 588.9719366490692 201.0725201444846 596.7754931925535 201.0725201444846 614.091414281745L200.44595721033625 621.3253681578217H165.81411503195335C165.92803556543487 631.521255904418 169.28869130313979 636.7046401778272 179.1428174492915 636.7046401778272C187.45901639344265 636.7046401778272 199.07891080855796 635.7363156432343 199.07891080855796 635.7363156432343H199.0219505418172ZM191.21839399833289 613.5787718810781C191.21839399833289 601.4462350652959 187.5159766601834 597.3450958599611 178.80105584884691 597.3450958599611C170.08613503751042 597.3450958599611 165.81411503195335 601.901917199222 165.7001944984718 613.5787718810781H191.21839399833289ZM242.08391219783275 588.9719366490692V598.9399833287025C232.001944984718 600.9905529313698 223.05918310641846 605.5473742706308 223.05918310641846 605.5473742706308V644.2803556543485H213.09113642678523V590.1681022506252H222.94526257293694V597.117254792998C222.94526257293694 597.117254792998 232.22978605168103 590.8516254515143 242.08391219783275 589.0288969158099V588.9719366490692ZM265.15282022784106 612.3826062795222 280.6460127813282 610.9585996110031V606.6296193387052C280.6460127813282 599.9083078632952 277.7410391775494 597.6298971936649 271.87413170325095 597.6298971936649C264.41233676021125 597.6298971936649 251.42539594331762 598.8260627952209 251.42539594331762 598.8260627952209L251.08363434287307 591.5921089191443C251.08363434287307 591.5921089191443 262.8744095582107 588.9719366490692 272.5006946373993 588.9719366490692C285.25979438732986 588.9719366490692 290.55709919422065 594.6110030564046 290.55709919422065 606.6296193387052V632.8313420394554C290.7849402611837 636.0780772436788 292.7215893303696 637.2742428452348 296.0822450680745 637.67296471242L295.74048346762993 645.4765212559043C289.5887746596277 645.4765212559043 285.6585162545152 644.5081967213114 282.126979716588 641.261461517088C282.126979716588 641.261461517088 272.8994165045847 645.4765212559043 263.61489302584056 645.4765212559043C253.3620450125035 645.4765212559043 247.9508196721312 639.609613781606 247.9508196721312 628.5023617671575C247.9508196721312 617.395109752709 253.8177271464296 613.350930814115 265.15282022784106 612.3826062795221V612.3826062795222ZM263.61489302584056 577.8646846346207H254.1025284801334V566.8143928869131H263.61489302584056V577.8646846346207ZM265.4376215615449 637.1603223117534C272.5006946373993 637.1603223117534 280.5890525145875 634.369269241456 280.5890525145875 634.369269241456V618.2495137538206L266.29202556265636 619.5595998888581C260.5390386218395 620.1292025562657 257.9758266185052 622.920255626563 257.9758266185052 628.3314809669354C257.9758266185052 633.7427063073077 260.36815782161716 637.2172825784942 265.4376215615449 637.2172825784942V637.1603223117534ZM276.26007224228954 566.8143928869131H285.7724367879967V577.8646846346207H276.26007224228954V566.8143928869131ZM325.30286190608507 636.5907196443457C328.32175604334543 636.5907196443457 334.5873853848292 636.0780772436788 334.5873853848292 636.0780772436788L335.1569880522368 644.1664351208669C335.1569880522368 644.1664351208669 327.92303417616006 645.4765212559045 324.1066963045291 645.4765212559045C312.42984162267305 645.4765212559045 308.613503751042 641.0336204501251 308.613503751042 625.4834676298972V598.7691025284802H301.2656293414838V590.225062517366H308.613503751042V574.1053070297305H318.4676298971937V590.225062517366H334.47346485134767V598.7691025284802H318.4676298971937V623.5468185607112C318.4676298971937 633.5148652403445 318.9802722978606 636.6476799110865 325.3028619060851 636.6476799110865L325.30286190608507 636.5907196443457ZM385.1681022506252 635.7363156432343 385.39594331758826 643.3120311197555C385.39594331758826 643.3120311197555 373.0355654348431 645.4765212559043 363.86496248958053 645.4765212559043C347.745207001945 645.4765212559043 341.8782995276466 636.3628785773826 341.8782995276466 617.6799110864129C341.8782995276466 597.4590163934427 350.6501806057239 588.9719366490692 364.9472075576549 588.9719366490692C379.244234509586 588.9719366490692 387.2186718532927 596.7754931925535 387.2186718532927 614.091414281745L386.59210891914427 621.3253681578217H351.9602667407614C352.07418727424295 631.521255904418 355.4348430119478 636.7046401778272 365.2889691580996 636.7046401778272C373.6051681022508 636.7046401778272 385.22506251736604 635.7363156432343 385.22506251736604 635.7363156432343H385.1681022506252ZM377.3645457071409 613.5787718810781C377.3645457071409 601.4462350652959 373.6621283689915 597.3450958599611 364.9472075576549 597.3450958599611C356.23228674631844 597.3450958599611 351.9602667407613 601.901917199222 351.8463462072799 613.5787718810781H377.3645457071409ZM467.70352875798835 637.6729647124201 467.3617671575438 645.4765212559045C461.21005834954155 645.4765212559045 457.2797999444291 644.5081967213116 453.7482634065019 641.2614615170882C453.7482634065019 641.2614615170882 444.52070019449854 645.4765212559045 435.23617671575437 645.4765212559045C424.98332870241734 645.4765212559045 419.572103362045 639.6096137816061 419.572103362045 628.5023617671576C419.572103362045 617.3951097527091 425.4390108363435 613.3509308141151 436.77410391775504 612.3826062795222L452.26729647124216 610.9585996110031V606.6296193387052C452.26729647124216 599.9083078632952 449.36232286746326 597.6298971936649 443.4954153931649 597.6298971936649C436.0336204501251 597.6298971936649 423.0466796332315 598.8260627952209 423.0466796332315 598.8260627952209L422.70491803278696 591.5921089191443C422.70491803278696 591.5921089191443 434.49569324812455 588.9719366490692 444.1219783273133 588.9719366490692C456.88107807724384 588.9719366490692 462.1783828841345 594.6110030564046 462.1783828841345 606.6296193387052V632.8313420394554C462.4062239510977 636.0780772436788 464.3428730202835 637.2742428452348 467.70352875798835 637.67296471242V637.6729647124201ZM437.1158655181996 637.1603223117534C444.178938594054 637.1603223117534 452.26729647124216 634.369269241456 452.26729647124216 634.369269241456V618.2495137538206L437.97026951931105 619.5595998888581C432.2172825784942 620.1292025562657 429.65407057515984 622.920255626563 429.65407057515984 628.3314809669354C429.65407057515984 633.7427063073077 432.04640177827184 637.2172825784942 437.1158655181996 637.2172825784942V637.1603223117534ZM522.4993053626008 616.3698249513754C522.4993053626008 638.3564879133094 516.1197554876355 645.4765212559045 496.5254237288136 645.4765212559045C490.4876354542929 645.4765212559045 477.5576549041401 644.1664351208669 477.5576549041401 644.1664351208669V567.0991942206169H487.4117810502919V592.5034731869964C487.4117810502919 592.5034731869964 495.32925812725773 588.9149763823284 502.10752986940827 588.9149763823284C516.8032786885246 588.9149763823284 522.44234509586 596.4906918588497 522.44234509586 616.3128646846346L522.4993053626008 616.3698249513754ZM496.5254237288136 636.4767991108642C509.9680466796333 636.4767991108642 512.4173381494861 630.552931369825 512.4173381494861 616.3698249513754C512.4173381494861 603.2689636010003 509.3984440122257 597.857738260628 501.0822450680746 597.857738260628C494.4748541261463 597.857738260628 487.4687413170327 600.5348707974438 487.4687413170327 600.5348707974438V636.0211169769382C487.4687413170327 636.0211169769382 493.9622117254794 636.4767991108642 496.58238399555444 636.4767991108642H496.5254237288136ZM552.6882467352043 597.9716587941095C546.080855793276 597.9716587941095 542.0936371214227 599.6235065295916 542.0936371214227 605.0347318699639C542.0936371214227 609.3637121422618 544.5998888580162 610.5598777438177 555.5932203389832 612.4965268130036C568.8080022228397 614.7749374826342 573.6496248958045 617.6799110864129 573.6496248958045 628.3884412336761C573.6496248958045 641.0336204501251 565.6182272853572 645.4765212559045 552.4604056682413 645.4765212559045C545.3403723256462 645.4765212559045 532.9799944429009 643.198110586274 532.9799944429009 643.198110586274L533.4356765768271 634.7679911086414C533.4356765768271 634.7679911086414 546.080855793276 636.4767991108641 551.6060016671298 636.4767991108641C559.922200611281 636.4767991108641 563.8524590163936 634.7679911086414 563.8524590163936 628.6732425673798C563.8524590163936 623.8885801611558 561.4601278132816 622.6354542928591 550.2389552653516 620.8696860238954C538.220338983051 618.9330369547096 532.2964712420118 616.426785218116 532.2964712420118 605.2625729369269C532.2964712420118 593.2439566546262 541.808835787719 589.0288969158099 552.1186440677967 589.0288969158099C560.1500416782441 589.0288969158099 572.111697693804 591.1933870519588 572.111697693804 591.1933870519588L571.883856626841 599.6235065295916C571.883856626841 599.6235065295916 559.466518477355 597.9146985273687 552.7452070019451 597.9146985273687L552.6882467352043 597.9716587941095ZM621.268407891081 590.8516254515143 620.9266462906364 598.8830230619617C620.9266462906364 598.8830230619617 612.2686857460407 597.9146985273687 608.1675465407059 597.9146985273687C596.3767713253683 597.9146985273687 593.357877188108 602.870241733815 593.357877188108 616.4267852181162C593.357877188108 631.3503751041956 595.75020839122 636.5337593776048 608.2814670741875 636.5337593776048C612.3826062795223 636.5337593776048 621.040566824118 635.6793553764935 621.040566824118 635.6793553764935L621.3823284245625 643.7107529869409C621.3823284245625 643.7107529869409 610.9016393442624 645.5334815226452 605.6043345373716 645.5334815226452C588.7440955821064 645.5334815226452 583.3328702417341 637.445123645457 583.3328702417341 616.426785218116C583.3328702417341 596.9463739927758 589.7124201166994 589.0288969158098 605.8321756043348 589.0288969158098C611.2434009447071 589.0288969158098 621.3253681578218 590.8516254515141 621.3253681578218 590.8516254515141L621.268407891081 590.8516254515143ZM643.0272297860517 567.1561544873575V593.1300361211447C643.0272297860517 593.1300361211447 651.3434287302028 589.0288969158099 658.8052236732426 589.0288969158099C673.7288135593221 589.0288969158099 677.31731036399 597.0602945262573 677.31731036399 615.515420950264V644.2803556543485H667.3492636843569V615.6863017504863C667.3492636843569 603.1550430675188 665.8113364823563 597.857738260628 656.7546540705753 597.857738260628C649.9194220616838 597.857738260628 643.0272297860517 600.6487913309253 643.0272297860517 600.6487913309253V644.2803556543485H633.0591831064186V567.1561544873575H643.0272297860517ZM736.4420672409004 637.6729647124201 736.1003056404558 645.4765212559045C729.9485968324536 645.4765212559045 726.0183384273411 644.5081967213116 722.4868018894139 641.2614615170882C722.4868018894139 641.2614615170882 713.2592386774105 645.4765212559045 703.9747151986664 645.4765212559045C693.7218671853294 645.4765212559045 688.310641844957 639.6096137816061 688.310641844957 628.5023617671576C688.310641844957 617.3951097527091 694.1775493192555 613.3509308141151 705.5126424006669 612.3826062795222L721.005834954154 610.9585996110031V606.6296193387052C721.005834954154 599.9083078632952 718.1008613503751 597.6298971936649 712.2339538760767 597.6298971936649C704.772158933037 597.6298971936649 691.7852181161434 598.8260627952209 691.7852181161434 598.8260627952209L691.4434565156988 591.5921089191443C691.4434565156988 591.5921089191443 703.2342317310364 588.9719366490692 712.8605168102251 588.9719366490692C725.6196165601556 588.9719366490692 730.9169213670465 594.6110030564046 730.9169213670465 606.6296193387052V632.8313420394554C731.1447624340095 636.0780772436788 733.0814115031953 637.2742428452348 736.4420672409003 637.67296471242L736.4420672409004 637.6729647124201ZM705.7974437343707 637.1603223117534C712.8605168102251 637.1603223117534 720.9488746874132 634.369269241456 720.9488746874132 634.369269241456V618.2495137538206L706.6518477354821 619.5595998888581C700.8988607946652 620.1292025562657 698.335648791331 622.920255626563 698.335648791331 628.3314809669354C698.335648791331 633.7427063073077 700.727979994443 637.2172825784942 705.7974437343707 637.2172825784942V637.1603223117534ZM756.8908030008337 644.2803556543485H746.9227563212004V567.1561544873575H756.8908030008337V644.2803556543485ZM791.8644067796611 636.5907196443457C794.8833009169215 636.5907196443457 801.1489302584051 636.0780772436788 801.1489302584051 636.0780772436788L801.7185329258127 644.1664351208669C801.7185329258127 644.1664351208669 794.4845790497361 645.4765212559045 790.6682411781051 645.4765212559045C778.991386496249 645.4765212559045 775.175048624618 641.0336204501251 775.175048624618 625.4834676298972V598.7691025284802H767.8271742150597V590.225062517366H775.175048624618V574.1053070297305H785.0291747707697V590.225062517366H801.0350097249237V598.7691025284802H785.0291747707697V623.5468185607112C785.0291747707697 633.5148652403445 785.5418171714366 636.6476799110865 791.8644067796611 636.6476799110865V636.5907196443457ZM851.6726868574606 635.7363156432343 851.9005279244236 643.3120311197555C851.9005279244236 643.3120311197555 839.5401500416784 645.4765212559043 830.3695470964158 645.4765212559043C814.2497916087802 645.4765212559043 808.382884134482 636.3628785773826 808.382884134482 617.6799110864129C808.382884134482 597.4590163934427 817.1547652125593 588.9719366490692 831.4517921644903 588.9719366490692C845.7488191164213 588.9719366490692 853.7232564601279 596.7754931925535 853.7232564601279 614.091414281745L853.0966935259795 621.3253681578217H818.4648513475964C818.5787718810781 631.521255904418 821.939427618783 636.7046401778272 831.7935537649347 636.7046401778272C840.1097527090859 636.7046401778272 851.7296471242012 635.7363156432343 851.7296471242012 635.7363156432343H851.6726868574606ZM843.926090580717 613.5787718810781C843.926090580717 601.4462350652959 840.2236732425674 597.3450958599611 831.508752431231 597.3450958599611C822.7938316198945 597.3450958599611 818.5218116143374 601.901917199222 818.4078910808557 613.5787718810781H843.9260905807168H843.926090580717ZM875.5959988885803 590.1681022506252V593.7565990552931C875.5959988885803 593.7565990552931 883.9121978327315 588.9719366490692 891.4879133092527 588.9719366490692C906.4115031953321 588.9719366490692 910.0000000000001 597.0033342595165 910.0000000000001 615.4584606835232V644.2233953876076H900.1458738538485V615.6293414837455C900.1458738538485 603.098082800778 898.6079466518478 597.8007779938872 889.4373437065854 597.8007779938872C882.4312308974718 597.8007779938872 875.7099194220618 601.2753542650737 875.7099194220618 601.2753542650737V644.2233953876078H865.7418727424287V590.1111419838844H875.5959988885803V590.1681022506252ZM202.0978049458183 698.9622117254794V705.0000000000001H178.5162545151431V774.1497638232843H171.79494303973325V705.0000000000001H147.98555154209504V698.9622117254794H202.0978049458183ZM241.9130313976105 774.1497638232843H235.53348152264522V770.162545151431C235.53348152264522 770.162545151431 227.21728257849406 775.2320088913586 218.84412336760215 775.2320088913586C203.80661294804116 775.2320088913586 200.7877188107808 768.5106974159489 200.7877188107808 748.2898027229785V720.0375104195609H207.16726868574608V748.1758821894971C207.16726868574608 764.2956376771326 208.81911642122813 769.3651014170603 219.6415671019728 769.3651014170603C228.185607113087 769.3651014170603 235.53348152264522 764.8082800777995 235.53348152264522 764.8082800777995V719.9805501528202H241.9130313976105V774.0928035565435V774.1497638232843ZM264.52625729369277 720.0375104195609V727.8410669630453C264.52625729369277 727.8410669630453 273.92470130591835 721.0058349541539 284.974993053626 718.9552653514866V725.4487357599334C274.60822450680746 727.6132258960822 264.52625729369277 733.5370936371214 264.52625729369277 733.5370936371214V774.0928035565435H258.1467074187275V719.9805501528203H264.52625729369277V720.0375104195609ZM294.8291191997778 720.0375104195609H301.208669074743V724.0247290914143C301.208669074743 724.0247290914143 310.3223117532648 718.9552653514866 318.86635176437903 718.9552653514866C333.676021116977 718.9552653514866 336.9227563212004 725.9044178938594 336.9227563212004 745.6696304529037V774.1497638232843H330.4292859127536V746.0113920533481C330.4292859127536 730.1194776326757 328.72047791053075 724.822172825785 317.89802722978607 724.822172825785C309.4679077521534 724.822172825785 301.208669074743 729.3789941650459 301.208669074743 729.3789941650459V774.2067240900251H294.8291191997778V720.0944706863017V720.0375104195609ZM419.4012225618228 746.3531536537928C419.4012225618228 766.801889413726 414.84440122256194 775.2320088913589 396.7879966657406 775.2320088913589C378.73159210891924 775.2320088913589 374.06085023617675 766.801889413726 374.06085023617675 746.3531536537928C374.06085023617675 727.2145040288971 379.98471797721595 718.9552653514866 396.7879966657406 718.9552653514866C413.5912753542651 718.9552653514866 419.4012225618228 727.1575437621563 419.4012225618228 746.3531536537928ZM396.7879966657406 769.4790219505419C410.74326201722715 769.4790219505419 412.7938316198945 762.8716310086136 412.7938316198945 746.296193387052C412.7938316198945 729.7207557654904 409.0914142817451 724.6512920255627 396.7879966657406 724.6512920255627C384.4845790497361 724.6512920255627 380.7821617115866 730.062517365935 380.7821617115866 746.296193387052C380.7821617115866 762.5298694081689 382.7188107807725 769.4790219505419 396.7879966657406 769.4790219505419ZM435.5209780494582 774.1497638232843V725.7904973603779H428.51486524034465V720.0375104195609H435.5209780494582V714.5123645457072C435.5209780494582 698.9052514587386 439.39427618783 694.9180327868853 449.81800500138934 694.9180327868853C453.52042233953887 694.9180327868853 460.2986940816894 695.4876354542928 460.2986940816894 695.4876354542928V701.0127813281467C460.2986940816894 701.0127813281467 453.9191442067241 700.7849402611837 450.7863295359823 700.7849402611837C444.178938594054 700.7849402611837 442.014448457905 703.4620727979993 442.014448457905 714.6262850791886V720.0375104195609H458.3620450125036V725.7904973603779H442.014448457905V774.1497638232843H435.5209780494582ZM470.60850236176725 774.1497638232843V725.7904973603779H463.60238955265356V720.0375104195609H470.60850236176725V714.5123645457072C470.60850236176725 698.9052514587386 474.4818005001391 694.9180327868853 484.90552931369837 694.9180327868853C488.6079466518479 694.9180327868853 495.38621839399843 695.4876354542928 495.38621839399843 695.4876354542928V701.0127813281467C495.38621839399843 701.0127813281467 489.00666851903316 700.7849402611837 485.87385384829133 700.7849402611837C479.266462906363 700.7849402611837 477.10197277021405 703.4620727979993 477.10197277021405 714.6262850791886V720.0375104195609H493.4495693248126V725.7904973603779H477.10197277021405V774.1497638232843H470.60850236176725ZM561.2892470130593 774.1497638232843V770.162545151431C561.2892470130593 770.162545151431 552.7452070019451 775.2320088913586 543.9733259238678 775.2320088913586C535.2014448457905 775.2320088913586 524.9485968324535 772.2131147540983 524.9485968324535 747.720200055571C524.9485968324535 728.8093914976382 530.7015837732705 718.9552653514866 547.6757432620172 718.9552653514866C552.4604056682413 718.9552653514866 559.2386774103918 720.0375104195609 561.2892470130593 720.3792720200056V696.0572381217005H567.782717421506V774.2067240900251H561.2892470130593V774.1497638232843ZM544.5998888580162 769.3651014170605C552.8021672686858 769.3651014170605 561.2892470130593 764.6943595443181 561.2892470130593 764.6943595443181V725.9613781606004C559.1247568769104 725.6196165601557 552.1756043345375 724.6512920255627 547.8466240622396 724.6512920255627C534.9736037788275 724.6512920255627 531.6129480411226 732.8535704362323 531.6129480411226 747.720200055571C531.6129480411226 766.8588496804668 538.3342595165326 769.3651014170605 544.5998888580162 769.3651014170605ZM622.9772158933038 768.3967768824675 623.2050569602669 773.6940816893582C623.2050569602669 773.6940816893582 610.9585996110031 775.2320088913589 602.5284801333705 775.2320088913589C586.4087246457351 775.1180883578772 581.5101417060297 765.377882745207 581.5101417060297 747.3214781883858C581.5101417060297 726.4170602945263 590.6237843845514 718.9552653514866 603.7816060016672 718.9552653514866C617.7368713531538 718.9552653514866 625.084745762712 726.4170602945263 625.084745762712 744.5873853848291L624.8569046957489 749.7707696582384H588.0605723812172C588.0605723812172 762.5298694081689 591.7629897193667 769.3651014170603 603.0980828007781 769.3651014170603C611.015559877744 769.3651014170603 622.9202556265631 768.3967768824673 622.9202556265631 768.3967768824673L622.9772158933038 768.3967768824675ZM618.6482356210059 744.4165045846069C618.6482356210059 729.834676298972 613.9774937482636 724.5943317588219 603.838566268408 724.5943317588219C593.6996387885525 724.5943317588219 588.1744929146987 730.0055570991942 588.1744929146987 744.4165045846069H618.7051958877466H618.6482356210059ZM653.0522367324257 768.5106974159489H657.3812170047237L671.4504028896918 720.0375104195609H678.1717143651016L662.3937204779107 774.1497638232843H648.2106140594611L632.4326201722703 720.0375104195609H639.5526535148655L653.1091969991667 768.5106974159489H653.0522367324257ZM689.2220061128093 698.3926090580717H695.6015559877745V706.4809669352599H689.2220061128093V698.3926090580717ZM695.6015559877745 720.0375104195609V774.1497638232843H689.2220061128093V720.0375104195609H695.6015559877745ZM746.0113920533482 720.3792720200056 745.6696304529037 725.9044178938594C745.6696304529037 725.9044178938594 737.1255904417894 724.822172825785 733.0244512364546 724.822172825785C720.037510419561 724.822172825785 716.2781328146708 730.5751597666019 716.2781328146708 746.1253125868298C716.2781328146708 763.0994720755766 718.8983050847459 769.3651014170603 733.0244512364546 769.3651014170603C737.1255904417894 769.3651014170603 745.8974715198667 768.3967768824673 745.8974715198667 768.3967768824673L746.1253125868299 773.9219227563212C746.1253125868299 773.9219227563212 736.4990275076411 775.2320088913586 731.8282856348987 775.2320088913586C714.2845234787442 775.2320088913586 709.5568213392611 767.4284523478743 709.5568213392611 746.1253125868298C709.5568213392611 726.3031397610448 715.8224506807447 718.9552653514866 731.9422061683803 718.9552653514866C736.6129480411226 718.9552653514866 746.0113920533483 720.3792720200056 746.0113920533483 720.3792720200056H746.0113920533482ZM796.9908307863296 768.3967768824675 797.2186718532927 773.6940816893582C797.2186718532927 773.6940816893582 784.972214504029 775.2320088913589 776.5420950263964 775.2320088913589C760.422339538761 775.1180883578772 755.5237565990554 765.377882745207 755.5237565990554 747.3214781883858C755.5237565990554 726.4170602945263 764.6373992775773 718.9552653514866 777.7952208946931 718.9552653514866C791.7504862461797 718.9552653514866 799.0983606557378 726.4170602945263 799.0983606557378 744.5873853848291L798.8705195887748 749.7707696582384H762.074187274243C762.074187274243 762.5298694081689 765.7766046123925 769.3651014170603 777.111697693804 769.3651014170603C785.0291747707698 769.3651014170603 796.9338705195889 768.3967768824673 796.9338705195889 768.3967768824673L796.9908307863296 768.3967768824675ZM792.6618505140318 744.4165045846069C792.6618505140318 729.834676298972 787.9911086412893 724.5943317588219 777.8521811614338 724.5943317588219C767.7132536815783 724.5943317588219 762.1881078077245 730.0055570991942 762.1881078077245 744.4165045846069H792.7188107807725H792.6618505140318ZM828.8316198944152 724.9360933592665C822.1103084190053 724.9360933592665 816.0725201444845 726.7588218949709 816.0725201444845 734.1066963045291C816.0725201444845 739.7457627118645 818.7496526813004 741.3406501806057 830.5973881633788 743.3342595165325C844.4387329813839 745.6126701861629 849.6221172547931 748.1189219227563 849.6221172547931 758.4856904695748C849.6221172547931 771.130869686024 841.7046401778274 775.2889691580995 828.7176993609338 775.2889691580995C822.1103084190055 775.2889691580995 810.2056126701863 773.3523200889135 810.2056126701863 773.3523200889135L810.6612948041125 767.5993331480968C810.6612948041125 767.5993331480968 822.7938316198946 769.4220616838011 828.3189774937484 769.4220616838011C837.6035009724925 769.4220616838011 843.0147263128649 767.2575715476521 843.0147263128649 758.8274520700195C843.0147263128649 752.3339816615726 839.7679911086416 750.9099749930535 827.6354542928594 749.0872464573492C815.2181161433734 747.1505973881633 809.4651292025566 744.8721867185329 809.4651292025566 734.3914976382329C809.4651292025566 722.6007224228953 819.2053348152268 719.1261461517088 828.6037788274525 719.1261461517088C836.6921367046406 719.1261461517088 847.7424284523483 720.9488746874131 847.7424284523483 720.9488746874131L847.5145873853854 726.7018616282301C847.5145873853854 726.7018616282301 835.9516532370109 724.9930536260072 828.774659627675 724.9930536260072L828.8316198944152 724.9360933592665ZM347.0616838010559 348.7135315365379C347.0616838010559 348.7135315365379 347.1186440677966 348.7135315365379 347.1756043345374 348.7135315365379C409.09141428174496 333.22033898305085 471.5198666296194 317.0436232286746 533.6065573770493 300.468185607113C537.024173381495 299.55682133926086 540.4987496526813 298.6454570714087 543.9163656571271 297.7340928035565C575.0736315643236 289.3609335926646 606.1169769380384 280.9308141150319 636.9324812447903 272.3867741039177C636.9324812447903 272.3867741039177 636.9324812447903 272.3867741039177 636.9894415115311 272.3867741039177C654.4192831342041 267.545151430953 671.8491247568771 262.7035287579883 689.1080855793277 257.8619060850236L687.1714365101419 253.07724367879962V252.9633231453181C687.1714365101419 252.9633231453181 685.1778271742153 248.06474020561262 685.1778271742153 248.06474020561262C649.1789385940541 256.95054181717137 612.8952486801892 266.12114476243397 576.4976382328426 275.4056682411781C573.0800222283971 276.2600722422895 569.6624062239513 277.1714365101417 566.2447902195056 278.0258405112531C558.7260350097251 279.96248958043896 551.2642400666855 281.89913864962483 543.7454848569049 283.83578771881076C543.7454848569049 283.83578771881076 543.5746040566826 283.83578771881076 543.5176437899419 283.8927479855515C481.31703250903047 300.01250347318694 419.00250069463755 316.70186162823 357.5993331480968 333.6760211169769C357.31453181439304 333.7329813837177 357.0297304806892 333.8469019171992 356.74492914698544 333.90386218393996C353.6121144762435 334.75826618505135 350.4792998055017 335.6126701861628 347.40344540150056 336.4670741872742C347.34648513475986 336.4670741872742 347.28952486801904 336.4670741872742 347.2325646012782 336.4670741872742C332.02417338149496 340.6821339260905 316.8157821617117 344.89719366490687 301.72131147540995 349.169213670464C302.6896360100029 351.6185051403167 304.68324534592955 356.5170880800222 305.65156988052246 358.9663795498749C319.43595443178674 355.5487635454292 333.2772992497917 352.1311475409836 347.1186440677967 348.65657126979715L347.0616838010559 348.7135315365379ZM358.3398166157267 235.02083912197827H532.5812725757155L533.3787163100862 280.58905251458737C536.7963323145319 279.67768824673516 540.2139483189776 278.82328424562377 543.688524590164 277.91191997777156L542.8910808557933 229.837454848569L537.7076965823841 224.71103084190048H353.27035287579895L348.0869686023897 229.837454848569L347.2325646012782 330.54320644623505C350.6501806057239 329.5748819116421 354.1247568769104 328.66351764378993 357.5993331480968 327.69519310919696L358.3398166157267 235.02083912197827ZM523.0689080300084 375.48485690469573V368.82050569602666C470.9502639622118 368.02306196165597 418.2620172270075 368.02306196165597 366.1433731592109 368.82050569602666V375.48485690469573C377.4784662406224 375.71269797165877 393.8830230619617 375.8266185051403 405.38899694359554 375.9405390386218C444.406779661017 376.16838010558484 484.0511253125869 376.16838010558484 523.1258682967492 375.48485690469573H523.0689080300084ZM360.1055848846902 382.49096971380936V389.15532092247844C414.38871908863575 389.9527646568491 474.76660183384274 389.9527646568491 529.0497360377883 389.15532092247844V382.49096971380936C516.8602389552653 382.2631286468463 499.20255626562937 382.1492081133648 486.78521811614337 382.0352875798833C447.7104751319812 381.86440677966095 398.95248680188945 381.86440677966095 360.1055848846902 382.49096971380936ZM543.916365657127 303.4301194776326C540.4987496526813 304.3414837454848 537.024173381495 305.25284801333703 533.6065573770492 306.1642122811892L534.0622395109752 348.25784940261184C494.36093359266465 348.25784940261184 418.54681856071136 348.25784940261184 371.72547929980544 348.25784940261184C363.238399555432 350.42233953876075 354.8082800777994 352.5298694081689 346.32120033342596 354.63739927757706L328.77743817727145 409.26229508196724L333.90386218393996 416.6101694915254C341.8782995276465 417.0658516254515 364.8332870241734 418.375937760489 372.35204223395385 418.7746596276744C384.0288969158099 418.7746596276744 433.1286468463462 419.05946096137814 445.77382606279525 419.11642122811895C458.6468463462073 419.11642122811895 507.1200333425952 418.8316198944152 519.1386496248958 418.7746596276744C526.714365101417 418.375937760489 549.7832731314254 417.06585162545156 557.5868296749097 416.6101694915254L562.7132536815783 409.26229508196724L544.4859683245346 352.5298694081689L543.9733259238677 303.4301194776327L543.916365657127 303.4301194776326ZM529.2206168380106 406.6421228118922C510.87941094748544 407.7243678799666 464.74159488746886 406.6421228118922 445.71686579605455 406.81300361211447C432.9008057793832 406.8699638788553 384.65545984995833 407.0978049458183 372.6368435676577 407.0978049458183C365.5168102250626 406.75604334537377 348.9983328702418 405.9585996110031 341.7074187274243 405.61683801055847L356.0044456793554 358.6246179494304C400.71825507085305 358.6246179494304 490.71547652125605 358.6246179494304 535.4292859127536 358.6246179494304L549.7263128646847 405.61683801055847L529.2206168380108 406.58516254515143L529.2206168380106 406.6421228118922ZM636.9324812447903 287.36732425673796V290.5570991942206C636.9324812447903 290.5570991942206 636.9324812447903 290.5570991942206 636.9324812447903 290.5570991942206L637.0464017782718 346.77688246735204L631.5782161711588 350.7641011392053C615.5154209502641 350.99194220616835 598.7121422617395 350.99194220616835 581.6810225062519 350.7641011392053L576.155876632398 346.77688246735204L576.4406779661018 294.71519866629615C573.0800222283968 295.62656293414835 569.7193664906919 296.5379272020005 566.3587107529871 297.4492914698527L566.4726312864685 349.2831342039455L567.782717421506 352.4159488746874L576.9533203667687 359.99166435120867L579.4026118366214 360.95998888580164L583.332870241734 361.1878299527647C588.4592942484026 361.3017504862462 594.8958043901085 361.4156710197277 600.022228396777 361.4156710197277C602.0158377327036 361.4156710197277 604.0664073353711 361.4156710197277 606.1169769380384 361.4156710197277C613.0091692136706 361.4156710197277 620.1292025562657 361.3587107529869 626.7935537649348 361.1878299527647H628.9580439010837C630.552931369825 361.07390941928315 632.2617393720478 361.07390941928315 633.5148652403446 361.01694915254234L635.9071964434565 360.27646568491247L645.0208391219784 353.0994720755765L646.6726868574605 350.13753820505696V275.5195887746596C643.4829119199778 276.43095304251176 640.2931369824952 277.2853570436232 637.0464017782718 278.19672131147536V287.4242845234787L636.9324812447903 287.36732425673796ZM576.5545984995833 269.4818005001389 576.7254792998056 236.10308419005275H601.7310363989998C600.705751597666 236.1600444567935 599.6235065295916 236.1600444567935 598.6551819949987 236.21700472353427L596.7754931925535 236.3309252570158V244.4192831342039L598.6551819949987 244.53320366768543C600.9905529313698 244.64712420116695 603.4398444012227 244.76104473464846 606.1169769380384 244.76104473464846C608.7941094748542 244.76104473464846 611.5282022784107 244.7040844679077 614.3762156154488 244.53320366768543L616.2559044178939 244.4192831342039V236.3309252570158L614.3762156154488 236.21700472353427C613.4078910808558 236.21700472353427 612.5534870797445 236.21700472353427 611.6421228118922 236.1600444567935H636.8755209780495C636.8755209780495 236.1600444567935 636.8755209780495 254.1594887468741 636.8755209780495 254.1594887468741C640.0652959155321 253.36204501250344 643.3120311197556 252.56460127813278 646.5018060572382 251.76715754376212V230.06529591553203L642.6285079188664 225.39455404278962H641.7171436510142C613.8635732147819 224.99583217560428 591.5351486524034 225.05279244234504 571.4281744929148 225.50847457627114H570.6307307585441C570.6307307585441 225.50847457627114 566.1878299527647 229.95137538205051 566.1878299527647 229.95137538205051L566.3017504862462 272.10197277021393C569.7193664906919 271.1906085023617 573.1369824951375 270.33620450125034 576.611558766324 269.42484023339813L576.5545984995833 269.4818005001389Z" fill="#000000"/>
</svg>
