<?xml version="1.0" encoding="UTF-8"?>
<!-- source: wardrobe.svg -->
<svg xmlns="http://www.w3.org/2000/svg" viewBox="0 0 1000 1000" width="1000" height="1000">
  <path d="M789.1767396477002 395.0656021017355C773.1212760028557 327.8110488338867 699.2661432365707 304.5306265488621 643.4288085606113 278.93108173735993C610.2475170279325 264.3919674367507 542.6361756790872 234.42176863304087 509.72247520715587 219.70426029193334L534.8760349174123 175.46253824836168C540.1386591121113 165.91845708170408 546.7392386105474 156.01758783404995 547.4528147725405 144.77876328265876C551.2882866432534 115.2545495801946 524.7075746090107 87.42507926246405 494.9157698457991 90.19018689018728C461.73447831312046 91.79573325467173 438.9892381495906 128.9908906985616 453.8851405311964 159.0502865225206L467.1754965483177 153.430874246825C465.3023591230858 148.70343217362074 464.6779799813419 143.44080797892173 464.94557104208934 138.35657782472094C465.92673826482985 120.78476483564106 482.6957780716675 105.79966543378615 500.4459851012456 107.76199987926714C524.3507865280142 109.18915220325333 538.4439157273777 137.5538046424787 525.3319537507547 157.53393717828527C514.44991728036 177.96005481533751 502.4083195467266 199.3673396751302 490.90190393458795 219.43666923118593L494.73737580530087 231.03228186357364C559.4944125061738 261.18087470778175 642.2692472973724 295.87851558469583 705.6883286945084 328.0786398946341C732.8042228502459 342.1717690939976 757.4226004390075 361.34912844756195 767.6802577676582 390.784145129777C768.4830309499005 393.1032676562545 769.6425922131392 395.33319316248287 770.0885773143849 397.8307097294587C770.9805475168762 403.3609249849052 767.7694547879073 409.33712534159736 762.7744216539558 411.65624786807484C761.0796782692222 412.4590210503171 759.2957378642394 412.9050061515628 757.3334034187584 412.9050061515628H670.1879146353522C539.7818710311149 412.63741509081535 367.4532279097833 413.2617942325593 237.6715634472898 413.2617942325593C228.9302554628744 412.63741509081535 222.86485808593318 402.64734882291214 226.43273889589864 394.6196170004898C231.5169690500994 380.52648780112634 238.83112471052857 367.41452582450324 249.62396416067406 356.8892774351051C272.3692043242039 335.3035985348141 301.98261504691715 322.37003059868937 329.8120853646477 308.18770437907665C364.5989232618109 291.24027053174075 434.44019011688465 256.8102207155741 469.13783099379873 239.6843928277399L462.8048425561101 226.48323383086773C427.75041359819943 242.98468257695797 357.3739646216308 276.1659741096367 322.40873268396933 292.8458168962252C278.7913897821416 313.98551069527053 227.2355120781408 336.10637171705633 210.28807823080484 385.78911199582535C199.94122388190505 407.82077599736203 216.35347560774613 432.88513868736936 240.79345915600953 431.81477444437974C312.15107535531865 431.9931684848781 442.46792193930696 432.0823655051272 514.9850994018548 432.26075954562543C514.9850994018548 432.26075954562543 670.2771116556013 432.26075954562543 670.2771116556013 432.26075954562543H747.87851927235C747.87851927235 432.26075954562543 757.7793885200041 432.26075954562543 757.7793885200041 432.26075954562543C776.7783538330701 432.26075954562543 792.6554234374164 413.61858231355586 789.2659366679493 394.8872080612373M179.51510624485294 706.8091878724672C143.1227219832053 706.8091878724672 133.5786408165477 684.9559179114287 133.5786408165477 646.8687902650476C133.5786408165477 608.7816626186664 144.1038892059458 586.5716045766314 178.97992412335813 586.5716045766314C196.73013115293628 586.5716045766314 217.95902197223074 590.9422585688391 217.95902197223074 590.9422585688391L217.24544581023764 603.7866294847147C217.24544581023764 603.7866294847147 196.551737112438 600.753930796244 181.1206526093374 600.753930796244C155.87789587883182 600.753930796244 149.90169552213968 613.7766957526179 149.90169552213968 646.8687902650476C149.90169552213968 679.9608847774772 155.34271375733698 692.8052556933528 180.76386452834086 692.8052556933528C188.70239933051403 692.8052556933528 198.87085963891553 691.4673003896157 202.08195236788447 690.7537242276227V658.5535999176844H185.13451852054857V644.460470718321H217.86982495198163V702.7953219612561C215.28311136475668 703.3305040827511 192.8054622619743 706.8983848927164 179.42590922460383 706.8983848927164L179.51510624485294 706.8091878724672ZM310.3671349503361 694.5891960983355 309.8319528288413 706.8091878724672C300.19867464193453 706.8091878724672 294.0440802447441 705.2928385282319 288.51386498929764 700.2086083740312C288.51386498929764 700.2086083740312 274.0639477089376 706.8091878724672 259.5248334083283 706.8091878724672C243.46936976348377 706.8091878724672 234.99565283981582 697.6218947868061 234.99565283981582 680.2284758382245C234.99565283981582 662.8350568896429 244.18294592547684 656.5020684519543 261.933152955055 654.985719107719L286.19474246282005 652.7557936014905V645.9768200625562C286.19474246282005 635.4515716731581 281.6456944301141 631.8836908631927 272.4584013444531 631.8836908631927C260.77359169181625 631.8836908631927 240.43667107501312 633.7568282884246 240.43667107501312 633.7568282884246L239.9014889535183 622.4288067167842C239.9014889535183 622.4288067167842 258.36527214508953 618.3257437853239 273.4395685671936 618.3257437853239C293.4197011030001 618.3257437853239 301.7150239861698 627.1562487899885 301.7150239861698 645.9768200625562V687.007449377159C302.0718120671663 692.0916795313597 305.10451075563697 693.9648169565916 310.367134950336 694.5891960983355H310.3671349503361ZM262.3791380563007 693.6972258958442C273.4395685671936 693.6972258958442 286.10554544257093 689.3265719036366 286.10554544257093 689.3265719036366V664.0838151731309L263.7170933600377 666.1353466388612C254.70819431487496 667.0273168413524 250.6943284036638 671.3979708335602 250.6943284036638 679.8716877572282C250.6943284036638 688.3454046808962 254.44060325412755 693.7864229160934 262.3791380563007 693.7864229160934V693.6972258958442ZM371.19950276024707 618.3257437853239V633.9352223289227C355.41163017614997 637.1463150578916 341.4076979970355 644.2820766778225 341.4076979970355 644.2820766778225V704.9360504472353H325.7982194534367V620.1988812105557H341.22930395653725V631.0809176809503C341.22930395653725 631.0809176809503 355.7684182571465 621.2692454535453 371.19950276024707 618.414940805573V618.3257437853239ZM411.69494995335504 706.8091878724672C392.51759059979076 706.8091878724672 380.4759928661573 697.6218947868061 380.4759928661573 662.9242539098921C380.4759928661573 632.775661065684 390.8228472150571 618.3257437853239 415.7088158645662 618.3257437853239C422.8445774844971 618.3257437853239 433.9942050156392 620.1988812105558 435.86734244087097 620.5556692915522V584.1632850299047H451.29842694397155V704.9360504472353H435.86734244087097V699.8518202930346C435.86734244087097 699.8518202930346 423.2013655654936 706.8091878724672 411.6057529331059 706.8091878724672H411.69494995335504ZM413.9248754595834 692.7160586731036C424.8069119299781 692.7160586731036 435.9565394611201 687.4534344784045 435.9565394611201 687.4534344784045V633.7568282884243C434.0834020358883 633.4000402074279 423.91494172748673 631.8836908631926 416.7791801075558 631.8836908631926C401.7048836854517 631.8836908631926 396.26386545025446 642.2305452120924 396.26386545025446 662.924253909892C396.26386545025446 687.4534344784045 403.75641515118184 692.7160586731036 413.9248754595834 692.7160586731036ZM538.8007038083744 691.5564974098648 539.1574918893709 703.419701103C539.1574918893709 703.419701103 519.8017384953083 706.8091878724671 505.44101823519736 706.8091878724671C480.1982615046918 706.8091878724671 471.01096841903075 692.5376646326054 471.01096841903075 663.2810419908885C471.01096841903075 631.6160998024452 484.74730953739777 618.3257437853239 507.1357616199309 618.3257437853239C529.5242137024642 618.3257437853239 542.0117965373433 630.5457355594555 542.0117965373433 657.661629715193L541.0306293146028 668.9896512868334H486.7988410031279C486.97723504362625 684.9559179114287 492.23985923832527 693.0728467541002 507.67094374142584 693.0728467541002C520.6937086977998 693.0728467541002 538.8899008286236 691.5564974098648 538.8899008286236 691.5564974098648H538.8007038083744ZM526.5807120342427 656.7696595127017C526.5807120342427 637.7706941996356 520.7829057180488 631.3485087416977 507.1357616199309 631.3485087416977C493.488617521813 631.3485087416977 486.7988410031278 638.4842703616287 486.62044696262956 656.7696595127017H526.5807120342427ZM606.3228481369706 618.3257437853239V633.9352223289227C590.5349755528734 637.1463150578916 576.5310433737592 644.2820766778225 576.5310433737592 644.2820766778225V704.9360504472353H560.9215648301603V620.1988812105557H576.3526493332608V631.0809176809503C576.3526493332608 631.0809176809503 590.8917636338701 621.2692454535453 606.3228481369706 618.414940805573V618.3257437853239ZM689.8112590901623 661.6754956264042C689.8112590901623 691.1997093288684 681.6943302474909 706.7199908522181 652.8836927070198 706.7199908522181C624.0730551665488 706.7199908522181 615.7777322833791 691.1105123086191 615.7777322833791 661.6754956264042C615.7777322833791 632.2404789441892 625.2326164297875 618.3257437853239 652.8836927070198 618.3257437853239C680.534768984252 618.3257437853239 689.8112590901623 633.4000402074279 689.8112590901623 661.6754956264042ZM652.8836927070198 693.4296348350967C670.8122937770962 693.4296348350967 674.1125835263143 683.6179626076918 674.1125835263143 661.7646926466533C674.1125835263143 639.9114226856149 669.3851414531101 631.7944938429436 652.8836927070198 631.7944938429436C636.3822439609296 631.7944938429436 631.6548018877254 640.2682107666116 631.6548018877254 661.7646926466533C631.6548018877254 683.2611745266952 634.8658946166943 693.4296348350967 652.8836927070198 693.4296348350967ZM779.6326584810427 661.2295105251585C779.6326584810427 695.6595603413251 769.6425922131393 706.8091878724672 738.9588172474364 706.8091878724672C729.503933101028 706.8091878724672 709.256209504474 704.757656406737 709.256209504474 704.757656406737V584.0740880096555H724.6872940075747V623.8559590407704C724.6872940075747 623.8559590407704 737.0856798222046 618.2365467650748 747.7001252318519 618.2365467650748C770.7129564561291 618.2365467650748 779.5434614607934 630.0997504582099 779.5434614607934 661.1403135049094L779.6326584810427 661.2295105251585ZM738.9588172474364 692.7160586731036C760.0093140262326 692.7160586731036 763.8447858969455 683.4395685671933 763.8447858969455 661.2295105251584C763.8447858969455 640.714195867857 759.1173438237413 632.240478944189 746.0945788673674 632.240478944189C735.7477245184676 632.240478944189 724.7764910278238 636.4327388958985 724.7764910278238 636.4327388958985V692.0024825111104C724.7764910278238 692.0024825111104 734.9449513362254 692.7160586731036 739.0480142676856 692.7160586731036H738.9588172474364ZM863.2102664544834 691.5564974098648 863.56705453548 703.419701103C863.56705453548 703.419701103 844.2113011414174 706.8091878724671 829.8505808813064 706.8091878724671C804.6078241508009 706.8091878724671 795.4205310651398 692.5376646326054 795.4205310651398 663.2810419908885C795.4205310651398 631.6160998024452 809.1568721835068 618.3257437853239 831.54532426604 618.3257437853239C853.9337763485731 618.3257437853239 866.4213591834523 630.5457355594555 866.4213591834523 657.661629715193L865.4401919607118 668.9896512868334H811.2084036492369C811.3867976897351 684.9559179114287 816.6494218844342 693.0728467541002 832.0805063875348 693.0728467541002C845.1032713439087 693.0728467541002 863.2994634747325 691.5564974098648 863.2994634747325 691.5564974098648H863.2102664544834ZM850.9902746803518 656.7696595127017C850.9902746803518 637.7706941996356 845.1924683641579 631.3485087416977 831.54532426604 631.3485087416977C817.8981801679221 631.3485087416977 811.2084036492369 638.4842703616287 811.0300096087386 656.7696595127017H850.9902746803518ZM190.75393079624413 898.9395694891069H196.37334307193976L221.0809176809505 791.813948169894H233.4793034955805L258.00848406409295 898.9395694891069H263.6278963397886L284.9459841793322 790.4759928661571H295.64962660922856L271.3880371014635 908.2160595950172H250.33754032266728L227.14631505789183 804.836713126268L203.95508979311637 908.2160595950172H182.90459301432017L158.6430035065551 790.4759928661571H169.34664593645144L190.66473377599505 898.9395694891069H190.75393079624413ZM380.74358392690465 901.7046771168302 380.20840180540984 909.8216059595015C371.9130789222402 909.8216059595015 365.66928750480065 908.126862574768 361.03104245184556 903.0426324205672C361.03104245184556 903.0426324205672 345.0647758272502 909.9999999999998 329.1877062229039 909.9999999999998C314.2918038412981 909.9999999999998 305.99648095812836 901.3478890358336 305.99648095812836 884.4004551884976C305.99648095812836 868.7909766448988 313.75662171980326 861.3876239642204 330.88244960763745 859.6928805794869L359.6930871481085 856.8385759315146V848.9000411293414C359.6930871481085 836.0556702134659 353.89528083191465 831.0606370795142 343.10244138176915 831.0606370795142C330.88244960763745 831.0606370795142 311.08071111232914 833.6473506667392 311.08071111232914 833.6473506667392L310.5455289908343 825.5304218240678C310.5455289908343 825.5304218240678 329.1877062229039 821.9625410141023 343.45922946276573 821.9625410141023C361.92301265433696 821.9625410141023 369.6831534160118 830.9714400592651 369.6831534160118 848.9000411293414V894.3013244361518C370.2183355375066 899.3855545903526 375.12417165120917 901.0802979750863 380.65438690665565 901.7938741370793L380.74358392690465 901.7046771168302ZM330.5256615266409 901.3478890358336C344.2620026450079 901.3478890358336 359.6930871481085 895.4608856993906 359.6930871481085 895.4608856993906V864.7771107336878L332.0420108708762 867.6314153816601C320.7139892992359 868.6125826044005 316.43253232727733 874.0536008395978 316.43253232727733 884.2220611479994C316.43253232727733 895.104097618394 321.1599744004816 901.3478890358336 330.5256615266409 901.3478890358336ZM405.9863406574102 823.5680873785867V835.7880791527184C405.9863406574102 835.7880791527184 420.70384899851774 825.084436722822 438.0080709268502 821.8733439938532V832.0418043022546C421.77421324150737 835.4312910717218 405.9863406574102 844.707781177632 405.9863406574102 844.707781177632V908.2160595950172H395.996274389507V823.4788903583376H405.9863406574102V823.5680873785867ZM503.92466889096204 908.3052566152662V902.0614651978267C503.92466889096204 902.0614651978267 490.5451158535916 909.9999999999998 476.8087747352246 909.9999999999998C463.07243361685755 909.9999999999998 447.01696997201304 905.2725579267956 447.01696997201304 866.9178392196669C447.01696997201304 837.3044284969537 456.02586901717575 821.8733439938532 482.6065810514184 821.8733439938532C490.0991307523459 821.8733439938532 500.71357616199316 823.5680873785867 503.92466889096204 824.1032695000815V786.0161418537003H514.0931291993636V908.3944536355154H503.92466889096204V908.3052566152662ZM477.7899419579651 900.812706914339C490.6343128738407 900.812706914339 503.92466889096204 893.4985512539098 503.92466889096204 893.4985512539098V832.844577484497C500.5351821214948 832.3093953630022 489.6531456511002 830.7930460187669 482.87417211216587 830.7930460187669C462.7156455358611 830.7930460187669 457.45302134116196 843.6374169346425 457.45302134116196 866.917839219667C457.45302134116196 896.8880380233769 467.9782697305601 900.812706914339 477.7899419579651 900.812706914339ZM549.3259521977725 823.5680873785867V835.7880791527184C549.3259521977725 835.7880791527184 564.04346053888 825.084436722822 581.3476824672124 821.8733439938532V832.0418043022546C565.1138247818697 835.4312910717218 549.3259521977724 844.707781177632 549.3259521977724 844.707781177632V908.2160595950172H539.3358859298692V823.4788903583376H549.3259521977724L549.3259521977725 823.5680873785867ZM662.0709857926809 864.7771107336878C662.0709857926809 896.7988410031277 654.9352241727499 910.0 626.6597687537737 910.0C598.3843133347975 910.0 591.0701576743684 896.7988410031277 591.0701576743684 864.7771107336879C591.0701576743684 834.806911929978 600.3466477802785 821.8733439938533 626.6597687537737 821.8733439938533C652.972889727269 821.8733439938533 662.0709857926809 834.7177149097289 662.0709857926809 864.7771107336879V864.7771107336878ZM626.6597687537737 900.9911009548372C648.5130387148121 900.9911009548372 651.7241314437811 890.6442466059374 651.7241314437811 864.6879137134385C651.7241314437811 838.7315808209397 645.9263251275871 830.7930460187667 626.6597687537737 830.7930460187667C607.3932123799602 830.7930460187667 601.5954060637664 839.2667629424348 601.5954060637664 864.6879137134385C601.5954060637664 890.1090644844423 604.628104752237 900.991100954837 626.6597687537737 900.991100954837V900.9911009548372ZM750.465232859575 864.5987166931895C750.465232859575 897.5124171651208 741.9915159359072 910.0 710.7725588487093 910.0C700.0689164188129 910.0 683.656664692972 908.3052566152663 683.656664692972 908.3052566152663V785.9269448334512H693.8251250013734V828.1171354112928C693.8251250013734 828.1171354112928 707.0262839982456 821.8733439938533 720.2274429951178 821.8733439938533C743.240274219395 821.8733439938533 750.3760358393259 834.5393208692307 750.3760358393259 864.5987166931897L750.465232859575 864.5987166931895ZM710.8617558689584 900.812706914339C735.9261185589658 900.812706914339 740.029181490426 889.6630793831969 740.029181490426 864.5095196729404C740.029181490426 841.4966884486632 735.8369215387166 830.9714400592651 719.5138668331247 830.9714400592651C706.4911018767508 830.9714400592651 693.9143220216225 836.769246375459 693.9143220216225 836.769246375459V899.8315396915986C693.9143220216225 899.8315396915986 705.7775257147578 900.8127069143391 710.8617558689584 900.8127069143391V900.812706914339ZM833.4184616912719 899.2963575701035 833.7752497722685 907.5916804532733C833.7752497722685 907.5916804532733 814.5978904187041 910.0 801.396731421832 910.0C776.1539746913264 909.8216059595018 768.4830309499007 894.5689154968993 768.4830309499007 866.2934600779231C768.4830309499007 833.55815364649 782.7545541897625 821.8733439938532 803.359065867313 821.8733439938532C825.2123358283515 821.8733439938532 836.71875144049 833.55815364649 836.71875144049 862.0120031059645L836.3619633594934 870.1289319486359H778.7406882785514C778.7406882785514 890.1090644844423 784.5384945947452 900.8127069143387 802.2887016243234 900.8127069143387C814.6870874389533 900.8127069143387 833.3292646710229 899.2963575701034 833.3292646710229 899.2963575701034L833.4184616912719 899.2963575701035ZM826.5502911320883 861.655215024968C826.5502911320883 838.820777841189 819.2361354716592 830.6146519782685 803.3590658673129 830.6146519782685C787.4819962629666 830.6146519782685 778.8298852988004 839.0883689019365 778.8298852988004 861.655215024968H826.6394881523375H826.5502911320883Z" fill="#000000"/>
</svg>
