<?xml version="1.0" encoding="UTF-8"?>
<!-- source: wifi.svg -->
<svg xmlns="http://www.w3.org/2000/svg" viewBox="0 0 1000 1000" width="1000" height="1000">
  <path d="M478.6970461641257 90.01422562057205C414.7373422845796 90.52264933980533 351.48943161196 117.57079120301562 307.76499175789826 163.83734965324373L326.3732998818362 183.05576624026162C408.12783393454697 100.18270000523758 548.8595194183179 98.96248307907771 632.0376398848819 180.41196290024857L651.154371728053 160.99017682553742C606.5147691793713 115.33372683838921 542.6567500436719 89.30243241364546 478.6970461641257 90.01422562057205M479.205469883359 165.5659902986369C435.0742910539106 165.7693597863302 391.34985119984884 184.68272214180809 361.75959074047216 217.01847068504443L379.9611598890234 235.83014829667565C433.2439656646708 182.95408149641491 525.1669741020471 182.038918801795 579.5683120600077 233.6947686758959L597.5665117208657 215.39151478349794C567.4678275422557 183.46250521564818 523.438333456654 165.15925132325023 479.205469883359 165.56599029863685M479.9172630902856 238.57563638053534C455.51292456708836 238.88069061207528 430.19342334927114 249.96432769136072 414.53397279688625 268.3692663276053L431.5153250192777 286.7742049638499C458.1567279071014 262.47155118449933 501.0676898103899 262.268181696806 528.2175164174469 286.0624117569233L546.9275092852314 267.0473646575988C530.7596350136132 248.94748025289414 504.6266558450228 237.9655279174554 480.0189478341322 238.5756363805353M480.7307410410588 305.99262155086774C473.40943948409966 305.99262155086774 466.18982267098716 308.83979437857414 460.69884650326776 314.4324552901401L480.7307410410588 335.78625149793777L500.45758134731 314.1274010586002C494.9666051795906 308.73810963472744 487.84867311032474 306.09430629471444 480.7307410410588 306.09430629471444M298.9184190432392 662.2959639895477 325.0513982118297 545.7652475412808H346.30350967578056L372.53817358821766 662.2959639895477H377.31735654901047L398.16272903757476 545.0534543343542H417.0760913930526L390.63805799292226 678.158784029626H359.72589586353905L335.5249268280351 568.0342064436984L311.5273272802245 678.158784029626H280.6151651508413L253.97376226301762 545.0534543343542H273.0904941061888L293.9358665947531 662.2959639895477H298.71504955554593H298.9184190432392ZM456.5297720055549 545.0534543343542V661.8892250141611H512.3546963773687V678.158784029626H438.3282028570036V545.0534543343542H456.5297720055549ZM626.0382399979292 678.158784029626H607.8366708493779L599.4985218539522 646.6365134371628H545.4022381275316L537.0640891321059 678.158784029626H518.8625199835545L553.6387023791107 545.0534543343542H591.0586881146799L625.8348705102359 678.158784029626H626.0382399979292ZM595.6345015877793 630.672008653238 577.432932439228 560.5095353990458H567.5695122861024L549.2662583937044 630.672008653238H595.6345015877793ZM724.5707567853381 662.0925945018544H728.0280380761244V545.0534543343542H746.0262377369825V678.158784029626H714.1989129129793L667.6273002312112 561.1196438621258H664.3733884281182V678.158784029626H646.171819279567V545.0534543343542H678.8126220543434L724.5707567853382 662.0925945018544H724.5707567853381ZM392.1633291506221 899.3231018961011H398.56946801296135L426.7361420584849 777.1997245362681H440.87032145317L468.8336260110002 899.3231018961011H475.2397648733395L499.54241865269006 775.6744533785684H511.7445879142887L484.08633758799846 909.8983152561533H460.0887380401879L433.6507046400575 792.0456971378799L407.2126712399271 909.8983152561533H383.21507169211645L355.55682136582624 775.6744533785684H367.75899062742485L392.0616444067755 899.3231018961011H392.1633291506221ZM532.589960402853 774.7592906839484H543.9786517136783V789.1985243101735H532.589960402853V774.7592906839484ZM543.9786517136783 813.3994933456773V909.9999999999999H532.589960402853V813.3994933456773H543.9786517136783ZM576.822823976148 909.9999999999999V823.6696524741897H564.3156004830095V813.3994933456773H576.822823976148V803.5360731925518C576.822823976148 775.6744533785684 583.7373865577206 768.5565213093025 602.3456946816584 768.5565213093025C608.9552030316911 768.5565213093025 621.0556875494431 769.573368747769 621.0556875494431 769.573368747769V779.4367889008945C621.0556875494431 779.4367889008945 609.6669962386177 779.0300499255078 604.0743353270516 779.0300499255078C592.2789050408396 779.0300499255078 588.4148847746667 783.8092328863006 588.4148847746667 803.7394426802451V813.3994933456773H617.5984062586567V823.6696524741897H588.4148847746667V909.9999999999999H576.822823976148ZM635.5966059195148 774.7592906839484H646.9852972303402V789.1985243101735H635.5966059195148V774.7592906839484ZM646.9852972303402 813.3994933456773V909.9999999999999H635.5966059195148V813.3994933456773H646.9852972303402Z" fill="#000000"/>
</svg>
