<?xml version="1.0" encoding="UTF-8"?><svg id="uuid-e4246367-a34e-4eb2-8f2c-e1b24b7a0d56" xmlns="http://www.w3.org/2000/svg" viewBox="0 0 166.98 166.98"><defs><style>.uuid-57552157-9110-4964-baa1-b97392642a38{fill:#3c3c3b;}.uuid-dd36a24f-3cea-4398-9fd9-b2e63dbdea9d{fill:#fff;}</style></defs><g id="uuid-808e25db-1a67-401e-9798-59609aaa8a6e"><circle class="uuid-dd36a24f-3cea-4398-9fd9-b2e63dbdea9d" cx="83.49" cy="83.49" r="83.49"/><path class="uuid-57552157-9110-4964-baa1-b97392642a38" d="M55.18,102.98c0,1.63-.55,2.36-1.54,2.93,1.31.57,1.84,1.44,1.84,3.04,0,2.64-1.5,3.72-4.16,3.72h-4.5v-13.01h4.41c2.36,0,3.95.97,3.95,3.32ZM51.24,105.14c1.22,0,1.77-.78,1.77-1.92,0-1.2-.59-1.75-1.79-1.75h-2.28v3.67h2.3ZM51.3,110.84c1.37,0,2-.67,2-2.05,0-1.31-.67-1.88-2.03-1.88h-2.32v3.93h2.36Z"/><path class="uuid-57552157-9110-4964-baa1-b97392642a38" d="M57.38,99.54h2.09v2.2h-2.09v-2.2ZM59.45,103.17v9.5h-2.05v-9.5h2.05Z"/><path class="uuid-57552157-9110-4964-baa1-b97392642a38" d="M69.1,107.88c0,2.85-.68,5-3.89,5s-3.89-2.15-3.89-5,.84-4.9,3.89-4.9,3.89,2.03,3.89,4.9ZM65.21,111.13c1.67,0,1.92-1.35,1.92-3.25s-.36-3.15-1.92-3.15-1.92,1.22-1.92,3.15.23,3.25,1.92,3.25Z"/><path class="uuid-57552157-9110-4964-baa1-b97392642a38" d="M70.57,108.07c0-2.92.74-5.11,3.84-5.11,1.27,0,3.86.34,3.86.34v6.82c0,.67.09,2.53.09,2.53l-2.05.08s-.1-.76-.1-1.39c0,0-.87,1.54-2.49,1.54-2.32,0-3.15-1.63-3.15-4.81ZM74.18,111.13c1.2,0,2.03-1.61,2.03-1.61v-4.65s-1.16-.15-1.61-.15c-1.52,0-1.94,1.14-1.94,3.36,0,1.82.27,3.06,1.52,3.06Z"/><path class="uuid-57552157-9110-4964-baa1-b97392642a38" d="M88.24,107.74c0,3.67-1.33,5.11-4.26,5.11-.99,0-3.44-.23-3.44-.23v-13.41h2.05v4.81s1.18-1.06,2.47-1.06c2.38,0,3.17,1.73,3.17,4.79ZM84.06,111.11c1.67,0,2.09-1.04,2.09-3.36,0-1.62-.25-3.04-1.56-3.04-1.04,0-2,1.01-2,1.01v5.28s1.12.11,1.46.11Z"/><path class="uuid-57552157-9110-4964-baa1-b97392642a38" d="M92.36,116.75h-1.9v-11.82h-.95v-1.77h.95v-.57c0-2.55.8-3.59,2.53-3.59.61,0,1.84.21,1.84.21l-.02,1.67s-.78-.11-1.35-.11c-.82,0-.95.72-.95,1.84v.55h2.2v1.77h-2.2v7.73l-.15,4.08Z"/><path class="uuid-57552157-9110-4964-baa1-b97392642a38" d="M95.61,108.07c0-2.92.74-5.11,3.84-5.11,1.27,0,3.86.34,3.86.34v6.82c0,.67.09,2.53.09,2.53l-2.05.08s-.1-.76-.1-1.39c0,0-.87,1.54-2.49,1.54-2.32,0-3.15-1.63-3.15-4.81ZM99.22,111.13c1.2,0,2.03-1.61,2.03-1.61v-4.65s-1.16-.15-1.61-.15c-1.52,0-1.94,1.14-1.94,3.36,0,1.82.27,3.06,1.52,3.06Z"/><path class="uuid-57552157-9110-4964-baa1-b97392642a38" d="M107.67,99.21v13.45h-2.07v-13.45h2.07Z"/><path class="uuid-57552157-9110-4964-baa1-b97392642a38" d="M112.06,99.21v13.45h-2.07v-13.45h2.07Z"/><path class="uuid-57552157-9110-4964-baa1-b97392642a38" d="M54.09,122.75c.7-.46,1.65-.68,2.94-.68,3.95,0,4.77,2.11,4.77,6.69,0,3.23-.4,5.32-2.01,6.29-.68.4-1.58.61-2.75.61-3.95,0-4.79-2.3-4.79-6.9,0-3.1.38-5.05,1.84-6ZM58.9,134.25c1.46-.7,1.69-2.51,1.69-5.49,0-3.95-.4-5.62-3.55-5.62-.76,0-1.35.08-1.82.29-1.52.63-1.75,2.32-1.75,5.34,0,3.95.4,5.83,3.57,5.83.78,0,1.37-.09,1.86-.34Z"/><path class="uuid-57552157-9110-4964-baa1-b97392642a38" d="M68.46,125.78v1.22c-1.41.34-3.12,1.44-3.12,1.44v7.03h-1.14v-9.5h1.14v1.48s1.44-1.24,3.12-1.67Z"/><path class="uuid-57552157-9110-4964-baa1-b97392642a38" d="M69.46,137.38c0-1.16.93-2.24,1.81-2.79-.36-.3-.46-.61-.46-1.1,0-.61.57-1.52.57-1.52-1.27-.44-1.77-1.52-1.77-2.95,0-2.03,1.12-3.25,3.15-3.25.84,0,1.63.25,1.63.25l2.72-.04v.97h-1.82c.46.38.76,1.22.76,2.07,0,2.03-1.18,3.17-3.33,3.17-.28,0-.47-.04-.47-.04,0,0-.36.76-.36,1.22s.17.78,1.79.78c2.05,0,3.36.4,3.36,2.53,0,1.98-1.6,3.29-3.95,3.29-2.11,0-3.63-.44-3.63-2.58ZM73.13,138.96c1.71,0,2.81-.82,2.81-2.28,0-1.37-.91-1.52-2.32-1.52-.55,0-1.22-.06-1.54-.15-.72.34-1.52,1.27-1.52,2.24,0,1.39.95,1.71,2.56,1.71ZM72.73,131.19c1.62,0,2.22-.84,2.22-2.17,0-1.42-.61-2.26-2.18-2.26-1.41,0-2.05.87-2.05,2.26s.61,2.17,2.01,2.17Z"/><path class="uuid-57552157-9110-4964-baa1-b97392642a38" d="M78.47,130.92c0-3.08.72-5.15,3.78-5.15,1.01,0,3.23.32,3.23.32v7.12c0,.99.11,2.24.11,2.24l-1.14.04s-.09-.93-.09-1.75c0,0-1.08,1.9-2.91,1.9-2.22,0-2.98-1.65-2.98-4.73ZM81.66,134.65c1.56,0,2.7-2.15,2.7-2.15v-5.53s-1.41-.19-1.94-.19c-2.28,0-2.77,1.46-2.77,4.14,0,2.2.38,3.72,2.01,3.72Z"/><path class="uuid-57552157-9110-4964-baa1-b97392642a38" d="M89.24,125.96l.02,1.56s1.24-1.75,2.87-1.75c2.03,0,2.87,1.39,2.87,3.76v5.93h-1.14v-5.57c0-2.13-.51-3.12-1.92-3.12s-2.68,1.94-2.68,1.94v6.74h-1.14v-9.5h1.12Z"/><path class="uuid-57552157-9110-4964-baa1-b97392642a38" d="M97.53,122.24h1.18v1.48h-1.18v-1.48ZM98.69,135.46h-1.14v-9.5h1.14v9.5Z"/><path class="uuid-57552157-9110-4964-baa1-b97392642a38" d="M106.84,126.02l-.06.95s-1.27-.17-1.96-.17c-2.09,0-2.7,1.22-2.7,3.76s.32,4.08,2.7,4.08c.68,0,1.96-.15,1.96-.15l.06.91s-1.35.25-2.2.25c-3.08,0-3.69-1.84-3.69-5.09s1.08-4.77,3.69-4.77c.87,0,2.2.23,2.2.23Z"/><path class="uuid-57552157-9110-4964-baa1-b97392642a38" d="M105.07,42.33c-4.41-8.3-15.69-8.87-23.53-5.21-.2-2.09-.26-4.15.17-6.03.47-2.27,1.98-3.85,4.29-4.27,0,0-.33-1.93-.33-1.93-2.93.27-5.59,2.74-6.23,5.58-.64,2.24-.68,4.51-.58,6.77-4.13-1.43-8.54-1.94-12.89-1.11-5.14.88-9.62,4.75-11.42,9.61-.25.61.07,1.3.69,1.51,4.56,2.02,10.15,4.37,11.98,9.35,1.06,6.3-1.1,14.77-7.99,16.5-.5.29-.67.94-.38,1.44,2.17,3.63,4.68,7.16,8.37,9.44,1.44.86,3.15,1.47,4.89,1.38,2.62-.31,4.82-1.63,7.44-1.66,7.46-.72,11.57,4.12,17.43-3.5,1.05-1.39,1.87-2.89,2.59-4.45.36-.62.32-1.48-.2-2.02-8.4-9.68-9.71-18.27,1.62-26.21,1.11-.77,2.18-1.43,3.46-2.1,1.12-.64,1.26-2.08.61-3.11ZM103.45,43.73c-14.54,7.84-17.34,19.04-5.39,31.16-.03.06-.22.48-.22.48-1.34,2.93-3.42,6.14-6.57,7.15-1.88.63-3.6-.09-5.51-.52-4.11-1.07-8.66-.53-12.48,1.19-4.95,1.44-9.43-4.4-11.91-8.58,7.08-2.78,9.29-11.79,8.08-18.66-1.31-4.24-5.23-6.9-8.89-8.92-1.1-.58-2.2-1.1-3.36-1.54.82-1.66,1.88-3.16,3.28-4.32,5.34-4.42,13.36-3.63,19.4-1.06.33.14.72.14,1.06-.05,6.45-3.68,16.17-4.57,21.35,1.59.49.59.87,1.27,1.2,1.95.02.04,0,.09-.02.11Z"/></g></svg>