<?xml version="1.0" encoding="UTF-8"?><svg id="Ebene_2" xmlns="http://www.w3.org/2000/svg" viewBox="0 0 69.4936 21.0704"><g id="Components"><g id="_4402411c-ff17-4b26-872a-1e7229ea4abd_4"><g><path d="m5.7224,3.472L15.8254,0v21.07h-6.002l.007-7.74c.003-.501-.086-.969-.242-1.438-.475-1.43-3.866-8.42-3.866-8.42" style="fill:#1d1d1b;"/><path d="m5.292,7.1965s3.062,4.895,3.062,6.039l.048,7.834h-3.538l-.022-2.693c-.035-1.633-3.74-6.24-3.74-6.24l4.19-4.94Z" style="fill:#1d1d1b;"/><path d="m0,17.9464l2.355-1.673s1.103,1.842,1.201,2.488c.099.646.02,2.309.02,2.309H1.072s.005-.607.008-.876c.007-.476-.144-.883-.375-1.274-.108-.183-.609-.818-.705-.974" style="fill:#1d1d1b;"/></g><g><path d="m22.7863,6.4098h1.8191v3.488s-1.3693.2197-2.1189.2197c-1.9489,0-2.4985-1.5891-2.4985-3.5679,0-2.1689.5096-3.5481,2.5386-3.5481,1.0593,0,2.0789.2598,2.0789.2598l-.04.6096s-1.1593-.1897-1.9889-.1897c-1.5891,0-1.799,1.2292-1.799,2.8684,0,1.5491.3397,2.8884,1.7889,2.8884.4998,0,1.2693-.1301,1.2693-.1301v-2.2388h-1.0494v-.6594Z" style="fill:#1d1d1b;"/><path d="m29.5956,7.4691c0,1.5791-.2499,2.6484-1.9589,2.6484s-1.959-1.0693-1.959-2.6484c0-1.5891.4098-2.5486,1.959-2.5486,1.5391,0,1.9589.9595,1.9589,2.5486Zm-.7196,0c0-1.2693-.2499-1.8989-1.2393-1.8989s-1.2394.6296-1.2394,1.8989c0,1.2192.1,1.9988,1.2394,1.9988s1.2393-.7795,1.2393-1.9988Z" style="fill:#1d1d1b;"/><path d="m33.9959,9.2782l.0399.5496s-.7196.2798-1.629.2798c-1.3193,0-1.889-.7495-1.889-2.5085,0-1.6589.5997-2.6685,2.0289-2.6685,1.0194,0,1.6691.3896,1.6691,1.3391,0,1.2095-.7695,1.5193-2.4187,1.5193h-.5197v.1499c0,.9395.3597,1.5291,1.1693,1.5291.7096,0,1.5492-.1897,1.5492-.1897Zm-2.2089-2.0688c1.2094,0,1.6891-.1799,1.6891-.9297,0-.5496-.3497-.7295-.9294-.7295-.8995,0-1.2493.6096-1.2593,1.6592h.4996Z" style="fill:#1d1d1b;"/><path d="m36.237,5.6701v2.8984c0,.5598.1699.8994.6497.8994.2999,0,.7896-.0598.7896-.0598l.04.5896s-.5797.1199-.9194.1199c-1.0095,0-1.2993-.5596-1.2993-1.509v-2.9385h-.6497v-.6497h.6497v-1.4792h.7395v1.4792h1.4093v.6497h-1.4093Z" style="fill:#1d1d1b;"/><path d="m38.4975,10.0177V2.8417h.7495v2.9185s.6097-.8396,1.4492-.8396c1.0994,0,1.5292.7695,1.5292,1.979v3.1182h-.7396v-2.8984c0-1.0693-.2598-1.5491-.9395-1.5491-.6697,0-1.2993.9094-1.2993.9094v3.5381h-.7495Z" style="fill:#1d1d1b;"/><path d="m46.7755,9.2782l.0399.5496s-.7196.2798-1.629.2798c-1.3193,0-1.889-.7495-1.889-2.5085,0-1.6589.5997-2.6685,2.0289-2.6685,1.0194,0,1.6691.3896,1.6691,1.3391,0,1.2095-.7695,1.5193-2.4187,1.5193h-.5197v.1499c0,.9395.3597,1.5291,1.1693,1.5291.7096,0,1.5492-.1897,1.5492-.1897Zm-2.2087-2.0688c1.2092,0,1.689-.1799,1.689-.9297,0-.5496-.3497-.7295-.9294-.7295-.8995,0-1.2493.6096-1.2593,1.6592h.4998Z" style="fill:#1d1d1b;"/><path d="m47.8473,7.619c0-1.5891.3798-2.6985,1.9989-2.6985.5697,0,1.7991.1699,1.7991.1699v3.698c0,.4697.0599,1.2192.0599,1.2192l-.7496.03s-.0499-.4597-.0499-.8596c0,0-.5397.9395-1.4592.9395-1.1893,0-1.5991-.8594-1.5991-2.4985Zm.7596,0c0,1.0994.1898,1.8489.9894,1.8489.7596,0,1.2993-1.0393,1.2993-1.0393v-2.7686s-.6896-.0898-.9595-.0898c-1.0793,0-1.3292.7095-1.3292,2.0488Z" style="fill:#1d1d1b;"/><path d="m52.9672,10.0177v-4.9973h.7395l.01.7498s.6097-.8496,1.4492-.8496c1.0895,0,1.5292.7695,1.5292,1.9888v3.1084h-.7396v-2.8984c0-1.0693-.2598-1.5491-.9395-1.5491-.6697,0-1.2993.9294-1.2993.9294v3.5181h-.7495Z" style="fill:#1d1d1b;"/><path d="m61.6651,5.0204v4.9973h-.7296l-.01-.7495s-.6096.8494-1.4492.8494c-1.0894,0-1.5392-.6794-1.5392-2.0288v-3.0684h.7496v2.8984c0,1.0693.2499,1.5491.9395,1.5491.6697,0,1.2993-.9294,1.2993-.9294v-3.5181h.7396Z" style="fill:#1d1d1b;"/><path d="m65.9255,10.0177v-2.8384c0-1.1394-.2698-1.6091-.8995-1.6091s-1.2793.9294-1.2793.9294v3.5181h-.7495v-4.9973h.7396l.0099.7498s.6396-.8496,1.4293-.8496c1.0294,0,1.2892.8594,1.2892.8594,0,0,.6697-.8594,1.4993-.8594,1.0793,0,1.5292.7695,1.5292,2.0989v2.9983h-.7396v-2.8984c0-1.0693-.2499-1.5491-.9396-1.5491-.6595,0-1.1793.7896-1.1793.7896,0,0,.04.3398.04.7195v2.9385h-.7496Z" style="fill:#1d1d1b;"/><path d="m22.5265,13.1015c1.2192,0,1.9689.4998,1.9689,1.729,0,.8997-.3298,1.3494-.8795,1.5991.7795.29,1.0795.7798,1.0795,1.6191,0,1.3894-.7296,1.969-2.1089,1.969h-2.3488v-6.9163h2.2888Zm-1.5292.6697v2.3887h1.5392c.8195,0,1.1693-.5298,1.1693-1.2593,0-.7795-.3998-1.1294-1.1793-1.1294h-1.5292Zm0,3.0483v2.5286h1.5791c.9095,0,1.3193-.4197,1.3193-1.3391,0-.8296-.4498-1.1895-1.3492-1.1895h-1.5492Z" style="fill:#1d1d1b;"/><path d="m29.5158,15.0204v4.9973h-.7296l-.01-.7495s-.6097.8494-1.4492.8494c-1.0894,0-1.5392-.6794-1.5392-2.0288v-3.0684h.7496v2.8984c0,1.0693.2499,1.5491.9395,1.5491.6697,0,1.2993-.9294,1.2993-.9294v-3.5181h.7396Zm-3.1283-2.1287h.6896v.9294h-.6896v-.9294Zm1.8989,0h.6697v.9294h-.6697v-.9294Z" style="fill:#1d1d1b;"/><path d="m30.8478,20.0177v-7.176h.7495v2.9185s.6097-.8396,1.4492-.8396c1.0994,0,1.5292.7695,1.5292,1.979v3.1182h-.7396v-2.8984c0-1.0693-.2598-1.5491-.9395-1.5491-.6697,0-1.2993.9094-1.2993.9094v3.5381h-.7495Z" style="fill:#1d1d1b;"/><path d="m35.8577,20.0177v-4.9973h.7396l.0099.7498s.6097-.8496,1.4492-.8496c1.0895,0,1.5292.7695,1.5292,1.9888v3.1084h-.7396v-2.8984c0-1.0693-.2598-1.5491-.9395-1.5491-.6696,0-1.2993.9294-1.2993.9294v3.5181h-.7495Z" style="fill:#1d1d1b;"/><path d="m44.1358,19.2782l.0399.5496s-.7196.2798-1.629.2798c-1.3193,0-1.889-.7495-1.889-2.5085,0-1.6589.5997-2.6685,2.0289-2.6685,1.0194,0,1.6691.3896,1.6691,1.3391,0,1.2095-.7695,1.5193-2.4187,1.5193h-.5197v.1499c0,.9395.3597,1.5291,1.1693,1.5291.7096,0,1.5492-.1897,1.5492-.1897Zm-2.2089-2.0688c1.2094,0,1.6891-.1799,1.6891-.9297,0-.5496-.3497-.7295-.9294-.7295-.8995,0-1.2493.6096-1.2593,1.6592h.4996Z" style="fill:#1d1d1b;"/></g></g></g></svg>