<?xml version="1.0" encoding="UTF-8"?><svg id="Ebene_2" xmlns="http://www.w3.org/2000/svg" viewBox="0 0 49.7473 41.6207"><g id="Components"><g id="_8f06c6a0-be8c-4abb-95aa-bf9b7dc25ed3_4"><g><path d="m39.446,3.472l10.103-3.472v21.07h-6.002l.007-7.74c.003-.501-.086-.969-.242-1.438-.475-1.43-3.866-8.42-3.866-8.42" style="fill:#1d1d1b;"/><path d="m39.0156,7.1965s3.062,4.895,3.062,6.039l.048,7.834h-3.538l-.022-2.693c-.035-1.633-3.74-6.24-3.74-6.24l4.19-4.94Z" style="fill:#1d1d1b;"/><path d="m33.7236,17.9464l2.355-1.673s1.103,1.842,1.201,2.488c.099.646.02,2.309.02,2.309h-2.504s.005-.607.008-.876c.007-.476-.144-.883-.375-1.274-.108-.183-.609-.818-.705-.974" style="fill:#1d1d1b;"/></g><g><path d="m2.7986,27.9129h1.8188v3.488s-1.3691.2197-2.1189.2197c-1.9487,0-2.4985-1.5891-2.4985-3.5679,0-2.1689.5098-3.5481,2.5386-3.5481,1.0596,0,2.0789.2598,2.0789.2598l-.04.6096s-1.1592-.1897-1.9888-.1897c-1.5891,0-1.7991,1.2292-1.7991,2.8684,0,1.5491.3398,2.8884,1.7891,2.8884.4998,0,1.2693-.1301,1.2693-.1301v-2.2388h-1.0493v-.6594Z" style="fill:#1d1d1b;"/><path d="m9.6077,28.9723c0,1.5791-.2498,2.6484-1.9587,2.6484s-1.959-1.0693-1.959-2.6484c0-1.5891.4097-2.5486,1.959-2.5486,1.5391,0,1.9587.9595,1.9587,2.5486Zm-.7195,0c0-1.2693-.25-1.8989-1.2393-1.8989s-1.2395.6296-1.2395,1.8989c0,1.2192.1001,1.9988,1.2395,1.9988s1.2393-.7795,1.2393-1.9988Z" style="fill:#1d1d1b;"/><path d="m14.0078,30.7813l.04.5496s-.7197.2798-1.6292.2798c-1.3193,0-1.8889-.7495-1.8889-2.5085,0-1.6589.5996-2.6685,2.0288-2.6685,1.0195,0,1.6692.3896,1.6692,1.3391,0,1.2095-.7695,1.5193-2.4187,1.5193h-.5198v.1499c0,.9395.3599,1.5291,1.1694,1.5291.7095,0,1.5491-.1897,1.5491-.1897Zm-2.2087-2.0688c1.2092,0,1.689-.1799,1.689-.9297,0-.5496-.3496-.7295-.9294-.7295-.8994,0-1.2493.6096-1.2593,1.6592h.4998Z" style="fill:#1d1d1b;"/><path d="m16.249,27.1732v2.8984c0,.5598.1699.8994.6497.8994.2998,0,.7896-.0598.7896-.0598l.04.5896s-.5798.1199-.9194.1199c-1.0095,0-1.2993-.5596-1.2993-1.509v-2.9385h-.6497v-.6497h.6497v-1.4792h.7395v1.4792h1.4092v.6497h-1.4092Z" style="fill:#1d1d1b;"/><path d="m18.5095,31.5208v-7.176h.7495v2.9185s.6096-.8396,1.4492-.8396c1.0994,0,1.5291.7695,1.5291,1.979v3.1182h-.7395v-2.8984c0-1.0693-.2598-1.5491-.9395-1.5491-.6697,0-1.2993.9094-1.2993.9094v3.5381h-.7495Z" style="fill:#1d1d1b;"/><path d="m26.7876,30.7813l.0398.5496s-.7195.2798-1.6289.2798c-1.3193,0-1.8892-.7495-1.8892-2.5085,0-1.6589.5999-2.6685,2.0291-2.6685,1.0193,0,1.6689.3896,1.6689,1.3391,0,1.2095-.7695,1.5193-2.4187,1.5193h-.5195v.1499c0,.9395.3596,1.5291,1.1692,1.5291.7097,0,1.5493-.1897,1.5493-.1897Zm-2.2087-2.0688c1.2092,0,1.689-.1799,1.689-.9297,0-.5496-.3499-.7295-.9294-.7295-.8997,0-1.2493.6096-1.2593,1.6592h.4998Z" style="fill:#1d1d1b;"/><path d="m27.8594,29.1222c0-1.5891.3796-2.6985,1.9988-2.6985.5698,0,1.7991.1699,1.7991.1699v3.698c0,.4697.0601,1.2192.0601,1.2192l-.7498.03s-.0498-.4597-.0498-.8596c0,0-.5398.9395-1.4592.9395-1.1895,0-1.5991-.8594-1.5991-2.4985Zm.7595,0c0,1.0994.1899,1.8489.9895,1.8489.7595,0,1.2993-1.0393,1.2993-1.0393v-2.7686s-.6897-.0898-.9595-.0898c-1.0793,0-1.3293.7095-1.3293,2.0488Z" style="fill:#1d1d1b;"/><path d="m32.9792,31.5208v-4.9973h.7395l.01.7498s.6096-.8496,1.4492-.8496c1.0894,0,1.5291.7695,1.5291,1.9888v3.1084h-.7395v-2.8984c0-1.0693-.2598-1.5491-.9395-1.5491-.6697,0-1.2993.9294-1.2993.9294v3.5181h-.7495Z" style="fill:#1d1d1b;"/><path d="m41.677,26.5235v4.9973h-.7295l-.01-.7495s-.6096.8494-1.4492.8494c-1.0894,0-1.5393-.6794-1.5393-2.0288v-3.0684h.7498v2.8984c0,1.0693.2498,1.5491.9395,1.5491.6697,0,1.2993-.9294,1.2993-.9294v-3.5181h.7395Z" style="fill:#1d1d1b;"/><path d="m45.9375,31.5208v-2.8384c0-1.1394-.2698-1.6091-.8997-1.6091s-1.2793.9294-1.2793.9294v3.5181h-.7495v-4.9973h.7397l.0098.7498s.6396-.8496,1.4294-.8496c1.0293,0,1.2891.8594,1.2891.8594,0,0,.6697-.8594,1.4993-.8594,1.0793,0,1.5293.7695,1.5293,2.0989v2.9983h-.7397v-2.8984c0-1.0693-.2498-1.5491-.9395-1.5491-.6597,0-1.1794.7896-1.1794.7896,0,0,.04.3398.04.7195v2.9385h-.7495Z" style="fill:#1d1d1b;"/><path d="m27.9182,34.6046c1.2195,0,1.969.4998,1.969,1.729,0,.8997-.3298,1.3494-.8796,1.5991.7795.29,1.0796.7798,1.0796,1.6191,0,1.3894-.7297,1.969-2.1089,1.969h-2.3489v-6.9163h2.2888Zm-1.5291.6697v2.3887h1.5391c.8196,0,1.1694-.5298,1.1694-1.2593,0-.7795-.3999-1.1294-1.1794-1.1294h-1.5291Zm0,3.0483v2.5286h1.5791c.9094,0,1.3193-.4197,1.3193-1.3391,0-.8296-.45-1.1895-1.3494-1.1895h-1.5491Z" style="fill:#1d1d1b;"/><path d="m34.9075,36.5235v4.9973h-.7295l-.01-.7495s-.6096.8494-1.4492.8494c-1.0894,0-1.5393-.6794-1.5393-2.0288v-3.0684h.7498v2.8984c0,1.0693.2498,1.5491.9395,1.5491.6697,0,1.2993-.9294,1.2993-.9294v-3.5181h.7395Zm-3.1282-2.1287h.6895v.9294h-.6895v-.9294Zm1.8989,0h.6697v.9294h-.6697v-.9294Z" style="fill:#1d1d1b;"/><path d="m36.2395,41.5208v-7.176h.7495v2.9185s.6099-.8396,1.4492-.8396c1.0996,0,1.5293.7695,1.5293,1.979v3.1182h-.7397v-2.8984c0-1.0693-.2598-1.5491-.9395-1.5491-.6694,0-1.2993.9094-1.2993.9094v3.5381h-.7495Z" style="fill:#1d1d1b;"/><path d="m41.2495,41.5208v-4.9973h.7395l.01.7498s.6096-.8496,1.4492-.8496c1.0894,0,1.5291.7695,1.5291,1.9888v3.1084h-.7395v-2.8984c0-1.0693-.2598-1.5491-.9395-1.5491-.6697,0-1.2993.9294-1.2993.9294v3.5181h-.7495Z" style="fill:#1d1d1b;"/><path d="m49.5276,40.7813l.0398.5496s-.7195.2798-1.6289.2798c-1.3193,0-1.8892-.7495-1.8892-2.5085,0-1.6589.5999-2.6685,2.0291-2.6685,1.0193,0,1.6689.3896,1.6689,1.3391,0,1.2095-.7695,1.5193-2.4187,1.5193h-.5195v.1499c0,.9395.3596,1.5291,1.1692,1.5291.7097,0,1.5493-.1897,1.5493-.1897Zm-2.2087-2.0688c1.2092,0,1.689-.1799,1.689-.9297,0-.5496-.3499-.7295-.9294-.7295-.8997,0-1.2493.6096-1.2593,1.6592h.4998Z" style="fill:#1d1d1b;"/></g></g></g></svg>