<?xml version="1.0" encoding="UTF-8"?><svg id="Ebene_2" xmlns="http://www.w3.org/2000/svg" viewBox="0 0 58.8252 17.8682"><g id="Components"><g id="_6921943e-2f4f-4935-801e-104c44bf8dee_4"><path d="m20.978,7.1752l-9.6377,1.5348.001.4941,9.635,1.4778c.8152,4.0922,4.4312,7.1863,8.7585,7.1863,4.2617,0,7.938-3.0225,8.7617-7.1929l9.6309-1.4712.001-.4941-9.6384-1.5415c-.8347-4.1606-4.4922-7.1685-8.7551-7.1685-4.3237,0-7.9377,3.0889-8.7568,7.1752Zm8.7568,10.193c-4.0205,0-7.3882-2.832-8.2268-6.6047l8.1887,1.2561,8.2676-1.2629c-.8474,3.8433-4.2676,6.6116-8.2295,6.6116Zm16.7393-8.416l-16.7393,2.5674v-5.2451l16.7393,2.6777Zm-8.5171-1.8689l-8.1831-1.3088-8.2625,1.3158c.844-3.7656,4.2078-6.5902,8.2234-6.5902,3.9604,0,7.365,2.7517,8.2222,6.5833Z"/><polygon points="1.2686 6.1313 1.4287 6.1313 3.8633 12.8511 6.0352 12.8511 6.0352 5.022 4.7666 5.022 4.7666 11.731 4.5947 11.731 2.2178 5.022 0 5.022 0 12.8511 1.2686 12.8511 1.2686 6.1313"/><path d="m56.585,8.2954c-1.3369-.3652-1.748-.5371-1.748-1.2686,0-.6738.4912-1.0166,1.4512-1.0166.6631,0,2.2627.1826,2.2627.1826l.1035-1.0283s-1.4863-.2744-2.4805-.2744c-1.5654,0-2.6055.6514-2.6055,2.2285,0,1.3604.7314,1.874,2.4229,2.3086,1.2002.2861,1.5537.5146,1.5537,1.1768,0,.8232-.4453,1.2578-1.417,1.2578-.8115,0-2.3545-.2061-2.3545-.2061l-.125,1.0176s1.543.3086,2.5596.3086c1.543,0,2.6172-.7432,2.6172-2.457,0-1.3379-.5938-1.7715-2.2402-2.2295Z"/></g></g></svg>