<?xml version="1.0" encoding="UTF-8"?><svg id="Ebene_2" xmlns="http://www.w3.org/2000/svg" viewBox="0 0 123.25 91.3237"><g id="Components"><g id="_09e2e9b0-a7e5-4818-88f4-f3351d84ac75_4"><path d="m67.0308,32.3054c-.0703-3.2552-1.3584-6.3598-1.3901-9.587l-.999-1.104-10.3679-1.1619-1.0911.584c-1.1409,2.1515-3.0677,3.8662-4.3288,5.981-1.4386,2.2464-2.2073,4.9396-2.1402,7.6069l1.687.019c-.1588-5.0523,3.5593-8.231,6.321-11.9509l8.734,1.0549c.5302,3.6584,1.984,7.1425,1.9149,10.887h1.698c.0148-.7761.0084-1.5527-.0378-2.329Z"/><path d="m104.8232,7.9171c-1.4072-.0053-2.5433,1.2043-2.449,2.609-8.6927,2.7337-18.4901,4.4229-27.3931,1.58.2548-.6379.5132-1.275.778-1.9099,1.0651-.2784,2.5893-.6732,3.6429-.948,2.1674-.5167,3.2872-3.075,2.9091-5.139l-.708-.689c-1.2075-.3041-2.4348-.6037-3.6591-.838l-.8099-1.411-.6229-.4911c-1.1974-.3479-2.4997-.7623-3.7981-.6659-.7119.0526-1.4062.2502-2.0499.554-3.0722,1.2553-3.7786,4.7762-5.4149,7.2671-1.2509,1.7513-3.5865,1.8525-5.5542,2.017-2.8837.2305-6.2543.2946-9.0798.843-2.1888.4838-4.1243,1.9311-5.175,3.912-1.6728,2.9468-1.219,6.5071-1.6412,9.737-.0824.5419-.2419,1.0594-.3869,1.593-.8252,2.8324-1.6568,5.8019-1.643,8.7839l1.6801.04c.002-3.3066,1.1886-6.4831,2.0311-9.6489.5762-2.933.1329-6.1763,1.2798-8.9781.6945-1.4573,1.8276-2.7275,3.3771-3.2709.6641-.2512,1.3882-.3875,2.0919-.4671,1.3639-.1361,2.7341-.2445,4.108-.328,1.0711-.0401,3.9907-.222,5.0269-.3218,1.66-.18,3.3725-.5615,4.6711-1.7111,1.9216,1.3516,4.0021,2.4742,6.2151,3.323-.4582,1.2841-.9078,2.5683-1.2332,3.903-.3968,1.6956-.6396,3.4353-.83,5.1641-.4291,4.0583-.5348,8.234-.505,12.3159h1.6931c.0449-4.013.2234-8.1136.719-12.094.2106-1.6343.4685-3.2775.8719-4.876.3297-1.2616.7961-2.5027,1.2579-3.73,9.3909,2.8755,19.6595.9821,28.7321-2.082,1.3905,1.7245,4.3702.6583,4.3219-1.588,0-1.3539-1.1009-2.454-2.4538-2.454Zm-29.5951,2.418l-.0099.0021.011-.0031-.0011.001Zm-.5179-2.114c-.0151-.01-.7419.642-.7531.6431-.3354.8384-.6569,1.6694-.974,2.512-1.9687-.801-3.8255-1.8473-5.533-3.0779.9927-1.6468,1.5214-3.686,2.934-5.019.4216-.3983.9591-.7057,1.5179-.918,1.1823-.4731,2.4181-.0984,3.6061.2349l.84,1.4731.786.5269c1.1113.1236,2.2165.3326,3.317.5391-.1316.7851-.5452,1.7981-1.323,2.072,0,0-1.046.2409-1.046.2409-.7186.1666-2.6303.6022-3.3719.7729Zm30.113,2.889c-.9669-.0051-.9657-1.4742,0-1.4789.9668.0051.9679,1.4737,0,1.4789Z"/><path d="m1.7861,64.0219H0v-13.0889h1.7861v5.7178h6.1553v-5.7178h1.7852v13.0889h-1.7852v-5.7939H1.7861v5.7939Z"/><path d="m18.4482,64.0219v-.627s-1.4062.8359-2.6982.8359c-2.6777,0-3.248-1.3301-3.248-4.749v-4.959h1.748v4.959c0,2.3555.1895,3.1719,1.8047,3.1719,1.2725,0,2.3936-.5889,2.3936-.5889v-7.542h1.7285v9.499h-1.7285Z"/><path d="m24.5293,54.5229v.627s1.4619-.8359,2.792-.8359c2.6221,0,3.249,1.4062,3.249,4.6543v5.0537h-1.7295v-5.0156c0-2.2031-.2656-3.1338-1.8799-3.1338-1.2354,0-2.4131.6074-2.4131.6074v7.542h-1.748v-9.499h1.7295Z"/><path d="m36.1758,64.2309c-2.1475,0-3.4961-1.0254-3.4961-4.9199,0-3.3818,1.1592-4.9971,3.9521-4.9971.7979,0,2.0508.209,2.2598.2471v-4.084h1.7295v13.5449h-1.7295v-.5703s-1.4248.7793-2.7158.7793Zm.2471-1.5771c1.2158,0,2.4688-.5889,2.4688-.5889v-6.0215c-.209-.0381-1.3486-.209-2.1465-.209-1.6904,0-2.2988,1.1582-2.2988,3.4766,0,2.7539.8359,3.3428,1.9766,3.3428Z"/><path d="m50.4248,62.5209l.0381,1.3301s-2.166.3799-3.7803.3799c-2.8311,0-3.8564-1.5957-3.8564-4.8818,0-3.5527,1.5391-5.0352,4.0459-5.0352,2.6025,0,3.9141,1.3682,3.9141,4.4082l-.1143,1.2725h-6.0791c.0186,1.7861.6074,2.6973,2.3369,2.6973,1.4629,0,3.4951-.1709,3.4951-.1709Zm-1.3682-3.8945c0-2.127-.6455-2.8496-2.1846-2.8496-1.5,0-2.2793.7979-2.2979,2.8496h4.4824Z"/><path d="m64.9209,62.8627l-.0566,1.3682c-1.083,0-1.7666-.1709-2.3936-.7412,0,0-1.6152.7412-3.249.7412-1.8047,0-2.7539-1.0254-2.7539-2.9824,0-1.9189,1.0254-2.6602,3.0205-2.8311l2.7168-.2471v-.7598c0-1.1777-.5137-1.5762-1.5391-1.5762-1.3105,0-3.5908.209-3.5908.209l-.0566-1.2734s2.0703-.4561,3.7617-.4561c2.2412,0,3.1719.9883,3.1719,3.0967v4.5977c.0381.5703.3799.7793.9688.8545Zm-5.376-.0947c1.2354,0,2.6602-.4941,2.6602-.4941v-2.8301l-2.5078.2275c-1.0068.0957-1.4629.5889-1.4629,1.5391,0,.9688.418,1.5576,1.3105,1.5576Z"/><path d="m68.3789,54.5229v.627s1.4629-.8359,2.793-.8359c2.6221,0,3.249,1.4062,3.249,4.6543v5.0537h-1.7295v-5.0156c0-2.2031-.2656-3.1338-1.8809-3.1338-1.2344,0-2.4121.6074-2.4121.6074v7.542h-1.748v-9.499h1.7285Z"/><path d="m78.8105,64.0219h-1.748v-13.5449h1.748v13.5449Z"/><path d="m88.708,62.5209l.0381,1.3301s-2.166.3799-3.7803.3799c-2.8311,0-3.8564-1.5957-3.8564-4.8818,0-3.5527,1.5391-5.0352,4.0459-5.0352,2.6025,0,3.9141,1.3682,3.9141,4.4082l-.1143,1.2725h-6.0791c.0186,1.7861.6074,2.6973,2.3369,2.6973,1.4629,0,3.4951-.1709,3.4951-.1709Zm-1.3682-3.8945c0-2.127-.6455-2.8496-2.1846-2.8496-1.5,0-2.2793.7979-2.2979,2.8496h4.4824Z"/><path d="m92.9268,52.643h-1.748v-1.9189h1.748v1.9189Zm-1.748,1.8799h1.748v9.499h-1.748v-9.499Z"/><path d="m97.2773,54.5229v.627s1.4629-.8359,2.793-.8359c2.6221,0,3.249,1.4062,3.249,4.6543v5.0537h-1.7295v-5.0156c0-2.2031-.2656-3.1338-1.8809-3.1338-1.2344,0-2.4121.6074-2.4121.6074v7.542h-1.748v-9.499h1.7285Z"/><path d="m113.0088,62.5209l.0381,1.3301s-2.166.3799-3.7803.3799c-2.8311,0-3.8564-1.5957-3.8564-4.8818,0-3.5527,1.5391-5.0352,4.0459-5.0352,2.6025,0,3.9141,1.3682,3.9141,4.4082l-.1143,1.2725h-6.0791c.0186,1.7861.6074,2.6973,2.3369,2.6973,1.4629,0,3.4951-.1709,3.4951-.1709Zm-1.3682-3.8945c0-2.127-.6455-2.8496-2.1846-2.8496-1.5,0-2.2793.7979-2.2979,2.8496h4.4824Z"/><path d="m117.209,54.5229v.627s1.4619-.8359,2.792-.8359c2.6221,0,3.249,1.4062,3.249,4.6543v5.0537h-1.7295v-5.0156c0-2.2031-.2656-3.1338-1.8799-3.1338-1.2354,0-2.4131.6074-2.4131.6074v7.542h-1.748v-9.499h1.7295Z"/><path d="m18.4961,73.6186h1.1787v12.1396h6.041v1.0635h-7.2197v-13.2031Z"/><path d="m34.1143,85.8149l.0371.9307s-2.1465.2666-3.6279.2666c-2.8311-.0195-3.6855-1.7295-3.6855-4.9014,0-3.667,1.5957-4.9775,3.9131-4.9775,2.4512,0,3.7432,1.3105,3.7432,4.502l-.0381.9121h-6.459c0,2.2422.6455,3.4385,2.6406,3.4385,1.3867,0,3.4766-.1709,3.4766-.1709Zm-.7607-4.2178c0-2.5645-.8164-3.4766-2.6025-3.4766-1.7285,0-2.7539.9502-2.7539,3.4766h5.3564Z"/><path d="m44.6016,86.0805l-.0566.9121c-.9307,0-1.6338-.1895-2.1465-.7598,0,0-1.7861.7793-3.5713.7793-1.6719,0-2.6035-.9697-2.6035-2.8691,0-1.748.874-2.584,2.793-2.7734l3.2295-.3232v-.8926c0-1.4434-.6455-1.9951-1.8613-1.9951-1.3682,0-3.5908.2852-3.5908.2852l-.0566-.9121s2.0898-.3984,3.6855-.3984c2.0703,0,2.9443,1.0068,2.9443,3.0205v5.0908c.0566.5703.6074.7607,1.2344.8359Zm-5.623-.0381c1.5391,0,3.2676-.6641,3.2676-.6641v-3.4385l-3.0967.3223c-1.2725.1143-1.7471.7217-1.7471,1.8623,0,1.2158.5312,1.918,1.5762,1.918Z"/><path d="m49.1807,78.1782c-1.1777,0-2.2412.3232-2.2412,1.6143,0,.9883.4746,1.2734,2.5459,1.6152,2.4316.3984,3.3428.8359,3.3428,2.6592,0,2.2227-1.3867,2.9453-3.666,2.9453-1.1592,0-3.249-.3428-3.249-.3428l.0762-1.0068s2.1279.3232,3.0967.3232c1.6338,0,2.584-.3799,2.584-1.8613,0-1.1406-.5703-1.3867-2.6982-1.71-2.1846-.3418-3.1914-.7412-3.1914-2.584,0-2.0703,1.71-2.6787,3.3623-2.6787,1.4248,0,3.3633.3232,3.3633.3232l-.0381,1.0068s-2.0332-.3037-3.2871-.3037Z"/><path d="m55.1279,73.1059h1.1211v4.7686s1.5957-.7412,3.0771-.7412c2.6025,0,3.1729,1.2158,3.1729,4.6924v4.9961h-1.1396v-4.9395c0-2.792-.3047-3.7236-2.1855-3.7236-1.4814,0-2.9248.6465-2.9248.6465v8.0166h-1.1211v-13.7158Z"/><path d="m75.0195,86.8217v-.7031s-1.501.8936-3.0391.8936c-1.5957,0-3.3438-.5322-3.3438-4.8262,0-3.3242,1.0068-5.0527,3.9893-5.0527.8359,0,2.0332.1895,2.3936.2471v-4.2744h1.1396v13.7158h-1.1396Zm-2.9258-.8359c1.4443,0,2.9258-.8164,2.9258-.8164v-6.8018c-.3799-.0566-1.5957-.2275-2.3555-.2275-2.2607,0-2.8496,1.4434-2.8496,4.0459,0,3.3633,1.1777,3.7998,2.2793,3.7998Z"/><path d="m86.5527,81.9399c0,3.5898-.7979,5.0723-3.9697,5.0723-3.1924,0-3.9902-1.4824-3.9902-5.0723,0-3.3633,1.0449-4.8066,3.9902-4.8066,2.9248,0,3.9697,1.4434,3.9697,4.8066Zm-3.9697,4.0654c2.4502,0,2.8115-1.1592,2.8115-4.0654,0-2.8496-.6465-3.7998-2.8115-3.7998-2.1846,0-2.8115.9502-2.8115,3.7998,0,2.9062.3418,4.0654,2.8115,4.0654Z"/><path d="m88.5869,88.3989c0-1.1592.5322-1.6533,1.5391-2.3936-.3232-.209-.4756-.7031-.4756-1.292,0-.3232.6084-1.4824.6084-1.4824-.8174-.3418-1.5576-1.1016-1.5576-2.8682,0-2.3174,1.3672-3.2295,3.4385-3.2295.9873,0,1.9941.2471,1.9941.2471l2.7549-.0576v1.0068l-1.8994-.0371c.3984.3984.6836.9492.6836,2.0703,0,2.4121-1.1973,3.1729-3.5908,3.1729-.1709,0-.7598-.0381-.9688-.0762,0,0-.3799.9307-.3799,1.1777,0,.8164.1523.9121,2.4131.9307,2.583,0,3.5527.4561,3.5527,2.7549,0,2.1279-1.4248,3.001-4.1611,3.001-3.0586,0-3.9512-.7217-3.9512-2.9248Zm3.9707,1.9375c2.0898,0,2.9824-.5703,2.9824-1.9756,0-1.6152-.6836-1.7861-2.4697-1.7861-.7217,0-2.1465-.0762-2.1465-.0762-.9121.6465-1.1973,1.0068-1.1973,1.8242,0,1.4814.5127,2.0137,2.8311,2.0137Zm-.418-7.751c1.7471,0,2.374-.5889,2.374-2.2227,0-1.6523-.627-2.2793-2.374-2.2793-1.5957,0-2.2803.627-2.2803,2.2793,0,1.6338.6846,2.2227,2.2803,2.2227Z"/><path d="m101.5439,78.1782c-1.1777,0-2.2412.3232-2.2412,1.6143,0,.9883.4746,1.2734,2.5459,1.6152,2.4316.3984,3.3428.8359,3.3428,2.6592,0,2.2227-1.3867,2.9453-3.666,2.9453-1.1592,0-3.249-.3428-3.249-.3428l.0762-1.0068s2.1279.3232,3.0967.3232c1.6338,0,2.584-.3799,2.584-1.8613,0-1.1406-.5703-1.3867-2.6982-1.71-2.1846-.3418-3.1914-.7412-3.1914-2.584,0-2.0703,1.71-2.6787,3.3623-2.6787,1.4248,0,3.3633.3232,3.3633.3232l-.0381,1.0068s-2.0332-.3037-3.2871-.3037Z"/></g></g></svg>