<?xml version="1.0" encoding="UTF-8"?><svg id="Ebene_2" xmlns="http://www.w3.org/2000/svg" viewBox="0 0 91.4072 99.793"><g id="Components"><g id="_76a7db98-c349-4c54-8aa5-585fb899bf7a_4"><path d="m1.7861,72.7188H0v-13.0889h1.7861v6.0029l2.0518-.1143,3.0205-5.8887h2.0322l-3.4766,6.5732,3.6475,6.5156h-2.0898l-3.1152-5.623-2.0703.0947v5.5283Z"/><path d="m17.5547,71.2178l.0381,1.3301s-2.166.3799-3.7803.3799c-2.8311,0-3.8564-1.5957-3.8564-4.8818,0-3.5527,1.5391-5.0352,4.0459-5.0352,2.6025,0,3.9141,1.3682,3.9141,4.4082l-.1143,1.2725h-6.0791c.0186,1.7861.6074,2.6973,2.3369,2.6973,1.4629,0,3.4951-.1709,3.4951-.1709Zm-1.3682-3.8945c0-2.127-.6455-2.8496-2.1846-2.8496-1.5,0-2.2793.7979-2.2979,2.8496h4.4824Z"/><path d="m21.7734,61.3399h-1.748v-1.9189h1.748v1.9189Zm-1.748,1.8799h1.748v9.499h-1.748v-9.499Z"/><path d="m26.125,63.2198v.627s1.4619-.8359,2.792-.8359c2.6221,0,3.249,1.4062,3.249,4.6543v5.0537h-1.7295v-5.0156c0-2.2031-.2656-3.1338-1.8799-3.1338-1.2354,0-2.4131.6074-2.4131.6074v7.542h-1.748v-9.499h1.7295Z"/><path d="m41.8555,71.2178l.0381,1.3301s-2.166.3799-3.7803.3799c-2.8311,0-3.8564-1.5957-3.8564-4.8818,0-3.5527,1.5391-5.0352,4.0459-5.0352,2.6025,0,3.9141,1.3682,3.9141,4.4082l-.1143,1.2725h-6.0791c.0186,1.7861.6074,2.6973,2.3369,2.6973,1.4629,0,3.4951-.1709,3.4951-.1709Zm-1.3682-3.8945c0-2.127-.6455-2.8496-2.1846-2.8496-1.5,0-2.2793.7979-2.2979,2.8496h4.4824Z"/><path d="m56.3516,61.2061h-6.1924v4.75h5.1855v1.5762h-5.1855v5.1865h-1.7861v-13.0889h7.9785v1.5762Z"/><path d="m65.6816,67.8741c0,3.3057-.9121,5.0537-4.1416,5.0537s-4.1602-1.748-4.1602-5.0537c0-3.1719,1.0635-4.8633,4.1602-4.8633s4.1416,1.6914,4.1416,4.8633Zm-4.1416,3.5527c2.0137,0,2.375-1.1016,2.375-3.5527,0-2.4121-.5322-3.3623-2.375-3.3623s-2.375.9502-2.375,3.3623c0,2.4512.3613,3.5527,2.375,3.5527Z"/><path d="m71.2295,71.3702c.5322,0,1.6338-.0947,1.6338-.0947l.0957,1.4248s-1.2734.2275-1.9385.2275c-2.0518,0-2.7158-.7793-2.7158-3.5146v-4.6924h-1.292v-1.501h1.292v-2.8301h1.7285v2.8301h2.8115v1.501h-2.8115v4.3506c0,1.748.0947,2.2988,1.1963,2.2988Z"/><path d="m82.4395,67.8741c0,3.3057-.9121,5.0537-4.1416,5.0537s-4.1602-1.748-4.1602-5.0537c0-3.1719,1.0635-4.8633,4.1602-4.8633s4.1416,1.6914,4.1416,4.8633Zm-4.1416,3.5527c2.0137,0,2.375-1.1016,2.375-3.5527,0-2.4121-.5322-3.3623-2.375-3.3623s-2.375.9502-2.375,3.3623c0,2.4512.3613,3.5527,2.375,3.5527Z"/><path d="m87.7217,64.588c-1.1592,0-1.8613.2852-1.8613,1.2354,0,.7598.4365.9688,2.374,1.3105,2.3184.3984,3.1729.9121,3.1729,2.792,0,2.2227-1.4053,3.002-3.7236,3.002-1.2539,0-3.4189-.3994-3.4189-.3994l.0752-1.4814s2.2227.3037,3.1924.3037c1.4619,0,2.1465-.3037,2.1465-1.3672,0-.8359-.418-1.0645-2.3936-1.3682-2.1094-.3418-3.1543-.7783-3.1543-2.7354,0-2.1084,1.6719-2.8496,3.4766-2.8496,1.4062,0,3.5146.3799,3.5146.3799l-.0381,1.4814s-2.1846-.3037-3.3623-.3037Z"/><path d="m8.1504,82.3155l5.5283,12.1582h.4365v-12.1582h1.1592v13.2031h-2.2803l-5.5664-12.1396h-.417v12.1396h-1.1787v-13.2031h2.3184Z"/><path d="m25.8379,90.6368c0,3.5898-.7979,5.0723-3.9697,5.0723-3.1924,0-3.9902-1.4824-3.9902-5.0723,0-3.3633,1.0449-4.8066,3.9902-4.8066,2.9248,0,3.9697,1.4434,3.9697,4.8066Zm-3.9697,4.0654c2.4502,0,2.8115-1.1592,2.8115-4.0654,0-2.8496-.6465-3.7998-2.8115-3.7998-2.1846,0-2.8115.9502-2.8115,3.7998,0,2.9062.3418,4.0654,2.8115,4.0654Z"/><path d="m33.5918,86.0196v.7227s1.4814-.9121,3.001-.9121c2.375,0,3.3818,1.501,3.3818,4.8066,0,3.666-1.1592,5.0723-4.1035,5.0723-.9502,0-1.9375-.1719-2.2793-.2471v4.3311h-1.1211v-13.7734h1.1211Zm2.2412,8.6826c2.2041,0,2.9639-1.1406,2.9639-4.0654,0-2.7744-.8359-3.7812-2.3174-3.7812-1.4248,0-2.8877.8555-2.8877.8555v6.7627c.3223.0566,1.3291.2285,2.2412.2285Z"/><path d="m42.4072,81.8028h1.1211v4.7686s1.5957-.7412,3.0771-.7412c2.6025,0,3.1729,1.2158,3.1729,4.6924v4.9961h-1.1396v-4.9395c0-2.792-.3047-3.7236-2.1855-3.7236-1.4814,0-2.9248.6465-2.9248.6465v8.0166h-1.1211v-13.7158Z"/><path d="m60.0947,90.6368c0,3.5898-.7979,5.0723-3.9697,5.0723-3.1914,0-3.9902-1.4824-3.9902-5.0723,0-3.3633,1.0449-4.8066,3.9902-4.8066,2.9248,0,3.9697,1.4434,3.9697,4.8066Zm-3.9697,4.0654c2.4502,0,2.8115-1.1592,2.8115-4.0654,0-2.8496-.6465-3.7998-2.8115-3.7998-2.1846,0-2.8115.9502-2.8115,3.7998,0,2.9062.3418,4.0654,2.8115,4.0654Z"/><path d="m65.6055,94.7022c.5322,0,1.748-.1338,1.748-.1338l.0762.9688s-1.2539.1904-1.9189.1904c-1.8809,0-2.5645-.7031-2.5645-3.4385v-5.2627h-1.4062v-1.0068h1.4062v-2.9824h1.1396v2.9824h3.1729v1.0068h-3.1729v4.6924c0,2.375.1523,2.9834,1.5195,2.9834Z"/><path d="m76.6055,90.6368c0,3.5898-.7979,5.0723-3.9697,5.0723-3.1924,0-3.9902-1.4824-3.9902-5.0723,0-3.3633,1.0449-4.8066,3.9902-4.8066,2.9248,0,3.9697,1.4434,3.9697,4.8066Zm-3.9697,4.0654c2.4502,0,2.8115-1.1592,2.8115-4.0654,0-2.8496-.6465-3.7998-2.8115-3.7998-2.1846,0-2.8115.9502-2.8115,3.7998,0,2.9062.3418,4.0654,2.8115,4.0654Z"/><path d="m81.9258,86.8751c-1.1777,0-2.2412.3232-2.2412,1.6143,0,.9883.4746,1.2734,2.5459,1.6152,2.4316.3984,3.3428.8359,3.3428,2.6592,0,2.2227-1.3867,2.9453-3.666,2.9453-1.1592,0-3.249-.3428-3.249-.3428l.0762-1.0068s2.1279.3232,3.0967.3232c1.6338,0,2.584-.3799,2.584-1.8613,0-1.1406-.5703-1.3867-2.6982-1.71-2.1846-.3418-3.1914-.7412-3.1914-2.584,0-2.0703,1.71-2.6787,3.3633-2.6787,1.4238,0,3.3623.3232,3.3623.3232l-.0381,1.0068s-2.0332-.3037-3.2871-.3037Z"/><path d="m63.3869,31.2435c-2.8997.1041-7.4622.3047-10.3918.437-2.5864-.0027-7.0632-.0186-9.6931-.0239-2.6423.0054-7.0881.0211-9.6919.0239-2.9351-.1326-7.4792-.3325-10.3931-.437v-3.415l-2.1199.6901v3.7489l1.0049,1.0591c3.3611.262,8.0925.55,11.4858.7639,2.5964.0298,7.0742.0341,9.7141.04,2.6526-.0061,7.0999-.0101,9.7141-.04,3.3972-.2142,8.1133-.5012,11.4858-.7639l1.0051-1.0591V14.0684l-2.1201.6901v16.485Z"/><path d="m23.2177,18.9466V7.0296l11.6328-.6099.999-.9421.3621-3.2769c4.6726-.0765,9.5081-.0739,14.1809.001l.3621,3.2759.999.9421,11.6331.6099v2.501l2.1208-.6899v-2.8169l-1.0049-1.0591-11.739-.616-.365-3.304-1.054-.9441C46.0219-.0305,40.582-.0366,35.2597.1006l-1.0542.9441-.365,3.3049-11.739.615-1.0049,1.0591v17.2679l2.1211-.6901v-3.655Z"/><path d="m36.6359,23.4624c-.5308.1732-1.5996.521-2.1301.693,1.8979,2.965,5.2212,4.934,8.9951,4.934,6.1133.0223,11.0496-5.2274,10.6519-11.3269-.53.1729-1.5986.5205-2.1289.6929-.0583,8.21-10.6062,11.5437-15.3879,5.0071Z"/><path d="m32.8789,19.4583c.5247-.1714,1.582-.5156,2.1069-.686-.2139-4.8179,3.6912-8.8909,8.5151-8.879,2.9539,0,5.562,1.5111,7.0918,3.801.5249-.1709,1.5815-.5146,2.1062-.6849-5.8359-9.7101-20.7761-4.9781-19.8201,6.449Z"/><path d="m75.1489,7.2024c-21.2122,6.4434-43.0015,13.5281-63.9519,20.8088.1633.5027.4924,1.5148.656,2.0171,21.2244-6.4409,43.0146-13.5392,63.9531-20.8101l-.6572-2.0159Z"/></g></g></svg>