<?xml version="1.0" encoding="UTF-8"?><svg id="Ebene_2" xmlns="http://www.w3.org/2000/svg" viewBox="0 0 28.3464 28.3465"><g id="Components"><path id="da85f4b1-3283-406d-bc39-dbe5d56622ba_4" d="m26.9424,0H1.4041C.6287,0,0,.6287,0,1.4041v25.5383c0,.7754.6287,1.4041,1.4041,1.4041h25.5383c.7754,0,1.4041-.6287,1.4041-1.4041V1.4041c0-.7755-.6287-1.4041-1.4041-1.4041ZM9.6531,22.2476h-2.0254s.004-.491.0065-.7086c.0057-.385-.1165-.7142-.3033-1.0305-.0874-.148-.4926-.6616-.5702-.7878l1.9048-1.3531s.8922,1.4899.9714,2.0123c.08.5225.0162,1.8676.0162,1.8676Zm1.0417-.0007l-.0178-2.1782c-.0283-1.3209-3.0251-5.0471-3.0251-5.0471l3.3892-3.9957s2.4766,3.9592,2.4766,4.8846l.0388,6.3364h-2.8616Zm8.866.0004h-4.8547l.0056-6.2604c.0024-.4052-.0695-.7838-.1957-1.1631-.3842-1.1567-3.127-6.8104-3.127-6.8104l8.1718-2.8083v17.0421Z"/></g></svg>