<?xml version="1.0" encoding="UTF-8"?><svg id="Ebene_2" xmlns="http://www.w3.org/2000/svg" viewBox="0 0 58.8252 17.8682"><g id="Components"><g id="_1bf839d0-19cf-4328-9078-dd11908f3f89_4"><path d="m37.8472,10.693l9.6377-1.5348-.001-.4941-9.635-1.4778c-.8152-4.0922-4.4312-7.1863-8.7585-7.1863-4.2617,0-7.938,3.0225-8.7617,7.1929l-9.6309,1.4712-.001.4941,9.6384,1.5415c.8347,4.1606,4.4922,7.1685,8.7551,7.1685,4.3237,0,7.9377-3.0889,8.7568-7.1752ZM29.0903.5c4.0205,0,7.3882,2.832,8.2268,6.6047l-8.1887-1.2561-8.2676,1.2629c.8474-3.8433,4.2676-6.6116,8.2295-6.6116ZM12.3511,8.916l16.7393-2.5674v5.2451l-16.7393-2.6777Zm8.5171,1.8689l8.1831,1.3088,8.2625-1.3158c-.844,3.7656-4.2078,6.5902-8.2234,6.5902-3.9604,0-7.365-2.7517-8.2222-6.5833Z"/><polygon points="57.5566 11.7368 57.3965 11.7368 54.9619 5.0171 52.79 5.0171 52.79 12.8462 54.0586 12.8462 54.0586 6.1372 54.2305 6.1372 56.6074 12.8462 58.8252 12.8462 58.8252 5.0171 57.5566 5.0171 57.5566 11.7368"/><path d="m2.2402,9.5728c1.3369.3652,1.748.5371,1.748,1.2686,0,.6738-.4912,1.0166-1.4512,1.0166-.6631,0-2.2627-.1826-2.2627-.1826l-.1035,1.0283s1.4863.2744,2.4805.2744c1.5654,0,2.6055-.6514,2.6055-2.2285,0-1.3604-.7314-1.874-2.4229-2.3086-1.2002-.2861-1.5537-.5146-1.5537-1.1768,0-.8232.4453-1.2578,1.417-1.2578.8115,0,2.3545.2061,2.3545.2061l.125-1.0176s-1.543-.3086-2.5596-.3086c-1.543,0-2.6172.7432-2.6172,2.457,0,1.3379.5938,1.7715,2.2402,2.2295Z"/></g></g></svg>