<?xml version="1.0" encoding="UTF-8"?><svg id="Ebene_2" xmlns="http://www.w3.org/2000/svg" viewBox="0 0 28.3465 28.3465"><g id="Components"><g id="_6b2099ea-052b-4f98-8555-12e1a430e869_4"><circle cx="14.1732" cy="14.1732" r="14.1732" style="fill:none;"/><g><path d="m11.3891,8.0134l8.1716-2.8083v17.0421h-4.8546l.0057-6.2604c.0024-.4052-.0696-.7838-.1957-1.1631-.3842-1.1566-3.1269-6.8104-3.1269-6.8104"/><path d="m11.041,11.0259s2.4766,3.9592,2.4766,4.8845l.0388,6.3364h-2.8617l-.0178-2.1782c-.0283-1.3208-3.025-5.0471-3.025-5.0471l3.389-3.9956Z"/><path d="m6.7607,19.7208l1.9048-1.3532s.8921,1.4899.9714,2.0124c.0801.5225.0162,1.8676.0162,1.8676h-2.0253s.004-.491.0065-.7085c.0057-.385-.1165-.7142-.3033-1.0304-.0874-.148-.4926-.6616-.5702-.7878"/></g></g></g></svg>