<?xml version="1.0" encoding="UTF-8"?><svg id="uuid-c61122d0-a29a-4c9c-9344-5fa3e6e27328" xmlns="http://www.w3.org/2000/svg" viewBox="0 0 166.98 166.98"><defs><style>.uuid-a7a8656c-daec-45d9-af45-00d4f59df6c9{fill:#2b2c30;}.uuid-ac2e23b5-22b1-4d2b-8775-5015b8498a87{fill:#3c3c3b;}.uuid-c40e1265-71c7-4680-9169-e2de5b2006e7{fill:#fff;}</style></defs><g id="uuid-44d03adb-4c20-4419-abba-620fdc2b8263"><circle class="uuid-c40e1265-71c7-4680-9169-e2de5b2006e7" cx="83.49" cy="83.49" r="83.49"/><path class="uuid-ac2e23b5-22b1-4d2b-8775-5015b8498a87" d="M60.88,111.55h-2.13v-12.28h4.26c2.79,0,4.29,1.17,4.29,4.18,0,3.25-1.61,4.43-4.29,4.43h-2.13v3.68ZM62.88,106.12c1.46,0,2.24-.65,2.24-2.73,0-1.88-.78-2.38-2.26-2.38h-1.98v5.11h2Z"/><path class="uuid-ac2e23b5-22b1-4d2b-8775-5015b8498a87" d="M68.58,107.21c0-2.76.74-4.82,3.84-4.82,1.27,0,3.86.32,3.86.32v6.44c0,.63.09,2.38.09,2.38l-2.05.07s-.1-.72-.1-1.31c0,0-.87,1.45-2.49,1.45-2.32,0-3.15-1.54-3.15-4.54ZM72.19,110.1c1.2,0,2.03-1.52,2.03-1.52v-4.39s-1.16-.14-1.61-.14c-1.52,0-1.94,1.08-1.94,3.17,0,1.72.27,2.89,1.52,2.89Z"/><path class="uuid-ac2e23b5-22b1-4d2b-8775-5015b8498a87" d="M80.57,102.58l.02,1s.95-1.2,2.39-1.2c2.43,0,3.27,1.67,3.27,4.57,0,3.07-1.01,4.77-3.72,4.77-.87,0-1.92-.23-1.92-.23v3.91h-2.05v-12.82h2.01ZM82.28,110.08c1.46,0,1.88-1.08,1.88-3.12,0-1.76-.29-2.92-1.56-2.92-1.08,0-2,1.34-2,1.34v4.54s.95.16,1.67.16Z"/><path class="uuid-ac2e23b5-22b1-4d2b-8775-5015b8498a87" d="M88.09,99.16h2.09v2.08h-2.09v-2.08ZM90.16,102.58v8.96h-2.05v-8.96h2.05Z"/><path class="uuid-ac2e23b5-22b1-4d2b-8775-5015b8498a87" d="M99,109.79l.06,1.4s-1.41.54-3.19.54c-2.68,0-3.86-1.38-3.86-4.41,0-2.81,1.08-4.91,3.93-4.91,2.22,0,3.5.75,3.5,2.65,0,2.24-1.58,2.72-4.58,2.72h-.78v.29c0,1.2.65,1.99,1.94,1.99s2.98-.27,2.98-.27ZM94.86,106.33c1.77,0,2.54-.2,2.54-1.25,0-.84-.49-1.11-1.46-1.11-1.35,0-1.82.97-1.84,2.37h.76Z"/><path class="uuid-ac2e23b5-22b1-4d2b-8775-5015b8498a87" d="M103.2,102.58v1.31s1.2-1.17,2.68-1.51v2.03c-1.25.29-2.66,1.11-2.66,1.11v6.02h-2.05v-8.96h2.03Z"/><path class="uuid-ac2e23b5-22b1-4d2b-8775-5015b8498a87" d="M61.68,133.06v-12.46h4.12c2.74,0,4.12,1.13,4.12,3.93,0,2.94-1.48,4.25-4.1,4.25h-2.98v4.29h-1.16ZM65.77,127.79c1.94,0,2.94-.91,2.94-3.28,0-2.19-1.03-2.9-2.94-2.9h-2.93v6.19h2.93Z"/><path class="uuid-ac2e23b5-22b1-4d2b-8775-5015b8498a87" d="M71.41,128.77c0-2.9.72-4.86,3.78-4.86,1.01,0,3.23.31,3.23.31v6.72c0,.93.11,2.12.11,2.12l-1.14.04s-.09-.88-.09-1.65c0,0-1.08,1.79-2.91,1.79-2.22,0-2.98-1.56-2.98-4.46ZM74.6,132.29c1.56,0,2.7-2.03,2.7-2.03v-5.22s-1.41-.18-1.94-.18c-2.28,0-2.77,1.38-2.77,3.91,0,2.08.38,3.51,2.01,3.51Z"/><path class="uuid-ac2e23b5-22b1-4d2b-8775-5015b8498a87" d="M84.98,123.91c2.45,0,3.1,1.81,3.1,4.55,0,3.07-.97,4.77-3.76,4.77-.97,0-2.11-.23-2.11-.23v4.09h-1.14v-13h1.12l.02,1.45s1.12-1.63,2.77-1.63ZM84.22,132.29c2.13,0,2.7-1.36,2.7-3.82,0-1.94-.32-3.6-2.03-3.6-1.52,0-2.68,1.86-2.68,1.86v5.36s1.12.2,2.01.2Z"/><path class="uuid-ac2e23b5-22b1-4d2b-8775-5015b8498a87" d="M96.36,131.93l.08.81s-1.33.48-3.04.48c-2.43,0-3.46-1.34-3.46-4.55,0-3.03,1.16-4.73,3.82-4.73,1.8,0,3.02.7,3.02,2.31,0,2.13-1.41,2.73-4.62,2.73h-1.06v.25c0,1.88.68,3.07,2.36,3.07,1.35,0,2.91-.36,2.91-.36ZM92.16,128.09c2.51,0,3.48-.36,3.48-1.83,0-1.06-.74-1.42-1.9-1.42-1.86,0-2.6,1.17-2.64,3.25h1.06Z"/><path class="uuid-ac2e23b5-22b1-4d2b-8775-5015b8498a87" d="M103.12,123.91v1.15c-1.41.32-3.12,1.36-3.12,1.36v6.63h-1.14v-8.96h1.14v1.4s1.44-1.17,3.12-1.58Z"/><path class="uuid-a7a8656c-daec-45d9-af45-00d4f59df6c9" d="M68.83,27.26c2.07-.17,5.61.02,7.47.96,2.1,1.05,4.41,3.79,6.71,3.96,3.07.23,5.03-3.45,7.89-4.12,3.28-.77,5.27,2.05,6.78,4.44,2.06,3.26,3.82,6.81,5.79,10.14,2.29,3.88,4.82,7.62,7.11,11.49.92,1.55,2.31,3.75,2.45,5.56.34,4.38-5.68,5.17-8.84,5.77.08.86.21,1.77.21,2.64-.06,6.01-3.7,7.98-9.27,6.43-.38-.11-1.16-.49-1.46-.51-1.06-.07-2.76,1.48-3.31,2.33-2.03,3.1-3.27,5.75-6.95,7.34-3.42,1.48-10.73,3.68-13.63.5-2.08-2.28-.86-4.95-1.95-7.55-.43-1.03-1.17-1.77-2.02-2.46-3.8-3.09-7.97-5.9-11.58-9.22-1.38-1.28-3.29-3.4-1.87-5.33.56-.76,1.74-1.03,2.42-1.74.97-1.01.83-2.62.79-3.93-.1-3-1.08-8.91.19-11.5,1.08-2.21,4.71-3.79,6.75-5.02.12-.58.32-1.15.46-1.72,1.03-4.06.55-8.01,5.84-8.46ZM91.93,63.1c.76.16,1.54.31,2.32.39,4,.43,12.11.21,15.6-1.89.49-.3,1.05-.67,1.11-1.31.13-1.48-1.65-4.28-2.44-5.58-1.51-2.53-3.14-4.98-4.65-7.52-2.82-4.75-5.4-9.87-8.35-14.49-1.33-2.09-2.92-3.84-5.5-2.24-1.94,1.21-3.03,2.98-5.53,3.42-4.8.84-6.28-3.27-10.17-4.23-2.48-.61-7.56-1.27-8.49,1.89-.45,1.52-.55,3.3-.9,4.87,2.26-.88,4.4-2.09,6.67-2.94,1.29-.49,2.17-.97,3.17.36,1.55,2.07,1.58,7.11,1.29,9.6-.47,4.1-1.98,8.01-2.97,11.98l-1.65-.52c1.46-5.21,2.99-10.69,2.68-16.17-.04-.77-.22-1.86-.47-2.59-.07-.19-.41-1.06-.63-1.03-1.71.7-3.4,1.46-5.07,2.23-1.96.9-4.04,1.84-5.91,2.88-1.14.63-3.87,2.19-4.32,3.37-.63,1.68-.39,5.19-.31,7.07.13,3.19,1.13,7.15-1.98,9.32-.25.18-1.43.75-1.48.82-.5.79,1.2,2.32,1.73,2.81,2.62,2.44,5.81,4.84,8.64,7.06,1.45,1.14,3.84,2.57,4.84,4.03.78,1.14,1.32,2.71,1.5,4.08.26,2.1-.28,3.92,2.35,4.56,3.09.75,9.61-1.04,12.06-3.12s3.1-5.67,6.01-7.3l-4.29-2.19-2.81-1.19-1.69,8.48-1.41-.24c.46-2.84.48-5.75,1.05-8.57.24-1.18.35-2.17,1.88-1.93,1.14.18,3.73,1.42,4.87,1.95,3,1.4,7.9,4.68,11.24,3.52,2.68-.92,2.45-4.73,2.16-6.99-3.25-.04-6.54.21-9.72-.52-1.75-.4-2.51-.54-2.37-2.58.13-1.84.61-3.89.82-5.76.53-4.69.82-9.63.6-14.34-.03-.67-.15-1.35-.16-2.03l1.45-.21c.09.02.19.99.21,1.14.27,2.72.24,5.44.15,8.16-.03,1.02-.02,2.04-.08,3.06l-1.01,10.39Z"/><path class="uuid-a7a8656c-daec-45d9-af45-00d4f59df6c9" d="M64.6,47.96c.1.87.24,1.75.32,2.63.24,2.83.15,5.71.24,8.55.02.67-.02,1.34,0,2,.94-.13,2.11-.92,2.95-.08.28.28.74,1.09.96,1.47,1.44,2.38,2.49,5,4.09,7.29.18.09.96-.54,1.14-.67,2.63-1.98,4.36-5.05,6.4-7.58l1.25.63c-2.22,3-4.08,6.95-7.27,9.05-2.51,1.64-3.33-.43-4.43-2.29-1.2-2.01-2.25-4.12-3.37-6.17-1.36.38-3.79,1.36-3.77-.98.01-1.19.12-2.42.16-3.61.11-3.36.32-6.73,0-10.09l1.33-.15Z"/><path class="uuid-a7a8656c-daec-45d9-af45-00d4f59df6c9" d="M79.13,36.27c1.89.21,3.83.82,5.49,1.76,2.46,1.4,2.8,2.36,1.29,4.82-.99,1.61-2.37,3.13-3.69,4.47l-1.12-.8,3.35-5.74c-.04-.49-4.94-2.71-5.68-2.94l.37-1.57Z"/></g></svg>