<?xml version="1.0" encoding="UTF-8"?><svg id="uuid-849591e6-2a14-4fa0-98bd-a987811f207a" xmlns="http://www.w3.org/2000/svg" viewBox="0 0 166.98 166.98"><defs><style>.uuid-6ef0cb05-12ae-47b7-a251-50e89b830c76{fill:#2b2c30;}.uuid-febc5484-d49a-4bb7-9284-d2aa501e863d{fill:#fff;}.uuid-864d22b1-09a5-4861-b265-82df5ceaf5a0{fill:#222221;}</style></defs><g id="uuid-04c77190-1fed-4155-bb30-a3c911ae2b40"><circle class="uuid-febc5484-d49a-4bb7-9284-d2aa501e863d" cx="83.49" cy="83.49" r="83.49"/><path class="uuid-864d22b1-09a5-4861-b265-82df5ceaf5a0" d="M50.17,107.47v4.62h-2.13v-13.01h4.37c2.68,0,4.16,1.14,4.16,4.14,0,2.28-.82,3.29-1.9,3.8l2.19,5.07h-2.24l-1.92-4.62h-2.53ZM52.41,105.64c1.37,0,1.98-.78,1.98-2.43s-.61-2.32-1.98-2.32h-2.24v4.75h2.24Z"/><path class="uuid-864d22b1-09a5-4861-b265-82df5ceaf5a0" d="M65.01,110.22l.06,1.48s-1.41.57-3.19.57c-2.68,0-3.86-1.46-3.86-4.67,0-2.98,1.08-5.21,3.93-5.21,2.22,0,3.5.8,3.5,2.81,0,2.38-1.58,2.89-4.58,2.89h-.78v.3c0,1.27.65,2.11,1.94,2.11s2.98-.29,2.98-.29ZM60.86,106.56c1.77,0,2.54-.21,2.54-1.33,0-.89-.49-1.18-1.46-1.18-1.35,0-1.82,1.03-1.84,2.51h.76Z"/><path class="uuid-864d22b1-09a5-4861-b265-82df5ceaf5a0" d="M70.12,104.14c-.66,0-1.31.3-1.31,1.04s.4.95,1.65,1.25c1.98.48,3.13.8,3.13,2.81,0,2.36-1.39,3.04-3.57,3.04-1.52,0-3.29-.47-3.29-.47l.11-1.58s2.09.3,2.98.3c1.22,0,1.69-.28,1.69-1.1s-.47-.93-1.65-1.18c-2-.44-3.12-.99-3.12-2.91,0-2.15,1.62-2.96,3.23-2.96,1.75,0,3.29.44,3.29.44l-.08,1.58s-1.82-.27-3.08-.27Z"/><path class="uuid-864d22b1-09a5-4861-b265-82df5ceaf5a0" d="M78.63,110.55c.61,0,1.42-.11,1.42-.11l.09,1.58s-1.16.29-1.8.29c-2.13,0-2.64-1.08-2.64-3.02v-4.92h-1.08v-1.77h1.08v-2.6h2.05v2.6h2.32v1.77h-2.32v4.8c0,.84.17,1.39.87,1.39Z"/><path class="uuid-864d22b1-09a5-4861-b265-82df5ceaf5a0" d="M85.58,104.13c-.99,0-1.96,1.41-1.96,1.41v6.55h-2.05v-9.5h2.01l.02,1.14s1.03-1.35,2.49-1.35c1.9,0,2.47,1.48,2.47,1.48,0,0,1.25-1.48,2.72-1.48,2.15,0,3.02,1.65,3.02,4.06v5.64h-2.05v-5.36c0-1.84-.36-2.6-1.46-2.6-1.01,0-1.8,1.25-1.8,1.25,0,0,.08.68.08,1.27v5.43h-2.07v-5.17c0-2.05-.34-2.79-1.41-2.79Z"/><path class="uuid-864d22b1-09a5-4861-b265-82df5ceaf5a0" d="M96.43,102.59h2.05v5.36c0,1.84.38,2.6,1.46,2.6,1.03,0,1.98-1.4,1.98-1.4v-6.55h2.05v9.5h-2.01l-.02-1.14s-.99,1.35-2.49,1.35c-2.15,0-3.02-1.35-3.02-3.82v-5.89ZM99.32,98.29v2.22h-1.88v-2.22h1.88ZM101.2,98.29h1.84v2.22h-1.84v-2.22Z"/><path class="uuid-864d22b1-09a5-4861-b265-82df5ceaf5a0" d="M108.34,98.63v13.45h-2.07v-13.45h2.07Z"/><path class="uuid-864d22b1-09a5-4861-b265-82df5ceaf5a0" d="M112.73,98.63v13.45h-2.07v-13.45h2.07Z"/><path class="uuid-864d22b1-09a5-4861-b265-82df5ceaf5a0" d="M65.71,133.35l3.71-11.66h2.11v13.2h-1.12v-12.16h-.25l-3.72,11.72h-1.46l-3.72-11.72h-.25v12.16h-1.12v-13.2h2.11l3.72,11.66Z"/><path class="uuid-864d22b1-09a5-4861-b265-82df5ceaf5a0" d="M74.33,121.66h1.18v1.48h-1.18v-1.48ZM75.49,134.88h-1.14v-9.5h1.14v9.5Z"/><path class="uuid-864d22b1-09a5-4861-b265-82df5ceaf5a0" d="M83.04,125.38h1.16l-2.83,4.77,2.83,4.73h-1.2l-2.28-3.86-2.28,3.86h-1.18l2.83-4.71-2.85-4.79h1.2l2.32,3.93,2.28-3.93Z"/><path class="uuid-864d22b1-09a5-4861-b265-82df5ceaf5a0" d="M91.78,133.69l.08.86s-1.33.51-3.04.51c-2.43,0-3.46-1.42-3.46-4.82,0-3.21,1.16-5.02,3.82-5.02,1.8,0,3.02.74,3.02,2.45,0,2.26-1.41,2.89-4.62,2.89h-1.06v.27c0,2,.68,3.25,2.36,3.25,1.35,0,2.91-.38,2.91-.38ZM87.58,129.62c2.51,0,3.48-.38,3.48-1.94,0-1.12-.74-1.5-1.9-1.5-1.86,0-2.6,1.23-2.64,3.44h1.06Z"/><path class="uuid-864d22b1-09a5-4861-b265-82df5ceaf5a0" d="M96.89,135.07c-2.28,0-2.96-1.86-2.96-4.81,0-3.29.99-5.05,3.7-5.05,1.01,0,2.18.23,2.18.23v-4.28h1.12v13.72h-1.12v-1.52s-1.1,1.71-2.93,1.71ZM97.17,134.07c1.52,0,2.64-1.98,2.64-1.98v-5.68s-1.14-.21-2.11-.21c-2.03,0-2.6,1.48-2.6,4.06,0,2.05.32,3.8,2.07,3.8Z"/><path class="uuid-6ef0cb05-12ae-47b7-a251-50e89b830c76" d="M98.18,80.43c-.08.62-.26,1.36-.38,1.76-2.93,1.28-6.74,1.1-9.98,1.35-5.01.17-10.04.14-15.04-.12-3.09-.2-6.19-.35-9.14-1.13-.36-.12-1.02-.32-1.18-.53-1.04-3.4-1.08-7.05-1.42-10.6-.69-10.03-.97-20.12-1.26-30.19l-1.67.02c.09,10.11.35,20.19.99,30.3.29,3.5.42,7.08,1.27,10.53.12.4.29.89.56,1.22.68.76,1.34.88,2.14,1.16,3.15.83,6.42.98,9.6,1.18,5.08.25,10.14.26,15.22.07,2.46-.26,10.92-.02,11.69-2.71,1.01-3.81.92-7.69,1.2-11.56.44-10.11.49-20.2.49-30.31,0,0-1.64,0-1.64,0-.23,13.18-.05,26.44-1.44,39.55Z"/><polygon class="uuid-6ef0cb05-12ae-47b7-a251-50e89b830c76" points="70.06 46.12 68.47 46.17 69.14 75.76 71.14 75.7 70.06 46.12"/><polygon class="uuid-6ef0cb05-12ae-47b7-a251-50e89b830c76" points="81.1 44.82 79.78 44.82 79.44 77.02 81.44 77.02 81.1 44.82"/><polygon class="uuid-6ef0cb05-12ae-47b7-a251-50e89b830c76" points="90.13 46.15 89.09 75.7 91.09 75.75 91.34 46.18 90.13 46.15"/><path class="uuid-6ef0cb05-12ae-47b7-a251-50e89b830c76" d="M90.54,34.25c-.45-2.09-1.51-5.96-3.27-6.92-1.92-1.05-6.64-1.08-7.41-1.07-1.05-.11-5.68-.46-7.48,1.21-1.43,1.32-2.54,5.06-3,6.8-4.58.06-9.14.16-13.64.3v.83c4.04.15,8.09.22,12.13.28,7.05.13,17.11.08,24.26.03,4.04-.06,8.09-.13,12.13-.29v-.86c-4.52-.15-9.12-.24-13.73-.3ZM71.46,34.24c.57-2.03,1.47-4.55,2.28-5.3.87-.81,4.02-.89,5.97-.68h.11c1.87-.02,5.34.2,6.5.83.7.38,1.6,2.76,2.17,5.14-5.67-.06-11.36-.05-17.02.02Z"/></g></svg>