<svg xmlns="http://www.w3.org/2000/svg" viewBox="0 0 150 48" width="789" height="253"><g transform="translate(-0.13 0) scale(2.087) translate(0 0)"><path d="M5.7224,3.472L15.8254,0v21.07h-6.002l.007-7.74c.003-.501-.086-.969-.242-1.438-.475-1.43-3.866-8.42-3.866-8.42" fill="#ffffff"/><path d="M5.292,7.1965s3.062,4.895,3.062,6.039l.048,7.834h-3.538l-.022-2.693c-.035-1.633-3.74-6.24-3.74-6.24l4.19-4.94Z" fill="#ffffff"/><path d="M0,17.9464l2.355-1.673s1.103,1.842,1.201,2.488c.099.646.02,2.309.02,2.309H1.072s.005-.607.008-.876c.007-.476-.144-.883-.375-1.274-.108-.183-.609-.818-.705-.974" fill="#ffffff"/><g fill="#ffffff"><path d="M332 295H437V71C437 71 360 58 310 58C165 58 131 192 131 347C131 511 152 634 311 634C394 634 510 615 510 615L514 676C514 676 412 702 306 702C103 702 52 564 52 347C52 149 107 -10 302 -10C377 -10 514 12 514 12V361H332Z" transform="translate(19.5,10.05) scale(0.0103,-0.0103)"/><path d="M243 510C88 510 47 414 47 255C47 97 72 -10 243 -10C414 -10 439 97 439 255C439 414 397 510 243 510ZM243 55C129 55 119 133 119 255C119 382 144 445 243 445C342 445 367 382 367 255C367 133 357 55 243 55Z" transform="translate(25.4122,10.05) scale(0.0103,-0.0103)"/><path d="M238 55C157 55 121 114 121 208V223H173C338 223 415 254 415 375C415 470 350 509 248 509C105 509 45 408 45 242C45 66 102 -9 234 -9C325 -9 397 19 397 19L393 74C393 74 309 55 238 55ZM122 281C123 386 158 447 248 447C306 447 341 429 341 374C341 299 293 281 172 281Z" transform="translate(30.418,10.05) scale(0.0103,-0.0103)"/><path d="M305 435V500H164V648H90V500H25V435H90V141C90 46 119 -10 220 -10C254 -10 312 2 312 2L308 61C308 61 259 55 229 55C181 55 164 89 164 145V435Z" transform="translate(35.0839,10.05) scale(0.0103,-0.0103)"/><path d="M141 0V354C141 354 204 445 271 445C339 445 365 397 365 290V0H439V312C439 433 396 510 286 510C202 510 141 426 141 426V718H66V0Z" transform="translate(38.4211,10.05) scale(0.0103,-0.0103)"/><path d="M238 55C157 55 121 114 121 208V223H173C338 223 415 254 415 375C415 470 350 509 248 509C105 509 45 408 45 242C45 66 102 -9 234 -9C325 -9 397 19 397 19L393 74C393 74 309 55 238 55ZM122 281C123 386 158 447 248 447C306 447 341 429 341 374C341 299 293 281 172 281Z" transform="translate(43.5814,10.05) scale(0.0103,-0.0103)"/><path d="M207 -10C299 -10 353 84 353 84C353 44 358 -2 358 -2L433 1C433 1 427 76 427 123V493C427 493 304 510 247 510C85 510 47 399 47 240C47 76 88 -10 207 -10ZM256 445C283 445 352 436 352 436V159C352 159 298 55 222 55C142 55 123 130 123 240C123 374 148 445 256 445Z" transform="translate(48.2473,10.05) scale(0.0103,-0.0103)"/><path d="M141 0V352C141 352 204 445 271 445C339 445 365 397 365 290V0H439V311C439 433 395 510 286 510C202 510 141 425 141 425L140 500H66V0Z" transform="translate(53.3252,10.05) scale(0.0103,-0.0103)"/><path d="M361 500V148C361 148 298 55 231 55C162 55 137 103 137 210V500H62V193C62 58 107 -10 216 -10C300 -10 361 75 361 75L362 0H435V500Z" transform="translate(58.4855,10.05) scale(0.0103,-0.0103)"/><path d="M434 0V294C434 332 430 366 430 366C430 366 482 445 548 445C617 445 642 397 642 290V0H716V300C716 433 671 510 563 510C480 510 413 424 413 424C413 424 387 510 284 510C205 510 141 425 141 425L140 500H66V0H141V352C141 352 206 445 269 445C332 445 359 398 359 284V0Z" transform="translate(63.6561,10.05) scale(0.0103,-0.0103)"/></g><g fill="#ffffff"><path d="M77 692V0H312C450 0 523 58 523 197C523 281 493 330 415 359C470 384 503 429 503 519C503 642 428 692 306 692ZM308 320C398 320 443 284 443 201C443 109 402 67 311 67H153V320ZM306 625C384 625 424 590 424 512C424 439 389 386 307 386H153V625Z" transform="translate(19.5,20.05) scale(0.0103,-0.0103)"/><path d="M66 0H141V360C141 360 226 414 297 431V510C212 489 141 424 141 424V500H66Z" transform="translate(25.371000000000002,20.05) scale(0.0103,-0.0103)"/><path d="M66 0H141V500H66ZM65 605H142V694H65Z" transform="translate(28.605200000000004,20.05) scale(0.0103,-0.0103)"/><path d="M238 55C157 55 121 114 121 208V223H173C338 223 415 254 415 375C415 470 350 509 248 509C105 509 45 408 45 242C45 66 102 -9 234 -9C325 -9 397 19 397 19L393 74C393 74 309 55 238 55ZM122 281C123 386 158 447 248 447C306 447 341 429 341 374C341 299 293 281 172 281Z" transform="translate(30.737300000000005,20.05) scale(0.0103,-0.0103)"/><path d="M161 435H292V500H161V542C161 624 174 663 226 663C255 663 300 656 300 656L301 718C301 718 245 728 213 728C124 728 86 677 86 543V500H29V435H86V-222H154L161 0Z" transform="translate(35.403200000000005,20.05) scale(0.0103,-0.0103)"/><path d="M66 -222H141V3C141 3 200 -10 249 -10C395 -10 446 85 446 256C446 412 410 510 280 510C197 510 141 426 141 426L140 500H66ZM271 445C354 445 370 361 370 256C370 126 342 55 242 55C197 55 141 65 141 65V350C141 350 198 445 271 445Z" transform="translate(38.5962,20.05) scale(0.0103,-0.0103)"/><path d="M207 -10C299 -10 353 84 353 84C353 44 358 -2 358 -2L433 1C433 1 427 76 427 123V493C427 493 304 510 247 510C85 510 47 399 47 240C47 76 88 -10 207 -10ZM256 445C283 445 352 436 352 436V159C352 159 298 55 222 55C142 55 123 130 123 240C123 374 148 445 256 445Z" transform="translate(43.6638,20.05) scale(0.0103,-0.0103)"/><path d="M66 -222H141V3C141 3 200 -10 249 -10C395 -10 446 85 446 256C446 412 410 510 280 510C197 510 141 426 141 426L140 500H66ZM271 445C354 445 370 361 370 256C370 126 342 55 242 55C197 55 141 65 141 65V350C141 350 198 445 271 445Z" transform="translate(48.7417,20.05) scale(0.0103,-0.0103)"/><path d="M66 0H141V500H66ZM65 605H142V694H65Z" transform="translate(53.8093,20.05) scale(0.0103,-0.0103)"/><path d="M238 55C157 55 121 114 121 208V223H173C338 223 415 254 415 375C415 470 350 509 248 509C105 509 45 408 45 242C45 66 102 -9 234 -9C325 -9 397 19 397 19L393 74C393 74 309 55 238 55ZM122 281C123 386 158 447 248 447C306 447 341 429 341 374C341 299 293 281 172 281Z" transform="translate(55.9414,20.05) scale(0.0103,-0.0103)"/><path d="M66 0H141V360C141 360 226 414 297 431V510C212 489 141 424 141 424V500H66Z" transform="translate(60.6073,20.05) scale(0.0103,-0.0103)"/></g></g></svg>