<?xml version="1.0" encoding="UTF-8"?><svg id="uuid-8235c922-5ffe-4e9c-b681-9b9d4280970b" xmlns="http://www.w3.org/2000/svg" viewBox="0 0 54.01 28.35"><defs><style>.uuid-de8e3529-9db4-41b3-97ab-806b1ded16ed{fill:#fff;}</style></defs><g id="uuid-f6777aaa-ae8c-4a64-ae8f-9287dc59b923"><path class="uuid-de8e3529-9db4-41b3-97ab-806b1ded16ed" d="M14.17,0C6.35,0,0,6.35,0,14.17s6.35,14.17,14.17,14.17,14.17-6.35,14.17-14.17S22,0,14.17,0ZM9.65,22.25h-2.03s0-.49,0-.71c0-.39-.12-.71-.3-1.03-.09-.15-.49-.66-.57-.79l1.9-1.35s.89,1.49.97,2.01c.08.52.02,1.87.02,1.87ZM10.69,22.25l-.02-2.18c-.03-1.32-3.03-5.05-3.03-5.05l3.39-4s2.48,3.96,2.48,4.88l.04,6.34h-2.86ZM19.56,22.25h-4.85v-6.26c0-.41-.06-.78-.19-1.16-.38-1.16-3.13-6.81-3.13-6.81l8.17-2.81v17.04Z"/><path class="uuid-de8e3529-9db4-41b3-97ab-806b1ded16ed" d="M37.42,10.68v6.5c0,1.02.12,1.74.93,1.74.99,0,2.09-.15,2.09-.15l.17,2.93s-1.86.52-2.84.52c-3.45,0-4.23-1.68-4.23-4.82v-6.73h-1.45v-3.31h1.45v-3.71h3.89v3.71h3.16v3.31h-3.16Z"/><path class="uuid-de8e3529-9db4-41b3-97ab-806b1ded16ed" d="M45.25,7.37l2.2,11.28h.52l2.2-11.28h3.83l-3.36,14.5h-5.86l-3.36-14.5h3.83Z"/></g></svg>