<svg xmlns="http://www.w3.org/2000/svg" viewBox="0 0 37 37" preserveAspectRatio="xMidYMid meet" shape-rendering="geometricPrecision"><rect width="37" height="37" fill="#ffffff"/><path d="M12.5 4H13V5H12.5A0.5 0.5 0 0 1 12 4.5V4.5A0.5 0.5 0 0 1 12.5 4ZM13 4H13.5A0.5 0.5 0 0 1 14 4.5V4.5A0.5 0.5 0 0 1 13.5 5H13V4ZM19 5L18.5 5A0.5 0.5 0 0 0 19 4.5ZM19.5 4H20V5H19V4.5A0.5 0.5 0 0 1 19.5 4ZM20 4H20.5A0.5 0.5 0 0 1 21 4.5V4.5A0.5 0.5 0 0 1 20.5 5H20V4ZM23.5 4H24V5H23.5A0.5 0.5 0 0 1 23 4.5V4.5A0.5 0.5 0 0 1 23.5 4ZM24 4H24.5A0.5 0.5 0 0 1 25 4.5V5H24V4ZM18 6L17.5 6A0.5 0.5 0 0 0 18 5.5ZM18.5 5H19V6H18V5.5A0.5 0.5 0 0 1 18.5 5ZM19 5H20V6H19V5ZM20 5L20.5 5A0.5 0.5 0 0 0 20 5.5ZM21.5 5H22V6H21.5A0.5 0.5 0 0 1 21 5.5V5.5A0.5 0.5 0 0 1 21.5 5ZM22 5H22.5A0.5 0.5 0 0 1 23 5.5V6H22V5ZM24 5L24 5.5A0.5 0.5 0 0 0 23.5 5ZM24 5H25V6H24V5ZM12.5 6H12.5A0.5 0.5 0 0 1 13 6.5V7H12V6.5A0.5 0.5 0 0 1 12.5 6ZM13 7L13 6.5A0.5 0.5 0 0 0 13.5 7ZM15.5 6H16V7H15V6.5A0.5 0.5 0 0 1 15.5 6ZM16 6H17V7H16V6ZM17 6H18V7H17V6ZM18 6H19V7H18V6ZM19 6H20V6.5A0.5 0.5 0 0 1 19.5 7H19V6ZM22 6L22 6.5A0.5 0.5 0 0 0 21.5 6ZM22 6H23V6.5A0.5 0.5 0 0 1 22.5 7H22.5A0.5 0.5 0 0 1 22 6.5V6ZM24 6H25V6.5A0.5 0.5 0 0 1 24.5 7H24.5A0.5 0.5 0 0 1 24 6.5V6ZM12 7H13V8H12V7ZM13 7H13.5A0.5 0.5 0 0 1 14 7.5V8H13V7ZM14 8L14 7.5A0.5 0.5 0 0 0 14.5 8ZM15 8L14.5 8A0.5 0.5 0 0 0 15 7.5ZM15 7H16V8H15V7ZM16 7L16.5 7A0.5 0.5 0 0 0 16 7.5ZM20.5 7H21V8H20.5A0.5 0.5 0 0 1 20 7.5V7.5A0.5 0.5 0 0 1 20.5 7ZM21 7H21.5A0.5 0.5 0 0 1 22 7.5V7.5A0.5 0.5 0 0 1 21.5 8H21V7ZM23.5 7H23.5A0.5 0.5 0 0 1 24 7.5V8H23V7.5A0.5 0.5 0 0 1 23.5 7ZM12 8H13V9H12.5A0.5 0.5 0 0 1 12 8.5V8ZM13 8H14V9H13V8ZM14 8H15V9H14V8ZM15 8H16V8.5A0.5 0.5 0 0 1 15.5 9H15V8ZM17.5 8H17.5A0.5 0.5 0 0 1 18 8.5V8.5A0.5 0.5 0 0 1 17.5 9H17.5A0.5 0.5 0 0 1 17 8.5V8.5A0.5 0.5 0 0 1 17.5 8ZM23 9L22.5 9A0.5 0.5 0 0 0 23 8.5ZM23 8H24V9H23V8ZM24 9L24 8.5A0.5 0.5 0 0 0 24.5 9ZM13 9L13 9.5A0.5 0.5 0 0 0 12.5 9ZM13 9H14V9.5A0.5 0.5 0 0 1 13.5 10H13.5A0.5 0.5 0 0 1 13 9.5V9ZM14 9L14.5 9A0.5 0.5 0 0 0 14 9.5ZM16.5 9H16.5A0.5 0.5 0 0 1 17 9.5V10H16V9.5A0.5 0.5 0 0 1 16.5 9ZM18.5 9H18.5A0.5 0.5 0 0 1 19 9.5V10H18V9.5A0.5 0.5 0 0 1 18.5 9ZM22.5 9H23V10H22V9.5A0.5 0.5 0 0 1 22.5 9ZM23 9H24V10H23V9ZM24 9H24.5A0.5 0.5 0 0 1 25 9.5V10H24V9ZM12.5 10H12.5A0.5 0.5 0 0 1 13 10.5V10.5A0.5 0.5 0 0 1 12.5 11H12.5A0.5 0.5 0 0 1 12 10.5V10.5A0.5 0.5 0 0 1 12.5 10ZM14.5 10H14.5A0.5 0.5 0 0 1 15 10.5V10.5A0.5 0.5 0 0 1 14.5 11H14.5A0.5 0.5 0 0 1 14 10.5V10.5A0.5 0.5 0 0 1 14.5 10ZM16 10H17V10.5A0.5 0.5 0 0 1 16.5 11H16.5A0.5 0.5 0 0 1 16 10.5V10ZM18 11L17.5 11A0.5 0.5 0 0 0 18 10.5ZM18 10H19V11H18V10ZM20.5 10H20.5A0.5 0.5 0 0 1 21 10.5V10.5A0.5 0.5 0 0 1 20.5 11H20.5A0.5 0.5 0 0 1 20 10.5V10.5A0.5 0.5 0 0 1 20.5 10ZM22 11L21.5 11A0.5 0.5 0 0 0 22 10.5ZM22 10H23V11H22V10ZM23 10L23.5 10A0.5 0.5 0 0 0 23 10.5ZM24 10L24 10.5A0.5 0.5 0 0 0 23.5 10ZM24 10H25V11H24V10ZM13.5 11H13.5A0.5 0.5 0 0 1 14 11.5V11.5A0.5 0.5 0 0 1 13.5 12H13.5A0.5 0.5 0 0 1 13 11.5V11.5A0.5 0.5 0 0 1 13.5 11ZM15.5 11H15.5A0.5 0.5 0 0 1 16 11.5V11.5A0.5 0.5 0 0 1 15.5 12H15.5A0.5 0.5 0 0 1 15 11.5V11.5A0.5 0.5 0 0 1 15.5 11ZM17.5 11H18V12H17V11.5A0.5 0.5 0 0 1 17.5 11ZM18 11H19V12H18V11ZM21 12L20.5 12A0.5 0.5 0 0 0 21 11.5ZM21.5 11H22V12H21V11.5A0.5 0.5 0 0 1 21.5 11ZM22 11H23V11.5A0.5 0.5 0 0 1 22.5 12H22V11ZM24 11H25V11.5A0.5 0.5 0 0 1 24.5 12H24.5A0.5 0.5 0 0 1 24 11.5V11ZM4.5 12H5V13H4.5A0.5 0.5 0 0 1 4 12.5V12.5A0.5 0.5 0 0 1 4.5 12ZM5 12H6V13H5V12ZM6 12H7V13H6V12ZM7 12H7.5A0.5 0.5 0 0 1 8 12.5V13H7V12ZM10.5 12H10.5A0.5 0.5 0 0 1 11 12.5V12.5A0.5 0.5 0 0 1 10.5 13H10.5A0.5 0.5 0 0 1 10 12.5V12.5A0.5 0.5 0 0 1 10.5 12ZM12.5 12H12.5A0.5 0.5 0 0 1 13 12.5V13H12V12.5A0.5 0.5 0 0 1 12.5 12ZM13 13L13 12.5A0.5 0.5 0 0 0 13.5 13ZM17 12H18V13H17.5A0.5 0.5 0 0 1 17 12.5V12ZM18 12H19V12.5A0.5 0.5 0 0 1 18.5 13H18V12ZM20 13L19.5 13A0.5 0.5 0 0 0 20 12.5ZM20.5 12H21V13H20V12.5A0.5 0.5 0 0 1 20.5 12ZM21 12H22V13H21V12ZM22 12L22.5 12A0.5 0.5 0 0 0 22 12.5ZM22 13L22 12.5A0.5 0.5 0 0 0 22.5 13ZM23 13L22.5 13A0.5 0.5 0 0 0 23 12.5ZM23.5 12H23.5A0.5 0.5 0 0 1 24 12.5V13H23V12.5A0.5 0.5 0 0 1 23.5 12ZM24 13L24 12.5A0.5 0.5 0 0 0 24.5 13ZM25.5 12H25.5A0.5 0.5 0 0 1 26 12.5V12.5A0.5 0.5 0 0 1 25.5 13H25.5A0.5 0.5 0 0 1 25 12.5V12.5A0.5 0.5 0 0 1 25.5 12ZM28 13L27.5 13A0.5 0.5 0 0 0 28 12.5ZM28.5 12H29V13H28V12.5A0.5 0.5 0 0 1 28.5 12ZM29 12H30V13H29V12ZM30 12H30.5A0.5 0.5 0 0 1 31 12.5V12.5A0.5 0.5 0 0 1 30.5 13H30V12ZM32.5 12H32.5A0.5 0.5 0 0 1 33 12.5V13H32V12.5A0.5 0.5 0 0 1 32.5 12ZM5 13L5 13.5A0.5 0.5 0 0 0 4.5 13ZM5 14L4.5 14A0.5 0.5 0 0 0 5 13.5ZM5 13H6V14H5V13ZM6 13L6.5 13A0.5 0.5 0 0 0 6 13.5ZM7 13L7 13.5A0.5 0.5 0 0 0 6.5 13ZM7 13H8V14H7V13ZM12 13H13V14H12V13ZM13 13H13.5A0.5 0.5 0 0 1 14 13.5V13.5A0.5 0.5 0 0 1 13.5 14H13V13ZM19 14L18.5 14A0.5 0.5 0 0 0 19 13.5ZM19.5 13H20V14H19V13.5A0.5 0.5 0 0 1 19.5 13ZM20 13H21V14H20V13ZM21 13H22V14H21V13ZM22 13H23V14H22V13ZM23 13H24V14H23V13ZM24 13H24.5A0.5 0.5 0 0 1 25 13.5V13.5A0.5 0.5 0 0 1 24.5 14H24V13ZM26.5 13H27V14H26.5A0.5 0.5 0 0 1 26 13.5V13.5A0.5 0.5 0 0 1 26.5 13ZM27 13H28V14H27V13ZM28 13H29V13.5A0.5 0.5 0 0 1 28.5 14H28V13ZM29 13L29.5 13A0.5 0.5 0 0 0 29 13.5ZM32 13H33V13.5A0.5 0.5 0 0 1 32.5 14H32.5A0.5 0.5 0 0 1 32 13.5V13ZM4.5 14H5V15H4V14.5A0.5 0.5 0 0 1 4.5 14ZM5 14H6V15H5V14ZM6 15L6 14.5A0.5 0.5 0 0 0 6.5 15ZM7 14H8V14.5A0.5 0.5 0 0 1 7.5 15H7.5A0.5 0.5 0 0 1 7 14.5V14ZM9.5 14H10V15H9.5A0.5 0.5 0 0 1 9 14.5V14.5A0.5 0.5 0 0 1 9.5 14ZM10 14H10.5A0.5 0.5 0 0 1 11 14.5V14.5A0.5 0.5 0 0 1 10.5 15H10V14ZM12 14H13V14.5A0.5 0.5 0 0 1 12.5 15H12.5A0.5 0.5 0 0 1 12 14.5V14ZM13 14L13.5 14A0.5 0.5 0 0 0 13 14.5ZM18 15L17.5 15A0.5 0.5 0 0 0 18 14.5ZM18.5 14H19V15H18V14.5A0.5 0.5 0 0 1 18.5 14ZM19 14H20V15H19V14ZM20 14L20.5 14A0.5 0.5 0 0 0 20 14.5ZM22 14L22 14.5A0.5 0.5 0 0 0 21.5 14ZM22 14H23V14.5A0.5 0.5 0 0 1 22.5 15H22.5A0.5 0.5 0 0 1 22 14.5V14ZM23 14L23.5 14A0.5 0.5 0 0 0 23 14.5ZM27 14L27 14.5A0.5 0.5 0 0 0 26.5 14ZM27 14H28V15H27V14ZM28 14L28.5 14A0.5 0.5 0 0 0 28 14.5ZM28 15L28 14.5A0.5 0.5 0 0 0 28.5 15ZM30.5 14H31V15H30.5A0.5 0.5 0 0 1 30 14.5V14.5A0.5 0.5 0 0 1 30.5 14ZM31 14H31.5A0.5 0.5 0 0 1 32 14.5V14.5A0.5 0.5 0 0 1 31.5 15H31V14ZM4 15H5V16H4.5A0.5 0.5 0 0 1 4 15.5V15ZM5 15H6V16H5V15ZM6 15H6.5A0.5 0.5 0 0 1 7 15.5V15.5A0.5 0.5 0 0 1 6.5 16H6V15ZM11.5 15H11.5A0.5 0.5 0 0 1 12 15.5V15.5A0.5 0.5 0 0 1 11.5 16H11.5A0.5 0.5 0 0 1 11 15.5V15.5A0.5 0.5 0 0 1 11.5 15ZM15.5 15H16V16H15V15.5A0.5 0.5 0 0 1 15.5 15ZM16 15H17V16H16V15ZM17 15H18V16H17V15ZM18 15H19V16H18V15ZM19 15H20V15.5A0.5 0.5 0 0 1 19.5 16H19V15ZM23.5 15H24V16H23.5A0.5 0.5 0 0 1 23 15.5V15.5A0.5 0.5 0 0 1 23.5 15ZM24 15H25V16H24V15ZM25 15H25.5A0.5 0.5 0 0 1 26 15.5V16H25V15ZM27 15H28V16H27.5A0.5 0.5 0 0 1 27 15.5V15ZM28 15H28.5A0.5 0.5 0 0 1 29 15.5V15.5A0.5 0.5 0 0 1 28.5 16H28V15ZM32.5 15H32.5A0.5 0.5 0 0 1 33 15.5V15.5A0.5 0.5 0 0 1 32.5 16H32.5A0.5 0.5 0 0 1 32 15.5V15.5A0.5 0.5 0 0 1 32.5 15ZM7 17L6.5 17A0.5 0.5 0 0 0 7 16.5ZM7.5 16H7.5A0.5 0.5 0 0 1 8 16.5V17H7V16.5A0.5 0.5 0 0 1 7.5 16ZM10.5 16H10.5A0.5 0.5 0 0 1 11 16.5V16.5A0.5 0.5 0 0 1 10.5 17H10.5A0.5 0.5 0 0 1 10 16.5V16.5A0.5 0.5 0 0 1 10.5 16ZM12.5 16H13V17H12.5A0.5 0.5 0 0 1 12 16.5V16.5A0.5 0.5 0 0 1 12.5 16ZM13 16H13.5A0.5 0.5 0 0 1 14 16.5V17H13V16ZM14 17L14 16.5A0.5 0.5 0 0 0 14.5 17ZM15 17L14.5 17A0.5 0.5 0 0 0 15 16.5ZM15 16H16V17H15V16ZM16 16L16.5 16A0.5 0.5 0 0 0 16 16.5ZM21.5 16H21.5A0.5 0.5 0 0 1 22 16.5V17H21V16.5A0.5 0.5 0 0 1 21.5 16ZM25 16L25 16.5A0.5 0.5 0 0 0 24.5 16ZM25 16H26V16.5A0.5 0.5 0 0 1 25.5 17H25.5A0.5 0.5 0 0 1 25 16.5V16ZM29.5 16H30V17H29.5A0.5 0.5 0 0 1 29 16.5V16.5A0.5 0.5 0 0 1 29.5 16ZM30 16H30.5A0.5 0.5 0 0 1 31 16.5V17H30V16ZM31 17L31 16.5A0.5 0.5 0 0 0 31.5 17ZM4.5 17H4.5A0.5 0.5 0 0 1 5 17.5V17.5A0.5 0.5 0 0 1 4.5 18H4.5A0.5 0.5 0 0 1 4 17.5V17.5A0.5 0.5 0 0 1 4.5 17ZM6.5 17H7V18H6.5A0.5 0.5 0 0 1 6 17.5V17.5A0.5 0.5 0 0 1 6.5 17ZM7 17H8V17.5A0.5 0.5 0 0 1 7.5 18H7V17ZM9.5 17H9.5A0.5 0.5 0 0 1 10 17.5V17.5A0.5 0.5 0 0 1 9.5 18H9.5A0.5 0.5 0 0 1 9 17.5V17.5A0.5 0.5 0 0 1 9.5 17ZM11 18L10.5 18A0.5 0.5 0 0 0 11 17.5ZM11.5 17H11.5A0.5 0.5 0 0 1 12 17.5V18H11V17.5A0.5 0.5 0 0 1 11.5 17ZM13 17L13 17.5A0.5 0.5 0 0 0 12.5 17ZM12 18L12 17.5A0.5 0.5 0 0 0 12.5 18ZM13 18L12.5 18A0.5 0.5 0 0 0 13 17.5ZM13 17H14V18H13V17ZM14 17H15V18H14V17ZM15 17H16V17.5A0.5 0.5 0 0 1 15.5 18H15V17ZM17.5 17H17.5A0.5 0.5 0 0 1 18 17.5V17.5A0.5 0.5 0 0 1 17.5 18H17.5A0.5 0.5 0 0 1 17 17.5V17.5A0.5 0.5 0 0 1 17.5 17ZM21 17H22V18H21V17ZM23.5 17H23.5A0.5 0.5 0 0 1 24 17.5V18H23V17.5A0.5 0.5 0 0 1 23.5 17ZM26.5 17H26.5A0.5 0.5 0 0 1 27 17.5V17.5A0.5 0.5 0 0 1 26.5 18H26.5A0.5 0.5 0 0 1 26 17.5V17.5A0.5 0.5 0 0 1 26.5 17ZM30 17L30 17.5A0.5 0.5 0 0 0 29.5 17ZM30 17H31V18H30V17ZM31 17H32V18H31V17ZM32 17H32.5A0.5 0.5 0 0 1 33 17.5V18H32V17ZM10.5 18H11V19H10.5A0.5 0.5 0 0 1 10 18.5V18.5A0.5 0.5 0 0 1 10.5 18ZM11 18H12V19H11V18ZM12 18H13V19H12V18ZM13 18H14V18.5A0.5 0.5 0 0 1 13.5 19H13V18ZM14 18L14.5 18A0.5 0.5 0 0 0 14 18.5ZM16.5 18H16.5A0.5 0.5 0 0 1 17 18.5V19H16V18.5A0.5 0.5 0 0 1 16.5 18ZM17 19L17 18.5A0.5 0.5 0 0 0 17.5 19ZM18.5 18H18.5A0.5 0.5 0 0 1 19 18.5V18.5A0.5 0.5 0 0 1 18.5 19H18.5A0.5 0.5 0 0 1 18 18.5V18.5A0.5 0.5 0 0 1 18.5 18ZM21 18H22V18.5A0.5 0.5 0 0 1 21.5 19H21.5A0.5 0.5 0 0 1 21 18.5V18ZM23 18H24V18.5A0.5 0.5 0 0 1 23.5 19H23.5A0.5 0.5 0 0 1 23 18.5V18ZM25.5 18H25.5A0.5 0.5 0 0 1 26 18.5V19H25V18.5A0.5 0.5 0 0 1 25.5 18ZM26 19L26 18.5A0.5 0.5 0 0 0 26.5 19ZM27 19L26.5 19A0.5 0.5 0 0 0 27 18.5ZM27.5 18H28V19H27V18.5A0.5 0.5 0 0 1 27.5 18ZM28 18H28.5A0.5 0.5 0 0 1 29 18.5V18.5A0.5 0.5 0 0 1 28.5 19H28V18ZM30 18H31V19H30.5A0.5 0.5 0 0 1 30 18.5V18ZM31 18H32V19H31V18ZM32 18H33V18.5A0.5 0.5 0 0 1 32.5 19H32V18ZM4.5 19H5V20H4V19.5A0.5 0.5 0 0 1 4.5 19ZM5 19H5.5A0.5 0.5 0 0 1 6 19.5V20H5V19ZM6 20L6 19.5A0.5 0.5 0 0 0 6.5 20ZM8.5 19H8.5A0.5 0.5 0 0 1 9 19.5V19.5A0.5 0.5 0 0 1 8.5 20H8.5A0.5 0.5 0 0 1 8 19.5V19.5A0.5 0.5 0 0 1 8.5 19ZM11 19L11 19.5A0.5 0.5 0 0 0 10.5 19ZM11 19H12V19.5A0.5 0.5 0 0 1 11.5 20H11.5A0.5 0.5 0 0 1 11 19.5V19ZM12 19L12.5 19A0.5 0.5 0 0 0 12 19.5ZM14 20L13.5 20A0.5 0.5 0 0 0 14 19.5ZM14.5 19H14.5A0.5 0.5 0 0 1 15 19.5V20H14V19.5A0.5 0.5 0 0 1 14.5 19ZM15 20L15 19.5A0.5 0.5 0 0 0 15.5 20ZM16 19H17V20H16.5A0.5 0.5 0 0 1 16 19.5V19ZM17 19H17.5A0.5 0.5 0 0 1 18 19.5V19.5A0.5 0.5 0 0 1 17.5 20H17V19ZM19.5 19H19.5A0.5 0.5 0 0 1 20 19.5V20H19V19.5A0.5 0.5 0 0 1 19.5 19ZM25 20L24.5 20A0.5 0.5 0 0 0 25 19.5ZM25 19H26V20H25V19ZM26 19H27V20H26V19ZM27 19H28V20H27V19ZM28 19L28.5 19A0.5 0.5 0 0 0 28 19.5ZM28 20L28 19.5A0.5 0.5 0 0 0 28.5 20ZM31 19L31 19.5A0.5 0.5 0 0 0 30.5 19ZM31 19H32V20H31V19ZM32 19L32.5 19A0.5 0.5 0 0 0 32 19.5ZM4 20H5V21H4.5A0.5 0.5 0 0 1 4 20.5V20ZM5 20H6V21H5V20ZM6 20H7V21H6V20ZM7 20H7.5A0.5 0.5 0 0 1 8 20.5V20.5A0.5 0.5 0 0 1 7.5 21H7V20ZM9.5 20H10V21H9.5A0.5 0.5 0 0 1 9 20.5V20.5A0.5 0.5 0 0 1 9.5 20ZM10 20H10.5A0.5 0.5 0 0 1 11 20.5V20.5A0.5 0.5 0 0 1 10.5 21H10V20ZM13.5 20H14V21H13V20.5A0.5 0.5 0 0 1 13.5 20ZM14 20H15V21H14V20ZM15 20H15.5A0.5 0.5 0 0 1 16 20.5V20.5A0.5 0.5 0 0 1 15.5 21H15V20ZM19 20H20V21H19V20ZM22.5 20H23V21H22.5A0.5 0.5 0 0 1 22 20.5V20.5A0.5 0.5 0 0 1 22.5 20ZM23 20H24V21H23V20ZM24 20H25V21H24V20ZM25 20H26V20.5A0.5 0.5 0 0 1 25.5 21H25V20ZM26 20L26.5 20A0.5 0.5 0 0 0 26 20.5ZM27 20L27 20.5A0.5 0.5 0 0 0 26.5 20ZM27 20H28V21H27V20ZM28 20H29V21H28V20ZM29 20H29.5A0.5 0.5 0 0 1 30 20.5V21H29V20ZM30 21L30 20.5A0.5 0.5 0 0 0 30.5 21ZM31 21L30.5 21A0.5 0.5 0 0 0 31 20.5ZM31 20H32V21H31V20ZM13 21H14V22H13.5A0.5 0.5 0 0 1 13 21.5V21ZM14 21H15V21.5A0.5 0.5 0 0 1 14.5 22H14V21ZM15 21L15.5 21A0.5 0.5 0 0 0 15 21.5ZM16 22L15.5 22A0.5 0.5 0 0 0 16 21.5ZM16.5 21H17V22H16V21.5A0.5 0.5 0 0 1 16.5 21ZM17 21H17.5A0.5 0.5 0 0 1 18 21.5V21.5A0.5 0.5 0 0 1 17.5 22H17V21ZM19 21H20V22H19V21ZM20 22L20 21.5A0.5 0.5 0 0 0 20.5 22ZM21.5 21H21.5A0.5 0.5 0 0 1 22 21.5V21.5A0.5 0.5 0 0 1 21.5 22H21.5A0.5 0.5 0 0 1 21 21.5V21.5A0.5 0.5 0 0 1 21.5 21ZM24 21L24 21.5A0.5 0.5 0 0 0 23.5 21ZM24 21H25V21.5A0.5 0.5 0 0 1 24.5 22H24.5A0.5 0.5 0 0 1 24 21.5V21ZM25 21L25.5 21A0.5 0.5 0 0 0 25 21.5ZM27 21H28V22H27V21ZM28 21L28.5 21A0.5 0.5 0 0 0 28 21.5ZM29 21L29 21.5A0.5 0.5 0 0 0 28.5 21ZM29 21H30V22H29.5A0.5 0.5 0 0 1 29 21.5V21ZM30 21H31V22H30V21ZM31 21H32V21.5A0.5 0.5 0 0 1 31.5 22H31V21ZM4.5 22H4.5A0.5 0.5 0 0 1 5 22.5V22.5A0.5 0.5 0 0 1 4.5 23H4.5A0.5 0.5 0 0 1 4 22.5V22.5A0.5 0.5 0 0 1 4.5 22ZM6.5 22H6.5A0.5 0.5 0 0 1 7 22.5V23H6V22.5A0.5 0.5 0 0 1 6.5 22ZM10.5 22H10.5A0.5 0.5 0 0 1 11 22.5V22.5A0.5 0.5 0 0 1 10.5 23H10.5A0.5 0.5 0 0 1 10 22.5V22.5A0.5 0.5 0 0 1 10.5 22ZM15.5 22H16V23H15.5A0.5 0.5 0 0 1 15 22.5V22.5A0.5 0.5 0 0 1 15.5 22ZM16 22H17V23H16V22ZM17 22L17.5 22A0.5 0.5 0 0 0 17 22.5ZM19 22H20V23H19V22ZM20 22H20.5A0.5 0.5 0 0 1 21 22.5V23H20V22ZM21 23L21 22.5A0.5 0.5 0 0 0 21.5 23ZM22.5 22H22.5A0.5 0.5 0 0 1 23 22.5V22.5A0.5 0.5 0 0 1 22.5 23H22.5A0.5 0.5 0 0 1 22 22.5V22.5A0.5 0.5 0 0 1 22.5 22ZM27 22H28V22.5A0.5 0.5 0 0 1 27.5 23H27.5A0.5 0.5 0 0 1 27 22.5V22ZM30 22L30 22.5A0.5 0.5 0 0 0 29.5 22ZM30 22H31V23H30V22ZM31 22L31.5 22A0.5 0.5 0 0 0 31 22.5ZM6 23H7V23.5A0.5 0.5 0 0 1 6.5 24H6.5A0.5 0.5 0 0 1 6 23.5V23ZM9.5 23H9.5A0.5 0.5 0 0 1 10 23.5V23.5A0.5 0.5 0 0 1 9.5 24H9.5A0.5 0.5 0 0 1 9 23.5V23.5A0.5 0.5 0 0 1 9.5 23ZM13.5 23H13.5A0.5 0.5 0 0 1 14 23.5V24H13V23.5A0.5 0.5 0 0 1 13.5 23ZM14 24L14 23.5A0.5 0.5 0 0 0 14.5 24ZM16 23L16 23.5A0.5 0.5 0 0 0 15.5 23ZM16 24L15.5 24A0.5 0.5 0 0 0 16 23.5ZM16 23H17V24H16V23ZM17 24L17 23.5A0.5 0.5 0 0 0 17.5 24ZM19 23H20V24H19V23ZM20 23H21V24H20V23ZM21 23H21.5A0.5 0.5 0 0 1 22 23.5V24H21V23ZM25 24L24.5 24A0.5 0.5 0 0 0 25 23.5ZM25.5 23H26V24H25V23.5A0.5 0.5 0 0 1 25.5 23ZM26 23H26.5A0.5 0.5 0 0 1 27 23.5V24H26V23ZM27 24L27 23.5A0.5 0.5 0 0 0 27.5 24ZM28 24L27.5 24A0.5 0.5 0 0 0 28 23.5ZM28.5 23H28.5A0.5 0.5 0 0 1 29 23.5V24H28V23.5A0.5 0.5 0 0 1 28.5 23ZM29 24L29 23.5A0.5 0.5 0 0 0 29.5 24ZM30 24L29.5 24A0.5 0.5 0 0 0 30 23.5ZM30 23H31V24H30V23ZM5.5 24H5.5A0.5 0.5 0 0 1 6 24.5V24.5A0.5 0.5 0 0 1 5.5 25H5.5A0.5 0.5 0 0 1 5 24.5V24.5A0.5 0.5 0 0 1 5.5 24ZM10.5 24H11V25H10.5A0.5 0.5 0 0 1 10 24.5V24.5A0.5 0.5 0 0 1 10.5 24ZM11 24H11.5A0.5 0.5 0 0 1 12 24.5V24.5A0.5 0.5 0 0 1 11.5 25H11V24ZM13 24H14V25H13.5A0.5 0.5 0 0 1 13 24.5V24ZM14 24H15V25H14V24ZM15 24H16V25H15V24ZM16 24H17V25H16V24ZM17 24H17.5A0.5 0.5 0 0 1 18 24.5V25H17V24ZM18 25L18 24.5A0.5 0.5 0 0 0 18.5 25ZM19 24H20V25H19.5A0.5 0.5 0 0 1 19 24.5V24ZM20 24H21V25H20V24ZM21 24H22V25H21V24ZM22 25L22 24.5A0.5 0.5 0 0 0 22.5 25ZM23 25L22.5 25A0.5 0.5 0 0 0 23 24.5ZM23.5 24H24V25H23V24.5A0.5 0.5 0 0 1 23.5 24ZM24 24H25V25H24V24ZM25 24H26V25H25V24ZM26 24H27V25H26V24ZM27 24H28V25H27V24ZM28 24H29V25H28V24ZM29 24H30V25H29V24ZM30 24H31V25H30V24ZM31 25L31 24.5A0.5 0.5 0 0 0 31.5 25ZM12.5 25H12.5A0.5 0.5 0 0 1 13 25.5V25.5A0.5 0.5 0 0 1 12.5 26H12.5A0.5 0.5 0 0 1 12 25.5V25.5A0.5 0.5 0 0 1 12.5 25ZM14 25L14 25.5A0.5 0.5 0 0 0 13.5 25ZM14 26L13.5 26A0.5 0.5 0 0 0 14 25.5ZM14 25H15V26H14V25ZM15 25L15.5 25A0.5 0.5 0 0 0 15 25.5ZM16 25L16 25.5A0.5 0.5 0 0 0 15.5 25ZM15 26L15 25.5A0.5 0.5 0 0 0 15.5 26ZM16 26L15.5 26A0.5 0.5 0 0 0 16 25.5ZM16 25H17V26H16V25ZM17 25H18V26H17V25ZM18 25H18.5A0.5 0.5 0 0 1 19 25.5V25.5A0.5 0.5 0 0 1 18.5 26H18V25ZM20 25L20 25.5A0.5 0.5 0 0 0 19.5 25ZM20 25H21V26H20.5A0.5 0.5 0 0 1 20 25.5V25ZM21 25H22V26H21V25ZM22 25H23V26H22V25ZM23 25H24V26H23V25ZM24 25H25V26H24V25ZM25 25L25.5 25A0.5 0.5 0 0 0 25 25.5ZM28 25L28 25.5A0.5 0.5 0 0 0 27.5 25ZM28 25H29V26H28V25ZM29 25H30V26H29V25ZM30 25H31V26H30V25ZM31 25H32V26H31V25ZM32 25H32.5A0.5 0.5 0 0 1 33 25.5V25.5A0.5 0.5 0 0 1 32.5 26H32V25ZM13.5 26H14V27H13V26.5A0.5 0.5 0 0 1 13.5 26ZM14 26H15V27H14V26ZM15 26H16V27H15V26ZM16 26H17V27H16V26ZM17 26H18V26.5A0.5 0.5 0 0 1 17.5 27H17V26ZM18 26L18.5 26A0.5 0.5 0 0 0 18 26.5ZM22 26L22 26.5A0.5 0.5 0 0 0 21.5 26ZM22 26H23V27H22V26ZM23 26H24V27H23V26ZM24 26H25V27H24V26ZM26.5 26H26.5A0.5 0.5 0 0 1 27 26.5V26.5A0.5 0.5 0 0 1 26.5 27H26.5A0.5 0.5 0 0 1 26 26.5V26.5A0.5 0.5 0 0 1 26.5 26ZM28 26H29V27H28V26ZM29 26H30V27H29V26ZM30 26L30.5 26A0.5 0.5 0 0 0 30 26.5ZM31 26L31 26.5A0.5 0.5 0 0 0 30.5 26ZM31 26H32V27H31V26ZM32 26L32.5 26A0.5 0.5 0 0 0 32 26.5ZM32 27L32 26.5A0.5 0.5 0 0 0 32.5 27ZM13 27H14V28H13V27ZM14 27L14.5 27A0.5 0.5 0 0 0 14 27.5ZM20.5 27H20.5A0.5 0.5 0 0 1 21 27.5V27.5A0.5 0.5 0 0 1 20.5 28H20.5A0.5 0.5 0 0 1 20 27.5V27.5A0.5 0.5 0 0 1 20.5 27ZM22 27H23V27.5A0.5 0.5 0 0 1 22.5 28H22.5A0.5 0.5 0 0 1 22 27.5V27ZM23 27L23.5 27A0.5 0.5 0 0 0 23 27.5ZM24 27L24 27.5A0.5 0.5 0 0 0 23.5 27ZM24 27H25V28H24V27ZM25 28L25 27.5A0.5 0.5 0 0 0 25.5 28ZM28 28L27.5 28A0.5 0.5 0 0 0 28 27.5ZM28 27H29V28H28V27ZM29 27H30V27.5A0.5 0.5 0 0 1 29.5 28H29V27ZM31 28L30.5 28A0.5 0.5 0 0 0 31 27.5ZM31 27H32V28H31V27ZM32 27H32.5A0.5 0.5 0 0 1 33 27.5V27.5A0.5 0.5 0 0 1 32.5 28H32V27ZM13 29L12.5 29A0.5 0.5 0 0 0 13 28.5ZM13 28H14V29H13V28ZM16 29L15.5 29A0.5 0.5 0 0 0 16 28.5ZM16.5 28H16.5A0.5 0.5 0 0 1 17 28.5V29H16V28.5A0.5 0.5 0 0 1 16.5 28ZM18.5 28H18.5A0.5 0.5 0 0 1 19 28.5V29H18V28.5A0.5 0.5 0 0 1 18.5 28ZM19 29L19 28.5A0.5 0.5 0 0 0 19.5 29ZM21 29L20.5 29A0.5 0.5 0 0 0 21 28.5ZM21.5 28H21.5A0.5 0.5 0 0 1 22 28.5V29H21V28.5A0.5 0.5 0 0 1 21.5 28ZM22 29L22 28.5A0.5 0.5 0 0 0 22.5 29ZM24 29L23.5 29A0.5 0.5 0 0 0 24 28.5ZM24 28H25V29H24V28ZM25 28H26V29H25V28ZM26 28H27V29H26V28ZM27 28H28V29H27V28ZM28 28H29V29H28V28ZM29 28L29.5 28A0.5 0.5 0 0 0 29 28.5ZM29 29L29 28.5A0.5 0.5 0 0 0 29.5 29ZM30.5 28H31V29H30.5A0.5 0.5 0 0 1 30 28.5V28.5A0.5 0.5 0 0 1 30.5 28ZM31 28H32V28.5A0.5 0.5 0 0 1 31.5 29H31V28ZM32 28L32.5 28A0.5 0.5 0 0 0 32 28.5ZM12.5 29H13V30H12V29.5A0.5 0.5 0 0 1 12.5 29ZM13 29H14V29.5A0.5 0.5 0 0 1 13.5 30H13V29ZM15 30L14.5 30A0.5 0.5 0 0 0 15 29.5ZM15.5 29H16V30H15V29.5A0.5 0.5 0 0 1 15.5 29ZM16 29H17V29.5A0.5 0.5 0 0 1 16.5 30H16V29ZM18 29H19V30H18.5A0.5 0.5 0 0 1 18 29.5V29ZM19 29H20V30H19V29ZM20 29H21V30H20V29ZM21 29H22V30H21V29ZM22 29H23V30H22V29ZM23 29H24V30H23V29ZM24 29H25V30H24V29ZM25 29H26V29.5A0.5 0.5 0 0 1 25.5 30H25V29ZM26 29L26.5 29A0.5 0.5 0 0 0 26 29.5ZM27 29L27 29.5A0.5 0.5 0 0 0 26.5 29ZM27 29H28V30H27V29ZM28 29H29V30H28V29ZM29 29H29.5A0.5 0.5 0 0 1 30 29.5V29.5A0.5 0.5 0 0 1 29.5 30H29V29ZM32.5 29H32.5A0.5 0.5 0 0 1 33 29.5V30H32V29.5A0.5 0.5 0 0 1 32.5 29ZM12 30H13V31H12V30ZM13 30L13.5 30A0.5 0.5 0 0 0 13 30.5ZM13 31L13 30.5A0.5 0.5 0 0 0 13.5 31ZM14.5 30H15V31H14.5A0.5 0.5 0 0 1 14 30.5V30.5A0.5 0.5 0 0 1 14.5 30ZM15 30H16V31H15V30ZM16 30L16.5 30A0.5 0.5 0 0 0 16 30.5ZM17.5 30H17.5A0.5 0.5 0 0 1 18 30.5V30.5A0.5 0.5 0 0 1 17.5 31H17.5A0.5 0.5 0 0 1 17 30.5V30.5A0.5 0.5 0 0 1 17.5 30ZM21 30L21 30.5A0.5 0.5 0 0 0 20.5 30ZM21 30H22V30.5A0.5 0.5 0 0 1 21.5 31H21.5A0.5 0.5 0 0 1 21 30.5V30ZM22 30L22.5 30A0.5 0.5 0 0 0 22 30.5ZM27 30H28V30.5A0.5 0.5 0 0 1 27.5 31H27.5A0.5 0.5 0 0 1 27 30.5V30ZM28 30L28.5 30A0.5 0.5 0 0 0 28 30.5ZM30.5 30H30.5A0.5 0.5 0 0 1 31 30.5V30.5A0.5 0.5 0 0 1 30.5 31H30.5A0.5 0.5 0 0 1 30 30.5V30.5A0.5 0.5 0 0 1 30.5 30ZM32 30H33V30.5A0.5 0.5 0 0 1 32.5 31H32.5A0.5 0.5 0 0 1 32 30.5V30ZM12 31H13V32H12V31ZM13 31H13.5A0.5 0.5 0 0 1 14 31.5V32H13V31ZM15 31L15 31.5A0.5 0.5 0 0 0 14.5 31ZM14 32L14 31.5A0.5 0.5 0 0 0 14.5 32ZM15 31H16V31.5A0.5 0.5 0 0 1 15.5 32H15.5A0.5 0.5 0 0 1 15 31.5V31ZM18.5 31H18.5A0.5 0.5 0 0 1 19 31.5V32H18V31.5A0.5 0.5 0 0 1 18.5 31ZM19 32L19 31.5A0.5 0.5 0 0 0 19.5 32ZM20.5 31H20.5A0.5 0.5 0 0 1 21 31.5V31.5A0.5 0.5 0 0 1 20.5 32H20.5A0.5 0.5 0 0 1 20 31.5V31.5A0.5 0.5 0 0 1 20.5 31ZM24 32L23.5 32A0.5 0.5 0 0 0 24 31.5ZM24.5 31H24.5A0.5 0.5 0 0 1 25 31.5V32H24V31.5A0.5 0.5 0 0 1 24.5 31ZM25 32L25 31.5A0.5 0.5 0 0 0 25.5 32ZM26 32L25.5 32A0.5 0.5 0 0 0 26 31.5ZM26.5 31H26.5A0.5 0.5 0 0 1 27 31.5V32H26V31.5A0.5 0.5 0 0 1 26.5 31ZM28.5 31H29V32H28.5A0.5 0.5 0 0 1 28 31.5V31.5A0.5 0.5 0 0 1 28.5 31ZM29 31H29.5A0.5 0.5 0 0 1 30 31.5V32H29V31ZM31.5 31H31.5A0.5 0.5 0 0 1 32 31.5V32H31V31.5A0.5 0.5 0 0 1 31.5 31ZM12 32H13V33H12.5A0.5 0.5 0 0 1 12 32.5V32ZM13 32H14V33H13V32ZM14 32H14.5A0.5 0.5 0 0 1 15 32.5V32.5A0.5 0.5 0 0 1 14.5 33H14V32ZM16.5 32H16.5A0.5 0.5 0 0 1 17 32.5V32.5A0.5 0.5 0 0 1 16.5 33H16.5A0.5 0.5 0 0 1 16 32.5V32.5A0.5 0.5 0 0 1 16.5 32ZM18 32H19V33H18.5A0.5 0.5 0 0 1 18 32.5V32ZM19 32H19.5A0.5 0.5 0 0 1 20 32.5V32.5A0.5 0.5 0 0 1 19.5 33H19V32ZM23.5 32H24V33H23.5A0.5 0.5 0 0 1 23 32.5V32.5A0.5 0.5 0 0 1 23.5 32ZM24 32H25V33H24V32ZM25 32H26V33H25V32ZM26 32H27V32.5A0.5 0.5 0 0 1 26.5 33H26V32ZM29 32L29 32.5A0.5 0.5 0 0 0 28.5 32ZM29 32H30V32.5A0.5 0.5 0 0 1 29.5 33H29.5A0.5 0.5 0 0 1 29 32.5V32ZM31 32H32V32.5A0.5 0.5 0 0 1 31.5 33H31.5A0.5 0.5 0 0 1 31 32.5V32Z" fill="#141414"/><path fill-rule="evenodd" d="M6.3 4H8.7A2.3 2.3 0 0 1 11 6.3V8.7A2.3 2.3 0 0 1 8.7 11H6.3A2.3 2.3 0 0 1 4 8.7V6.3A2.3 2.3 0 0 1 6.3 4ZM6.7 5H8.3A1.7 1.7 0 0 1 10 6.7V8.3A1.7 1.7 0 0 1 8.3 10H6.7A1.7 1.7 0 0 1 5 8.3V6.7A1.7 1.7 0 0 1 6.7 5Z" fill="#141414"/><path d="M7 6H8A1 1 0 0 1 9 7V8A1 1 0 0 1 8 9H7A1 1 0 0 1 6 8V7A1 1 0 0 1 7 6Z" fill="#141414"/><path fill-rule="evenodd" d="M28.3 4H30.7A2.3 2.3 0 0 1 33 6.3V8.7A2.3 2.3 0 0 1 30.7 11H28.3A2.3 2.3 0 0 1 26 8.7V6.3A2.3 2.3 0 0 1 28.3 4ZM28.7 5H30.3A1.7 1.7 0 0 1 32 6.7V8.3A1.7 1.7 0 0 1 30.3 10H28.7A1.7 1.7 0 0 1 27 8.3V6.7A1.7 1.7 0 0 1 28.7 5Z" fill="#141414"/><path d="M29 6H30A1 1 0 0 1 31 7V8A1 1 0 0 1 30 9H29A1 1 0 0 1 28 8V7A1 1 0 0 1 29 6Z" fill="#141414"/><path fill-rule="evenodd" d="M6.3 26H8.7A2.3 2.3 0 0 1 11 28.3V30.7A2.3 2.3 0 0 1 8.7 33H6.3A2.3 2.3 0 0 1 4 30.7V28.3A2.3 2.3 0 0 1 6.3 26ZM6.7 27H8.3A1.7 1.7 0 0 1 10 28.7V30.3A1.7 1.7 0 0 1 8.3 32H6.7A1.7 1.7 0 0 1 5 30.3V28.7A1.7 1.7 0 0 1 6.7 27Z" fill="#141414"/><path d="M7 28H8A1 1 0 0 1 9 29V30A1 1 0 0 1 8 31H7A1 1 0 0 1 6 30V29A1 1 0 0 1 7 28Z" fill="#141414"/></svg>