<svg xmlns="http://www.w3.org/2000/svg" viewBox="0 0 33 33" preserveAspectRatio="xMidYMid meet" shape-rendering="geometricPrecision"><rect width="33" height="33" fill="#16191c"/><path d="M14.5 4H14.5A0.5 0.5 0 0 1 15 4.5V5H14V4.5A0.5 0.5 0 0 1 14.5 4ZM16.5 4H16.5A0.5 0.5 0 0 1 17 4.5V4.5A0.5 0.5 0 0 1 16.5 5H16.5A0.5 0.5 0 0 1 16 4.5V4.5A0.5 0.5 0 0 1 16.5 4ZM20.5 4H20.5A0.5 0.5 0 0 1 21 4.5V4.5A0.5 0.5 0 0 1 20.5 5H20.5A0.5 0.5 0 0 1 20 4.5V4.5A0.5 0.5 0 0 1 20.5 4ZM12.5 5H12.5A0.5 0.5 0 0 1 13 5.5V5.5A0.5 0.5 0 0 1 12.5 6H12.5A0.5 0.5 0 0 1 12 5.5V5.5A0.5 0.5 0 0 1 12.5 5ZM14 5H15V5.5A0.5 0.5 0 0 1 14.5 6H14.5A0.5 0.5 0 0 1 14 5.5V5ZM17.5 5H17.5A0.5 0.5 0 0 1 18 5.5V5.5A0.5 0.5 0 0 1 17.5 6H17.5A0.5 0.5 0 0 1 17 5.5V5.5A0.5 0.5 0 0 1 17.5 5ZM19.5 5H19.5A0.5 0.5 0 0 1 20 5.5V5.5A0.5 0.5 0 0 1 19.5 6H19.5A0.5 0.5 0 0 1 19 5.5V5.5A0.5 0.5 0 0 1 19.5 5ZM16.5 6H16.5A0.5 0.5 0 0 1 17 6.5V7H16V6.5A0.5 0.5 0 0 1 16.5 6ZM17 7L17 6.5A0.5 0.5 0 0 0 17.5 7ZM18 7L17.5 7A0.5 0.5 0 0 0 18 6.5ZM18.5 6H18.5A0.5 0.5 0 0 1 19 6.5V7H18V6.5A0.5 0.5 0 0 1 18.5 6ZM20.5 6H20.5A0.5 0.5 0 0 1 21 6.5V6.5A0.5 0.5 0 0 1 20.5 7H20.5A0.5 0.5 0 0 1 20 6.5V6.5A0.5 0.5 0 0 1 20.5 6ZM12.5 7H13V8H12.5A0.5 0.5 0 0 1 12 7.5V7.5A0.5 0.5 0 0 1 12.5 7ZM13 7H14V8H13V7ZM14 7H14.5A0.5 0.5 0 0 1 15 7.5V7.5A0.5 0.5 0 0 1 14.5 8H14V7ZM16 7H17V8H16.5A0.5 0.5 0 0 1 16 7.5V7ZM17 7H18V8H17V7ZM18 7H19V7.5A0.5 0.5 0 0 1 18.5 8H18V7ZM13 8L13 8.5A0.5 0.5 0 0 0 12.5 8ZM13 9L12.5 9A0.5 0.5 0 0 0 13 8.5ZM13 8H14V9H13V8ZM14 8L14.5 8A0.5 0.5 0 0 0 14 8.5ZM17 8L17 8.5A0.5 0.5 0 0 0 16.5 8ZM17 8H18V8.5A0.5 0.5 0 0 1 17.5 9H17.5A0.5 0.5 0 0 1 17 8.5V8ZM18 8L18.5 8A0.5 0.5 0 0 0 18 8.5ZM12.5 9H13V10H12V9.5A0.5 0.5 0 0 1 12.5 9ZM13 9H14V9.5A0.5 0.5 0 0 1 13.5 10H13V9ZM15.5 9H16V10H15.5A0.5 0.5 0 0 1 15 9.5V9.5A0.5 0.5 0 0 1 15.5 9ZM16 9H16.5A0.5 0.5 0 0 1 17 9.5V10H16V9ZM19.5 9H20V10H19.5A0.5 0.5 0 0 1 19 9.5V9.5A0.5 0.5 0 0 1 19.5 9ZM20 9H20.5A0.5 0.5 0 0 1 21 9.5V10H20V9ZM12 10H13V10.5A0.5 0.5 0 0 1 12.5 11H12.5A0.5 0.5 0 0 1 12 10.5V10ZM13 10L13.5 10A0.5 0.5 0 0 0 13 10.5ZM14 11L13.5 11A0.5 0.5 0 0 0 14 10.5ZM14.5 10H14.5A0.5 0.5 0 0 1 15 10.5V11H14V10.5A0.5 0.5 0 0 1 14.5 10ZM16 10L16 10.5A0.5 0.5 0 0 0 15.5 10ZM15 11L15 10.5A0.5 0.5 0 0 0 15.5 11ZM16 10H17V10.5A0.5 0.5 0 0 1 16.5 11H16.5A0.5 0.5 0 0 1 16 10.5V10ZM18.5 10H18.5A0.5 0.5 0 0 1 19 10.5V10.5A0.5 0.5 0 0 1 18.5 11H18.5A0.5 0.5 0 0 1 18 10.5V10.5A0.5 0.5 0 0 1 18.5 10ZM20 10L20 10.5A0.5 0.5 0 0 0 19.5 10ZM20 11L19.5 11A0.5 0.5 0 0 0 20 10.5ZM20 10H21V11H20V10ZM13 12L12.5 12A0.5 0.5 0 0 0 13 11.5ZM13.5 11H14V12H13V11.5A0.5 0.5 0 0 1 13.5 11ZM14 11H15V12H14V11ZM15 11H15.5A0.5 0.5 0 0 1 16 11.5V12H15V11ZM19.5 11H20V12H19.5A0.5 0.5 0 0 1 19 11.5V11.5A0.5 0.5 0 0 1 19.5 11ZM20 11H21V11.5A0.5 0.5 0 0 1 20.5 12H20V11ZM4.5 12H5V13H4V12.5A0.5 0.5 0 0 1 4.5 12ZM5 12H6V13H5V12ZM6 12H7V13H6V12ZM7 12H8V13H7V12ZM8 12H8.5A0.5 0.5 0 0 1 9 12.5V13H8V12ZM9 13L9 12.5A0.5 0.5 0 0 0 9.5 13ZM10.5 12H11V13H10.5A0.5 0.5 0 0 1 10 12.5V12.5A0.5 0.5 0 0 1 10.5 12ZM11 12H12V13H11V12ZM12 12H13V13H12V12ZM13 12H14V12.5A0.5 0.5 0 0 1 13.5 13H13V12ZM14 12L14.5 12A0.5 0.5 0 0 0 14 12.5ZM15 12L15 12.5A0.5 0.5 0 0 0 14.5 12ZM15 12H16V12.5A0.5 0.5 0 0 1 15.5 13H15.5A0.5 0.5 0 0 1 15 12.5V12ZM17 13L16.5 13A0.5 0.5 0 0 0 17 12.5ZM17.5 12H17.5A0.5 0.5 0 0 1 18 12.5V13H17V12.5A0.5 0.5 0 0 1 17.5 12ZM21 13L20.5 13A0.5 0.5 0 0 0 21 12.5ZM21.5 12H21.5A0.5 0.5 0 0 1 22 12.5V13H21V12.5A0.5 0.5 0 0 1 21.5 12ZM23.5 12H23.5A0.5 0.5 0 0 1 24 12.5V13H23V12.5A0.5 0.5 0 0 1 23.5 12ZM25.5 12H25.5A0.5 0.5 0 0 1 26 12.5V12.5A0.5 0.5 0 0 1 25.5 13H25.5A0.5 0.5 0 0 1 25 12.5V12.5A0.5 0.5 0 0 1 25.5 12ZM27.5 12H27.5A0.5 0.5 0 0 1 28 12.5V12.5A0.5 0.5 0 0 1 27.5 13H27.5A0.5 0.5 0 0 1 27 12.5V12.5A0.5 0.5 0 0 1 27.5 12ZM4 13H5V14H4.5A0.5 0.5 0 0 1 4 13.5V13ZM5 13H6V14H5V13ZM6 13L6.5 13A0.5 0.5 0 0 0 6 13.5ZM6 14L6 13.5A0.5 0.5 0 0 0 6.5 14ZM8 13L8 13.5A0.5 0.5 0 0 0 7.5 13ZM8 14L7.5 14A0.5 0.5 0 0 0 8 13.5ZM8 13H9V14H8V13ZM9 13H9.5A0.5 0.5 0 0 1 10 13.5V14H9V13ZM11 13L11 13.5A0.5 0.5 0 0 0 10.5 13ZM10 14L10 13.5A0.5 0.5 0 0 0 10.5 14ZM11 14L10.5 14A0.5 0.5 0 0 0 11 13.5ZM11 13H12V14H11V13ZM12 13H13V13.5A0.5 0.5 0 0 1 12.5 14H12V13ZM13 13L13.5 13A0.5 0.5 0 0 0 13 13.5ZM14.5 13H14.5A0.5 0.5 0 0 1 15 13.5V14H14V13.5A0.5 0.5 0 0 1 14.5 13ZM16.5 13H17V14H16.5A0.5 0.5 0 0 1 16 13.5V13.5A0.5 0.5 0 0 1 16.5 13ZM17 13H18V14H17V13ZM18 14L18 13.5A0.5 0.5 0 0 0 18.5 14ZM20 14L19.5 14A0.5 0.5 0 0 0 20 13.5ZM20.5 13H21V14H20V13.5A0.5 0.5 0 0 1 20.5 13ZM21 13H22V14H21V13ZM22 14L22 13.5A0.5 0.5 0 0 0 22.5 14ZM23 14L22.5 14A0.5 0.5 0 0 0 23 13.5ZM23 13H24V14H23V13ZM26.5 13H26.5A0.5 0.5 0 0 1 27 13.5V14H26V13.5A0.5 0.5 0 0 1 26.5 13ZM27 14L27 13.5A0.5 0.5 0 0 0 27.5 14ZM5 14L5 14.5A0.5 0.5 0 0 0 4.5 14ZM5 15L4.5 15A0.5 0.5 0 0 0 5 14.5ZM5 14H6V15H5V14ZM6 14H7V15H6V14ZM7 14H8V15H7V14ZM8 14H9V15H8V14ZM9 14H10V15H9V14ZM10 14H11V15H10V14ZM11 14H12V14.5A0.5 0.5 0 0 1 11.5 15H11V14ZM12 14L12.5 14A0.5 0.5 0 0 0 12 14.5ZM14 14H15V14.5A0.5 0.5 0 0 1 14.5 15H14.5A0.5 0.5 0 0 1 14 14.5V14ZM17 14L17 14.5A0.5 0.5 0 0 0 16.5 14ZM17 14H18V15H17.5A0.5 0.5 0 0 1 17 14.5V14ZM18 14H19V15H18V14ZM19 14H20V15H19V14ZM20 14H21V15H20V14ZM21 14H22V15H21V14ZM22 14H23V15H22V14ZM23 14H24V15H23V14ZM26 14H27V15H26.5A0.5 0.5 0 0 1 26 14.5V14ZM27 14H28V15H27V14ZM28 14H28.5A0.5 0.5 0 0 1 29 14.5V14.5A0.5 0.5 0 0 1 28.5 15H28V14ZM4.5 15H5V16H4V15.5A0.5 0.5 0 0 1 4.5 15ZM5 15H6V16H5V15ZM6 15H7V16H6V15ZM7 15L7.5 15A0.5 0.5 0 0 0 7 15.5ZM8 15L8 15.5A0.5 0.5 0 0 0 7.5 15ZM8 15H9V16H8V15ZM9 15L9.5 15A0.5 0.5 0 0 0 9 15.5ZM12.5 15H12.5A0.5 0.5 0 0 1 13 15.5V15.5A0.5 0.5 0 0 1 12.5 16H12.5A0.5 0.5 0 0 1 12 15.5V15.5A0.5 0.5 0 0 1 12.5 15ZM16.5 15H16.5A0.5 0.5 0 0 1 17 15.5V16H16V15.5A0.5 0.5 0 0 1 16.5 15ZM18 15L18 15.5A0.5 0.5 0 0 0 17.5 15ZM17 16L17 15.5A0.5 0.5 0 0 0 17.5 16ZM18 16L17.5 16A0.5 0.5 0 0 0 18 15.5ZM18 15H19V16H18V15ZM19 15H20V16H19V15ZM20 15H21V16H20V15ZM21 15L21.5 15A0.5 0.5 0 0 0 21 15.5ZM22 15L22 15.5A0.5 0.5 0 0 0 21.5 15ZM21 16L21 15.5A0.5 0.5 0 0 0 21.5 16ZM22 16L21.5 16A0.5 0.5 0 0 0 22 15.5ZM22 15H23V16H22V15ZM23 15H24V15.5A0.5 0.5 0 0 1 23.5 16H23V15ZM27 15L27 15.5A0.5 0.5 0 0 0 26.5 15ZM27 16L26.5 16A0.5 0.5 0 0 0 27 15.5ZM27 15H28V16H27V15ZM28 15L28.5 15A0.5 0.5 0 0 0 28 15.5ZM4 16H5V17H4V16ZM5 16L5.5 16A0.5 0.5 0 0 0 5 16.5ZM6 16L6 16.5A0.5 0.5 0 0 0 5.5 16ZM6 16H7V17H6V16ZM7 17L7 16.5A0.5 0.5 0 0 0 7.5 17ZM8 16H9V16.5A0.5 0.5 0 0 1 8.5 17H8.5A0.5 0.5 0 0 1 8 16.5V16ZM10.5 16H11V17H10.5A0.5 0.5 0 0 1 10 16.5V16.5A0.5 0.5 0 0 1 10.5 16ZM11 16H11.5A0.5 0.5 0 0 1 12 16.5V17H11V16ZM13.5 16H14V17H13.5A0.5 0.5 0 0 1 13 16.5V16.5A0.5 0.5 0 0 1 13.5 16ZM14 16H14.5A0.5 0.5 0 0 1 15 16.5V16.5A0.5 0.5 0 0 1 14.5 17H14V16ZM16 16H17V17H16.5A0.5 0.5 0 0 1 16 16.5V16ZM17 16H18V17H17V16ZM18 16H19V17H18V16ZM19 16H20V17H19V16ZM20 16H21V17H20V16ZM21 16H22V17H21V16ZM22 16H23V16.5A0.5 0.5 0 0 1 22.5 17H22V16ZM23 16L23.5 16A0.5 0.5 0 0 0 23 16.5ZM24.5 16H25V17H24.5A0.5 0.5 0 0 1 24 16.5V16.5A0.5 0.5 0 0 1 24.5 16ZM25 16H26V17H25V16ZM26 16H27V17H26V16ZM27 16H28V16.5A0.5 0.5 0 0 1 27.5 17H27V16ZM4 17H5V18H4V17ZM6 17H7V18H6V17ZM7 17H7.5A0.5 0.5 0 0 1 8 17.5V17.5A0.5 0.5 0 0 1 7.5 18H7V17ZM9.5 17H9.5A0.5 0.5 0 0 1 10 17.5V18H9V17.5A0.5 0.5 0 0 1 9.5 17ZM11 17L11 17.5A0.5 0.5 0 0 0 10.5 17ZM10 18L10 17.5A0.5 0.5 0 0 0 10.5 18ZM11 18L10.5 18A0.5 0.5 0 0 0 11 17.5ZM11 17H12V18H11V17ZM18 17L18 17.5A0.5 0.5 0 0 0 17.5 17ZM18 17H19V17.5A0.5 0.5 0 0 1 18.5 18H18.5A0.5 0.5 0 0 1 18 17.5V17ZM19 17L19.5 17A0.5 0.5 0 0 0 19 17.5ZM20 17L20 17.5A0.5 0.5 0 0 0 19.5 17ZM20 17H21V17.5A0.5 0.5 0 0 1 20.5 18H20.5A0.5 0.5 0 0 1 20 17.5V17ZM21 17L21.5 17A0.5 0.5 0 0 0 21 17.5ZM23.5 17H23.5A0.5 0.5 0 0 1 24 17.5V18H23V17.5A0.5 0.5 0 0 1 23.5 17ZM24 18L24 17.5A0.5 0.5 0 0 0 24.5 18ZM26 17L26 17.5A0.5 0.5 0 0 0 25.5 17ZM26 17H27V17.5A0.5 0.5 0 0 1 26.5 18H26.5A0.5 0.5 0 0 1 26 17.5V17ZM27 17L27.5 17A0.5 0.5 0 0 0 27 17.5ZM4 18H5V19H4V18ZM6 18H7V18.5A0.5 0.5 0 0 1 6.5 19H6.5A0.5 0.5 0 0 1 6 18.5V18ZM7 18L7.5 18A0.5 0.5 0 0 0 7 18.5ZM9 18H10V19H9V18ZM10 18H11V19H10V18ZM11 18H12V18.5A0.5 0.5 0 0 1 11.5 19H11V18ZM14.5 18H15V19H14V18.5A0.5 0.5 0 0 1 14.5 18ZM15 18H16V19H15V18ZM16 18H17V19H16V18ZM17 18H17.5A0.5 0.5 0 0 1 18 18.5V18.5A0.5 0.5 0 0 1 17.5 19H17V18ZM19.5 18H19.5A0.5 0.5 0 0 1 20 18.5V18.5A0.5 0.5 0 0 1 19.5 19H19.5A0.5 0.5 0 0 1 19 18.5V18.5A0.5 0.5 0 0 1 19.5 18ZM23 19L22.5 19A0.5 0.5 0 0 0 23 18.5ZM23 18H24V19H23V18ZM24 18H25V19H24V18ZM25 18H25.5A0.5 0.5 0 0 1 26 18.5V18.5A0.5 0.5 0 0 1 25.5 19H25V18ZM27.5 18H28V19H27.5A0.5 0.5 0 0 1 27 18.5V18.5A0.5 0.5 0 0 1 27.5 18ZM28 18H28.5A0.5 0.5 0 0 1 29 18.5V19H28V18ZM4 19H5V20H4V19ZM7.5 19H7.5A0.5 0.5 0 0 1 8 19.5V19.5A0.5 0.5 0 0 1 7.5 20H7.5A0.5 0.5 0 0 1 7 19.5V19.5A0.5 0.5 0 0 1 7.5 19ZM9 19H10V20H9V19ZM10 19L10.5 19A0.5 0.5 0 0 0 10 19.5ZM10 20L10 19.5A0.5 0.5 0 0 0 10.5 20ZM14 19H15V20H14.5A0.5 0.5 0 0 1 14 19.5V19ZM15 19H16V20H15V19ZM16 19L16.5 19A0.5 0.5 0 0 0 16 19.5ZM16 20L16 19.5A0.5 0.5 0 0 0 16.5 20ZM18.5 19H18.5A0.5 0.5 0 0 1 19 19.5V19.5A0.5 0.5 0 0 1 18.5 20H18.5A0.5 0.5 0 0 1 18 19.5V19.5A0.5 0.5 0 0 1 18.5 19ZM20.5 19H20.5A0.5 0.5 0 0 1 21 19.5V20H20V19.5A0.5 0.5 0 0 1 20.5 19ZM21 20L21 19.5A0.5 0.5 0 0 0 21.5 20ZM22 20L21.5 20A0.5 0.5 0 0 0 22 19.5ZM22.5 19H23V20H22V19.5A0.5 0.5 0 0 1 22.5 19ZM23 19H24V20H23V19ZM24 19H25V20H24V19ZM25 19L25.5 19A0.5 0.5 0 0 0 25 19.5ZM28 19L28 19.5A0.5 0.5 0 0 0 27.5 19ZM28 20L27.5 20A0.5 0.5 0 0 0 28 19.5ZM28 19H29V20H28V19ZM4 20H5V20.5A0.5 0.5 0 0 1 4.5 21H4.5A0.5 0.5 0 0 1 4 20.5V20ZM9 20H10V21H9.5A0.5 0.5 0 0 1 9 20.5V20ZM10 20H10.5A0.5 0.5 0 0 1 11 20.5V20.5A0.5 0.5 0 0 1 10.5 21H10V20ZM13 21L12.5 21A0.5 0.5 0 0 0 13 20.5ZM13.5 20H13.5A0.5 0.5 0 0 1 14 20.5V21H13V20.5A0.5 0.5 0 0 1 13.5 20ZM15 20L15 20.5A0.5 0.5 0 0 0 14.5 20ZM15 20H16V21H15.5A0.5 0.5 0 0 1 15 20.5V20ZM16 20H17V21H16V20ZM17 20H17.5A0.5 0.5 0 0 1 18 20.5V21H17V20ZM20 21L19.5 21A0.5 0.5 0 0 0 20 20.5ZM20 20H21V21H20V20ZM21 20H22V21H21V20ZM22 20H23V21H22V20ZM23 20H24V21H23V20ZM24 20H25V21H24V20ZM25 21L25 20.5A0.5 0.5 0 0 0 25.5 21ZM26.5 20H27V21H26.5A0.5 0.5 0 0 1 26 20.5V20.5A0.5 0.5 0 0 1 26.5 20ZM27 20H28V21H27V20ZM28 20H29V20.5A0.5 0.5 0 0 1 28.5 21H28V20ZM12.5 21H13V22H12V21.5A0.5 0.5 0 0 1 12.5 21ZM13 21H14V22H13V21ZM16 21L16 21.5A0.5 0.5 0 0 0 15.5 21ZM16 21H17V22H16.5A0.5 0.5 0 0 1 16 21.5V21ZM17 21H18V22H17V21ZM18 22L18 21.5A0.5 0.5 0 0 0 18.5 22ZM19.5 21H20V22H19.5A0.5 0.5 0 0 1 19 21.5V21.5A0.5 0.5 0 0 1 19.5 21ZM20 21H21V22H20V21ZM21 21L21.5 21A0.5 0.5 0 0 0 21 21.5ZM24 21L24 21.5A0.5 0.5 0 0 0 23.5 21ZM24 21H25V22H24V21ZM25 21H25.5A0.5 0.5 0 0 1 26 21.5V21.5A0.5 0.5 0 0 1 25.5 22H25V21ZM27 21L27 21.5A0.5 0.5 0 0 0 26.5 21ZM27 22L26.5 22A0.5 0.5 0 0 0 27 21.5ZM27 21H28V22H27V21ZM28 21L28.5 21A0.5 0.5 0 0 0 28 21.5ZM28 22L28 21.5A0.5 0.5 0 0 0 28.5 22ZM12 22H13V23H12.5A0.5 0.5 0 0 1 12 22.5V22ZM13 22H14V22.5A0.5 0.5 0 0 1 13.5 23H13V22ZM17 22L17 22.5A0.5 0.5 0 0 0 16.5 22ZM17 22H18V23H17.5A0.5 0.5 0 0 1 17 22.5V22ZM18 22H18.5A0.5 0.5 0 0 1 19 22.5V23H18V22ZM20 22L20 22.5A0.5 0.5 0 0 0 19.5 22ZM20 22H21V23H20V22ZM22.5 22H22.5A0.5 0.5 0 0 1 23 22.5V22.5A0.5 0.5 0 0 1 22.5 23H22.5A0.5 0.5 0 0 1 22 22.5V22.5A0.5 0.5 0 0 1 22.5 22ZM24 22H25V23H24V22ZM25 22L25.5 22A0.5 0.5 0 0 0 25 22.5ZM25 23L25 22.5A0.5 0.5 0 0 0 25.5 23ZM26.5 22H27V23H26.5A0.5 0.5 0 0 1 26 22.5V22.5A0.5 0.5 0 0 1 26.5 22ZM27 22H28V23H27V22ZM28 22H28.5A0.5 0.5 0 0 1 29 22.5V23H28V22ZM14 24L13.5 24A0.5 0.5 0 0 0 14 23.5ZM14.5 23H14.5A0.5 0.5 0 0 1 15 23.5V24H14V23.5A0.5 0.5 0 0 1 14.5 23ZM15 24L15 23.5A0.5 0.5 0 0 0 15.5 24ZM16 24L15.5 24A0.5 0.5 0 0 0 16 23.5ZM16.5 23H16.5A0.5 0.5 0 0 1 17 23.5V24H16V23.5A0.5 0.5 0 0 1 16.5 23ZM18 23L18 23.5A0.5 0.5 0 0 0 17.5 23ZM17 24L17 23.5A0.5 0.5 0 0 0 17.5 24ZM18 24L17.5 24A0.5 0.5 0 0 0 18 23.5ZM18 23H19V24H18V23ZM19 24L19 23.5A0.5 0.5 0 0 0 19.5 24ZM20 24L19.5 24A0.5 0.5 0 0 0 20 23.5ZM20 23H21V24H20V23ZM21 24L21 23.5A0.5 0.5 0 0 0 21.5 24ZM24 24L23.5 24A0.5 0.5 0 0 0 24 23.5ZM24 23H25V24H24V23ZM25 23H25.5A0.5 0.5 0 0 1 26 23.5V24H25V23ZM27 23L27 23.5A0.5 0.5 0 0 0 26.5 23ZM26 24L26 23.5A0.5 0.5 0 0 0 26.5 24ZM27 23H28V24H27.5A0.5 0.5 0 0 1 27 23.5V23ZM28 23H29V23.5A0.5 0.5 0 0 1 28.5 24H28V23ZM12.5 24H13V25H12V24.5A0.5 0.5 0 0 1 12.5 24ZM13 24H14V25H13V24ZM14 24H15V25H14V24ZM15 24H16V25H15V24ZM16 24H17V25H16V24ZM17 24H18V25H17V24ZM18 24H19V25H18V24ZM19 24H20V25H19V24ZM20 24H21V25H20V24ZM21 24H22V25H21V24ZM22 24H23V25H22V24ZM23 24H24V25H23V24ZM24 24H25V25H24V24ZM25 24H26V25H25V24ZM26 24H26.5A0.5 0.5 0 0 1 27 24.5V25H26V24ZM27 25L27 24.5A0.5 0.5 0 0 0 27.5 25ZM12 25H13V26H12V25ZM13 25H14V25.5A0.5 0.5 0 0 1 13.5 26H13V25ZM14 25L14.5 25A0.5 0.5 0 0 0 14 25.5ZM15 25L15 25.5A0.5 0.5 0 0 0 14.5 25ZM15 25H16V25.5A0.5 0.5 0 0 1 15.5 26H15.5A0.5 0.5 0 0 1 15 25.5V25ZM16 25L16.5 25A0.5 0.5 0 0 0 16 25.5ZM17 25L17 25.5A0.5 0.5 0 0 0 16.5 25ZM17 25H18V25.5A0.5 0.5 0 0 1 17.5 26H17.5A0.5 0.5 0 0 1 17 25.5V25ZM18 25L18.5 25A0.5 0.5 0 0 0 18 25.5ZM21 25L21 25.5A0.5 0.5 0 0 0 20.5 25ZM21 25H22V26H21.5A0.5 0.5 0 0 1 21 25.5V25ZM22 25H23V25.5A0.5 0.5 0 0 1 22.5 26H22V25ZM23 25L23.5 25A0.5 0.5 0 0 0 23 25.5ZM24 25L24 25.5A0.5 0.5 0 0 0 23.5 25ZM24 25H25V25.5A0.5 0.5 0 0 1 24.5 26H24.5A0.5 0.5 0 0 1 24 25.5V25ZM25 25L25.5 25A0.5 0.5 0 0 0 25 25.5ZM26 25L26 25.5A0.5 0.5 0 0 0 25.5 25ZM26 26L25.5 26A0.5 0.5 0 0 0 26 25.5ZM26 25H27V26H26V25ZM27 25H28V26H27V25ZM28 25H28.5A0.5 0.5 0 0 1 29 25.5V26H28V25ZM12 26H13V27H12V26ZM13 26L13.5 26A0.5 0.5 0 0 0 13 26.5ZM19.5 26H19.5A0.5 0.5 0 0 1 20 26.5V27H19V26.5A0.5 0.5 0 0 1 19.5 26ZM20 27L20 26.5A0.5 0.5 0 0 0 20.5 27ZM23 27L22.5 27A0.5 0.5 0 0 0 23 26.5ZM23.5 26H23.5A0.5 0.5 0 0 1 24 26.5V27H23V26.5A0.5 0.5 0 0 1 23.5 26ZM24 27L24 26.5A0.5 0.5 0 0 0 24.5 27ZM25.5 26H26V27H25.5A0.5 0.5 0 0 1 25 26.5V26.5A0.5 0.5 0 0 1 25.5 26ZM26 26H27V26.5A0.5 0.5 0 0 1 26.5 27H26V26ZM27 26L27.5 26A0.5 0.5 0 0 0 27 26.5ZM28 26L28 26.5A0.5 0.5 0 0 0 27.5 26ZM28 26H29V27H28V26ZM12 27H13V28H12V27ZM14.5 27H15V28H14V27.5A0.5 0.5 0 0 1 14.5 27ZM15 27H15.5A0.5 0.5 0 0 1 16 27.5V28H15V27ZM16 28L16 27.5A0.5 0.5 0 0 0 16.5 28ZM19 27H20V28H19.5A0.5 0.5 0 0 1 19 27.5V27ZM20 27H21V28H20V27ZM21 27H22V28H21V27ZM22 27H23V28H22V27ZM23 27H24V28H23V27ZM24 27H24.5A0.5 0.5 0 0 1 25 27.5V27.5A0.5 0.5 0 0 1 24.5 28H24V27ZM28 28L27.5 28A0.5 0.5 0 0 0 28 27.5ZM28 27H29V28H28V27ZM12 28H13V28.5A0.5 0.5 0 0 1 12.5 29H12.5A0.5 0.5 0 0 1 12 28.5V28ZM14 28H15V29H14.5A0.5 0.5 0 0 1 14 28.5V28ZM15 28H16V29H15V28ZM16 28H17V29H16V28ZM17 28H18V29H17V28ZM18 28H18.5A0.5 0.5 0 0 1 19 28.5V28.5A0.5 0.5 0 0 1 18.5 29H18V28ZM21 28L21 28.5A0.5 0.5 0 0 0 20.5 28ZM21 28H22V29H21.5A0.5 0.5 0 0 1 21 28.5V28ZM22 28H23V29H22V28ZM23 28H24V28.5A0.5 0.5 0 0 1 23.5 29H23V28ZM24 28L24.5 28A0.5 0.5 0 0 0 24 28.5ZM25.5 28H26V29H25.5A0.5 0.5 0 0 1 25 28.5V28.5A0.5 0.5 0 0 1 25.5 28ZM26 28H27V29H26V28ZM27 28H28V29H27V28ZM28 28H29V28.5A0.5 0.5 0 0 1 28.5 29H28V28Z" fill="#f4f4f4"/><path fill-rule="evenodd" d="M6.3 4H8.7A2.3 2.3 0 0 1 11 6.3V8.7A2.3 2.3 0 0 1 8.7 11H6.3A2.3 2.3 0 0 1 4 8.7V6.3A2.3 2.3 0 0 1 6.3 4ZM6.7 5H8.3A1.7 1.7 0 0 1 10 6.7V8.3A1.7 1.7 0 0 1 8.3 10H6.7A1.7 1.7 0 0 1 5 8.3V6.7A1.7 1.7 0 0 1 6.7 5Z" fill="#f4f4f4"/><path d="M7 6H8A1 1 0 0 1 9 7V8A1 1 0 0 1 8 9H7A1 1 0 0 1 6 8V7A1 1 0 0 1 7 6Z" fill="#f4f4f4"/><path fill-rule="evenodd" d="M24.3 4H26.7A2.3 2.3 0 0 1 29 6.3V8.7A2.3 2.3 0 0 1 26.7 11H24.3A2.3 2.3 0 0 1 22 8.7V6.3A2.3 2.3 0 0 1 24.3 4ZM24.7 5H26.3A1.7 1.7 0 0 1 28 6.7V8.3A1.7 1.7 0 0 1 26.3 10H24.7A1.7 1.7 0 0 1 23 8.3V6.7A1.7 1.7 0 0 1 24.7 5Z" fill="#f4f4f4"/><path d="M25 6H26A1 1 0 0 1 27 7V8A1 1 0 0 1 26 9H25A1 1 0 0 1 24 8V7A1 1 0 0 1 25 6Z" fill="#f4f4f4"/><path fill-rule="evenodd" d="M6.3 22H8.7A2.3 2.3 0 0 1 11 24.3V26.7A2.3 2.3 0 0 1 8.7 29H6.3A2.3 2.3 0 0 1 4 26.7V24.3A2.3 2.3 0 0 1 6.3 22ZM6.7 23H8.3A1.7 1.7 0 0 1 10 24.7V26.3A1.7 1.7 0 0 1 8.3 28H6.7A1.7 1.7 0 0 1 5 26.3V24.7A1.7 1.7 0 0 1 6.7 23Z" fill="#f4f4f4"/><path d="M7 24H8A1 1 0 0 1 9 25V26A1 1 0 0 1 8 27H7A1 1 0 0 1 6 26V25A1 1 0 0 1 7 24Z" fill="#f4f4f4"/></svg>