<?xml version="1.0" encoding="UTF-8"?><svg id="uuid-6b8fbbe9-aa46-4979-b03f-064dd412fff8" xmlns="http://www.w3.org/2000/svg" viewBox="0 0 58.83 17.87"><defs><style>.uuid-2d1f902d-a80e-416e-ac41-2b994fe7781d{fill:#222221;}</style></defs><g id="uuid-d9cf87eb-1d27-411e-ba53-c909b89dad90"><path class="uuid-2d1f902d-a80e-416e-ac41-2b994fe7781d" d="M37.85,10.69l9.64-1.53v-.49s-9.64-1.48-9.64-1.48c-.82-4.09-4.43-7.19-8.76-7.19s-7.94,3.02-8.76,7.19l-9.63,1.47v.49s9.64,1.54,9.64,1.54c.83,4.16,4.49,7.17,8.76,7.17s7.94-3.09,8.76-7.18ZM29.09.5c4.02,0,7.39,2.83,8.23,6.6l-8.19-1.26-8.27,1.26c.85-3.84,4.27-6.61,8.23-6.61ZM12.35,8.92l16.74-2.57v5.25l-16.74-2.68ZM20.87,10.78l8.18,1.31,8.26-1.32c-.84,3.77-4.21,6.59-8.22,6.59s-7.36-2.75-8.22-6.58Z"/><polygon class="uuid-2d1f902d-a80e-416e-ac41-2b994fe7781d" points="57.56 11.74 57.4 11.74 54.96 5.02 52.79 5.02 52.79 12.85 54.06 12.85 54.06 6.14 54.23 6.14 56.61 12.85 58.83 12.85 58.83 5.02 57.56 5.02 57.56 11.74"/><path class="uuid-2d1f902d-a80e-416e-ac41-2b994fe7781d" d="M2.24,9.57c1.34.37,1.75.54,1.75,1.27,0,.67-.49,1.02-1.45,1.02-.66,0-2.26-.18-2.26-.18l-.1,1.03s1.49.27,2.48.27c1.57,0,2.61-.65,2.61-2.23,0-1.36-.73-1.87-2.42-2.31-1.2-.29-1.55-.51-1.55-1.18,0-.82.45-1.26,1.42-1.26.81,0,2.35.21,2.35.21l.12-1.02s-1.54-.31-2.56-.31c-1.54,0-2.62.74-2.62,2.46,0,1.34.59,1.77,2.24,2.23Z"/></g></svg>