<?xml version="1.0" encoding="UTF-8"?><svg id="uuid-7861adbf-d0ef-4e4b-bb16-7af49fa602c2" xmlns="http://www.w3.org/2000/svg" viewBox="0 0 67.16 113.97"><defs><style>.uuid-6d89d373-93cc-4003-92e3-d8af8a9ff524{fill:#222221;font-size:19px;}.uuid-886d6632-7829-4c5f-a191-ceaedd1ae41d{font-family:Goetheanum-Titel-Englisch, 'Goetheanum Titel';font-style:italic;}.uuid-a3405819-048f-48d3-9c06-db4b1c476d22{fill:#1d1d1b;}.uuid-5c79fb72-3dd4-4ae6-979c-6176aa320b00{font-family:GoetheanumTitel-Deutsch, 'Goetheanum Titel';}.uuid-8b4c5356-1049-43e4-8314-34794e052046{fill:none;stroke:#1d1d1b;stroke-miterlimit:10;stroke-width:2px;}.uuid-094e1c55-63d6-4d82-abd1-e101638dae96{letter-spacing:-.01em;}.uuid-e6eff7cc-a0ff-4551-8225-cb0cfabbbf3a{letter-spacing:0em;}</style></defs><g id="uuid-aaeaf238-e650-465b-b070-7ee30a2bd7d1"><text class="uuid-6d89d373-93cc-4003-92e3-d8af8a9ff524" transform="translate(0 85.92)"><tspan class="uuid-5c79fb72-3dd4-4ae6-979c-6176aa320b00"><tspan class="uuid-e6eff7cc-a0ff-4551-8225-cb0cfabbbf3a" x="0" y="0">R</tspan><tspan x="10.58" y="0">estmüll</tspan></tspan><tspan class="uuid-886d6632-7829-4c5f-a191-ceaedd1ae41d"><tspan x="11.63" y="22.8">Mi</tspan><tspan class="uuid-094e1c55-63d6-4d82-abd1-e101638dae96" x="30.08" y="22.8">x</tspan><tspan x="37.7" y="22.8">ed</tspan></tspan></text><path class="uuid-a3405819-048f-48d3-9c06-db4b1c476d22" d="M13.03,14.8c.29,10.07.56,20.16,1.26,30.19.35,3.55.38,7.2,1.42,10.6.16.21.82.42,1.18.53,2.95.78,6.05.93,9.14,1.13,5,.26,10.04.28,15.04.12,3.24-.25,7.05-.07,9.98-1.35.12-.41.3-1.15.38-1.76,1.4-13.1,1.21-26.37,1.44-39.55,0,0,1.64,0,1.64,0,0,10.1-.04,20.19-.49,30.31-.28,3.87-.19,7.75-1.2,11.56-.77,2.68-9.23,2.45-11.69,2.71-5.08.19-10.14.18-15.22-.07-3.19-.2-6.45-.35-9.6-1.18-.81-.28-1.47-.4-2.14-1.16-.28-.34-.45-.82-.56-1.22-.85-3.45-.98-7.03-1.27-10.53-.64-10.11-.9-20.2-.99-30.3,0,0,1.67-.02,1.67-.02h0Z"/><polygon class="uuid-a3405819-048f-48d3-9c06-db4b1c476d22" points="23.33 19.96 24.41 49.54 22.41 49.6 21.74 20.01 23.33 19.96 23.33 19.96"/><polygon class="uuid-a3405819-048f-48d3-9c06-db4b1c476d22" points="34.37 18.65 34.71 50.85 32.71 50.85 33.05 18.65 34.37 18.65 34.37 18.65"/><polygon class="uuid-a3405819-048f-48d3-9c06-db4b1c476d22" points="44.62 20.01 44.36 49.58 42.36 49.54 43.4 19.99 44.62 20.01 44.62 20.01"/><path class="uuid-a3405819-048f-48d3-9c06-db4b1c476d22" d="M9.02,8.4c15.9-.48,32.61-.53,48.53-.02,0,0,0,.86,0,.86-4.04.16-8.09.23-12.13.29-7.16.05-17.21.1-24.26-.03-4.04-.06-8.09-.13-12.13-.28,0,0,0-.83,0-.83h0Z"/><path class="uuid-8b4c5356-1049-43e4-8314-34794e052046" d="M23.41,9.18s1.31-5.67,2.92-7.15c1.6-1.48,6.76-.94,6.76-.94,0,0,5.17-.04,6.98.94s2.95,7.15,2.95,7.15"/></g></svg>