<?xml version="1.0" encoding="UTF-8"?><svg id="uuid-42ced3df-c669-4000-88ea-931c474f7551" xmlns="http://www.w3.org/2000/svg" viewBox="0 0 113.79 105.45"><defs><style>.uuid-5ba50043-9ce5-4cc5-9321-519f66679e53{font-family:Goetheanum-Text-Englisch, 'Goetheanum Text';}.uuid-ba23df33-9460-4f64-bb27-246c22f0c19c{fill:#010101;}.uuid-b3e1dd80-2e25-4746-9d53-82635a89e13e{fill:#222221;font-size:19px;}.uuid-115c741e-2991-4993-8e83-cee37a7f075e{letter-spacing:0em;}.uuid-241808f3-9a58-4305-9912-5868f078de0b{font-family:Goetheanum-Text-Deutsch, 'Goetheanum Text';}.uuid-78741496-d166-42a2-973e-1198a8a75302{letter-spacing:-.08em;}.uuid-92457694-5c2e-4bcb-acd1-bdb9daae35f6{letter-spacing:-.02em;}.uuid-e5ca63ee-6267-4063-892f-5ddbf2b32291{letter-spacing:-.02em;}.uuid-bd77fd53-5faf-411e-ac6f-c316ca91f979{letter-spacing:0em;}</style></defs><g id="uuid-bdb4d0e8-a035-4092-9eb0-9a5b663105d3"><text class="uuid-b3e1dd80-2e25-4746-9d53-82635a89e13e" transform="translate(0 77.37)"><tspan class="uuid-241808f3-9a58-4305-9912-5868f078de0b"><tspan class="uuid-e5ca63ee-6267-4063-892f-5ddbf2b32291" x="0" y="0">K</tspan><tspan x="10.64" y="0">eine</tspan><tspan class="uuid-92457694-5c2e-4bcb-acd1-bdb9daae35f6" x="44.57" y="0"> </tspan><tspan class="uuid-78741496-d166-42a2-973e-1198a8a75302" x="48.37" y="0">T</tspan><tspan class="uuid-115c741e-2991-4993-8e83-cee37a7f075e" x="56.77" y="0">aschen</tspan></tspan><tspan class="uuid-5ba50043-9ce5-4cc5-9321-519f66679e53"><tspan class="uuid-bd77fd53-5faf-411e-ac6f-c316ca91f979" x="24.53" y="22.8">N</tspan><tspan x="37.2" y="22.8">o bags</tspan></tspan></text><path class="uuid-ba23df33-9460-4f64-bb27-246c22f0c19c" d="M82.74,15.84l.57,1.74c-18.06,6.27-36.86,12.39-55.17,17.95-.14-.43-.42-1.31-.57-1.74,18.07-6.28,36.87-12.39,55.17-17.95"/><path class="uuid-ba23df33-9460-4f64-bb27-246c22f0c19c" d="M47.92,9.09c.45-2.11.91-4.53,2.7-5.89,1.38-.98,3.05-1.11,4.82-1.14,1.7.02,3.29.16,4.65,1.01.23.16.49.35.68.56,2.06,2.3,2.2,5.75,2.75,8.68-4.67,0-11.47-.01-16.14-.03.17-1.07.34-2.14.54-3.19M40.46,28.27c.6-.2,1.22-.41,1.84-.62l1.07-13.52c7.57-.03,16.62-.05,24.19-.04.14,1.74.28,3.48.42,5.21.46-.14,1.3-.41,1.77-.56-.16-1.88-.31-3.75-.47-5.63l-.89-.82h-3.08C64.2,5.7,63.78-.1,55.44,0c-8.31-.12-8.8,5.67-9.86,12.26h-3.08s-.94.85-.94.85l-1.32,15.23.22-.08Z"/><path class="uuid-ba23df33-9460-4f64-bb27-246c22f0c19c" d="M71.16,34.98c-.02-.22-1.04-11.97-1.03-11.77-.59.2-1.19.4-1.79.6.01.13.02.27.03.4l.86,10.93c.05,1.43.51,3.66-.13,5.01-.81,2.27-3.12,3.72-5.5,3.65-2.72.13-5.44.19-8.17.17-3.13-.05-6.28-.05-9.4-.33-2.7-.42-4.77-3.05-4.55-5.78.11-1.36.32-4.11.43-5.48-.41.13-1.67.53-2.1.66-.11,1.1-.29,3.55-.4,4.68-.34,3.77,2.51,7.43,6.24,8.04,1.41.21,2.84.19,4.26.27,4.83.16,9.67.08,14.5-.22,4.04-.23,7.34-4.06,6.97-8.08,0,0-.24-2.75-.24-2.75Z"/></g></svg>