<?xml version="1.0" encoding="UTF-8"?><svg id="uuid-b4c4a808-2e9d-4fef-a061-6d749ff705f0" xmlns="http://www.w3.org/2000/svg" viewBox="0 0 146.2 101.74"><defs><style>.uuid-3f84c4c3-999e-4ee8-ae8f-9f6ed6916e33{font-family:Goetheanum-Text-Englisch, 'Goetheanum Text';}.uuid-5ce7d666-2e3d-4478-a9ed-c70904b3d844{fill:#010101;}.uuid-de95d366-fc33-4558-a279-0b96652c2b26{fill:#222221;font-size:19px;}.uuid-65d43454-366c-46a6-984c-a0b72217a4f4{font-family:Goetheanum-Text-Deutsch, 'Goetheanum Text';}.uuid-77c96398-cf1b-4056-87e7-35fa3f005d55{letter-spacing:-.09em;}.uuid-6e62e166-3eb7-42e1-90df-f26b2421cb72{letter-spacing:0em;}.uuid-f1a707ae-e892-4a68-9c4f-47fe81cf1c56{letter-spacing:0em;}</style></defs><g id="uuid-509b55f9-ed67-461e-8452-2df243ccb7ec"><text class="uuid-de95d366-fc33-4558-a279-0b96652c2b26" transform="translate(0 73.66)"><tspan class="uuid-65d43454-366c-46a6-984c-a0b72217a4f4"><tspan x="0" y="0">Geräte abschalten</tspan></tspan><tspan class="uuid-3f84c4c3-999e-4ee8-ae8f-9f6ed6916e33"><tspan class="uuid-77c96398-cf1b-4056-87e7-35fa3f005d55" x="10.95" y="22.8">T</tspan><tspan x="19.14" y="22.8">urn off d</tspan><tspan class="uuid-6e62e166-3eb7-42e1-90df-f26b2421cb72" x="86.31" y="22.8">e</tspan><tspan x="95.73" y="22.8">vi</tspan><tspan class="uuid-f1a707ae-e892-4a68-9c4f-47fe81cf1c56" x="108.76" y="22.8">c</tspan><tspan x="116.86" y="22.8">es</tspan></tspan></text><path class="uuid-5ce7d666-2e3d-4478-a9ed-c70904b3d844" d="M46.15,21.77s.01,0,.02,0c10.87-2.72,21.83-5.56,32.73-8.47h0c.6-.16,1.21-.32,1.81-.48h0c5.47-1.47,10.92-2.95,16.33-4.45h0s0,0,.01,0c3.06-.85,6.12-1.7,9.15-2.55l-.34-.84v-.02s-.35-.86-.35-.86c-6.32,1.56-12.69,3.17-19.08,4.8h0c-.6.15-1.2.31-1.8.46h0c-1.32.34-2.63.68-3.95,1.02h0s-.03,0-.04.01c-10.92,2.83-21.86,5.76-32.64,8.74h0c-.05.01-.1.03-.15.04-.55.15-1.1.3-1.64.45-.01,0-.02,0-.03,0h0c-2.67.74-5.34,1.48-7.99,2.23.17.43.52,1.29.69,1.72,2.42-.6,4.85-1.2,7.28-1.81h0Z"/><path class="uuid-5ce7d666-2e3d-4478-a9ed-c70904b3d844" d="M48.13,1.81h30.59l.14,8c.6-.16,1.2-.31,1.81-.47l-.14-8.44-.91-.9h-32.38l-.91.9-.15,17.68c.6-.17,1.21-.33,1.82-.5l.13-16.27Z"/><path class="uuid-5ce7d666-2e3d-4478-a9ed-c70904b3d844" d="M77.05,26.47v-1.17c-9.15-.14-18.4-.14-27.55,0v1.17c1.99.04,4.87.06,6.89.08,6.85.04,13.81.04,20.67-.08Z"/><path class="uuid-5ce7d666-2e3d-4478-a9ed-c70904b3d844" d="M48.44,27.7v1.17c9.53.14,20.13.14,29.66,0v-1.17c-2.14-.04-5.24-.06-7.42-.08-6.86-.03-15.42-.03-22.24.08Z"/><path class="uuid-5ce7d666-2e3d-4478-a9ed-c70904b3d844" d="M80.71,13.82c-.6.16-1.21.32-1.81.48l.08,7.39c-6.97,0-20.28,0-28.5,0-1.49.38-2.97.75-4.46,1.12l-3.08,9.59.9,1.29c1.4.08,5.43.31,6.75.38,2.05,0,10.67.05,12.89.06,2.26,0,10.77-.05,12.88-.06,1.33-.07,5.38-.3,6.75-.38l.9-1.29-3.2-9.96-.09-8.62ZM78.13,31.94c-3.22.19-11.32,0-14.66.03-2.25.01-10.72.05-12.83.05-1.25-.06-4.15-.2-5.43-.26l2.51-8.25c7.85,0,23.65,0,31.5,0l2.51,8.25-3.6.17Z"/><path class="uuid-5ce7d666-2e3d-4478-a9ed-c70904b3d844" d="M97.04,11v.56s0,0,0,0l.02,9.87-.96.7c-2.82.04-5.77.04-8.76,0l-.97-.7.05-9.14c-.59.16-1.18.32-1.77.48l.02,9.1.23.55,1.61,1.33.43.17.69.04c.9.02,2.03.04,2.93.04.35,0,.71,0,1.07,0,1.21,0,2.46-.01,3.63-.04h.38c.28-.02.58-.02.8-.03l.42-.13,1.6-1.26.29-.52v-13.1c-.56.16-1.12.31-1.69.47v1.62Z"/><path class="uuid-5ce7d666-2e3d-4478-a9ed-c70904b3d844" d="M86.44,7.86l.03-5.86h4.39c-.18.01-.37.01-.54.02l-.33.02v1.42l.33.02c.41.02.84.04,1.31.04s.95-.01,1.45-.04l.33-.02v-1.42l-.33-.02c-.17,0-.32,0-.48-.01h4.43s0,3.16,0,3.16c.56-.14,1.13-.28,1.69-.42V.94l-.68-.82h-.16c-4.89-.07-8.81-.06-12.34.02h-.14s-.78.78-.78.78l.02,7.4c.6-.16,1.2-.31,1.81-.47Z"/></g></svg>