<?xml version="1.0" encoding="UTF-8"?><svg id="uuid-9bc438fc-6b4d-49fe-a504-2dd91b7e3878" xmlns="http://www.w3.org/2000/svg" viewBox="0 0 50.44 85.92"><defs><style>.uuid-164c4144-3de5-44f7-b3e7-555aed38b3ce{font-family:Goetheanum-Text-Englisch, 'Goetheanum Text';}.uuid-4d050756-5981-4af7-a1f6-d1a3d18bdd55{font-size:19px;}.uuid-4d050756-5981-4af7-a1f6-d1a3d18bdd55,.uuid-568d92a6-e924-40a0-b9ad-3c85ce6b7542{fill:#222221;}.uuid-59832332-61a1-42f3-8b6e-869b49bcaee8{font-family:Goetheanum-Text-Deutsch, 'Goetheanum Text';}</style></defs><g id="uuid-68633781-0797-4cc9-99b6-157cccd2b846"><path class="uuid-568d92a6-e924-40a0-b9ad-3c85ce6b7542" d="M22.6,0c-6.29.05-12.51,2.71-16.81,7.26l1.83,1.89C15.66,1,29.5.88,37.68,8.89l1.88-1.91C35.17,2.49,28.89-.07,22.6,0"/><path class="uuid-568d92a6-e924-40a0-b9ad-3c85ce6b7542" d="M22.65,7.43c-4.34.02-8.64,1.88-11.55,5.06l1.79,1.85c5.24-5.2,14.28-5.29,19.63-.21l1.77-1.8c-2.96-3.14-7.29-4.94-11.64-4.9"/><path class="uuid-568d92a6-e924-40a0-b9ad-3c85ce6b7542" d="M22.72,14.61c-2.4.03-4.89,1.12-6.43,2.93l1.67,1.81c2.62-2.39,6.84-2.41,9.51-.07l1.84-1.87c-1.59-1.78-4.16-2.86-6.58-2.8"/><path class="uuid-568d92a6-e924-40a0-b9ad-3c85ce6b7542" d="M22.8,21.24c-.72,0-1.43.28-1.97.83l1.97,2.1,1.94-2.13c-.54-.53-1.24-.79-1.94-.79"/><text class="uuid-4d050756-5981-4af7-a1f6-d1a3d18bdd55" transform="translate(0 57.84)"><tspan class="uuid-59832332-61a1-42f3-8b6e-869b49bcaee8"><tspan x="0" y="0">WLAN</tspan></tspan><tspan class="uuid-164c4144-3de5-44f7-b3e7-555aed38b3ce"><tspan x="9.87" y="22.8">Wifi</tspan></tspan></text></g></svg>