<?xml version="1.0" encoding="UTF-8"?><svg id="uuid-4bbf458b-d649-439f-a289-fd6926fd86db" xmlns="http://www.w3.org/2000/svg" viewBox="0 0 17.87 62.14"><defs><style>.uuid-0f5efa8e-3357-4018-a19a-ac73979976cb{fill:#222221;}</style></defs><g id="uuid-76d0b045-57d8-428a-a57b-3c2d2b1a2fa0"><path class="uuid-0f5efa8e-3357-4018-a19a-ac73979976cb" d="M7.18,40.26l1.53,9.64h.49s1.48-9.64,1.48-9.64c4.09-.82,7.19-4.43,7.19-8.76s-3.02-7.94-7.19-8.76l-1.47-9.63h-.49s-1.54,9.64-1.54,9.64c-4.16.83-7.17,4.49-7.17,8.76s3.09,7.94,7.18,8.76ZM17.37,31.51c0,4.02-2.83,7.39-6.6,8.23l1.26-8.19-1.26-8.27c3.84.85,6.61,4.27,6.61,8.23ZM8.95,14.77l2.57,16.74h-5.25l2.68-16.74ZM7.08,23.29l-1.31,8.18,1.32,8.26c-3.77-.84-6.59-4.21-6.59-8.22s2.75-7.36,6.58-8.22Z"/><polygon class="uuid-0f5efa8e-3357-4018-a19a-ac73979976cb" points="10.69 61.03 10.53 61.03 8.09 54.31 5.92 54.31 5.92 62.14 7.19 62.14 7.19 55.43 7.36 55.43 9.74 62.14 11.95 62.14 11.95 54.31 10.69 54.31 10.69 61.03"/><path class="uuid-0f5efa8e-3357-4018-a19a-ac73979976cb" d="M8.55,4.69c1.34.37,1.75.54,1.75,1.27,0,.67-.49,1.02-1.45,1.02-.66,0-2.26-.18-2.26-.18l-.1,1.03s1.49.27,2.48.27c1.57,0,2.61-.65,2.61-2.23,0-1.36-.73-1.87-2.42-2.31-1.2-.29-1.55-.51-1.55-1.18,0-.82.45-1.26,1.42-1.26.81,0,2.35.21,2.35.21l.12-1.02s-1.54-.31-2.56-.31c-1.54,0-2.62.74-2.62,2.46,0,1.34.59,1.77,2.24,2.23Z"/></g></svg>