<?xml version="1.0" encoding="UTF-8"?><svg id="uuid-c75d6289-a3d4-42d4-ad31-04ec57f24f48" xmlns="http://www.w3.org/2000/svg" viewBox="0 0 17.87 62.14"><defs><style>.uuid-9ae8c2ee-9faa-400a-83f0-2a26a227add5{fill:#222221;}</style></defs><g id="uuid-8c48bdad-bde1-42d9-993f-cd7f5014b695"><path class="uuid-9ae8c2ee-9faa-400a-83f0-2a26a227add5" d="M10.69,21.88l-1.53-9.64h-.49s-1.48,9.64-1.48,9.64c-4.09.82-7.19,4.43-7.19,8.76s3.02,7.94,7.19,8.76l1.47,9.63h.49s1.54-9.64,1.54-9.64c4.16-.83,7.17-4.49,7.17-8.76s-3.09-7.94-7.18-8.76ZM.5,30.63c0-4.02,2.83-7.39,6.6-8.23l-1.26,8.19,1.26,8.27c-3.84-.85-6.61-4.27-6.61-8.23ZM8.92,47.37l-2.57-16.74h5.25l-2.68,16.74ZM10.78,38.85l1.31-8.18-1.32-8.26c3.77.84,6.59,4.21,6.59,8.22s-2.75,7.36-6.58,8.22Z"/><polygon class="uuid-9ae8c2ee-9faa-400a-83f0-2a26a227add5" points="7.18 1.11 7.34 1.11 9.78 7.83 11.95 7.83 11.95 0 10.68 0 10.68 6.71 10.51 6.71 8.13 0 5.91 0 5.91 7.83 7.18 7.83 7.18 1.11"/><path class="uuid-9ae8c2ee-9faa-400a-83f0-2a26a227add5" d="M9.32,57.45c-1.34-.37-1.75-.54-1.75-1.27,0-.67.49-1.02,1.45-1.02.66,0,2.26.18,2.26.18l.1-1.03s-1.49-.27-2.48-.27c-1.57,0-2.61.65-2.61,2.23,0,1.36.73,1.87,2.42,2.31,1.2.29,1.55.51,1.55,1.18,0,.82-.45,1.26-1.42,1.26-.81,0-2.35-.21-2.35-.21l-.12,1.02s1.54.31,2.56.31c1.54,0,2.62-.74,2.62-2.46,0-1.34-.59-1.77-2.24-2.23Z"/></g></svg>