<?xml version="1.0" encoding="UTF-8"?><svg id="uuid-088a968a-c2d4-4463-885b-5298d0da383b" xmlns="http://www.w3.org/2000/svg" viewBox="0 0 58.83 17.87"><defs><style>.uuid-8f20a4e6-eac0-4666-9f07-5bf950a2f8b1{fill:#222221;}</style></defs><g id="uuid-13dd4025-174f-4b61-acb8-7a3138721aa7"><path class="uuid-8f20a4e6-eac0-4666-9f07-5bf950a2f8b1" d="M20.98,7.18l-9.64,1.53v.49s9.64,1.48,9.64,1.48c.82,4.09,4.43,7.19,8.76,7.19s7.94-3.02,8.76-7.19l9.63-1.47v-.49s-9.64-1.54-9.64-1.54c-.83-4.16-4.49-7.17-8.76-7.17s-7.94,3.09-8.76,7.18ZM29.73,17.37c-4.02,0-7.39-2.83-8.23-6.6l8.19,1.26,8.27-1.26c-.85,3.84-4.27,6.61-8.23,6.61ZM46.47,8.95l-16.74,2.57v-5.25l16.74,2.68ZM37.96,7.08l-8.18-1.31-8.26,1.32c.84-3.77,4.21-6.59,8.22-6.59s7.36,2.75,8.22,6.58Z"/><polygon class="uuid-8f20a4e6-eac0-4666-9f07-5bf950a2f8b1" points="1.27 6.13 1.43 6.13 3.86 12.85 6.04 12.85 6.04 5.02 4.77 5.02 4.77 11.73 4.59 11.73 2.22 5.02 0 5.02 0 12.85 1.27 12.85 1.27 6.13"/><path class="uuid-8f20a4e6-eac0-4666-9f07-5bf950a2f8b1" d="M56.58,8.3c-1.34-.37-1.75-.54-1.75-1.27,0-.67.49-1.02,1.45-1.02.66,0,2.26.18,2.26.18l.1-1.03s-1.49-.27-2.48-.27c-1.57,0-2.61.65-2.61,2.23,0,1.36.73,1.87,2.42,2.31,1.2.29,1.55.51,1.55,1.18,0,.82-.45,1.26-1.42,1.26-.81,0-2.35-.21-2.35-.21l-.12,1.02s1.54.31,2.56.31c1.54,0,2.62-.74,2.62-2.46,0-1.34-.59-1.77-2.24-2.23Z"/></g></svg>