<?xml version="1.0" encoding="UTF-8"?><svg id="uuid-cb13236d-98ca-464f-8fc8-bf3e3d13bd69" xmlns="http://www.w3.org/2000/svg" viewBox="0 0 128.38 102.92"><defs><style>.uuid-20f115ad-3a1e-410c-b9a4-44bdc87de7bc{fill:#010101;}.uuid-e4a356f3-ad3b-4299-a097-d46db2d9dd55{fill:#222221;}</style></defs><g id="uuid-22ba31ca-9c70-4f37-b7be-90b9c0138c0d"><path class="uuid-e4a356f3-ad3b-4299-a097-d46db2d9dd55" d="M11.19,68.09c0,3.93-.95,6.74-5.03,6.74H1.56v-13.09h4.6c4.01,0,5.03,2.45,5.03,6.35ZM6.16,73.26c2.68,0,3.19-2.32,3.19-5.17s-.51-4.77-3.19-4.77h-2.81v9.94h2.81Z"/><path class="uuid-e4a356f3-ad3b-4299-a097-d46db2d9dd55" d="M18.62,65.13v1.75c-1.77.36-3.34,1.16-3.34,1.16v6.8h-1.75v-9.5h1.73v1.22s1.63-1.1,3.36-1.43Z"/><path class="uuid-e4a356f3-ad3b-4299-a097-d46db2d9dd55" d="M28.1,73.68l-.06,1.37c-1.08,0-1.77-.17-2.39-.74,0,0-1.62.74-3.25.74-1.8,0-2.75-1.03-2.75-2.98s1.03-2.66,3.02-2.83l2.72-.25v-.76c0-1.18-.51-1.58-1.54-1.58-1.31,0-3.59.21-3.59.21l-.06-1.27s2.07-.46,3.76-.46c2.24,0,3.17.99,3.17,3.1v4.6c.04.57.38.78.97.85ZM22.72,73.58c1.24,0,2.66-.49,2.66-.49v-2.83l-2.51.23c-1.01.1-1.46.59-1.46,1.54s.42,1.56,1.31,1.56Z"/><path class="uuid-e4a356f3-ad3b-4299-a097-d46db2d9dd55" d="M35.68,74.84v-.63s-1.41.84-2.7.84c-2.68,0-3.25-1.33-3.25-4.75v-4.96h1.75v4.96c0,2.36.19,3.17,1.8,3.17,1.27,0,2.39-.59,2.39-.59v-7.54h1.73v9.5h-1.73Z"/><path class="uuid-e4a356f3-ad3b-4299-a097-d46db2d9dd55" d="M43.13,66.71c-1.16,0-1.86.29-1.86,1.23,0,.76.44.97,2.37,1.31,2.32.4,3.17.91,3.17,2.79,0,2.22-1.41,3-3.72,3-1.25,0-3.42-.4-3.42-.4l.08-1.48s2.22.3,3.19.3c1.46,0,2.15-.3,2.15-1.37,0-.84-.42-1.06-2.39-1.37-2.11-.34-3.15-.78-3.15-2.74,0-2.11,1.67-2.85,3.48-2.85,1.41,0,3.51.38,3.51.38l-.04,1.48s-2.18-.3-3.36-.3Z"/><path class="uuid-e4a356f3-ad3b-4299-a097-d46db2d9dd55" d="M52,66.71c-1.16,0-1.86.29-1.86,1.23,0,.76.44.97,2.37,1.31,2.32.4,3.17.91,3.17,2.79,0,2.22-1.41,3-3.72,3-1.25,0-3.42-.4-3.42-.4l.08-1.48s2.22.3,3.19.3c1.46,0,2.15-.3,2.15-1.37,0-.84-.42-1.06-2.39-1.37-2.11-.34-3.15-.78-3.15-2.74,0-2.11,1.67-2.85,3.48-2.85,1.41,0,3.51.38,3.51.38l-.04,1.48s-2.18-.3-3.36-.3Z"/><path class="uuid-e4a356f3-ad3b-4299-a097-d46db2d9dd55" d="M64.94,73.33l.04,1.33s-2.17.38-3.78.38c-2.83,0-3.86-1.6-3.86-4.88,0-3.55,1.54-5.04,4.05-5.04s3.91,1.37,3.91,4.41l-.11,1.27h-6.08c.02,1.79.61,2.7,2.34,2.7,1.46,0,3.5-.17,3.5-.17ZM63.57,69.44c0-2.13-.65-2.85-2.18-2.85s-2.28.8-2.3,2.85h4.48Z"/><path class="uuid-e4a356f3-ad3b-4299-a097-d46db2d9dd55" d="M69.14,65.34v.63s1.46-.84,2.79-.84c2.62,0,3.25,1.41,3.25,4.65v5.05h-1.73v-5.02c0-2.2-.27-3.13-1.88-3.13-1.24,0-2.41.61-2.41.61v7.54h-1.75v-9.5h1.73Z"/><path class="uuid-e4a356f3-ad3b-4299-a097-d46db2d9dd55" d="M89.87,63.32h-6.33v4.1h5.19v1.56h-5.19v4.27h6.33v1.58h-8.11v-13.09h8.11v1.58Z"/><path class="uuid-e4a356f3-ad3b-4299-a097-d46db2d9dd55" d="M95.11,66.71c-1.16,0-1.86.29-1.86,1.23,0,.76.44.97,2.37,1.31,2.32.4,3.17.91,3.17,2.79,0,2.22-1.41,3-3.72,3-1.25,0-3.42-.4-3.42-.4l.08-1.48s2.22.3,3.19.3c1.46,0,2.15-.3,2.15-1.37,0-.84-.42-1.06-2.39-1.37-2.11-.34-3.15-.78-3.15-2.74,0-2.11,1.67-2.85,3.48-2.85,1.41,0,3.51.38,3.51.38l-.04,1.48s-2.18-.3-3.36-.3Z"/><path class="uuid-e4a356f3-ad3b-4299-a097-d46db2d9dd55" d="M103.98,66.71c-1.16,0-1.86.29-1.86,1.23,0,.76.44.97,2.37,1.31,2.32.4,3.17.91,3.17,2.79,0,2.22-1.41,3-3.72,3-1.25,0-3.42-.4-3.42-.4l.08-1.48s2.22.3,3.19.3c1.46,0,2.15-.3,2.15-1.37,0-.84-.42-1.06-2.39-1.37-2.11-.34-3.15-.78-3.15-2.74,0-2.11,1.67-2.85,3.48-2.85,1.41,0,3.51.38,3.51.38l-.04,1.48s-2.18-.3-3.36-.3Z"/><path class="uuid-e4a356f3-ad3b-4299-a097-d46db2d9dd55" d="M116.92,73.33l.04,1.33s-2.17.38-3.78.38c-2.83,0-3.86-1.6-3.86-4.88,0-3.55,1.54-5.04,4.05-5.04s3.91,1.37,3.91,4.41l-.11,1.27h-6.08c.02,1.79.61,2.7,2.34,2.7,1.46,0,3.5-.17,3.5-.17ZM115.55,69.44c0-2.13-.65-2.85-2.18-2.85s-2.28.8-2.3,2.85h4.48Z"/><path class="uuid-e4a356f3-ad3b-4299-a097-d46db2d9dd55" d="M121.12,65.34v.63s1.46-.84,2.79-.84c2.62,0,3.25,1.41,3.25,4.65v5.05h-1.73v-5.02c0-2.2-.27-3.13-1.88-3.13-1.23,0-2.41.61-2.41.61v7.54h-1.75v-9.5h1.73Z"/><path class="uuid-e4a356f3-ad3b-4299-a097-d46db2d9dd55" d="M29.14,84.43v1.06h-6.74v4.9h5.6v1.04h-5.6v5.15h6.74v1.04h-7.92v-13.2h7.92Z"/><path class="uuid-e4a356f3-ad3b-4299-a097-d46db2d9dd55" d="M39.25,96.89l-.06.91c-.93,0-1.63-.19-2.15-.76,0,0-1.79.78-3.57.78-1.67,0-2.6-.97-2.6-2.87,0-1.75.87-2.58,2.79-2.77l3.23-.32v-.89c0-1.44-.65-1.99-1.86-1.99-1.37,0-3.59.29-3.59.29l-.06-.91s2.09-.4,3.69-.4c2.07,0,2.94,1.01,2.94,3.02v5.09c.06.57.61.76,1.23.84ZM33.63,96.86c1.54,0,3.27-.66,3.27-.66v-3.44l-3.1.32c-1.27.11-1.75.72-1.75,1.86,0,1.22.53,1.92,1.58,1.92Z"/><path class="uuid-e4a356f3-ad3b-4299-a097-d46db2d9dd55" d="M44.12,96.82c.53,0,1.75-.13,1.75-.13l.08.97s-1.25.19-1.92.19c-1.88,0-2.56-.7-2.56-3.44v-5.26h-1.41v-1.01h1.41v-2.98h1.14v2.98h3.17v1.01h-3.17v4.69c0,2.38.15,2.98,1.52,2.98Z"/><path class="uuid-e4a356f3-ad3b-4299-a097-d46db2d9dd55" d="M58.92,92.75c0,3.59-.8,5.07-3.97,5.07s-3.99-1.48-3.99-5.07c0-3.36,1.04-4.81,3.99-4.81s3.97,1.44,3.97,4.81ZM54.95,96.82c2.45,0,2.81-1.16,2.81-4.06s-.65-3.8-2.81-3.8-2.81.95-2.81,3.8.34,4.06,2.81,4.06Z"/><path class="uuid-e4a356f3-ad3b-4299-a097-d46db2d9dd55" d="M68.49,97.63h-1.12v-.7s-1.46.89-2.93.89c-2.64,0-3.17-1.18-3.17-4.73v-4.96h1.12v4.94c0,2.83.29,3.72,2.19,3.72,1.5,0,2.79-.8,2.79-.8v-7.87h1.12v9.5Z"/><path class="uuid-e4a356f3-ad3b-4299-a097-d46db2d9dd55" d="M74.5,96.82c.53,0,1.75-.13,1.75-.13l.08.97s-1.25.19-1.92.19c-1.88,0-2.56-.7-2.56-3.44v-5.26h-1.41v-1.01h1.41v-2.98h1.14v2.98h3.17v1.01h-3.17v4.69c0,2.38.15,2.98,1.52,2.98Z"/><path class="uuid-e4a356f3-ad3b-4299-a097-d46db2d9dd55" d="M80.8,88.99c-1.18,0-2.24.32-2.24,1.61,0,.99.47,1.27,2.55,1.62,2.43.4,3.34.84,3.34,2.66,0,2.22-1.39,2.95-3.67,2.95-1.16,0-3.25-.34-3.25-.34l.08-1.01s2.13.32,3.1.32c1.63,0,2.58-.38,2.58-1.86,0-1.14-.57-1.39-2.7-1.71-2.18-.34-3.19-.74-3.19-2.58,0-2.07,1.71-2.68,3.36-2.68,1.42,0,3.36.32,3.36.32l-.04,1.01s-2.03-.3-3.29-.3Z"/><path class="uuid-e4a356f3-ad3b-4299-a097-d46db2d9dd55" d="M86.75,84.34h1.12v1.42h-1.12v-1.42ZM87.87,88.14v9.5h-1.12v-9.5h1.12Z"/><path class="uuid-e4a356f3-ad3b-4299-a097-d46db2d9dd55" d="M96.69,97.63v-.7s-1.5.89-3.04.89-3.34-.53-3.34-4.83c0-3.32,1.01-5.05,3.99-5.05.84,0,2.03.19,2.39.25v-4.27h1.14v13.71h-1.14ZM93.76,96.8c1.44,0,2.93-.82,2.93-.82v-6.8c-.38-.06-1.6-.23-2.36-.23-2.26,0-2.85,1.44-2.85,4.05,0,3.36,1.18,3.8,2.28,3.8Z"/><path class="uuid-e4a356f3-ad3b-4299-a097-d46db2d9dd55" d="M107.52,96.63l.04.93s-2.15.27-3.63.27c-2.83-.02-3.69-1.73-3.69-4.9,0-3.67,1.6-4.98,3.91-4.98,2.45,0,3.74,1.31,3.74,4.5l-.04.91h-6.46c0,2.24.65,3.44,2.64,3.44,1.39,0,3.48-.17,3.48-.17ZM106.76,92.41c0-2.56-.82-3.48-2.6-3.48s-2.75.95-2.75,3.48h5.36Z"/><path class="uuid-20f115ad-3a1e-410c-b9a4-44bdc87de7bc" d="M87.95,14.65c-17.67,5.37-35.82,11.27-53.27,17.33l.55,1.68c17.68-5.36,35.83-11.28,53.27-17.33l-.55-1.68Z"/><path class="uuid-20f115ad-3a1e-410c-b9a4-44bdc87de7bc" d="M44.36,27.57c.11-.04.35-.12.47-.16l-.87-6.99h14.76s-.31,2.48-.31,2.48c.04-.01,1.57-.51,1.66-.54l.29-2.63-.77-.86h-16.52s-.78.86-.78.86l.91,8.23,1.15-.39Z"/><path class="uuid-20f115ad-3a1e-410c-b9a4-44bdc87de7bc" d="M57.26,32.27c-.26,2.12-.93,7.49-1.19,9.53-.07.62-.65,1.12-1.27,1.1-1.36-.01-2.71-.02-4.07,0h-2.03c-.17,0-.6.02-.76.02-.63.04-1.23-.44-1.32-1.06-.37-2.95-.9-7.27-1.26-10.23-.51.16-1.17.37-1.68.52.21,1.94.65,5.87.86,7.82.03.25.23,2.16.28,2.36.28,1.44,1.66,2.53,3.12,2.49.16,0,.6,0,.76,0,0,0,2.03.01,2.03.01,2.64-.11,6.67.84,7.19-2.8.47-4.3,1.17-10.64,1.64-14.95l-1.74.56-.57,4.62Z"/><path class="uuid-20f115ad-3a1e-410c-b9a4-44bdc87de7bc" d="M61.83,13.94c.32,1.44,1.58,2.61,3.02,2.87l.04,3.99c.58-.19,1.44-.47,2-.65l.03-3.34c2.21-.35,3.43-2.63,3.2-4.72,0-.36-.05-2.35-.06-2.75-.06-2.58-.11-6.26-.26-8.8h-.9c-.15,2.54-.19,6.23-.26,8.8l-.05,2.2c0,1.08.02,2.39-.86,3.12l-.21-14.12h-1.05s-.31,14.73-.31,14.73c-.2.02-.39.02-.59,0l-.31-14.73h-1.05s-.21,14.11-.21,14.11c-.86-.74-.83-2.03-.84-3.1,0,0-.05-2.2-.05-2.2-.06-2.59-.11-6.25-.26-8.8h-.9c-.15,2.54-.2,6.23-.26,8.8.02,1.38-.22,3.24.1,4.59Z"/><polygon class="uuid-20f115ad-3a1e-410c-b9a4-44bdc87de7bc" points="65.11 44.44 66.68 44.44 66.85 24.71 64.93 25.34 65.11 44.44"/><path class="uuid-20f115ad-3a1e-410c-b9a4-44bdc87de7bc" d="M73.61,14.31c.13-2.64.31-5.29.76-7.89.24-1.67.87-3.39,2.27-4.41-.12,4.72-.19,10.38-.23,15.12.82-.26,1.33-.42,2.03-.64-.04-5.05-.12-10.75-.26-15.78l-.97-.72c-2.79.97-4.14,3.85-4.49,6.61-.67,3.97-.86,7.99-.98,12,.59-.19,1.18-.37,1.75-.56.02-1.25.06-2.5.12-3.74Z"/><path class="uuid-20f115ad-3a1e-410c-b9a4-44bdc87de7bc" d="M76.52,21.5l-.14.05c0,1.07,0,2.15,0,3.22-.69-.14-1.64-.2-2.24-.42-.75-.35-.67-1.13-.67-1.83-.58.2-1.2.4-1.79.59-.11,1.46.97,2.9,2.43,3.16.71.14,1.58.29,2.29.43.07,4.59.19,13.49.25,18.19h1.56c.07-7.32.3-16.81.26-24.04-.63.21-1.28.43-1.94.65Z"/></g></svg>