<?xml version="1.0" encoding="UTF-8"?><svg id="uuid-59557feb-ccb6-4d9f-a101-d6ec5a1caac3" xmlns="http://www.w3.org/2000/svg" viewBox="0 0 145.52 146.05"><defs><style>.uuid-01ce04bc-17bc-4540-9789-09f3f20bfeed{fill:#222221;}</style></defs><g id="uuid-61714a97-9469-4a53-8eea-198c1177bfe8"><path class="uuid-01ce04bc-17bc-4540-9789-09f3f20bfeed" d="M13,62.64c0,1.65-.55,2.45-1.62,2.98,1.14.42,1.98,1.22,1.98,3.06,0,2.72-1.6,3.69-4.1,3.69h-5.05v-13.09h4.86c2.56,0,3.93.99,3.93,3.36ZM9.09,64.98c1.46,0,2.09-.72,2.09-2.15s-.72-2-2.2-2h-2.98v4.14h3.1ZM9.19,70.81c1.44,0,2.36-.47,2.36-2.22s-1.41-2.09-2.43-2.09h-3.12v4.31h3.19Z"/><path class="uuid-01ce04bc-17bc-4540-9789-09f3f20bfeed" d="M17.38,60.99h-1.75v-1.92h1.75v1.92ZM15.63,62.87h1.75v9.5h-1.75v-9.5Z"/><path class="uuid-01ce04bc-17bc-4540-9789-09f3f20bfeed" d="M23.4,71.02c.53,0,1.63-.09,1.63-.09l.1,1.42s-1.27.23-1.94.23c-2.05,0-2.72-.78-2.72-3.51v-4.69h-1.29v-1.5h1.29v-2.83h1.73v2.83h2.81v1.5h-2.81v4.35c0,1.75.09,2.3,1.2,2.3Z"/><path class="uuid-01ce04bc-17bc-4540-9789-09f3f20bfeed" d="M30.14,71.02c.53,0,1.63-.09,1.63-.09l.1,1.42s-1.27.23-1.94.23c-2.05,0-2.72-.78-2.72-3.51v-4.69h-1.29v-1.5h1.29v-2.83h1.73v2.83h2.81v1.5h-2.81v4.35c0,1.75.09,2.3,1.2,2.3Z"/><path class="uuid-01ce04bc-17bc-4540-9789-09f3f20bfeed" d="M40.65,70.87l.04,1.33s-2.17.38-3.78.38c-2.83,0-3.86-1.6-3.86-4.88,0-3.55,1.54-5.04,4.05-5.04s3.91,1.37,3.91,4.41l-.11,1.27h-6.08c.02,1.79.61,2.7,2.34,2.7,1.46,0,3.5-.17,3.5-.17ZM39.28,66.97c0-2.13-.65-2.85-2.18-2.85s-2.28.8-2.3,2.85h4.48Z"/><path class="uuid-01ce04bc-17bc-4540-9789-09f3f20bfeed" d="M49.03,62.87v.63s1.46-.84,2.79-.84c2.62,0,3.25,1.41,3.25,4.65v5.05h-1.73v-5.02c0-2.2-.27-3.13-1.88-3.13-1.24,0-2.41.61-2.41.61v7.54h-1.75v-9.5h1.73Z"/><path class="uuid-01ce04bc-17bc-4540-9789-09f3f20bfeed" d="M63.45,72.37v-.63s-1.41.84-2.7.84c-2.68,0-3.25-1.33-3.25-4.75v-4.96h1.75v4.96c0,2.36.19,3.17,1.8,3.17,1.27,0,2.39-.59,2.39-.59v-7.54h1.73v9.5h-1.73Z"/><path class="uuid-01ce04bc-17bc-4540-9789-09f3f20bfeed" d="M72.89,62.66v1.75c-1.77.36-3.34,1.16-3.34,1.16v6.8h-1.75v-9.5h1.73v1.22s1.63-1.1,3.36-1.42Z"/><path class="uuid-01ce04bc-17bc-4540-9789-09f3f20bfeed" d="M80.43,62.87v.63s1.39-.84,2.62-.84,1.94.29,2.45.95c0,0,1.71-.95,3.33-.95,2.58,0,3.25,1.31,3.25,4.65v5.05h-1.75v-5.02c0-2.2-.25-3.13-1.8-3.13-1.22,0-2.41.61-2.41.61.11.32.19,1.58.19,2.6v4.94h-1.73v-4.9c0-2.36-.25-3.25-1.82-3.25-1.2,0-2.3.61-2.3.61v7.54h-1.75v-9.5h1.73Z"/><path class="uuid-01ce04bc-17bc-4540-9789-09f3f20bfeed" d="M96.36,60.99h-1.75v-1.92h1.75v1.92ZM94.61,62.87h1.75v9.5h-1.75v-9.5Z"/><path class="uuid-01ce04bc-17bc-4540-9789-09f3f20bfeed" d="M102.38,71.02c.53,0,1.63-.09,1.63-.09l.1,1.42s-1.27.23-1.94.23c-2.05,0-2.72-.78-2.72-3.51v-4.69h-1.29v-1.5h1.29v-2.83h1.73v2.83h2.81v1.5h-2.81v4.35c0,1.75.09,2.3,1.2,2.3Z"/><path class="uuid-01ce04bc-17bc-4540-9789-09f3f20bfeed" d="M112.98,72.58c-2.15,0-3.5-1.03-3.5-4.92,0-3.38,1.16-5,3.95-5,.8,0,2.05.21,2.26.25v-4.08h1.73v13.54h-1.73v-.57s-1.42.78-2.72.78ZM113.23,71c1.22,0,2.47-.59,2.47-.59v-6.02c-.21-.04-1.35-.21-2.15-.21-1.69,0-2.3,1.16-2.3,3.48,0,2.75.84,3.34,1.98,3.34Z"/><path class="uuid-01ce04bc-17bc-4540-9789-09f3f20bfeed" d="M127.23,70.87l.04,1.33s-2.17.38-3.78.38c-2.83,0-3.86-1.6-3.86-4.88,0-3.55,1.54-5.04,4.05-5.04s3.91,1.37,3.91,4.41l-.11,1.27h-6.08c.02,1.79.61,2.7,2.34,2.7,1.46,0,3.5-.17,3.5-.17ZM125.86,66.97c0-2.13-.65-2.85-2.18-2.85s-2.28.8-2.3,2.85h4.48Z"/><path class="uuid-01ce04bc-17bc-4540-9789-09f3f20bfeed" d="M131.43,62.87v.63s1.46-.84,2.79-.84c2.62,0,3.25,1.41,3.25,4.65v5.05h-1.73v-5.02c0-2.2-.27-3.13-1.88-3.13-1.23,0-2.41.61-2.41.61v7.54h-1.75v-9.5h1.73Z"/><path class="uuid-01ce04bc-17bc-4540-9789-09f3f20bfeed" d="M19.19,95.17h-1.79l-.82-3.1h-5.32l-.82,3.1h-1.79l3.42-13.09h3.68l3.42,13.09ZM16.21,90.5l-1.79-6.9h-.97l-1.8,6.9h4.56Z"/><path class="uuid-01ce04bc-17bc-4540-9789-09f3f20bfeed" d="M26.77,95.17v-.63s-1.41.84-2.7.84c-2.68,0-3.25-1.33-3.25-4.75v-4.96h1.75v4.96c0,2.36.19,3.17,1.8,3.17,1.27,0,2.39-.59,2.39-.59v-7.54h1.73v9.5h-1.73Z"/><path class="uuid-01ce04bc-17bc-4540-9789-09f3f20bfeed" d="M30.68,96.8c0-1.03.49-1.58,1.48-2.34-.38-.25-.59-.76-.59-1.35,0-.4.67-1.5.67-1.5-.74-.4-1.42-1.14-1.42-2.87,0-2.36,1.52-3.27,3.67-3.27.91,0,1.96.25,1.96.25l2.89-.08v1.44l-1.69-.08c.3.34.57.85.57,1.73,0,2.53-1.29,3.25-3.78,3.25-.19,0-.68-.04-.87-.08,0,0-.3.74-.3.99,0,.68.17.8,2.17.82,2.85,0,3.8.59,3.8,2.81s-1.69,3.08-4.29,3.08c-2.94,0-4.24-.63-4.24-2.81ZM34.94,98.17c1.71,0,2.53-.46,2.53-1.54,0-1.24-.55-1.37-2.19-1.39-.63,0-1.96-.11-1.96-.11-.67.53-.91.85-.91,1.52,0,1.1.59,1.52,2.53,1.52ZM34.48,90.63c1.44,0,1.98-.55,1.98-1.88s-.53-1.88-1.98-1.88c-1.35,0-1.94.57-1.94,1.88s.59,1.88,1.94,1.88Z"/><path class="uuid-01ce04bc-17bc-4540-9789-09f3f20bfeed" d="M48.16,93.67l.04,1.33s-2.17.38-3.78.38c-2.83,0-3.86-1.6-3.86-4.88,0-3.55,1.54-5.04,4.05-5.04s3.91,1.37,3.91,4.41l-.11,1.27h-6.08c.02,1.79.61,2.7,2.34,2.7,1.46,0,3.5-.17,3.5-.17ZM46.79,89.77c0-2.13-.65-2.85-2.18-2.85s-2.28.8-2.3,2.85h4.48Z"/><path class="uuid-01ce04bc-17bc-4540-9789-09f3f20bfeed" d="M52.36,85.67v.63s1.46-.84,2.79-.84c2.62,0,3.25,1.41,3.25,4.65v5.05h-1.73v-5.02c0-2.2-.27-3.13-1.88-3.13-1.24,0-2.41.61-2.41.61v7.54h-1.75v-9.5h1.73Z"/><path class="uuid-01ce04bc-17bc-4540-9789-09f3f20bfeed" d="M72.99,90.27c0,3.86-1.12,5.11-4.56,5.11-1.06,0-3.33-.23-3.33-.23v-13.53h1.73v4.46s1.39-.63,2.58-.63c2.58,0,3.57,1.33,3.57,4.81ZM68.44,93.8c2.36,0,2.79-1.04,2.79-3.53,0-2.3-.53-3.25-1.99-3.25-1.16,0-2.39.47-2.39.47v6.23s1.14.08,1.6.08Z"/><path class="uuid-01ce04bc-17bc-4540-9789-09f3f20bfeed" d="M82.36,93.67l.04,1.33s-2.17.38-3.78.38c-2.83,0-3.86-1.6-3.86-4.88,0-3.55,1.54-5.04,4.05-5.04s3.91,1.37,3.91,4.41l-.11,1.27h-6.08c.02,1.79.61,2.7,2.34,2.7,1.46,0,3.5-.17,3.5-.17ZM80.99,89.77c0-2.13-.65-2.85-2.18-2.85s-2.28.8-2.3,2.85h4.48Z"/><path class="uuid-01ce04bc-17bc-4540-9789-09f3f20bfeed" d="M89.92,85.46v1.75c-1.77.36-3.34,1.16-3.34,1.16v6.8h-1.75v-9.5h1.73v1.22s1.63-1.1,3.36-1.42Z"/><path class="uuid-01ce04bc-17bc-4540-9789-09f3f20bfeed" d="M91.46,90.63v-4.96h1.75v4.96c0,2.36.19,3.17,1.8,3.17,1.27,0,2.39-.59,2.39-.59v-7.54h1.73v9.5h-1.73v-.63s-1.41.84-2.7.84c-2.68,0-3.25-1.33-3.25-4.75ZM94.29,81.57h-1.67v1.94h1.67v-1.94ZM96.5,83.51h1.69v-1.94h-1.69v1.94Z"/><path class="uuid-01ce04bc-17bc-4540-9789-09f3f20bfeed" d="M103.51,81.62v4.56s1.46-.72,2.77-.72c2.62,0,3.25,1.41,3.25,4.65v5.05h-1.75v-5.02c0-2.2-.27-3.13-1.86-3.13-1.2,0-2.41.49-2.41.49v7.66h-1.75v-13.54h1.75Z"/><path class="uuid-01ce04bc-17bc-4540-9789-09f3f20bfeed" d="M117.15,85.46v1.75c-1.77.36-3.34,1.16-3.34,1.16v6.8h-1.75v-9.5h1.73v1.22s1.63-1.1,3.36-1.42Z"/><path class="uuid-01ce04bc-17bc-4540-9789-09f3f20bfeed" d="M125.81,93.67l.04,1.33s-2.17.38-3.78.38c-2.83,0-3.86-1.6-3.86-4.88,0-3.55,1.54-5.04,4.05-5.04s3.91,1.37,3.91,4.41l-.11,1.27h-6.08c.02,1.79.61,2.7,2.34,2.7,1.46,0,3.5-.17,3.5-.17ZM124.45,89.77c0-2.13-.65-2.85-2.18-2.85s-2.28.8-2.3,2.85h4.48Z"/><path class="uuid-01ce04bc-17bc-4540-9789-09f3f20bfeed" d="M130.01,85.67v.63s1.46-.84,2.79-.84c2.62,0,3.25,1.41,3.25,4.65v5.05h-1.73v-5.02c0-2.2-.27-3.13-1.88-3.13-1.23,0-2.41.61-2.41.61v7.54h-1.75v-9.5h1.73Z"/><path class="uuid-01ce04bc-17bc-4540-9789-09f3f20bfeed" d="M2.83,117.97h-1.18v-13.2h4.83c2.83,0,4.1,1.37,4.1,4.18s-1.27,4.43-4.1,4.43h-3.65v4.6ZM6.48,112.33c2.05,0,2.89-1.23,2.89-3.38s-.84-3.13-2.89-3.13h-3.65v6.52h3.65Z"/><path class="uuid-01ce04bc-17bc-4540-9789-09f3f20bfeed" d="M13.93,104.25v13.72h-1.12v-13.72h1.12Z"/><path class="uuid-01ce04bc-17bc-4540-9789-09f3f20bfeed" d="M23.75,116.96l.04.93s-2.15.27-3.63.27c-2.83-.02-3.69-1.73-3.69-4.9,0-3.67,1.6-4.98,3.91-4.98,2.45,0,3.74,1.31,3.74,4.5l-.04.91h-6.46c0,2.24.65,3.44,2.64,3.44,1.39,0,3.48-.17,3.48-.17ZM22.99,112.75c0-2.56-.82-3.48-2.6-3.48s-2.75.95-2.75,3.48h5.36Z"/><path class="uuid-01ce04bc-17bc-4540-9789-09f3f20bfeed" d="M34.24,117.23l-.06.91c-.93,0-1.63-.19-2.15-.76,0,0-1.79.78-3.57.78-1.67,0-2.6-.97-2.6-2.87,0-1.75.87-2.58,2.79-2.77l3.23-.32v-.89c0-1.44-.65-2-1.86-2-1.37,0-3.59.29-3.59.29l-.06-.91s2.09-.4,3.69-.4c2.07,0,2.94,1.01,2.94,3.02v5.09c.06.57.61.76,1.23.84ZM28.61,117.19c1.54,0,3.27-.66,3.27-.66v-3.44l-3.1.32c-1.27.11-1.75.72-1.75,1.86,0,1.22.53,1.92,1.58,1.92Z"/><path class="uuid-01ce04bc-17bc-4540-9789-09f3f20bfeed" d="M38.82,109.33c-1.18,0-2.24.32-2.24,1.61,0,.99.47,1.27,2.55,1.62,2.43.4,3.34.84,3.34,2.66,0,2.22-1.39,2.95-3.67,2.95-1.16,0-3.25-.34-3.25-.34l.08-1.01s2.13.32,3.1.32c1.63,0,2.58-.38,2.58-1.86,0-1.14-.57-1.39-2.7-1.71-2.18-.34-3.19-.74-3.19-2.58,0-2.07,1.71-2.68,3.36-2.68,1.42,0,3.36.32,3.36.32l-.04,1.01s-2.03-.3-3.29-.3Z"/><path class="uuid-01ce04bc-17bc-4540-9789-09f3f20bfeed" d="M51.62,116.96l.04.93s-2.15.27-3.63.27c-2.83-.02-3.69-1.73-3.69-4.9,0-3.67,1.6-4.98,3.91-4.98,2.45,0,3.74,1.31,3.74,4.5l-.04.91h-6.46c0,2.24.65,3.44,2.64,3.44,1.39,0,3.48-.17,3.48-.17ZM50.86,112.75c0-2.56-.82-3.48-2.6-3.48s-2.75.95-2.75,3.48h5.36Z"/><path class="uuid-01ce04bc-17bc-4540-9789-09f3f20bfeed" d="M61.67,117.15c.53,0,1.75-.13,1.75-.13l.08.97s-1.25.19-1.92.19c-1.88,0-2.56-.7-2.56-3.44v-5.26h-1.41v-1.01h1.41v-2.98h1.14v2.98h3.17v1.01h-3.17v4.69c0,2.38.15,2.98,1.52,2.98Z"/><path class="uuid-01ce04bc-17bc-4540-9789-09f3f20bfeed" d="M72.67,113.09c0,3.59-.8,5.07-3.97,5.07s-3.99-1.48-3.99-5.07c0-3.36,1.04-4.81,3.99-4.81s3.97,1.44,3.97,4.81ZM68.7,117.15c2.45,0,2.81-1.16,2.81-4.07s-.65-3.8-2.81-3.8-2.81.95-2.81,3.8.34,4.07,2.81,4.07Z"/><path class="uuid-01ce04bc-17bc-4540-9789-09f3f20bfeed" d="M82.25,117.97h-1.12v-.7s-1.46.89-2.93.89c-2.64,0-3.17-1.18-3.17-4.73v-4.96h1.12v4.94c0,2.83.29,3.72,2.19,3.72,1.5,0,2.79-.8,2.79-.8v-7.87h1.12v9.5Z"/><path class="uuid-01ce04bc-17bc-4540-9789-09f3f20bfeed" d="M91.1,108.53l-.06.97s-1.5-.19-2.22-.19c-2.28,0-2.94,1.01-2.94,3.74,0,2.98.46,4.08,2.94,4.08.72,0,2.26-.17,2.26-.17l.04.97s-1.69.23-2.51.23c-3.08,0-3.91-1.37-3.91-5.11,0-3.48,1.1-4.77,3.93-4.77.82,0,2.47.25,2.47.25Z"/><path class="uuid-01ce04bc-17bc-4540-9789-09f3f20bfeed" d="M93.33,104.25h1.12v4.77s1.6-.74,3.08-.74c2.6,0,3.17,1.22,3.17,4.69v5h-1.14v-4.94c0-2.79-.3-3.72-2.19-3.72-1.48,0-2.92.65-2.92.65v8.02h-1.12v-13.72Z"/><path class="uuid-01ce04bc-17bc-4540-9789-09f3f20bfeed" d="M110.08,116.98h.27l2.47-8.32h1.2l2.47,8.32h.29l2.09-8.51h1.16l-2.37,9.5h-1.98l-2.24-7.83-2.26,7.83h-1.96l-2.38-9.5h1.16l2.09,8.51Z"/><path class="uuid-01ce04bc-17bc-4540-9789-09f3f20bfeed" d="M122.07,104.67h1.12v1.42h-1.12v-1.42ZM123.19,108.47v9.5h-1.12v-9.5h1.12Z"/><path class="uuid-01ce04bc-17bc-4540-9789-09f3f20bfeed" d="M129.2,117.15c.53,0,1.75-.13,1.75-.13l.08.97s-1.25.19-1.92.19c-1.88,0-2.56-.7-2.56-3.44v-5.26h-1.41v-1.01h1.41v-2.98h1.14v2.98h3.17v1.01h-3.17v4.69c0,2.38.15,2.98,1.52,2.98Z"/><path class="uuid-01ce04bc-17bc-4540-9789-09f3f20bfeed" d="M132.64,104.25h1.12v4.77s1.6-.74,3.08-.74c2.6,0,3.17,1.22,3.17,4.69v5h-1.14v-4.94c0-2.79-.3-3.72-2.19-3.72-1.48,0-2.92.65-2.92.65v8.02h-1.12v-13.72Z"/><path class="uuid-01ce04bc-17bc-4540-9789-09f3f20bfeed" d="M20.06,139.78h.68l2.55-8.51h1.16l-4.1,13.77h-1.14l1.27-4.27h-1.31l-2.79-9.5h1.16l2.53,8.51Z"/><path class="uuid-01ce04bc-17bc-4540-9789-09f3f20bfeed" d="M33.74,135.89c0,3.59-.8,5.07-3.97,5.07s-3.99-1.48-3.99-5.07c0-3.36,1.04-4.81,3.99-4.81s3.97,1.44,3.97,4.81ZM29.77,139.95c2.45,0,2.81-1.16,2.81-4.07s-.65-3.8-2.81-3.8-2.81.95-2.81,3.8.34,4.07,2.81,4.07Z"/><path class="uuid-01ce04bc-17bc-4540-9789-09f3f20bfeed" d="M43.32,140.77h-1.12v-.7s-1.46.89-2.93.89c-2.64,0-3.17-1.18-3.17-4.73v-4.96h1.12v4.94c0,2.83.29,3.72,2.19,3.72,1.5,0,2.79-.8,2.79-.8v-7.87h1.12v9.5Z"/><path class="uuid-01ce04bc-17bc-4540-9789-09f3f20bfeed" d="M47.29,131.27v1.37s1.65-1.2,3.59-1.56v1.14c-1.82.38-3.59,1.42-3.59,1.42v7.12h-1.12v-9.5h1.12Z"/><path class="uuid-01ce04bc-17bc-4540-9789-09f3f20bfeed" d="M63.65,139.76l.04.93s-2.15.27-3.63.27c-2.83-.02-3.69-1.73-3.69-4.9,0-3.67,1.6-4.98,3.91-4.98,2.45,0,3.74,1.31,3.74,4.5l-.04.91h-6.46c0,2.24.65,3.44,2.64,3.44,1.39,0,3.48-.17,3.48-.17ZM62.89,135.55c0-2.56-.82-3.48-2.6-3.48s-2.75.95-2.75,3.48h5.36Z"/><path class="uuid-01ce04bc-17bc-4540-9789-09f3f20bfeed" d="M68.97,139.78h.68l2.55-8.51h1.16l-4.1,13.77h-1.14l1.27-4.27h-1.31l-2.79-9.5h1.16l2.53,8.51Z"/><path class="uuid-01ce04bc-17bc-4540-9789-09f3f20bfeed" d="M81.95,139.76l.04.93s-2.15.27-3.63.27c-2.83-.02-3.69-1.73-3.69-4.9,0-3.67,1.6-4.98,3.91-4.98,2.45,0,3.74,1.31,3.74,4.5l-.04.91h-6.46c0,2.24.65,3.44,2.64,3.44,1.39,0,3.48-.17,3.48-.17ZM81.18,135.55c0-2.56-.82-3.48-2.6-3.48s-2.75.95-2.75,3.48h5.36Z"/><path class="uuid-01ce04bc-17bc-4540-9789-09f3f20bfeed" d="M87.53,132.13c-1.18,0-2.24.32-2.24,1.61,0,.99.47,1.27,2.55,1.62,2.43.4,3.34.84,3.34,2.66,0,2.22-1.39,2.95-3.67,2.95-1.16,0-3.25-.34-3.25-.34l.08-1.01s2.13.32,3.1.32c1.63,0,2.58-.38,2.58-1.86,0-1.14-.57-1.39-2.7-1.71-2.18-.34-3.19-.74-3.19-2.58,0-2.07,1.71-2.68,3.36-2.68,1.42,0,3.36.32,3.36.32l-.04,1.01s-2.03-.3-3.29-.3Z"/><path class="uuid-01ce04bc-17bc-4540-9789-09f3f20bfeed" d="M105.22,135.89c0,3.59-.8,5.07-3.97,5.07s-3.99-1.48-3.99-5.07c0-3.36,1.04-4.81,3.99-4.81s3.97,1.44,3.97,4.81ZM101.25,139.95c2.45,0,2.81-1.16,2.81-4.07s-.65-3.8-2.81-3.8-2.81.95-2.81,3.8.34,4.07,2.81,4.07Z"/><path class="uuid-01ce04bc-17bc-4540-9789-09f3f20bfeed" d="M107.67,131.27h1.12v.7s1.6-.89,3.1-.89c2.6,0,3.17,1.22,3.17,4.69v5h-1.14v-4.94c0-2.79-.3-3.72-2.2-3.72-1.48,0-2.93.8-2.93.8v7.87h-1.12v-9.5Z"/><path class="uuid-01ce04bc-17bc-4540-9789-09f3f20bfeed" d="M119.03,127.05v13.72h-1.12v-13.72h1.12Z"/><path class="uuid-01ce04bc-17bc-4540-9789-09f3f20bfeed" d="M124.77,139.78h.68l2.55-8.51h1.16l-4.1,13.77h-1.14l1.27-4.27h-1.31l-2.79-9.5h1.16l2.53,8.51Z"/><path class="uuid-01ce04bc-17bc-4540-9789-09f3f20bfeed" d="M46.42,6.54l-.84-1.54s14.39-8.09,30.07-3.69c14.15,3.97,21.77,17.72,21.77,17.72l-1.78,1.03s-9.25-12.89-20.35-16.12c-14.05-4.1-28.88,2.61-28.88,2.61"/><path class="uuid-01ce04bc-17bc-4540-9789-09f3f20bfeed" d="M69.95,38.57c-13.51,0-20.26-11.88-20.26-11.88,0,0,.96-1.49,2.8-3.36,1.59,3.09,6.11,9.65,14.55,7.95,8.34-1.68,10.44-9.17,9.27-13.89,8.17,3.45,12.84,11.1,12.84,11.1,0,0-10.07,10.08-19.2,10.08M69.37,13.67c-14.8-.27-22.04,12.52-22.04,12.52l.03,1.21s8.23,13.52,22.01,13.54c10.68.01,21.86-11.57,21.86-11.57v-1.52s-7.74-13.92-21.86-14.18"/></g></svg>