<?xml version="1.0" encoding="UTF-8"?><svg id="uuid-118afa39-2396-44b9-9d09-3ffaa3d6dee1" xmlns="http://www.w3.org/2000/svg" viewBox="0 0 61.2 102.66"><defs><style>.uuid-dfdc49fd-8202-425d-b216-d4b78048d592{fill:#222221;}</style></defs><g id="uuid-67677fa4-ff5e-4121-9d0c-a257dde2ec5b"><path class="uuid-dfdc49fd-8202-425d-b216-d4b78048d592" d="M14.4,63.06h-6.33v4.1h5.19v1.56h-5.19v4.27h6.33v1.58H6.29v-13.09h8.11v1.58Z"/><path class="uuid-dfdc49fd-8202-425d-b216-d4b78048d592" d="M18.3,63.2h-1.75v-1.92h1.75v1.92ZM16.55,65.08h1.75v9.5h-1.75v-9.5Z"/><path class="uuid-dfdc49fd-8202-425d-b216-d4b78048d592" d="M22.65,65.08v.63s1.46-.84,2.79-.84c2.62,0,3.25,1.41,3.25,4.65v5.05h-1.73v-5.02c0-2.2-.27-3.13-1.88-3.13-1.24,0-2.41.61-2.41.61v7.54h-1.75v-9.5h1.73Z"/><path class="uuid-dfdc49fd-8202-425d-b216-d4b78048d592" d="M34.58,73.23c.53,0,1.63-.09,1.63-.09l.1,1.42s-1.27.23-1.94.23c-2.05,0-2.72-.78-2.72-3.51v-4.69h-1.29v-1.5h1.29v-2.83h1.73v2.83h2.81v1.5h-2.81v4.35c0,1.75.09,2.3,1.2,2.3Z"/><path class="uuid-dfdc49fd-8202-425d-b216-d4b78048d592" d="M43.02,64.87v1.75c-1.77.36-3.34,1.16-3.34,1.16v6.8h-1.75v-9.5h1.73v1.22s1.63-1.1,3.36-1.42Z"/><path class="uuid-dfdc49fd-8202-425d-b216-d4b78048d592" d="M46.4,63.2h-1.75v-1.92h1.75v1.92ZM44.65,65.08h1.75v9.5h-1.75v-9.5Z"/><path class="uuid-dfdc49fd-8202-425d-b216-d4b78048d592" d="M52.42,73.23c.53,0,1.63-.09,1.63-.09l.1,1.42s-1.27.23-1.94.23c-2.05,0-2.72-.78-2.72-3.51v-4.69h-1.29v-1.5h1.29v-2.83h1.73v2.83h2.81v1.5h-2.81v4.35c0,1.75.09,2.3,1.2,2.3Z"/><path class="uuid-dfdc49fd-8202-425d-b216-d4b78048d592" d="M59.17,73.23c.53,0,1.63-.09,1.63-.09l.1,1.42s-1.27.23-1.94.23c-2.05,0-2.72-.78-2.72-3.51v-4.69h-1.29v-1.5h1.29v-2.83h1.73v2.83h2.81v1.5h-2.81v4.35c0,1.75.09,2.3,1.2,2.3Z"/><path class="uuid-dfdc49fd-8202-425d-b216-d4b78048d592" d="M28.01,84.17v1.06h-6.61v5.45h5.62v1.04h-5.62v5.64h-1.18v-13.2h7.79Z"/><path class="uuid-dfdc49fd-8202-425d-b216-d4b78048d592" d="M36.49,96.37l.04.93s-2.15.27-3.63.27c-2.83-.02-3.69-1.73-3.69-4.9,0-3.67,1.6-4.98,3.91-4.98,2.45,0,3.74,1.31,3.74,4.5l-.04.91h-6.46c0,2.24.65,3.44,2.64,3.44,1.39,0,3.48-.17,3.48-.17ZM35.73,92.15c0-2.56-.82-3.48-2.6-3.48s-2.75.95-2.75,3.48h5.36Z"/><path class="uuid-dfdc49fd-8202-425d-b216-d4b78048d592" d="M46.07,96.37l.04.93s-2.15.27-3.63.27c-2.83-.02-3.69-1.73-3.69-4.9,0-3.67,1.6-4.98,3.91-4.98,2.45,0,3.74,1.31,3.74,4.5l-.04.91h-6.46c0,2.24.65,3.44,2.64,3.44,1.39,0,3.48-.17,3.48-.17ZM45.3,92.15c0-2.56-.82-3.48-2.6-3.48s-2.75.95-2.75,3.48h5.36Z"/><path class="uuid-dfdc49fd-8202-425d-b216-d4b78048d592" d="M9.64,22.6c3.04-1.03,6.55-.57,9.18,1.28-2.75,1.45-4.37,4.74-3.74,7.8.19,1.26.82,2.76,2.32,2.72.71,0,5.11-1.66,5.85-1.85-.1,5.59-4.68,10.1-10.29,10.1-11.61-.2-14.23-16.12-3.32-20.05M25.1,21.26l-3.46,1.43c-1.35-1.21-2.93-2.12-4.65-2.68l.24-3.85,3.85-3.03c1.09-.86,2.62-.86,3.71,0l1.52,1.18c2.5,1.85,1.59,5.92-1.2,6.96M55.64,1.54s-.4-1.52-.4-1.54h-29.37c-2.11,0-4.19.72-5.85,2.03l-9.64,7.58c-1.61,1.26-2.53,3.16-2.53,5.2l.61,5.33c-13.51,5.22-10,24.99,4.5,25.23,7.39.03,13.49-6.32,12.97-13.72l11.4-3.74c2.48-.79,4.31-1.68,7.43-4.33l.04-.04,3.76-3.86c1.31-1.56,4.37-1.9,6.5-1.78l.53-1.71c-2.27.13-6.13-.17-7.49,1.34l-3.77,3.62c-3.03,2.57-5.35,3.44-7.23,4.04-4.15,1.46-15.25,5.37-19.3,6.67-.57-2.31.43-4.88,2.69-5.78,0,0,2.56-1.06,2.56-1.06,1.73-.76,4.46-1.56,5.66-3.11,2.7-2.84,2.06-7.46-1.07-9.77,0,0-1.21-.88-1.21-.88-2.08-1.63-4.99-1.63-7.07,0l-3.99,3.14c-.57.45-.59.82-.59,1.55v3.45c-.88-.05-1.78-.13-2.67-.06-.62.02-1.25.17-1.88.19l-.37-4.74c0-1.2.54-2.32,1.49-3.06l9.95-7.89c1.18-.93,3.03-1.82,4.54-1.82l29.76-.5h0s0,0,0,0Z"/></g></svg>