<?xml version="1.0" encoding="UTF-8"?><svg id="uuid-b15c4985-5e20-4aa7-85a2-818516e18a14" xmlns="http://www.w3.org/2000/svg" viewBox="0 0 126.02 92.1"><defs><style>.uuid-4c04e870-78ba-436c-a2a1-e600ec16e387{fill:#222221;}</style></defs><g id="uuid-e4274089-1353-4046-96f3-5ad3cdaf35a8"><path class="uuid-4c04e870-78ba-436c-a2a1-e600ec16e387" d="M68.59,32.31c-.07-3.26-1.36-6.36-1.39-9.59l-1-1.1-10.37-1.16-1.09.58c-1.14,2.15-3.07,3.87-4.33,5.98-1.44,2.25-2.21,4.94-2.14,7.61l1.69.02c-.16-5.05,3.56-8.23,6.32-11.95l8.73,1.05c.53,3.66,1.98,7.14,1.91,10.89h1.7c.01-.78,0-1.55-.04-2.33Z"/><path class="uuid-4c04e870-78ba-436c-a2a1-e600ec16e387" d="M106.38,7.92c-1.41,0-2.54,1.2-2.45,2.61-8.69,2.73-18.49,4.42-27.39,1.58.25-.64.51-1.28.78-1.91,1.07-.28,2.59-.67,3.64-.95,2.17-.52,3.29-3.08,2.91-5.14l-.71-.69c-1.21-.3-2.43-.6-3.66-.84l-.81-1.41-.62-.49c-1.2-.35-2.5-.76-3.8-.67-.71.05-1.41.25-2.05.55-3.07,1.26-3.78,4.78-5.41,7.27-1.25,1.75-3.59,1.85-5.55,2.02-2.88.23-6.25.29-9.08.84-2.19.48-4.12,1.93-5.17,3.91-1.67,2.95-1.22,6.51-1.64,9.74-.08.54-.24,1.06-.39,1.59-.83,2.83-1.66,5.8-1.64,8.78l1.68.04c0-3.31,1.19-6.48,2.03-9.65.58-2.93.13-6.18,1.28-8.98.69-1.46,1.83-2.73,3.38-3.27.66-.25,1.39-.39,2.09-.47,1.36-.14,2.73-.24,4.11-.33,1.07-.04,3.99-.22,5.03-.32,1.66-.18,3.37-.56,4.67-1.71,1.92,1.35,4,2.47,6.22,3.32-.46,1.28-.91,2.57-1.23,3.9-.4,1.7-.64,3.44-.83,5.16-.43,4.06-.53,8.23-.51,12.32h1.69c.04-4.01.22-8.11.72-12.09.21-1.63.47-3.28.87-4.88.33-1.26.8-2.5,1.26-3.73,9.39,2.88,19.66.98,28.73-2.08,1.39,1.72,4.37.66,4.32-1.59,0-1.35-1.1-2.45-2.45-2.45ZM76.79,10.34h0s.01,0,.01,0h0ZM76.27,8.22s-.74.64-.75.64c-.34.84-.66,1.67-.97,2.51-1.97-.8-3.83-1.85-5.53-3.08.99-1.65,1.52-3.69,2.93-5.02.42-.4.96-.71,1.52-.92,1.18-.47,2.42-.1,3.61.23l.84,1.47.79.53c1.11.12,2.22.33,3.32.54-.13.79-.55,1.8-1.32,2.07,0,0-1.05.24-1.05.24-.72.17-2.63.6-3.37.77ZM106.38,11.11c-.97,0-.97-1.47,0-1.48.97,0,.97,1.47,0,1.48Z"/><path class="uuid-4c04e870-78ba-436c-a2a1-e600ec16e387" d="M3.34,64.02h-1.79v-13.09h1.79v5.72h6.16v-5.72h1.79v13.09h-1.79v-5.79H3.34v5.79Z"/><path class="uuid-4c04e870-78ba-436c-a2a1-e600ec16e387" d="M20.01,64.02v-.63s-1.41.84-2.7.84c-2.68,0-3.25-1.33-3.25-4.75v-4.96h1.75v4.96c0,2.36.19,3.17,1.8,3.17,1.27,0,2.39-.59,2.39-.59v-7.54h1.73v9.5h-1.73Z"/><path class="uuid-4c04e870-78ba-436c-a2a1-e600ec16e387" d="M26.09,54.52v.63s1.46-.84,2.79-.84c2.62,0,3.25,1.41,3.25,4.65v5.05h-1.73v-5.02c0-2.2-.27-3.13-1.88-3.13-1.24,0-2.41.61-2.41.61v7.54h-1.75v-9.5h1.73Z"/><path class="uuid-4c04e870-78ba-436c-a2a1-e600ec16e387" d="M37.73,64.23c-2.15,0-3.5-1.03-3.5-4.92,0-3.38,1.16-5,3.95-5,.8,0,2.05.21,2.26.25v-4.08h1.73v13.54h-1.73v-.57s-1.42.78-2.72.78ZM37.98,62.65c1.22,0,2.47-.59,2.47-.59v-6.02c-.21-.04-1.35-.21-2.15-.21-1.69,0-2.3,1.16-2.3,3.48,0,2.75.84,3.34,1.98,3.34Z"/><path class="uuid-4c04e870-78ba-436c-a2a1-e600ec16e387" d="M51.98,62.52l.04,1.33s-2.17.38-3.78.38c-2.83,0-3.86-1.6-3.86-4.88,0-3.55,1.54-5.04,4.05-5.04s3.91,1.37,3.91,4.41l-.11,1.27h-6.08c.02,1.79.61,2.7,2.34,2.7,1.46,0,3.5-.17,3.5-.17ZM50.61,58.63c0-2.13-.65-2.85-2.18-2.85s-2.28.8-2.3,2.85h4.48Z"/><path class="uuid-4c04e870-78ba-436c-a2a1-e600ec16e387" d="M66.48,62.86l-.06,1.37c-1.08,0-1.77-.17-2.39-.74,0,0-1.62.74-3.25.74-1.8,0-2.75-1.03-2.75-2.98s1.03-2.66,3.02-2.83l2.72-.25v-.76c0-1.18-.51-1.58-1.54-1.58-1.31,0-3.59.21-3.59.21l-.06-1.27s2.07-.46,3.76-.46c2.24,0,3.17.99,3.17,3.1v4.6c.04.57.38.78.97.85ZM61.1,62.77c1.24,0,2.66-.49,2.66-.49v-2.83l-2.51.23c-1.01.1-1.46.59-1.46,1.54s.42,1.56,1.31,1.56Z"/><path class="uuid-4c04e870-78ba-436c-a2a1-e600ec16e387" d="M69.94,54.52v.63s1.46-.84,2.79-.84c2.62,0,3.25,1.41,3.25,4.65v5.05h-1.73v-5.02c0-2.2-.27-3.13-1.88-3.13-1.23,0-2.41.61-2.41.61v7.54h-1.75v-9.5h1.73Z"/><path class="uuid-4c04e870-78ba-436c-a2a1-e600ec16e387" d="M80.37,64.02h-1.75v-13.54h1.75v13.54Z"/><path class="uuid-4c04e870-78ba-436c-a2a1-e600ec16e387" d="M90.27,62.52l.04,1.33s-2.17.38-3.78.38c-2.83,0-3.86-1.6-3.86-4.88,0-3.55,1.54-5.04,4.05-5.04s3.91,1.37,3.91,4.41l-.11,1.27h-6.08c.02,1.79.61,2.7,2.34,2.7,1.46,0,3.5-.17,3.5-.17ZM88.9,58.63c0-2.13-.65-2.85-2.18-2.85s-2.28.8-2.3,2.85h4.48Z"/><path class="uuid-4c04e870-78ba-436c-a2a1-e600ec16e387" d="M94.48,52.64h-1.75v-1.92h1.75v1.92ZM92.74,54.52h1.75v9.5h-1.75v-9.5Z"/><path class="uuid-4c04e870-78ba-436c-a2a1-e600ec16e387" d="M98.83,54.52v.63s1.46-.84,2.79-.84c2.62,0,3.25,1.41,3.25,4.65v5.05h-1.73v-5.02c0-2.2-.27-3.13-1.88-3.13-1.23,0-2.41.61-2.41.61v7.54h-1.75v-9.5h1.73Z"/><path class="uuid-4c04e870-78ba-436c-a2a1-e600ec16e387" d="M114.57,62.52l.04,1.33s-2.17.38-3.78.38c-2.83,0-3.86-1.6-3.86-4.88,0-3.55,1.54-5.04,4.05-5.04s3.91,1.37,3.91,4.41l-.11,1.27h-6.08c.02,1.79.61,2.7,2.34,2.7,1.46,0,3.5-.17,3.5-.17ZM113.2,58.63c0-2.13-.65-2.85-2.18-2.85s-2.28.8-2.3,2.85h4.48Z"/><path class="uuid-4c04e870-78ba-436c-a2a1-e600ec16e387" d="M118.77,54.52v.63s1.46-.84,2.79-.84c2.62,0,3.25,1.41,3.25,4.65v5.05h-1.73v-5.02c0-2.2-.27-3.13-1.88-3.13-1.24,0-2.41.61-2.41.61v7.54h-1.75v-9.5h1.73Z"/><path class="uuid-4c04e870-78ba-436c-a2a1-e600ec16e387" d="M20.05,73.62h1.18v12.14h6.04v1.06h-7.22v-13.2Z"/><path class="uuid-4c04e870-78ba-436c-a2a1-e600ec16e387" d="M35.67,85.81l.04.93s-2.15.27-3.63.27c-2.83-.02-3.69-1.73-3.69-4.9,0-3.67,1.6-4.98,3.91-4.98,2.45,0,3.74,1.31,3.74,4.5l-.04.91h-6.46c0,2.24.65,3.44,2.64,3.44,1.39,0,3.48-.17,3.48-.17ZM34.91,81.6c0-2.56-.82-3.48-2.6-3.48s-2.75.95-2.75,3.48h5.36Z"/><path class="uuid-4c04e870-78ba-436c-a2a1-e600ec16e387" d="M46.16,86.08l-.06.91c-.93,0-1.63-.19-2.15-.76,0,0-1.79.78-3.57.78-1.67,0-2.6-.97-2.6-2.87,0-1.75.87-2.58,2.79-2.77l3.23-.32v-.89c0-1.44-.65-2-1.86-2-1.37,0-3.59.29-3.59.29l-.06-.91s2.09-.4,3.69-.4c2.07,0,2.94,1.01,2.94,3.02v5.09c.06.57.61.76,1.23.84ZM40.54,86.04c1.54,0,3.27-.66,3.27-.66v-3.44l-3.1.32c-1.27.11-1.75.72-1.75,1.86,0,1.22.53,1.92,1.58,1.92Z"/><path class="uuid-4c04e870-78ba-436c-a2a1-e600ec16e387" d="M50.74,78.18c-1.18,0-2.24.32-2.24,1.61,0,.99.47,1.27,2.55,1.62,2.43.4,3.34.84,3.34,2.66,0,2.22-1.39,2.95-3.67,2.95-1.16,0-3.25-.34-3.25-.34l.08-1.01s2.13.32,3.1.32c1.63,0,2.58-.38,2.58-1.86,0-1.14-.57-1.39-2.7-1.71-2.18-.34-3.19-.74-3.19-2.58,0-2.07,1.71-2.68,3.36-2.68,1.42,0,3.36.32,3.36.32l-.04,1.01s-2.03-.3-3.29-.3Z"/><path class="uuid-4c04e870-78ba-436c-a2a1-e600ec16e387" d="M56.69,73.11h1.12v4.77s1.6-.74,3.08-.74c2.6,0,3.17,1.22,3.17,4.69v5h-1.14v-4.94c0-2.79-.3-3.72-2.19-3.72-1.48,0-2.92.65-2.92.65v8.02h-1.12v-13.72Z"/><path class="uuid-4c04e870-78ba-436c-a2a1-e600ec16e387" d="M76.58,86.82v-.7s-1.5.89-3.04.89-3.34-.53-3.34-4.83c0-3.32,1.01-5.05,3.99-5.05.84,0,2.03.19,2.39.25v-4.27h1.14v13.72h-1.14ZM73.65,85.99c1.44,0,2.93-.82,2.93-.82v-6.8c-.38-.06-1.6-.23-2.36-.23-2.26,0-2.85,1.44-2.85,4.05,0,3.36,1.18,3.8,2.28,3.8Z"/><path class="uuid-4c04e870-78ba-436c-a2a1-e600ec16e387" d="M88.11,81.94c0,3.59-.8,5.07-3.97,5.07s-3.99-1.48-3.99-5.07c0-3.36,1.04-4.81,3.99-4.81s3.97,1.44,3.97,4.81ZM84.14,86.01c2.45,0,2.81-1.16,2.81-4.07s-.65-3.8-2.81-3.8-2.81.95-2.81,3.8.34,4.07,2.81,4.07Z"/><path class="uuid-4c04e870-78ba-436c-a2a1-e600ec16e387" d="M90.14,88.4c0-1.16.53-1.65,1.54-2.39-.32-.21-.48-.7-.48-1.29,0-.32.61-1.48.61-1.48-.82-.34-1.56-1.1-1.56-2.87,0-2.32,1.37-3.23,3.44-3.23.99,0,1.99.25,1.99.25l2.75-.06v1.01l-1.9-.04c.4.4.68.95.68,2.07,0,2.41-1.2,3.17-3.59,3.17-.17,0-.76-.04-.97-.08,0,0-.38.93-.38,1.18,0,.82.15.91,2.41.93,2.58,0,3.55.46,3.55,2.75,0,2.13-1.42,3-4.16,3-3.06,0-3.95-.72-3.95-2.92ZM94.12,90.34c2.09,0,2.98-.57,2.98-1.98,0-1.62-.68-1.79-2.47-1.79-.72,0-2.15-.08-2.15-.08-.91.65-1.2,1.01-1.2,1.82,0,1.48.51,2.01,2.83,2.01ZM93.7,82.59c1.75,0,2.37-.59,2.37-2.22s-.63-2.28-2.37-2.28c-1.6,0-2.28.63-2.28,2.28s.68,2.22,2.28,2.22Z"/><path class="uuid-4c04e870-78ba-436c-a2a1-e600ec16e387" d="M103.1,78.18c-1.18,0-2.24.32-2.24,1.61,0,.99.47,1.27,2.55,1.62,2.43.4,3.34.84,3.34,2.66,0,2.22-1.39,2.95-3.67,2.95-1.16,0-3.25-.34-3.25-.34l.08-1.01s2.13.32,3.1.32c1.63,0,2.58-.38,2.58-1.86,0-1.14-.57-1.39-2.7-1.71-2.18-.34-3.19-.74-3.19-2.58,0-2.07,1.71-2.68,3.36-2.68,1.42,0,3.36.32,3.36.32l-.04,1.01s-2.03-.3-3.29-.3Z"/></g></svg>