<?xml version="1.0" encoding="UTF-8"?><svg id="uuid-6bb060cc-bcf3-48bb-83e5-3905e50205d4" xmlns="http://www.w3.org/2000/svg" viewBox="0 0 76.8 107.7"><defs><style>.uuid-c841a368-edf8-4a6d-8776-0e425980192d{fill:#222221;}</style></defs><g id="uuid-2df5e894-b90e-49c0-9c2e-48ebb9df64bb"><path class="uuid-c841a368-edf8-4a6d-8776-0e425980192d" d="M49.44,0h-19.95c-1.34,0-2.43,1.09-2.43,2.43v41.04c0,1.34,1.09,2.43,2.43,2.43h19.95c1.34,0,2.43-1.09,2.43-2.43V2.43c0-1.34-1.09-2.43-2.43-2.43ZM38.96,6.5h1.32l7.62,5.97-1.32,1.68-6.97-5.46-6.97,5.46-1.32-1.68,7.63-5.97ZM40.28,39.4h-1.32l-7.62-5.97,1.32-1.68,6.97,5.46,6.97-5.46,1.32,1.68-7.63,5.97Z"/><path class="uuid-c841a368-edf8-4a6d-8776-0e425980192d" d="M9.54,68.11H3.34v4.75h5.19v1.58H3.34v5.19h-1.79v-13.09h7.98v1.58Z"/><path class="uuid-c841a368-edf8-4a6d-8776-0e425980192d" d="M18.64,78.46l-.06,1.37c-1.08,0-1.77-.17-2.39-.74,0,0-1.62.74-3.25.74-1.8,0-2.75-1.03-2.75-2.98s1.03-2.66,3.02-2.83l2.72-.25v-.76c0-1.18-.51-1.58-1.54-1.58-1.31,0-3.59.21-3.59.21l-.06-1.27s2.07-.46,3.76-.46c2.24,0,3.17.99,3.17,3.1v4.6c.04.57.38.78.97.85ZM13.26,78.37c1.24,0,2.66-.49,2.66-.49v-2.83l-2.51.23c-1.01.1-1.46.59-1.46,1.54s.42,1.56,1.31,1.56Z"/><path class="uuid-c841a368-edf8-4a6d-8776-0e425980192d" d="M22.12,66.08v4.56s1.46-.72,2.77-.72c2.62,0,3.25,1.41,3.25,4.65v5.05h-1.75v-5.02c0-2.2-.27-3.13-1.86-3.13-1.2,0-2.41.49-2.41.49v7.66h-1.75v-13.54h1.75Z"/><path class="uuid-c841a368-edf8-4a6d-8776-0e425980192d" d="M35.76,69.91v1.75c-1.77.36-3.34,1.16-3.34,1.16v6.8h-1.75v-9.5h1.73v1.22s1.63-1.1,3.36-1.42Z"/><path class="uuid-c841a368-edf8-4a6d-8776-0e425980192d" d="M40.49,71.49c-1.16,0-1.86.29-1.86,1.24,0,.76.44.97,2.37,1.31,2.32.4,3.17.91,3.17,2.79,0,2.22-1.41,3-3.72,3-1.25,0-3.42-.4-3.42-.4l.08-1.48s2.22.3,3.19.3c1.46,0,2.15-.3,2.15-1.37,0-.84-.42-1.06-2.39-1.37-2.11-.34-3.15-.78-3.15-2.74,0-2.11,1.67-2.85,3.48-2.85,1.41,0,3.51.38,3.51.38l-.04,1.48s-2.18-.3-3.36-.3Z"/><path class="uuid-c841a368-edf8-4a6d-8776-0e425980192d" d="M49.67,78.27c.53,0,1.63-.09,1.63-.09l.1,1.42s-1.27.23-1.94.23c-2.05,0-2.72-.78-2.72-3.51v-4.69h-1.29v-1.5h1.29v-2.83h1.73v2.83h2.81v1.5h-2.81v4.35c0,1.75.09,2.3,1.2,2.3Z"/><path class="uuid-c841a368-edf8-4a6d-8776-0e425980192d" d="M58.86,79.62v-.63s-1.41.84-2.7.84c-2.68,0-3.25-1.33-3.25-4.75v-4.96h1.75v4.96c0,2.36.19,3.17,1.8,3.17,1.27,0,2.39-.59,2.39-.59v-7.54h1.73v9.5h-1.73Z"/><path class="uuid-c841a368-edf8-4a6d-8776-0e425980192d" d="M64.96,66.08v4.56s1.46-.72,2.77-.72c2.62,0,3.25,1.41,3.25,4.65v5.05h-1.75v-5.02c0-2.2-.27-3.13-1.86-3.13-1.2,0-2.41.49-2.41.49v7.66h-1.75v-13.54h1.75Z"/><path class="uuid-c841a368-edf8-4a6d-8776-0e425980192d" d="M75.37,79.62h-1.75v-13.54h1.75v13.54Z"/><path class="uuid-c841a368-edf8-4a6d-8776-0e425980192d" d="M27.13,89.22h1.18v12.14h6.04v1.06h-7.22v-13.2Z"/><path class="uuid-c841a368-edf8-4a6d-8776-0e425980192d" d="M36.02,89.12h1.12v1.42h-1.12v-1.42ZM37.14,92.92v9.5h-1.12v-9.5h1.12Z"/><path class="uuid-c841a368-edf8-4a6d-8776-0e425980192d" d="M40.37,102.42v-8.49h-1.23v-1.01h1.23v-.97c0-2.74.68-3.44,2.51-3.44.65,0,1.84.1,1.84.1v.97s-1.12-.04-1.67-.04c-1.16,0-1.54.47-1.54,2.43v.95h2.87v1.01h-2.87v8.49h-1.14Z"/><path class="uuid-c841a368-edf8-4a6d-8776-0e425980192d" d="M49.3,101.61c.53,0,1.75-.13,1.75-.13l.08.97s-1.25.19-1.92.19c-1.88,0-2.56-.7-2.56-3.44v-5.26h-1.41v-1.01h1.41v-2.98h1.14v2.98h3.17v1.01h-3.17v4.69c0,2.38.15,2.98,1.52,2.98Z"/></g></svg>