<?xml version="1.0" encoding="UTF-8"?><svg id="uuid-d40f3f71-29df-47d2-a55c-dc2bbd86a4fd" xmlns="http://www.w3.org/2000/svg" viewBox="0 0 116.32 81.11"><defs><style>.uuid-7eed298a-2222-476e-9080-ceb8adc27897{fill:#222221;}</style></defs><g id="uuid-26709e36-db98-4d83-9772-4b67c9195f22"><path class="uuid-7eed298a-2222-476e-9080-ceb8adc27897" d="M31.64,9.65c.07,4.78,4.24,9.06,9.06,8.97,4.58.1,8.63-3.8,9.03-8.2l15.06-.15.25,6.95h1.31l.25-6.97,3.16-.03.26,8.16h1.31l.26-8.18,3.16-.03.25,6.12h1.31l.25-6.14,3.63-.04v-1.6l-30.48-.3C49.32,3.65,45.04-.28,40.32.02c-4.93.12-8.96,4.76-8.68,9.63ZM33.76,9.32c-.09-3.67,2.98-7.08,6.65-7.22,4.04-.32,7.56,3.31,7.46,7.23h0s0,.02,0,.02v-.02c.1,3.72-3.21,7.35-7.11,7.22,0,0-.04,0,0,0h0c-3.8.05-7.09-3.43-7-7.23Z"/><path class="uuid-7eed298a-2222-476e-9080-ceb8adc27897" d="M5.28,41.31c-1.73,0-2.62.61-2.62,1.92,0,1.46.8,1.75,3.06,2.3,2.68.68,3.74,1.37,3.74,3.63,0,2.87-1.69,4.07-4.27,4.07-1.62,0-4.2-.48-4.2-.48l.17-1.44s2.58.34,3.93.34c1.73,0,2.58-.78,2.58-2.38,0-1.29-.68-1.69-2.75-2.13-2.77-.67-4.07-1.41-4.07-3.8,0-2.58,1.71-3.61,4.29-3.61,1.6,0,4.05.42,4.05.42l-.15,1.46s-2.66-.3-3.76-.3Z"/><path class="uuid-7eed298a-2222-476e-9080-ceb8adc27897" d="M17.9,43.65l-.06,1.41s-1.52-.17-2.24-.17c-2.07,0-2.6.87-2.6,3.25,0,2.62.42,3.53,2.62,3.53.72,0,2.24-.15,2.24-.15l.06,1.41s-1.84.32-2.77.32c-2.96,0-3.91-1.42-3.91-5.11,0-3.42,1.12-4.81,3.95-4.81.95,0,2.72.32,2.72.32Z"/><path class="uuid-7eed298a-2222-476e-9080-ceb8adc27897" d="M21.72,39.49v4.56s1.46-.72,2.77-.72c2.62,0,3.25,1.41,3.25,4.65v5.05h-1.75v-5.02c0-2.2-.27-3.13-1.86-3.13-1.2,0-2.41.49-2.41.49v7.66h-1.75v-13.54h1.75Z"/><path class="uuid-7eed298a-2222-476e-9080-ceb8adc27897" d="M32.13,53.03h-1.75v-13.54h1.75v13.54Z"/><path class="uuid-7eed298a-2222-476e-9080-ceb8adc27897" d="M36.61,41.65h-1.75v-1.92h1.75v1.92ZM34.86,43.53h1.75v9.5h-1.75v-9.5Z"/><path class="uuid-7eed298a-2222-476e-9080-ceb8adc27897" d="M46.4,51.53l.04,1.33s-2.17.38-3.78.38c-2.83,0-3.86-1.6-3.86-4.88,0-3.55,1.54-5.04,4.05-5.04s3.91,1.37,3.91,4.41l-.11,1.27h-6.08c.02,1.79.61,2.7,2.34,2.7,1.46,0,3.5-.17,3.5-.17ZM45.03,47.64c0-2.13-.65-2.85-2.18-2.85s-2.28.8-2.3,2.85h4.48Z"/><path class="uuid-7eed298a-2222-476e-9080-ceb8adc27897" d="M51.96,44.9c-1.16,0-1.86.29-1.86,1.24,0,.76.44.97,2.37,1.31,2.32.4,3.17.91,3.17,2.79,0,2.22-1.41,3-3.72,3-1.25,0-3.42-.4-3.42-.4l.08-1.48s2.22.3,3.19.3c1.46,0,2.15-.3,2.15-1.37,0-.84-.42-1.06-2.39-1.37-2.11-.34-3.15-.78-3.15-2.74,0-2.11,1.67-2.85,3.48-2.85,1.41,0,3.51.38,3.51.38l-.04,1.48s-2.18-.3-3.36-.3Z"/><path class="uuid-7eed298a-2222-476e-9080-ceb8adc27897" d="M60.84,44.9c-1.16,0-1.86.29-1.86,1.24,0,.76.44.97,2.37,1.31,2.32.4,3.17.91,3.17,2.79,0,2.22-1.41,3-3.72,3-1.25,0-3.42-.4-3.42-.4l.08-1.48s2.22.3,3.19.3c1.46,0,2.15-.3,2.15-1.37,0-.84-.42-1.06-2.39-1.37-2.11-.34-3.15-.78-3.15-2.74,0-2.11,1.67-2.85,3.48-2.85,1.41,0,3.51.38,3.51.38l-.04,1.48s-2.18-.3-3.36-.3Z"/><path class="uuid-7eed298a-2222-476e-9080-ceb8adc27897" d="M67.03,45.03h-1.14v-1.5h1.14v-.74c0-2.74.7-3.51,2.62-3.51.65,0,1.99.17,1.99.17l-.02,1.42s-1.01-.04-1.58-.04c-.97,0-1.27.44-1.27,1.98v.72h2.62v1.5h-2.62v8h-1.75v-8Z"/><path class="uuid-7eed298a-2222-476e-9080-ceb8adc27897" d="M75.47,47.43l2.72-.25v-.76c0-1.18-.51-1.58-1.54-1.58-1.31,0-3.59.21-3.59.21l-.06-1.27s2.07-.46,3.76-.46c2.24,0,3.17.99,3.17,3.1v4.6c.04.57.38.78.97.85l-.06,1.37c-1.08,0-1.77-.17-2.39-.74,0,0-1.62.74-3.25.74-1.8,0-2.75-1.03-2.75-2.98s1.03-2.66,3.02-2.83ZM75.2,41.37h-1.67v-1.94h1.67v1.94ZM75.52,51.78c1.24,0,2.66-.49,2.66-.49v-2.83l-2.51.23c-1.01.1-1.46.59-1.46,1.54s.42,1.56,1.31,1.56ZM77.42,39.43h1.67v1.94h-1.67v-1.94Z"/><path class="uuid-7eed298a-2222-476e-9080-ceb8adc27897" d="M88.9,43.65l-.06,1.41s-1.52-.17-2.24-.17c-2.07,0-2.6.87-2.6,3.25,0,2.62.42,3.53,2.62,3.53.72,0,2.24-.15,2.24-.15l.06,1.41s-1.84.32-2.77.32c-2.96,0-3.91-1.42-3.91-5.11,0-3.42,1.12-4.81,3.95-4.81.95,0,2.72.32,2.72.32Z"/><path class="uuid-7eed298a-2222-476e-9080-ceb8adc27897" d="M92.72,39.49v4.56s1.46-.72,2.77-.72c2.62,0,3.25,1.41,3.25,4.65v5.05h-1.75v-5.02c0-2.2-.27-3.13-1.86-3.13-1.2,0-2.41.49-2.41.49v7.66h-1.75v-13.54h1.75Z"/><path class="uuid-7eed298a-2222-476e-9080-ceb8adc27897" d="M108.43,51.53l.04,1.33s-2.17.38-3.78.38c-2.83,0-3.86-1.6-3.86-4.88,0-3.55,1.54-5.04,4.05-5.04s3.91,1.37,3.91,4.41l-.11,1.27h-6.08c.02,1.79.61,2.7,2.34,2.7,1.46,0,3.5-.17,3.5-.17ZM107.06,47.64c0-2.13-.65-2.85-2.18-2.85s-2.28.8-2.3,2.85h4.48Z"/><path class="uuid-7eed298a-2222-476e-9080-ceb8adc27897" d="M115.99,43.32v1.75c-1.77.36-3.34,1.16-3.34,1.16v6.8h-1.75v-9.5h1.73v1.22s1.63-1.1,3.36-1.42Z"/><path class="uuid-7eed298a-2222-476e-9080-ceb8adc27897" d="M29.45,62.63h1.18v12.14h6.04v1.06h-7.22v-13.2Z"/><path class="uuid-7eed298a-2222-476e-9080-ceb8adc27897" d="M45.77,70.95c0,3.59-.8,5.07-3.97,5.07s-3.99-1.48-3.99-5.07c0-3.36,1.04-4.81,3.99-4.81s3.97,1.44,3.97,4.81ZM41.8,75.01c2.45,0,2.81-1.16,2.81-4.07s-.65-3.8-2.81-3.8-2.81.95-2.81,3.8.34,4.07,2.81,4.07Z"/><path class="uuid-7eed298a-2222-476e-9080-ceb8adc27897" d="M54.22,66.39l-.06.97s-1.5-.19-2.22-.19c-2.28,0-2.94,1.01-2.94,3.74,0,2.98.46,4.08,2.94,4.08.72,0,2.26-.17,2.26-.17l.04.97s-1.69.23-2.51.23c-3.08,0-3.91-1.37-3.91-5.11,0-3.48,1.1-4.77,3.93-4.77.82,0,2.47.25,2.47.25Z"/><path class="uuid-7eed298a-2222-476e-9080-ceb8adc27897" d="M56.45,62.12h1.12v8.17l1.61-.04,2.93-3.91h1.31l-3.25,4.35,3.4,5.15h-1.33l-3.04-4.58-1.63.04v4.54h-1.12v-13.72Z"/><path class="uuid-7eed298a-2222-476e-9080-ceb8adc27897" d="M71.97,74.82l.04.93s-2.15.27-3.63.27c-2.83-.02-3.69-1.73-3.69-4.9,0-3.67,1.6-4.98,3.91-4.98,2.45,0,3.74,1.31,3.74,4.5l-.04.91h-6.46c0,2.24.65,3.44,2.64,3.44,1.39,0,3.48-.17,3.48-.17ZM71.21,70.61c0-2.56-.82-3.48-2.6-3.48s-2.75.95-2.75,3.48h5.36Z"/><path class="uuid-7eed298a-2222-476e-9080-ceb8adc27897" d="M75.81,66.33v1.37s1.65-1.2,3.59-1.56v1.14c-1.82.38-3.59,1.42-3.59,1.42v7.12h-1.12v-9.5h1.12Z"/><path class="uuid-7eed298a-2222-476e-9080-ceb8adc27897" d="M84,67.19c-1.18,0-2.24.32-2.24,1.61,0,.99.47,1.27,2.55,1.62,2.43.4,3.34.84,3.34,2.66,0,2.22-1.39,2.95-3.67,2.95-1.16,0-3.25-.34-3.25-.34l.08-1.01s2.13.32,3.1.32c1.63,0,2.58-.38,2.58-1.86,0-1.14-.57-1.39-2.7-1.71-2.18-.34-3.19-.74-3.19-2.58,0-2.07,1.71-2.68,3.36-2.68,1.42,0,3.36.32,3.36.32l-.04,1.01s-2.03-.3-3.29-.3Z"/></g></svg>