<?xml version="1.0" encoding="UTF-8"?><svg id="uuid-e7d02cef-9076-461e-a23c-133eba4f2c9f" xmlns="http://www.w3.org/2000/svg" viewBox="0 0 67.16 113.98"><defs><style>.uuid-86131514-ae14-4ad7-bea7-9002f7c45227{fill:#1d1d1b;}.uuid-aa304b03-246d-45a6-a530-b67ba40278e5{fill:#222221;}</style></defs><g id="uuid-d04081c7-a85a-4bc2-ad0b-1e5e66f9f9b4"><path class="uuid-aa304b03-246d-45a6-a530-b67ba40278e5" d="M3.44,81.32v4.62H1.31v-13.01h4.37c2.68,0,4.16,1.14,4.16,4.14,0,2.28-.82,3.29-1.9,3.8l2.19,5.07h-2.24l-1.92-4.62h-2.53ZM5.68,79.49c1.37,0,1.98-.78,1.98-2.43s-.61-2.32-1.98-2.32h-2.24v4.75h2.24Z"/><path class="uuid-aa304b03-246d-45a6-a530-b67ba40278e5" d="M18.28,84.07l.06,1.48s-1.41.57-3.19.57c-2.68,0-3.86-1.46-3.86-4.67,0-2.98,1.08-5.21,3.93-5.21,2.22,0,3.5.8,3.5,2.81,0,2.38-1.58,2.89-4.58,2.89h-.78v.3c0,1.27.65,2.11,1.94,2.11s2.98-.28,2.98-.28ZM14.14,80.4c1.77,0,2.54-.21,2.54-1.33,0-.89-.49-1.18-1.46-1.18-1.35,0-1.82,1.03-1.84,2.51h.76Z"/><path class="uuid-aa304b03-246d-45a6-a530-b67ba40278e5" d="M23.39,77.99c-.66,0-1.31.3-1.31,1.04s.4.95,1.65,1.25c1.98.48,3.13.8,3.13,2.81,0,2.36-1.39,3.04-3.57,3.04-1.52,0-3.29-.47-3.29-.47l.11-1.58s2.09.3,2.98.3c1.22,0,1.69-.28,1.69-1.1s-.47-.93-1.65-1.18c-2-.44-3.12-.99-3.12-2.91,0-2.15,1.62-2.96,3.23-2.96,1.75,0,3.29.44,3.29.44l-.08,1.58s-1.82-.27-3.08-.27Z"/><path class="uuid-aa304b03-246d-45a6-a530-b67ba40278e5" d="M31.9,84.39c.61,0,1.42-.11,1.42-.11l.09,1.58s-1.16.29-1.8.29c-2.13,0-2.64-1.08-2.64-3.02v-4.92h-1.08v-1.77h1.08v-2.6h2.05v2.6h2.32v1.77h-2.32v4.81c0,.84.17,1.39.87,1.39Z"/><path class="uuid-aa304b03-246d-45a6-a530-b67ba40278e5" d="M38.85,77.97c-.99,0-1.96,1.41-1.96,1.41v6.55h-2.05v-9.5h2.01l.02,1.14s1.03-1.35,2.49-1.35c1.9,0,2.47,1.48,2.47,1.48,0,0,1.25-1.48,2.72-1.48,2.15,0,3.02,1.65,3.02,4.07v5.64h-2.05v-5.36c0-1.84-.36-2.6-1.46-2.6-1.01,0-1.8,1.25-1.8,1.25,0,0,.08.68.08,1.27v5.43h-2.07v-5.17c0-2.05-.34-2.79-1.41-2.79Z"/><path class="uuid-aa304b03-246d-45a6-a530-b67ba40278e5" d="M49.7,76.43h2.05v5.36c0,1.84.38,2.6,1.46,2.6,1.03,0,1.98-1.41,1.98-1.41v-6.55h2.05v9.5h-2.01l-.02-1.14s-.99,1.35-2.49,1.35c-2.15,0-3.02-1.35-3.02-3.82v-5.89ZM52.59,72.14v2.22h-1.88v-2.22h1.88ZM54.47,72.14h1.84v2.22h-1.84v-2.22Z"/><path class="uuid-aa304b03-246d-45a6-a530-b67ba40278e5" d="M61.62,72.48v13.45h-2.07v-13.45h2.07Z"/><path class="uuid-aa304b03-246d-45a6-a530-b67ba40278e5" d="M66,72.48v13.45h-2.07v-13.45h2.07Z"/><path class="uuid-aa304b03-246d-45a6-a530-b67ba40278e5" d="M18.98,107.19l3.71-11.66h2.11v13.2h-1.12v-12.16h-.25l-3.72,11.72h-1.46l-3.72-11.72h-.25v12.16h-1.12v-13.2h2.11l3.72,11.66Z"/><path class="uuid-aa304b03-246d-45a6-a530-b67ba40278e5" d="M27.61,95.51h1.18v1.48h-1.18v-1.48ZM28.76,108.73h-1.14v-9.5h1.14v9.5Z"/><path class="uuid-aa304b03-246d-45a6-a530-b67ba40278e5" d="M36.31,99.23h1.16l-2.83,4.77,2.83,4.73h-1.2l-2.28-3.86-2.28,3.86h-1.18l2.83-4.71-2.85-4.79h1.2l2.32,3.93,2.28-3.93Z"/><path class="uuid-aa304b03-246d-45a6-a530-b67ba40278e5" d="M45.05,107.53l.08.86s-1.33.51-3.04.51c-2.43,0-3.46-1.42-3.46-4.83,0-3.21,1.16-5.02,3.82-5.02,1.8,0,3.02.74,3.02,2.45,0,2.26-1.41,2.89-4.62,2.89h-1.06v.27c0,2,.68,3.25,2.36,3.25,1.35,0,2.91-.38,2.91-.38ZM40.85,103.47c2.51,0,3.48-.38,3.48-1.94,0-1.12-.74-1.5-1.9-1.5-1.86,0-2.6,1.24-2.64,3.44h1.06Z"/><path class="uuid-aa304b03-246d-45a6-a530-b67ba40278e5" d="M50.16,108.92c-2.28,0-2.96-1.86-2.96-4.81,0-3.29.99-5.05,3.7-5.05,1.01,0,2.18.23,2.18.23v-4.27h1.12v13.72h-1.12v-1.52s-1.1,1.71-2.93,1.71ZM50.44,107.91c1.52,0,2.64-1.98,2.64-1.98v-5.68s-1.14-.21-2.11-.21c-2.03,0-2.6,1.48-2.6,4.07,0,2.05.32,3.8,2.07,3.8Z"/><path class="uuid-86131514-ae14-4ad7-bea7-9002f7c45227" d="M13.34,14.81c.29,10.07.56,20.16,1.26,30.19.35,3.55.38,7.2,1.42,10.6.16.21.82.41,1.18.53,2.95.78,6.05.93,9.14,1.13,5,.26,10.04.28,15.04.12,3.24-.25,7.05-.07,9.98-1.35.12-.41.3-1.15.38-1.76,1.4-13.11,1.21-26.37,1.44-39.55,0,0,1.64,0,1.64,0,0,10.1-.04,20.19-.49,30.31-.28,3.87-.19,7.75-1.2,11.56-.77,2.68-9.23,2.45-11.69,2.71-5.08.19-10.14.18-15.22-.07-3.18-.2-6.45-.35-9.6-1.18-.81-.28-1.47-.4-2.14-1.16-.28-.34-.45-.82-.56-1.22-.85-3.45-.98-7.03-1.27-10.53-.64-10.11-.9-20.2-.99-30.3,0,0,1.67-.02,1.67-.02h0Z"/><polygon class="uuid-86131514-ae14-4ad7-bea7-9002f7c45227" points="23.64 19.97 24.71 49.55 22.71 49.61 22.04 20.02 23.64 19.97 23.64 19.97"/><polygon class="uuid-86131514-ae14-4ad7-bea7-9002f7c45227" points="34.67 18.66 35.01 50.86 33.01 50.86 33.36 18.66 34.67 18.66 34.67 18.66"/><polygon class="uuid-86131514-ae14-4ad7-bea7-9002f7c45227" points="44.92 20.02 44.66 49.59 42.66 49.55 43.71 20 44.92 20.02 44.92 20.02"/><path class="uuid-86131514-ae14-4ad7-bea7-9002f7c45227" d="M9.32,8.41c15.9-.48,32.61-.53,48.53-.02,0,0,0,.86,0,.86-4.04.16-8.09.23-12.13.29-7.16.05-17.21.1-24.26-.03-4.04-.06-8.09-.13-12.13-.28v-.83h0Z"/><path class="uuid-86131514-ae14-4ad7-bea7-9002f7c45227" d="M24.69,9.42l-1.95-.45c.14-.61,1.44-6.01,3.21-7.66C27.76-.36,32.38,0,33.43.11c.75-.03,5.49.01,7.41,1.06,2.07,1.13,3.17,6.29,3.46,7.84l-1.97.36c-.51-2.75-1.62-6-2.45-6.45-1.15-.63-4.63-.85-6.5-.82h-.11c-1.96-.21-5.1-.13-5.97.68-1,.92-2.14,4.56-2.62,6.64Z"/></g></svg>