<?xml version="1.0" encoding="UTF-8"?><svg id="uuid-d330b8ab-b398-4f70-9a59-8cb748783f54" xmlns="http://www.w3.org/2000/svg" viewBox="0 0 106.08 119.93"><defs><style>.uuid-7aeb4bf6-0e5b-4655-ae6e-52edbd3c6ed4{fill:#222221;}</style></defs><g id="uuid-4eb2719d-0894-4dc6-8029-9d9b4d5119c8"><path class="uuid-7aeb4bf6-0e5b-4655-ae6e-52edbd3c6ed4" d="M3.34,91.85h-1.79v-13.09h1.79v6l2.05-.11,3.02-5.89h2.03l-3.48,6.57,3.65,6.52h-2.09l-3.12-5.62-2.07.09v5.53Z"/><path class="uuid-7aeb4bf6-0e5b-4655-ae6e-52edbd3c6ed4" d="M19.11,90.35l.04,1.33s-2.17.38-3.78.38c-2.83,0-3.86-1.6-3.86-4.88,0-3.55,1.54-5.04,4.05-5.04s3.91,1.37,3.91,4.41l-.11,1.27h-6.08c.02,1.79.61,2.7,2.34,2.7,1.46,0,3.5-.17,3.5-.17ZM17.74,86.45c0-2.13-.65-2.85-2.18-2.85s-2.28.8-2.3,2.85h4.48Z"/><path class="uuid-7aeb4bf6-0e5b-4655-ae6e-52edbd3c6ed4" d="M23.33,80.47h-1.75v-1.92h1.75v1.92ZM21.58,82.35h1.75v9.5h-1.75v-9.5Z"/><path class="uuid-7aeb4bf6-0e5b-4655-ae6e-52edbd3c6ed4" d="M27.68,82.35v.63s1.46-.84,2.79-.84c2.62,0,3.25,1.41,3.25,4.65v5.05h-1.73v-5.02c0-2.2-.27-3.13-1.88-3.13-1.23,0-2.41.61-2.41.61v7.54h-1.75v-9.5h1.73Z"/><path class="uuid-7aeb4bf6-0e5b-4655-ae6e-52edbd3c6ed4" d="M43.41,90.35l.04,1.33s-2.17.38-3.78.38c-2.83,0-3.86-1.6-3.86-4.88,0-3.55,1.54-5.04,4.05-5.04s3.91,1.37,3.91,4.41l-.11,1.27h-6.08c.02,1.79.61,2.7,2.34,2.7,1.46,0,3.5-.17,3.5-.17ZM42.04,86.45c0-2.13-.65-2.85-2.18-2.85s-2.28.8-2.3,2.85h4.48Z"/><path class="uuid-7aeb4bf6-0e5b-4655-ae6e-52edbd3c6ed4" d="M52.1,91.85h-1.79v-13.09h1.79v5.72h6.16v-5.72h1.79v13.09h-1.79v-5.79h-6.16v5.79Z"/><path class="uuid-7aeb4bf6-0e5b-4655-ae6e-52edbd3c6ed4" d="M68.76,91.85v-.63s-1.41.84-2.7.84c-2.68,0-3.25-1.33-3.25-4.75v-4.96h1.75v4.96c0,2.36.19,3.17,1.8,3.17,1.27,0,2.39-.59,2.39-.59v-7.54h1.73v9.5h-1.73Z"/><path class="uuid-7aeb4bf6-0e5b-4655-ae6e-52edbd3c6ed4" d="M74.84,82.35v.63s1.46-.84,2.79-.84c2.62,0,3.25,1.41,3.25,4.65v5.05h-1.73v-5.02c0-2.2-.27-3.13-1.88-3.13-1.24,0-2.41.61-2.41.61v7.54h-1.75v-9.5h1.73Z"/><path class="uuid-7aeb4bf6-0e5b-4655-ae6e-52edbd3c6ed4" d="M86.49,92.06c-2.15,0-3.5-1.03-3.5-4.92,0-3.38,1.16-5,3.95-5,.8,0,2.05.21,2.26.25v-4.08h1.73v13.54h-1.73v-.57s-1.42.78-2.72.78ZM86.73,90.48c1.22,0,2.47-.59,2.47-.59v-6.02c-.21-.04-1.35-.21-2.15-.21-1.69,0-2.3,1.16-2.3,3.48,0,2.75.84,3.34,1.98,3.34Z"/><path class="uuid-7aeb4bf6-0e5b-4655-ae6e-52edbd3c6ed4" d="M100.74,90.35l.04,1.33s-2.17.38-3.78.38c-2.83,0-3.86-1.6-3.86-4.88,0-3.55,1.54-5.04,4.05-5.04s3.91,1.37,3.91,4.41l-.11,1.27h-6.08c.02,1.79.61,2.7,2.34,2.7,1.46,0,3.5-.17,3.5-.17ZM99.37,86.45c0-2.13-.65-2.85-2.18-2.85s-2.28.8-2.3,2.85h4.48Z"/><path class="uuid-7aeb4bf6-0e5b-4655-ae6e-52edbd3c6ed4" d="M24.36,101.44l5.53,12.16h.44v-12.16h1.16v13.2h-2.28l-5.57-12.14h-.42v12.14h-1.18v-13.2h2.32Z"/><path class="uuid-7aeb4bf6-0e5b-4655-ae6e-52edbd3c6ed4" d="M42.04,109.77c0,3.59-.8,5.07-3.97,5.07s-3.99-1.48-3.99-5.07c0-3.36,1.04-4.81,3.99-4.81s3.97,1.44,3.97,4.81ZM38.07,113.83c2.45,0,2.81-1.16,2.81-4.07s-.65-3.8-2.81-3.8-2.81.95-2.81,3.8.34,4.07,2.81,4.07Z"/><path class="uuid-7aeb4bf6-0e5b-4655-ae6e-52edbd3c6ed4" d="M54.64,114.65v-.7s-1.5.89-3.04.89-3.34-.53-3.34-4.83c0-3.32,1.01-5.05,3.99-5.05.84,0,2.03.19,2.39.25v-4.27h1.14v13.72h-1.14ZM51.72,113.81c1.44,0,2.93-.82,2.93-.82v-6.8c-.38-.06-1.6-.23-2.36-.23-2.26,0-2.85,1.44-2.85,4.05,0,3.36,1.18,3.8,2.28,3.8Z"/><path class="uuid-7aeb4bf6-0e5b-4655-ae6e-52edbd3c6ed4" d="M66.17,109.77c0,3.59-.8,5.07-3.97,5.07s-3.99-1.48-3.99-5.07c0-3.36,1.04-4.81,3.99-4.81s3.97,1.44,3.97,4.81ZM62.2,113.83c2.45,0,2.81-1.16,2.81-4.07s-.65-3.8-2.81-3.8-2.81.95-2.81,3.8.34,4.07,2.81,4.07Z"/><path class="uuid-7aeb4bf6-0e5b-4655-ae6e-52edbd3c6ed4" d="M68.21,116.23c0-1.16.53-1.65,1.54-2.39-.32-.21-.48-.7-.48-1.29,0-.32.61-1.48.61-1.48-.82-.34-1.56-1.1-1.56-2.87,0-2.32,1.37-3.23,3.44-3.23.99,0,1.99.25,1.99.25l2.75-.06v1.01l-1.9-.04c.4.4.68.95.68,2.07,0,2.41-1.2,3.17-3.59,3.17-.17,0-.76-.04-.97-.08,0,0-.38.93-.38,1.18,0,.82.15.91,2.41.93,2.58,0,3.55.46,3.55,2.75,0,2.13-1.42,3-4.16,3-3.06,0-3.95-.72-3.95-2.92ZM72.18,118.16c2.09,0,2.98-.57,2.98-1.98,0-1.62-.68-1.79-2.47-1.79-.72,0-2.15-.08-2.15-.08-.91.65-1.2,1.01-1.2,1.82,0,1.48.51,2.01,2.83,2.01ZM71.76,110.41c1.75,0,2.37-.59,2.37-2.22s-.63-2.28-2.37-2.28c-1.6,0-2.28.63-2.28,2.28s.68,2.22,2.28,2.22Z"/><path class="uuid-7aeb4bf6-0e5b-4655-ae6e-52edbd3c6ed4" d="M81.17,106c-1.18,0-2.24.32-2.24,1.61,0,.99.47,1.27,2.55,1.62,2.43.4,3.34.84,3.34,2.66,0,2.22-1.39,2.95-3.67,2.95-1.16,0-3.25-.34-3.25-.34l.08-1.01s2.13.32,3.1.32c1.63,0,2.58-.38,2.58-1.86,0-1.14-.57-1.39-2.7-1.71-2.18-.34-3.19-.74-3.19-2.58,0-2.07,1.71-2.68,3.36-2.68,1.42,0,3.36.32,3.36.32l-.04,1.01s-2.03-.3-3.29-.3Z"/><path class="uuid-7aeb4bf6-0e5b-4655-ae6e-52edbd3c6ed4" d="M41.09,45.46c-.07-2.52-.21-5.06-.48-7.57-.65.17-1.29.34-1.93.5.48,3.99.66,8.11.7,12.14h1.74c.01-1.5,0-3.56-.04-5.06Z"/><path class="uuid-7aeb4bf6-0e5b-4655-ae6e-52edbd3c6ed4" d="M69.83,49.59c-.11-3.34-1.35-6.58-2.08-9.78-.36-2.95-.1-6.19-1.2-9.04-.61.17-1.23.35-1.86.54,0,.01.03.06.03.07,1.14,2.83.76,6.07,1.28,9.08.85,3.32,2.12,6.63,2.12,10.09l1.73-.04c0-.28,0-.63-.02-.91Z"/><path class="uuid-7aeb4bf6-0e5b-4655-ae6e-52edbd3c6ed4" d="M28.07,20.25c.18,1.56.98,3.2,2.48,3.86,1.3.41,3,.79,4.32,1.16,1.13,2.82,2.39,5.64,3.07,8.59.66-.18,1.32-.37,1.98-.56-.33-1.64-.88-3.21-1.43-4.77,2.25-.89,4.38-2.06,6.35-3.47,2.64,2.3,6.78,1.8,10.02,2.12,1.75.13,3.51.19,5.23.49,1.1.15,2.35-.53,3.43-.7-1.31-.9-2.89-1.32-4.46-1.47-2.27-.25-5.36-.45-7.66-.6-1.14-.09-2.25-.17-3.34-.49-2.24-.51-3.09-2.69-3.95-4.59-.91-2.06-2.47-4.09-4.73-4.77-1.73-.64-3.63-.11-5.29.4,0,0-.64.51-.64.51l-.83,1.45c-1.21.23-2.57.56-3.76.86,0,0-.73.71-.73.71-.1.4-.11.84-.06,1.24ZM35.42,25.41h0s.01,0,.01,0h-.01ZM30.35,20c1-.18,2.11-.39,3.11-.5l.81-.54s.86-1.52.86-1.52c1.34-.39,2.77-.77,4.07-.1,2.38,1.03,2.98,3.91,4.26,6.01-1.78,1.27-3.7,2.31-5.72,3.11-.33-.86-.66-1.72-1-2.58-.01,0-.76-.67-.78-.66,0,0-2.31-.53-2.31-.53-.69-.18-1.7-.35-2.37-.57-.74-.38-1.09-1.29-1.23-2.08l.3-.06Z"/><path class="uuid-7aeb4bf6-0e5b-4655-ae6e-52edbd3c6ed4" d="M72.78,9.8C51.77-11.18,15.72,3.76,15.69,33.44c-.37,17.98,15.47,33.82,33.44,33.44,29.69-.03,44.62-36.08,23.65-57.09ZM17.88,33.44c.86-35.83,49.72-43.16,61.1-9.29-19.92,5.05-40.55,10.64-60.3,16.32-.52-2.26-.8-4.61-.8-7.03ZM49.13,64.69c-14.17,0-26.16-9.48-29.98-22.43,19.92-5.05,40.57-10.63,60.32-16.32,5,19.3-10.36,39.02-30.35,38.75Z"/><path class="uuid-7aeb4bf6-0e5b-4655-ae6e-52edbd3c6ed4" d="M64.65,48.36c-.24-2.05-1-4.04-2.1-5.79-1.3-2.18-3.27-3.93-4.45-6.16l-1.12-.6-10.67,1.19-1.03,1.14c-.16,4.09-1.79,8.09-1.47,12.26h1.75c-.07-3.86,1.42-7.41,1.97-11.2l8.99-1.09c1.29,1.99,3.07,3.56,4.36,5.53,1.37,1.99,2.12,4.36,2.14,6.78l1.74-.04c0-.64-.03-1.38-.11-2.03Z"/></g></svg>