<?xml version="1.0" encoding="UTF-8"?><svg id="uuid-b585cd3f-2806-4751-a031-dee51c2dbf3c" xmlns="http://www.w3.org/2000/svg" viewBox="0 0 113.79 105.45"><defs><style>.uuid-313a6ed2-82c7-445c-bd84-2c6504bf74b9{fill:#010101;}.uuid-07023d04-7f53-48a9-ba07-68ad502c85cf{fill:#222221;}</style></defs><g id="uuid-aec877f5-91a7-4e30-b7bb-ca9f6fc74517"><path class="uuid-07023d04-7f53-48a9-ba07-68ad502c85cf" d="M3.34,77.37h-1.79v-13.09h1.79v6l2.05-.11,3.02-5.89h2.03l-3.48,6.57,3.65,6.52h-2.09l-3.12-5.62-2.07.09v5.53Z"/><path class="uuid-07023d04-7f53-48a9-ba07-68ad502c85cf" d="M19.11,75.87l.04,1.33s-2.17.38-3.78.38c-2.83,0-3.86-1.6-3.86-4.88,0-3.55,1.54-5.04,4.05-5.04s3.91,1.37,3.91,4.41l-.11,1.27h-6.08c.02,1.79.61,2.7,2.34,2.7,1.46,0,3.5-.17,3.5-.17ZM17.74,71.98c0-2.13-.65-2.85-2.18-2.85s-2.28.8-2.3,2.85h4.48Z"/><path class="uuid-07023d04-7f53-48a9-ba07-68ad502c85cf" d="M23.33,65.99h-1.75v-1.92h1.75v1.92ZM21.58,67.87h1.75v9.5h-1.75v-9.5Z"/><path class="uuid-07023d04-7f53-48a9-ba07-68ad502c85cf" d="M27.68,67.87v.63s1.46-.84,2.79-.84c2.62,0,3.25,1.41,3.25,4.65v5.05h-1.73v-5.02c0-2.2-.27-3.13-1.88-3.13-1.23,0-2.41.61-2.41.61v7.54h-1.75v-9.5h1.73Z"/><path class="uuid-07023d04-7f53-48a9-ba07-68ad502c85cf" d="M43.41,75.87l.04,1.33s-2.17.38-3.78.38c-2.83,0-3.86-1.6-3.86-4.88,0-3.55,1.54-5.04,4.05-5.04s3.91,1.37,3.91,4.41l-.11,1.27h-6.08c.02,1.79.61,2.7,2.34,2.7,1.46,0,3.5-.17,3.5-.17ZM42.04,71.98c0-2.13-.65-2.85-2.18-2.85s-2.28.8-2.3,2.85h4.48Z"/><path class="uuid-07023d04-7f53-48a9-ba07-68ad502c85cf" d="M58.12,65.88h-3.84v11.49h-1.79v-11.49h-3.88v-1.6h9.5v1.6Z"/><path class="uuid-07023d04-7f53-48a9-ba07-68ad502c85cf" d="M65.93,76.21l-.06,1.37c-1.08,0-1.77-.17-2.39-.74,0,0-1.62.74-3.25.74-1.8,0-2.75-1.03-2.75-2.98s1.03-2.66,3.02-2.83l2.72-.25v-.76c0-1.18-.51-1.58-1.54-1.58-1.31,0-3.59.21-3.59.21l-.06-1.27s2.07-.46,3.76-.46c2.24,0,3.17.99,3.17,3.1v4.6c.04.57.38.78.97.85ZM60.55,76.12c1.24,0,2.66-.49,2.66-.49v-2.83l-2.51.23c-1.01.1-1.46.59-1.46,1.54s.42,1.56,1.31,1.56Z"/><path class="uuid-07023d04-7f53-48a9-ba07-68ad502c85cf" d="M70.75,69.24c-1.16,0-1.86.29-1.86,1.24,0,.76.44.97,2.37,1.31,2.32.4,3.17.91,3.17,2.79,0,2.22-1.41,3-3.72,3-1.25,0-3.42-.4-3.42-.4l.08-1.48s2.22.3,3.19.3c1.46,0,2.15-.3,2.15-1.37,0-.84-.42-1.06-2.39-1.37-2.11-.34-3.15-.78-3.15-2.74,0-2.11,1.67-2.85,3.48-2.85,1.41,0,3.51.38,3.51.38l-.04,1.48s-2.18-.3-3.36-.3Z"/><path class="uuid-07023d04-7f53-48a9-ba07-68ad502c85cf" d="M82.8,67.99l-.06,1.41s-1.52-.17-2.24-.17c-2.07,0-2.6.87-2.6,3.25,0,2.62.42,3.53,2.62,3.53.72,0,2.24-.15,2.24-.15l.06,1.41s-1.84.32-2.77.32c-2.96,0-3.91-1.42-3.91-5.11,0-3.42,1.12-4.81,3.95-4.81.95,0,2.72.32,2.72.32Z"/><path class="uuid-07023d04-7f53-48a9-ba07-68ad502c85cf" d="M86.62,63.83v4.56s1.46-.72,2.77-.72c2.62,0,3.25,1.41,3.25,4.65v5.05h-1.75v-5.02c0-2.2-.27-3.13-1.86-3.13-1.2,0-2.41.49-2.41.49v7.66h-1.75v-13.54h1.75Z"/><path class="uuid-07023d04-7f53-48a9-ba07-68ad502c85cf" d="M102.33,75.87l.04,1.33s-2.17.38-3.78.38c-2.83,0-3.86-1.6-3.86-4.88,0-3.55,1.54-5.04,4.05-5.04s3.91,1.37,3.91,4.41l-.11,1.27h-6.08c.02,1.79.61,2.7,2.34,2.7,1.46,0,3.5-.17,3.5-.17ZM100.96,71.98c0-2.13-.65-2.85-2.18-2.85s-2.28.8-2.3,2.85h4.48Z"/><path class="uuid-07023d04-7f53-48a9-ba07-68ad502c85cf" d="M106.53,67.87v.63s1.46-.84,2.79-.84c2.62,0,3.25,1.41,3.25,4.65v5.05h-1.73v-5.02c0-2.2-.27-3.13-1.88-3.13-1.24,0-2.41.61-2.41.61v7.54h-1.75v-9.5h1.73Z"/><path class="uuid-07023d04-7f53-48a9-ba07-68ad502c85cf" d="M28.5,86.97l5.53,12.16h.44v-12.16h1.16v13.2h-2.28l-5.57-12.14h-.42v12.14h-1.18v-13.2h2.32Z"/><path class="uuid-07023d04-7f53-48a9-ba07-68ad502c85cf" d="M46.19,95.29c0,3.59-.8,5.07-3.97,5.07s-3.99-1.48-3.99-5.07c0-3.36,1.04-4.81,3.99-4.81s3.97,1.44,3.97,4.81ZM42.22,99.35c2.45,0,2.81-1.16,2.81-4.07s-.65-3.8-2.81-3.8-2.81.95-2.81,3.8.34,4.07,2.81,4.07Z"/><path class="uuid-07023d04-7f53-48a9-ba07-68ad502c85cf" d="M60.29,95.27c0,3.69-.95,5.09-4.45,5.09-1.2,0-3.04-.19-3.04-.19v-13.72h1.14v4.73s1.48-.7,2.96-.7c2.58,0,3.38,1.42,3.38,4.79ZM55.84,99.34c2.81,0,3.27-1.25,3.27-4.07,0-2.58-.47-3.76-2.3-3.76-1.46,0-2.87.65-2.87.65v7.07s1.33.11,1.9.11Z"/><path class="uuid-07023d04-7f53-48a9-ba07-68ad502c85cf" d="M70.49,99.43l-.06.91c-.93,0-1.63-.19-2.15-.76,0,0-1.79.78-3.57.78-1.67,0-2.6-.97-2.6-2.87,0-1.75.87-2.58,2.79-2.77l3.23-.32v-.89c0-1.44-.65-2-1.86-2-1.37,0-3.59.29-3.59.29l-.06-.91s2.09-.4,3.69-.4c2.07,0,2.94,1.01,2.94,3.02v5.09c.06.57.61.76,1.23.84ZM64.86,99.39c1.54,0,3.27-.66,3.27-.66v-3.44l-3.1.32c-1.27.11-1.75.72-1.75,1.86,0,1.22.53,1.92,1.58,1.92Z"/><path class="uuid-07023d04-7f53-48a9-ba07-68ad502c85cf" d="M71.78,101.75c0-1.16.53-1.65,1.54-2.39-.32-.21-.48-.7-.48-1.29,0-.32.61-1.48.61-1.48-.82-.34-1.56-1.1-1.56-2.87,0-2.32,1.37-3.23,3.44-3.23.99,0,1.99.25,1.99.25l2.75-.06v1.01l-1.9-.04c.4.4.68.95.68,2.07,0,2.41-1.2,3.17-3.59,3.17-.17,0-.76-.04-.97-.08,0,0-.38.93-.38,1.18,0,.82.15.91,2.41.93,2.58,0,3.55.46,3.55,2.75,0,2.13-1.42,3-4.16,3-3.06,0-3.95-.72-3.95-2.92ZM75.75,103.69c2.09,0,2.98-.57,2.98-1.98,0-1.62-.68-1.79-2.47-1.79-.72,0-2.15-.08-2.15-.08-.91.65-1.2,1.01-1.2,1.82,0,1.48.51,2.01,2.83,2.01ZM75.33,95.93c1.75,0,2.37-.59,2.37-2.22s-.63-2.28-2.37-2.28c-1.6,0-2.28.63-2.28,2.28s.68,2.22,2.28,2.22Z"/><path class="uuid-07023d04-7f53-48a9-ba07-68ad502c85cf" d="M84.74,91.53c-1.18,0-2.24.32-2.24,1.61,0,.99.47,1.27,2.55,1.62,2.43.4,3.34.84,3.34,2.66,0,2.22-1.39,2.95-3.67,2.95-1.16,0-3.25-.34-3.25-.34l.08-1.01s2.13.32,3.1.32c1.63,0,2.58-.38,2.58-1.86,0-1.14-.57-1.39-2.7-1.71-2.18-.34-3.19-.74-3.19-2.58,0-2.07,1.71-2.68,3.36-2.68,1.42,0,3.36.32,3.36.32l-.04,1.01s-2.03-.3-3.29-.3Z"/><path class="uuid-313a6ed2-82c7-445c-bd84-2c6504bf74b9" d="M82.74,15.84l.57,1.74c-18.06,6.27-36.86,12.39-55.17,17.95-.14-.43-.42-1.31-.57-1.74,18.07-6.28,36.87-12.39,55.17-17.95"/><path class="uuid-313a6ed2-82c7-445c-bd84-2c6504bf74b9" d="M47.92,9.09c.45-2.11.91-4.53,2.7-5.89,1.38-.98,3.05-1.11,4.82-1.14,1.7.02,3.29.16,4.65,1.01.23.16.49.35.68.56,2.06,2.3,2.2,5.75,2.75,8.68-4.67,0-11.47-.01-16.14-.03.17-1.07.34-2.14.54-3.19M40.46,28.27c.6-.2,1.22-.41,1.84-.62l1.07-13.52c7.57-.03,16.62-.05,24.19-.04.14,1.74.28,3.48.42,5.21.46-.14,1.3-.41,1.77-.56-.16-1.88-.31-3.75-.47-5.63l-.89-.82h-3.08C64.2,5.7,63.78-.1,55.44,0c-8.31-.12-8.8,5.67-9.86,12.26h-3.08s-.94.85-.94.85l-1.32,15.23.22-.08Z"/><path class="uuid-313a6ed2-82c7-445c-bd84-2c6504bf74b9" d="M71.16,34.98c-.02-.22-1.04-11.97-1.03-11.77-.59.2-1.19.4-1.79.6.01.13.02.27.03.4l.86,10.93c.05,1.43.51,3.66-.13,5.01-.81,2.27-3.12,3.72-5.5,3.65-2.72.13-5.44.19-8.17.17-3.13-.05-6.28-.05-9.4-.33-2.7-.42-4.77-3.05-4.55-5.78.11-1.36.32-4.11.43-5.48-.41.13-1.67.53-2.1.66-.11,1.1-.29,3.55-.4,4.68-.34,3.77,2.51,7.43,6.24,8.04,1.41.21,2.84.19,4.26.27,4.83.16,9.67.08,14.5-.22,4.04-.23,7.34-4.06,6.97-8.08,0,0-.24-2.75-.24-2.75Z"/></g></svg>