<?xml version="1.0" encoding="UTF-8"?><svg id="uuid-8bf2ca5a-eb8b-4a18-b4b6-879275792fb5" xmlns="http://www.w3.org/2000/svg" viewBox="0 0 93.75 100.8"><defs><style>.uuid-3f1d2ffc-6f3c-47e4-9707-9cf052e43c97{fill:#010101;}.uuid-550fc8ba-5b3d-46ef-90f7-86e6c246a82c{fill:#222221;}</style></defs><g id="uuid-9b5a9ae8-cc2c-4798-aacd-946935d50bc3"><path class="uuid-550fc8ba-5b3d-46ef-90f7-86e6c246a82c" d="M3.34,72.72h-1.79v-13.09h1.79v6l2.05-.11,3.02-5.89h2.03l-3.48,6.57,3.65,6.52h-2.09l-3.12-5.62-2.07.09v5.53Z"/><path class="uuid-550fc8ba-5b3d-46ef-90f7-86e6c246a82c" d="M19.11,71.22l.04,1.33s-2.17.38-3.78.38c-2.83,0-3.86-1.6-3.86-4.88,0-3.55,1.54-5.04,4.05-5.04s3.91,1.37,3.91,4.41l-.11,1.27h-6.08c.02,1.79.61,2.7,2.34,2.7,1.46,0,3.5-.17,3.5-.17ZM17.74,67.32c0-2.13-.65-2.85-2.18-2.85s-2.28.8-2.3,2.85h4.48Z"/><path class="uuid-550fc8ba-5b3d-46ef-90f7-86e6c246a82c" d="M23.33,61.34h-1.75v-1.92h1.75v1.92ZM21.58,63.22h1.75v9.5h-1.75v-9.5Z"/><path class="uuid-550fc8ba-5b3d-46ef-90f7-86e6c246a82c" d="M27.68,63.22v.63s1.46-.84,2.79-.84c2.62,0,3.25,1.41,3.25,4.65v5.05h-1.73v-5.02c0-2.2-.27-3.13-1.88-3.13-1.24,0-2.41.61-2.41.61v7.54h-1.75v-9.5h1.73Z"/><path class="uuid-550fc8ba-5b3d-46ef-90f7-86e6c246a82c" d="M43.41,71.22l.04,1.33s-2.17.38-3.78.38c-2.83,0-3.86-1.6-3.86-4.88,0-3.55,1.54-5.04,4.05-5.04s3.91,1.37,3.91,4.41l-.11,1.27h-6.08c.02,1.79.61,2.7,2.34,2.7,1.46,0,3.5-.17,3.5-.17ZM42.04,67.32c0-2.13-.65-2.85-2.18-2.85s-2.28.8-2.3,2.85h4.48Z"/><path class="uuid-550fc8ba-5b3d-46ef-90f7-86e6c246a82c" d="M57.91,61.21h-6.19v4.75h5.19v1.58h-5.19v5.19h-1.79v-13.09h7.98v1.58Z"/><path class="uuid-550fc8ba-5b3d-46ef-90f7-86e6c246a82c" d="M67.24,67.87c0,3.31-.91,5.05-4.14,5.05s-4.16-1.75-4.16-5.05,1.06-4.86,4.16-4.86,4.14,1.69,4.14,4.86ZM63.1,71.43c2.01,0,2.38-1.1,2.38-3.55s-.53-3.36-2.38-3.36-2.38.95-2.38,3.36.36,3.55,2.38,3.55Z"/><path class="uuid-550fc8ba-5b3d-46ef-90f7-86e6c246a82c" d="M72.79,71.37c.53,0,1.63-.09,1.63-.09l.1,1.42s-1.27.23-1.94.23c-2.05,0-2.72-.78-2.72-3.51v-4.69h-1.29v-1.5h1.29v-2.83h1.73v2.83h2.81v1.5h-2.81v4.35c0,1.75.09,2.3,1.2,2.3Z"/><path class="uuid-550fc8ba-5b3d-46ef-90f7-86e6c246a82c" d="M84,67.87c0,3.31-.91,5.05-4.14,5.05s-4.16-1.75-4.16-5.05,1.06-4.86,4.16-4.86,4.14,1.69,4.14,4.86ZM79.86,71.43c2.01,0,2.38-1.1,2.38-3.55s-.53-3.36-2.38-3.36-2.38.95-2.38,3.36.36,3.55,2.38,3.55Z"/><path class="uuid-550fc8ba-5b3d-46ef-90f7-86e6c246a82c" d="M89.28,64.59c-1.16,0-1.86.29-1.86,1.24,0,.76.44.97,2.37,1.31,2.32.4,3.17.91,3.17,2.79,0,2.22-1.41,3-3.72,3-1.25,0-3.42-.4-3.42-.4l.08-1.48s2.22.3,3.19.3c1.46,0,2.15-.3,2.15-1.37,0-.84-.42-1.06-2.39-1.37-2.11-.34-3.15-.78-3.15-2.74,0-2.11,1.67-2.85,3.48-2.85,1.41,0,3.51.38,3.51.38l-.04,1.48s-2.18-.3-3.36-.3Z"/><path class="uuid-550fc8ba-5b3d-46ef-90f7-86e6c246a82c" d="M9.71,82.32l5.53,12.16h.44v-12.16h1.16v13.2h-2.28l-5.57-12.14h-.42v12.14h-1.18v-13.2h2.32Z"/><path class="uuid-550fc8ba-5b3d-46ef-90f7-86e6c246a82c" d="M27.4,90.64c0,3.59-.8,5.07-3.97,5.07s-3.99-1.48-3.99-5.07c0-3.36,1.04-4.81,3.99-4.81s3.97,1.44,3.97,4.81ZM23.43,94.7c2.45,0,2.81-1.16,2.81-4.07s-.65-3.8-2.81-3.8-2.81.95-2.81,3.8.34,4.07,2.81,4.07Z"/><path class="uuid-550fc8ba-5b3d-46ef-90f7-86e6c246a82c" d="M35.15,86.02v.72s1.48-.91,3-.91c2.38,0,3.38,1.5,3.38,4.81,0,3.67-1.16,5.07-4.1,5.07-.95,0-1.94-.17-2.28-.25v4.33h-1.12v-13.77h1.12ZM37.39,94.7c2.2,0,2.96-1.14,2.96-4.07,0-2.77-.84-3.78-2.32-3.78s-2.89.86-2.89.86v6.76c.32.06,1.33.23,2.24.23Z"/><path class="uuid-550fc8ba-5b3d-46ef-90f7-86e6c246a82c" d="M43.96,81.8h1.12v4.77s1.6-.74,3.08-.74c2.6,0,3.17,1.22,3.17,4.69v5h-1.14v-4.94c0-2.79-.3-3.72-2.19-3.72-1.48,0-2.92.65-2.92.65v8.02h-1.12v-13.72Z"/><path class="uuid-550fc8ba-5b3d-46ef-90f7-86e6c246a82c" d="M61.65,90.64c0,3.59-.8,5.07-3.97,5.07s-3.99-1.48-3.99-5.07c0-3.36,1.04-4.81,3.99-4.81s3.97,1.44,3.97,4.81ZM57.68,94.7c2.45,0,2.81-1.16,2.81-4.07s-.65-3.8-2.81-3.8-2.81.95-2.81,3.8.34,4.07,2.81,4.07Z"/><path class="uuid-550fc8ba-5b3d-46ef-90f7-86e6c246a82c" d="M67.16,94.7c.53,0,1.75-.13,1.75-.13l.08.97s-1.25.19-1.92.19c-1.88,0-2.56-.7-2.56-3.44v-5.26h-1.41v-1.01h1.41v-2.98h1.14v2.98h3.17v1.01h-3.17v4.69c0,2.38.15,2.98,1.52,2.98Z"/><path class="uuid-550fc8ba-5b3d-46ef-90f7-86e6c246a82c" d="M78.16,90.64c0,3.59-.8,5.07-3.97,5.07s-3.99-1.48-3.99-5.07c0-3.36,1.04-4.81,3.99-4.81s3.97,1.44,3.97,4.81ZM74.19,94.7c2.45,0,2.81-1.16,2.81-4.07s-.65-3.8-2.81-3.8-2.81.95-2.81,3.8.34,4.07,2.81,4.07Z"/><path class="uuid-550fc8ba-5b3d-46ef-90f7-86e6c246a82c" d="M83.48,86.88c-1.18,0-2.24.32-2.24,1.61,0,.99.47,1.27,2.55,1.62,2.43.4,3.34.84,3.34,2.66,0,2.22-1.39,2.95-3.67,2.95-1.16,0-3.25-.34-3.25-.34l.08-1.01s2.13.32,3.1.32c1.63,0,2.58-.38,2.58-1.86,0-1.14-.57-1.39-2.7-1.71-2.18-.34-3.19-.74-3.19-2.58,0-2.07,1.71-2.68,3.36-2.68,1.42,0,3.36.32,3.36.32l-.04,1.01s-2.03-.3-3.29-.3Z"/><path class="uuid-3f1d2ffc-6f3c-47e4-9707-9cf052e43c97" d="M64.94,31.24c-2.9.1-7.46.3-10.39.44-2.59,0-7.06-.02-9.69-.02-2.64,0-7.09.02-9.69.02-2.94-.13-7.48-.33-10.39-.44v-3.42l-2.12.69v3.75l1,1.06c3.36.26,8.09.55,11.49.76,2.6.03,7.07.03,9.71.04,2.65,0,7.1-.01,9.71-.04,3.4-.21,8.11-.5,11.49-.76l1.01-1.06V14.07l-2.12.69v16.48Z"/><path class="uuid-3f1d2ffc-6f3c-47e4-9707-9cf052e43c97" d="M24.78,18.95V7.03l11.63-.61,1-.94.36-3.28c4.67-.08,9.51-.07,14.18,0l.36,3.28,1,.94,11.63.61v2.5l2.12-.69v-2.82l-1-1.06-11.74-.62-.36-3.3-1.05-.94C47.58-.03,42.14-.04,36.82.1l-1.05.94-.36,3.3-11.74.61-1,1.06v17.27l2.12-.69v-3.66Z"/><path class="uuid-3f1d2ffc-6f3c-47e4-9707-9cf052e43c97" d="M38.19,23.46c-.53.17-1.6.52-2.13.69,1.9,2.96,5.22,4.93,9,4.93,6.11.02,11.05-5.23,10.65-11.33-.53.17-1.6.52-2.13.69-.06,8.21-10.61,11.54-15.39,5.01Z"/><path class="uuid-3f1d2ffc-6f3c-47e4-9707-9cf052e43c97" d="M34.44,19.46c.52-.17,1.58-.52,2.11-.69-.21-4.82,3.69-8.89,8.52-8.88,2.95,0,5.56,1.51,7.09,3.8.52-.17,1.58-.51,2.11-.68-5.84-9.71-20.78-4.98-19.82,6.45Z"/><path class="uuid-3f1d2ffc-6f3c-47e4-9707-9cf052e43c97" d="M76.71,7.2c-21.21,6.44-43,13.53-63.95,20.81.16.5.49,1.51.66,2.02,21.22-6.44,43.01-13.54,63.95-20.81l-.66-2.02Z"/></g></svg>