<?xml version="1.0" encoding="UTF-8"?><svg id="uuid-49f291cb-6f76-4f43-bc12-d48f5bf4eea3" xmlns="http://www.w3.org/2000/svg" viewBox="0 0 107.65 89.25"><defs><style>.uuid-98726885-6a27-44e1-a204-1a7083415150{fill:none;}.uuid-4403fcc8-f131-4c65-84fe-3b84a71f8938{fill:#222221;}</style></defs><g id="uuid-851e177a-52d6-4293-842c-ee5cfd1a2136"><path class="uuid-98726885-6a27-44e1-a204-1a7083415150" d="M47.16,16.92c-.03.41-.05.82-.05,1.24,0,2.52.58,4.83,1.54,6.63,1.51-.34,3.9-2.07,5.49-3.6-2.96-1.16-5.42-2.76-6.98-4.27Z"/><path class="uuid-98726885-6a27-44e1-a204-1a7083415150" d="M49.84,26.52c1.1,1.26,2.45,2.01,3.92,2.01,2.62,0,4.9-2.39,5.98-5.85-1.2-.17-2.37-.43-3.49-.77-1.54,1.67-4.25,3.8-6.41,4.61Z"/><path class="uuid-98726885-6a27-44e1-a204-1a7083415150" d="M53.76,9c4.64-.15,4.64-6.88,0-7.03-4.64.15-4.64,6.88,0,7.03Z"/><path class="uuid-98726885-6a27-44e1-a204-1a7083415150" d="M53.76,15.22c-2.32,0-4.61-1.06-5.9-1.79-.1.3-.19.6-.27.91,1.24,1.96,6.27,5.53,12.61,6.38.41-2.42.2-5.23-.6-7.48-1.18.86-3.22,1.98-5.84,1.98Z"/><path class="uuid-4403fcc8-f131-4c65-84fe-3b84a71f8938" d="M60.91,11.15l-1.64-.26c-3.38,3.28-7.74,2.7-11.33.22l-1.5.42c-3.05,6.43-.9,18.55,7.33,19.01,8.37-.49,10.45-12.97,7.15-19.39ZM48.65,24.79c-.96-1.8-1.54-4.11-1.54-6.63,0-.42.02-.83.05-1.24,1.56,1.51,4.02,3.1,6.98,4.27-1.59,1.53-3.98,3.26-5.49,3.6ZM53.76,28.53c-1.47,0-2.82-.75-3.92-2.01,2.16-.8,4.86-2.94,6.41-4.61,1.12.33,2.29.59,3.49.77-1.08,3.46-3.35,5.85-5.98,5.85ZM60.2,20.71c-6.34-.85-11.37-4.41-12.61-6.38.08-.31.17-.62.27-.91,1.3.73,3.58,1.79,5.9,1.79,2.61,0,4.66-1.12,5.84-1.98.8,2.24,1.01,5.06.6,7.48Z"/><path class="uuid-4403fcc8-f131-4c65-84fe-3b84a71f8938" d="M53.76,11.01c3.05,0,5.53-2.48,5.53-5.53-.26-7.31-10.79-7.31-11.05,0,0,3.05,2.48,5.53,5.53,5.53ZM53.76,1.97c4.64.15,4.64,6.88,0,7.03-4.64-.15-4.64-6.88,0-7.03Z"/><path class="uuid-4403fcc8-f131-4c65-84fe-3b84a71f8938" d="M11,59.61l2.57-11.46h2.09l2.58,11.46h.47l2.05-11.53h1.86l-2.6,13.09h-3.04l-2.38-10.83-2.36,10.83h-3.04l-2.62-13.09h1.88l2.05,11.53h.47Z"/><path class="uuid-4403fcc8-f131-4c65-84fe-3b84a71f8938" d="M26.22,49.79h-1.75v-1.92h1.75v1.92ZM24.47,51.67h1.75v9.5h-1.75v-9.5Z"/><path class="uuid-4403fcc8-f131-4c65-84fe-3b84a71f8938" d="M35.11,51.78l-.06,1.41s-1.52-.17-2.24-.17c-2.07,0-2.6.87-2.6,3.25,0,2.62.42,3.53,2.62,3.53.72,0,2.24-.15,2.24-.15l.06,1.41s-1.84.32-2.77.32c-2.96,0-3.91-1.42-3.91-5.11,0-3.42,1.12-4.81,3.95-4.81.95,0,2.72.32,2.72.32Z"/><path class="uuid-4403fcc8-f131-4c65-84fe-3b84a71f8938" d="M38.93,47.62v7.9l1.33-.09,2.49-3.76h1.96l-2.91,4.41,3.06,5.09h-1.98l-2.58-4.22-1.37.1v4.12h-1.75v-13.54h1.75Z"/><path class="uuid-4403fcc8-f131-4c65-84fe-3b84a71f8938" d="M53.41,59.67l.04,1.33s-2.17.38-3.78.38c-2.83,0-3.86-1.6-3.86-4.88,0-3.55,1.54-5.04,4.05-5.04s3.91,1.37,3.91,4.41l-.11,1.27h-6.08c.02,1.79.61,2.7,2.34,2.7,1.46,0,3.5-.17,3.5-.17ZM52.04,55.77c0-2.13-.65-2.85-2.18-2.85s-2.28.8-2.3,2.85h4.48Z"/><path class="uuid-4403fcc8-f131-4c65-84fe-3b84a71f8938" d="M57.74,61.17h-1.75v-13.54h1.75v13.54Z"/><path class="uuid-4403fcc8-f131-4c65-84fe-3b84a71f8938" d="M65.57,51.46v1.75c-1.77.36-3.34,1.16-3.34,1.16v6.8h-1.75v-9.5h1.73v1.22s1.63-1.1,3.36-1.42Z"/><path class="uuid-4403fcc8-f131-4c65-84fe-3b84a71f8938" d="M75.05,60.01l-.06,1.37c-1.08,0-1.77-.17-2.39-.74,0,0-1.62.74-3.25.74-1.8,0-2.75-1.03-2.75-2.98s1.03-2.66,3.02-2.83l2.72-.25v-.76c0-1.18-.51-1.58-1.54-1.58-1.31,0-3.59.21-3.59.21l-.06-1.27s2.07-.46,3.76-.46c2.24,0,3.17.99,3.17,3.1v4.6c.04.57.38.78.97.85ZM69.67,59.92c1.24,0,2.66-.49,2.66-.49v-2.83l-2.51.23c-1.01.1-1.46.59-1.46,1.54s.42,1.56,1.31,1.56Z"/><path class="uuid-4403fcc8-f131-4c65-84fe-3b84a71f8938" d="M82.63,61.17v-.63s-1.41.84-2.7.84c-2.68,0-3.25-1.33-3.25-4.75v-4.96h1.75v4.96c0,2.36.19,3.17,1.8,3.17,1.27,0,2.39-.59,2.39-.59v-7.54h1.73v9.5h-1.73Z"/><path class="uuid-4403fcc8-f131-4c65-84fe-3b84a71f8938" d="M88.71,51.67v.63s1.39-.84,2.62-.84,1.94.29,2.45.95c0,0,1.71-.95,3.33-.95,2.58,0,3.25,1.31,3.25,4.65v5.05h-1.75v-5.02c0-2.2-.25-3.13-1.8-3.13-1.22,0-2.41.61-2.41.61.11.32.19,1.58.19,2.6v4.94h-1.73v-4.9c0-2.36-.25-3.25-1.82-3.25-1.2,0-2.3.61-2.3.61v7.54h-1.75v-9.5h1.73Z"/><path class="uuid-4403fcc8-f131-4c65-84fe-3b84a71f8938" d="M3.97,70.77l5.53,12.16h.44v-12.16h1.16v13.2h-2.28l-5.57-12.14h-.42v12.14h-1.18v-13.2h2.32Z"/><path class="uuid-4403fcc8-f131-4c65-84fe-3b84a71f8938" d="M21.32,83.97h-1.12v-.7s-1.46.89-2.93.89c-2.64,0-3.17-1.18-3.17-4.73v-4.96h1.12v4.94c0,2.83.29,3.72,2.19,3.72,1.5,0,2.79-.8,2.79-.8v-7.87h1.12v9.5Z"/><path class="uuid-4403fcc8-f131-4c65-84fe-3b84a71f8938" d="M25.29,74.47v1.37s1.65-1.2,3.59-1.56v1.14c-1.82.38-3.59,1.42-3.59,1.42v7.12h-1.12v-9.5h1.12Z"/><path class="uuid-4403fcc8-f131-4c65-84fe-3b84a71f8938" d="M33.48,75.33c-1.18,0-2.24.32-2.24,1.61,0,.99.47,1.27,2.55,1.62,2.43.4,3.34.84,3.34,2.66,0,2.22-1.39,2.95-3.67,2.95-1.16,0-3.25-.34-3.25-.34l.08-1.01s2.13.32,3.1.32c1.63,0,2.58-.38,2.58-1.86,0-1.14-.57-1.39-2.7-1.71-2.18-.34-3.19-.74-3.19-2.58,0-2.07,1.71-2.68,3.36-2.68,1.42,0,3.36.32,3.36.32l-.04,1.01s-2.03-.3-3.29-.3Z"/><path class="uuid-4403fcc8-f131-4c65-84fe-3b84a71f8938" d="M39.42,70.67h1.12v1.42h-1.12v-1.42ZM40.54,74.47v9.5h-1.12v-9.5h1.12Z"/><path class="uuid-4403fcc8-f131-4c65-84fe-3b84a71f8938" d="M43.4,74.47h1.12v.7s1.6-.89,3.1-.89c2.6,0,3.17,1.22,3.17,4.69v5h-1.14v-4.94c0-2.79-.3-3.72-2.2-3.72-1.48,0-2.92.8-2.92.8v7.87h-1.12v-9.5Z"/><path class="uuid-4403fcc8-f131-4c65-84fe-3b84a71f8938" d="M53.1,85.55c0-1.16.53-1.65,1.54-2.39-.32-.21-.48-.7-.48-1.29,0-.32.61-1.48.61-1.48-.82-.34-1.56-1.1-1.56-2.87,0-2.32,1.37-3.23,3.44-3.23.99,0,1.99.25,1.99.25l2.75-.06v1.01l-1.9-.04c.4.4.68.95.68,2.07,0,2.41-1.2,3.17-3.59,3.17-.17,0-.76-.04-.97-.08,0,0-.38.93-.38,1.18,0,.82.15.91,2.41.93,2.58,0,3.55.46,3.55,2.75,0,2.13-1.42,3-4.16,3-3.06,0-3.95-.72-3.95-2.92ZM57.08,87.48c2.09,0,2.98-.57,2.98-1.98,0-1.62-.68-1.79-2.47-1.79-.72,0-2.15-.08-2.15-.08-.91.65-1.2,1.01-1.2,1.82,0,1.48.51,2.01,2.83,2.01ZM56.66,79.73c1.75,0,2.37-.59,2.37-2.22s-.63-2.28-2.37-2.28c-1.6,0-2.28.63-2.28,2.28s.68,2.22,2.28,2.22Z"/><path class="uuid-4403fcc8-f131-4c65-84fe-3b84a71f8938" d="M68.11,74.47v1.37s1.65-1.2,3.59-1.56v1.14c-1.82.38-3.59,1.42-3.59,1.42v7.12h-1.12v-9.5h1.12Z"/><path class="uuid-4403fcc8-f131-4c65-84fe-3b84a71f8938" d="M80.75,79.09c0,3.59-.8,5.07-3.97,5.07s-3.99-1.48-3.99-5.07c0-3.36,1.04-4.81,3.99-4.81s3.97,1.44,3.97,4.81ZM76.78,83.15c2.45,0,2.81-1.16,2.81-4.07s-.65-3.8-2.81-3.8-2.81.95-2.81,3.8.34,4.07,2.81,4.07Z"/><path class="uuid-4403fcc8-f131-4c65-84fe-3b84a71f8938" d="M90.76,79.09c0,3.59-.8,5.07-3.97,5.07s-3.99-1.48-3.99-5.07c0-3.36,1.04-4.81,3.99-4.81s3.97,1.44,3.97,4.81ZM86.79,83.15c2.45,0,2.81-1.16,2.81-4.07s-.65-3.8-2.81-3.8-2.81.95-2.81,3.8.34,4.07,2.81,4.07Z"/><path class="uuid-4403fcc8-f131-4c65-84fe-3b84a71f8938" d="M93.21,74.47h1.12v.7s1.44-.89,2.91-.89c1.31,0,2.01.3,2.49,1.01,0,0,1.67-1.01,3.42-1.01,2.58,0,3.17,1.18,3.17,4.69v5h-1.12v-4.94c0-2.79-.3-3.72-2.18-3.72-1.56,0-2.89.8-2.89.8.21.53.29,1.67.29,2.93v4.94h-1.14v-4.9c0-2.85-.3-3.76-2.17-3.76-1.48,0-2.77.8-2.77.8v7.87h-1.12v-9.5Z"/></g></svg>