<?xml version="1.0" encoding="UTF-8"?><svg id="uuid-2f32bda3-84d4-4a6f-9144-6cb52fbd535a" xmlns="http://www.w3.org/2000/svg" viewBox="0 0 757.15 639.86"><g id="uuid-ae260dcb-f601-48fd-b2dc-8e06a2078504"><path d="M416.8,78.73c2.67.96,10.52.69,12.14,2.69,1.33,1.65,3.79,8.58,4.57,10.93,11.88,35.63,6.17,91.81-25.07,116.47-29.18,23.03-62.88,10.32-80.03-19.86-15.04-26.47-18.13-63.66-9.55-92.72.71-2.41,3.73-11.97,5.48-13.02.66-.4,9.89-2.98,10.42-2.9,24.7,18.25,59.14,21.44,82.04-1.57ZM423.5,149.61c1.88-17.81,1.88-36.7-4.75-53.49-15.87,11.31-34.95,16.5-54.36,12.84-10.73-2.03-20.59-6.83-30.39-11.35-.28,1.89-1.95,4.8-1.42,6.63.16.54,3.95,5.12,4.66,5.87,6.98,7.42,18.49,15.13,27.42,20.08,18.01,9.98,38.34,16.85,58.83,19.42ZM329.01,122.61c-.87,19.26,1.49,39.34,11,56.28,6.28,1.4,38.97-23.08,38.98-25.53-18.06-7.75-35.55-17.28-49.99-30.75ZM420,164.11l-25.19-5.39c-10.35,10.25-21.76,20.21-34.48,27.47-3.44,1.97-7.46,3.4-10.7,5.31-.3.18-.98.01-.63.85,1.03,2.47,10.74,9.21,13.48,10.52,27.95,13.41,50.37-14.81,57.51-38.76Z"/><path d="M49.5,347.61l14.72,83.03,3.21.4,18.59-82.91,15.17-.05,19.04,82.54c.7.7,2.41.81,3.03,0l14.74-83.01h14l-19.73,94.53-21.53-.52-16.99-76.52-16.77,76.98h-22.46s-18.52-94.48-18.52-94.48h13.5Z"/><path d="M629.5,373.61v4c10.86-5.6,27.39-9.8,36.32,1.04,9.61-4.38,18.99-7.63,29.79-6.4,13.8,1.57,17.06,12.43,17.88,24.62.99,14.7-.73,30.44,0,45.24h-12.5c-.53-12.93.7-26.4.02-39.27-.21-3.99-1.02-12.96-3.51-15.99-5.34-6.48-20.4-2.29-26.99.79,2.77,17.91.97,36.35,1.49,54.46h-13v-45.25c0-1.62-1.49-7.13-2.31-8.7-4.28-8.22-20.62-3.87-27.19-.55v54.5h-12.5v-68.5h12.5Z"/><path d="M371.4.25c23.02-2.34,42.56,11.72,45.1,35.11,3.85,35.47-37.75,58.17-65.23,35.23-26.43-22.07-14.52-66.81,20.13-70.34ZM372.89,14.75c-30.09,3.46-27.51,51.43,4.85,50.36,33.46-1.11,31.93-54.59-4.85-50.36Z"/><path d="M60,511.61h8.5v95.5h-17l-39.44-87.2-3.56-.3v87.5H0v-95.5h16.75l39.63,86.87c.28,1.68,3.62,1.31,3.62.38v-87.25Z"/><path d="M432,538.11v7.5h-13c5.06,6.79,5.27,16.05,3.25,24-3.59,14.12-20.45,14.54-32.25,12.99-1.65,6.73-6.19,14.06,4.25,15,12.46,1.12,33.79-3.27,36.11,13.89,3.46,25.5-15.65,29.56-36.62,28.12-11.6-.8-20.46-3.93-21.69-16.81-1.01-10.57,2.13-15.5,10.4-21.5-4.93-6.93-2.48-13.35,1.48-19.95-6.35-3.23-10.28-8.79-10.94-16-2.02-22.02,9.39-29.8,30.24-28.24,2.95.22,6.07,1.3,8.99,1.51,6.41.47,13.36-.24,19.77-.52ZM407,543.61h-17.99s3.49.99,3.49.99c-6.51.45-10.26,5.03-10.93,11.32-1.76,16.36,4.78,21.63,20.68,20.18,9.51-.87,12.6-6.82,12.6-15.74,0-7.78-2.46-15.15-11.34-15.76l3.49-.99ZM389.35,604.7c-7.57,4.32-9.99,9.18-8.63,17.94,1.08,6.92,6.71,8.95,13.03,9.47,8.96.73,26.64,1.13,28.2-10.78,1.14-8.68-.43-14.5-9.71-15.7-7.56-.97-15.33.05-22.89-.92Z"/><polygon points="269.5 344.11 269.5 401.11 279.4 400.5 297.25 373.61 311 373.61 290.58 405.44 312.5 442.11 298.25 442.11 279.45 411.64 269.5 412.61 269.5 442.11 257 442.11 257 344.11 269.5 344.11"/><path d="M530.5,433.61v10c-4.61.22-9.34-.12-13.52-2.23-1.11-.56-3.5-2.71-4.21-2.75-.94-.05-6.12,2.27-7.78,2.72-16.62,4.56-34.32,4.46-35.52-16.98-1.5-26.72,22.97-21.61,41.31-24.74,1.63-15.55-3.81-16.97-17.53-16.53l-19.24,1.48-.49-9.47c11.8-1.62,31.02-6.43,41.74-.04,13.64,8.12,6.6,38.05,8.29,52.21.5,4.18,2.69,6.21,6.94,6.31ZM511,409.11c-11.73,2.64-30.71-2.73-28.44,15.69,1.69,13.76,19.95,6.73,28.44,4.81v-20.5Z"/><path d="M376,413.11h-44c.47,8.56,1.86,16.7,11.39,18.86s21.24-1.06,31.11-.36v9.5c-22.65,2.68-49.69,10.04-54.42-20.33-3.98-25.53,2.13-51.2,33.16-48.66,21.9,1.79,25.84,22.81,22.76,40.99ZM364,403.11v-7.25c0-1.03-1.76-6.03-2.4-7.1-3.6-6.06-12.31-7.12-18.63-5.42-9.08,2.44-10.85,11.51-10.98,19.77h32Z"/><path d="M670,538.11v5c5.66-2.53,11.38-5.51,17.73-6.02,8.15-.64,16.12.17,21.51,6.88,10.49-6.57,35.53-12.01,43.18.47,4,6.53,4.34,18.78,4.6,26.4.42,12.06-.35,24.21-.02,36.27h-8.5c-.57-13.92.75-28.42.02-42.27-.26-4.96-.92-12.89-4.3-16.7-6.17-6.95-25.25-2.72-32.16,2.27,1.17,3.87,1.75,8.38,1.96,12.43.75,14.52-.6,29.69-.02,44.27h-8.5v-46.25c0-2.45-1.58-8.95-2.9-11.1-5.85-9.49-24.65-4.21-32.6.35v57h-8v-69h8Z"/><path d="M555,373.61l.26,45.26c.79,2.81.67,6.01,2.13,8.59,4.73,8.39,21.08,3.86,28.11.64v-54.5h12.5v68.5h-12.5c-.26-.8.69-4.41-.73-3.99-1.1.33-2.93,1.69-4.27,2.23-3.59,1.44-7.86,2.97-11.72,3.28-19.15,1.51-25.17-7.42-26.26-25.27-.89-14.6.66-30.06,0-44.75h12.5Z"/><path d="M608.89,537.25c29.7-3.35,36.04,12.48,35.12,38.62-.79,22.25-5.99,33.77-30.78,32.77-20.87-.85-25.74-12.21-26.72-31.28-.9-17.42,1.48-37.75,22.38-40.11ZM609.89,544.75c-16.53,1.97-15.2,24.01-14.41,36.63.75,11.93,4.51,18.87,17.28,19.72,15.28,1.02,21.75-4.59,22.76-19.72,1.44-21.4,1.17-39.83-25.63-36.63Z"/><path d="M536.39,537.25c29.29-3.31,36.76,12.65,35.63,39.13-.94,22.1-7.39,33.22-31.29,32.25-22.53-.92-26.59-15.31-26.75-35.25-.13-16.46,3.06-33.95,22.41-36.14ZM537.38,544.74c-4.44.6-9.16,3.14-11.29,7.21-4.32,8.24-4.71,35.89.91,43.41,6.13,8.21,28.17,8.03,33.28-1.72,4.39-8.38,4.28-33.41-.27-41.79-4.12-7.59-14.91-8.16-22.63-7.11Z"/><path d="M242,441.61c-13.14,1.85-34.96,6.11-43.08-7.67-6.44-10.91-6.67-34.09-2.77-45.94,6.74-20.47,29.02-16.29,45.85-13.89l-.5,10.5c-9.73-.55-27.71-4.66-32.59,6.65-3.33,7.7-3.74,30.6,2.33,36.86,6.36,6.57,22.43,3.39,30.77,2.98v10.5Z"/><path d="M355.5,607.11h-8.5c-.54-13.75.72-28.05,0-41.74-.26-4.85-.94-13.16-4.07-16.93-6.51-7.84-25.12-2.41-32.92,1.67v57h-8.5v-68.25l.75-.75h7.75l.26,5.01c9.5-4.81,21.41-8.13,31.97-4.98,13.06,3.9,12.1,18.07,13.3,29.2l-.02,39.77Z"/><path d="M134,538.11h7.75l.75.75v68.25h-8.5l-.25-5c-9.97,6.81-32.44,10.63-39.66-1.34-2.77-4.59-3.78-13.06-4.08-18.42-.81-14.49.6-29.69,0-44.24h7.75c.71.44.69,1,.78,1.72,1.81,15.45-2.87,37.72,1.22,52.28s25.38,8.75,34.26,2.74v-56.75Z"/><path d="M254,546.61c-10.07-.11-26.27-4.91-35.36.39-5.84,3.41-6.55,13.96-.1,17.3,11.78,6.1,36.21,1.32,37.94,19.56,2.92,30.72-30.01,25.11-49.99,22.24l.5-7.5,22.75,2.54c8.49-.92,17.49-1.16,18.27-11.77.69-9.52-4.45-11.27-12.5-13.04-14.02-3.07-31.41-1.56-30.03-21.5,1.61-23.36,32.96-17.82,48.55-15.5l-.02,7.27Z"/><rect x="393" y="344.11" width="12.5" height="98"/><path d="M462,372.11v12.25c-1.91,1.25-4.61,1.42-6.88,2.12-5.85,1.8-11.77,3.91-17.12,6.88v48.75h-13v-68.5h13v8.5c7.34-4.6,15.35-8.51,24-10Z"/><rect x="165" y="373.61" width="13" height="68.5"/><path d="M506.5,537.11v8.5c-9.15,1.31-18.06,5.66-26,10.25v51.25h-8v-69h8v10c7.92-5.06,16.51-9.69,26-11Z"/><path d="M197,537.11v7.75c-5.29,1.89-10.66,3.44-15.84,5.66-3.44,1.48-7.17,3.07-10.16,5.34v51.25h-8v-69h8v10c7.85-5.04,16.61-9.82,26-11Z"/><polygon points="281.5 607.11 273 607.11 273 538.11 280.75 538.11 281.5 538.86 281.5 607.11"/><rect x="165" y="346.11" width="13" height="14"/><polygon points="281.5 521.11 273 521.11 273 510.61 280.75 510.61 281.5 511.36 281.5 521.11"/></g></svg>