<?xml version="1.0" encoding="UTF-8"?><svg id="uuid-7d2e5d2c-cc21-4763-a38b-a7943303b641" xmlns="http://www.w3.org/2000/svg" viewBox="0 0 67.71 115.82"><defs><style>.uuid-b36c908c-7637-4aeb-bde3-b5bf9fa4bb3a{fill:#3c3c3b;}</style></defs><g id="uuid-c97e1eed-c9ca-4dbf-9dcc-09258627a247"><path class="uuid-b36c908c-7637-4aeb-bde3-b5bf9fa4bb3a" d="M9.67,78.08c0,1.63-.55,2.36-1.54,2.93,1.31.57,1.84,1.44,1.84,3.04,0,2.64-1.5,3.72-4.16,3.72H1.31v-13.01h4.41c2.36,0,3.95.97,3.95,3.32ZM5.74,80.25c1.22,0,1.77-.78,1.77-1.92,0-1.2-.59-1.75-1.79-1.75h-2.28v3.67h2.3ZM5.79,85.95c1.37,0,2-.67,2-2.05,0-1.31-.67-1.88-2.03-1.88h-2.32v3.93h2.36Z"/><path class="uuid-b36c908c-7637-4aeb-bde3-b5bf9fa4bb3a" d="M11.88,74.65h2.09v2.2h-2.09v-2.2ZM13.95,78.27v9.5h-2.05v-9.5h2.05Z"/><path class="uuid-b36c908c-7637-4aeb-bde3-b5bf9fa4bb3a" d="M23.6,82.99c0,2.85-.68,5-3.89,5s-3.89-2.15-3.89-5,.84-4.9,3.89-4.9,3.89,2.03,3.89,4.9ZM19.7,86.23c1.67,0,1.92-1.35,1.92-3.25s-.36-3.15-1.92-3.15-1.92,1.22-1.92,3.15.23,3.25,1.92,3.25Z"/><path class="uuid-b36c908c-7637-4aeb-bde3-b5bf9fa4bb3a" d="M25.06,83.18c0-2.92.74-5.11,3.84-5.11,1.27,0,3.86.34,3.86.34v6.82c0,.67.09,2.53.09,2.53l-2.05.08s-.1-.76-.1-1.39c0,0-.87,1.54-2.49,1.54-2.32,0-3.15-1.63-3.15-4.81ZM28.67,86.23c1.2,0,2.03-1.61,2.03-1.61v-4.65s-1.16-.15-1.61-.15c-1.52,0-1.94,1.14-1.94,3.36,0,1.82.27,3.06,1.52,3.06Z"/><path class="uuid-b36c908c-7637-4aeb-bde3-b5bf9fa4bb3a" d="M42.73,82.85c0,3.67-1.33,5.11-4.26,5.11-.99,0-3.44-.23-3.44-.23v-13.41h2.05v4.81s1.18-1.06,2.47-1.06c2.38,0,3.17,1.73,3.17,4.79ZM38.55,86.22c1.67,0,2.09-1.04,2.09-3.36,0-1.62-.25-3.04-1.56-3.04-1.04,0-2,1.01-2,1.01v5.28s1.12.11,1.46.11Z"/><path class="uuid-b36c908c-7637-4aeb-bde3-b5bf9fa4bb3a" d="M46.85,91.86h-1.9v-11.82h-.95v-1.77h.95v-.57c0-2.55.8-3.59,2.53-3.59.61,0,1.84.21,1.84.21l-.02,1.67s-.78-.11-1.35-.11c-.82,0-.95.72-.95,1.84v.55h2.2v1.77h-2.2v7.73l-.15,4.08Z"/><path class="uuid-b36c908c-7637-4aeb-bde3-b5bf9fa4bb3a" d="M50.1,83.18c0-2.92.74-5.11,3.84-5.11,1.27,0,3.86.34,3.86.34v6.82c0,.67.09,2.53.09,2.53l-2.05.08s-.1-.76-.1-1.39c0,0-.87,1.54-2.49,1.54-2.32,0-3.15-1.63-3.15-4.81ZM53.71,86.23c1.2,0,2.03-1.61,2.03-1.61v-4.65s-1.16-.15-1.61-.15c-1.52,0-1.94,1.14-1.94,3.36,0,1.82.27,3.06,1.52,3.06Z"/><path class="uuid-b36c908c-7637-4aeb-bde3-b5bf9fa4bb3a" d="M62.17,74.32v13.45h-2.07v-13.45h2.07Z"/><path class="uuid-b36c908c-7637-4aeb-bde3-b5bf9fa4bb3a" d="M66.56,74.32v13.45h-2.07v-13.45h2.07Z"/><path class="uuid-b36c908c-7637-4aeb-bde3-b5bf9fa4bb3a" d="M8.59,97.86c.7-.46,1.65-.68,2.94-.68,3.95,0,4.77,2.11,4.77,6.69,0,3.23-.4,5.32-2.01,6.29-.68.4-1.58.61-2.75.61-3.95,0-4.79-2.3-4.79-6.9,0-3.1.38-5.05,1.84-6ZM13.39,109.36c1.46-.7,1.69-2.51,1.69-5.49,0-3.95-.4-5.62-3.55-5.62-.76,0-1.35.08-1.82.29-1.52.63-1.75,2.32-1.75,5.34,0,3.95.4,5.83,3.57,5.83.78,0,1.37-.09,1.86-.34Z"/><path class="uuid-b36c908c-7637-4aeb-bde3-b5bf9fa4bb3a" d="M22.95,100.88v1.22c-1.41.34-3.12,1.44-3.12,1.44v7.03h-1.14v-9.5h1.14v1.48s1.44-1.24,3.12-1.67Z"/><path class="uuid-b36c908c-7637-4aeb-bde3-b5bf9fa4bb3a" d="M23.96,112.49c0-1.16.93-2.24,1.81-2.79-.36-.3-.46-.61-.46-1.1,0-.61.57-1.52.57-1.52-1.27-.44-1.77-1.52-1.77-2.95,0-2.03,1.12-3.25,3.15-3.25.84,0,1.63.25,1.63.25l2.72-.04v.97h-1.82c.46.38.76,1.22.76,2.07,0,2.03-1.18,3.17-3.33,3.17-.28,0-.47-.04-.47-.04,0,0-.36.76-.36,1.22s.17.78,1.79.78c2.05,0,3.36.4,3.36,2.53,0,1.98-1.6,3.29-3.95,3.29-2.11,0-3.63-.44-3.63-2.58ZM27.62,114.07c1.71,0,2.81-.82,2.81-2.28,0-1.37-.91-1.52-2.32-1.52-.55,0-1.22-.06-1.54-.15-.72.34-1.52,1.27-1.52,2.24,0,1.39.95,1.71,2.56,1.71ZM27.23,106.3c1.62,0,2.22-.84,2.22-2.17,0-1.42-.61-2.26-2.18-2.26-1.41,0-2.05.87-2.05,2.26s.61,2.17,2.01,2.17Z"/><path class="uuid-b36c908c-7637-4aeb-bde3-b5bf9fa4bb3a" d="M32.96,106.03c0-3.08.72-5.15,3.78-5.15,1.01,0,3.23.32,3.23.32v7.12c0,.99.11,2.24.11,2.24l-1.14.04s-.09-.93-.09-1.75c0,0-1.08,1.9-2.91,1.9-2.22,0-2.98-1.65-2.98-4.73ZM36.16,109.76c1.56,0,2.7-2.15,2.7-2.15v-5.53s-1.41-.19-1.94-.19c-2.28,0-2.77,1.46-2.77,4.14,0,2.2.38,3.72,2.01,3.72Z"/><path class="uuid-b36c908c-7637-4aeb-bde3-b5bf9fa4bb3a" d="M43.74,101.07l.02,1.56s1.24-1.75,2.87-1.75c2.03,0,2.87,1.39,2.87,3.76v5.93h-1.14v-5.57c0-2.13-.51-3.12-1.92-3.12s-2.68,1.94-2.68,1.94v6.74h-1.14v-9.5h1.12Z"/><path class="uuid-b36c908c-7637-4aeb-bde3-b5bf9fa4bb3a" d="M52.02,97.35h1.18v1.48h-1.18v-1.48ZM53.18,110.57h-1.14v-9.5h1.14v9.5Z"/><path class="uuid-b36c908c-7637-4aeb-bde3-b5bf9fa4bb3a" d="M61.33,101.13l-.06.95s-1.27-.17-1.96-.17c-2.09,0-2.7,1.22-2.7,3.76s.32,4.08,2.7,4.08c.68,0,1.96-.15,1.96-.15l.06.91s-1.35.25-2.2.25c-3.08,0-3.69-1.84-3.69-5.09s1.08-4.77,3.69-4.77c.87,0,2.2.23,2.2.23Z"/><path class="uuid-b36c908c-7637-4aeb-bde3-b5bf9fa4bb3a" d="M53.87,48.85c.52.53.57,1.4.2,2.02-.71,1.57-1.54,3.07-2.59,4.45-5.87,7.63-9.97,2.79-17.43,3.51-2.62.03-4.82,1.35-7.44,1.66-1.74.09-3.45-.53-4.89-1.38-3.7-2.29-6.2-5.82-8.37-9.44-.29-.5-.12-1.15.38-1.44,6.9-1.73,9.06-10.2,7.99-16.5-1.83-4.98-7.42-7.33-11.98-9.35-.62-.21-.95-.9-.69-1.51,1.8-4.86,6.28-8.73,11.42-9.61,5.04-.96,10.18-.14,14.85,1.86,0,0-1.06.05-1.06.05,7.81-4.65,20.54-4.67,25.3,4.28.65,1.03.52,2.47-.61,3.11-1.29.66-2.35,1.32-3.46,2.1-11.33,7.94-10.02,16.53-1.62,26.21h0ZM52.59,50.04c-12-12.14-9.21-23.36,5.35-31.2.03-.02.04-.08.02-.11-.33-.69-.71-1.36-1.2-1.95-5.18-6.16-14.9-5.27-21.35-1.59-.33.19-.73.19-1.06.05-6.04-2.57-14.05-3.36-19.4,1.06-1.7,1.41-2.93,3.33-3.79,5.41l-.69-1.51c1.63.51,3.1,1.18,4.57,1.96,3.66,2.01,7.58,4.67,8.89,8.92,1.29,7.31-1.29,17.03-9.48,19.12,0,0,.75-1.58.75-1.57,2.28,4.14,7.14,11.27,12.55,9.7,3.83-1.72,8.37-2.26,12.48-1.19,1.92.43,3.64,1.15,5.51.52,3.14-1.01,5.22-4.22,6.57-7.15,0,0,.24-.52.24-.52,0,.02,0,.05.02.08h0Z"/><path class="uuid-b36c908c-7637-4aeb-bde3-b5bf9fa4bb3a" d="M40.5,1.93c-2.3.42-3.81,2-4.29,4.27-.51,2.23-.33,4.72-.05,7.2l-2.74.24c-.15-2.68-.24-5.4.52-8.06C34.58,2.74,37.24.27,40.17,0c0,0,.33,1.93.33,1.93h0Z"/></g></svg>