<?xml version="1.0" encoding="UTF-8"?><svg id="uuid-66491f09-3d5f-49a2-bb4b-ba2cf6dc44e3" xmlns="http://www.w3.org/2000/svg" viewBox="0 0 61.33 110.79"><defs><style>.uuid-ba3148df-55d9-46a0-8cc9-a9bb839bc5d3,.uuid-7f2ba9b5-ebf3-4342-a881-0f79f1f6600f{fill:#3c3c3b;}.uuid-7f2ba9b5-ebf3-4342-a881-0f79f1f6600f{stroke:#3c3c3b;stroke-miterlimit:10;stroke-width:.5px;}</style></defs><g id="uuid-9cfd69e6-77b4-4aad-b0c0-b56dcbe1f66d"><path class="uuid-7f2ba9b5-ebf3-4342-a881-0f79f1f6600f" d="M61.08,33.04c-.14-2.42-1.59-4.34-2.7-6.31-3.07-4.93-6.19-9.77-8.99-14.8-1.44-2.51-2.75-5.07-4.39-7.55-.83-1.19-1.8-2.56-3.48-3.15-3.29-1.22-5.61,2.31-8.02,3.53-4.58,2.15-6.82-3.65-11.28-4.19-3.02-.37-8.51-1.12-9.67,2.73-.51,2.34-1.07,4.82-1.66,7.14-1.51.78-2.97,1.59-4.39,2.58-.75.56-1.51,1.09-2.19,2.05-.61,1.02-.68,2.07-.73,3-.19,3.51.41,7.33.41,10.7-.2,1.9-1.12,2.53-2.9,3.48-2.09,1.71.14,4.31,1.59,5.49,2.76,2.41,5.61,4.51,8.38,6.82,1.88,1.73,4.54,2.73,5.32,5.32.66,1.76.24,3.32.7,5.26,1.97,5.41,9.33,3.02,13.24,1.64,3.65-1,6.34-4.39,7.94-7.53.86-1.37,2.07-2.26,3.61-2.65,4.95,2.05,10.06,1.59,10.45-4.83.08-1.25,0-2.48-.2-3.7,3.27-.51,8.77-1.31,8.95-5.04ZM58.86,34.3c-2.07,1.49-5.21,1.93-7.78,2.29-3.68.27-7.6.44-11.21-.41-.02-.03-.02-.1-.02-.14.88-7.46,1.66-15.06.86-22.59l-1,.08c.61,7.34-.17,14.62-1.24,21.89-.05.61-.2,1.51.53,1.97,3.67,1.28,7.65,1.01,11.49.97,1.09,6.45-1.35,9.54-8.14,6.8-3.41-1.63-6.79-3.58-10.44-4.74-.25-.06-.52-.08-.85.07-.29.13-.43.44-.51.66-.71,3.08-.75,6.18-1.22,9.28l.92.18c.72-2.81.92-5.77,1.63-8.55,2.54.89,5.4,2.43,7.97,3.69-.33.17-.63.34-.85.5-2.31,1.59-3.14,4.68-4.95,6.49-2.37,2.39-6.09,3.27-9.33,3.82-1.66.22-3.46.25-4.68-.44-1.54-.85-1.36-2.29-1.49-3.97-.19-1.92-.83-3.87-2.29-5.36-4.34-3.24-8.6-6.58-12.65-10.09-.81-.78-2.65-2.34-1.66-3.32,4.56-1.81,3.51-6.09,3.29-9.94.07-2.41-.47-5.32.47-7.5,1.52-1.78,4.04-3,6.16-4.13,1.2-.5,2.57-1.22,3.81-1.77,1.34-.58,4.17-1.98,5.65-2.46.97,1.1,1.07,2.76,1.22,4.26.17,5.31-1.15,10.65-2.66,15.74l1.1.39c1.87-6.53,4.63-13.75,2.13-20.47-.32-.59-.86-1.51-1.68-1.49-.37.03-.44.1-.75.19-2.46.92-5.45,2.4-8.02,3.52.28-1.7.62-3.44.93-5.1.68-3.76,5.61-2.97,8.31-2.56,3.1.49,4.56,2.82,7.38,4.09,1.54.54,3.26.49,4.73-.19,2.54-1.09,4.15-4.34,7.04-3.44,1.12.37,2,1.49,2.76,2.65,4.36,7.39,8.55,15.16,13.23,22.37.97,1.73,2.27,3.56,2.42,5.49,0,.53-.2.88-.64,1.27ZM29.76,35.13c-2.17,3.09-4.07,6.92-7.45,9.05-.51.31-1.76.51-2.29-.31-.39-.46-.95-1.44-1.27-1.97-1.19-2.04-2.63-4.78-3.61-6.55-.68.14-1.59.49-2.26.56-.22.03-.53.02-.78-.05-.2-.03-.58-.53-.54-.75-.03-4.63.57-9.34.15-13.92l.8-.14c.64,4.43.39,8.92.51,13.33.47-.1,1.12-.32,1.42-.41.54-.08.92-.41,1.59.1,1.61,2.2,3.49,6.6,5.1,8.85.02.03.05.08.05.08.08,0,.31-.02.51-.14,3.05-1.9,5.04-5.26,7.29-8.16l.76.39ZM34.73,13.03c.2.9-.38,1.69-.79,2.41-1.01,1.61-2.31,3.07-3.57,4.42l-.75-.53c.98-1.86,2.7-4.46,3.35-5.8-.21-.47-1.8-1.26-2.44-1.61-1.05-.54-2.16-1-3.3-1.45l.3-1.13c2.26.34,4.48,1.13,6.35,2.5.3.24.69.61.86,1.19Z"/><path class="uuid-ba3148df-55d9-46a0-8cc9-a9bb839bc5d3" d="M9.02,84.33h-2.13v-12.28h4.26c2.79,0,4.29,1.17,4.29,4.18,0,3.25-1.61,4.43-4.29,4.43h-2.13v3.68ZM11.01,78.9c1.46,0,2.24-.65,2.24-2.73,0-1.88-.78-2.38-2.26-2.38h-1.98v5.11h2Z"/><path class="uuid-ba3148df-55d9-46a0-8cc9-a9bb839bc5d3" d="M16.71,79.99c0-2.76.74-4.82,3.84-4.82,1.27,0,3.86.32,3.86.32v6.44c0,.63.09,2.38.09,2.38l-2.05.07s-.1-.72-.1-1.31c0,0-.87,1.45-2.49,1.45-2.32,0-3.15-1.54-3.15-4.54ZM20.32,82.88c1.2,0,2.03-1.52,2.03-1.52v-4.39s-1.16-.14-1.61-.14c-1.52,0-1.94,1.08-1.94,3.17,0,1.72.27,2.89,1.52,2.89Z"/><path class="uuid-ba3148df-55d9-46a0-8cc9-a9bb839bc5d3" d="M28.7,75.37l.02,1s.95-1.2,2.39-1.2c2.43,0,3.27,1.67,3.27,4.57,0,3.07-1.01,4.77-3.72,4.77-.87,0-1.92-.23-1.92-.23v3.91h-2.05v-12.82h2.01ZM30.41,82.86c1.46,0,1.88-1.08,1.88-3.12,0-1.76-.29-2.92-1.56-2.92-1.08,0-2,1.34-2,1.34v4.54s.95.16,1.67.16Z"/><path class="uuid-ba3148df-55d9-46a0-8cc9-a9bb839bc5d3" d="M36.23,71.94h2.09v2.08h-2.09v-2.08ZM38.3,75.37v8.96h-2.05v-8.96h2.05Z"/><path class="uuid-ba3148df-55d9-46a0-8cc9-a9bb839bc5d3" d="M47.13,82.57l.06,1.4s-1.41.54-3.19.54c-2.68,0-3.86-1.38-3.86-4.41,0-2.81,1.08-4.91,3.93-4.91,2.22,0,3.5.75,3.5,2.65,0,2.24-1.58,2.72-4.58,2.72h-.78v.29c0,1.2.65,1.99,1.94,1.99s2.98-.27,2.98-.27ZM42.99,79.11c1.77,0,2.54-.2,2.54-1.25,0-.84-.49-1.11-1.46-1.11-1.35,0-1.82.97-1.84,2.37h.76Z"/><path class="uuid-ba3148df-55d9-46a0-8cc9-a9bb839bc5d3" d="M51.33,75.37v1.31s1.2-1.17,2.68-1.51v2.03c-1.25.29-2.66,1.11-2.66,1.11v6.02h-2.05v-8.96h2.03Z"/><path class="uuid-ba3148df-55d9-46a0-8cc9-a9bb839bc5d3" d="M9.82,105.84v-12.46h4.12c2.74,0,4.12,1.13,4.12,3.93,0,2.94-1.48,4.25-4.1,4.25h-2.98v4.29h-1.16ZM13.9,100.57c1.94,0,2.94-.91,2.94-3.28,0-2.19-1.03-2.9-2.94-2.9h-2.93v6.19h2.93Z"/><path class="uuid-ba3148df-55d9-46a0-8cc9-a9bb839bc5d3" d="M19.54,101.55c0-2.9.72-4.86,3.78-4.86,1.01,0,3.23.31,3.23.31v6.72c0,.93.11,2.12.11,2.12l-1.14.04s-.09-.88-.09-1.65c0,0-1.08,1.79-2.91,1.79-2.22,0-2.98-1.56-2.98-4.46ZM22.74,105.07c1.56,0,2.7-2.03,2.7-2.03v-5.22s-1.41-.18-1.94-.18c-2.28,0-2.77,1.38-2.77,3.91,0,2.08.38,3.51,2.01,3.51Z"/><path class="uuid-ba3148df-55d9-46a0-8cc9-a9bb839bc5d3" d="M33.11,96.69c2.45,0,3.1,1.81,3.1,4.55,0,3.07-.97,4.77-3.76,4.77-.97,0-2.11-.23-2.11-.23v4.09h-1.14v-13h1.12l.02,1.45s1.12-1.63,2.77-1.63ZM32.35,105.07c2.13,0,2.7-1.36,2.7-3.82,0-1.94-.32-3.6-2.03-3.6-1.52,0-2.68,1.86-2.68,1.86v5.36s1.12.2,2.01.2Z"/><path class="uuid-ba3148df-55d9-46a0-8cc9-a9bb839bc5d3" d="M44.49,104.71l.08.81s-1.33.48-3.04.48c-2.43,0-3.46-1.34-3.46-4.55,0-3.03,1.16-4.73,3.82-4.73,1.8,0,3.02.7,3.02,2.31,0,2.13-1.41,2.73-4.62,2.73h-1.06v.25c0,1.88.68,3.07,2.36,3.07,1.35,0,2.91-.36,2.91-.36ZM40.29,100.87c2.51,0,3.48-.36,3.48-1.83,0-1.06-.74-1.42-1.9-1.42-1.86,0-2.6,1.17-2.64,3.25h1.06Z"/><path class="uuid-ba3148df-55d9-46a0-8cc9-a9bb839bc5d3" d="M51.25,96.69v1.15c-1.41.32-3.12,1.36-3.12,1.36v6.63h-1.14v-8.96h1.14v1.4s1.44-1.17,3.12-1.58Z"/></g></svg>