<?xml version="1.0" encoding="UTF-8"?><svg id="uuid-e096eb29-0df6-482a-bd30-ea61ebf907a1" xmlns="http://www.w3.org/2000/svg" viewBox="0 0 54.61 105.01"><defs><style>.uuid-4c3795ef-7d3d-4e8c-9163-aee0fed7e390{fill:#222221;}</style></defs><g id="uuid-2c5a71bd-c4d9-4b19-af84-9c68350cdb03"><path class="uuid-4c3795ef-7d3d-4e8c-9163-aee0fed7e390" d="M9.75,65.43h-3.84v11.49h-1.79v-11.49H.25v-1.6h9.5v1.6Z"/><path class="uuid-4c3795ef-7d3d-4e8c-9163-aee0fed7e390" d="M14.93,67.22v1.75c-1.77.36-3.34,1.16-3.34,1.16v6.8h-1.75v-9.5h1.73v1.22s1.63-1.1,3.36-1.42Z"/><path class="uuid-4c3795ef-7d3d-4e8c-9163-aee0fed7e390" d="M23.6,75.42l.04,1.33s-2.17.38-3.78.38c-2.83,0-3.86-1.6-3.86-4.88,0-3.55,1.54-5.04,4.05-5.04s3.91,1.37,3.91,4.41l-.11,1.27h-6.08c.02,1.79.61,2.7,2.34,2.7,1.46,0,3.5-.17,3.5-.17ZM22.23,71.53c0-2.13-.65-2.85-2.18-2.85s-2.28.8-2.3,2.85h4.48Z"/><path class="uuid-4c3795ef-7d3d-4e8c-9163-aee0fed7e390" d="M30.46,67.22c2.43,0,3.53,1.44,3.53,4.84,0,3.82-1.27,5.07-4.2,5.07-.84,0-1.79-.15-1.98-.19v4.14h-1.75v-13.66h1.73v.63s1.39-.84,2.66-.84ZM29.68,75.61c1.94,0,2.53-1.01,2.53-3.55,0-2.41-.76-3.29-2.03-3.29-1.16,0-2.36.65-2.36.65v6c.17.04,1.12.19,1.86.19Z"/><path class="uuid-4c3795ef-7d3d-4e8c-9163-aee0fed7e390" d="M40.56,67.22c2.43,0,3.53,1.44,3.53,4.84,0,3.82-1.27,5.07-4.2,5.07-.84,0-1.79-.15-1.98-.19v4.14h-1.75v-13.66h1.73v.63s1.39-.84,2.66-.84ZM39.78,75.61c1.94,0,2.53-1.01,2.53-3.55,0-2.41-.76-3.29-2.03-3.29-1.16,0-2.36.65-2.36.65v6c.17.04,1.12.19,1.86.19Z"/><path class="uuid-4c3795ef-7d3d-4e8c-9163-aee0fed7e390" d="M53.45,75.42l.04,1.33s-2.17.38-3.78.38c-2.83,0-3.86-1.6-3.86-4.88,0-3.55,1.54-5.04,4.05-5.04s3.91,1.37,3.91,4.41l-.11,1.27h-6.08c.02,1.79.61,2.7,2.34,2.7,1.46,0,3.5-.17,3.5-.17ZM52.08,71.53c0-2.13-.65-2.85-2.18-2.85s-2.28.8-2.3,2.85h4.48Z"/><path class="uuid-4c3795ef-7d3d-4e8c-9163-aee0fed7e390" d="M9.83,87.36c-1.98,0-3.06.7-3.06,2.34,0,1.96,1.01,2.24,3.34,2.7,2.58.51,3.82,1.14,3.82,3.48,0,2.93-1.54,4.01-4.14,4.01-1.5,0-4.12-.36-4.12-.36l.13-1.01s2.6.32,3.95.32c1.98,0,2.98-.86,2.98-2.89,0-1.65-.85-2.07-3.06-2.47-2.68-.51-4.1-1.08-4.1-3.7s1.63-3.46,4.18-3.46c1.54,0,3.89.36,3.89.36l-.1,1.01s-2.62-.32-3.72-.32Z"/><path class="uuid-4c3795ef-7d3d-4e8c-9163-aee0fed7e390" d="M19.27,98.91c.53,0,1.75-.13,1.75-.13l.08.97s-1.25.19-1.92.19c-1.88,0-2.56-.7-2.56-3.44v-5.26h-1.41v-1.01h1.41v-2.98h1.14v2.98h3.17v1.01h-3.17v4.69c0,2.38.15,2.98,1.52,2.98Z"/><path class="uuid-4c3795ef-7d3d-4e8c-9163-aee0fed7e390" d="M30.48,98.98l-.06.91c-.93,0-1.63-.19-2.15-.76,0,0-1.79.78-3.57.78-1.67,0-2.6-.97-2.6-2.87,0-1.75.87-2.58,2.79-2.77l3.23-.32v-.89c0-1.44-.65-2-1.86-2-1.37,0-3.59.29-3.59.29l-.06-.91s2.09-.4,3.69-.4c2.07,0,2.94,1.01,2.94,3.02v5.09c.06.57.61.76,1.23.84ZM24.86,98.95c1.54,0,3.27-.66,3.27-.66v-3.44l-3.1.32c-1.27.11-1.75.72-1.75,1.86,0,1.22.53,1.92,1.58,1.92Z"/><path class="uuid-4c3795ef-7d3d-4e8c-9163-aee0fed7e390" d="M32.19,86.43h1.12v1.42h-1.12v-1.42ZM33.32,90.23v9.5h-1.12v-9.5h1.12Z"/><path class="uuid-4c3795ef-7d3d-4e8c-9163-aee0fed7e390" d="M37.29,90.23v1.37s1.65-1.2,3.59-1.56v1.14c-1.82.38-3.59,1.42-3.59,1.42v7.12h-1.12v-9.5h1.12Z"/><path class="uuid-4c3795ef-7d3d-4e8c-9163-aee0fed7e390" d="M45.47,91.08c-1.18,0-2.24.32-2.24,1.61,0,.99.47,1.27,2.55,1.62,2.43.4,3.34.84,3.34,2.66,0,2.22-1.39,2.95-3.67,2.95-1.16,0-3.25-.34-3.25-.34l.08-1.01s2.13.32,3.1.32c1.63,0,2.58-.38,2.58-1.86,0-1.14-.57-1.39-2.7-1.71-2.18-.34-3.19-.74-3.19-2.58,0-2.07,1.71-2.68,3.36-2.68,1.42,0,3.36.32,3.36.32l-.04,1.01s-2.03-.3-3.29-.3Z"/><path class="uuid-4c3795ef-7d3d-4e8c-9163-aee0fed7e390" d="M28.82,0C16.19,0,5.96,10.28,5.96,22.95s10.23,22.95,22.85,22.95,22.86-10.28,22.86-22.95S41.44,0,28.82,0ZM42.01,33.39h-9.88v-9.01h-8.46v-9.01h-8.05v-1.87h9.92v9.01h8.46v9.01h8.01v1.87Z"/></g></svg>