<?xml version="1.0" encoding="UTF-8"?><svg id="uuid-e1c100a9-69aa-41a8-a118-9f71e398b1bc" xmlns="http://www.w3.org/2000/svg" viewBox="0 0 116.53 106.49"><defs><style>.uuid-288b0453-bfd1-455e-bb0c-12b19eba89a5{fill:#222221;}</style></defs><g id="uuid-4a382b3f-4505-4ed6-9be2-b7616b21ffa5"><path class="uuid-288b0453-bfd1-455e-bb0c-12b19eba89a5" d="M10.35,68.68c0,1.65-.55,2.45-1.62,2.98,1.14.42,1.98,1.22,1.98,3.06,0,2.72-1.6,3.69-4.1,3.69H1.56v-13.09h4.86c2.56,0,3.93.99,3.93,3.36ZM6.44,71.02c1.46,0,2.09-.72,2.09-2.15s-.72-2-2.2-2h-2.98v4.14h3.1ZM6.54,76.85c1.44,0,2.36-.47,2.36-2.22s-1.41-2.09-2.43-2.09h-3.12v4.31h3.19Z"/><path class="uuid-288b0453-bfd1-455e-bb0c-12b19eba89a5" d="M14.72,67.03h-1.75v-1.92h1.75v1.92ZM12.98,68.91h1.75v9.5h-1.75v-9.5Z"/><path class="uuid-288b0453-bfd1-455e-bb0c-12b19eba89a5" d="M20.75,77.06c.53,0,1.63-.09,1.63-.09l.1,1.42s-1.27.23-1.94.23c-2.05,0-2.72-.78-2.72-3.51v-4.69h-1.29v-1.5h1.29v-2.83h1.73v2.83h2.81v1.5h-2.81v4.35c0,1.75.09,2.3,1.2,2.3Z"/><path class="uuid-288b0453-bfd1-455e-bb0c-12b19eba89a5" d="M27.49,77.06c.53,0,1.63-.09,1.63-.09l.1,1.42s-1.27.23-1.94.23c-2.05,0-2.72-.78-2.72-3.51v-4.69h-1.29v-1.5h1.29v-2.83h1.73v2.83h2.81v1.5h-2.81v4.35c0,1.75.09,2.3,1.2,2.3Z"/><path class="uuid-288b0453-bfd1-455e-bb0c-12b19eba89a5" d="M38,76.91l.04,1.33s-2.17.38-3.78.38c-2.83,0-3.86-1.6-3.86-4.88,0-3.55,1.54-5.04,4.05-5.04s3.91,1.37,3.91,4.41l-.11,1.27h-6.08c.02,1.79.61,2.7,2.34,2.7,1.46,0,3.5-.17,3.5-.17ZM36.63,73.01c0-2.13-.65-2.85-2.18-2.85s-2.28.8-2.3,2.85h4.48Z"/><path class="uuid-288b0453-bfd1-455e-bb0c-12b19eba89a5" d="M52.12,77.25l-.06,1.37c-1.08,0-1.77-.17-2.39-.74,0,0-1.62.74-3.25.74-1.8,0-2.75-1.03-2.75-2.98s1.03-2.66,3.02-2.83l2.72-.25v-.76c0-1.18-.51-1.58-1.54-1.58-1.31,0-3.59.21-3.59.21l-.06-1.27s2.07-.46,3.76-.46c2.24,0,3.17.99,3.17,3.1v4.6c.04.57.38.78.97.85ZM46.74,77.16c1.24,0,2.66-.49,2.66-.49v-2.83l-2.51.23c-1.01.1-1.46.59-1.46,1.54s.42,1.56,1.31,1.56Z"/><path class="uuid-288b0453-bfd1-455e-bb0c-12b19eba89a5" d="M55.57,68.91v.63s1.46-.84,2.79-.84c2.62,0,3.25,1.41,3.25,4.65v5.05h-1.73v-5.02c0-2.2-.27-3.13-1.88-3.13-1.23,0-2.41.61-2.41.61v7.54h-1.75v-9.5h1.73Z"/><path class="uuid-288b0453-bfd1-455e-bb0c-12b19eba89a5" d="M64.56,70.41h-1.14v-1.5h1.14v-.74c0-2.74.7-3.51,2.62-3.51.65,0,1.99.17,1.99.17l-.02,1.42s-1.01-.04-1.58-.04c-.97,0-1.27.44-1.27,1.98v.72h2.62v1.5h-2.62v8h-1.75v-8Z"/><path class="uuid-288b0453-bfd1-455e-bb0c-12b19eba89a5" d="M78.43,77.25l-.06,1.37c-1.08,0-1.77-.17-2.39-.74,0,0-1.62.74-3.25.74-1.8,0-2.75-1.03-2.75-2.98s1.03-2.66,3.02-2.83l2.72-.25v-.76c0-1.18-.51-1.58-1.54-1.58-1.31,0-3.59.21-3.59.21l-.06-1.27s2.07-.46,3.76-.46c2.24,0,3.17.99,3.17,3.1v4.6c.04.57.38.78.97.85ZM73.05,77.16c1.24,0,2.66-.49,2.66-.49v-2.83l-2.51.23c-1.01.1-1.46.59-1.46,1.54s.42,1.56,1.31,1.56Z"/><path class="uuid-288b0453-bfd1-455e-bb0c-12b19eba89a5" d="M83.26,70.28c-1.16,0-1.86.29-1.86,1.24,0,.76.44.97,2.37,1.31,2.32.4,3.17.91,3.17,2.79,0,2.22-1.41,3-3.72,3-1.25,0-3.42-.4-3.42-.4l.08-1.48s2.22.3,3.19.3c1.46,0,2.15-.3,2.15-1.37,0-.84-.42-1.06-2.39-1.37-2.11-.34-3.15-.78-3.15-2.74,0-2.11,1.67-2.85,3.48-2.85,1.41,0,3.51.38,3.51.38l-.04,1.48s-2.18-.3-3.36-.3Z"/><path class="uuid-288b0453-bfd1-455e-bb0c-12b19eba89a5" d="M92.13,70.28c-1.16,0-1.86.29-1.86,1.24,0,.76.44.97,2.37,1.31,2.32.4,3.17.91,3.17,2.79,0,2.22-1.41,3-3.72,3-1.25,0-3.42-.4-3.42-.4l.08-1.48s2.22.3,3.19.3c1.46,0,2.15-.3,2.15-1.37,0-.84-.42-1.06-2.39-1.37-2.11-.34-3.15-.78-3.15-2.74,0-2.11,1.67-2.85,3.48-2.85,1.41,0,3.51.38,3.51.38l-.04,1.48s-2.18-.3-3.36-.3Z"/><path class="uuid-288b0453-bfd1-455e-bb0c-12b19eba89a5" d="M105.07,76.91l.04,1.33s-2.17.38-3.78.38c-2.83,0-3.86-1.6-3.86-4.88,0-3.55,1.54-5.04,4.05-5.04s3.91,1.37,3.91,4.41l-.11,1.27h-6.08c.02,1.79.61,2.7,2.34,2.7,1.46,0,3.5-.17,3.5-.17ZM103.7,73.01c0-2.13-.65-2.85-2.18-2.85s-2.28.8-2.3,2.85h4.48Z"/><path class="uuid-288b0453-bfd1-455e-bb0c-12b19eba89a5" d="M109.27,68.91v.63s1.46-.84,2.79-.84c2.62,0,3.25,1.41,3.25,4.65v5.05h-1.73v-5.02c0-2.2-.27-3.13-1.88-3.13-1.23,0-2.41.61-2.41.61v7.54h-1.75v-9.5h1.73Z"/><path class="uuid-288b0453-bfd1-455e-bb0c-12b19eba89a5" d="M10.08,101.21h-1.18v-13.2h4.83c2.83,0,4.1,1.37,4.1,4.18s-1.27,4.43-4.1,4.43h-3.65v4.6ZM13.73,95.57c2.05,0,2.89-1.23,2.89-3.38s-.84-3.13-2.89-3.13h-3.65v6.52h3.65Z"/><path class="uuid-288b0453-bfd1-455e-bb0c-12b19eba89a5" d="M21.17,87.49v13.72h-1.12v-13.72h1.12Z"/><path class="uuid-288b0453-bfd1-455e-bb0c-12b19eba89a5" d="M31,100.2l.04.93s-2.15.27-3.63.27c-2.83-.02-3.69-1.73-3.69-4.9,0-3.67,1.6-4.98,3.91-4.98,2.45,0,3.74,1.31,3.74,4.5l-.04.91h-6.46c0,2.24.65,3.44,2.64,3.44,1.39,0,3.48-.17,3.48-.17ZM30.24,95.98c0-2.56-.82-3.48-2.6-3.48s-2.75.95-2.75,3.48h5.36Z"/><path class="uuid-288b0453-bfd1-455e-bb0c-12b19eba89a5" d="M41.49,100.47l-.06.91c-.93,0-1.63-.19-2.15-.76,0,0-1.79.78-3.57.78-1.67,0-2.6-.97-2.6-2.87,0-1.75.87-2.58,2.79-2.77l3.23-.32v-.89c0-1.44-.65-2-1.86-2-1.37,0-3.59.29-3.59.29l-.06-.91s2.09-.4,3.69-.4c2.07,0,2.94,1.01,2.94,3.02v5.09c.06.57.61.76,1.23.84ZM35.86,100.43c1.54,0,3.27-.66,3.27-.66v-3.44l-3.1.32c-1.27.11-1.75.72-1.75,1.86,0,1.22.53,1.92,1.58,1.92Z"/><path class="uuid-288b0453-bfd1-455e-bb0c-12b19eba89a5" d="M46.06,92.57c-1.18,0-2.24.32-2.24,1.61,0,.99.47,1.27,2.55,1.62,2.43.4,3.34.84,3.34,2.66,0,2.22-1.39,2.95-3.67,2.95-1.16,0-3.25-.34-3.25-.34l.08-1.01s2.13.32,3.1.32c1.63,0,2.58-.38,2.58-1.86,0-1.14-.57-1.39-2.7-1.71-2.18-.34-3.19-.74-3.19-2.58,0-2.07,1.71-2.68,3.36-2.68,1.42,0,3.36.32,3.36.32l-.04,1.01s-2.03-.3-3.29-.3Z"/><path class="uuid-288b0453-bfd1-455e-bb0c-12b19eba89a5" d="M58.87,100.2l.04.93s-2.15.27-3.63.27c-2.83-.02-3.69-1.73-3.69-4.9,0-3.67,1.6-4.98,3.91-4.98,2.45,0,3.74,1.31,3.74,4.5l-.04.91h-6.46c0,2.24.65,3.44,2.64,3.44,1.39,0,3.48-.17,3.48-.17ZM58.11,95.98c0-2.56-.82-3.48-2.6-3.48s-2.75.95-2.75,3.48h5.36Z"/><path class="uuid-288b0453-bfd1-455e-bb0c-12b19eba89a5" d="M68.92,100.39c.53,0,1.75-.13,1.75-.13l.08.97s-1.25.19-1.92.19c-1.88,0-2.56-.7-2.56-3.44v-5.26h-1.41v-1.01h1.41v-2.98h1.14v2.98h3.17v1.01h-3.17v4.69c0,2.38.15,2.98,1.52,2.98Z"/><path class="uuid-288b0453-bfd1-455e-bb0c-12b19eba89a5" d="M79.92,96.33c0,3.59-.8,5.07-3.97,5.07s-3.99-1.48-3.99-5.07c0-3.36,1.04-4.81,3.99-4.81s3.97,1.44,3.97,4.81ZM75.95,100.39c2.45,0,2.81-1.16,2.81-4.07s-.65-3.8-2.81-3.8-2.81.95-2.81,3.8.34,4.07,2.81,4.07Z"/><path class="uuid-288b0453-bfd1-455e-bb0c-12b19eba89a5" d="M89.5,101.21h-1.12v-.7s-1.46.89-2.93.89c-2.64,0-3.17-1.18-3.17-4.73v-4.96h1.12v4.94c0,2.83.29,3.72,2.19,3.72,1.5,0,2.79-.8,2.79-.8v-7.87h1.12v9.5Z"/><path class="uuid-288b0453-bfd1-455e-bb0c-12b19eba89a5" d="M98.35,91.77l-.06.97s-1.5-.19-2.22-.19c-2.28,0-2.94,1.01-2.94,3.74,0,2.98.46,4.08,2.94,4.08.72,0,2.26-.17,2.26-.17l.04.97s-1.69.23-2.51.23c-3.08,0-3.91-1.37-3.91-5.11,0-3.48,1.1-4.77,3.93-4.77.82,0,2.47.25,2.47.25Z"/><path class="uuid-288b0453-bfd1-455e-bb0c-12b19eba89a5" d="M100.58,87.49h1.12v4.77s1.6-.74,3.08-.74c2.6,0,3.17,1.22,3.17,4.69v5h-1.14v-4.94c0-2.79-.3-3.72-2.18-3.72-1.48,0-2.93.65-2.93.65v8.02h-1.12v-13.72Z"/><path class="uuid-288b0453-bfd1-455e-bb0c-12b19eba89a5" d="M54.64,0c4.24.73,3.57,3.61,3.81,7,.35-1.47.97-2.9,2.44-3.56,1.33-.62,3.98-.3,4.89,1.41,1.01,2.18.11,4.71.03,7.02.03,0,.07.02.1.03.66-1.73,2.08-3.28,4.06-2.62,1.27.35,2.06,1.35,2.22,2.72.04,3.88-1.02,7.7-1.51,11.55-.7,8.07,1.51,14.24-5.39,23.41-.37.49-1.75.36-1.75.36,0,0,2.32-4.13,3.37-6.2,2.35-4.47,1.5-9.77,1.65-14.64-.1-4.9,1.85-9.71,1.62-14.58-.1-.88-1.55-1.13-1.93-.32-.24.45-.48.91-.62,1.39-1.3,3.92-2.07,8.09-3.59,11.9-.27.3-.62.35-.99.19-.95-.37-.47-1.54-.46-2.31.57-5.23,1.36-10.45,1.74-15.71.07-1.41-.51-1.93-1.92-1.97-1.3-.06-1.92,1.32-2.05,2.42-.34,2.5-.67,5.01-1.01,7.52-.32,2.41-.65,4.81-.98,7.22-.08.57-.48.93-.98.92-.77.02-1.03-.86-.94-1.55,0-5.66,0-11.31-.01-16.97.27-1.77-1.29-3.33-3.03-2.45-.93.46-1.07,1.51-1.05,2.43,0,4.6-.01,9.21-.02,13.81-.2,1.11.56,4.57-.85,4.72-1.22.15-1.18-1.51-1.43-2.34-1.05-4.83-1.74-9.77-3-14.55-.73-2.1-3.84-1.3-3.75.73.64,5.85,1.75,11.65,2.51,17.49,0,1.17,1.43,5.68-1.1,4.52-1.64-1.42-3.72-6.12-5.84-6.05-1.71-.08-2.61,1.86-1.78,3.25,3.09,5.29,5.49,11.09,9.79,15.55,1.36,1.74,3.31,3.5,3.39,5.83l-1.81.14c-.68-2.95-3.36-4.72-5.05-7.05-3.23-4.22-5.5-9.07-8.08-13.7-.63-1.16-.66-2.4-.12-3.62.96-2.17,3.51-3.01,5.61-1.82,1.32.75,2.03,2.02,3,3.15-.58-5.62-1.61-11.19-2.42-16.79-.94-4.53,5.63-6.85,7.38-2.49.81,2.1.92,4.42,1.54,6.57.03,0,.07-.01.11-.02,0-2.61-.01-5.22.02-7.83-.12-2.33,1.89-4.26,4.21-4.15"/></g></svg>