<?xml version="1.0" encoding="UTF-8"?><svg id="uuid-f3511dfb-8b25-4fb1-94d4-4614b6bcba7c" xmlns="http://www.w3.org/2000/svg" viewBox="0 0 146.2 101.74"><defs><style>.uuid-cb4aae7e-6fd8-4e8a-ad21-274339edea5e{fill:#010101;}.uuid-2540f66a-a7c5-4f9c-ab73-b283dda58e4c{fill:#222221;}</style></defs><g id="uuid-898ed3ce-96ba-4ae1-b02d-5dee0ec1e861"><path class="uuid-2540f66a-a7c5-4f9c-ab73-b283dda58e4c" d="M6.17,73.87c-4.08,0-5.15-2.45-5.15-6.72s1.18-6.76,5.09-6.76c1.99,0,4.37.49,4.37.49l-.08,1.44s-2.32-.34-4.05-.34c-2.83,0-3.5,1.46-3.5,5.17s.61,5.15,3.46,5.15c.89,0,2.03-.15,2.39-.23v-3.61h-1.9v-1.58h3.67v6.54c-.29.06-2.81.46-4.31.46Z"/><path class="uuid-2540f66a-a7c5-4f9c-ab73-b283dda58e4c" d="M20.16,72.16l.04,1.33s-2.17.38-3.78.38c-2.83,0-3.86-1.6-3.86-4.88,0-3.55,1.54-5.04,4.05-5.04s3.91,1.37,3.91,4.41l-.11,1.27h-6.08c.02,1.79.61,2.7,2.34,2.7,1.46,0,3.5-.17,3.5-.17ZM18.79,68.27c0-2.13-.65-2.85-2.18-2.85s-2.28.8-2.3,2.85h4.48Z"/><path class="uuid-2540f66a-a7c5-4f9c-ab73-b283dda58e4c" d="M27.72,63.95v1.75c-1.77.36-3.34,1.16-3.34,1.16v6.8h-1.75v-9.5h1.73v1.22s1.63-1.1,3.36-1.42Z"/><path class="uuid-2540f66a-a7c5-4f9c-ab73-b283dda58e4c" d="M31.77,68.06l2.72-.25v-.76c0-1.18-.51-1.58-1.54-1.58-1.31,0-3.59.21-3.59.21l-.06-1.27s2.07-.46,3.76-.46c2.24,0,3.17.99,3.17,3.1v4.6c.04.57.38.78.97.85l-.06,1.37c-1.08,0-1.77-.17-2.39-.74,0,0-1.62.74-3.25.74-1.8,0-2.75-1.03-2.75-2.98s1.03-2.66,3.02-2.83ZM31.5,62h-1.67v-1.94h1.67v1.94ZM31.82,72.41c1.24,0,2.66-.49,2.66-.49v-2.83l-2.51.23c-1.01.1-1.46.59-1.46,1.54s.42,1.56,1.31,1.56ZM33.72,60.06h1.67v1.94h-1.67v-1.94Z"/><path class="uuid-2540f66a-a7c5-4f9c-ab73-b283dda58e4c" d="M42.33,72.31c.53,0,1.63-.09,1.63-.09l.1,1.42s-1.27.23-1.94.23c-2.05,0-2.72-.78-2.72-3.51v-4.69h-1.29v-1.5h1.29v-2.83h1.73v2.83h2.81v1.5h-2.81v4.35c0,1.75.09,2.3,1.2,2.3Z"/><path class="uuid-2540f66a-a7c5-4f9c-ab73-b283dda58e4c" d="M52.84,72.16l.04,1.33s-2.17.38-3.78.38c-2.83,0-3.86-1.6-3.86-4.88,0-3.55,1.54-5.04,4.05-5.04s3.91,1.37,3.91,4.41l-.11,1.27h-6.08c.02,1.79.61,2.7,2.34,2.7,1.46,0,3.5-.17,3.5-.17ZM51.47,68.27c0-2.13-.65-2.85-2.18-2.85s-2.28.8-2.3,2.85h4.48Z"/><path class="uuid-2540f66a-a7c5-4f9c-ab73-b283dda58e4c" d="M67.33,72.5l-.06,1.37c-1.08,0-1.77-.17-2.39-.74,0,0-1.62.74-3.25.74-1.8,0-2.75-1.03-2.75-2.98s1.03-2.66,3.02-2.83l2.72-.25v-.76c0-1.18-.51-1.58-1.54-1.58-1.31,0-3.59.21-3.59.21l-.06-1.27s2.07-.46,3.76-.46c2.24,0,3.17.99,3.17,3.1v4.6c.04.57.38.78.97.85ZM61.96,72.41c1.24,0,2.66-.49,2.66-.49v-2.83l-2.51.23c-1.01.1-1.46.59-1.46,1.54s.42,1.56,1.31,1.56Z"/><path class="uuid-2540f66a-a7c5-4f9c-ab73-b283dda58e4c" d="M76.95,68.76c0,3.86-1.12,5.11-4.56,5.11-1.06,0-3.33-.23-3.33-.23v-13.53h1.73v4.46s1.39-.63,2.58-.63c2.58,0,3.57,1.33,3.57,4.81ZM72.39,72.29c2.36,0,2.79-1.04,2.79-3.53,0-2.3-.53-3.25-1.99-3.25-1.16,0-2.39.47-2.39.47v6.23s1.14.08,1.6.08Z"/><path class="uuid-2540f66a-a7c5-4f9c-ab73-b283dda58e4c" d="M82.25,65.53c-1.16,0-1.86.29-1.86,1.24,0,.76.44.97,2.37,1.31,2.32.4,3.17.91,3.17,2.79,0,2.22-1.41,3-3.72,3-1.25,0-3.42-.4-3.42-.4l.08-1.48s2.22.3,3.19.3c1.46,0,2.15-.3,2.15-1.37,0-.84-.42-1.06-2.39-1.37-2.11-.34-3.15-.78-3.15-2.74,0-2.11,1.67-2.85,3.48-2.85,1.41,0,3.51.38,3.51.38l-.04,1.48s-2.18-.3-3.36-.3Z"/><path class="uuid-2540f66a-a7c5-4f9c-ab73-b283dda58e4c" d="M94.29,64.28l-.06,1.41s-1.52-.17-2.24-.17c-2.07,0-2.6.87-2.6,3.25,0,2.62.42,3.53,2.62,3.53.72,0,2.24-.15,2.24-.15l.06,1.41s-1.84.32-2.77.32c-2.96,0-3.91-1.42-3.91-5.11,0-3.42,1.12-4.81,3.95-4.81.95,0,2.72.32,2.72.32Z"/><path class="uuid-2540f66a-a7c5-4f9c-ab73-b283dda58e4c" d="M98.11,60.12v4.56s1.46-.72,2.77-.72c2.62,0,3.25,1.41,3.25,4.65v5.05h-1.75v-5.02c0-2.2-.27-3.13-1.86-3.13-1.2,0-2.41.49-2.41.49v7.66h-1.75v-13.54h1.75Z"/><path class="uuid-2540f66a-a7c5-4f9c-ab73-b283dda58e4c" d="M114.51,72.5l-.06,1.37c-1.08,0-1.77-.17-2.39-.74,0,0-1.62.74-3.25.74-1.8,0-2.75-1.03-2.75-2.98s1.03-2.66,3.02-2.83l2.72-.25v-.76c0-1.18-.51-1.58-1.54-1.58-1.31,0-3.59.21-3.59.21l-.06-1.27s2.07-.46,3.76-.46c2.24,0,3.17.99,3.17,3.1v4.6c.04.57.38.78.97.85ZM109.13,72.41c1.24,0,2.66-.49,2.66-.49v-2.83l-2.51.23c-1.01.1-1.46.59-1.46,1.54s.42,1.56,1.31,1.56Z"/><path class="uuid-2540f66a-a7c5-4f9c-ab73-b283dda58e4c" d="M118.1,73.66h-1.75v-13.54h1.75v13.54Z"/><path class="uuid-2540f66a-a7c5-4f9c-ab73-b283dda58e4c" d="M124.24,72.31c.53,0,1.63-.09,1.63-.09l.1,1.42s-1.27.23-1.94.23c-2.05,0-2.72-.78-2.72-3.51v-4.69h-1.29v-1.5h1.29v-2.83h1.73v2.83h2.81v1.5h-2.81v4.35c0,1.75.09,2.3,1.2,2.3Z"/><path class="uuid-2540f66a-a7c5-4f9c-ab73-b283dda58e4c" d="M134.74,72.16l.04,1.33s-2.17.38-3.78.38c-2.83,0-3.86-1.6-3.86-4.88,0-3.55,1.54-5.04,4.05-5.04s3.91,1.37,3.91,4.41l-.11,1.27h-6.08c.02,1.79.61,2.7,2.34,2.7,1.46,0,3.5-.17,3.5-.17ZM133.38,68.27c0-2.13-.65-2.85-2.18-2.85s-2.28.8-2.3,2.85h4.48Z"/><path class="uuid-2540f66a-a7c5-4f9c-ab73-b283dda58e4c" d="M138.94,64.16v.63s1.46-.84,2.79-.84c2.62,0,3.25,1.41,3.25,4.65v5.05h-1.73v-5.02c0-2.2-.27-3.13-1.88-3.13-1.23,0-2.41.61-2.41.61v7.54h-1.75v-9.5h1.73Z"/><path class="uuid-2540f66a-a7c5-4f9c-ab73-b283dda58e4c" d="M20.7,83.26v1.06h-4.14v12.14h-1.18v-12.14h-4.18v-1.06h9.5Z"/><path class="uuid-2540f66a-a7c5-4f9c-ab73-b283dda58e4c" d="M27.69,96.46h-1.12v-.7s-1.46.89-2.93.89c-2.64,0-3.17-1.18-3.17-4.73v-4.96h1.12v4.94c0,2.83.29,3.72,2.19,3.72,1.5,0,2.79-.8,2.79-.8v-7.87h1.12v9.5Z"/><path class="uuid-2540f66a-a7c5-4f9c-ab73-b283dda58e4c" d="M31.66,86.96v1.37s1.65-1.2,3.59-1.56v1.14c-1.82.38-3.59,1.42-3.59,1.42v7.12h-1.12v-9.5h1.12Z"/><path class="uuid-2540f66a-a7c5-4f9c-ab73-b283dda58e4c" d="M36.98,86.96h1.12v.7s1.6-.89,3.1-.89c2.6,0,3.17,1.22,3.17,4.69v5h-1.14v-4.94c0-2.79-.3-3.72-2.2-3.72-1.48,0-2.93.8-2.93.8v7.87h-1.12v-9.5Z"/><path class="uuid-2540f66a-a7c5-4f9c-ab73-b283dda58e4c" d="M58.85,91.58c0,3.59-.8,5.07-3.97,5.07s-3.99-1.48-3.99-5.07c0-3.36,1.04-4.81,3.99-4.81s3.97,1.44,3.97,4.81ZM54.88,95.64c2.45,0,2.81-1.16,2.81-4.07s-.65-3.8-2.81-3.8-2.81.95-2.81,3.8.34,4.07,2.81,4.07Z"/><path class="uuid-2540f66a-a7c5-4f9c-ab73-b283dda58e4c" d="M61.68,96.46v-8.49h-1.23v-1.01h1.23v-.97c0-2.74.68-3.44,2.51-3.44.65,0,1.84.1,1.84.1v.97s-1.12-.04-1.67-.04c-1.16,0-1.54.47-1.54,2.43v.95h2.87v1.01h-2.87v8.49h-1.14Z"/><path class="uuid-2540f66a-a7c5-4f9c-ab73-b283dda58e4c" d="M67.84,96.46v-8.49h-1.23v-1.01h1.23v-.97c0-2.74.68-3.44,2.51-3.44.65,0,1.84.1,1.84.1v.97s-1.12-.04-1.67-.04c-1.16,0-1.54.47-1.54,2.43v.95h2.87v1.01h-2.87v8.49h-1.14Z"/><path class="uuid-2540f66a-a7c5-4f9c-ab73-b283dda58e4c" d="M83.76,96.46v-.7s-1.5.89-3.04.89-3.34-.53-3.34-4.83c0-3.32,1.01-5.05,3.99-5.05.84,0,2.03.19,2.39.25v-4.27h1.14v13.72h-1.14ZM80.83,95.62c1.44,0,2.93-.82,2.93-.82v-6.8c-.38-.06-1.6-.23-2.36-.23-2.26,0-2.85,1.44-2.85,4.05,0,3.36,1.18,3.8,2.28,3.8Z"/><path class="uuid-2540f66a-a7c5-4f9c-ab73-b283dda58e4c" d="M94.59,95.45l.04.93s-2.15.27-3.63.27c-2.83-.02-3.69-1.73-3.69-4.9,0-3.67,1.6-4.98,3.91-4.98,2.45,0,3.74,1.31,3.74,4.5l-.04.91h-6.46c0,2.24.65,3.44,2.64,3.44,1.39,0,3.48-.17,3.48-.17ZM93.83,91.24c0-2.56-.82-3.48-2.6-3.48s-2.75.95-2.75,3.48h5.36Z"/><path class="uuid-2540f66a-a7c5-4f9c-ab73-b283dda58e4c" d="M99.87,95.47h.76l2.47-8.51h1.18l-2.77,9.5h-2.49l-2.77-9.5h1.25l2.38,8.51Z"/><path class="uuid-2540f66a-a7c5-4f9c-ab73-b283dda58e4c" d="M106.22,83.16h1.12v1.42h-1.12v-1.42ZM107.34,86.96v9.5h-1.12v-9.5h1.12Z"/><path class="uuid-2540f66a-a7c5-4f9c-ab73-b283dda58e4c" d="M116.19,87.02l-.06.97s-1.5-.19-2.22-.19c-2.28,0-2.94,1.01-2.94,3.74,0,2.98.46,4.08,2.94,4.08.72,0,2.26-.17,2.26-.17l.04.97s-1.69.23-2.51.23c-3.08,0-3.91-1.37-3.91-5.11,0-3.48,1.1-4.77,3.93-4.77.82,0,2.47.25,2.47.25Z"/><path class="uuid-2540f66a-a7c5-4f9c-ab73-b283dda58e4c" d="M125.14,95.45l.04.93s-2.15.27-3.63.27c-2.83-.02-3.69-1.73-3.69-4.9,0-3.67,1.6-4.98,3.91-4.98,2.45,0,3.74,1.31,3.74,4.5l-.04.91h-6.46c0,2.24.65,3.44,2.64,3.44,1.39,0,3.48-.17,3.48-.17ZM124.38,91.24c0-2.56-.82-3.48-2.6-3.48s-2.75.95-2.75,3.48h5.36Z"/><path class="uuid-2540f66a-a7c5-4f9c-ab73-b283dda58e4c" d="M130.73,87.82c-1.18,0-2.24.32-2.24,1.61,0,.99.47,1.27,2.55,1.62,2.43.4,3.34.84,3.34,2.66,0,2.22-1.39,2.95-3.67,2.95-1.16,0-3.25-.34-3.25-.34l.08-1.01s2.13.32,3.1.32c1.63,0,2.58-.38,2.58-1.86,0-1.14-.57-1.39-2.7-1.71-2.18-.34-3.19-.74-3.19-2.58,0-2.07,1.71-2.68,3.36-2.68,1.42,0,3.36.32,3.36.32l-.04,1.01s-2.03-.3-3.29-.3Z"/><path class="uuid-cb4aae7e-6fd8-4e8a-ad21-274339edea5e" d="M46.15,21.77s.01,0,.02,0c10.87-2.72,21.83-5.56,32.73-8.47h0c.6-.16,1.21-.32,1.81-.48h0c5.47-1.47,10.92-2.95,16.33-4.45h0s0,0,.01,0c3.06-.85,6.12-1.7,9.15-2.55l-.34-.84v-.02s-.35-.86-.35-.86c-6.32,1.56-12.69,3.17-19.08,4.8h0c-.6.15-1.2.31-1.8.46h0c-1.32.34-2.63.68-3.95,1.02h0s-.03,0-.04.01c-10.92,2.83-21.86,5.76-32.64,8.74h0c-.05.01-.1.03-.15.04-.55.15-1.1.3-1.64.45-.01,0-.02,0-.03,0h0c-2.67.74-5.34,1.48-7.99,2.23.17.43.52,1.29.69,1.72,2.42-.6,4.85-1.2,7.28-1.81h0Z"/><path class="uuid-cb4aae7e-6fd8-4e8a-ad21-274339edea5e" d="M48.13,1.81h30.59l.14,8c.6-.16,1.2-.31,1.81-.47l-.14-8.44-.91-.9h-32.38l-.91.9-.15,17.68c.6-.17,1.21-.33,1.82-.5l.13-16.27Z"/><path class="uuid-cb4aae7e-6fd8-4e8a-ad21-274339edea5e" d="M77.05,26.47v-1.17c-9.15-.14-18.4-.14-27.55,0v1.17c1.99.04,4.87.06,6.89.08,6.85.04,13.81.04,20.67-.08Z"/><path class="uuid-cb4aae7e-6fd8-4e8a-ad21-274339edea5e" d="M48.44,27.7v1.17c9.53.14,20.13.14,29.66,0v-1.17c-2.14-.04-5.24-.06-7.42-.08-6.86-.03-15.42-.03-22.24.08Z"/><path class="uuid-cb4aae7e-6fd8-4e8a-ad21-274339edea5e" d="M80.71,13.82c-.6.16-1.21.32-1.81.48l.08,7.39c-6.97,0-20.28,0-28.5,0-1.49.38-2.97.75-4.46,1.12l-3.08,9.59.9,1.29c1.4.08,5.43.31,6.75.38,2.05,0,10.67.05,12.89.06,2.26,0,10.77-.05,12.88-.06,1.33-.07,5.38-.3,6.75-.38l.9-1.29-3.2-9.96-.09-8.62ZM78.13,31.94c-3.22.19-11.32,0-14.66.03-2.25.01-10.72.05-12.83.05-1.25-.06-4.15-.2-5.43-.26l2.51-8.25c7.85,0,23.65,0,31.5,0l2.51,8.25-3.6.17Z"/><path class="uuid-cb4aae7e-6fd8-4e8a-ad21-274339edea5e" d="M97.04,11v.56s0,0,0,0l.02,9.87-.96.7c-2.82.04-5.77.04-8.76,0l-.97-.7.05-9.14c-.59.16-1.18.32-1.77.48l.02,9.1.23.55,1.61,1.33.43.17.69.04c.9.02,2.03.04,2.93.04.35,0,.71,0,1.07,0,1.21,0,2.46-.01,3.63-.04h.38c.28-.02.58-.02.8-.03l.42-.13,1.6-1.26.29-.52v-13.1c-.56.16-1.12.31-1.69.47v1.62Z"/><path class="uuid-cb4aae7e-6fd8-4e8a-ad21-274339edea5e" d="M86.44,7.86l.03-5.86h4.39c-.18.01-.37.01-.54.02l-.33.02v1.42l.33.02c.41.02.84.04,1.31.04s.95-.01,1.45-.04l.33-.02v-1.42l-.33-.02c-.17,0-.32,0-.48-.01h4.43s0,3.16,0,3.16c.56-.14,1.13-.28,1.69-.42V.94l-.68-.82h-.16c-4.89-.07-8.81-.06-12.34.02h-.14s-.78.78-.78.78l.02,7.4c.6-.16,1.2-.31,1.81-.47Z"/></g></svg>