<?xml version="1.0" encoding="UTF-8"?><svg id="uuid-05d3feb5-44b2-426d-ae8a-030732473623" xmlns="http://www.w3.org/2000/svg" xmlns:xlink="http://www.w3.org/1999/xlink" viewBox="0 0 83.98 97.02"><defs><style>.uuid-6aae2e81-f760-4bd0-b7e0-4539e094166b{fill:none;}.uuid-c47bac3a-6981-46f6-8a8a-bafd3ccc3bef{clip-path:url(#uuid-3195ef4f-16c7-4caf-9b13-2ab57804bead);}.uuid-f5fe900d-0f0c-4504-b7ed-b264c1b100a7{fill:#222221;}</style><clipPath id="uuid-3195ef4f-16c7-4caf-9b13-2ab57804bead"><rect class="uuid-6aae2e81-f760-4bd0-b7e0-4539e094166b" x="9.26" y="0" width="65.3" height="38.39"/></clipPath></defs><g id="uuid-c66d34ec-7aef-48e3-939a-1eda48244787"><g class="uuid-c47bac3a-6981-46f6-8a8a-bafd3ccc3bef"><path class="uuid-f5fe900d-0f0c-4504-b7ed-b264c1b100a7" d="M74.52,34.2c-1.8-7.54-10.08-10.15-16.34-13.02-3.72-1.63-11.3-4.99-14.99-6.64l2.82-4.96c.59-1.07,1.33-2.18,1.41-3.44.43-3.31-2.55-6.43-5.89-6.12-3.72.18-6.27,4.35-4.6,7.72l1.49-.63c-.21-.53-.28-1.12-.25-1.69h0c.11-1.97,1.99-3.65,3.98-3.43,2.68.16,4.26,3.34,2.79,5.58-1.22,2.29-2.57,4.69-3.86,6.94l.43,1.3c7.26,3.38,16.54,7.27,23.65,10.88,3.04,1.58,5.8,3.73,6.95,7.03.09.26.22.51.27.79.1.62-.26,1.29-.82,1.55-.19.09-.39.14-.61.14h-9.77c-14.62-.03-33.94.04-48.49.04-.98-.07-1.66-1.19-1.26-2.09.57-1.58,1.39-3.05,2.6-4.23,2.55-2.42,5.87-3.87,8.99-5.46,3.9-1.9,11.73-5.76,15.62-7.68l-.71-1.48c-3.93,1.85-11.82,5.57-15.74,7.44-4.89,2.37-10.67,4.85-12.57,10.42-1.16,2.47.68,5.28,3.42,5.16,8,.02,22.61.03,30.74.05,0,0,17.41,0,17.41,0h8.7s1.11,0,1.11,0c2.13,0,3.91-2.09,3.53-4.19"/></g><path class="uuid-f5fe900d-0f0c-4504-b7ed-b264c1b100a7" d="M6.17,69.15c-4.08,0-5.15-2.45-5.15-6.72s1.18-6.76,5.09-6.76c1.99,0,4.37.49,4.37.49l-.08,1.44s-2.32-.34-4.05-.34c-2.83,0-3.5,1.46-3.5,5.17s.61,5.15,3.46,5.15c.89,0,2.03-.15,2.39-.23v-3.61h-1.9v-1.58h3.67v6.54c-.29.06-2.81.46-4.31.46Z"/><path class="uuid-f5fe900d-0f0c-4504-b7ed-b264c1b100a7" d="M20.84,67.78l-.06,1.37c-1.08,0-1.77-.17-2.39-.74,0,0-1.62.74-3.25.74-1.8,0-2.75-1.03-2.75-2.98s1.03-2.66,3.02-2.83l2.72-.25v-.76c0-1.18-.51-1.58-1.54-1.58-1.31,0-3.59.21-3.59.21l-.06-1.27s2.07-.46,3.76-.46c2.24,0,3.17.99,3.17,3.1v4.6c.04.57.38.78.97.85ZM15.46,67.68c1.24,0,2.66-.49,2.66-.49v-2.83l-2.51.23c-1.01.1-1.46.59-1.46,1.54s.42,1.56,1.31,1.56Z"/><path class="uuid-f5fe900d-0f0c-4504-b7ed-b264c1b100a7" d="M27.66,59.23v1.75c-1.77.36-3.34,1.16-3.34,1.16v6.8h-1.75v-9.5h1.73v1.22s1.63-1.1,3.36-1.42Z"/><path class="uuid-f5fe900d-0f0c-4504-b7ed-b264c1b100a7" d="M32.2,69.15c-2.15,0-3.5-1.03-3.5-4.92,0-3.38,1.16-5,3.95-5,.8,0,2.05.21,2.26.25v-4.08h1.73v13.54h-1.73v-.57s-1.42.78-2.72.78ZM32.45,67.57c1.22,0,2.47-.59,2.47-.59v-6.02c-.21-.04-1.35-.21-2.15-.21-1.69,0-2.3,1.16-2.3,3.48,0,2.75.84,3.34,1.98,3.34Z"/><path class="uuid-f5fe900d-0f0c-4504-b7ed-b264c1b100a7" d="M46.45,67.44l.04,1.33s-2.17.38-3.78.38c-2.83,0-3.86-1.6-3.86-4.88,0-3.55,1.54-5.04,4.05-5.04s3.91,1.37,3.91,4.41l-.11,1.27h-6.08c.02,1.79.61,2.7,2.34,2.7,1.46,0,3.5-.17,3.5-.17ZM45.08,63.54c0-2.13-.65-2.85-2.18-2.85s-2.28.8-2.3,2.85h4.48Z"/><path class="uuid-f5fe900d-0f0c-4504-b7ed-b264c1b100a7" d="M54.02,59.23v1.75c-1.77.36-3.34,1.16-3.34,1.16v6.8h-1.75v-9.5h1.73v1.22s1.63-1.1,3.36-1.42Z"/><path class="uuid-f5fe900d-0f0c-4504-b7ed-b264c1b100a7" d="M63.38,64.09c0,3.31-.91,5.05-4.14,5.05s-4.16-1.75-4.16-5.05,1.06-4.86,4.16-4.86,4.14,1.69,4.14,4.86ZM59.24,67.65c2.01,0,2.38-1.1,2.38-3.55s-.53-3.36-2.38-3.36-2.38.95-2.38,3.36.36,3.55,2.38,3.55Z"/><path class="uuid-f5fe900d-0f0c-4504-b7ed-b264c1b100a7" d="M73.45,64.04c0,3.86-1.12,5.11-4.56,5.11-1.06,0-3.33-.23-3.33-.23v-13.53h1.73v4.46s1.39-.63,2.58-.63c2.58,0,3.57,1.33,3.57,4.81ZM68.89,67.57c2.36,0,2.79-1.04,2.79-3.53,0-2.3-.53-3.25-1.99-3.25-1.16,0-2.39.47-2.39.47v6.23s1.14.08,1.6.08Z"/><path class="uuid-f5fe900d-0f0c-4504-b7ed-b264c1b100a7" d="M82.82,67.44l.04,1.33s-2.17.38-3.78.38c-2.83,0-3.86-1.6-3.86-4.88,0-3.55,1.54-5.04,4.05-5.04s3.91,1.37,3.91,4.41l-.11,1.27h-6.08c.02,1.79.61,2.7,2.34,2.7,1.46,0,3.5-.17,3.5-.17ZM81.45,63.54c0-2.13-.65-2.85-2.18-2.85s-2.28.8-2.3,2.85h4.48Z"/><path class="uuid-f5fe900d-0f0c-4504-b7ed-b264c1b100a7" d="M7.43,90.69h.63l2.77-12.01h1.39l2.75,12.01h.63l2.39-12.16h1.2l-2.72,13.2h-2.36l-2.6-11.59-2.6,11.59h-2.36l-2.72-13.2h1.2l2.39,12.16Z"/><path class="uuid-f5fe900d-0f0c-4504-b7ed-b264c1b100a7" d="M28.73,91l-.06.91c-.93,0-1.63-.19-2.15-.76,0,0-1.79.78-3.57.78-1.67,0-2.6-.97-2.6-2.87,0-1.75.87-2.58,2.79-2.77l3.23-.32v-.89c0-1.44-.65-2-1.86-2-1.37,0-3.59.29-3.59.29l-.06-.91s2.09-.4,3.69-.4c2.07,0,2.94,1.01,2.94,3.02v5.09c.06.57.61.76,1.23.84ZM23.1,90.96c1.54,0,3.27-.66,3.27-.66v-3.44l-3.1.32c-1.27.11-1.75.72-1.75,1.86,0,1.22.53,1.92,1.58,1.92Z"/><path class="uuid-f5fe900d-0f0c-4504-b7ed-b264c1b100a7" d="M31.56,82.24v1.37s1.65-1.2,3.59-1.56v1.14c-1.82.38-3.59,1.42-3.59,1.42v7.12h-1.12v-9.5h1.12Z"/><path class="uuid-f5fe900d-0f0c-4504-b7ed-b264c1b100a7" d="M42.54,91.74v-.7s-1.5.89-3.04.89-3.34-.53-3.34-4.83c0-3.32,1.01-5.05,3.99-5.05.84,0,2.03.19,2.39.25v-4.27h1.14v13.72h-1.14ZM39.61,90.9c1.44,0,2.93-.82,2.93-.82v-6.8c-.38-.06-1.6-.23-2.36-.23-2.26,0-2.85,1.44-2.85,4.05,0,3.36,1.18,3.8,2.28,3.8Z"/><path class="uuid-f5fe900d-0f0c-4504-b7ed-b264c1b100a7" d="M47.63,82.24v1.37s1.65-1.2,3.59-1.56v1.14c-1.82.38-3.59,1.42-3.59,1.42v7.12h-1.12v-9.5h1.12Z"/><path class="uuid-f5fe900d-0f0c-4504-b7ed-b264c1b100a7" d="M60.27,86.86c0,3.59-.8,5.07-3.97,5.07s-3.99-1.48-3.99-5.07c0-3.36,1.04-4.81,3.99-4.81s3.97,1.44,3.97,4.81ZM56.3,90.92c2.45,0,2.81-1.16,2.81-4.07s-.65-3.8-2.81-3.8-2.81.95-2.81,3.8.34,4.07,2.81,4.07Z"/><path class="uuid-f5fe900d-0f0c-4504-b7ed-b264c1b100a7" d="M70.18,86.84c0,3.69-.95,5.09-4.45,5.09-1.2,0-3.04-.19-3.04-.19v-13.72h1.14v4.73s1.48-.7,2.96-.7c2.58,0,3.38,1.42,3.38,4.79ZM65.74,90.9c2.81,0,3.27-1.25,3.27-4.07,0-2.58-.47-3.76-2.3-3.76-1.46,0-2.87.65-2.87.65v7.07s1.33.11,1.9.11Z"/><path class="uuid-f5fe900d-0f0c-4504-b7ed-b264c1b100a7" d="M79.48,90.73l.04.93s-2.15.27-3.63.27c-2.83-.02-3.69-1.73-3.69-4.9,0-3.67,1.6-4.98,3.91-4.98,2.45,0,3.74,1.31,3.74,4.5l-.04.91h-6.46c0,2.24.65,3.44,2.64,3.44,1.39,0,3.48-.17,3.48-.17ZM78.71,86.51c0-2.56-.82-3.48-2.6-3.48s-2.75.95-2.75,3.48h5.36Z"/></g></svg>