<?xml version="1.0" encoding="UTF-8"?><svg id="uuid-92b7e3e4-1b44-4a53-821b-b91d76c47000" xmlns="http://www.w3.org/2000/svg" viewBox="0 0 124.09 59.32"><defs><style>.uuid-f0f0f1de-cdff-47f7-b96a-0c15744f8bb6{fill:#222221;}</style></defs><g id="uuid-18224f40-6a45-4957-9d94-ac7d8f0e3b11"><path class="uuid-f0f0f1de-cdff-47f7-b96a-0c15744f8bb6" d="M91.24,19.46s0,0,0,0c0,0,0,0,0,0Z"/><path class="uuid-f0f0f1de-cdff-47f7-b96a-0c15744f8bb6" d="M109.95,42.31l-.78-.99c-2.98-1.1-6.08-1.87-9.17-2.54-1.02-1.47-2.33-2.72-3.85-3.67-.19-2.04-.35-4.18-1.08-6.12-.65-1.87-2.59-3.09-2.93-4.89,0,0,0,0,0,0,.09-1.88,1.51-3.75,1.4-5.78.17-3.9-4.13-6.57-7.51-4.51-2.5,1.59-2.85,5.06-1.73,7.58.14.39.24.8.29,1.22.25,1.94-.38,4.29-.6,6.38-.21,1.82-.35,3.65-.31,5.49-12.17,6.07-8.11,24.4,5.67,24.59,6.34,0,11.63-4.58,12.73-10.6.24.01.48.03.72.04.54,3.58.91,7.21,1.21,10.82l2.02-.13c-.16-3.95-.46-8.09-.9-12.03,0,0-1.15-1.1-1.15-1.1l-1.69-.21c-.03-1.49-.31-2.92-.81-4.24,2.08.47,4.16,1.02,6.18,1.71.7,5.24,1.17,10.7,1.4,15.98l2.09-.09-.07-2.11c-.14-4.82-.59-9.98-1.13-14.79ZM87.92,15.23c1.18-.27,2.49.21,3.1,1.28,1.44,2.48-.97,4.95-.99,7.49-.04,2.64,2.72,4.13,3.24,6.52.25,1.11.39,2.27.48,3.43-2.35-.88-5.21-1.01-7.66-.36-.01-.46-.01-.92,0-1.39-.06-3.4.99-6.36.63-9.88-.09-.85-.44-1.67-.73-2.48-.53-1.72-.04-4.18,1.94-4.61ZM89.34,56.9c-5.94,0-10.78-4.84-10.78-10.78.59-14.3,20.97-14.3,21.56,0,0,5.94-4.84,10.78-10.78,10.78Z"/><path class="uuid-f0f0f1de-cdff-47f7-b96a-0c15744f8bb6" d="M45.77,12.54c-.7-.49-1.49-.6-2.26-.87-1.17-.39-.86-1.68-.51-2.59.45-1.26,1.02-2.57,1.02-4.02.09-2.66-1.92-5.07-4.67-5-4.57-.11-5.69,4.73-4.03,8.24.11.28.27.73.37,1.01.48,1.35.34,2.28-1.22,2.58-3.19.65-3.94,3.7-4.14,6.48-.51,4.52-.69,9.03-.52,13.58l.9,1.09c.61.14,1.23.29,1.86.38.66,8.26,1.41,17.54,2.16,25.68l2.01-.18c-.66-8.46-1.3-18.18-1.86-26.67l-1.26-1.12c-.48,0-.96-.09-1.44-.19-.17-4.45,0-8.96.56-13.37.08-.86.29-1.96.8-2.59.56-.82,1.59-.83,2.44-1.2.95-.36,1.89-1.29,2.1-2.35.64-2.64-1.9-4.94-1.09-7.53.46-2.11,4.07-2.14,4.62.03.49,1.48-.22,2.96-.74,4.4-.58,1.45-.77,3.38.46,4.6.63.64,1.33.93,2.14,1.15.63.13,1.23.41,1.59.9.51.63.71,1.71.79,2.58.55,4.42.73,8.91.58,13.36-.48.1-.96.18-1.43.19l-1.26,1.12c-.58,8.46-1.26,18.24-1.94,26.67l2.17.19c.72-8.12,1.45-17.44,2.09-25.68.63-.09,1.25-.23,1.86-.38l.9-1.09c.18-4.54,0-9.06-.5-13.57-.22-2.11-.51-4.56-2.51-5.84Z"/><path class="uuid-f0f0f1de-cdff-47f7-b96a-0c15744f8bb6" d="M14.69,12.05c-.32-.07-.61-.19-.85-.36-.99-.74-.48-2.25-.03-3.23.46-1.06.96-2.23.97-3.5C14.89,2.39,12.78-.08,10.15,0c-2.71-.1-4.85,2.5-4.66,5.11.04,1.76,1.01,3.09,1.41,4.68.3,1.2-.3,2.05-1.44,2.22-2.94.81-3.89,4.02-4.3,6.68C.42,22.68-.05,26.72,0,30.77l.92,1.12c.35.08.78.18,1.2.27-.14,4.03-.28,8.09.03,12.11l.93,1.07,2.18.49c.39,4.04.88,9.34,1.29,13.11l1.84-.17c-.28-4.06-.59-9.89-.83-14.01l-.93-1.08-2.13-.48c-.24-4.01-.06-8.06.05-12.08l-.98-1.11c-.32-.06-.74-.15-1.15-.25,0-3.56.38-7.14.99-10.65.33-1.82.67-4.39,2.72-4.99,0,0,0,0,0,0,2.68-.51,3.66-3.38,2.64-5.73-.43-1.15-1.13-2.32-1.14-3.49-.12-3.52,4.88-3.92,5.09-.2.07,2.59-2.45,4.33-1.1,7.43.4.8,1.12,1.39,1.94,1.71.65.22,1.3.32,1.79.86.85.87,1.23,2.08,1.44,3.33.73,3.86,1.16,7.79,1.12,11.72-.42.09-.84.19-1.16.25l-.98,1.25c.18,3.96.28,7.98.05,11.94l-2.13.48-.93,1.08c-.22,4.02-.54,10.06-.8,14.02l1.79.16c.41-3.7.92-9.12,1.31-13.11l2.18-.49.93-1.07c.29-4.02.2-8.08.04-12.11.42-.09.83-.19,1.19-.27l.92-1.12c-.1-5.2-.54-10.43-2.08-15.42-.6-1.48-1.86-2.95-3.52-3.31ZM2.4,30.68h0s0,0,0,0Z"/><path class="uuid-f0f0f1de-cdff-47f7-b96a-0c15744f8bb6" d="M6.12,14.13s0,0,0,0c.01,0,0,0,0,0Z"/><path class="uuid-f0f0f1de-cdff-47f7-b96a-0c15744f8bb6" d="M71.52,10.94c-3.38,3.28-7.74,2.7-11.33.22l-1.5.42c-3.05,6.43-.9,18.55,7.32,19.01,8.37-.49,10.45-12.97,7.15-19.39l-1.64-.26ZM60.91,24.83c-.96-1.8-1.54-4.11-1.54-6.63,0-.42.02-.83.05-1.24,1.56,1.51,4.02,3.1,6.98,4.27-1.59,1.53-3.98,3.26-5.49,3.6ZM66.01,28.57c-1.47,0-2.82-.75-3.92-2.01,2.16-.81,4.86-2.94,6.41-4.61,1.12.33,2.29.59,3.49.77-1.08,3.46-3.35,5.85-5.98,5.85ZM72.45,20.76c-6.34-.85-11.37-4.42-12.61-6.38.08-.31.17-.62.27-.91,1.3.73,3.58,1.79,5.9,1.79,2.61,0,4.66-1.12,5.84-1.98.8,2.24,1.01,5.06.6,7.48Z"/><path class="uuid-f0f0f1de-cdff-47f7-b96a-0c15744f8bb6" d="M66.01,11.05c3.05,0,5.53-2.48,5.53-5.53-.26-7.31-10.79-7.31-11.05,0,0,3.05,2.48,5.53,5.53,5.53ZM66.01,2.01c4.64.15,4.64,6.88,0,7.03-4.64-.15-4.64-6.88,0-7.03Z"/><path class="uuid-f0f0f1de-cdff-47f7-b96a-0c15744f8bb6" d="M117.32,6.99c-.22-6.19,2.55-5.46,6.71-4.92l.06-1.5c-5.31-1.04-8.87-.83-8.64,6.42-.2,7.06,3.23,7.45,8.64,6.4l-.06-1.52c-4.22.53-6.94,1.2-6.71-4.88Z"/><polygon class="uuid-f0f0f1de-cdff-47f7-b96a-0c15744f8bb6" points="109.85 12.02 109.37 12.02 106.75 .39 104.63 .39 102.02 12.02 101.54 12.02 99.46 .31 97.55 .31 100.21 13.6 103.29 13.6 105.69 2.61 108.1 13.6 111.18 13.6 113.83 .31 111.94 .31 109.85 12.02"/></g></svg>