<?xml version="1.0" encoding="UTF-8"?><svg id="uuid-5240ac5b-9ed8-4573-8866-191f8b1dec25" xmlns="http://www.w3.org/2000/svg" viewBox="0 0 47.57 61.61"><defs><style>.uuid-cf0adc3f-ee02-4d79-b470-bd8328de36be{fill:#121212;}.uuid-d8826c72-6c83-4d15-a332-a74cf665cd68{fill:#222221;}</style></defs><g id="uuid-3346e751-0ef1-4df5-b3b5-ad567644144c"><path class="uuid-cf0adc3f-ee02-4d79-b470-bd8328de36be" d="M12.02,61.42c.68-8.43,1.36-18.21,1.94-26.67l1.26-1.12c.77-.01,1.56-.21,2.31-.39l-.9,1.09c.21-4.75.03-9.54-.56-14.26-.09-.87-.29-1.95-.79-2.58-.36-.5-.96-.78-1.59-.9-.8-.22-1.5-.51-2.13-1.15-1.23-1.22-1.04-3.15-.46-4.6.52-1.44,1.24-2.92.74-4.4-.54-2.17-4.16-2.14-4.62-.03-.81,2.59,1.73,4.88,1.09,7.53-.21,1.05-1.15,1.98-2.1,2.35-.85.36-1.87.38-2.44,1.2-.51.63-.71,1.73-.8,2.59-.59,4.71-.76,9.52-.54,14.26l-.9-1.09c.75.18,1.54.38,2.31.39l1.26,1.12c.56,8.5,1.2,18.21,1.86,26.67l-2.01.18c-.79-8.48-1.56-18.21-2.24-26.72l1.26,1.12c-1.03.02-2.05-.23-3.04-.46l-.9-1.09c-.16-4.55.02-9.05.52-13.58.2-2.79.95-5.83,4.14-6.48,1.56-.3,1.7-1.23,1.22-2.58-.1-.28-.26-.73-.37-1-1.66-3.51-.54-8.35,4.03-8.24,2.75-.07,4.76,2.34,4.67,5,0,1.45-.57,2.76-1.02,4.02-.35.91-.66,2.2.51,2.59.77.27,1.56.38,2.26.87,2,1.28,2.29,3.73,2.51,5.84.51,4.51.68,9.03.5,13.57l-.9,1.09c-.99.23-2.01.49-3.04.46l1.26-1.12c-.65,8.48-1.41,18.27-2.17,26.72l-2.16-.19Z"/><path class="uuid-d8826c72-6c83-4d15-a332-a74cf665cd68" d="M47.57,13.28l-.06-1.52c-4.22.53-6.94,1.2-6.71-4.88-.22-6.19,2.55-5.46,6.71-4.92l.06-1.5c-5.31-1.04-8.87-.83-8.64,6.42-.2,7.06,3.23,7.45,8.64,6.4M25.02,11.91L22.94.21h-1.91l2.66,13.29h3.09l2.39-10.99,2.41,10.99h3.09L37.31.21h-1.89l-2.08,11.71h-.48L30.23.28h-2.12l-2.6,11.63h-.48Z"/></g></svg>