<?xml version="1.0" encoding="UTF-8"?><svg id="uuid-82fd1e91-7865-4504-af33-fa69d566a857" xmlns="http://www.w3.org/2000/svg" viewBox="0 0 34.71 46.23"><defs><style>.uuid-50e142b4-374e-4492-b002-c06a4e83a844{fill:#222221;}</style></defs><g id="uuid-88cb55cd-f958-4ddd-ba9d-d89dfab75b53"><path class="uuid-50e142b4-374e-4492-b002-c06a4e83a844" d="M14.81,6.37s0,0,0,0c0,0,0,.04,0,0"/><path class="uuid-50e142b4-374e-4492-b002-c06a4e83a844" d="M15.69,10.75v-.02s0-.02,0,.02"/><path class="uuid-50e142b4-374e-4492-b002-c06a4e83a844" d="M34.64,44.01c-.14-4.82-.59-9.98-1.13-14.79l-.77-.99c-2.98-1.1-6.08-1.87-9.18-2.54-1.02-1.47-2.33-2.72-3.85-3.67-.19-2.04-.35-4.18-1.08-6.12-.65-1.87-2.59-3.09-2.93-4.89,0,0,0,0,0,0,0,0,0,.02,0,.03,0-.02,0-.03,0-.03.09-1.88,1.51-3.75,1.4-5.78.17-3.9-4.13-6.57-7.51-4.51-2.5,1.59-2.85,5.06-1.73,7.58.14.39.24.8.29,1.23.25,1.94-.38,4.29-.6,6.38-.21,1.82-.35,3.65-.32,5.49-12.17,6.07-8.11,24.4,5.67,24.59,6.34,0,11.63-4.58,12.73-10.6.24.01.48.03.72.04.54,3.58.91,7.21,1.21,10.82l2.02-.13c-.16-3.95-.46-8.08-.9-12.03,0,0-1.15-1.1-1.15-1.1l-1.69-.22c-.03-1.49-.31-2.91-.81-4.24,2.08.47,4.16,1.02,6.18,1.71.7,5.24,1.17,10.7,1.4,15.98l2.09-.09-.07-2.11ZM9.64,19.11c-.06-3.4.99-6.36.63-9.88-.09-.85-.44-1.67-.73-2.48-.53-1.72-.04-4.18,1.94-4.61,1.18-.27,2.49.21,3.1,1.28,1.44,2.48-.97,4.95-.99,7.49-.04,2.64,2.72,4.13,3.24,6.52.25,1.11.39,2.27.48,3.43-2.35-.88-5.21-1.01-7.66-.36-.01-.46-.01-.92,0-1.39M12.9,43.81c-5.95,0-10.78-4.84-10.78-10.78.59-14.3,20.97-14.3,21.56,0,0,5.94-4.84,10.78-10.78,10.78"/></g></svg>