<?xml version="1.0" encoding="UTF-8"?><svg id="uuid-36a5fca3-ad24-4973-b949-cd1f7cde7203" xmlns="http://www.w3.org/2000/svg" viewBox="0 0 50.44 85.92"><defs><style>.uuid-946e8598-327d-4d0e-88e1-7faf47fedb6e{fill:#222221;}</style></defs><g id="uuid-02558289-bf91-4848-8cda-f32f33f60540"><path class="uuid-946e8598-327d-4d0e-88e1-7faf47fedb6e" d="M22.6,0c-6.29.05-12.51,2.71-16.81,7.26l1.83,1.89C15.66,1,29.5.88,37.68,8.89l1.88-1.91C35.17,2.49,28.89-.07,22.6,0"/><path class="uuid-946e8598-327d-4d0e-88e1-7faf47fedb6e" d="M22.65,7.43c-4.34.02-8.64,1.88-11.55,5.06l1.79,1.85c5.24-5.2,14.28-5.29,19.63-.21l1.77-1.8c-2.96-3.14-7.29-4.94-11.64-4.9"/><path class="uuid-946e8598-327d-4d0e-88e1-7faf47fedb6e" d="M22.72,14.61c-2.4.03-4.89,1.12-6.43,2.93l1.67,1.81c2.62-2.39,6.84-2.41,9.51-.07l1.84-1.87c-1.59-1.78-4.16-2.86-6.58-2.8"/><path class="uuid-946e8598-327d-4d0e-88e1-7faf47fedb6e" d="M22.8,21.24c-.72,0-1.43.28-1.97.83l1.97,2.1,1.94-2.13c-.54-.53-1.24-.79-1.94-.79"/><path class="uuid-946e8598-327d-4d0e-88e1-7faf47fedb6e" d="M4.92,56.28l2.57-11.46h2.09l2.58,11.46h.47l2.05-11.53h1.86l-2.6,13.09h-3.04l-2.38-10.83-2.36,10.83h-3.04l-2.62-13.09h1.88l2.05,11.53h.47Z"/><path class="uuid-946e8598-327d-4d0e-88e1-7faf47fedb6e" d="M20.42,44.75v11.49h5.49v1.6h-7.28v-13.09h1.79Z"/><path class="uuid-946e8598-327d-4d0e-88e1-7faf47fedb6e" d="M37.09,57.84h-1.79l-.82-3.1h-5.32l-.82,3.1h-1.79l3.42-13.09h3.68l3.42,13.09ZM34.1,53.17l-1.79-6.9h-.97l-1.8,6.9h4.56Z"/><path class="uuid-946e8598-327d-4d0e-88e1-7faf47fedb6e" d="M46.78,56.26h.34v-11.51h1.77v13.09h-3.13l-4.58-11.51h-.32v11.51h-1.79v-13.09h3.21l4.5,11.51Z"/><path class="uuid-946e8598-327d-4d0e-88e1-7faf47fedb6e" d="M14.09,79.59h.63l2.77-12.01h1.39l2.75,12.01h.63l2.39-12.16h1.2l-2.72,13.2h-2.36l-2.6-11.59-2.6,11.59h-2.36l-2.72-13.2h1.2l2.39,12.16Z"/><path class="uuid-946e8598-327d-4d0e-88e1-7faf47fedb6e" d="M27.9,67.34h1.12v1.42h-1.12v-1.42ZM29.02,71.14v9.5h-1.12v-9.5h1.12Z"/><path class="uuid-946e8598-327d-4d0e-88e1-7faf47fedb6e" d="M32.25,80.64v-8.49h-1.23v-1.01h1.23v-.97c0-2.74.68-3.44,2.51-3.44.65,0,1.84.1,1.84.1v.97s-1.12-.04-1.67-.04c-1.16,0-1.54.47-1.54,2.43v.95h2.87v1.01h-2.87v8.49h-1.14Z"/><path class="uuid-946e8598-327d-4d0e-88e1-7faf47fedb6e" d="M38.03,67.34h1.12v1.42h-1.12v-1.42ZM39.15,71.14v9.5h-1.12v-9.5h1.12Z"/></g></svg>