<?xml version="1.0" encoding="UTF-8"?><svg id="uuid-19e6aeb6-9ed6-4e75-9284-88ac362a5e3c" xmlns="http://www.w3.org/2000/svg" viewBox="0 0 128.38 102.92"><defs><style>.uuid-756781ae-4aaa-4db8-b8e3-b7ca1ba786bd{font-family:Goetheanum-Text-Englisch, 'Goetheanum Text';}.uuid-d322a944-1bf1-4072-9c6e-2dee0464e2a9{fill:#010101;}.uuid-edaf7d3b-4f22-4e3b-b7be-97798ef0285e{fill:#222221;font-size:19px;}.uuid-f3a50839-96ac-4aa2-9c2e-8c4e0195034c{font-family:Goetheanum-Text-Deutsch, 'Goetheanum Text';}.uuid-5951c8c9-31db-4a62-bdc3-55dff1660600{letter-spacing:-.02em;}.uuid-1b3e09b4-b6d0-4665-8d7d-c3fd5bacd62a{letter-spacing:-.02em;}</style></defs><g id="uuid-d3bf7f1d-7ab8-4cda-ab66-3de17caa4015"><text class="uuid-edaf7d3b-4f22-4e3b-b7be-97798ef0285e" transform="translate(0 74.84)"><tspan class="uuid-f3a50839-96ac-4aa2-9c2e-8c4e0195034c"><tspan x="0" y="0">Draussen</tspan><tspan class="uuid-5951c8c9-31db-4a62-bdc3-55dff1660600" x="76.4" y="0"> </tspan><tspan x="80.2" y="0">Essen</tspan></tspan><tspan class="uuid-756781ae-4aaa-4db8-b8e3-b7ca1ba786bd"><tspan x="19.57" y="22.8">Eat</tspan><tspan class="uuid-1b3e09b4-b6d0-4665-8d7d-c3fd5bacd62a" x="46.13" y="22.8"> </tspan><tspan x="49.93" y="22.8">outside</tspan></tspan></text><path class="uuid-d322a944-1bf1-4072-9c6e-2dee0464e2a9" d="M87.95,14.65c-17.67,5.37-35.82,11.27-53.27,17.33l.55,1.68c17.68-5.36,35.83-11.28,53.27-17.33l-.55-1.68Z"/><path class="uuid-d322a944-1bf1-4072-9c6e-2dee0464e2a9" d="M44.36,27.57c.11-.04.35-.12.47-.16l-.87-6.99h14.76s-.31,2.48-.31,2.48c.04-.01,1.57-.51,1.66-.54l.29-2.63-.77-.86h-16.52s-.78.86-.78.86l.91,8.23,1.15-.39Z"/><path class="uuid-d322a944-1bf1-4072-9c6e-2dee0464e2a9" d="M57.26,32.27c-.26,2.12-.93,7.49-1.19,9.53-.07.62-.65,1.12-1.27,1.1-1.36-.01-2.71-.02-4.07,0h-2.03c-.17,0-.6.02-.76.02-.63.04-1.23-.44-1.32-1.06-.37-2.95-.9-7.27-1.26-10.23-.51.16-1.17.37-1.68.52.21,1.94.65,5.87.86,7.82.03.25.23,2.16.28,2.36.28,1.44,1.66,2.53,3.12,2.49.16,0,.6,0,.76,0,0,0,2.03.01,2.03.01,2.64-.11,6.67.84,7.19-2.8.47-4.3,1.17-10.64,1.64-14.95l-1.74.56-.57,4.62Z"/><path class="uuid-d322a944-1bf1-4072-9c6e-2dee0464e2a9" d="M61.83,13.94c.32,1.44,1.58,2.61,3.02,2.87l.04,3.99c.58-.19,1.44-.47,2-.65l.03-3.34c2.21-.35,3.43-2.63,3.2-4.72,0-.36-.05-2.35-.06-2.75-.06-2.58-.11-6.26-.26-8.8h-.9c-.15,2.54-.19,6.23-.26,8.8l-.05,2.2c0,1.08.02,2.39-.86,3.12l-.21-14.12h-1.05s-.31,14.73-.31,14.73c-.2.02-.39.02-.59,0l-.31-14.73h-1.05s-.21,14.11-.21,14.11c-.86-.74-.83-2.03-.84-3.1,0,0-.05-2.2-.05-2.2-.06-2.59-.11-6.25-.26-8.8h-.9c-.15,2.54-.2,6.23-.26,8.8.02,1.38-.22,3.24.1,4.59Z"/><polygon class="uuid-d322a944-1bf1-4072-9c6e-2dee0464e2a9" points="65.11 44.44 66.68 44.44 66.85 24.71 64.93 25.34 65.11 44.44"/><path class="uuid-d322a944-1bf1-4072-9c6e-2dee0464e2a9" d="M73.61,14.31c.13-2.64.31-5.29.76-7.89.24-1.67.87-3.39,2.27-4.41-.12,4.72-.19,10.38-.23,15.12.82-.26,1.33-.42,2.03-.64-.04-5.05-.12-10.75-.26-15.78l-.97-.72c-2.79.97-4.14,3.85-4.49,6.61-.67,3.97-.86,7.99-.98,12,.59-.19,1.18-.37,1.75-.56.02-1.25.06-2.5.12-3.74Z"/><path class="uuid-d322a944-1bf1-4072-9c6e-2dee0464e2a9" d="M76.52,21.5l-.14.05c0,1.07,0,2.15,0,3.22-.69-.14-1.64-.2-2.24-.42-.75-.35-.67-1.13-.67-1.83-.58.2-1.2.4-1.79.59-.11,1.46.97,2.9,2.43,3.16.71.14,1.58.29,2.29.43.07,4.59.19,13.49.25,18.19h1.56c.07-7.32.3-16.81.26-24.04-.63.21-1.28.43-1.94.65Z"/></g></svg>