<?xml version="1.0" encoding="UTF-8"?><svg id="uuid-198947a8-d20f-419e-8cf1-e09d4bf805b0" xmlns="http://www.w3.org/2000/svg" viewBox="0 0 126.02 92.1"><defs><style>.uuid-9dbc5dc6-8b32-45df-8d78-638a18397bbd{font-family:Goetheanum-Text-Englisch, 'Goetheanum Text';}.uuid-2319becb-327d-4f71-8aca-fea9baa08b83{font-size:19px;}.uuid-2319becb-327d-4f71-8aca-fea9baa08b83,.uuid-5c316ba7-2dae-4e19-834d-06a1a5e3cf9d{fill:#222221;}.uuid-be8ab9f9-c0bd-4644-a6fa-ff60120cdeb7{letter-spacing:0em;}.uuid-842a9185-55c0-43b4-ad09-332780a2467b{font-family:Goetheanum-Text-Deutsch, 'Goetheanum Text';}.uuid-a2e016f6-1ba1-4031-902e-32e066d67301{letter-spacing:-.02em;}.uuid-a7beb849-1646-4694-aedb-a5399b665fc0{letter-spacing:0em;}</style></defs><g id="uuid-44b22d22-9942-4b87-bd0b-29b629e95fab"><path class="uuid-5c316ba7-2dae-4e19-834d-06a1a5e3cf9d" d="M68.59,32.31c-.07-3.26-1.36-6.36-1.39-9.59l-1-1.1-10.37-1.16-1.09.58c-1.14,2.15-3.07,3.87-4.33,5.98-1.44,2.25-2.21,4.94-2.14,7.61l1.69.02c-.16-5.05,3.56-8.23,6.32-11.95l8.73,1.05c.53,3.66,1.98,7.14,1.91,10.89h1.7c.01-.78,0-1.55-.04-2.33Z"/><path class="uuid-5c316ba7-2dae-4e19-834d-06a1a5e3cf9d" d="M106.38,7.92c-1.41,0-2.54,1.2-2.45,2.61-8.69,2.73-18.49,4.42-27.39,1.58.25-.64.51-1.28.78-1.91,1.07-.28,2.59-.67,3.64-.95,2.17-.52,3.29-3.08,2.91-5.14l-.71-.69c-1.21-.3-2.43-.6-3.66-.84l-.81-1.41-.62-.49c-1.2-.35-2.5-.76-3.8-.67-.71.05-1.41.25-2.05.55-3.07,1.26-3.78,4.78-5.41,7.27-1.25,1.75-3.59,1.85-5.55,2.02-2.88.23-6.25.29-9.08.84-2.19.48-4.12,1.93-5.17,3.91-1.67,2.95-1.22,6.51-1.64,9.74-.08.54-.24,1.06-.39,1.59-.83,2.83-1.66,5.8-1.64,8.78l1.68.04c0-3.31,1.19-6.48,2.03-9.65.58-2.93.13-6.18,1.28-8.98.69-1.46,1.83-2.73,3.38-3.27.66-.25,1.39-.39,2.09-.47,1.36-.14,2.73-.24,4.11-.33,1.07-.04,3.99-.22,5.03-.32,1.66-.18,3.37-.56,4.67-1.71,1.92,1.35,4,2.47,6.22,3.32-.46,1.28-.91,2.57-1.23,3.9-.4,1.7-.64,3.44-.83,5.16-.43,4.06-.53,8.23-.51,12.32h1.69c.04-4.01.22-8.11.72-12.09.21-1.63.47-3.28.87-4.88.33-1.26.8-2.5,1.26-3.73,9.39,2.88,19.66.98,28.73-2.08,1.39,1.72,4.37.66,4.32-1.59,0-1.35-1.1-2.45-2.45-2.45ZM76.79,10.34h0s.01,0,.01,0h0ZM76.27,8.22s-.74.64-.75.64c-.34.84-.66,1.67-.97,2.51-1.97-.8-3.83-1.85-5.53-3.08.99-1.65,1.52-3.69,2.93-5.02.42-.4.96-.71,1.52-.92,1.18-.47,2.42-.1,3.61.23l.84,1.47.79.53c1.11.12,2.22.33,3.32.54-.13.79-.55,1.8-1.32,2.07,0,0-1.05.24-1.05.24-.72.17-2.63.6-3.37.77ZM106.38,11.11c-.97,0-.97-1.47,0-1.48.97,0,.97,1.47,0,1.48Z"/><text class="uuid-2319becb-327d-4f71-8aca-fea9baa08b83" transform="translate(0 64.02)"><tspan class="uuid-842a9185-55c0-43b4-ad09-332780a2467b"><tspan x="0" y="0">Hunde anleinen</tspan></tspan><tspan class="uuid-9dbc5dc6-8b32-45df-8d78-638a18397bbd"><tspan class="uuid-a7beb849-1646-4694-aedb-a5399b665fc0" x="18.4" y="22.8">L</tspan><tspan x="27.39" y="22.8">eash</tspan><tspan class="uuid-a2e016f6-1ba1-4031-902e-32e066d67301" x="65.39" y="22.8"> </tspan><tspan class="uuid-be8ab9f9-c0bd-4644-a6fa-ff60120cdeb7" x="69.19" y="22.8">dogs</tspan></tspan></text></g></svg>