<?xml version="1.0" encoding="UTF-8"?><svg id="uuid-74caf985-cdc1-45af-91bf-63ea3ef8ceec" xmlns="http://www.w3.org/2000/svg" viewBox="0 0 116.32 81.11"><defs><style>.uuid-5d20f8d1-b332-4306-a1ae-301192766a83{font-family:Goetheanum-Text-Englisch, 'Goetheanum Text';}.uuid-e9d9d241-0b71-43f7-9676-23a5bb7d92da{font-size:19px;}.uuid-e9d9d241-0b71-43f7-9676-23a5bb7d92da,.uuid-4c0735db-ee62-4987-ab59-c596065a5688{fill:#222221;}.uuid-f8c1613b-1614-441c-b264-6b3371d19a9b{font-family:Goetheanum-Text-Deutsch, 'Goetheanum Text';}.uuid-471c78f3-9bc6-4006-9364-169dc56c37d2{letter-spacing:-.01em;}.uuid-a6cadc65-7ada-4177-ad1b-f3539c6a0829{letter-spacing:0em;}</style></defs><g id="uuid-fb70627b-1de8-4af5-9e30-bbe170f5268e"><path class="uuid-4c0735db-ee62-4987-ab59-c596065a5688" d="M31.64,9.65c.07,4.78,4.24,9.06,9.06,8.97,4.58.1,8.63-3.8,9.03-8.2l15.06-.15.25,6.95h1.31l.25-6.97,3.16-.03.26,8.16h1.31l.26-8.18,3.16-.03.25,6.12h1.31l.25-6.14,3.63-.04v-1.6l-30.48-.3C49.32,3.65,45.04-.28,40.32.02c-4.93.12-8.96,4.76-8.68,9.63ZM33.76,9.32c-.09-3.67,2.98-7.08,6.65-7.22,4.04-.32,7.56,3.31,7.46,7.23h0s0,.02,0,.02v-.02c.1,3.72-3.21,7.35-7.11,7.22,0,0-.04,0,0,0h0c-3.8.05-7.09-3.43-7-7.23Z"/><text class="uuid-e9d9d241-0b71-43f7-9676-23a5bb7d92da" transform="translate(0 53.03)"><tspan class="uuid-f8c1613b-1614-441c-b264-6b3371d19a9b"><tspan x="0" y="0">Schliessfächer</tspan></tspan><tspan class="uuid-5d20f8d1-b332-4306-a1ae-301192766a83"><tspan class="uuid-a6cadc65-7ada-4177-ad1b-f3539c6a0829" x="27.8" y="22.8">L</tspan><tspan x="36.78" y="22.8">oc</tspan><tspan class="uuid-471c78f3-9bc6-4006-9364-169dc56c37d2" x="55.02" y="22.8">k</tspan><tspan x="63.69" y="22.8">ers</tspan></tspan></text></g></svg>