<?xml version="1.0" encoding="UTF-8"?><svg id="uuid-46d62d88-ee88-4d4d-a611-36bfa37b1f2e" xmlns="http://www.w3.org/2000/svg" viewBox="0 0 93.75 100.8"><defs><style>.uuid-c87ff7af-6b97-46c5-b3e8-279b9e9b5974{font-family:Goetheanum-Text-Englisch, 'Goetheanum Text';}.uuid-d90a1094-6f7c-49d5-bd60-92e65670226a{fill:#010101;}.uuid-132289c0-a515-40e1-ab74-6729d15c22c4{fill:#222221;font-size:19px;}.uuid-cc5101a9-2583-4d8a-b3e5-ed286e1e00cf{font-family:Goetheanum-Text-Deutsch, 'Goetheanum Text';}.uuid-b4451884-a454-4fab-a563-381f5bbb89ea{letter-spacing:-.02em;}.uuid-aec9dcd1-601e-49ca-b30c-186c5e32a113{letter-spacing:-.02em;}.uuid-4d3fcfbd-cc74-4f2e-9f8c-a694d45a1c8c{letter-spacing:-.02em;}.uuid-6c3acee3-fd19-4d45-bf17-098fc015b62d{letter-spacing:0em;}.uuid-aed3e642-0911-45b6-a256-ac7cf562874d{letter-spacing:0em;}</style></defs><g id="uuid-6389b5c7-0c59-4330-8fc9-b19cfa692191"><text class="uuid-132289c0-a515-40e1-ab74-6729d15c22c4" transform="translate(0 72.72)"><tspan class="uuid-cc5101a9-2583-4d8a-b3e5-ed286e1e00cf"><tspan class="uuid-4d3fcfbd-cc74-4f2e-9f8c-a694d45a1c8c" x="0" y="0">K</tspan><tspan x="10.64" y="0">eine</tspan><tspan class="uuid-b4451884-a454-4fab-a563-381f5bbb89ea" x="44.57" y="0"> </tspan><tspan class="uuid-aec9dcd1-601e-49ca-b30c-186c5e32a113" x="48.37" y="0">F</tspan><tspan class="uuid-aed3e642-0911-45b6-a256-ac7cf562874d" x="58.06" y="0">o</tspan><tspan x="68.08" y="0">tos</tspan></tspan><tspan class="uuid-c87ff7af-6b97-46c5-b3e8-279b9e9b5974"><tspan class="uuid-6c3acee3-fd19-4d45-bf17-098fc015b62d" x="5.74" y="22.8">N</tspan><tspan x="18.41" y="22.8">o ph</tspan><tspan class="uuid-6c3acee3-fd19-4d45-bf17-098fc015b62d" x="52.67" y="22.8">o</tspan><tspan x="62.58" y="22.8">tos</tspan></tspan></text><path class="uuid-d90a1094-6f7c-49d5-bd60-92e65670226a" d="M64.94,31.24c-2.9.1-7.46.3-10.39.44-2.59,0-7.06-.02-9.69-.02-2.64,0-7.09.02-9.69.02-2.94-.13-7.48-.33-10.39-.44v-3.42l-2.12.69v3.75l1,1.06c3.36.26,8.09.55,11.49.76,2.6.03,7.07.03,9.71.04,2.65,0,7.1-.01,9.71-.04,3.4-.21,8.11-.5,11.49-.76l1.01-1.06V14.07l-2.12.69v16.48Z"/><path class="uuid-d90a1094-6f7c-49d5-bd60-92e65670226a" d="M24.78,18.95V7.03l11.63-.61,1-.94.36-3.28c4.67-.08,9.51-.07,14.18,0l.36,3.28,1,.94,11.63.61v2.5l2.12-.69v-2.82l-1-1.06-11.74-.62-.36-3.3-1.05-.94C47.58-.03,42.14-.04,36.82.1l-1.05.94-.36,3.3-11.74.61-1,1.06v17.27l2.12-.69v-3.66Z"/><path class="uuid-d90a1094-6f7c-49d5-bd60-92e65670226a" d="M38.19,23.46c-.53.17-1.6.52-2.13.69,1.9,2.96,5.22,4.93,9,4.93,6.11.02,11.05-5.23,10.65-11.33-.53.17-1.6.52-2.13.69-.06,8.21-10.61,11.54-15.39,5.01Z"/><path class="uuid-d90a1094-6f7c-49d5-bd60-92e65670226a" d="M34.44,19.46c.52-.17,1.58-.52,2.11-.69-.21-4.82,3.69-8.89,8.52-8.88,2.95,0,5.56,1.51,7.09,3.8.52-.17,1.58-.51,2.11-.68-5.84-9.71-20.78-4.98-19.82,6.45Z"/><path class="uuid-d90a1094-6f7c-49d5-bd60-92e65670226a" d="M76.71,7.2c-21.21,6.44-43,13.53-63.95,20.81.16.5.49,1.51.66,2.02,21.22-6.44,43.01-13.54,63.95-20.81l-.66-2.02Z"/></g></svg>