<?xml version="1.0" encoding="UTF-8"?><svg id="uuid-db30bf9b-af64-4c29-971d-e62c0bfd763d" xmlns="http://www.w3.org/2000/svg" viewBox="0 0 107.65 89.25"><defs><style>.uuid-31ad57fe-5e8b-4178-8db7-fe54be1c4629{fill:none;}.uuid-c13aaa58-c016-4908-9049-fa26603aa2d4{font-family:Goetheanum-Text-Englisch, 'Goetheanum Text';}.uuid-142d2bb1-2bf4-4cd4-bc2c-436a5d4a2ad7{font-size:19px;}.uuid-142d2bb1-2bf4-4cd4-bc2c-436a5d4a2ad7,.uuid-8a056aa4-a5e8-42b8-9910-b9283c9acf89{fill:#222221;}.uuid-c0dd1fcf-356c-4d2c-8f20-d773bfa5e67a{letter-spacing:0em;}.uuid-b31eaa59-bedd-405a-87ea-a05574584fc1{font-family:Goetheanum-Text-Deutsch, 'Goetheanum Text';}.uuid-146e6154-f2ba-44ce-8ca1-ff8493ef8add{letter-spacing:-.02em;}.uuid-f42cfc3d-99d2-4024-9503-ec79db55d446{letter-spacing:-.01em;}.uuid-9f2b03a5-3efb-4729-b88a-a62761e71655{letter-spacing:-.01em;}</style></defs><g id="uuid-9ff9c3d6-a444-4429-866b-850aa6a03fbd"><path class="uuid-31ad57fe-5e8b-4178-8db7-fe54be1c4629" d="M47.16,16.92c-.03.41-.05.82-.05,1.24,0,2.52.58,4.83,1.54,6.63,1.51-.34,3.9-2.07,5.49-3.6-2.96-1.16-5.42-2.76-6.98-4.27Z"/><path class="uuid-31ad57fe-5e8b-4178-8db7-fe54be1c4629" d="M49.84,26.52c1.1,1.26,2.45,2.01,3.92,2.01,2.62,0,4.9-2.39,5.98-5.85-1.2-.17-2.37-.43-3.49-.77-1.54,1.67-4.25,3.8-6.41,4.61Z"/><path class="uuid-31ad57fe-5e8b-4178-8db7-fe54be1c4629" d="M53.76,9c4.64-.15,4.64-6.88,0-7.03-4.64.15-4.64,6.88,0,7.03Z"/><path class="uuid-31ad57fe-5e8b-4178-8db7-fe54be1c4629" d="M53.76,15.22c-2.32,0-4.61-1.06-5.9-1.79-.1.3-.19.6-.27.91,1.24,1.96,6.27,5.53,12.61,6.38.41-2.42.2-5.23-.6-7.48-1.18.86-3.22,1.98-5.84,1.98Z"/><path class="uuid-8a056aa4-a5e8-42b8-9910-b9283c9acf89" d="M60.91,11.15l-1.64-.26c-3.38,3.28-7.74,2.7-11.33.22l-1.5.42c-3.05,6.43-.9,18.55,7.33,19.01,8.37-.49,10.45-12.97,7.15-19.39ZM48.65,24.79c-.96-1.8-1.54-4.11-1.54-6.63,0-.42.02-.83.05-1.24,1.56,1.51,4.02,3.1,6.98,4.27-1.59,1.53-3.98,3.26-5.49,3.6ZM53.76,28.53c-1.47,0-2.82-.75-3.92-2.01,2.16-.8,4.86-2.94,6.41-4.61,1.12.33,2.29.59,3.49.77-1.08,3.46-3.35,5.85-5.98,5.85ZM60.2,20.71c-6.34-.85-11.37-4.41-12.61-6.38.08-.31.17-.62.27-.91,1.3.73,3.58,1.79,5.9,1.79,2.61,0,4.66-1.12,5.84-1.98.8,2.24,1.01,5.06.6,7.48Z"/><path class="uuid-8a056aa4-a5e8-42b8-9910-b9283c9acf89" d="M53.76,11.01c3.05,0,5.53-2.48,5.53-5.53-.26-7.31-10.79-7.31-11.05,0,0,3.05,2.48,5.53,5.53,5.53ZM53.76,1.97c4.64.15,4.64,6.88,0,7.03-4.64-.15-4.64-6.88,0-7.03Z"/><text class="uuid-142d2bb1-2bf4-4cd4-bc2c-436a5d4a2ad7" transform="translate(6.08 61.17)"><tspan class="uuid-b31eaa59-bedd-405a-87ea-a05574584fc1"><tspan x="0" y="0">Wic</tspan><tspan class="uuid-9f2b03a5-3efb-4729-b88a-a62761e71655" x="29.79" y="0">k</tspan><tspan x="38.85" y="0">elraum</tspan></tspan><tspan class="uuid-c13aaa58-c016-4908-9049-fa26603aa2d4"><tspan x="-6.08" y="22.8">Nursing</tspan><tspan class="uuid-146e6154-f2ba-44ce-8ca1-ff8493ef8add" x="55.69" y="22.8"> </tspan><tspan class="uuid-f42cfc3d-99d2-4024-9503-ec79db55d446" x="59.49" y="22.8">r</tspan><tspan class="uuid-c0dd1fcf-356c-4d2c-8f20-d773bfa5e67a" x="65.68" y="22.8">oom</tspan></tspan></text></g></svg>