<?xml version="1.0" encoding="UTF-8"?><svg id="uuid-e6f22a58-48ce-44e9-97d7-68e816242b3f" xmlns="http://www.w3.org/2000/svg" viewBox="0 0 67.71 115.82"><defs><style>.uuid-9efcacd2-4ce5-40e0-a8aa-7f8297f4e379,.uuid-ae36a5e0-74bb-4524-bc3a-198ff80dd2e5{fill:#3c3c3b;}.uuid-d05e82ff-5b28-46df-be95-a06911a2d692{font-family:Goetheanum-Titel-Englisch, 'Goetheanum Titel';font-style:italic;}.uuid-1373d6aa-b014-4a21-a94f-e0c5bf89df3f{font-family:GoetheanumTitel-Deutsch, 'Goetheanum Titel';}.uuid-060ddf72-cb9e-4eff-abe4-dcee19219e8b{letter-spacing:0em;}.uuid-811f39ac-6e87-455e-b587-b993ef9f4873{letter-spacing:0em;}.uuid-ae36a5e0-74bb-4524-bc3a-198ff80dd2e5{font-size:19px;}</style></defs><g id="uuid-ea9cc0c2-e326-432a-8e9c-3b489cae9047"><text class="uuid-ae36a5e0-74bb-4524-bc3a-198ff80dd2e5" transform="translate(0 87.77)"><tspan class="uuid-1373d6aa-b014-4a21-a94f-e0c5bf89df3f"><tspan x="0" y="0">Bioab</tspan><tspan class="uuid-060ddf72-cb9e-4eff-abe4-dcee19219e8b" x="43.45" y="0">f</tspan><tspan x="49.36" y="0">all</tspan></tspan><tspan class="uuid-d05e82ff-5b28-46df-be95-a06911a2d692"><tspan x="5.66" y="22.8">O</tspan><tspan class="uuid-811f39ac-6e87-455e-b587-b993ef9f4873" x="17.38" y="22.8">r</tspan><tspan x="23.14" y="22.8">ganic</tspan></tspan></text><path class="uuid-9efcacd2-4ce5-40e0-a8aa-7f8297f4e379" d="M53.87,48.85c.52.53.57,1.4.2,2.02-.71,1.57-1.54,3.07-2.59,4.45-5.87,7.63-9.97,2.79-17.43,3.51-2.62.03-4.82,1.35-7.44,1.66-1.74.09-3.45-.53-4.89-1.38-3.7-2.29-6.2-5.82-8.37-9.44-.29-.5-.12-1.15.38-1.44,6.9-1.73,9.06-10.2,7.99-16.5-1.83-4.98-7.42-7.33-11.98-9.35-.62-.21-.95-.9-.69-1.51,1.8-4.86,6.28-8.73,11.42-9.61,5.04-.96,10.18-.14,14.85,1.86,0,0-1.06.05-1.06.05,7.81-4.65,20.54-4.67,25.3,4.28.65,1.03.52,2.47-.61,3.11-1.29.66-2.35,1.32-3.46,2.1-11.33,7.94-10.02,16.53-1.62,26.21h0ZM52.59,50.04c-12-12.14-9.21-23.36,5.35-31.2.03-.02.04-.08.02-.11-.33-.69-.71-1.36-1.2-1.95-5.18-6.16-14.9-5.27-21.35-1.59-.33.19-.73.19-1.06.05-6.04-2.57-14.05-3.36-19.4,1.06-1.7,1.41-2.93,3.33-3.79,5.41l-.69-1.51c1.63.51,3.1,1.18,4.57,1.96,3.66,2.01,7.58,4.67,8.89,8.92,1.29,7.31-1.29,17.03-9.48,19.12,0,0,.75-1.58.75-1.57,2.28,4.14,7.14,11.27,12.55,9.7,3.83-1.72,8.37-2.26,12.48-1.19,1.92.43,3.64,1.15,5.51.52,3.14-1.01,5.22-4.22,6.57-7.15,0,0,.24-.52.24-.52,0,.02,0,.05.02.08h0Z"/><path class="uuid-9efcacd2-4ce5-40e0-a8aa-7f8297f4e379" d="M40.5,1.93c-2.3.42-3.81,2-4.29,4.27-.51,2.23-.33,4.72-.05,7.2l-2.74.24c-.15-2.68-.24-5.4.52-8.06C34.58,2.74,37.24.27,40.17,0c0,0,.33,1.93.33,1.93h0Z"/></g></svg>