<?xml version="1.0" encoding="UTF-8"?><svg id="uuid-329b650b-e8fe-4780-8026-4b2fd53afaf3" xmlns="http://www.w3.org/2000/svg" viewBox="0 0 116.53 106.49"><defs><style>.uuid-22246ac0-f701-41c0-8737-60e4fb70344c{font-family:Goetheanum-Text-Englisch, 'Goetheanum Text';}.uuid-267c30ef-e82d-4e12-bb00-319db79c01ee{font-size:19px;}.uuid-267c30ef-e82d-4e12-bb00-319db79c01ee,.uuid-baa1e600-3fa4-496d-a3a3-95b6c51960cc{fill:#222221;}.uuid-d2057426-d2b2-49df-ba67-6a8e461d706f{letter-spacing:0em;}.uuid-cbcfbb99-820f-4c48-b8dd-f115a8e1bc5d{font-family:Goetheanum-Text-Deutsch, 'Goetheanum Text';}.uuid-670e3fd3-ea1b-45c4-83f0-8bccbf06d556{letter-spacing:-.02em;}</style></defs><g id="uuid-41137633-60a5-4105-8d5a-49b6e8856009"><text class="uuid-267c30ef-e82d-4e12-bb00-319db79c01ee" transform="translate(0 78.41)"><tspan class="uuid-cbcfbb99-820f-4c48-b8dd-f115a8e1bc5d"><tspan x="0" y="0">Bitte</tspan><tspan class="uuid-670e3fd3-ea1b-45c4-83f0-8bccbf06d556" x="39.16" y="0"> </tspan><tspan class="uuid-d2057426-d2b2-49df-ba67-6a8e461d706f" x="42.96" y="0">anfassen</tspan></tspan><tspan class="uuid-22246ac0-f701-41c0-8737-60e4fb70344c"><tspan x="7.25" y="22.8">Please touch</tspan></tspan></text><path class="uuid-baa1e600-3fa4-496d-a3a3-95b6c51960cc" d="M54.64,0c4.24.73,3.57,3.61,3.81,7,.35-1.47.97-2.9,2.44-3.56,1.33-.62,3.98-.3,4.89,1.41,1.01,2.18.11,4.71.03,7.02.03,0,.07.02.1.03.66-1.73,2.08-3.28,4.06-2.62,1.27.35,2.06,1.35,2.22,2.72.04,3.88-1.02,7.7-1.51,11.55-.7,8.07,1.51,14.24-5.39,23.41-.37.49-1.75.36-1.75.36,0,0,2.32-4.13,3.37-6.2,2.35-4.47,1.5-9.77,1.65-14.64-.1-4.9,1.85-9.71,1.62-14.58-.1-.88-1.55-1.13-1.93-.32-.24.45-.48.91-.62,1.39-1.3,3.92-2.07,8.09-3.59,11.9-.27.3-.62.35-.99.19-.95-.37-.47-1.54-.46-2.31.57-5.23,1.36-10.45,1.74-15.71.07-1.41-.51-1.93-1.92-1.97-1.3-.06-1.92,1.32-2.05,2.42-.34,2.5-.67,5.01-1.01,7.52-.32,2.41-.65,4.81-.98,7.22-.08.57-.48.93-.98.92-.77.02-1.03-.86-.94-1.55,0-5.66,0-11.31-.01-16.97.27-1.77-1.29-3.33-3.03-2.45-.93.46-1.07,1.51-1.05,2.43,0,4.6-.01,9.21-.02,13.81-.2,1.11.56,4.57-.85,4.72-1.22.15-1.18-1.51-1.43-2.34-1.05-4.83-1.74-9.77-3-14.55-.73-2.1-3.84-1.3-3.75.73.64,5.85,1.75,11.65,2.51,17.49,0,1.17,1.43,5.68-1.1,4.52-1.64-1.42-3.72-6.12-5.84-6.05-1.71-.08-2.61,1.86-1.78,3.25,3.09,5.29,5.49,11.09,9.79,15.55,1.36,1.74,3.31,3.5,3.39,5.83l-1.81.14c-.68-2.95-3.36-4.72-5.05-7.05-3.23-4.22-5.5-9.07-8.08-13.7-.63-1.16-.66-2.4-.12-3.62.96-2.17,3.51-3.01,5.61-1.82,1.32.75,2.03,2.02,3,3.15-.58-5.62-1.61-11.19-2.42-16.79-.94-4.53,5.63-6.85,7.38-2.49.81,2.1.92,4.42,1.54,6.57.03,0,.07-.01.11-.02,0-2.61-.01-5.22.02-7.83-.12-2.33,1.89-4.26,4.21-4.15"/></g></svg>