<?xml version="1.0" encoding="UTF-8"?><svg id="uuid-9e163352-70fe-4d27-acd9-528b3728a63b" xmlns="http://www.w3.org/2000/svg" viewBox="0 0 46.95 54.74"><defs><style>.uuid-dbfaf301-a1cb-4d44-8c07-38db0ba4b2cb{fill:#222221;}</style></defs><g id="uuid-7ad76a7d-a6a8-43c7-9ae7-f9adacc3777f"><path class="uuid-dbfaf301-a1cb-4d44-8c07-38db0ba4b2cb" d="M14.81,14.87s0,0,0,0c0,0,0,.04,0,0"/><path class="uuid-dbfaf301-a1cb-4d44-8c07-38db0ba4b2cb" d="M15.69,19.25v-.02s0-.02,0,.02"/><path class="uuid-dbfaf301-a1cb-4d44-8c07-38db0ba4b2cb" d="M34.64,52.52c-.14-4.82-.59-9.98-1.13-14.79l-.77-.99c-2.98-1.1-6.08-1.87-9.18-2.54-1.02-1.47-2.33-2.72-3.85-3.67-.19-2.04-.35-4.18-1.08-6.12-.65-1.87-2.59-3.09-2.93-4.89,0,0,0,0,0,0,0,0,0,.02,0,.03,0-.02,0-.03,0-.03.09-1.88,1.51-3.75,1.4-5.78.17-3.9-4.13-6.57-7.51-4.51-2.5,1.59-2.85,5.06-1.73,7.58.14.39.24.8.29,1.23.25,1.94-.38,4.29-.6,6.38-.21,1.82-.35,3.65-.32,5.49-12.17,6.07-8.11,24.4,5.67,24.59,6.34,0,11.63-4.58,12.73-10.6.24.01.48.03.72.04.54,3.58.91,7.21,1.21,10.82l2.02-.13c-.16-3.95-.46-8.08-.9-12.03,0,0-1.15-1.1-1.15-1.1l-1.69-.22c-.03-1.49-.31-2.91-.81-4.24,2.08.47,4.16,1.02,6.18,1.71.7,5.24,1.17,10.7,1.4,15.98l2.09-.09-.07-2.11ZM9.64,27.61c-.06-3.4.99-6.36.63-9.88-.09-.85-.44-1.67-.73-2.48-.53-1.72-.04-4.18,1.94-4.61,1.18-.27,2.49.21,3.1,1.28,1.44,2.48-.97,4.95-.99,7.49-.04,2.64,2.72,4.13,3.24,6.52.25,1.11.39,2.27.48,3.43-2.35-.88-5.21-1.01-7.66-.36-.01-.46-.01-.92,0-1.39M12.9,52.31c-5.95,0-10.78-4.84-10.78-10.78.59-14.3,20.97-14.3,21.56,0,0,5.94-4.84,10.78-10.78,10.78"/><path class="uuid-dbfaf301-a1cb-4d44-8c07-38db0ba4b2cb" d="M46.95,13.28l-.06-1.52c-4.22.53-6.94,1.2-6.71-4.88-.22-6.19,2.55-5.46,6.71-4.92l.06-1.5c-5.31-1.04-8.87-.83-8.64,6.42-.2,7.06,3.23,7.45,8.64,6.4M24.4,11.91L22.32.21h-1.91l2.66,13.29h3.09l2.39-10.99,2.41,10.99h3.09L36.69.21h-1.89l-2.08,11.71h-.48L29.61.28h-2.12l-2.6,11.63h-.48Z"/></g></svg>