<?xml version="1.0" encoding="UTF-8"?>
<!-- source: compass-s-n.svg -->
<svg xmlns="http://www.w3.org/2000/svg" viewBox="0 0 1000 1000" width="1000" height="1000">
  <path d="M617.5212512750766 524.5358721523291 751.9109146548793 503.206392383543V496.3753825229513C751.9109146548793 496.3753825229513 617.5212512750766 475.7429445766746 617.5212512750766 475.7429445766746C606.0897653859232 418.7249234954097 555.7633458007481 375.50833049983 495.39952397143827 375.50833049983C435.03570214212857 375.50833049983 384.7092825569534 417.6096565793947 373.2777966678001 475.7429445766746L239.02754165249922 496.2359741584495V503.0669840190411C239.02754165249922 503.0669840190411 373.4172050323019 524.5358721523291 373.4172050323019 524.5358721523291C384.98809928595716 582.5297517851071 436.0115606936416 624.49166950017 495.5389323359401 624.49166950017C555.0663039782387 624.49166950017 606.229173750425 581.4144848690921 617.6606596395784 524.3964637878273L617.5212512750766 524.5358721523291ZM495.3995239714382 382.4787487249235C551.44168650119 382.4787487249235 598.4223053383203 421.9313158789527 610.1326079564774 474.48826929615774L495.9571574294458 456.9228153689221L380.6664399863992 474.48826929615774C392.5161509690582 420.9554573274396 440.1938116286977 382.3393403604216 495.39952397143827 382.3393403604216L495.3995239714382 382.4787487249235ZM262.0299217953077 499.8605916354981 495.3995239714382 464.0326419585175V537.2220333219993L262.0299217953077 499.8605916354981ZM380.80584835090104 525.790547432846 494.84189051343077 544.053043182591 609.9931995919756 525.651139068344C598.2828969738184 578.2080924855491 551.3022781366882 617.5212512750765 495.39952397143827 617.5212512750765C439.4967698061884 617.5212512750765 392.7949676980619 579.1839510370622 380.8058483509011 525.790547432846H380.80584835090104ZM892.2951377082625 539.1737504250254H890.0646038762326L856.0489629377763 445.49132947976875H825.7973478408704V554.6480788847331H843.502210132608V461.1050663039782H845.8721523291397L879.0513430805848 554.6480788847331H910.0V445.49132947976875H892.2951377082625V539.1737504250254ZM121.08806528391703 508.9221353281197C139.76878612716763 514.0802448146889 145.4845290717443 516.4501870112206 145.4845290717443 526.6269976198572C145.4845290717443 535.9673580414825 138.65351921115266 540.8466507990479 125.27031621897314 540.8466507990479C116.0693641618497 540.8466507990479 93.76402584155049 538.3373002380142 93.76402584155049 538.3373002380142L92.3699421965318 552.6963617817069C92.3699421965318 552.6963617817069 113.14178850731044 556.4603876232574 126.94321659299558 556.4603876232574C148.8303298197892 556.4603876232574 163.32879972798366 547.3988439306358 163.32879972798366 525.3723223393404C163.32879972798366 506.412784767086 153.15198911934715 499.3029581774906 129.59197551853111 493.1689901394083C112.86297177830669 489.1261475688541 107.98367902074123 486.059163549813 107.98367902074123 476.71880312818763C107.98367902074123 465.2873172390343 114.25705542332538 459.153349200952 127.77966678000679 459.153349200952C139.07174430465827 459.153349200952 160.54063243794627 462.0809248554913 160.54063243794627 462.0809248554913L162.21353281196872 447.86127167630053C162.21353281196872 447.86127167630053 140.74464467868071 443.5396123767426 126.52499149948997 443.5396123767426C105.05610336620197 443.5396123767426 90.0 453.855831349881 90.0 477.8340700442026C90.0 496.5147908874532 98.22509350561033 502.5093505610336 121.22747364841891 508.9221353281197H121.08806528391703Z" fill="#000000"/>
</svg>
