<?xml version="1.0" encoding="UTF-8"?>
<!-- source: eat-outside.svg -->
<svg xmlns="http://www.w3.org/2000/svg" viewBox="0 0 1000 1000" width="1000" height="1000">
  <path d="M152.87101910828025 625.1544585987261C152.87101910828025 650.8121019108281 146.6687898089172 669.1576433121019 120.03184713375796 669.1576433121019H90.0V583.6974522292993H120.03184713375796C146.21178343949043 583.6974522292993 152.87101910828028 599.6926751592356 152.87101910828028 625.154458598726L152.87101910828025 625.1544585987261ZM120.03184713375796 658.9076433121019C137.52866242038215 658.9076433121019 140.85828025477707 643.7611464968154 140.85828025477707 625.1544585987261C140.85828025477707 606.5477707006369 137.52866242038215 594.0127388535033 120.03184713375796 594.0127388535033H101.68630573248407V658.9076433121019H120.03184713375796ZM201.37898089171975 605.8296178343949V617.2547770700636C189.82324840764332 619.6050955414012 179.57324840764332 624.8280254777069 179.57324840764332 624.8280254777069V669.2229299363056H168.1480891719745V607.200636942675H179.44267515923568V615.1656050955413C179.44267515923568 615.1656050955413 190.08439490445858 607.984076433121 201.37898089171975 605.8296178343948V605.8296178343949ZM263.2707006369427 661.6496815286624 262.8789808917197 670.593949044586C255.828025477707 670.593949044586 251.32324840764332 669.4840764331211 247.2754777070064 665.7627388535033C247.2754777070064 665.7627388535033 236.69904458598725 670.593949044586 226.05732484076432 670.593949044586C214.30573248407643 670.593949044586 208.1035031847134 663.8694267515924 208.1035031847134 651.1385350318471C208.1035031847134 638.4076433121019 214.82802547770703 633.7722929936306 227.82006369426753 632.6624203821657L245.578025477707 631.0302547770701V626.0684713375796C245.578025477707 618.3646496815286 242.24840764331208 615.7531847133758 235.52388535031847 615.7531847133758C226.97133757961785 615.7531847133758 212.0859872611465 617.124203821656 212.0859872611465 617.124203821656L211.69426751592357 608.8328025477707C211.69426751592357 608.8328025477707 225.20859872611467 605.829617834395 236.2420382165605 605.829617834395C250.86624203821657 605.829617834395 256.937898089172 612.2929936305733 256.937898089172 626.0684713375796V656.1003184713376C257.1990445859873 659.8216560509553 259.4187898089172 661.1926751592356 263.2707006369427 661.6496815286623V661.6496815286624ZM228.1464968152866 660.9968152866242C236.24203821656047 660.9968152866242 245.51273885350318 657.797770700637 245.51273885350318 657.797770700637V639.3216560509554L229.12579617834393 640.8232484076434C222.53184713375794 641.4761146496816 219.59394904458597 644.6751592356688 219.59394904458597 650.877388535032C219.59394904458597 657.079617834395 222.33598726114647 661.0621019108281 228.14649681528658 661.0621019108281L228.1464968152866 660.9968152866242ZM312.75796178343944 669.2229299363057V665.109872611465C312.75796178343944 665.109872611465 303.55254777070064 670.593949044586 295.1305732484076 670.593949044586C277.63375796178343 670.593949044586 273.9124203821656 661.9108280254778 273.9124203821656 639.5828025477707V607.2006369426753H285.33757961783436V639.5828025477707C285.33757961783436 654.9904458598727 286.578025477707 660.2786624203823 297.08917197452223 660.2786624203823C305.3805732484076 660.2786624203823 312.6926751592356 656.4267515923567 312.6926751592356 656.4267515923567V607.2006369426751H323.98726114649673V669.2229299363057H312.6926751592356H312.75796178343944ZM361.3964968152866 616.1449044585987C353.8232484076433 616.1449044585987 349.25318471337584 618.0382165605096 349.25318471337584 624.1751592356687C349.25318471337584 629.1369426751593 352.125796178344 630.5079617834394 364.72611464968156 632.7277070063694C379.87261146496814 635.3391719745223 385.421974522293 638.6687898089172 385.421974522293 650.9426751592357C385.421974522293 665.4363057324841 376.21656050955414 670.5286624203821 361.1353503184713 670.5286624203821C352.9745222929936 670.5286624203821 338.8073248407643 667.9171974522293 338.8073248407643 667.9171974522293L339.32961783439487 658.2547770700636C339.32961783439487 658.2547770700636 353.8232484076433 660.2133757961783 360.156050955414 660.2133757961783C369.687898089172 660.2133757961783 374.1926751592356 658.2547770700636 374.1926751592356 651.2691082802547C374.1926751592356 645.7850318471336 371.45063694267515 644.3487261146496 358.5891719745223 642.324840764331C344.81369426751587 640.1050955414012 338.02388535031844 637.232484076433 338.02388535031844 624.436305732484C338.02388535031844 610.6608280254776 348.9267515923567 605.8296178343949 360.7436305732483 605.8296178343949C369.94904458598717 605.8296178343949 383.65923566878973 608.31050955414 383.65923566878973 608.31050955414L383.39808917197445 617.9729299363057C383.39808917197445 617.9729299363057 369.1656050955413 616.014331210191 361.46178343949043 616.014331210191L361.3964968152866 616.1449044585987ZM419.30573248407643 616.1449044585987C411.73248407643314 616.1449044585987 407.1624203821656 618.0382165605096 407.1624203821656 624.1751592356687C407.1624203821656 629.1369426751593 410.0350318471337 630.5079617834394 422.6353503184713 632.7277070063694C437.7818471337579 635.3391719745223 443.33121019108273 638.6687898089172 443.33121019108273 650.9426751592357C443.33121019108273 665.4363057324841 434.125796178344 670.5286624203821 419.04458598726114 670.5286624203821C410.88375796178343 670.5286624203821 396.71656050955414 667.9171974522293 396.71656050955414 667.9171974522293L397.2388535031847 658.2547770700636C397.2388535031847 658.2547770700636 411.732484076433 660.2133757961783 418.06528662420374 660.2133757961783C427.5971337579617 660.2133757961783 432.10191082802544 658.2547770700636 432.10191082802544 651.2691082802547C432.10191082802544 645.7850318471336 429.3598726114649 644.3487261146496 416.498407643312 642.324840764331C402.7229299363057 640.1050955414012 395.9331210191083 637.232484076433 395.9331210191083 624.436305732484C395.9331210191083 610.6608280254776 406.83598726114644 605.8296178343949 418.65286624203816 605.8296178343949C427.858280254777 605.8296178343949 441.5684713375796 608.31050955414 441.5684713375796 608.31050955414L441.3073248407643 617.9729299363057C441.3073248407643 617.9729299363057 427.07484076433116 616.014331210191 419.37101910828017 616.014331210191L419.30573248407643 616.1449044585987ZM503.7866242038216 659.3646496815286 504.047770700637 668.0477707006369C504.047770700637 668.0477707006369 489.8805732484076 670.5286624203821 479.3694267515923 670.5286624203821C460.89331210191085 670.5286624203821 454.16878980891715 660.0828025477707 454.16878980891715 638.6687898089172C454.16878980891715 615.4920382165604 464.2229299363057 605.764331210191 480.609872611465 605.764331210191C496.99681528662416 605.764331210191 506.13694267515916 614.7085987261146 506.13694267515916 634.5557324840763L505.41878980891715 642.8471337579616H465.7245222929936C465.8550955414013 654.5334394904457 469.7070063694267 660.4745222929935 481.00159235668787 660.4745222929935C490.53343949044586 660.4745222929935 503.85191082802544 659.3646496815286 503.85191082802544 659.3646496815286H503.7866242038216ZM494.842356687898 633.968152866242C494.842356687898 620.062101910828 490.5987261146497 615.3614649681529 480.609872611465 615.3614649681529C470.6210191082803 615.3614649681529 465.7245222929936 620.5843949044586 465.593949044586 633.968152866242H494.84235668789813H494.842356687898ZM531.2070063694267 607.2006369426751V611.3136942675159C531.2070063694267 611.3136942675159 540.7388535031846 605.8296178343949 549.421974522293 605.8296178343949C566.5270700636943 605.8296178343949 570.640127388535 615.0350318471337 570.640127388535 636.187898089172V669.1576433121019H559.3455414012739V636.3837579617834C559.3455414012739 622.0207006369427 557.5828025477707 615.9490445859873 547.0716560509554 615.9490445859873C538.9761146496816 615.9490445859873 531.3375796178344 619.9315286624204 531.3375796178344 619.9315286624204V669.157643312102H519.9124203821657V607.1353503184714H531.2070063694268L531.2070063694267 607.2006369426751ZM666.5461783439491 594.0127388535032H625.21974522293V620.78025477707H659.1035031847134V630.9649681528663H625.21974522293V658.842356687898H666.5461783439491V669.1576433121019H613.5987261146497V583.6974522292993H666.5461783439491V594.0127388535032ZM700.7563694267516 616.1449044585987C693.1831210191083 616.1449044585987 688.6130573248407 618.0382165605096 688.6130573248407 624.1751592356687C688.6130573248407 629.1369426751593 691.4856687898089 630.5079617834394 704.0859872611466 632.7277070063694C719.2324840764331 635.3391719745223 724.781847133758 638.6687898089172 724.781847133758 650.9426751592357C724.781847133758 665.4363057324841 715.5764331210191 670.5286624203821 700.4952229299364 670.5286624203821C692.3343949044587 670.5286624203821 678.1671974522293 667.9171974522293 678.1671974522293 667.9171974522293L678.6894904458599 658.2547770700636C678.6894904458599 658.2547770700636 693.1831210191083 660.2133757961783 699.515923566879 660.2133757961783C709.0477707006369 660.2133757961783 713.5525477707007 658.2547770700636 713.5525477707007 651.2691082802547C713.5525477707007 645.7850318471336 710.8105095541401 644.3487261146496 697.9490445859873 642.324840764331C684.173566878981 640.1050955414012 677.3837579617834 637.232484076433 677.3837579617834 624.436305732484C677.3837579617834 610.6608280254776 688.2866242038217 605.8296178343949 700.1035031847134 605.8296178343949C709.3089171974523 605.8296178343949 723.0191082802548 608.31050955414 723.0191082802548 608.31050955414L722.7579617834396 617.9729299363057C722.7579617834396 617.9729299363057 708.5254777070063 616.014331210191 700.8216560509554 616.014331210191L700.7563694267516 616.1449044585987ZM758.6656050955414 616.1449044585987C751.0923566878981 616.1449044585987 746.5222929936306 618.0382165605096 746.5222929936306 624.1751592356687C746.5222929936306 629.1369426751593 749.3949044585987 630.5079617834394 761.9952229299364 632.7277070063694C777.141719745223 635.3391719745223 782.6910828025478 638.6687898089172 782.6910828025478 650.9426751592357C782.6910828025478 665.4363057324841 773.485668789809 670.5286624203821 758.4044585987261 670.5286624203821C750.2436305732484 670.5286624203821 736.0764331210191 667.9171974522293 736.0764331210191 667.9171974522293L736.5987261146497 658.2547770700636C736.5987261146497 658.2547770700636 751.0923566878981 660.2133757961783 757.4251592356688 660.2133757961783C766.9570063694267 660.2133757961783 771.4617834394905 658.2547770700636 771.4617834394905 651.2691082802547C771.4617834394905 645.7850318471336 768.71974522293 644.3487261146496 755.8582802547771 642.324840764331C742.0828025477708 640.1050955414012 735.2929936305733 637.232484076433 735.2929936305733 624.436305732484C735.2929936305733 610.6608280254776 746.1958598726115 605.8296178343949 758.0127388535033 605.8296178343949C767.2181528662421 605.8296178343949 780.9283439490447 608.31050955414 780.9283439490447 608.31050955414L780.6671974522294 617.9729299363057C780.6671974522294 617.9729299363057 766.4347133757962 616.014331210191 758.7308917197453 616.014331210191L758.6656050955414 616.1449044585987ZM843.1464968152866 659.3646496815286 843.407643312102 668.0477707006369C843.407643312102 668.0477707006369 829.2404458598727 670.5286624203821 818.7292993630574 670.5286624203821C800.2531847133758 670.5286624203821 793.5286624203823 660.0828025477707 793.5286624203823 638.6687898089172C793.5286624203823 615.4920382165604 803.5828025477708 605.764331210191 819.96974522293 605.764331210191C836.3566878980891 605.764331210191 845.4968152866242 614.7085987261146 845.4968152866242 634.5557324840763L844.7786624203821 642.8471337579616H805.0843949044586C805.2149681528663 654.5334394904457 809.0668789808917 660.4745222929935 820.3614649681529 660.4745222929935C829.8933121019109 660.4745222929935 843.2117834394904 659.3646496815286 843.2117834394904 659.3646496815286H843.1464968152866ZM834.202229299363 633.968152866242C834.202229299363 620.062101910828 829.9585987261146 615.3614649681529 819.9697452229299 615.3614649681529C809.9808917197452 615.3614649681529 805.0843949044585 620.5843949044586 804.9538216560509 633.968152866242H834.202229299363ZM870.5668789808917 607.2006369426751V611.3136942675159C870.5668789808917 611.3136942675159 880.0987261146497 605.8296178343949 888.781847133758 605.8296178343949C905.8869426751593 605.8296178343949 910.0 615.0350318471337 910.0 636.187898089172V669.1576433121019H898.7054140127389V636.3837579617834C898.7054140127389 622.0207006369427 896.9426751592357 615.9490445859873 886.4315286624204 615.9490445859873C878.4012738853504 615.9490445859873 870.6974522292994 619.9315286624204 870.6974522292994 619.9315286624204V669.157643312102H859.2722929936307V607.1353503184714H870.5668789808918L870.5668789808917 607.2006369426751ZM270.06050955414014 731.8328025477707V738.7531847133758H226.05732484076432V770.7436305732484H262.61783439490443V777.533439490446H226.05732484076432V811.1560509554141H270.06050955414014V817.9458598726117H218.35350318471336V731.767515923567H270.06050955414014V731.8328025477707ZM336.06528662420385 813.1799363057324 335.67356687898086 819.1210191082802C329.60191082802544 819.1210191082802 325.0318471337579 817.8805732484076 321.6369426751592 814.1592356687897C321.6369426751592 814.1592356687897 309.95063694267515 819.2515923566878 298.32961783439487 819.2515923566878C287.42675159235665 819.2515923566878 281.3550955414013 812.9187898089172 281.3550955414013 800.5143312101909C281.3550955414013 789.0891719745222 287.0350318471337 783.670382165605 299.57006369426745 782.4299363057323L320.65764331210187 780.3407643312102V774.53025477707C320.65764331210187 765.1289808917197 316.41401273885344 761.5382165605096 308.514331210191 761.5382165605096C299.57006369426745 761.5382165605096 285.076433121019 763.4315286624204 285.076433121019 763.4315286624204L284.68471337579615 757.4904458598727C284.68471337579615 757.4904458598727 298.32961783439487 754.8789808917197 308.7754777070063 754.8789808917197C322.28980891719743 754.8789808917197 327.9697452229299 761.4729299363057 327.9697452229299 774.5955414012739V807.8264331210191C328.3614649681528 811.5477707006369 331.952229299363 812.7882165605096 335.9999999999999 813.3105095541401L336.06528662420385 813.1799363057324ZM299.37420382165607 812.984076433121C309.4283439490446 812.984076433121 320.7229299363057 808.6751592356687 320.7229299363057 808.6751592356687V786.2165605095541L300.484076433121 788.3057324840763C292.1926751592357 789.0238853503184 289.0589171974523 793.0063694267515 289.0589171974523 800.4490445859872C289.0589171974523 808.4140127388534 292.51910828025484 812.984076433121 299.37420382165607 812.984076433121ZM367.8598726114649 812.7229299363056C371.32006369426745 812.7229299363056 379.2850318471337 811.874203821656 379.2850318471337 811.874203821656L379.8073248407643 818.2070063694267C379.8073248407643 818.2070063694267 371.6464968152866 819.4474522292993 367.2722929936306 819.4474522292993C354.998407643312 819.4474522292993 350.55891719745216 814.8773885350317 350.55891719745216 796.9888535031846V762.6480891719744H341.3535031847133V756.0541401273883H350.55891719745216V736.5987261146495H358.00159235668787V756.0541401273883H378.6974522292993V762.6480891719744H358.00159235668787V793.2675159235667C358.00159235668787 808.8057324840763 358.98089171974516 812.7229299363056 367.92515923566873 812.7229299363056H367.8598726114649ZM464.484076433121 786.1512738853503C464.484076433121 809.5891719745223 459.2611464968153 819.2515923566878 438.56528662420385 819.2515923566878C417.8694267515923 819.2515923566878 412.515923566879 809.5891719745222 412.515923566879 786.1512738853503C412.515923566879 764.2149681528662 419.30573248407643 754.748407643312 438.56528662420385 754.748407643312C457.82484076433127 754.748407643312 464.484076433121 764.1496815286623 464.484076433121 786.1512738853503ZM438.56528662420385 812.7229299363056C454.56050955414014 812.7229299363056 456.9108280254777 805.1496815286623 456.9108280254777 786.216560509554C456.9108280254777 767.2834394904457 452.6671974522293 761.4076433121019 438.56528662420385 761.4076433121019C424.4633757961783 761.4076433121019 420.2197452229299 767.6098726114649 420.2197452229299 786.216560509554C420.2197452229299 804.8232484076432 422.43949044585986 812.7229299363056 438.56528662420385 812.7229299363056ZM526.9633757961783 818.0111464968152H519.6512738853502V813.4410828025476C519.6512738853502 813.4410828025476 510.1194267515923 819.2515923566878 500.52229299363046 819.2515923566878C483.2866242038215 819.2515923566878 479.826433121019 811.5477707006368 479.826433121019 788.3710191082802V755.9888535031846H487.138535031847V788.2404458598725C487.138535031847 806.716560509554 489.03184713375776 812.5270700636942 501.4363057324839 812.5270700636942C511.2292993630572 812.5270700636942 519.6512738853502 807.3041401273885 519.6512738853502 807.3041401273885V755.9235668789808H526.9633757961783V817.9458598726113V818.0111464968152ZM566.2006369426751 812.7229299363056C569.6608280254777 812.7229299363056 577.6257961783439 811.874203821656 577.6257961783439 811.874203821656L578.1480891719744 818.2070063694267C578.1480891719744 818.2070063694267 569.9872611464967 819.4474522292993 565.6130573248407 819.4474522292993C553.3391719745223 819.4474522292993 548.8996815286623 814.8773885350317 548.8996815286623 796.9888535031846V762.6480891719744H539.6942675159236V756.0541401273883H548.8996815286623V736.5987261146495H556.342356687898V756.0541401273883H577.0382165605095V762.6480891719744H556.342356687898V793.2675159235667C556.342356687898 808.8057324840763 557.3216560509554 812.7229299363056 566.2659235668789 812.7229299363056H566.2006369426751ZM607.3312101910827 761.6035031847133C599.6273885350317 761.6035031847133 592.7070063694267 763.6926751592356 592.7070063694267 772.1146496815286C592.7070063694267 778.5780254777069 595.7754777070064 780.4060509554139 609.3550955414013 782.6910828025477C625.21974522293 785.3025477707006 631.1608280254777 788.1751592356687 631.1608280254777 800.0573248407643C631.1608280254777 814.5509554140126 622.0859872611466 819.3168789808916 607.2006369426751 819.3168789808916C599.6273885350319 819.3168789808916 585.9824840764331 817.0971337579617 585.9824840764331 817.0971337579617L586.5047770700637 810.5031847133756C586.5047770700637 810.5031847133756 600.4108280254777 812.5923566878979 606.7436305732484 812.5923566878979C617.3853503184713 812.5923566878979 623.5875796178343 810.1114649681527 623.5875796178343 800.449044585987C623.5875796178343 793.0063694267515 619.8662420382166 791.3742038216559 605.9601910828025 789.2850318471336C591.7277070063693 787.0652866242036 585.1337579617833 784.4538216560509 585.1337579617833 772.4410828025476C585.1337579617833 758.9267515923566 596.2977707006369 754.9442675159235 607.0700636942674 754.9442675159235C616.3407643312102 754.9442675159235 629.0063694267516 757.0334394904456 629.0063694267516 757.0334394904456L628.7452229299362 763.6273885350316C628.7452229299362 763.6273885350316 615.4920382165604 761.668789808917 607.2659235668789 761.668789808917L607.3312101910827 761.6035031847133ZM646.1767515923567 731.2452229299363H653.4888535031847V740.515923566879H646.1767515923567V731.2452229299363ZM653.4888535031847 756.0541401273885V818.076433121019H646.1767515923567V756.0541401273885H653.4888535031847ZM711.0716560509554 818.0111464968152V813.4410828025476C711.0716560509554 813.4410828025476 701.2786624203821 819.2515923566878 691.2245222929936 819.2515923566878C681.170382165605 819.2515923566878 669.4187898089172 815.7914012738852 669.4187898089172 787.7181528662419C669.4187898089172 766.0429936305732 676.0127388535032 754.748407643312 695.4681528662419 754.748407643312C700.952229299363 754.748407643312 708.7213375796177 755.9888535031846 711.0716560509553 756.3805732484076V728.5031847133757H718.514331210191V818.0111464968152H711.0716560509553H711.0716560509554ZM691.9426751592357 812.592356687898C701.343949044586 812.592356687898 711.0716560509555 807.2388535031847 711.0716560509555 807.2388535031847V762.843949044586C708.5907643312103 762.452229299363 700.6257961783441 761.342356687898 695.6640127388536 761.342356687898C680.9092356687898 761.342356687898 677.0573248407644 770.7436305732483 677.0573248407644 787.7834394904459C677.0573248407644 809.7197452229299 684.7611464968154 812.592356687898 691.9426751592358 812.592356687898H691.9426751592357ZM781.7770700636943 811.482484076433 782.0382165605096 817.5541401273885C782.0382165605096 817.5541401273885 768.0015923566879 819.3168789808916 758.3391719745223 819.3168789808916C739.8630573248408 819.186305732484 734.2484076433121 808.0222929936305 734.2484076433121 787.326433121019C734.2484076433121 763.3662420382165 744.6942675159236 754.8136942675158 759.7754777070064 754.8136942675158C775.7707006369427 754.8136942675158 784.1926751592357 763.3662420382165 784.1926751592357 784.1926751592356L783.9315286624203 790.1337579617833H741.7563694267516C741.7563694267516 804.7579617834393 746.0 812.5923566878979 758.9920382165606 812.5923566878979C768.0668789808917 812.5923566878979 781.7117834394904 811.4824840764329 781.7117834394904 811.4824840764329L781.7770700636943 811.482484076433ZM776.8152866242038 783.9315286624203C776.8152866242038 767.2181528662419 771.4617834394905 761.2117834394903 759.8407643312103 761.2117834394903C748.21974522293 761.2117834394903 741.8869426751593 767.4140127388534 741.8869426751593 783.9315286624203H776.8805732484077H776.8152866242038ZM654.0111464968153 276.26273885350315C538.6496815286624 311.3216560509554 420.15445859872614 349.8407643312102 306.2292993630573 389.4044585987261L309.82006369426745 400.37261146496814C425.24681528662416 365.3789808917197 543.7420382165604 326.7292993630573 657.6019108280254 287.2308917197452L654.0111464968153 276.26273885350315ZM369.4267515923567 360.6130573248407C370.1449044585987 360.35191082802544 371.71178343949043 359.82961783439487 372.4952229299363 359.5684713375796L366.81528662420385 313.9331210191083H463.1783439490446C463.1783439490446 313.9331210191083 461.154458598726 330.12420382165607 461.154458598726 330.12420382165607C461.4156050955413 330.0589171974522 471.404458598726 326.79458598726114 471.99203821656045 326.5987261146497L473.8853503184713 309.4283439490446L468.858280254777 303.813694267516H361.0047770700636C361.0047770700636 303.813694267516 355.9124203821656 309.4283439490446 355.9124203821656 309.4283439490446L361.8535031847133 363.15923566878985L369.36146496815275 360.6130573248408L369.4267515923567 360.6130573248407ZM453.6464968152866 391.297770700637C451.9490445859873 405.13853503184714 447.57484076433116 440.1974522292994 445.87738853503186 453.515923566879C445.42038216560513 457.56369426751587 441.63375796178343 460.828025477707 437.58598726114644 460.6974522292994C428.7070063694267 460.63216560509557 419.89331210191074 460.5668789808917 411.014331210191 460.6974522292994H397.7611464968153C396.6512738853503 460.6974522292994 393.8439490445859 460.828025477707 392.79936305732485 460.828025477707C388.686305732484 461.0891719745223 384.7691082802547 457.95541401273897 384.1815286624203 453.907643312102C381.765923566879 434.64808917197456 378.30573248407643 406.44426751592357 375.95541401273886 387.1194267515924C372.625796178344 388.16401273885356 368.3168789808917 389.53503184713384 364.98726114649685 390.51433121019113C366.358280254777 403.1799363057325 369.23089171974516 428.8375796178344 370.60191082802544 441.5684713375797C370.7977707006369 443.20063694267515 372.1035031847133 455.67038216560513 372.42993630573244 456.97611464968156C374.25796178343944 466.37738853503186 383.26751592356686 473.4936305732484 392.79936305732485 473.23248407643314C393.8439490445859 473.23248407643314 396.71656050955414 473.23248407643314 397.7611464968153 473.23248407643314C397.7611464968153 473.23248407643314 411.014331210191 473.297770700637 411.014331210191 473.297770700637C428.25 472.579617834395 454.56050955414014 478.781847133758 457.95541401273874 455.017515923567C461.02388535031844 426.9442675159236 465.593949044586 385.5525477707007 468.6624203821656 357.41401273885356L457.3025477707006 361.07006369426756L453.58121019108273 391.23248407643314L453.6464968152866 391.297770700637ZM483.48248407643314 271.62738853503186C485.5716560509554 281.02866242038215 493.7977707006369 288.6671974522293 503.19904458598717 290.36464968152865L503.46019108280257 316.41401273885344C507.24681528662416 315.17356687898086 512.8614649681529 313.34554140127386 516.5175159235669 312.1703821656051L516.7133757961783 290.36464968152865C531.1417197452229 288.07961783439487 539.1066878980891 273.19426751592357 537.6050955414013 259.54936305732485C537.6050955414013 257.1990445859873 537.2786624203821 244.20700636942675 537.2133757961783 241.5955414012739C536.8216560509554 224.7515923566879 536.4952229299363 200.72611464968153 535.5159235668789 184.14331210191082H529.640127388535C528.6608280254776 200.72611464968153 528.3996815286623 224.81687898089172 527.9426751592356 241.5955414012739L527.6162420382165 255.95859872611464C527.6162420382165 263.00955414012736 527.746815286624 271.562101910828 522.0015923566878 276.328025477707L520.6305732484076 184.14331210191085H513.7754777070063C513.7754777070063 184.14331210191085 511.75159235668787 280.31050955414014 511.75159235668787 280.31050955414014C510.44585987261144 280.4410828025478 509.20541401273886 280.4410828025478 507.8996815286623 280.31050955414014L505.8757961783439 184.14331210191085H499.0207006369426C499.0207006369426 184.14331210191085 497.6496815286623 276.26273885350315 497.6496815286623 276.26273885350315C492.0350318471337 271.43152866242036 492.23089171974516 263.0095541401274 492.1656050955413 256.0238853503185C492.1656050955413 256.0238853503185 491.8391719745222 241.6608280254777 491.8391719745222 241.6608280254777C491.4474522292993 224.75159235668792 491.12101910828017 200.85668789808918 490.1417197452229 184.20859872611464H484.2659235668789C483.2866242038216 200.79140127388536 482.96019108280245 224.88216560509557 482.5684713375796 241.6608280254777C482.6990445859873 250.6703821656051 481.13216560509557 262.8136942675159 483.22133757961785 271.62738853503186H483.48248407643314ZM504.8964968152866 470.75159235668787H515.1464968152867L516.2563694267516 341.9410828025478L503.72133757961785 346.05414012738856L504.8964968152866 470.75159235668787ZM560.390127388535 274.0429936305733C561.2388535031846 256.80732484076435 562.4140127388534 239.50636942675158 565.3519108280254 222.53184713375796C566.9187898089172 211.62898089171975 571.031847133758 200.39968152866243 580.171974522293 193.7404458598726C579.388535031847 224.55573248407643 578.9315286624204 261.5079617834395 578.670382165605 292.45382165605093C584.0238853503183 290.7563694267516 587.3535031847133 289.71178343949043 591.9235668789809 288.27547770700636C591.6624203821656 255.30573248407643 591.140127388535 218.09235668789808 590.2261146496814 185.2531847133758L583.8933121019107 180.55254777070064C565.6783439490445 186.88535031847132 556.8646496815286 205.68789808917197 554.5796178343949 223.70700636942675C550.2054140127389 249.62579617834393 548.9649681528662 275.8710191082803 548.1815286624203 302.0509554140127C552.0334394904459 300.81050955414014 555.8853503184713 299.63535031847135 559.6066878980891 298.3949044585987C559.7372611464967 290.234076433121 559.998407643312 282.07324840764335 560.390127388535 273.9777070063694V274.0429936305733ZM579.388535031847 320.984076433121 578.4745222929936 321.31050955414014C578.4745222929936 328.296178343949 578.4745222929936 335.3471337579618 578.4745222929936 342.3328025477707C573.9697452229299 341.41878980891715 567.7675159235669 341.0270700636943 563.8503184713376 339.59076433121015C558.9538216560509 337.30573248407643 559.4761146496814 332.2133757961783 559.4761146496814 327.6433121019108C555.6894904458599 328.9490445859872 551.6417197452229 330.25477707006365 547.7898089171974 331.4952229299363C547.0716560509553 341.0270700636943 554.122611464968 350.4283439490446 563.6544585987261 352.12579617834393C568.2898089171974 353.03980891719743 573.9697452229299 354.0191082802547 578.6050955414013 354.9331210191083C579.062101910828 384.8996815286624 579.8455414012739 443.0047770700637 580.2372611464968 473.68949044585986H590.421974522293C590.8789808917197 425.8996815286624 592.3805732484077 363.9426751592357 592.1194267515924 316.7404458598726C588.0063694267517 318.11146496815286 583.7627388535033 319.547770700637 579.453821656051 320.984076433121H579.388535031847Z" fill="#000000"/>
</svg>
