<?xml version="1.0" encoding="UTF-8"?>
<!-- source: mixed_x.svg -->
<svg xmlns="http://www.w3.org/2000/svg" viewBox="0 0 1000 1000" width="1000" height="1000">
  <path d="M272.54772432105943 702.1576259640724V736.9360311812396H256.5135245131447V638.9994398662299H289.4099813960496C309.58446753934135 638.9994398662299 320.7256016781741 647.5811242704659 320.7256016781741 670.1645042816134C320.7256016781741 687.3278730900855 314.55281114179377 694.9309443605052 306.4227943377807 698.7701189624003L322.9086617459184 736.9360311812396H306.0464046709282L291.59304146379384 702.1576259640724H272.54772432105943ZM289.4099813960496 688.3817641572724C299.72305826780695 688.3817641572724 304.3150122034069 682.510085354374 304.3150122034069 670.089226348243C304.3150122034069 657.6683673421118 299.72305826780695 652.624745806289 289.4099813960496 652.624745806289H272.54772432105943V688.3817641572724H289.4099813960496ZM384.26017744286906 722.8590576409576 384.711845043092 734.0001917797904C384.711845043092 734.0001917797904 374.0976564378527 738.2910339819084 360.6981842979052 738.2910339819084C340.5236981546134 738.2910339819084 331.6409020168954 727.3004557098167 331.6409020168954 703.1362390978887C331.6409020168954 680.7034149534823 339.7709188209085 663.9164358118627 361.22512983149863 663.9164358118627C377.93683103974774 663.9164358118627 387.5724065111707 669.938670481502 387.5724065111707 685.0695350889708C387.5724065111707 702.9856832311478 375.678493038633 706.824857833043 353.0951130274855 706.824857833043H347.22343422458715V709.0831958341577C347.22343422458715 718.6434933722101 352.11649989366913 724.9668397753314 361.8273532984625 724.9668397753314C371.5382067032559 724.9668397753314 384.260177442869 722.8590576409576 384.260177442869 722.8590576409576H384.26017744286906ZM353.0951130274855 695.2320560939872C366.41930723406256 695.2320560939872 372.2157081035904 693.651219493207 372.2157081035904 685.220090955712C372.2157081035904 678.5203548857381 368.52708936843635 676.3372948179938 361.22512983149863 676.3372948179938C351.06260882648223 676.3372948179938 347.5245459580691 684.0909219551545 347.37399009132815 695.2320560939872H353.0951130274855ZM422.72720139519026 677.0900741516987C417.75885779273784 677.0900741516987 412.86579212365586 679.3484121528135 412.86579212365586 684.9189792222298C412.86579212365586 690.4895462916463 415.87690945847555 692.0703828924267 425.286651129787 694.3287208935413C440.1916819371444 697.9420616953249 448.8486442747509 700.3509555631806 448.8486442747509 715.4818201706495C448.8486442747509 733.2474124460855 438.3850115362526 738.366311915279 421.97442206148537 738.366311915279C410.5321761891706 738.366311915279 397.20798198259365 734.828249046866 397.20798198259365 734.828249046866L398.036039249669 722.9343355743282C398.036039249669 722.9343355743282 413.76912732410176 725.192673575443 420.4688633940756 725.192673575443C429.65277126527553 725.192673575443 433.19083413368867 723.0848914410692 433.19083413368867 716.9121009046889C433.19083413368867 710.7393103683087 429.65277126527553 709.9112531012331 420.76997512755753 708.0293047669709C405.7143884534592 704.7170756986693 397.2832599159641 700.5767893632923 397.2832599159641 686.1234261561578C397.2832599159641 669.9386704815021 409.4782851219838 663.8411578784924 421.5980323946329 663.8411578784924C434.771670734469 663.8411578784924 446.36447247352464 667.153386946794 446.36447247352464 667.153386946794L445.76224900656075 679.0473004193316C445.76224900656075 679.0473004193316 432.06166513313127 677.0147962183283 422.5766455284494 677.0147962183283L422.72720139519026 677.0900741516987ZM486.7887226934787 725.2679515088134C491.38067662907866 725.2679515088134 497.47818923208854 724.439894241738 497.47818923208854 724.439894241738L498.155690632423 736.3338077142756C498.155690632423 736.3338077142756 489.42345036144593 738.51686778202 484.60566262573445 738.51686778202C468.57146281781974 738.51686778202 464.73228821592465 730.3868509780069 464.73228821592465 715.7829319041315V678.7461886858496H456.60227141191154V665.4219944792726H464.73228821592465V645.8497318029448H480.1642645568754V665.4219944792726H497.6287450988294V678.7461886858496H480.1642645568754V714.9548746370562C480.1642645568754 721.2782210401774 481.44398942417376 725.4185073755544 486.7134447601082 725.4185073755544L486.7887226934787 725.2679515088134ZM539.1068863859705 676.9395182849578C531.6543709822918 676.9395182849578 524.352411445354 687.5537068901971 524.352411445354 687.5537068901971V736.8607532478691H508.9204351044033V665.346716545902H524.051299711872L524.201855578613 673.9284009501381C524.201855578613 673.9284009501381 531.9554827157738 663.7658799451217 542.9460609878655 663.7658799451217C557.2488683282589 663.7658799451217 561.539710530377 674.9070140839546 561.539710530377 674.9070140839546C561.539710530377 674.9070140839546 570.9494522016885 663.7658799451217 582.0153084071507 663.7658799451217C598.2000640818064 663.7658799451217 604.7492442850391 676.1867389512529 604.7492442850391 694.4039988269118V736.8607532478691H589.3172679440884V696.5117809612856C589.3172679440884 682.660641221115 586.6072623427507 676.9395182849578 578.3266896719966 676.9395182849578C570.7236184015769 676.9395182849578 564.7766616653082 686.3492599562692 564.7766616653082 686.3492599562692C564.7766616653082 686.3492599562692 565.378885132272 691.4681594254627 565.378885132272 695.9095574943216V736.7854753144985H549.7963529245803V697.8667837619544C549.7963529245803 682.4348074210036 547.2369031899835 676.8642403515871 539.1821643193409 676.8642403515871L539.1068863859705 676.9395182849578ZM620.7834440929539 665.346716545902H636.2154204339047V705.6956888324856C636.2154204339047 719.5468285726561 639.0759819019834 725.2679515088134 647.2059987059964 725.2679515088134C654.959625843157 725.2679515088134 662.1110295133537 714.6537629035741 662.1110295133537 714.6537629035741V665.346716545902H677.5430058543045V736.8607532478692H662.4121412468357L662.2615853800946 728.2790688436331C662.2615853800946 728.2790688436331 654.809069976416 738.4415898486494 643.5173799708423 738.4415898486494C627.3326242961866 738.4415898486494 620.7834440929537 728.2790688436331 620.7834440929537 709.6854193011217V665.346716545902H620.7834440929539ZM642.538766837026 633.0524831299612V649.7641843382103H628.3865153633735V633.0524831299612H642.538766837026ZM656.6910183106784 633.0524831299612H670.5421580508489V649.7641843382103H656.6910183106784V633.0524831299612ZM710.5147406705798 635.6119328645578V736.8607532478692H694.9322084628881V635.6119328645578H710.5147406705798ZM743.4864754868552 635.6119328645578V736.8607532478692H727.9039432791635V635.6119328645578H743.4864754868552ZM389.5296327788035 896.9016395935344 417.4577460592559 809.1275692835411H433.3413900004296V908.4944413325901H424.91026146293456V816.9564743540723H423.02831312867227L395.0249219148494 905.1822122642885H384.03434364275756L356.0309524289347 816.9564743540723H354.14900409467236V908.4944413325901H345.7178755571773V809.1275692835411H361.6015194983511L389.60491071217393 896.9016395935344H389.5296327788035ZM454.4944892775378 808.9770134168001H463.37728541525576V820.118147555633H454.4944892775378V808.9770134168001ZM463.1514516151443 908.4944413325901H454.56976721090825V836.9804046306231H463.1514516151443V908.4944413325901ZM519.9862913098655 836.9804046306231H528.7185315808425L507.41487643699344 872.8879788483475L528.7185315808425 908.4944413325901H519.6851795763835L502.5218107679114 879.4371590515804L485.35844195943935 908.4944413325901H476.4756458217213L497.7793009655704 873.0385347150886L476.3250899549803 836.9804046306231H485.3584419594393L502.8229225013933 866.5646324452263L519.9862913098655 836.9804046306231ZM585.7792050756752 899.4610893281312 586.3814285426391 905.9349915979934C586.3814285426391 905.9349915979934 576.3694634043637 909.7741661998884 563.4969367980096 909.7741661998884C545.2043989889802 909.7741661998884 537.4507718518196 899.0846996612787 537.4507718518196 873.414924381941C537.4507718518196 849.2507077700133 546.1830121227965 835.6254018299543 566.2069423993473 835.6254018299543C579.7569704060359 835.6254018299543 588.9408782772359 841.1959688993705 588.9408782772359 854.0684955057247C588.9408782772359 871.0813084474559 578.3266896719965 875.8238182497968 554.1624730600688 875.8238182497968H546.1830121227965V877.8563224508001C546.1830121227965 892.9119091248984 551.30191159199 902.3216507962098 563.9486043982326 902.3216507962098C574.1111254032489 902.3216507962098 585.8544830090457 899.4610893281312 585.8544830090457 899.4610893281312H585.7792050756752ZM554.1624730600688 868.8982483797115C573.0572343360622 868.8982483797115 580.3591938729999 866.0376869116328 580.3591938729999 854.2943293058361C580.3591938729999 845.863200768341 574.7886268035834 843.0026393002623 566.0563865326064 843.0026393002623C552.054690925695 843.0026393002623 546.4841238562785 852.3371030382033 546.1830121227965 868.8982483797115H554.1624730600688ZM624.2462290279964 909.9247220666294C607.0828602195243 909.9247220666294 601.9639607503309 895.923026459718 601.9639607503309 873.716036115423C601.9639607503309 848.9495960365311 609.4164761540096 835.7006797633247 629.8167960974129 835.7006797633247C637.4198673678325 835.7006797633247 646.2273855721801 837.432072230846 646.2273855721801 837.432072230846V805.2883946816461H654.658514109675V908.5697192659607H646.2273855721801V897.1274733936459C646.2273855721801 897.1274733936459 637.9468129014259 910.0 624.1709510946259 910.0L624.2462290279964 909.9247220666294ZM626.3540111623702 902.3216507962097C637.7962570346849 902.3216507962097 646.2273855721801 887.4166199888524 646.2273855721801 887.4166199888524V844.6587538344131C646.2273855721801 844.6587538344131 637.645701167944 843.0779172336329 630.3437416310062 843.0779172336329C615.0623211567964 843.0779172336329 610.7714789546785 854.2190513724656 610.7714789546785 873.7160361154231C610.7714789546785 889.1480124563739 613.1803728225341 902.3216507962098 626.3540111623702 902.3216507962098V902.3216507962097ZM347.0728783578462 201.48409111693246C349.25593842559044 277.2889700210176 351.28844262659373 353.24440479184364 356.55789796252816 428.7481719624468C359.19262563049534 455.4718383089713 359.41845943060684 482.9482839892008 367.24736450113795 508.54278133516794C368.4518114350658 510.1236179359483 373.42015503751827 511.6291766033581 376.13016063885595 512.532511803804C398.337150983151 518.4041906067023 421.6733103280034 519.5333596072597 444.9341917394853 521.0389182746696C482.57315842473116 522.9961445423023 520.5132368434589 523.1467004090434 558.1522035287048 521.9422534751154C582.5422539407441 520.0603051408532 611.2231465549014 521.4153079415221 633.2795810324554 511.7797324700991C634.1829162329013 508.69333720190895 635.5379190335702 503.1227701324926 636.1401425005341 498.53081619689254C646.679053172403 399.841445548178 645.2487724383636 300.02290589890606 646.980164905885 200.8065897165981C646.980164905885 200.8065897165981 659.3257459786455 200.8065897165981 659.3257459786455 200.8065897165981C659.3257459786455 276.8373024207947 659.0246342451636 352.7927371916208 655.6371272434915 428.97400576255825C653.5293451091177 458.1065659769385 654.2068465094521 487.3144041246893 646.6037752390324 515.9952967388466C640.8073743695045 536.1697828821384 577.1222427380686 534.4383904146171 558.6038711289277 536.3956166822499C520.3626809767179 537.8258974162892 482.2720466912492 537.7506194829186 444.0308565390394 535.8686711486564C420.0924737272231 534.3631124812466 395.4765895150723 533.2339434806893 371.7640405033674 526.9858750109383C365.6665279003576 524.8780928765647 360.69818429790513 523.9747576761188 355.6545627620822 518.2536347399614C353.5467806277085 515.6941850053647 352.2670557604101 512.0808442035811 351.4389984933347 509.06972686876145C345.04037415684286 483.0988398559418 344.0617610230265 456.1493397093058 341.8787009552822 429.8020630296337C337.06091321957075 353.69607239206664 335.103686951938 277.7406376212406 334.42618555160357 201.70992491704402C334.42618555160357 201.70992491704402 346.99760042447565 201.55936905030302 346.99760042447565 201.55936905030302L347.0728783578462 201.48409111693246ZM424.6091497294526 240.32750473610616 432.6638886000952 462.9996316460205 417.6083019259969 463.4512992462434 412.5646803901739 240.7038944029586 424.6091497294526 240.32750473610616ZM507.6407102371049 230.46609546457177 510.20015997170157 472.8610409175549H495.14457329760324L497.7793009655705 230.46609546457177H507.6407102371049ZM584.8005919418588 240.7038944029586 582.843365674226 463.3007433795025 567.7877790001277 462.9996316460205 575.6919620040294 240.55333853621764 584.8005919418588 240.7038944029586ZM316.81114914290856 153.3062137598178C436.50306320199024 149.69287295803423 562.2924898640817 149.31648329118175 682.1349597899045 153.15565789307684C682.1349597899045 153.15565789307684 682.1349597899045 159.62956016293913 682.1349597899045 159.62956016293913C651.7226747082259 160.83400709686697 621.2351116931768 161.36095263046042 590.8228266114982 161.81262023068336C536.9238263182261 162.1890098975358 461.269503280882 162.56539956438826 408.1985602546854 161.5867864305719C377.78627517300674 161.13511883034894 347.29871215795765 160.6081732967555 316.886427076279 159.47900429619813V153.2309358264473L316.81114914290856 153.3062137598178ZM432.5133327333542 160.90928503023747 417.83413572610834 157.52177802856534C418.88802679329524 152.92982409296536 428.6741581314592 112.27974007289987 441.99835233803617 99.85888106676875C455.62365827809515 87.28746619389663 490.4020634952623 89.99747179523433 498.3062464991639 90.82552906230974C503.9520915019508 90.59969526219827 539.6338319195638 90.90080699568023 554.0871951266982 98.80498999958186C569.66972733439 107.31139647044742 577.9503000051441 146.1548100896211 580.1333600728883 157.8228897620473L565.3036071989015 160.53289536338502C561.4644325970064 139.8314636864998 553.1085819928819 115.36613534109001 546.860513523131 111.9786283394179C538.2035511855245 107.23611853707692 512.0068303725934 105.5800040029261 497.9298568323115 105.80583780303758H497.1017995652361C482.3473246246197 104.22500120225725 458.7100535462853 104.82722466922118 452.1608733430526 110.924737272231C444.6330800060034 117.85030714231624 436.05139560176735 145.2514748891752 432.4380547999838 160.90928503023747H432.5133327333542Z" fill="#000000"/>
</svg>
