<?xml version="1.0" encoding="UTF-8"?>
<!-- source: no-bags.svg -->
<svg xmlns="http://www.w3.org/2000/svg" viewBox="0 0 1000 1000" width="1000" height="1000">
  <path d="M103.22104125382815 684.9166946984312H90.0V588.2332142444591H103.22104125382815V632.5495536427657L118.36245721491623 631.7370874204635L140.66834804539724 588.2332142444591H155.66204287515762L129.9585660241398 636.7596058856047L156.917672491443 684.9166946984312H141.48081426769951L118.43631778058008 643.4070567953506L103.1471806881643 644.0718018863254V684.9166946984312H103.22104125382815ZM219.6991533057107 673.8376098488548 219.99459556836604 683.661065082146C219.99459556836604 683.661065082146 203.9668528193118 686.467766577372 192.0753017474329 686.467766577372C171.17276166456492 686.467766577372 163.56512340118897 674.650076071157 163.56512340118897 650.4238105334159C163.56512340118897 624.2033097227513 174.93965051342101 613.1980854388385 193.47865249504594 613.1980854388385C212.01765447667083 613.1980854388385 222.35813366960906 623.3169829347851 222.35813366960906 645.7705948965938L221.54566744730676 655.1508867359018H176.63844352368943C176.7861646550171 668.37192798973 181.14393802918391 675.09323946514 193.921815889029 675.09323946514C204.70545847595025 675.09323946514 219.77301387137447 673.8376098488545 219.77301387137447 673.8376098488545L219.6991533057107 673.8376098488548ZM209.58025580976397 645.1058498056193C209.58025580976397 629.3735493192205 204.77931904161412 624.0555885914237 193.47865249504594 624.0555885914237C182.17798594847773 624.0555885914237 176.63844352368943 629.9644338445312 176.4907223923617 645.1058498056193H209.58025580976397ZM250.86831201585295 600.8633709729763H237.9427130246802V586.6821423655183H250.86831201585295V600.8633709729763ZM237.9427130246802 614.7491573177792H250.86831201585295V684.9166946984312H237.9427130246802V614.7491573177792ZM282.9976580796253 614.7491573177792V619.4023729546013C282.9976580796253 619.4023729546013 293.78130066654654 613.1980854388385 303.60475589983787 613.1980854388385C322.95622410376507 613.1980854388385 327.6094397405873 623.6124251974404 327.6094397405873 647.5432484725261V684.8428341327674H314.8315618807422V647.7648301695176C314.8315618807422 631.5155057234717 312.8373266078184 624.6464731167343 300.94577553593945 624.6464731167343C291.8609259592866 624.6464731167343 283.14537921095297 629.1519676222288 283.14537921095297 629.1519676222288V684.8428341327676H270.2197802197802V614.6752967521154H282.9976580796253V614.7491573177792ZM399.1803278688524 673.8376098488548 399.4757701315078 683.661065082146C399.4757701315078 683.661065082146 383.4480273824535 686.467766577372 371.55647631057457 686.467766577372C350.65393622770665 686.467766577372 343.0462979643307 674.650076071157 343.0462979643307 650.4238105334159C343.0462979643307 624.2033097227513 354.4208250765627 613.1980854388385 372.9598270581876 613.1980854388385C391.49882903981256 613.1980854388385 401.8393082327508 623.3169829347851 401.8393082327508 645.7705948965938L401.0268420104485 655.1508867359018H356.11961808683117C356.26733921815884 668.37192798973 360.62511259232565 675.09323946514 373.40299045217074 675.09323946514C384.18663303909204 675.09323946514 399.25418843451627 673.8376098488545 399.25418843451627 673.8376098488545L399.1803278688524 673.8376098488548ZM389.06143037290576 645.1058498056193C389.06143037290576 629.3735493192205 384.2604936047559 624.0555885914237 372.95982705818767 624.0555885914237C361.65916051161946 624.0555885914237 356.11961808683117 629.9644338445312 355.9718969555035 645.1058498056193H389.06143037290576ZM507.8292199603674 600.0509047506741H479.4667627454512V684.9166946984312H466.2457214916231V600.0509047506741H437.5878220140515V588.2332142444591H507.7553593947036V600.0509047506741H507.8292199603674ZM565.51432174383 676.3488690814254 565.0711583498469 686.467766577372C557.0942172581517 686.467766577372 551.9978382273465 685.2121369610866 547.4184831561881 681.0020847182475C547.4184831561881 681.0020847182475 535.4530715186453 686.467766577372 523.4137993154386 686.467766577372C510.11889749594667 686.467766577372 503.10214375788144 678.860128313996 503.10214375788144 664.4573180095463C503.10214375788144 650.0545077050967 510.7097820212574 644.8104075429637 525.4080345883625 643.5547779266785L545.4981084489282 641.7082637850824V636.09486079463C545.4981084489282 627.3793140462965 541.7312196000721 624.4248914197427 534.1235813366961 624.4248914197427C524.4478472347325 624.4248914197427 507.6076382633759 625.9759632986834 507.6076382633759 625.9759632986834L507.16447486939285 616.5956714593751C507.16447486939285 616.5956714593751 522.4536119618086 613.1980854388385 534.9360475589983 613.1980854388385C551.4808142676995 613.1980854388385 558.3498468744369 620.510281439559 558.3498468744369 636.09486079463V670.0707209999985C558.6452891370924 674.2807732428375 561.156548369663 675.8318451217783 565.5143217438299 676.3488690814252L565.51432174383 676.3488690814254ZM525.7773374166816 675.6841239904509C534.9360475589983 675.6841239904509 545.4242478832642 672.0649562729225 545.4242478832642 672.0649562729225V651.1624161900545L526.8852459016393 652.861209200323C519.425328769591 653.5998148569613 516.101603314718 657.2189825744897 516.101603314718 664.235736312555C516.101603314718 671.2524900506203 519.2037470725995 675.7579845561147 525.7773374166816 675.7579845561147V675.6841239904509ZM601.1151143938029 624.8680548137258C592.5472887767969 624.8680548137258 587.3770491803278 627.0100112179773 587.3770491803278 634.0267649560424C587.3770491803278 639.6401679464946 590.626914069537 641.1912398254353 604.8820032426589 643.702499058006C622.0176544766708 646.6569216845598 628.2958025580976 650.4238105334159 628.2958025580976 664.3095968782186C628.2958025580976 680.7066424555921 617.8814627994956 686.467766577372 600.8196721311475 686.467766577372C591.587101423167 686.467766577372 575.5593586741128 683.5133439508181 575.5593586741128 683.5133439508181L576.1502431994236 672.5819802325691C576.1502431994236 672.5819802325691 592.5472887767969 674.7977972024846 599.7117636461899 674.7977972024846C610.4954062331111 674.7977972024846 615.5917852639164 672.5819802325691 615.5917852639164 664.6788997065378C615.5917852639164 658.4746121907749 612.4896415060349 656.8496797461703 597.9391100702576 654.5600022105912C582.3545307151865 652.0487429780203 574.6730318861466 648.7988780888113 574.6730318861466 634.3222072186977C574.6730318861466 618.7376278636266 587.0077463520087 613.2719460045022 600.3765087371645 613.2719460045022C610.7908484957665 613.2719460045022 626.3015672851739 616.0786474997283 626.3015672851739 616.0786474997283L626.0061250225184 627.0100112179773C626.0061250225184 627.0100112179773 609.9045217078003 624.7941942480619 601.1889749594667 624.7941942480619L601.1151143938029 624.8680548137258ZM690.1170960187353 615.6354841057453 689.6739326247522 626.0498238643472C689.6739326247522 626.0498238643472 678.4471266438479 624.7941942480619 673.1291659160511 624.7941942480619C657.8400288236354 624.7941942480619 653.9254188434516 631.2200634608164 653.9254188434516 648.7988780888113C653.9254188434516 668.1503462927385 657.0275626013331 674.8716577681485 673.2768870473789 674.8716577681485C678.5948477751756 674.8716577681485 689.82165375608 673.7637492831907 689.82165375608 673.7637492831907L690.264817150063 684.1780890417926C690.264817150063 684.1780890417926 676.6744730679156 686.5416271430356 669.8054404611781 686.5416271430356C647.9427130246803 686.5416271430356 640.925959286615 676.0534268187698 640.925959286615 648.7988780888113C640.925959286615 623.5385646317765 649.1983426409656 613.2719460045021 670.1008827238336 613.2719460045021C677.1176364618989 613.2719460045021 690.1909565843993 615.635484105745 690.1909565843993 615.635484105745L690.1170960187353 615.6354841057453ZM718.3318321023239 584.909488789586V618.5899067322991C718.3318321023239 618.5899067322991 729.115474689245 613.2719460045023 738.7912087912088 613.2719460045023C758.142676995136 613.2719460045023 762.7958926319582 623.6862857631043 762.7958926319582 647.6171090381899V684.9166946984312H749.8702936407853V647.8386907351814C749.8702936407853 631.5893662891358 747.8760583678616 624.7203336823982 736.1322284273103 624.7203336823982C727.2689605476489 624.7203336823982 718.3318321023239 628.3395013999266 718.3318321023239 628.3395013999266V684.9166946984312H705.4062331111511V584.909488789586H718.3318321023239ZM834.3667807602233 673.8376098488548 834.6622230228787 683.661065082146C834.6622230228787 683.661065082146 818.6344802738245 686.467766577372 806.7429292019456 686.467766577372C785.8403891190776 686.467766577372 778.2327508557016 674.650076071157 778.2327508557016 650.4238105334159C778.2327508557016 624.2033097227513 789.6072779679337 613.1980854388385 808.1462799495586 613.1980854388385C826.6852819311835 613.1980854388385 837.0257611241217 623.3169829347851 837.0257611241217 645.7705948965938L836.2132949018194 655.1508867359018H791.306070978202C791.4537921095297 668.37192798973 795.8115654836965 675.09323946514 808.5894433435417 675.09323946514C819.3730859304628 675.09323946514 834.4406413258872 673.8376098488545 834.4406413258872 673.8376098488545L834.3667807602233 673.8376098488548ZM824.2478832642765 645.1058498056193C824.2478832642765 629.3735493192205 819.4469464961267 624.0555885914237 808.1462799495584 624.0555885914237C796.8456134029902 624.0555885914237 791.3060709782019 629.9644338445312 791.1583498468743 645.1058498056193H824.2478832642765ZM865.388218339038 614.7491573177792V619.4023729546013C865.388218339038 619.4023729546013 876.1718609259592 613.1980854388385 885.9953161592506 613.1980854388385C905.3467843631778 613.1980854388385 910.0 623.6124251974404 910.0 647.5432484725261V684.8428341327674H897.2221221401549V647.7648301695176C897.2221221401549 631.5155057234717 895.2278868672311 624.6464731167343 883.3363357953522 624.6464731167343C874.1776256530355 624.6464731167343 865.5359394703657 629.1519676222288 865.5359394703657 629.1519676222288V684.8428341327676H852.6103404791929V614.6752967521154H865.3882183390381L865.388218339038 614.7491573177792ZM289.0542244640605 755.8228377357218 329.89911727616646 845.6372855829566H333.14898216537557V755.8228377357218H341.71680778238147V853.3187844119964H324.87659881102496L283.73626373626365 763.6520576960893H280.6341199783822V853.3187844119964H271.9185732300486V755.8228377357218H289.05422446406044H289.0542244640605ZM419.7135651234011 817.2748283680403C419.7135651234011 843.7907714413604 413.8047198702936 854.7221351596095 390.3909205548549 854.7221351596095C366.97712123941625 854.7221351596095 360.92055485498105 843.7907714413604 360.92055485498105 817.2748283680405C360.92055485498105 792.4576783049888 368.6020536840208 781.7478962837313 390.3909205548549 781.7478962837313C412.179787425689 781.7478962837313 419.7135651234011 792.383817739325 419.7135651234011 817.2748283680405V817.2748283680403ZM390.3909205548549 847.2622180275612C408.4867591424968 847.2622180275612 411.1457395063952 838.6943924105551 411.1457395063952 817.2009678023765C411.1457395063952 795.7075431941978 406.34480273824533 789.1339528501157 390.3909205548549 789.1339528501157C374.43703837146455 789.1339528501157 369.63610160331467 796.1507065881808 369.63610160331467 817.2009678023765C369.63610160331467 838.2512290165721 372.14736083588537 847.2622180275612 390.3909205548549 847.2622180275612ZM523.8569627094217 817.1271072367126C523.8569627094217 844.3816559666711 516.8402089713564 854.7221351596095 490.9890109890109 854.7221351596095C482.12574310934957 854.7221351596095 468.53539902720223 853.3187844119964 468.53539902720223 853.3187844119964V751.9820883212019H476.9555035128805V786.9181358802005C476.9555035128805 786.9181358802005 487.88686723112943 781.7478962837313 498.8182309493784 781.7478962837313C517.8742568906503 781.7478962837313 523.7831021437579 792.2360966079971 523.7831021437579 817.1271072367128L523.8569627094217 817.1271072367126ZM490.989010989011 847.1883574618973C511.7438299405512 847.1883574618973 515.1414159610881 837.9557867539168 515.1414159610881 817.1271072367128C515.1414159610881 798.071081295441 511.6699693748874 789.3555345471073 498.1534858584039 789.3555345471073C487.36984327148264 789.3555345471073 476.9555035128806 794.1564713152572 476.9555035128806 794.1564713152572V846.3758912395951C476.9555035128806 846.3758912395951 486.7789587461719 847.1883574618973 490.98901098901104 847.1883574618973H490.989010989011ZM599.1947396865429 847.8531025528719 598.7515762925598 854.5744140282818C591.8825436858222 854.5744140282818 586.7123040893532 853.1710632806687 582.8715546748332 848.9610110378296C582.8715546748332 848.9610110378296 569.650513421005 854.7221351596095 556.5033327328408 854.7221351596095C544.1686182669788 854.7221351596095 537.2995856602413 847.5576602902165 537.2995856602413 833.5241528140862C537.2995856602413 820.5985538229133 543.7254548729958 814.4681268728143 557.9066834804539 813.0647761252012L581.7636461898757 810.7012380239582V804.1276476798762C581.7636461898757 793.4917262242825 576.9627094217257 789.3555345471073 568.0255809764005 789.3555345471073C557.9066834804539 789.3555345471073 541.5096379030805 791.4974909513587 541.5096379030805 791.4974909513587L541.0664745090974 784.776179475949C541.0664745090974 784.776179475949 556.5033327328408 781.8217568493951 568.3210232390559 781.8217568493951C583.6101603314717 781.8217568493951 590.0360295442262 789.2816739814434 590.0360295442262 804.1276476798762V841.7226756027728C590.4791929382092 845.9327278456119 594.5415240497206 847.336078593225 599.120879120879 847.9269631185359L599.1947396865429 847.8531025528719ZM557.6112412177986 847.5576602902165C568.9857683300306 847.5576602902165 581.7636461898757 842.6828629564029 581.7636461898757 842.6828629564029V817.2748283680403L558.8668708340839 819.6383664692833C549.4865789947756 820.4508326915857 545.9412718429112 824.9563271970801 545.9412718429112 833.3764316827585C545.9412718429112 842.3874206937473 549.8558818230949 847.5576602902165 557.6112412177986 847.5576602902165ZM608.7227526571788 864.9887537868838C608.7227526571788 856.4209281698779 612.6373626373626 852.8017604523495 620.0972797694109 847.336078593225C617.7337416681679 845.7850067142842 616.5519726175463 842.1658389967558 616.5519726175463 837.8080656225891C616.5519726175463 835.4445275213461 621.0574671230409 826.87670190434 621.0574671230409 826.87670190434C615.0009007386057 824.3654426717694 609.5352188794811 818.7520396813172 609.5352188794811 805.6787195588167C609.5352188794811 788.5430683248048 619.6541163754279 781.8217568493949 634.9432534678435 781.8217568493949C642.255449468564 781.8217568493949 649.6415060349485 783.668270990991 649.6415060349485 783.668270990991L669.9531615925057 783.225107597008V790.6850247290563L655.9196541163752 790.389582466401C658.8740767429291 793.3440050929546 660.9421725815167 797.406336204466 660.9421725815167 805.6787195588165C660.9421725815167 823.4791158838029 652.0789047018554 829.0925188742553 634.4262295081966 829.0925188742553C633.1705998919113 829.0925188742553 628.8128265177444 828.7970766115998 627.2617546388037 828.5016343489444C627.2617546388037 828.5016343489444 624.4550531435776 835.370666955682 624.4550531435776 837.2171810972782C624.4550531435776 843.2737474817134 625.5629616285354 843.9384925726879 642.255449468564 844.0862137040158C661.3114754098359 844.0862137040158 668.4759502792289 847.4837997245525 668.4759502792289 864.3978692615729C668.4759502792289 880.1301697479716 657.987749954963 886.5560389607263 637.7499549630696 886.5560389607263C615.1486218699332 886.5560389607263 608.575031525851 881.2380782329294 608.575031525851 864.9887537868838H608.7227526571788ZM638.0453972257251 879.3177035256697C653.4822554494685 879.3177035256697 660.0558457935507 875.1076512828306 660.0558457935507 864.6933115242284C660.0558457935507 852.7278998866855 655.0333273284092 851.4722702704003 641.8122860745812 851.4722702704003C636.4943253467843 851.4722702704003 625.9322644568546 850.8813857450893 625.9322644568546 850.8813857450893C619.2109529814447 855.6823225132393 617.0689965771932 858.3413028771377 617.0689965771932 864.324008695909C617.0689965771932 875.255372414158 620.8358854260493 879.1699823943418 637.9715366600611 879.1699823943418L638.0453972257251 879.3177035256697ZM634.9432534678435 822.0019045705264C647.8688524590164 822.0019045705264 652.4482075301747 817.6441311963597 652.4482075301747 805.6048589931529C652.4482075301747 793.5655867899463 647.7949918933525 788.7646500217966 634.9432534678435 788.7646500217966C623.1255629616285 788.7646500217966 618.1030444964871 793.4178656586187 618.1030444964871 805.6048589931529C618.1030444964871 817.7918523276874 623.1255629616285 822.0019045705264 634.9432534678435 822.0019045705264ZM704.446045757521 789.5032556784349C695.7304990091874 789.5032556784349 687.90127904882 791.8667937796779 687.90127904882 801.3948067503138C687.90127904882 808.7070027510345 691.3727256350206 810.7750985896221 706.7357232931002 813.3602183878565C724.6838407494145 816.3146410144104 731.4051522248243 819.5645059036196 731.4051522248243 833.0071288544393C731.4051522248243 849.4041744318126 721.1385335975499 854.7959957252733 704.2983246261934 854.7959957252733C695.7304990091875 854.7959957252733 680.2936407854439 852.2847364927027 680.2936407854439 852.2847364927027L680.8845253107547 844.8248193606544C680.8845253107547 844.8248193606544 696.6168257971535 847.1883574618973 703.7813006665465 847.1883574618973C715.820572869753 847.1883574618973 722.8373266078182 844.3816559666711 722.8373266078182 833.4502922484221C722.8373266078182 825.0301877627439 718.6272743649791 823.1836736211478 702.8949738785802 820.8201355199049C686.7933705638621 818.3088762873342 679.333453431814 815.3544536607803 679.333453431814 801.764109578633C679.333453431814 786.4749724862172 691.9636101603313 781.9694779807228 704.1506034948657 781.9694779807228C714.6388038191316 781.9694779807228 728.9677535579174 784.3330160819658 728.9677535579174 784.3330160819658L728.6723112952619 791.792933214014C728.6723112952619 791.792933214014 713.6786164655015 789.5771162440988 704.372185191857 789.5771162440988L704.446045757521 789.5032556784349ZM689.6739326247522 230.45263416879703 693.8839848675913 243.30437259430593C560.4918032786884 289.61494726553633 421.633939830661 334.81761345180905 286.395244100162 375.8840879609066C285.3611961808682 372.70808363736126 283.2931003422805 366.2083538589429 282.1851918573229 363.03234953539766C415.6512340118896 316.64791429850334 554.509097459917 271.51910867789445 689.6739326247521 230.45263416879703M432.4914429832462 180.5967523457021C435.81516843811926 165.01217299063094 439.21275445865604 147.1379160999806 452.4337957124842 137.0928791696978C462.62655377409476 129.85454373464103 474.9612682399567 128.89435638101105 488.0345883624572 128.67277468401954C500.59088452531074 128.82049581534721 512.334714465862 129.85454373464106 522.3797513961448 136.13269181606782C524.0785444064132 137.31446086668933 525.9989191136732 138.71781161430238 527.4022698612863 140.2688834932431C542.6175463880382 157.2568135959273 543.6515943073321 182.7387087499536 547.7139254188435 204.37985448946C513.2210412538282 204.37985448946 462.99585660241394 204.30599392379614 428.5029724373986 204.15827279246844C429.758602053684 196.25519226643712 431.0142316699694 188.35211174040575 432.4914429832462 180.5967523457021M377.3914609980183 322.2613172889555C381.823094937849 320.7841059756787 386.40245000900734 319.2330340967379 390.9818050801657 317.6819622177972L398.8848856061971 217.82247744027964C454.7973338137272 217.6008957432881 521.6411457395064 217.45317461196043 577.5535939470366 217.52703517762427C578.5876418663304 230.3787736031332 579.6216897856242 243.2305120286421 580.655737704918 256.00838988848716C584.0533237254548 254.97434196919335 590.2576112412178 252.98010669626956 593.7290578274184 251.8721982113119C592.5472887767969 237.98641186650917 591.4393802918393 224.17448608737027 590.2576112412178 210.28869974256753L583.6840208971356 204.23213335813233H560.9349666726715C552.7364438839849 155.55802058565888 549.6343001261034 112.71889250062915 488.03458836245716 113.4574981572676C426.6564582958025 112.57117136930147 423.03729057827417 155.33643888866735 415.2080706179066 204.01055166114077H392.4590163934426C392.4590163934426 204.01055166114077 385.51612322104125 210.28869974256753 385.51612322104125 210.28869974256753L375.76652855341376 322.7783412486025L377.3914609980183 322.1874567232917V322.2613172889555ZM604.1433975860205 371.8217568493951C603.9956764546928 370.1968244047905 596.4618987569806 283.4106597497734 596.5357593226445 284.8878710630503C592.1779859484776 286.36508237632717 587.746352008647 287.84229368960405 583.3147180688163 289.319505002881C583.3885786344802 290.27969235651096 583.462439200144 291.3137402758048 583.5362997658078 292.27392762943475L589.8883084128985 373.0035259000166C590.2576112412177 383.56558678994634 593.6551972617546 400.0364929329836 588.9281210592685 410.0076692976026C582.9454152404971 426.7740177032953 565.8836245721491 437.48379972455274 548.3048099441542 436.9667757649058C528.2147360835885 437.9269631185358 508.1246622230228 438.3701265125188 487.96072779679326 438.22240538119115C464.84237074400994 437.853102552872 441.576292559899 437.853102552872 418.53179607277957 435.7850067142843C398.5894433435416 432.68286295640286 383.3003062511258 413.2575341868118 384.92523869573046 393.09359976058226C385.7377049180327 383.04856283029943 387.2887767969735 362.73690727274226 388.1012430192757 352.6180097767956C385.0729598270581 353.57819713042556 375.7665285534137 356.53261975697933 372.59052422986844 357.49280711060925C371.77805800756613 365.61746933363213 370.4485678256169 383.71330792127395 369.63610160331467 392.0595518412884C367.1248423707439 419.90498509655777 388.17510358493956 446.9379521295247 415.72509457755353 451.44344663501926C426.13943433615555 452.99451851396 436.7014952260853 452.84679738263225 447.1896955503512 453.43768190794304C482.86434876598804 454.6194509585645 518.6128625472887 454.0285664332538 554.2875157629255 451.8127494633385C584.1271842911187 450.1139564530701 608.5011709601873 421.82535980381766 605.7683300306251 392.1334124069523C605.7683300306251 392.1334124069523 603.9956764546928 371.8217568493951 603.9956764546928 371.8217568493951H604.1433975860205Z" fill="#000000"/>
</svg>
