<?xml version="1.0" encoding="UTF-8"?>
<!-- source: no dogs.svg -->
<svg xmlns="http://www.w3.org/2000/svg" viewBox="0 0 1000 1000" width="1000" height="1000">
  <path d="M169.76571202808267 722.120536383592H157.4468754026845V632.0347422905962H169.76571202808267V673.3269320964002L183.87387687839905 672.5699086166272L204.65761241398704 632.0347422905962H218.6281366316174L194.6786665442511 677.2496901279516L219.7980820094485 722.1205363835919H205.41463589376013L183.94269719474204 683.4435185988222L169.69689171173968 684.0629014459092V722.1205363835919L169.76571202808267 722.120536383592ZM278.2953509010041 711.7974889321409 278.5706321663762 720.9505910057609C278.5706321663762 720.9505910057609 263.6366235199437 723.565763026795 252.55655258871965 723.565763026795C233.08040306364876 723.565763026795 225.99191048031912 712.5545124119141 225.99191048031912 689.9814486514078C225.99191048031912 665.5502363496405 236.59023919714213 655.2960092145324 253.86413859923678 655.2960092145324C271.13803800133144 655.2960092145324 280.77288228935237 664.7243925535245 280.77288228935237 685.6457687217984L280.0158588095793 694.3859488973602H238.17310647303128C238.31074710571727 706.7047855227585 242.3711457699547 712.967434309972 254.27706049729483 712.967434309972C264.3248266833738 712.967434309972 278.3641712173471 711.7974889321408 278.3641712173471 711.7974889321408L278.2953509010041 711.7974889321409ZM268.86696756201223 684.9575655583684C268.86696756201223 670.2988381773081 264.3936469997168 665.3437754006115 253.86413859923678 665.3437754006115C243.33463019875677 665.3437754006115 238.17310647303128 670.8494007080521 238.03546584034524 684.9575655583684H268.86696756201223ZM307.33752439775293 643.8030163852504H295.2939690377268V630.5895156473931H307.33752439775293V643.8030163852504ZM295.2939690377268 656.7412358577357H307.33752439775293V722.120536383592H295.2939690377268V656.7412358577357ZM337.2743620069608 656.7412358577357V661.076915787345C337.2743620069608 661.076915787345 347.3221281930398 655.2960092145324 356.47523026665965 655.2960092145324C374.50615314852735 655.2960092145324 378.8418330781368 664.9996738188964 378.8418330781368 687.2974563140306V722.0517160672489H366.93591835079667V687.5039172630596C366.93591835079667 672.3634476675982 365.07776980953554 665.9631582476986 353.99769887831144 665.9631582476986C345.5327999681216 665.9631582476986 337.41200263964686 670.1611975446219 337.41200263964686 670.1611975446219V722.051716067249H325.3684472796207V656.6724155413928H337.2743620069608V656.7412358577357ZM445.52871961451024 711.7974889321409 445.80400087988227 720.9505910057609C445.80400087988227 720.9505910057609 430.8699922334498 723.565763026795 419.78992130222576 723.565763026795C400.3137717771549 723.565763026795 393.22527919382514 712.5545124119141 393.22527919382514 689.9814486514078C393.22527919382514 665.5502363496405 403.8236079106482 655.2960092145324 421.09750731274283 655.2960092145324C438.3714067148375 655.2960092145324 448.00625100285845 664.7243925535245 448.00625100285845 685.6457687217984L447.2492275230854 694.3859488973602H405.40647518653736C405.5441158192234 706.7047855227585 409.6045144834608 712.967434309972 421.51042921080096 712.967434309972C431.5581953968799 712.967434309972 445.59753993085326 711.7974889321408 445.59753993085326 711.7974889321408L445.52871961451024 711.7974889321409ZM436.1003362755183 684.9575655583684C436.1003362755183 670.2988381773081 431.62701571322293 665.3437754006115 421.0975073127429 665.3437754006115C410.56799891226285 665.3437754006115 405.40647518653736 670.8494007080521 405.2688345538514 684.9575655583684H436.1003362755184H436.1003362755183ZM505.33357451658304 722.120536383592H493.01473789118484V632.0347422905962H505.33357451658304V671.3999632387961H547.7268893838751V632.0347422905962H560.0457260092733V722.120536383592H547.7268893838751V682.2735732209911H505.3335745165831V722.120536383592H505.33357451658304ZM619.9882215440321 722.120536383592V717.7848564539826C619.9882215440321 717.7848564539826 610.2845569396682 723.5657630267951 601.4067361314203 723.5657630267951C582.9628913514946 723.5657630267951 579.0401333199432 714.4126609531753 579.0401333199432 690.876112763867V656.7412358577358H591.0836886799693V690.876112763867C591.0836886799693 707.1177074208166 592.3912746904864 712.6921530446001 603.4713456217105 712.6921530446001C612.2115257972723 712.6921530446001 619.919401227689 708.6317543803627 619.919401227689 708.6317543803627V656.7412358577357H631.8253159550293V722.120536383592H619.919401227689H619.9882215440321ZM661.8309738805801 656.7412358577357V661.076915787345C661.8309738805801 661.076915787345 671.878740066659 655.2960092145324 681.031842140279 655.2960092145324C699.0627650221468 655.2960092145324 703.3984449517561 664.9996738188964 703.3984449517561 687.2974563140306V722.0517160672489H691.492530224416V687.5039172630596C691.492530224416 672.3634476675982 689.6343816831549 665.9631582476986 678.5543107519308 665.9631582476986C670.020591525398 665.9631582476986 661.9686145132662 670.1611975446219 661.9686145132662 670.1611975446219V722.051716067249H649.92505915324V656.6724155413928H661.8309738805802L661.8309738805801 656.7412358577357ZM742.0066424201827 723.5657630267951C727.2102744064363 723.5657630267951 717.9195317001305 716.4772704434655 717.9195317001305 689.7061673860359C717.9195317001305 666.4449004620997 725.9026883959192 655.2960092145325 745.1035566556181 655.2960092145325C750.6091819630586 655.2960092145325 759.2117215059344 656.7412358577357 760.6569481491376 657.0165171231077V628.937828055161H772.5628628764778V722.120536383592H760.6569481491376V718.1977783520406C760.6569481491376 718.1977783520406 750.8844632284307 723.5657630267951 741.9378221038398 723.5657630267951H742.0066424201827ZM743.658330012415 712.6921530446001C752.0544086062619 712.6921530446001 760.6569481491376 708.6317543803627 760.6569481491376 708.6317543803627V667.2019239418728C759.2117215059345 666.9266426765007 751.3662054428318 665.7566972986697 745.8605801353912 665.7566972986697C734.2299466734231 665.7566972986697 730.0319073764997 673.7398539944584 730.0319073764997 689.706167386036C730.0319073764997 708.6317543803628 735.8128139493123 712.6921530446002 743.658330012415 712.6921530446002V712.6921530446001ZM840.0755932089672 711.7974889321409 840.3508744743393 720.9505910057609C840.3508744743393 720.9505910057609 825.4168658279068 723.565763026795 814.3367948966828 723.565763026795C794.8606453716119 723.565763026795 787.7721527882823 712.5545124119141 787.7721527882823 689.9814486514078C787.7721527882823 665.5502363496405 798.3704815051053 655.2960092145324 815.6443809071999 655.2960092145324C832.9182803092945 655.2960092145324 842.5531245973154 664.7243925535245 842.5531245973154 685.6457687217984L841.7961011175424 694.3859488973602H799.9533487809944C800.0909894136804 706.7047855227585 804.1513880779178 712.967434309972 816.0573028052579 712.967434309972C826.1050689913369 712.967434309972 840.1444135253103 711.7974889321408 840.1444135253103 711.7974889321408L840.0755932089672 711.7974889321409ZM830.6472098699754 684.9575655583684C830.6472098699754 670.2988381773081 826.1738893076799 665.3437754006115 815.6443809071999 665.3437754006115C805.1148725067198 665.3437754006115 799.9533487809944 670.8494007080521 799.8157081483084 684.9575655583684H830.6472098699754ZM314.4260169810826 788.1192197565354 352.4836519187653 871.8047244296314H355.5117458378576V788.1192197565354H363.4949025336464V878.9620373293042H347.80387040744085L309.47095420438615 795.4141732888941H306.58050091797986V878.9620373293042H298.45970358950507V788.1192197565354H314.4260169810826ZM436.1003362755183 845.4465432702599C436.1003362755183 870.1530368373992 430.59471096807783 880.3384436561643 408.77867068734474 880.3384436561643C386.9626304066116 880.3384436561643 381.31936446648507 870.1530368373992 381.31936446648507 845.44654327026C381.31936446648507 822.3229169790097 388.47667736615773 812.3439711092738 408.77867068734474 812.3439711092738C429.0806640085317 812.3439711092738 436.1003362755183 822.2540966626667 436.1003362755183 845.44654327026V845.4465432702599ZM408.77867068734474 873.3875917055205C425.63964819138135 873.3875917055205 428.1171795797296 865.4044350097319 428.1171795797296 845.3777229539169C428.1171795797296 825.3510108981018 423.6438590174342 819.2260027435743 408.77867068734474 819.2260027435743C393.91348235725525 819.2260027435743 389.44016179495986 825.76393279616 389.44016179495986 845.3777229539169C389.44016179495986 864.9915131116737 391.7800525506221 873.3875917055204 408.77867068734474 873.3875917055204V873.3875917055205ZM522.8139348677067 879.0308576456472V874.2134355016367C522.8139348677067 874.2134355016367 512.4908874162556 880.3384436561643 501.8925586994327 880.3384436561643C491.2942299826097 880.3384436561643 478.9065730408685 876.6909668899849 478.9065730408685 847.0982308624921C478.9065730408685 824.2498858366139 485.8574249915122 812.3439711092738 506.3658792617282 812.3439711092738C512.1467858345408 812.3439711092738 520.3364034793585 813.6515571197908 522.8139348677067 814.064479017849V784.6782039393851H530.6594509308095V879.0996779619902H522.8139348677067V879.0308576456472ZM502.7184024955488 873.2499510728346C512.6285280489417 873.2499510728346 522.8827551840498 867.6066851327081 522.8827551840498 867.6066851327081V820.8088700194636C520.2675831630154 820.3959481214056 511.8715045691686 819.2260027435744 506.6411605271001 819.2260027435744C491.0877690335806 819.2260027435744 487.02737036934326 829.1361282969674 487.02737036934326 847.0982308624921C487.02737036934326 870.2218571537423 495.148167697818 873.2499510728346 502.7184024955488 873.2499510728346ZM602.1637596111934 845.4465432702599C602.1637596111934 870.1530368373992 596.6581343037528 880.3384436561643 574.8420940230197 880.3384436561643C553.0260537422866 880.3384436561643 547.38278780216 870.1530368373992 547.38278780216 845.44654327026C547.38278780216 822.3229169790097 554.5401007018328 812.3439711092738 574.8420940230197 812.3439711092738C595.1440873442067 812.3439711092738 602.1637596111934 822.2540966626667 602.1637596111934 845.44654327026V845.4465432702599ZM574.8420940230197 873.3875917055205C591.7030715270564 873.3875917055205 594.1806029154046 865.4044350097319 594.1806029154046 845.3777229539169C594.1806029154046 825.3510108981018 589.7072823531091 819.2260027435743 574.8420940230197 819.2260027435743C559.9769056929304 819.2260027435743 555.5035851306349 825.76393279616 555.5035851306349 845.3777229539169C555.5035851306349 864.9915131116737 557.843475886297 873.3875917055204 574.8420940230197 873.3875917055204V873.3875917055205ZM616.2031041451667 889.9044676278422C616.2031041451667 881.9213109320534 619.850580911346 878.549115431246 626.8014328619897 873.4564120218636C624.5991827390135 872.0111853786606 623.4980576775254 868.6389898778531 623.4980576775254 864.5785912136157C623.4980576775254 862.3763410906396 627.6960969744488 854.3931843948507 627.6960969744488 854.3931843948507C622.0528310343223 852.0532936391885 616.9601276249398 846.82294959712 616.9601276249398 834.6417536044078C616.9601276249398 818.6754402128303 626.3885109639316 812.4127914256165 640.634316446934 812.4127914256165C647.4475277648917 812.4127914256165 654.3295593991922 814.1332993341917 654.3295593991922 814.1332993341917L673.2551463935191 813.7203774361337V820.6712293867774L660.1792862883478 820.3959481214054C662.9320989420681 823.1487607751257 664.8590677996723 826.933878173991 664.8590677996723 834.6417536044077C664.8590677996723 851.2274498430722 656.6006298385115 856.4577938851407 640.152574232533 856.4577938851407C638.9826288547017 856.4577938851407 634.9222301904643 856.1825126197688 633.4770035472612 855.9072313543968C633.4770035472612 855.9072313543968 630.861831526227 862.3075207742964 630.861831526227 864.0280286828715C630.861831526227 869.6712946229981 631.8941362713722 870.2906774700851 647.4475277648917 870.4283181027712C665.2031693813873 870.4283181027712 671.8787400666589 873.5940526545495 671.8787400666589 889.353905097098C671.8787400666589 904.0126324781585 662.106255145952 910.0 643.2494884679681 910.0C622.1904716670082 910.0 616.0654635124806 905.0449372233036 616.0654635124806 889.9044676278421L616.2031041451667 889.9044676278422ZM643.5247697333405 903.1867886820424C657.9082158490288 903.1867886820424 664.0332240035564 899.2640306504911 664.0332240035564 889.5603660461271C664.0332240035564 878.41147479856 659.3534424922319 877.2415294207289 647.0346058668338 877.2415294207289C642.0795430901373 877.2415294207289 632.2382378530873 876.6909668899848 632.2382378530873 876.6909668899848C625.9755890658737 881.1642874522803 623.9797998919264 883.6418188406285 623.9797998919264 889.216264464412C623.9797998919264 899.4016712831769 627.4896360254198 903.0491480493564 643.4559494169973 903.0491480493564L643.5247697333405 903.1867886820424ZM640.634316446934 849.8510435162123C652.6778718069602 849.8510435162123 656.9447314202266 845.7906448519749 656.9447314202266 834.5729332880649C656.9447314202266 823.3552217241548 652.6090514906173 818.8819011618593 640.634316446934 818.8819011618593C629.623065832053 818.8819011618593 624.9432843207286 823.2175810914687 624.9432843207286 834.5729332880649C624.9432843207286 845.9282854846609 629.623065832053 849.8510435162123 640.634316446934 849.8510435162123ZM705.3942341257033 819.5012840089464C697.2734367972284 819.5012840089464 689.9784832648699 821.7035341319225 689.9784832648699 830.5813549401704C689.9784832648699 837.3945662581281 693.2130381329912 839.3215351157322 707.5276639323365 841.7302461877375C724.2510008036871 844.4830588414578 730.5136495909007 847.5111527605501 730.5136495909007 860.0364503349773C730.5136495909007 875.3145605631248 720.9476256192229 880.3384436561643 705.2565934930174 880.3384436561643C697.2734367972286 880.3384436561643 682.8899906815402 877.998552900502 682.8899906815402 877.998552900502L683.4405532122842 871.0477009498583C683.4405532122842 871.0477009498583 698.0992805933446 873.2499510728345 704.7748512786162 873.2499510728345C715.9925628425262 873.2499510728345 722.5304928951119 870.6347790518003 722.5304928951119 860.4493722330352C722.5304928951119 852.6038561699326 718.6077348635606 850.8833482613574 703.9490074825001 848.6810981383811C688.9461785197246 846.341207382719 681.995326569081 843.5883947289988 681.995326569081 830.9254565218855C681.995326569081 816.6796510388831 693.7636006637351 812.4816117419597 705.1189528603312 812.4816117419597C714.8914377810382 812.4816117419597 728.2425791515815 814.6838618649358 728.2425791515815 814.6838618649358L727.9672978862094 821.6347138155795C727.9672978862094 821.6347138155795 713.9967736685791 819.5701043252893 705.3254138093602 819.5701043252893L705.3942341257033 819.5012840089464ZM429.56240622293274 402.86308886838424C429.0806640085317 385.52036914994653 428.1171795797296 368.0400087988229 426.25903103846844 350.7661093967282C421.78571047617305 351.93605477455935 417.3812102302206 353.1060001523905 412.97670998426815 354.2071252138785C416.28008516873246 381.66643143473823 417.51885086290656 410.0204017680569 417.79413212827865 437.7549892542886H429.7688671719618C429.8376874883048 427.4319418028376 429.7688671719618 413.25495663617824 429.4935859065898 402.93190918472726L429.56240622293274 402.86308886838424ZM627.3519953927338 431.28587951804593C626.5949719129608 408.2998938594817 618.0612526864279 386.0021113643477 613.0373695933883 363.9796101345855C610.5598382050401 343.6776168133985 612.3491664299584 321.3798343182644 604.7789316322276 301.7660441605075C600.5808923353042 302.9359895383386 596.3140327220377 304.1747552325128 591.9783527924283 305.48234124302985C591.9783527924283 305.5511615593729 592.1848137414574 305.89526314108787 592.1848137414574 305.9640834574309C600.0303298045601 325.44023298250175 597.415157783526 347.73801547763594 600.9938142333622 368.4529306968809C606.8435411225178 391.3012757227591 615.5837212980797 414.08080043229427 615.5837212980797 437.89262988697453L627.4896360254198 437.61734862160256C627.4896360254198 435.6903797639984 627.4896360254198 433.2816686919931 627.3519953927339 431.35469983438895L627.3519953927338 431.28587951804593ZM339.9583543443381 229.3670713676645C341.1971200385122 240.1030407171735 346.70274534595274 251.38957259742662 357.0257927974037 255.93171347606506C365.9724339219946 258.7533464461283 377.67188770030566 261.3685184671626 386.7561694575826 263.91487017185386C394.5328652043424 283.3221993805817 403.20422506356124 302.72952858930955 407.8840065748857 323.0315219104965C412.4261474535241 321.7927562163224 416.96828833216256 320.4851702058053 421.51042921080096 319.17758419528815C419.23935877148176 307.89105231503504 415.45424137261637 297.086262649183 411.669123973751 286.350293299674C427.1536951509275 280.22528514514636 441.8124225319879 272.17330813301464 455.37002485156023 262.4696435286507C473.53858836611397 278.2983162875422 502.03019933211874 274.8573004703919 524.3279818272529 277.0595505933681C536.371537187279 277.9542147058272 548.4839128636481 278.3671366038852 560.3210072746454 280.4317460941754C567.8912420723761 281.4640508393205 576.4937816152519 276.78426932799607 583.9263757802967 275.61432395016493C574.9109143393628 269.42049547929435 564.0373043571676 266.53004219288806 553.2325146913156 265.497737447743C537.6103028814532 263.7772295391678 516.3448251314642 262.4008232123077 500.5161523725726 261.3685184671626C492.67063630946984 260.74913562007555 485.0315811953961 260.1985730893315 477.5301667140084 257.99632296635525C462.1144158531749 254.4864868328619 456.2646889640193 239.48365787008646 450.34614175852073 226.40779776491522C444.0834929713071 212.23081259825585 433.3475236217981 198.26028838062552 417.79413212827853 193.58050686930108C405.8882174009384 189.17600662334863 392.81235729576713 192.823483389528 381.38818478282803 196.33331952302132C381.38818478282803 196.33331952302132 376.9836845368756 199.84315565651468 376.9836845368756 199.84315565651468L371.2715982804061 209.8221015262506C362.94434000290227 211.40496880213976 353.58477698025337 213.67603924145897 345.3951593354356 215.7406487317492C345.3951593354356 215.7406487317492 340.3712762423961 220.62689119210268 340.3712762423961 220.62689119210268C339.683073078966 223.37970384582292 339.61425276262304 226.40779776491522 339.9583543443381 229.16061041863549V229.3670713676645ZM390.541286856448 264.87835460065594C390.541286856448 264.87835460065594 390.610107172791 264.87835460065594 390.610107172791 264.87835460065594H390.541286856448ZM355.6493864705436 227.64656345908932C362.5314181048443 226.40779776491522 370.170473218918 224.96257112171207 377.0525048532187 224.205547641939L382.6269504770022 220.48925055941666C382.6269504770022 220.48925055941666 388.5454976825008 210.02856247527964 388.5454976825008 210.02856247527964C397.76742007246366 207.3445701379024 407.60872530951366 204.72939811686814 416.5553664341045 209.34035931184957C432.93460172374006 216.42885189517926 437.06382070432045 236.24910300196515 445.8728211962253 250.70136943399658C433.6228048871701 259.44154960955836 420.40930414931285 266.5988625092311 406.5076002480255 272.1044878166716C404.2365298087063 266.18594061117307 401.9654593693871 260.2673934056745 399.62556861372485 254.34884620017593C399.5567482973819 254.34884620017593 394.3952245716564 249.73788500519447 394.25758393897036 249.8067053215375C394.25758393897036 249.8067053215375 378.36009086373576 246.15922855535814 378.36009086373576 246.15922855535814C373.6114890360683 244.920462861184 366.66063708542464 243.7505174833529 362.04967589044315 242.23647052380676C356.9569724810607 239.6212985027725 354.5482614090555 233.3586497155589 353.58477698025337 227.92184472446135L355.6493864705436 227.50892282640334V227.64656345908932ZM647.6539887139207 157.44984078922258C503.06250407726384 13.064817101594656 254.9652636607249 115.88236971804656 254.75880271169586 320.1410686240902C252.21245100700463 443.87999740881617 361.2238320943271 552.8913784961386 484.89394056271004 550.2762064751043C689.2214597850967 550.0697455260754 791.9701920852057 301.9725051095365 647.6539887139207 157.38102047287953V157.44984078922258ZM269.8304519908143 320.1410686240902C275.74899919631287 73.55787516709748 612.0050648482433 23.11258328767363 690.3225848465848 256.2069947414371C553.2325146913156 290.96125449465546 411.256202075693 329.43181133039616 275.3360772982549 368.52175101322393C271.7574208484186 352.96835951970445 269.83045199081437 336.7955851790979 269.83045199081437 320.1410686240902H269.8304519908143ZM484.89394056271004 535.2045571959859C387.37555230466967 535.2045571959859 304.8599930094047 469.9628973028157 278.5706321663762 380.8405876386221C415.66070232164543 346.08632788540376 557.7746555699541 307.684591366006 693.6947803473921 268.5258313668353C728.1049385188954 401.349041908838 622.3969326160372 537.0627057372473 484.825120246367 535.2045571959859H484.89394056271004ZM591.7030715270564 422.8209806078561C590.0513839348242 408.71281575753983 584.8210398927557 395.0175728052815 577.250805095025 382.9740174452553C568.3041639704342 367.9711884824799 554.7465616508618 355.9276331224537 546.625764322387 340.58070257796317L538.9178888919703 336.4514835973828L465.4866113539822 344.64110124220053L458.3981187706525 352.4866173053033C457.29699370916444 380.634126689593 446.0792821452543 408.16225322679566 448.28153226823054 436.86032514182943H460.3250876282567C459.8433454138557 410.2956830334289 470.0975725489636 385.8644707316615 473.882689947829 359.781570837662L535.752154340192 352.28015635627423C544.6299751484398 365.9753993085326 556.879991457495 376.7801889743846 565.7578122657428 390.3377912939569C575.1861956047347 404.03303424621527 580.3477193304602 420.34344921950776 580.4853599631463 436.9979657745155L592.4600950068295 436.7226845091434C592.4600950068295 432.31818426319103 592.2536340578004 427.22548085380845 591.7030715270564 422.75216029151306V422.8209806078561Z" fill="#000000"/>
</svg>
