<?xml version="1.0" encoding="UTF-8"?>
<!-- source: no-photos.svg -->
<svg xmlns="http://www.w3.org/2000/svg" viewBox="0 0 1000 1000" width="1000" height="1000">
  <path d="M139.14383797324217 687.5617373092489H124.43513866713045V579.9992379142755H139.14383797324217V629.3021406163259L155.98899639644276 628.3982540667882L180.80479075647483 579.9992379142755H197.48560617066858L168.88992260347928 633.9859163730207L198.88252174722666 687.5617373092489H181.70867730601242L156.07116790094616 641.381351778328L139.06166646873874 642.1208953188589V687.5617373092489H139.14383797324217ZM268.72830057513147 675.2360116337363 269.0569865931452 686.1648217326908C269.0569865931452 686.1648217326908 251.22577011590357 689.2873389038207 237.99615789085337 689.2873389038207C214.74162211638622 689.2873389038207 206.27795715253424 676.1398981832738 206.27795715253424 649.1876447061529C206.27795715253424 620.0167606074397 218.93236884606054 607.7732064364304 239.5574164764183 607.7732064364304C260.1824641067761 607.7732064364304 271.68647473725457 619.0307025533987 271.68647473725457 644.0108399224378L270.78258818771695 654.4466209943716H220.82231344963913C220.98665645864594 669.1553203004835 225.8347752243476 676.6329272102944 240.05044550343882 676.6329272102944C252.04748516093775 676.6329272102944 268.8104720796349 675.2360116337363 268.8104720796349 675.2360116337363H268.72830057513147ZM257.47080445816334 643.1891248774034C257.47080445816334 625.6865944181754 252.1296566654412 619.7702460939295 239.5574164764183 619.7702460939295C226.9851762873954 619.7702460939295 220.82231344963913 626.3439664542029 220.65797044063228 643.1891248774034H257.47080445816334ZM303.40467547557364 594.0505651843598H289.0246621874756V578.2736363197037H303.40467547557364V594.0505651843598ZM289.0246621874756 609.4988080310022H303.40467547557364V687.5617373092489H289.0246621874756V609.4988080310022ZM339.14927993456024 609.4988080310022V614.6756128147176C339.14927993456024 614.6756128147176 351.1463195920592 607.7732064364304 362.07512969101373 607.7732064364304C383.60406387090904 607.7732064364304 388.78086865462444 619.3593885714124 388.78086865462444 645.9829560305197V687.4795658047453H374.5651983755332V646.2294705440299C374.5651983755332 628.151739553278 372.3465677539409 620.5097896344603 359.1169555288907 620.5097896344603C348.927688970467 620.5097896344603 339.3136229435671 625.5222514091688 339.3136229435671 625.5222514091688V687.4795658047456H324.933609655469V609.4166365264989H339.14927993456024V609.4988080310022ZM468.4050565184359 675.2360116337363 468.73374253644954 686.1648217326908C468.73374253644954 686.1648217326908 450.90252605920796 689.2873389038207 437.6729138341577 689.2873389038207C414.41837805969067 689.2873389038207 405.95471309583866 676.1398981832738 405.95471309583866 649.1876447061529C405.95471309583866 620.0167606074397 418.60912478936496 607.7732064364304 439.23417241972265 607.7732064364304C459.85922005008047 607.7732064364304 471.3632306805589 619.0307025533987 471.3632306805589 644.0108399224378L470.45934413102134 654.4466209943716H420.4990693929435C420.6634124019504 669.1553203004835 425.51153116765204 676.6329272102944 439.72720144674327 676.6329272102944C451.7242411042422 676.6329272102944 468.48722802293935 675.2360116337363 468.48722802293935 675.2360116337363H468.4050565184359ZM457.1475604014678 643.1891248774034C457.1475604014678 625.6865944181754 451.80641260874563 619.7702460939295 439.23417241972277 619.7702460939295C426.6619322306999 619.7702460939295 420.4990693929435 626.3439664542029 420.33472638393675 643.1891248774034H457.1475604014678ZM587.5537380483912 592.9823356258154H536.6895767607758V632.0138002649387H579.3365875980495V644.9968979764787H536.6895767607758V687.6439088137524H521.9808774546641V580.0814094187788H587.5537380483912V593.0645071303188V592.9823356258154ZM664.2197517500797 647.7085576250915C664.2197517500797 674.9073256157226 656.7421448402687 689.2051673993174 630.2007488856649 689.2051673993174C603.659352931061 689.2051673993174 596.0174030122432 674.8251541112193 596.0174030122432 647.7085576250915C596.0174030122432 620.5919611389638 604.7275824896055 607.7732064364307 630.2007488856649 607.7732064364307C655.6739152817242 607.7732064364307 664.2197517500797 621.6601906975081 664.2197517500797 647.7085576250915ZM630.2007488856649 676.9616132283081C646.7172212908519 676.9616132283081 649.7575669574783 667.9227477329323 649.7575669574783 647.7907291295949C649.7575669574783 627.6587105262577 645.4024772187971 620.1811036164468 630.2007488856649 620.1811036164468C614.9990205525327 620.1811036164468 610.6439308138515 627.9873965442714 610.6439308138515 647.7907291295949C610.6439308138515 667.5940617149186 613.6021049759746 676.9616132283081 630.2007488856649 676.9616132283081ZM709.8249367494765 676.4685842012875C714.1800264881576 676.4685842012875 723.2188919835335 675.7290406607567 723.2188919835335 675.7290406607567L724.0406070285676 687.397394300242C724.0406070285676 687.397394300242 713.6048259566336 689.2873389038207 708.0993351549047 689.2873389038207C691.2541767317041 689.2873389038207 685.7486859299751 682.8779615525541 685.7486859299751 660.4451408231212V621.9067052110183H675.1485618490342V609.5809795355058H685.7486859299751V586.3264437610386H699.9643562090664V609.5809795355058H723.0545489745267V621.9067052110183H699.9643562090664V657.6513096700048C699.9643562090664 672.0313229581029 700.7038997495971 676.5507557057908 709.8249367494765 676.5507557057908V676.4685842012875ZM801.9391932978074 647.7085576250915C801.9391932978074 674.9073256157226 794.4615863879965 689.2051673993174 767.9201904333926 689.2051673993174C741.3787944787887 689.2051673993174 733.7368445599709 674.8251541112193 733.7368445599709 647.7085576250915C733.7368445599709 620.5919611389638 742.4470240373332 607.7732064364307 767.9201904333926 607.7732064364307C793.3933568294519 607.7732064364307 801.9391932978074 621.6601906975081 801.9391932978074 647.7085576250915ZM767.9201904333926 676.9616132283081C784.4366628385795 676.9616132283081 787.4770085052058 667.9227477329323 787.4770085052058 647.7907291295949C787.4770085052058 627.6587105262577 783.1219187665248 620.1811036164468 767.9201904333926 620.1811036164468C752.7184621002604 620.1811036164468 748.3633723615792 627.9873965442714 748.3633723615792 647.7907291295949C748.3633723615792 667.5940617149186 751.3215465237023 676.9616132283081 767.9201904333926 676.9616132283081ZM845.3257476756119 620.7563041479705C835.7938531532154 620.7563041479705 830.0418478379762 623.1392777785697 830.0418478379762 630.9455707063942C830.0418478379762 637.1906050486541 833.6573940361266 638.9162066432257 849.5164944052862 641.710037796342C868.5802834500789 644.9968979764787 875.5648613328696 649.1876447061529 875.5648613328696 664.6358875527956C875.5648613328696 682.8779615525541 863.9786791978877 689.2873389038207 844.9970616575982 689.2873389038207C834.725623594671 689.2873389038207 816.8944071174294 686.000478723684 816.8944071174294 686.000478723684L817.5517791534568 673.8390960571783C817.5517791534568 673.8390960571783 835.7938531532154 676.3042411922806 843.7644890900469 676.3042411922806C855.7615287475459 676.3042411922806 861.4313625582818 673.8390960571783 861.4313625582818 665.0467450753124C861.4313625582818 658.1443386970254 857.9801593691382 656.3365655979501 841.792372981965 653.7892489583442C824.4541855317439 650.995417805228 815.9083490633884 647.3798716070776 815.9083490633884 631.2742567244079C815.9083490633884 613.9360692741868 829.6309903154591 607.855377940934 844.5040326305777 607.855377940934C856.0902147655595 607.855377940934 873.3462307112773 610.9778951120638 873.3462307112773 610.9778951120638L873.0175446932635 623.1392777785695C873.0175446932635 623.1392777785695 855.1041567115185 620.6741326434671 845.4079191801153 620.6741326434671L845.3257476756119 620.7563041479705ZM191.4870863419191 766.4463816325297 236.92792833230897 866.3669311086853H240.54347453045932V766.4463816325297H250.07536905285573V874.9127675770408H231.34026602607656L185.57073801767302 775.156561109892H182.1195348285295V874.9127675770408H172.42329729712625V766.4463816325297H191.4870863419191ZM336.84847780846457 834.813073379373C336.84847780846457 864.3126434960998 330.27475744819117 876.4740261626057 304.2263905206079 876.4740261626057C278.17802359302453 876.4740261626057 271.43996022374427 864.3126434960998 271.43996022374427 834.813073379373C271.43996022374427 807.2034478662249 279.9857966920997 795.2885797132292 304.2263905206079 795.2885797132292C328.46698434911605 795.2885797132292 336.84847780846457 807.1212763617214 336.84847780846457 834.813073379373ZM304.2263905206079 868.1747042077604C324.35840912394514 868.1747042077604 327.3165832860682 858.642809685364 327.3165832860682 834.7309018748695C327.3165832860682 810.8189940643749 321.975435493346 803.5057301635709 304.2263905206079 803.5057301635709C286.4773455478697 803.5057301635709 281.1361977551476 811.3120230913955 281.1361977551476 834.7309018748695C281.1361977551476 858.1497806583434 283.93002890826375 868.1747042077604 304.2263905206079 868.1747042077604ZM400.53139379861307 796.8498382987941V802.7661866230401C400.53139379861307 802.7661866230401 412.69277646511887 795.2885797132292 425.1828451496383 795.2885797132292C444.7396632214517 795.2885797132292 452.9568136717935 807.6143053887417 452.9568136717935 834.813073379373C452.9568136717935 864.9700155321273 443.42491914939706 876.4740261626057 419.2664968253923 876.4740261626057C411.46020389756757 876.4740261626057 403.3252249517293 875.0771105860476 400.53139379861307 874.4197385500204V910.0H391.32818529423037V796.8498382987941H400.53139379861307ZM418.9378108073786 868.1747042077604C437.01554179813047 868.1747042077604 443.2605761403902 858.8071526943709 443.2605761403902 834.7309018748695C443.2605761403902 811.969395127423 436.3581697621031 803.6700731725778 424.1967870955974 803.6700731725778C412.0354044290916 803.6700731725778 400.44922229410975 810.7368225598716 400.44922229410975 810.7368225598716V866.2847596041818C403.0787104382191 866.7777886312024 411.37803239306425 868.1747042077604 418.85563930287526 868.1747042077604H418.9378108073786ZM472.92448926612394 762.1734633983519H482.12769777050664V801.369271046482C482.12769777050664 801.369271046482 495.27513849105344 795.2885797132292 507.43652115755924 795.2885797132292C528.8011123284477 795.2885797132292 533.4848880851425 805.313503262646 533.4848880851425 833.827015325332V874.9127675770408H524.117336571753V834.3200443523524C524.117336571753 811.3941945958989 521.6521914366505 803.7522446770811 506.1217770855045 803.7522446770811C493.9603944189988 803.7522446770811 482.12769777050664 809.0933924698033 482.12769777050664 809.0933924698033V874.9949390815441H472.92448926612394V762.2556349028555V762.1734633983519ZM618.2858807326694 834.813073379373C618.2858807326694 864.3126434960998 611.712160372396 876.4740261626057 585.6637934448127 876.4740261626057C559.6154265172294 876.4740261626057 552.877363147949 864.3126434960998 552.877363147949 834.813073379373C552.877363147949 807.2034478662249 561.4231996163045 795.2885797132292 585.6637934448127 795.2885797132292C609.9043872733208 795.2885797132292 618.2858807326694 807.1212763617214 618.2858807326694 834.813073379373ZM585.6637934448127 868.1747042077604C605.79581204815 868.1747042077604 608.753986210273 858.642809685364 608.753986210273 834.7309018748695C608.753986210273 810.8189940643749 603.4128384175509 803.5057301635709 585.6637934448127 803.5057301635709C567.9147484720745 803.5057301635709 562.5736006793524 811.3120230913955 562.5736006793524 834.7309018748695C562.5736006793524 858.1497806583434 565.3674318324686 868.1747042077604 585.6637934448127 868.1747042077604ZM663.5623797140523 868.1747042077604C667.9174694527335 868.1747042077604 677.9423930021504 867.1064746492161 677.9423930021504 867.1064746492161L678.5997650381778 875.0771105860476C678.5997650381778 875.0771105860476 668.3283269752505 876.6383691716126 662.8228361735215 876.6383691716126C647.3745933268791 876.6383691716126 641.7869310206466 870.8863638563732 641.7869310206466 848.371371622437V805.1491602536394H630.2007488856649V796.8498382987941H641.7869310206466V772.3627299567756H651.1544825340363V796.8498382987941H677.2028494616196V805.1491602536394H651.1544825340363V843.687595865742C651.1544825340363 863.2444139375555 652.3870551015876 868.1747042077604 663.6445512185558 868.1747042077604H663.5623797140523ZM753.9510346678115 834.813073379373C753.9510346678115 864.3126434960998 747.3773143075382 876.4740261626057 721.3289473799548 876.4740261626057C695.2805804523715 876.4740261626057 688.5425170830913 864.3126434960998 688.5425170830913 834.813073379373C688.5425170830913 807.2034478662249 697.0883535514467 795.2885797132292 721.3289473799548 795.2885797132292C745.5695412084629 795.2885797132292 753.9510346678115 807.1212763617214 753.9510346678115 834.813073379373ZM721.3289473799548 868.1747042077604C741.4609659832921 868.1747042077604 744.4191401454152 858.642809685364 744.4191401454152 834.7309018748695C744.4191401454152 810.8189940643749 739.077992352693 803.5057301635709 721.3289473799548 803.5057301635709C703.5799024072167 803.5057301635709 698.2387546144945 811.3120230913955 698.2387546144945 834.7309018748695C698.2387546144945 858.1497806583434 701.0325857676107 868.1747042077604 721.3289473799548 868.1747042077604ZM797.6662750636298 803.916587686088C787.9700375322265 803.916587686088 779.2598580548643 806.5460758301972 779.2598580548643 817.1461999111382C779.2598580548643 825.2811788569766 783.1219187665249 827.5819809830721 800.2135917032357 830.457983640692C820.1812672975661 833.7448438208287 827.6588742073772 837.3603900189789 827.6588742073772 852.315603838601C827.6588742073772 870.5576778383595 816.2370350814022 876.556197667109 797.5019320546229 876.556197667109C787.9700375322266 876.556197667109 770.7961930910122 873.7623665139929 770.7961930910122 873.7623665139929L771.4535651270396 865.4630445591476C771.4535651270396 865.4630445591476 788.9560955862675 868.0925327032569 796.926731523099 868.0925327032569C810.320686757156 868.0925327032569 818.1269796849806 864.970015532127 818.1269796849806 852.8086328656213C818.1269796849806 843.4410813522318 813.4432039282859 841.3867937396462 795.9406734690579 838.757305595537C778.0272854873128 835.9634744424206 769.7279635324677 832.6766142622841 769.7279635324677 817.5570574336552C769.7279635324677 800.5475560014479 783.779290802552 795.5350942267394 797.337589045616 795.5350942267394C809.0059426851013 795.5350942267394 824.9472145587642 798.1645823708486 824.9472145587642 798.1645823708486L824.6185285407505 806.4639043256939C824.6185285407505 806.4639043256939 807.9377131265568 803.9987591905913 797.5841035591261 803.9987591905913L797.6662750636298 803.916587686088ZM645.3203057142937 346.7143366290733C621.4905694083027 347.53605167410745 584.0203633547443 349.17948176417576 559.944112535243 350.3298828272236C538.6616928688578 350.3298828272236 501.9310303558302 350.1655398182168 480.3199246714315 350.1655398182168C458.6266474825293 350.1655398182168 422.06032797850844 350.3298828272236 400.69573680761994 350.3298828272236C376.5373144836152 349.2616532686792 339.2314514390637 347.6182231786109 315.31954362856925 346.7143366290733V318.6116820889045L297.89918467384473 324.28151589964034V355.0958300884219L306.11633512418643 363.80600956578417C333.7259606373347 365.94246868287297 372.5930822674512 368.3254423134721 400.53139379861307 370.0510439080439C421.8959849695017 370.29755842155413 458.6266474825293 370.29755842155413 480.3199246714315 370.3797299260575C502.0953733648371 370.3797299260575 538.6616928688579 370.29755842155413 560.1084555442499 370.0510439080439C588.0467670754117 368.3254423134721 626.7495456965214 365.94246868287297 654.5235142186765 363.80600956578417L662.8228361735218 355.0958300884219V205.62586339670548L645.4024772187971 211.29569720744126V346.7143366290733H645.3203057142937ZM315.31954362856925 245.72555759437319V147.77712422629958L410.88500336604375 142.7646624515911L419.10215381638545 135.04054102826987L422.06032797850855 108.08828755114895C460.4344205816045 107.43091551512161 500.20542876125853 107.51308701962503 538.5795213643545 108.08828755114895L541.5376955264775 135.04054102826987L549.7548459768193 142.7646624515911L645.3203057142937 147.77712422629958V168.32000035215395L662.7406646690182 162.65016654141817V139.47780227145444L654.5235142186765 130.76762279409218L558.0541679316644 125.6729895148803L555.0959937695413 98.55639302875252L546.4679857966826 90.83227160543129C502.670573896361 89.76404204688686 457.9692754465019 89.68187054238344 414.2540350506838 90.83227160543127L405.62602707782503 98.55639302875252L402.66785291570204 125.67298951488029L306.19850662868987 130.68545128958874L297.98135617834816 139.395630766951V281.305819044353L315.4017151330727 275.63598523361713V245.56121458536637L315.31954362856925 245.72555759437319ZM425.51153116765204 282.7849061254145C421.1564414289709 284.1818217019726 412.36409044710524 287.0578243595922 408.0090007084241 288.4547399361503C423.62158656407337 312.7775052691619 450.90252605920796 328.9652916563351 481.9633547614998 328.9652916563351C532.1701440130879 329.12963466534194 572.7628672377762 285.98959480104776 569.4760070576393 235.86497705396312C565.1209173189583 237.2618926305212 556.3285663370925 240.1378952881408 551.9734765984115 241.53481086469893C551.4804475713909 308.9976160620047 464.78951032028556 336.36072706164265 425.5115311676519 282.7027346209111L425.51153116765204 282.7849061254145ZM394.6972169788704 249.9163043240475C398.97013521304825 248.5193887474894 407.68031469041046 245.64338608986978 412.0354044290915 244.2464705133117C410.3098028345198 204.63980534266446 442.3566895908526 171.19600300977356 482.0455262660032 171.27817451427697C506.2861200945114 171.27817451427697 527.7328827699033 183.686071694293 540.3051229589262 202.5033462255756C544.5780411931039 201.1064306490175 553.2882206704661 198.3125994959013 557.6433104091473 196.91568391934322C509.6551517791514 117.12715304652485 386.8909240510458 155.9942746766413 394.77938848337385 249.91630432404747L394.6972169788704 249.9163043240475ZM742.036166514816 149.1740398028577C567.7504054630676 202.09248870305854 388.698697150121 260.3520853959815 216.54939521546135 320.1729406744694C217.86413928751602 324.2815158996403 220.57579893612882 332.5808378544855 221.9727145126869 336.77158458415977C396.34064706893867 283.85313568395884 575.3923553818854 225.5113674865325 747.4594858120415 165.772683712548L742.036166514816 149.17403980285766V149.1740398028577Z" fill="#000000"/>
</svg>
