<?xml version="1.0" encoding="UTF-8"?>
<!-- source: organic.svg -->
<svg xmlns="http://www.w3.org/2000/svg" viewBox="0 0 1000 1000" width="1000" height="1000">
  <path d="M327.1002780674313 646.3573166492874C327.1002780674313 657.9718456725756 323.1812652068126 663.1734445603059 316.127042057699 667.2349669794926C325.4614181438999 671.2964893986792 329.23792144595063 677.4956551963852 329.23792144595063 688.8964198818214C329.23792144595063 707.7076816127912 318.54970455335416 715.4031977754606 299.59593326381645 715.4031977754606H267.5312825860271V622.7007299270074H298.9546402502607C315.7707681612791 622.7007299270074 327.10027806743136 629.6124435175531 327.10027806743136 646.3573166492874H327.1002780674313ZM299.09714980882865 661.8196037539104C307.79023288147374 661.8196037539104 311.70924574209243 656.2617309697603 311.70924574209243 648.1386861313869C311.70924574209243 639.5881126173097 307.50521376433784 635.669099756691 298.9546402502607 635.669099756691H282.70855057351406V661.8196037539104H299.09714980882865ZM299.4534237052485 702.4348279457769C309.21532846715326 702.4348279457769 313.70437956204375 697.6607577337505 313.70437956204375 687.8275981925618C313.70437956204375 678.4932221063609 308.93030935001735 674.4316996871743 299.2396593673966 674.4316996871743H282.70855057351406V702.434827945777H299.5246784845325L299.4534237052485 702.4348279457769ZM342.84758428919014 621.9169273548837H357.73983315954115V637.5929787973585H342.84758428919014V621.9169273548837ZM357.5973236009732 647.7111574556831V715.4031977754606H342.9900938477581V647.7111574556831H357.5973236009732ZM426.3581856100104 681.3434132777198C426.3581856100104 701.651025373653 421.5128606187001 716.970802919708 398.6400764685436 716.970802919708C375.7672923183872 716.970802919708 370.9219673270768 701.651025373653 370.9219673270768 681.3434132777198C370.9219673270768 661.0358011817866 376.9073687869308 646.4285714285714 398.6400764685436 646.4285714285714C420.3727841501564 646.4285714285714 426.3581856100104 660.8932916232186 426.3581856100104 681.3434132777198ZM398.5688216892596 704.4299617657283C410.46836982968364 704.4299617657283 412.24973931178306 694.8105665623915 412.24973931178306 681.2721584984359C412.24973931178306 667.7337504344804 409.68456725755993 658.8269030239834 398.5688216892596 658.8269030239834C387.4530761209593 658.8269030239834 384.88790406673616 667.5199860966285 384.88790406673616 681.2721584984359C384.88790406673616 695.0243309002434 386.52676399026757 704.4299617657283 398.5688216892596 704.4299617657283ZM436.76138338547094 682.6972540841155C436.76138338547094 661.8908585331944 442.0342370524852 646.2860618700036 464.1232186305179 646.2860618700036C473.17257559958284 646.2860618700036 491.62756343413275 648.7087243656588 491.62756343413275 648.7087243656588V697.3044838373307C491.62756343413275 702.0785540493572 492.26885644768856 715.3319429961767 492.26885644768856 715.3319429961767L477.6616266944734 715.9019812304485C477.6616266944734 715.9019812304485 476.94907890163364 710.4866180048663 476.94907890163364 705.9975669099758C476.94907890163364 705.9975669099758 470.7499131039277 716.9708029197083 459.20663885992354 716.9708029197083C442.675530066041 716.9708029197083 436.761383385471 705.3562738964201 436.761383385471 682.6972540841156L436.76138338547094 682.6972540841155ZM462.4843587069864 704.4299617657283C471.0349322210636 704.4299617657283 476.9490789016337 692.9579423010081 476.9490789016337 692.9579423010081V659.824469933959C476.9490789016337 659.824469933959 468.6835245046924 658.7556482446994 465.47705943691346 658.7556482446994C454.64633298574904 658.7556482446994 451.653632255822 666.8786930830727 451.653632255822 682.6972540841153C451.653632255822 695.6656239137991 453.57751129648943 704.5012165450122 462.4843587069864 704.5012165450122V704.4299617657283ZM562.6685783802573 680.3458463677442C562.6685783802573 706.4963503649635 553.1916927354883 716.7570385818561 532.3140424052833 716.7570385818561C525.2598192561695 716.7570385818561 507.80239833159544 715.1181786583246 507.80239833159544 715.1181786583246V619.5655196385123H522.4096280848105V653.839068474105C522.4096280848105 653.839068474105 530.8176920403198 646.2860618700034 540.0095585679527 646.2860618700034C556.9681960375391 646.2860618700034 562.5973236009733 658.6131386861314 562.5973236009733 680.4171011470282L562.6685783802573 680.3458463677442ZM532.8840806395551 704.3587069864443C544.7836287799792 704.3587069864443 547.7763295099062 696.9482099409107 547.7763295099062 680.4171011470282C547.7763295099062 668.873826903024 545.9949600278068 658.7556482446994 536.6605839416059 658.7556482446994C529.2500868960723 658.7556482446994 522.4096280848105 665.952380952381 522.4096280848105 665.952380952381V703.5749044143205C522.4096280848105 703.5749044143205 530.3901633646159 704.3587069864443 532.8128258602711 704.3587069864443H532.8840806395551ZM592.0255474452555 744.546402502607H578.4871393813V660.3232533889468H571.7179353493223V647.7111574556831H578.4871393813V643.6496350364964C578.4871393813 625.4796663190824 584.1875217240181 618.0691692735488 596.514598540146 618.0691692735488C600.8611400764686 618.0691692735488 609.6254779283977 619.5655196385123 609.6254779283977 619.5655196385123L609.4829683698297 631.4650677789364C609.4829683698297 631.4650677789364 603.9250955856796 630.6812652068127 599.8635731664929 630.6812652068127C594.0206812652068 630.6812652068127 593.0943691345151 635.8116093152589 593.0943691345151 643.7921445950643V647.7111574556831H608.7704205769899V660.3232533889468H593.0943691345151V715.4031977754606L592.0255474452555 744.475147723323V744.546402502607ZM615.1833507125477 682.6972540841155C615.1833507125477 661.8908585331944 620.456204379562 646.2860618700036 642.5451859575946 646.2860618700036C651.5945429266598 646.2860618700036 670.0495307612096 648.7087243656588 670.0495307612096 648.7087243656588V697.3044838373307C670.0495307612096 702.0785540493572 670.6908237747655 715.3319429961767 670.6908237747655 715.3319429961767L656.0835940215502 715.9019812304485C656.0835940215502 715.9019812304485 655.3710462287105 710.4866180048663 655.3710462287105 705.9975669099758C655.3710462287105 705.9975669099758 649.1718804310046 716.9708029197083 637.6286061870003 716.9708029197083C621.0974973931179 716.9708029197083 615.1833507125477 705.3562738964201 615.1833507125477 682.6972540841156V682.6972540841155ZM640.9063260340633 704.4299617657283C649.4568995481404 704.4299617657283 655.3710462287105 692.9579423010081 655.3710462287105 692.9579423010081V659.824469933959C655.3710462287105 659.824469933959 647.1054918317693 658.7556482446994 643.8990267639904 658.7556482446994C633.0683003128258 658.7556482446994 630.0755995828989 666.8786930830727 630.0755995828989 682.6972540841153C630.0755995828989 695.6656239137991 631.9994786235663 704.5012165450122 640.9063260340633 704.5012165450122V704.4299617657283ZM701.1878693083073 619.5655196385123V715.4031977754606H686.4381299965241V619.5655196385123H701.1878693083073ZM732.4687174139729 619.5655196385123V715.4031977754606H717.7189781021898V619.5655196385123H732.4687174139729ZM319.40476190476187 787.2992700729927C324.3925964546402 784.0215502259299 331.161800486618 782.4539450816823 340.35366701425096 782.4539450816823C368.4993048314216 782.4539450816823 374.34219673270763 797.4887035106013 374.34219673270763 830.1233924226625C374.34219673270763 853.1386861313869 371.4920055613486 868.0309350017379 360.0199860966284 874.9426485922837C355.174661105318 877.7928397636427 348.76173096976015 879.2891901286063 340.4249217935349 879.2891901286063C312.27928397636424 879.2891901286063 306.2938825165102 862.9005908932917 306.2938825165102 830.1233924226625C306.2938825165102 808.0344108446299 309.0015641293013 794.1397288842544 319.40476190476187 787.3705248522766V787.2992700729927ZM353.60705596107056 869.2422662495655C364.0102537365311 864.2544316996872 365.64911366006254 851.3573166492874 365.64911366006254 830.1233924226626C365.64911366006254 801.9777546054919 362.7989224887035 790.0782064650679 340.35366701425096 790.0782064650679C334.93830378866875 790.0782064650679 330.73427181091415 790.6482446993397 327.38529718456726 792.1445950643032C316.55457073340284 796.6336461591936 314.91571080987137 808.6757038581857 314.91571080987137 830.1946472019466C314.91571080987137 858.3402850191173 317.76590198123046 871.7361835245048 340.35366701425096 871.7361835245048C345.9115397984011 871.7361835245048 350.1155717761557 871.094890510949 353.60705596107056 869.3135210288496V869.2422662495655ZM421.726624956552 808.8182134167536V817.5112964893987C411.67970107751125 819.9339589850539 399.4951338199513 827.7719847062913 399.4951338199513 827.7719847062913V877.8640945429266H391.37208898157803V810.1720542231491H399.4951338199513V820.7177615571777C399.4951338199513 820.7177615571777 409.75582203684394 811.8821689259646 421.726624956552 808.8182134167536ZM428.92335766423355 891.5450121654502C428.92335766423355 883.2794577685089 435.5500521376434 875.5839416058395 441.8204727146333 871.6649287452207C439.25530066041017 869.5272853667014 438.54275286757036 867.3183872088981 438.54275286757036 863.8269030239834C438.54275286757036 859.4803614876608 442.604275286757 852.996176572819 442.604275286757 852.996176572819C433.554918317692 849.860966284324 429.9921793534932 842.1654501216545 429.9921793534932 831.9760166840459C429.9921793534932 817.5112964893987 437.97271463329855 808.8182134167536 452.43743482794576 808.8182134167536C458.4228362877998 808.8182134167536 464.0519638512339 810.599582898853 464.0519638512339 810.599582898853L483.43326381647546 810.3145637817171V817.2262773722628H470.46489398679176C473.74261383385465 819.9339589850538 475.880257212374 825.9193604449079 475.880257212374 831.9760166840458C475.880257212374 846.440736878693 467.4721932568648 854.5637817170664 452.15241571080986 854.5637817170664C450.1572818908585 854.5637817170664 448.803441084463 854.2787625999304 448.803441084463 854.2787625999304C448.803441084463 854.2787625999304 446.23826903023985 859.6941258255126 446.23826903023985 862.9718456725755C446.23826903023985 866.2495655196384 447.44960027806746 868.5297184567256 458.9928745220716 868.5297184567256C473.60010427528675 868.5297184567256 482.93448036148766 871.3799096280848 482.93448036148766 886.5571776155717C482.93448036148766 900.665623913799 471.53371567605143 910.0 454.788842544317 910.0C439.754084115398 910.0 428.92335766423355 906.8647897115051 428.92335766423355 891.6162669447341V891.5450121654502ZM455.00260688216895 902.8032672923184C467.1871741397289 902.8032672923184 475.02519986096627 896.9603753910324 475.02519986096627 886.5571776155718C475.02519986096627 876.795272853667 468.5410149461244 875.7264511644074 458.4940910670838 875.7264511644074C454.57507820646504 875.7264511644074 449.80100799443863 875.2989224887035 447.5208550573514 874.6576294751477C442.3905109489051 877.0802919708029 436.690128606187 883.7069864442127 436.690128606187 890.6187000347584C436.690128606187 900.5231143552311 443.4593326381647 902.8032672923183 454.93135210288494 902.8032672923183L455.00260688216895 902.8032672923184ZM452.2236704900938 847.4383037886688C463.76694473409805 847.4383037886688 468.0422314911366 841.4529023288147 468.0422314911366 831.9760166840459C468.0422314911366 821.8578380257212 463.69568995481404 815.8724365658672 452.5086896072297 815.8724365658672C442.4617657281891 815.8724365658672 437.90145985401455 822.0716023635732 437.90145985401455 831.9760166840459C437.90145985401455 841.8804310045186 442.2480013903371 847.4383037886688 452.2236704900938 847.4383037886688ZM493.05265901981227 845.5144247480015C493.05265901981227 823.5679527285367 498.18300312825863 808.8182134167536 519.9869655891554 808.8182134167536C527.1836982968371 808.8182134167536 543.0022592978797 811.0983663538408 543.0022592978797 811.0983663538408V861.831769204032C543.0022592978797 868.8859923531456 543.7860618700036 877.7928397636426 543.7860618700036 877.7928397636426L535.6630170316301 878.0778588807786C535.6630170316301 878.0778588807786 535.0217240180743 871.4511644073688 535.0217240180743 865.6082725060827C535.0217240180743 865.6082725060827 527.3262078554048 879.1466805700383 514.2865832464372 879.1466805700383C498.46802224539454 879.1466805700383 493.05265901981227 867.3896419881821 493.05265901981227 845.4431699687175V845.5144247480015ZM515.8541883906847 872.0924574209247C526.969933958985 872.0924574209247 535.0929787973583 856.7726798748697 535.0929787973583 856.7726798748697V817.3687869308308C535.0929787973583 817.3687869308308 525.0460549183177 816.0149461244353 521.2695516162669 816.0149461244353C505.0234619395203 816.0149461244353 501.53197775460546 826.4181438998958 501.53197775460546 845.5144247480015C501.53197775460546 861.1904761904763 504.2396593673966 872.0212026416407 515.8541883906847 872.0212026416407V872.0924574209247ZM569.8653110879388 810.1720542231491 570.0078206465068 821.2877997914494C570.0078206465068 821.2877997914494 578.84341327772 808.8182134167536 590.457942301008 808.8182134167536C604.9226624956552 808.8182134167536 610.9080639555092 818.7226277372263 610.9080639555092 835.6100104275288V877.8640945429266H602.7850191171359V838.1751824817519C602.7850191171359 822.9979144942649 599.151025373653 815.9436913451513 589.1041014946125 815.9436913451513C579.0571776155717 815.9436913451513 570.0078206465068 829.7671185262426 570.0078206465068 829.7671185262426V877.7928397636426H561.8847758081334V810.1007994438651H569.8653110879388V810.1720542231491ZM628.8642683350713 783.6652763295099H637.2723322905805V794.2109836635385H628.8642683350713V783.6652763295099ZM637.1298227320126 877.8640945429266H629.0067778936392V810.1720542231491H637.1298227320126V877.8640945429266ZM695.2024678484532 810.599582898853 694.7749391727493 817.3687869308308C694.7749391727493 817.3687869308308 685.7255822036843 816.1574556830031 680.80900243309 816.1574556830031C665.9167535627389 816.1574556830031 661.5702120264164 824.8505387556482 661.5702120264164 842.9492526937784C661.5702120264164 861.0479666319084 663.8503649635036 872.0212026416407 680.80900243309 872.0212026416407C685.6543274244004 872.0212026416407 694.7749391727493 870.952380952381 694.7749391727493 870.952380952381L695.2024678484532 877.4365658672228C695.2024678484532 877.4365658672228 685.5830726451164 879.2179353493223 679.5264164059784 879.2179353493223C657.5799443865137 879.2179353493223 653.2334028501912 866.1070559610705 653.2334028501912 842.9492526937782C653.2334028501912 819.7914494264859 660.9289190128607 808.9607229753216 679.5264164059784 808.9607229753216C685.7255822036843 808.9607229753216 695.2024678484532 810.599582898853 695.2024678484532 810.599582898853ZM642.046402502607 438.07959680222456C645.7516510253737 441.85610010427536 646.1079249217935 448.0552659019813 643.4714980882864 452.4730622175878C638.4124087591241 463.6600625651721 632.498262078554 474.34827945776857 625.0165102537366 484.18143899895733C583.1899548140425 538.5488355926313 553.9754953076122 504.06152241918676 500.81942996176576 509.191866527633C482.15067778936395 509.40563086548497 466.4746263468892 518.8112617309698 447.8058741744873 521.0201598887732C435.4075425790754 521.6614529023288 423.2229753215155 517.2436565867223 412.9622871046229 511.18700034758433C386.59801876955163 494.86965589155375 368.7843239485575 469.71671880431006 353.32203684393465 443.9224887035106C351.2556482446994 440.35974973931184 352.46697949252695 435.7281890858534 356.0297184567258 433.66180048661806C405.1955161626695 421.3347236704902 420.58654848800836 360.98192561696214 412.9622871046229 316.09141466805704C399.92266249565523 280.60653458463685 360.09124087591243 263.86166145290235 327.5990615224192 249.46819603753914C323.18126520681267 247.97184567257563 320.82985749044144 243.05526590198127 322.68248175182487 238.7087243656587C335.5083420229406 204.07890163364618 367.430483142162 176.50330205074732 404.0554396941259 170.2328814737574C439.9678484532499 163.39242266249568 476.5928050052138 169.23531456378174 509.86878693083077 183.486270420577C509.86878693083077 183.486270420577 502.3157803267293 183.8425443169969 502.3157803267293 183.8425443169969C557.9657629475148 150.70907194994788 648.6730969760167 150.56656239137993 682.5903719151895 214.3395898505388C687.2219325686478 221.67883211678836 686.2956204379562 231.93952033368095 678.243830378867 236.49982620785542C669.051963851234 241.20264164059788 661.4989572471325 245.90545707334033 653.5896767466111 251.4633298574905C572.8580118178659 308.03962460896776 582.1923879040667 369.24748001390344 642.046402502607 438.22210636079257V438.07959680222456ZM632.925790754258 446.55891553701775C547.4200556134863 360.05561348627043 567.3001390337157 280.10775112964893 671.0470976711854 224.24400417101148C671.2608620090373 224.10149461244353 671.3321167883212 223.67396593673968 671.1896072297533 223.46020159888775C668.838199513382 218.54362182829337 666.130517900591 213.76955161626697 662.6390337156761 209.56551963851234C625.7290580465764 165.6725755995829 556.4694125825513 172.01425095585682 510.5100799443866 198.23600973236012C508.15867222801535 199.58985053875568 505.3084810566563 199.58985053875568 502.95707334028504 198.59228362878002C459.9191866527633 180.27980535279806 402.8441084462982 174.65067778936395 364.7228015293709 206.1452902328815C352.6094890510949 216.19221411192217 343.8451511991658 229.87313173444562 337.71724018074383 244.6941258255127L332.8006604101495 233.93465415363227C344.4151894334376 237.56864789711506 354.8896419881821 242.3427181091415 365.3640945429267 247.90059089329165C391.44334376086204 262.22280152937094 419.37521724018075 281.1765728189086 428.70959332638165 311.45985401459853C437.90145985401466 363.54709767118527 419.51772679874875 432.8067431352103 361.1600625651721 447.6989920055614C361.1600625651721 447.6989920055614 366.5041710114703 436.44073687869314 366.5041710114703 436.5119916579771C382.75026068821694 466.0114702815433 417.3800834202294 516.8161279110185 455.92891901286066 505.62912756343417C483.21949947862356 493.37330552659023 515.5691692735488 489.5255474452555 544.8548835592632 497.14980882864097C558.5358011817866 500.21376433785196 570.7916232186305 505.34410844629826 584.1162669447341 500.85505735140777C606.4902676399026 493.6583246437262 621.3112617309698 470.7855404935698 630.9306569343066 449.9078901633647C630.9306569343066 449.9078901633647 632.640771637122 446.2026416405979 632.640771637122 446.2026416405979C632.640771637122 446.34515119916585 632.640771637122 446.55891553701775 632.78328119569 446.7726798748697L632.925790754258 446.55891553701775ZM546.7787625999305 103.75217240180744C530.390163364616 106.74487313173445 519.6306916927355 118.00312825860271 516.2104622871046 134.17796315606535C512.5764685436218 150.06777893639207 513.8590545707334 167.81021897810217 515.8541883906848 185.48140424052832L496.3303788668752 187.19151894334377C495.2615571776156 168.0952380952381 494.6202641640598 148.7139381299965 500.03562738964206 129.7601668404588C504.59593326381645 109.52380952380952 523.5497045533542 91.92387904066736 544.4273548835592 90.0C544.4273548835592 90.0 546.7787625999305 103.75217240180744 546.7787625999305 103.75217240180744Z" fill="#000000"/>
</svg>
