<?xml version="1.0" encoding="UTF-8"?>
<!-- source: stairs.svg -->
<svg xmlns="http://www.w3.org/2000/svg" viewBox="0 0 1000 1000" width="1000" height="1000">
  <path d="M358.2189313588153 626.8481088653193H326.71202721632983V721.1226736041626H312.0252151290775V626.8481088653193H280.2721632979788V613.7202321392836H358.2189313588153V626.8481088653193ZM400.7204322593556 641.5349209525716V655.8935361216729C386.19771863117876 658.847308385031 373.3159895937563 665.4112467480488 373.3159895937563 665.4112467480488V721.2047228337001H358.9573744246548V643.2579547728637H373.15189113468085V653.2679607764658C373.15189113468085 653.2679607764658 386.5259155493296 644.2425455273165 400.7204322593556 641.6169701821093V641.5349209525716ZM471.8571142685612 708.8152891735042 472.18531118671206 719.7278367020212C472.18531118671206 719.7278367020212 454.38062837702626 722.8457074244548 441.1707024214529 722.8457074244548C417.95077046227743 722.8457074244548 409.49969981989193 709.717830698419 409.49969981989193 682.805683410046C409.49969981989193 653.6782069241544 422.1352811687012 641.4528717230337 442.72963778266967 641.4528717230337C463.323994396638 641.4528717230337 474.8108865319192 652.6936161697017 474.8108865319192 677.6365819491693L473.90834500700424 688.0568341004603H424.0224134480689C424.18651190714434 702.7436461877126 429.02741644987 710.2101260756453 443.221933159896 710.2101260756453C455.2011206724035 710.2101260756453 471.9391634980989 708.815289173504 471.9391634980989 708.815289173504L471.8571142685612 708.8152891735042ZM460.61636982189316 676.8981388833299C460.61636982189316 659.4216529917951 455.28316990194116 653.5141084650791 442.72963778266967 653.5141084650791C430.17610566339806 653.5141084650791 424.02241344806885 660.0780468280968 423.8583149889934 676.8981388833299H460.61636982189316ZM528.1428857314389 641.5349209525716C548.0808485091054 641.5349209525716 557.106263758255 653.3500100060037 557.106263758255 681.2467480488294C557.106263758255 712.5895537322392 546.6860116069643 722.8457074244548 522.6455873524114 722.8457074244548C515.7534520712428 722.8457074244548 507.95877526515915 721.6149689813888 506.3998399039424 721.286772063238V755.2551530918552H492.04122473484097V643.175905543326H506.23574144486696V648.3450070042024C506.23574144486696 648.3450070042024 517.6405843506104 641.4528717230337 528.0608365019011 641.4528717230337L528.1428857314389 641.5349209525716ZM521.7430458274965 710.374224534721C537.6605963578147 710.374224534721 542.5015009005403 702.0872523514108 542.5015009005403 681.2467480488294C542.5015009005403 661.4728837302382 536.2657594556733 654.2525515309185 525.8455073043826 654.2525515309185C516.3277966780068 654.2525515309185 506.4818891334801 659.5857514508705 506.4818891334801 659.5857514508705V708.8152891735042C507.8767260356214 709.1434860916552 515.671402841705 710.374224534721 521.7430458274965 710.374224534721ZM611.0126075645387 641.5349209525716C630.9505703422053 641.5349209525716 639.9759855913549 653.3500100060037 639.9759855913549 681.2467480488294C639.9759855913549 712.5895537322392 629.555733440064 722.8457074244548 605.5153091855113 722.8457074244548C598.6231739043426 722.8457074244548 590.828497098259 721.6149689813888 589.2695617370423 721.286772063238V755.2551530918552H574.9109465679408V643.175905543326H589.1054632779668V648.3450070042024C589.1054632779668 648.3450070042024 600.5103061837103 641.4528717230337 610.930558335001 641.4528717230337L611.0126075645387 641.5349209525716ZM604.6127676605963 710.374224534721C620.5303181909146 710.374224534721 625.3712227336403 702.0872523514108 625.3712227336403 681.2467480488294C625.3712227336403 661.4728837302382 619.1354812887732 654.2525515309185 608.7152291374825 654.2525515309185C599.1975185111066 654.2525515309185 589.35161096658 659.5857514508705 589.35161096658 659.5857514508705V708.8152891735042C590.7464478687212 709.1434860916552 598.5411246748049 710.374224534721 604.6127676605963 710.374224534721ZM716.7740644386632 708.8152891735042 717.1022613568141 719.7278367020212C717.1022613568141 719.7278367020212 699.2975785471283 722.8457074244548 686.087652591555 722.8457074244548C662.8677206323795 722.8457074244548 654.4166499899941 709.717830698419 654.4166499899941 682.805683410046C654.4166499899941 653.6782069241544 667.0522313388033 641.4528717230337 687.6465879527716 641.4528717230337C708.24094456674 641.4528717230337 719.7278367020212 652.6936161697017 719.7278367020212 677.6365819491693L718.8252951771062 688.0568341004603H668.939363618171C669.1034620772464 702.7436461877126 673.944366619972 710.2101260756453 688.1388833299981 710.2101260756453C700.1180708425056 710.2101260756453 716.856113668201 708.815289173504 716.856113668201 708.815289173504L716.7740644386632 708.8152891735042ZM705.5333199919952 676.8981388833299C705.5333199919952 659.4216529917951 700.2001200720432 653.5141084650791 687.6465879527716 653.5141084650791C675.0930558335001 653.5141084650791 668.9393636181709 660.0780468280968 668.7752651590954 676.8981388833299H705.5333199919952ZM358.8753251951171 806.7820692415448C342.629577746648 806.7820692415448 333.76826095657395 812.5255153091855 333.76826095657395 825.981588953372C333.76826095657395 842.0632379427657 342.05523313988397 844.3606163698219 361.17270362217334 848.1348809285571C382.3414048429058 852.319391634981 392.51550930558335 857.4884930958576 392.51550930558335 876.6880128076848C392.51550930558335 900.7284370622374 379.8799279567741 909.5897538523116 358.5471282769662 909.5897538523116C346.2397438463078 909.5897538523116 324.74284570742446 906.6359815889534 324.74284570742446 906.6359815889534L325.80948569141486 898.3490094056435C325.80948569141486 898.3490094056435 347.1422853712228 900.9745847508505 358.2189313588153 900.9745847508505C374.4646788072844 900.9745847508505 382.6696017610567 893.9183510106063 382.6696017610567 877.2623574144486C382.6696017610567 863.7242345407244 375.69541725035026 860.2781669001401 357.56253752251354 856.9961977186313C335.5733440064039 852.8116870122074 323.92235341204724 848.1348809285571 323.92235341204724 826.6379827896737C323.92235341204724 805.1410846507904 337.296377826696 798.2489493696219 358.2189313588153 798.2489493696219C370.8545127076246 798.2489493696219 390.13608164898943 801.2027216329798 390.13608164898943 801.2027216329798L389.3155893536122 809.4896938162899C389.3155893536122 809.4896938162899 367.81869121472886 806.8641184710827 358.79327596557937 806.8641184710827L358.8753251951171 806.7820692415448ZM436.3297978787273 901.5489293576145C440.67840704422656 901.5489293576145 450.6884130478287 900.4822893736241 450.6884130478287 900.4822893736241L451.3448068841305 908.4410646387832C451.3448068841305 908.4410646387832 441.0886531919151 910.0 435.59135481288774 910.0C420.1660996597959 910.0 414.58675205123075 904.2565539323593 414.58675205123075 881.7750650390235V838.6171703021812H403.01781068641185V830.3301981188713H414.58675205123075V805.8795277166298H423.94036421853116V830.3301981188713H449.94996998198917V838.6171703021812H423.94036421853116V877.0982589553732C423.94036421853116 896.6259755853512 425.17110266159693 901.5489293576145 436.41184710826496 901.5489293576145H436.3297978787273ZM528.3069841905143 902.1232739643788 527.8146888132881 909.5897538523113C520.1841104662798 909.5897538523113 514.4406643986392 908.0308184910946 510.17410446267763 903.3540124074443C510.17410446267763 903.3540124074443 495.48729237542534 909.7538523113867 480.8825295177107 909.7538523113867C467.180308184911 909.7538523113867 459.54972983790276 901.7950770462278 459.54972983790276 886.2057234340605C459.54972983790276 871.8471082649589 466.6880128076847 865.0370222133279 482.4414648789274 863.4780868521113L508.9433660196118 860.8525115069042V853.5501300780468C508.9433660196118 841.7350410246147 503.61016609965986 837.1402841705024 493.6822093255954 837.1402841705024C482.4414648789274 837.1402841705024 464.22653592155297 839.5197118270964 464.22653592155297 839.5197118270964L463.73424054432667 832.0532319391637C463.73424054432667 832.0532319391637 480.8825295177107 828.7712627576545 494.0104062437463 828.7712627576545C510.99459675805485 828.7712627576545 518.1328797278368 837.0582349409647 518.1328797278368 853.5501300780468V895.3131879127477C518.6251751050631 899.9899939963977 523.1378827296378 901.5489293576147 528.2249349609766 902.2053231939165L528.3069841905143 902.1232739643788ZM482.1953171903142 901.8771262757655C494.8308985391235 901.8771262757655 509.0254152491495 896.4618771262758 509.0254152491495 896.4618771262758V868.2369421652993L483.59015409245546 870.8625175105062C473.1699019411647 871.7650590354212 469.23153892335404 876.7700620372223 469.23153892335404 886.1236742045228C469.23153892335404 896.1336802081248 473.5801480888533 901.8771262757655 482.1953171903142 901.8771262757655ZM542.3374024414649 799.1514908945369H551.5269161496898V810.8024814888934H542.3374024414649V799.1514908945369ZM551.6089653792276 830.3301981188713V908.2769661797079H542.4194516710027V830.3301981188713H551.6089653792276ZM584.1825095057034 830.3301981188713V841.5709425655393C584.1825095057034 841.5709425655393 597.7206323794276 831.7250350210127 613.6381829097459 828.7712627576545V838.1248749249551C598.7052231338803 841.2427456473883 584.1825095057034 849.7758655193118 584.1825095057034 849.7758655193118V908.1949169501702H574.9929957974784V830.2481488893336H584.1825095057034V830.3301981188713ZM651.2987792675606 837.3043826295777C641.6169701821093 837.3043826295777 632.9197518511107 839.9299579747849 632.9197518511107 850.5143085851512C632.9197518511107 858.6371823093855 636.7760656393837 860.9345607364419 653.8423053832298 863.8062837702621C673.7802681608964 867.0882529517712 681.2467480488292 870.6984190514308 681.2467480488292 885.6313788272964C681.2467480488292 903.8463077846707 669.8419051430858 909.8359015409246 651.134680808485 909.8359015409246C641.6169701821092 909.8359015409246 624.4686812087252 907.0462277366419 624.4686812087252 907.0462277366419L625.125075045027 898.759255553332C625.125075045027 898.759255553332 642.6015609365618 901.3848308985391 650.5603362017209 901.3848308985391C663.9343606163698 901.3848308985391 671.7290374224533 898.2669601761056 671.7290374224533 886.1236742045226C671.7290374224533 876.7700620372223 667.0522313388032 874.7188312987792 649.5757454472682 872.093255953572C631.6890134080447 869.3035821492895 623.4020412247347 866.0216129677806 623.4020412247347 850.9245547328396C623.4020412247347 833.9403642185312 637.4324594756854 828.9353612167299 650.9705823494096 828.9353612167299C662.6215729437662 828.9353612167299 678.5391234740844 831.5609365619371 678.5391234740844 831.5609365619371L678.2109265559334 839.847908745247C678.2109265559334 839.847908745247 661.5549329597757 837.3864318591154 651.2167300380227 837.3864318591154L651.2987792675606 837.3043826295777ZM514.6868120872524 90.00000000000006C411.0586351811087 90.00000000000006 327.12227336401844 174.3466079647789 327.12227336401844 278.30298178907344C327.12227336401844 382.25935561336803 411.0586351811087 466.6059635781469 514.6047628577146 466.6059635781469C618.1508905343206 466.6059635781469 702.1693015809485 382.25935561336803 702.1693015809485 278.30298178907344C702.1693015809485 174.3466079647789 618.2329397638583 90.00000000000006 514.6868120872524 90.00000000000006ZM622.9097458475085 363.96237742645593H541.8451070642385V290.03602161296783H472.4314588753252V216.10966579947976H406.3818290974584V200.76645987592565H487.77466479887926V274.6928156894137H557.1883129877926V348.6191715029018H622.9097458475085V363.96237742645593Z" fill="#000000"/>
</svg>
