<svg xmlns="http://www.w3.org/2000/svg" viewBox="0 0 202 48" width="1063" height="253"><g transform="translate(-0.217 0) scale(2.087) translate(0 0)"><path d="M5.7224,3.472L15.8254,0v21.07h-6.002l.007-7.74c.003-.501-.086-.969-.242-1.438-.475-1.43-3.866-8.42-3.866-8.42" fill="#ffffff"/><path d="M5.292,7.1965s3.062,4.895,3.062,6.039l.048,7.834h-3.538l-.022-2.693c-.035-1.633-3.74-6.24-3.74-6.24l4.19-4.94Z" fill="#ffffff"/><path d="M0,17.9464l2.355-1.673s1.103,1.842,1.201,2.488c.099.646.02,2.309.02,2.309H1.072s.005-.607.008-.876c.007-.476-.144-.883-.375-1.274-.108-.183-.609-.818-.705-.974" fill="#ffffff"/><g fill="#ffffff"><path d="M332 295H437V71C437 71 360 58 310 58C165 58 131 192 131 347C131 511 152 634 311 634C394 634 510 615 510 615L514 676C514 676 412 702 306 702C103 702 52 564 52 347C52 149 107 -10 302 -10C377 -10 514 12 514 12V361H332Z" transform="translate(19.5,10.05) scale(0.0103,-0.0103)"/><path d="M243 510C88 510 47 414 47 255C47 97 72 -10 243 -10C414 -10 439 97 439 255C439 414 397 510 243 510ZM243 55C129 55 119 133 119 255C119 382 144 445 243 445C342 445 367 382 367 255C367 133 357 55 243 55Z" transform="translate(25.4122,10.05) scale(0.0103,-0.0103)"/><path d="M238 55C157 55 121 114 121 208V223H173C338 223 415 254 415 375C415 470 350 509 248 509C105 509 45 408 45 242C45 66 102 -9 234 -9C325 -9 397 19 397 19L393 74C393 74 309 55 238 55ZM122 281C123 386 158 447 248 447C306 447 341 429 341 374C341 299 293 281 172 281Z" transform="translate(30.418,10.05) scale(0.0103,-0.0103)"/><path d="M305 435V500H164V648H90V500H25V435H90V141C90 46 119 -10 220 -10C254 -10 312 2 312 2L308 61C308 61 259 55 229 55C181 55 164 89 164 145V435Z" transform="translate(35.0839,10.05) scale(0.0103,-0.0103)"/><path d="M141 0V354C141 354 204 445 271 445C339 445 365 397 365 290V0H439V312C439 433 396 510 286 510C202 510 141 426 141 426V718H66V0Z" transform="translate(38.4211,10.05) scale(0.0103,-0.0103)"/><path d="M238 55C157 55 121 114 121 208V223H173C338 223 415 254 415 375C415 470 350 509 248 509C105 509 45 408 45 242C45 66 102 -9 234 -9C325 -9 397 19 397 19L393 74C393 74 309 55 238 55ZM122 281C123 386 158 447 248 447C306 447 341 429 341 374C341 299 293 281 172 281Z" transform="translate(43.5814,10.05) scale(0.0103,-0.0103)"/><path d="M207 -10C299 -10 353 84 353 84C353 44 358 -2 358 -2L433 1C433 1 427 76 427 123V493C427 493 304 510 247 510C85 510 47 399 47 240C47 76 88 -10 207 -10ZM256 445C283 445 352 436 352 436V159C352 159 298 55 222 55C142 55 123 130 123 240C123 374 148 445 256 445Z" transform="translate(48.2473,10.05) scale(0.0103,-0.0103)"/><path d="M141 0V352C141 352 204 445 271 445C339 445 365 397 365 290V0H439V311C439 433 395 510 286 510C202 510 141 425 141 425L140 500H66V0Z" transform="translate(53.3252,10.05) scale(0.0103,-0.0103)"/><path d="M361 500V148C361 148 298 55 231 55C162 55 137 103 137 210V500H62V193C62 58 107 -10 216 -10C300 -10 361 75 361 75L362 0H435V500Z" transform="translate(58.4855,10.05) scale(0.0103,-0.0103)"/><path d="M434 0V294C434 332 430 366 430 366C430 366 482 445 548 445C617 445 642 397 642 290V0H716V300C716 433 671 510 563 510C480 510 413 424 413 424C413 424 387 510 284 510C205 510 141 425 141 425L140 500H66V0H141V352C141 352 206 445 269 445C332 445 359 398 359 284V0Z" transform="translate(63.6561,10.05) scale(0.0103,-0.0103)"/></g><g fill="#ffffff"><path d="M440 681C440 681 334 702 255 702C118 702 43 643 43 510C43 393 112 353 240 323C334 302 380 279 380 195C380 105 340 58 250 58C184 58 57 72 57 72L52 9C52 9 172 -10 250 -10C392 -10 458 63 458 202C458 325 396 360 272 391C168 417 122 434 122 518C122 601 168 634 259 634C326 634 436 620 436 620Z" transform="translate(19.5,20.05) scale(0.0103,-0.0103)"/><path d="M241 510C105 510 46 432 46 257C46 87 82 -10 240 -10C291 -10 362 4 362 4L359 63C359 63 292 55 256 55C140 55 123 132 123 257C123 383 153 444 256 444C292 444 359 435 359 435L362 495C362 495 292 510 241 510Z" transform="translate(24.65,20.05) scale(0.0103,-0.0103)"/><path d="M141 0V354C141 354 204 445 271 445C339 445 365 397 365 290V0H439V312C439 433 396 510 286 510C202 510 141 426 141 426V718H66V0Z" transform="translate(28.7597,20.05) scale(0.0103,-0.0103)"/><path d="M66 0H141V360C141 360 226 414 297 431V510C212 489 141 424 141 424V500H66Z" transform="translate(33.92,20.05) scale(0.0103,-0.0103)"/><path d="M66 0H141V500H66ZM65 605H142V694H65Z" transform="translate(37.1542,20.05) scale(0.0103,-0.0103)"/><path d="M161 435H292V500H161V542C161 624 174 663 226 663C255 663 300 656 300 656L301 718C301 718 245 728 213 728C124 728 86 677 86 543V500H29V435H86V-222H154L161 0Z" transform="translate(39.286300000000004,20.05) scale(0.0103,-0.0103)"/><path d="M305 435V500H164V648H90V500H25V435H90V141C90 46 119 -10 220 -10C254 -10 312 2 312 2L308 61C308 61 259 55 229 55C181 55 164 89 164 145V435Z" transform="translate(42.4793,20.05) scale(0.0103,-0.0103)"/><path d="M238 55C157 55 121 114 121 208V223H173C338 223 415 254 415 375C415 470 350 509 248 509C105 509 45 408 45 242C45 66 102 -9 234 -9C325 -9 397 19 397 19L393 74C393 74 309 55 238 55ZM122 281C123 386 158 447 248 447C306 447 341 429 341 374C341 299 293 281 172 281Z" transform="translate(45.816500000000005,20.05) scale(0.0103,-0.0103)"/><path d="M141 0V352C141 352 204 445 271 445C339 445 365 397 365 290V0H439V311C439 433 395 510 286 510C202 510 141 425 141 425L140 500H66V0Z" transform="translate(50.482400000000005,20.05) scale(0.0103,-0.0103)"/><path d="M361 500V148C361 148 298 55 231 55C162 55 137 103 137 210V500H62V193C62 58 107 -10 216 -10C300 -10 361 75 361 75L362 0H435V500Z" transform="translate(57.9087,20.05) scale(0.0103,-0.0103)"/><path d="M141 0V352C141 352 204 445 271 445C339 445 365 397 365 290V0H439V311C439 433 395 510 286 510C202 510 141 425 141 425L140 500H66V0Z" transform="translate(63.0793,20.05) scale(0.0103,-0.0103)"/><path d="M427 718H352V497C352 497 292 510 241 510C99 510 47 416 47 243C47 86 86 -10 205 -10C298 -10 353 73 353 73L354 0H427ZM352 150C352 150 298 55 225 55C139 55 123 138 123 243C123 372 151 445 248 445C295 445 352 434 352 434Z" transform="translate(68.23960000000001,20.05) scale(0.0103,-0.0103)"/><path d="M77 0H153V692H77Z" transform="translate(75.58350000000002,20.05) scale(0.0103,-0.0103)"/><path d="M241 510C105 510 46 432 46 257C46 87 82 -10 240 -10C291 -10 362 4 362 4L359 63C359 63 292 55 256 55C140 55 123 132 123 257C123 383 153 444 256 444C292 444 359 435 359 435L362 495C362 495 292 510 241 510Z" transform="translate(77.95250000000001,20.05) scale(0.0103,-0.0103)"/><path d="M243 510C88 510 47 414 47 255C47 97 72 -10 243 -10C414 -10 439 97 439 255C439 414 397 510 243 510ZM243 55C129 55 119 133 119 255C119 382 144 445 243 445C342 445 367 382 367 255C367 133 357 55 243 55Z" transform="translate(82.06220000000002,20.05) scale(0.0103,-0.0103)"/><path d="M141 0V352C141 352 204 445 271 445C339 445 365 397 365 290V0H439V311C439 433 395 510 286 510C202 510 141 425 141 425L140 500H66V0Z" transform="translate(87.06800000000001,20.05) scale(0.0103,-0.0103)"/><path d="M372 493C372 493 289 510 206 510C125 510 43 472 43 363C43 264 106 240 202 220C271 207 313 199 313 140C313 75 277 55 201 55C153 55 49 71 49 71L44 10C44 10 139 -10 207 -10C318 -10 388 25 388 147C388 251 324 266 223 288C150 302 118 316 118 369C118 425 163 445 209 445C275 445 369 433 369 433Z" transform="translate(92.22830000000002,20.05) scale(0.0103,-0.0103)"/></g></g></svg>