<svg xmlns="http://www.w3.org/2000/svg" viewBox="0 0 78 22.24" role="img" aria-label="Goetheanum Werkzeuge"><path d="M5.7224,3.472L15.8254,0v21.07h-6.002l.007-7.74c.003-.501-.086-.969-.242-1.438-.475-1.43-3.866-8.42-3.866-8.42" fill="#0061a9"/><path d="M5.292,7.1965s3.062,4.895,3.062,6.039l.048,7.834h-3.538l-.022-2.693c-.035-1.633-3.74-6.24-3.74-6.24l4.19-4.94Z" fill="#0061a9"/><path d="M0,17.9464l2.355-1.673s1.103,1.842,1.201,2.488c.099.646.02,2.309.02,2.309H1.072s.005-.607.008-.876c.007-.476-.144-.883-.375-1.274-.108-.183-.609-.818-.705-.974" fill="#0061a9"/><g fill="#575756"><path d="M332 295H437V71C437 71 360 58 310 58C165 58 131 192 131 347C131 511 152 634 311 634C394 634 510 615 510 615L514 676C514 676 412 702 306 702C103 702 52 564 52 347C52 149 107 -10 302 -10C377 -10 514 12 514 12V361H332Z" transform="translate(19.5,10.05) scale(0.0103,-0.0103)"/><path d="M243 510C88 510 47 414 47 255C47 97 72 -10 243 -10C414 -10 439 97 439 255C439 414 397 510 243 510ZM243 55C129 55 119 133 119 255C119 382 144 445 243 445C342 445 367 382 367 255C367 133 357 55 243 55Z" transform="translate(25.412,10.05) scale(0.0103,-0.0103)"/><path d="M238 55C157 55 121 114 121 208V223H173C338 223 415 254 415 375C415 470 350 509 248 509C105 509 45 408 45 242C45 66 102 -9 234 -9C325 -9 397 19 397 19L393 74C393 74 309 55 238 55ZM122 281C123 386 158 447 248 447C306 447 341 429 341 374C341 299 293 281 172 281Z" transform="translate(30.418,10.05) scale(0.0103,-0.0103)"/><path d="M305 435V500H164V648H90V500H25V435H90V141C90 46 119 -10 220 -10C254 -10 312 2 312 2L308 61C308 61 259 55 229 55C181 55 164 89 164 145V435Z" transform="translate(35.084,10.05) scale(0.0103,-0.0103)"/><path d="M141 0V354C141 354 204 445 271 445C339 445 365 397 365 290V0H439V312C439 433 396 510 286 510C202 510 141 426 141 426V718H66V0Z" transform="translate(38.421,10.05) scale(0.0103,-0.0103)"/><path d="M238 55C157 55 121 114 121 208V223H173C338 223 415 254 415 375C415 470 350 509 248 509C105 509 45 408 45 242C45 66 102 -9 234 -9C325 -9 397 19 397 19L393 74C393 74 309 55 238 55ZM122 281C123 386 158 447 248 447C306 447 341 429 341 374C341 299 293 281 172 281Z" transform="translate(43.581,10.05) scale(0.0103,-0.0103)"/><path d="M207 -10C299 -10 353 84 353 84C353 44 358 -2 358 -2L433 1C433 1 427 76 427 123V493C427 493 304 510 247 510C85 510 47 399 47 240C47 76 88 -10 207 -10ZM256 445C283 445 352 436 352 436V159C352 159 298 55 222 55C142 55 123 130 123 240C123 374 148 445 256 445Z" transform="translate(48.247,10.05) scale(0.0103,-0.0103)"/><path d="M141 0V352C141 352 204 445 271 445C339 445 365 397 365 290V0H439V311C439 433 395 510 286 510C202 510 141 425 141 425L140 500H66V0Z" transform="translate(53.325,10.05) scale(0.0103,-0.0103)"/><path d="M361 500V148C361 148 298 55 231 55C162 55 137 103 137 210V500H62V193C62 58 107 -10 216 -10C300 -10 361 75 361 75L362 0H435V500Z" transform="translate(58.486,10.05) scale(0.0103,-0.0103)"/><path d="M434 0V294C434 332 430 366 430 366C430 366 482 445 548 445C617 445 642 397 642 290V0H716V300C716 433 671 510 563 510C480 510 413 424 413 424C413 424 387 510 284 510C205 510 141 425 141 425L140 500H66V0H141V352C141 352 206 445 269 445C332 445 359 398 359 284V0Z" transform="translate(63.656,10.05) scale(0.0103,-0.0103)"/></g><g fill="#0061a9"><path d="M30 692 166 0H301L414 583L530 0H666L800 692H725L609 71H583L456 682H373L249 71H223L104 692Z" transform="translate(19.5,20.05) scale(0.0103,-0.0103)"/><path d="M238 55C157 55 121 114 121 208V223H173C338 223 415 254 415 375C415 470 350 509 248 509C105 509 45 408 45 242C45 66 102 -9 234 -9C325 -9 397 19 397 19L393 74C393 74 309 55 238 55ZM122 281C123 386 158 447 248 447C306 447 341 429 341 374C341 299 293 281 172 281Z" transform="translate(28.059,20.05) scale(0.0103,-0.0103)"/><path d="M66 0H141V360C141 360 226 414 297 431V510C212 489 141 424 141 424V500H66Z" transform="translate(32.725,20.05) scale(0.0103,-0.0103)"/><path d="M141 0V229L206 233L350 0H434L268 270L431 500H347L205 297L141 294V718H66V0Z" transform="translate(35.959,20.05) scale(0.0103,-0.0103)"/><path d="M38 435H299L38 64V0H383V65H122L383 437V500H38Z" transform="translate(40.625,20.05) scale(0.0103,-0.0103)"/><path d="M238 55C157 55 121 114 121 208V223H173C338 223 415 254 415 375C415 470 350 509 248 509C105 509 45 408 45 242C45 66 102 -9 234 -9C325 -9 397 19 397 19L393 74C393 74 309 55 238 55ZM122 281C123 386 158 447 248 447C306 447 341 429 341 374C341 299 293 281 172 281Z" transform="translate(44.962,20.05) scale(0.0103,-0.0103)"/><path d="M361 500V148C361 148 298 55 231 55C162 55 137 103 137 210V500H62V193C62 58 107 -10 216 -10C300 -10 361 75 361 75L362 0H435V500Z" transform="translate(49.628,20.05) scale(0.0103,-0.0103)"/><path d="M235 -235C359 -235 447 -167 447 -63C447 53 375 74 264 74C184 74 176 90 176 112C176 134 193 171 193 171C193 171 203 169 217 169C332 169 395 229 395 338C395 378 381 418 361 437H449V499L306 497C306 497 260 510 218 510C109 510 47 447 47 338C47 265 72 208 139 183C139 183 107 136 107 103C107 75 114 58 132 43C86 13 40 -40 40 -100C40 -210 119 -235 235 -235ZM260 9C331 9 375 1 375 -63C375 -132 321 -171 238 -171C156 -171 111 -153 111 -88C111 -44 147 -1 179 16C197 12 232 9 260 9ZM217 234C148 234 118 273 118 338C118 406 150 447 218 447C294 447 324 407 324 338C324 273 294 234 217 234Z" transform="translate(54.798,20.05) scale(0.0103,-0.0103)"/><path d="M238 55C157 55 121 114 121 208V223H173C338 223 415 254 415 375C415 470 350 509 248 509C105 509 45 408 45 242C45 66 102 -9 234 -9C325 -9 397 19 397 19L393 74C393 74 309 55 238 55ZM122 281C123 386 158 447 248 447C306 447 341 429 341 374C341 299 293 281 172 281Z" transform="translate(59.639,20.05) scale(0.0103,-0.0103)"/></g></svg>