<svg xmlns="http://www.w3.org/2000/svg" viewBox="0 0 64 64" width="64" height="64">
  <rect width="64" height="64" rx="12" fill="#0061a9"/>
  <g transform="translate(19.2,15) scale(1.614)" fill="#ffffff">
    <path d="M5.7224,3.472L15.8254,0v21.07h-6.002l.007-7.74c.003-.501-.086-.969-.242-1.438-.475-1.43-3.866-8.42-3.866-8.42"/>
    <path d="M5.292,7.1965s3.062,4.895,3.062,6.039l.048,7.834h-3.538l-.022-2.693c-.035-1.633-3.74-6.24-3.74-6.24l4.19-4.94Z"/>
    <path d="M0,17.9464l2.355-1.673s1.103,1.842,1.201,2.488c.099.646.02,2.309.02,2.309H1.072s.005-.607.008-.876c.007-.476-.144-.883-.375-1.274-.108-.183-.609-.818-.705-.974"/>
  </g>
</svg>
