<svg role="img" aria-label="my.goetheanum" xmlns="http://www.w3.org/2000/svg" viewBox="0 0 187.61 27.2746" width="989" height="144">
  <g transform="translate(0,2.6348) scale(0.8687)">
    <path d="m14.2058.0162C6.3781.0162.0326,6.3618.0326,14.1895s6.3456,14.1733,14.1732,14.1733,14.1732-6.3457,14.1732-14.1733S22.0335.0162,14.2058.0162Zm-4.5201,22.2477h-2.0254s.0042-.491.0066-.7086c.0056-.385-.1166-.7142-.3035-1.0304-.0873-.1481-.4924-.6616-.5701-.7878l1.9048-1.3533s.8921,1.49.9713,2.0125c.0801.5225.0162,1.8677.0162,1.8677Zm1.0417-.0007l-.0178-2.1782c-.0283-1.3208-3.025-5.0471-3.025-5.0471l3.389-3.9956s2.4766,3.9592,2.4766,4.8845l.0388,6.3364h-2.8616Zm8.866.0004h-4.8547l.0057-6.2604c.0024-.4053-.0695-.7837-.1957-1.1631-.3843-1.1567-3.127-6.8104-3.127-6.8104l8.1716-2.8082v17.0421Z" fill="#ffffff"/>
  </g>
  <path d="M453 0V286C453 318 450 354 450 354C450 354 491 420 545 420C603 420 623 380 623 282V0H729V297C729 424 683 511 571 511C493 511 427 433 427 433C427 433 397 511 297 511C220 511 166 439 166 439L165 500H60V0H167V345C167 345 219 420 271 420C328 420 346 381 346 272V0Z" transform="translate(29.2015,21.3594) scale(0.0250398,-0.0250398)" fill="#ffffff"/>
  <path d="M18 500 139 0H218L159 -216H260L435 500H332L238 89H215L123 500Z" transform="translate(48.6329,21.3594) scale(0.0250398,-0.0250398)" fill="#ffffff"/>
  <path d="M56 0H164V133H56Z" transform="translate(59.7261,21.3594) scale(0.0250398,-0.0250398)" fill="#ffffff"/>
  <path d="M238 -232C361 -232 458 -166 458 -61C458 65 379 84 261 84C192 84 188 102 188 118C188 135 200 164 200 164C200 164 210 163 221 163C342 163 408 223 408 335C408 366 398 397 384 413H455V500L311 497C311 497 257 511 221 511C106 511 41 451 41 335C41 268 64 212 129 183C129 183 92 136 92 102C92 69 103 51 120 35C74 3 33 -40 33 -97C33 -203 113 -232 239 -232ZM259 -7C321 -7 358 -13 358 -61C358 -112 313 -140 245 -140C167 -140 133 -124 133 -77C133 -45 157 -15 177 -1C194 -4 231 -7 258 -7ZM220 251C165 251 139 282 139 334C139 392 167 422 222 422C282 422 308 392 308 334C308 282 282 251 221 251Z" transform="translate(65.0101,21.3594) scale(0.0250398,-0.0250398)" fill="#ffffff"/>
  <path d="M243 511C83 511 38 403 38 252C38 101 75 -11 243 -11C411 -11 448 101 448 252C448 403 402 511 243 511ZM243 80C153 80 140 152 140 253C140 356 160 420 243 420C326 420 346 356 346 253C346 152 333 80 243 80Z" transform="translate(76.6792,21.3594) scale(0.0250398,-0.0250398)" fill="#ffffff"/>
  <path d="M247 82C179 82 145 126 145 195V211H186C344 211 427 238 427 363C427 467 359 509 244 509C94 509 38 393 38 236C38 66 99 -11 240 -11C334 -11 408 19 408 19L405 95C405 95 317 80 248 80ZM147 288C148 368 173 422 245 422C296 422 323 407 323 360C323 301 282 288 187 288Z" transform="translate(88.6237,21.3594) scale(0.0250398,-0.0250398)" fill="#ffffff"/>
  <path d="M309 408V500H185V637H79V500H22V408H79V148C79 46 107 -11 218 -11C251 -11 312 4 312 4L307 86C307 86 264 80 231 80C194 80 184 110 184 154V408Z" transform="translate(99.8922,21.3594) scale(0.0250398,-0.0250398)" fill="#ffffff"/>
  <path d="M167 0V348C167 348 217 420 273 420C329 420 349 380 349 282V0H455V311C455 424 414 511 297 511C217 511 166 442 166 442V708H59V0Z" transform="translate(107.8804,21.3594) scale(0.0250398,-0.0250398)" fill="#ffffff"/>
  <path d="M247 82C179 82 145 126 145 195V211H186C344 211 427 238 427 363C427 467 359 509 244 509C94 509 38 393 38 236C38 66 99 -11 240 -11C334 -11 408 19 408 19L405 95C405 95 317 80 248 80ZM147 288C148 368 173 422 245 422C296 422 323 407 323 360C323 301 282 288 187 288Z" transform="translate(120.476,21.3594) scale(0.0250398,-0.0250398)" fill="#ffffff"/>
  <path d="M204 -11C291 -11 337 71 337 71C337 37 342 -3 342 -3L448 2C448 2 443 98 443 133V493C443 493 308 511 241 511C78 511 39 396 39 241C39 74 83 -12 204 -12ZM251 419C275 419 336 411 336 411V164C336 164 291 79 228 79C161 79 146 144 146 241C146 359 168 419 249 419Z" transform="translate(131.7445,21.3594) scale(0.0250398,-0.0250398)" fill="#ffffff"/>
  <path d="M167 0V345C167 345 217 420 272 420C330 420 350 380 350 282V0H456V310C456 424 414 511 298 511C218 511 166 439 166 439L165 500H60V0Z" transform="translate(144.1397,21.3594) scale(0.0250398,-0.0250398)" fill="#ffffff"/>
  <path d="M346 500V155C346 155 295 80 241 80C183 80 163 120 163 218V500H56V190C56 59 103 -12 216 -12C296 -12 348 60 348 60L349 -1H453V499Z" transform="translate(156.7353,21.3594) scale(0.0250398,-0.0250398)" fill="#ffffff"/>
  <path d="M453 0V286C453 318 450 354 450 354C450 354 491 420 545 420C603 420 623 380 623 282V0H729V297C729 424 683 511 571 511C493 511 427 433 427 433C427 433 397 511 297 511C220 511 166 439 166 439L165 500H60V0H167V345C167 345 219 420 271 420C328 420 346 381 346 272V0Z" transform="translate(169.3559,21.3594) scale(0.0250398,-0.0250398)" fill="#ffffff"/>
</svg>
