<svg role="img" aria-label="my.goetheanum" xmlns="http://www.w3.org/2000/svg" viewBox="0 0 183.9541 27.369" width="969" height="144">
  <g transform="translate(0,2.6473) scale(0.8687)">
    <circle cx="14.2058" cy="14.1895" r="14.1733" fill="#ffffff"/>
    <path d="m14.2058.0162C6.3781.0162.0326,6.3618.0326,14.1895s6.3456,14.1733,14.1732,14.1733,14.1732-6.3457,14.1732-14.1733S22.0335.0162,14.2058.0162Zm-4.5201,22.2477h-2.0254s.0042-.491.0066-.7086c.0056-.385-.1166-.7142-.3035-1.0304-.0873-.1481-.4924-.6616-.5701-.7878l1.9048-1.3533s.8921,1.49.9713,2.0125c.0801.5225.0162,1.8677.0162,1.8677Zm1.0417-.0007l-.0178-2.1782c-.0283-1.3208-3.025-5.0471-3.025-5.0471l3.389-3.9956s2.4766,3.9592,2.4766,4.8845l.0388,6.3364h-2.8616Zm8.866.0004h-4.8547l.0057-6.2604c.0024-.4053-.0695-.7837-.1957-1.1631-.3843-1.1567-3.127-6.8104-3.127-6.8104l8.1716-2.8082v17.0421Z" fill="#0061a9"/>
  </g>
  <path d="M428 0V296C428 336 424 369 424 369C424 369 480 453 549 453C621 453 647 402 647 292V0H712V301C712 436 667 510 561 510C476 510 409 421 409 421C409 421 383 510 280 510C199 510 132 420 132 420V500H68V0H133V354C133 354 202 453 268 453C333 453 362 403 362 288V0Z" transform="translate(29.0012,21.3594) scale(0.0250398,-0.0250398)" fill="#0061a9"/>
  <path d="M25 500 159 0H226L162 -224H224L422 500H358L240 55H208L92 500Z" transform="translate(48.2323,21.3594) scale(0.0250398,-0.0250398)" fill="#0061a9"/>
  <path d="M64 0H130V104H64Z" transform="translate(59.2003,21.3594) scale(0.0250398,-0.0250398)" fill="#0061a9"/>
  <path d="M234 -237C358 -237 444 -168 444 -64C444 50 373 71 264 71C180 71 172 86 172 110C172 133 191 172 191 172C191 172 201 170 215 170C329 170 390 230 390 337C390 380 375 422 353 443H447V497L304 495C304 495 260 508 216 508C109 508 49 444 49 336C49 261 74 204 142 180C142 180 111 132 111 100C111 73 117 57 135 42C89 13 41 -43 41 -103C41 -216 121 -240 233 -240ZM260 11C332 11 379 2 379 -68C379 -142 322 -183 234 -183C150 -183 101 -166 101 -96C101 -47 141 0 178 18C195 14 230 11 259 11ZM213 225C141 225 109 266 109 335C109 406 142 451 214 451C295 451 327 408 327 335C327 266 295 225 212 225Z" transform="translate(63.8833,21.3594) scale(0.0250398,-0.0250398)" fill="#0061a9"/>
  <path d="M243 510C90 510 50 417 50 257C50 96 73 -9 244 -9C415 -9 438 96 438 257C438 417 397 510 244 510ZM244 46C122 46 114 126 114 256C114 390 140 452 244 452C348 452 374 390 374 256C374 126 366 46 244 46Z" transform="translate(75.4021,21.3594) scale(0.0250398,-0.0250398)" fill="#0061a9"/>
  <path d="M236 47C150 47 114 111 114 213V227H168C335 227 410 260 410 379C410 471 346 510 249 510C108 510 47 413 47 245C47 67 102 -8 231 -8C322 -8 392 19 392 19L388 68C388 68 305 48 235 48ZM113 279C114 391 152 455 247 455C307 455 344 435 344 378C344 298 294 279 166 279Z" transform="translate(87.3467,21.3594) scale(0.0250398,-0.0250398)" fill="#0061a9"/>
  <path d="M303 444V500H157V652H92V500H26V444H92V139C92 46 121 -10 220 -10C253 -10 310 1 310 1L307 53C307 53 256 46 227 46C176 46 158 81 158 141V443Z" transform="translate(98.4148,21.3594) scale(0.0250398,-0.0250398)" fill="#0061a9"/>
  <path d="M133 0V356C133 356 199 453 271 453C342 453 369 402 369 292V0H433V312C433 436 389 510 281 510C195 510 132 420 132 420V721H67V0Z" transform="translate(106.2779,21.3594) scale(0.0250398,-0.0250398)" fill="#0061a9"/>
  <path d="M236 47C150 47 114 111 114 213V227H168C335 227 410 260 410 379C410 471 346 510 249 510C108 510 47 413 47 245C47 67 102 -8 231 -8C322 -8 392 19 392 19L388 68C388 68 305 48 235 48ZM113 279C114 391 152 455 247 455C307 455 344 435 344 378C344 298 294 279 166 279Z" transform="translate(118.5229,21.3594) scale(0.0250398,-0.0250398)" fill="#0061a9"/>
  <path d="M207 -10C301 -10 357 88 357 88C357 47 362 -1 362 -1L427 2C427 2 421 71 421 121V494C421 494 302 511 248 511C87 511 49 402 49 241C49 79 88 -8 206 -8ZM256 456C284 456 357 445 357 445V159C357 159 299 49 219 49C134 49 115 128 115 242C115 381 140 457 256 457Z" transform="translate(129.5911,21.3594) scale(0.0250398,-0.0250398)" fill="#0061a9"/>
  <path d="M133 0V354C133 354 199 453 270 453C342 453 369 402 369 292V0H433V312C433 436 389 510 281 510C195 510 131 420 131 420V500H67V0Z" transform="translate(141.6358,21.3594) scale(0.0250398,-0.0250398)" fill="#0061a9"/>
  <path d="M366 500V146C366 146 299 47 228 47C156 47 129 98 129 208V500H64V195C64 58 108 -9 215 -9C300 -9 364 81 364 81V1H428V501Z" transform="translate(153.8808,21.3594) scale(0.0250398,-0.0250398)" fill="#0061a9"/>
  <path d="M428 0V296C428 336 424 369 424 369C424 369 480 453 549 453C621 453 647 402 647 292V0H712V301C712 436 667 510 561 510C476 510 409 421 409 421C409 421 383 510 280 510C199 510 132 420 132 420V500H68V0H133V354C133 354 202 453 268 453C333 453 362 403 362 288V0Z" transform="translate(166.1258,21.3594) scale(0.0250398,-0.0250398)" fill="#0061a9"/>
</svg>
