<svg role="img" aria-label="my.goetheanum" xmlns="http://www.w3.org/2000/svg" viewBox="0 0 189.2876 27.2746" width="998" height="144">
  <g transform="translate(0,2.6348) scale(0.8687)">
    <circle cx="14.2058" cy="14.1895" r="14.1733" fill="#ffffff"/>
    <path d="m14.2058.0162C6.3781.0162.0326,6.3618.0326,14.1895s6.3456,14.1733,14.1732,14.1733,14.1732-6.3457,14.1732-14.1733S22.0335.0162,14.2058.0162Zm-4.5201,22.2477h-2.0254s.0042-.491.0066-.7086c.0056-.385-.1166-.7142-.3035-1.0304-.0873-.1481-.4924-.6616-.5701-.7878l1.9048-1.3533s.8921,1.49.9713,2.0125c.0801.5225.0162,1.8677.0162,1.8677Zm1.0417-.0007l-.0178-2.1782c-.0283-1.3208-3.025-5.0471-3.025-5.0471l3.389-3.9956s2.4766,3.9592,2.4766,4.8845l.0388,6.3364h-2.8616Zm8.866.0004h-4.8547l.0057-6.2604c.0024-.4053-.0695-.7837-.1957-1.1631-.3843-1.1567-3.127-6.8104-3.127-6.8104l8.1716-2.8082v17.0421Z" fill="#0061a9"/>
  </g>
  <path d="M464 0V282C464 310 461 347 461 347C461 347 497 406 544 406C596 406 612 371 612 279V1H737V297C737 420 690 512 575 512C500 512 435 438 435 438C435 438 404 512 305 512C230 512 181 448 181 448L179 501H56V1H182V342C182 342 226 406 273 406C325 406 339 372 339 267V2Z" transform="translate(29.3016,21.3594) scale(0.0250398,-0.0250398)" fill="#0061a9"/>
  <path d="M14 500 130 0H214L158 -212H275L441 500H322L238 104H220L138 500Z" transform="translate(48.8332,21.3594) scale(0.0250398,-0.0250398)" fill="#0061a9"/>
  <path d="M52 0H179V147H52Z" transform="translate(60.0016,21.3594) scale(0.0250398,-0.0250398)" fill="#0061a9"/>
  <path d="M239 -231C362 -231 464 -166 464 -61C464 71 381 89 259 89C196 89 195 108 195 120C195 133 203 158 203 158C203 158 213 157 222 157C347 157 414 217 414 332C414 358 407 384 397 398H458V500L313 497C313 497 255 512 223 512C104 512 35 453 35 333C35 270 57 215 121 182C121 182 81 136 81 101C81 64 93 45 110 29C63 -4 26 -42 26 -97C26 -199 105 -231 237 -231ZM253 -17C310 -17 343 -22 343 -60C343 -101 302 -124 244 -124C170 -124 141 -108 141 -71C141 -47 158 -24 172 -11C188 -13 226 -16 253 -16ZM219 262C172 262 148 288 148 334C148 386 172 410 219 410C270 410 294 386 294 334C294 288 270 262 218 262Z" transform="translate(65.5609,21.3594) scale(0.0250398,-0.0250398)" fill="#0061a9"/>
  <path d="M243 511C79 511 33 397 33 251C33 105 75 -11 242 -11C409 -11 451 105 451 251C451 397 404 511 241 511ZM241 95C165 95 151 162 151 250C151 339 167 403 241 403C315 403 331 339 331 250C331 162 317 95 242 95Z" transform="translate(77.3302,21.3594) scale(0.0250398,-0.0250398)" fill="#0061a9"/>
  <path d="M252 97C192 97 159 133 159 187V204H195C349 204 436 229 436 357C436 467 367 511 243 511C89 511 34 386 34 234C34 68 99 -9 245 -9C340 -9 415 22 415 22L413 111C413 111 322 98 254 98ZM161 296C163 361 182 410 244 410C291 410 313 397 313 354C313 304 276 295 196 295Z" transform="translate(89.2748,21.3594) scale(0.0250398,-0.0250398)" fill="#0061a9"/>
  <path d="M312 393V500H198V631H73V500H21V393H73V152C73 46 100 -12 216 -12C250 -12 313 5 313 5L307 100C307 100 268 95 234 95C203 95 197 121 197 159V392Z" transform="translate(100.6434,21.3594) scale(0.0250398,-0.0250398)" fill="#0061a9"/>
  <path d="M182 0V344C182 344 225 404 274 404C324 404 340 369 340 277V-1H465V309C465 418 424 510 303 510C226 510 180 450 180 450V701H54V-2Z" transform="translate(108.6817,21.3594) scale(0.0250398,-0.0250398)" fill="#0061a9"/>
  <path d="M252 97C192 97 159 133 159 187V204H195C349 204 436 229 436 357C436 467 367 511 243 511C89 511 34 386 34 234C34 68 99 -9 245 -9C340 -9 415 22 415 22L413 111C413 111 322 98 254 98ZM161 296C163 361 182 410 244 410C291 410 313 397 313 354C313 304 276 295 196 295Z" transform="translate(121.4275,21.3594) scale(0.0250398,-0.0250398)" fill="#0061a9"/>
  <path d="M203 -12C286 -12 328 63 328 63C328 33 333 -3 333 -3L458 2C458 2 453 110 453 139V493C453 493 310 512 238 512C74 512 35 395 35 244C35 75 81 -11 203 -11ZM249 405C272 405 328 398 328 398V169C328 169 289 95 234 95C175 95 163 154 163 243C163 351 184 404 250 404Z" transform="translate(132.7962,21.3594) scale(0.0250398,-0.0250398)" fill="#0061a9"/>
  <path d="M182 0V341C182 341 225 405 272 405C324 405 340 370 340 278V0H465V309C465 419 423 511 303 511C226 511 179 447 179 447L177 500H54V0Z" transform="translate(145.3166,21.3594) scale(0.0250398,-0.0250398)" fill="#0061a9"/>
  <path d="M337 500V159C337 159 294 95 247 95C195 95 179 130 179 222V500H53V189C53 61 100 -11 215 -11C292 -11 339 53 339 53L341 0H464V500Z" transform="translate(158.0624,21.3594) scale(0.0250398,-0.0250398)" fill="#0061a9"/>
  <path d="M464 0V282C464 310 461 347 461 347C461 347 497 406 544 406C596 406 612 371 612 279V1H737V297C737 420 690 512 575 512C500 512 435 438 435 438C435 438 404 512 305 512C230 512 181 448 181 448L179 501H56V1H182V342C182 342 226 406 273 406C325 406 339 372 339 267V2Z" transform="translate(170.8333,21.3594) scale(0.0250398,-0.0250398)" fill="#0061a9"/>
</svg>
