<svg role="img" aria-label="my.goetheanum" xmlns="http://www.w3.org/2000/svg" viewBox="0 0 182.5269 27.3189" width="962" height="144">
  <g transform="translate(0,2.6473) scale(0.8687)">
    <circle cx="14.2058" cy="14.1895" r="14.1733" fill="#ffffff"/>
    <path d="m14.2058.0162C6.3781.0162.0326,6.3618.0326,14.1895s6.3456,14.1733,14.1732,14.1733,14.1732-6.3457,14.1732-14.1733S22.0335.0162,14.2058.0162Zm-4.5201,22.2477h-2.0254s.0042-.491.0066-.7086c.0056-.385-.1166-.7142-.3035-1.0304-.0873-.1481-.4924-.6616-.5701-.7878l1.9048-1.3533s.8921,1.49.9713,2.0125c.0801.5225.0162,1.8677.0162,1.8677Zm1.0417-.0007l-.0178-2.1782c-.0283-1.3208-3.025-5.0471-3.025-5.0471l3.389-3.9956s2.4766,3.9592,2.4766,4.8845l.0388,6.3364h-2.8616Zm8.866.0004h-4.8547l.0057-6.2604c.0024-.4053-.0695-.7837-.1957-1.1631-.3843-1.1567-3.127-6.8104-3.127-6.8104l8.1716-2.8082v17.0421Z" fill="#0061a9"/>
  </g>
  <path d="M418 0V300C418 344 414 377 414 377C414 377 475 467 550 467C627 467 656 412 656 297V1H705V303C705 441 660 510 556 510C469 510 402 417 402 417C402 417 377 510 273 510C191 510 119 414 119 414V501H71V1H120V359C120 359 196 467 267 467C336 467 369 413 369 295V1Z" transform="translate(28.926,21.3594) scale(0.0250398,-0.0250398)" fill="#0061a9"/>
  <path d="M28 500 167 0H229L163 -227H211L416 500H366L239 43H203L79 500Z" transform="translate(48.057,21.3594) scale(0.0250398,-0.0250398)" fill="#0061a9"/>
  <path d="M68 0H118V93H68Z" transform="translate(58.9499,21.3594) scale(0.0250398,-0.0250398)" fill="#0061a9"/>
  <path d="M233 -238C357 -238 439 -169 439 -65C439 44 372 66 267 66C178 66 168 81 168 108C168 134 189 177 189 177C189 177 199 175 214 175C326 175 386 235 386 341C386 389 369 435 343 457H445V499L302 497C302 497 262 510 216 510C111 510 53 445 53 341C53 264 79 207 147 186C147 186 118 138 118 106C118 81 123 65 141 50C95 21 45 -39 45 -100C45 -215 125 -237 232 -237ZM262 23C339 23 389 14 389 -63C389 -146 328 -192 233 -192C147 -192 93 -175 93 -96C93 -41 139 12 181 31C198 27 233 24 262 24ZM213 221C134 221 101 267 101 342C101 418 137 468 215 468C303 468 336 420 336 342C336 267 303 221 213 221Z" transform="translate(63.3825,21.3594) scale(0.0250398,-0.0250398)" fill="#0061a9"/>
  <path d="M243 510C92 510 53 423 53 259C53 94 71 -9 243 -9C415 -9 433 94 433 259C433 423 393 510 243 510ZM243 34C109 34 102 118 102 258C102 404 131 466 242 466C353 466 382 404 382 258C382 118 375 34 241 34Z" transform="translate(74.8262,21.3594) scale(0.0250398,-0.0250398)" fill="#0061a9"/>
  <path d="M231 34C139 34 103 105 103 219V233H162C333 233 406 267 406 384C406 471 342 509 252 509C115 509 53 419 53 247C53 67 105 -8 230 -8C320 -8 389 19 389 19L385 57C385 57 304 36 233 36ZM104 276C105 400 148 468 252 468C315 468 357 447 357 386C357 299 303 277 162 277Z" transform="translate(86.7708,21.3594) scale(0.0250398,-0.0250398)" fill="#0061a9"/>
  <path d="M301 457V500H147V657H98V500H28V457H98V135C98 46 127 -10 221 -10C254 -10 310 0 310 0L307 41C307 41 253 34 225 34C169 34 147 72 147 137V456Z" transform="translate(97.7638,21.3594) scale(0.0250398,-0.0250398)" fill="#0061a9"/>
  <path d="M120 0V359C120 359 192 466 269 466C346 466 376 411 376 296V0H424V312C424 440 380 509 275 509C188 509 120 412 120 412V725H71V-1Z" transform="translate(105.6018,21.3594) scale(0.0250398,-0.0250398)" fill="#0061a9"/>
  <path d="M231 34C139 34 103 105 103 219V233H162C333 233 406 267 406 384C406 471 342 509 252 509C115 509 53 419 53 247C53 67 105 -8 230 -8C320 -8 389 19 389 19L385 57C385 57 304 36 233 36ZM104 276C105 400 148 468 252 468C315 468 357 447 357 386C357 299 303 277 162 277Z" transform="translate(117.7216,21.3594) scale(0.0250398,-0.0250398)" fill="#0061a9"/>
  <path d="M208 -10C305 -10 365 94 365 94C365 50 370 -2 370 -2L419 1C419 1 413 60 413 115V493C413 493 300 510 251 510C90 510 52 402 52 238C52 77 90 -10 207 -10ZM258 466C287 466 364 455 364 455V154C364 154 301 34 215 34C124 34 103 118 103 238C103 385 129 466 258 466Z" transform="translate(128.7147,21.3594) scale(0.0250398,-0.0250398)" fill="#0061a9"/>
  <path d="M120 0V358C120 358 192 466 269 466C346 466 376 411 376 296V0H424V312C424 440 380 509 275 509C188 509 119 413 119 413V500H71V0Z" transform="translate(140.6342,21.3594) scale(0.0250398,-0.0250398)" fill="#0061a9"/>
  <path d="M373 500V142C373 142 300 34 223 34C146 34 117 89 117 204V500H68V196C68 57 112 -9 218 -9C305 -9 374 87 374 87V0H422V500Z" transform="translate(152.754,21.3594) scale(0.0250398,-0.0250398)" fill="#0061a9"/>
  <path d="M418 0V300C418 344 414 377 414 377C414 377 475 467 550 467C627 467 656 412 656 297V1H705V303C705 441 660 510 556 510C469 510 402 417 402 417C402 417 377 510 273 510C191 510 119 414 119 414V501H71V1H120V359C120 359 196 467 267 467C336 467 369 413 369 295V1Z" transform="translate(164.8738,21.3594) scale(0.0250398,-0.0250398)" fill="#0061a9"/>
</svg>
