<svg role="img" aria-label="my.goetheanum" xmlns="http://www.w3.org/2000/svg" viewBox="0 0 185.2562 27.2871" width="976" height="144">
  <g transform="translate(0,2.6473) scale(0.8687)">
    <circle cx="14.2058" cy="14.1895" r="14.1733" fill="#ffffff"/>
    <path d="m14.2058.0162C6.3781.0162.0326,6.3618.0326,14.1895s6.3456,14.1733,14.1732,14.1733,14.1732-6.3457,14.1732-14.1733S22.0335.0162,14.2058.0162Zm-4.5201,22.2477h-2.0254s.0042-.491.0066-.7086c.0056-.385-.1166-.7142-.3035-1.0304-.0873-.1481-.4924-.6616-.5701-.7878l1.9048-1.3533s.8921,1.49.9713,2.0125c.0801.5225.0162,1.8677.0162,1.8677Zm1.0417-.0007l-.0178-2.1782c-.0283-1.3208-3.025-5.0471-3.025-5.0471l3.389-3.9956s2.4766,3.9592,2.4766,4.8845l.0388,6.3364h-2.8616Zm8.866.0004h-4.8547l.0057-6.2604c.0024-.4053-.0695-.7837-.1957-1.1631-.3843-1.1567-3.127-6.8104-3.127-6.8104l8.1716-2.8082v17.0421Z" fill="#0061a9"/>
  </g>
  <path d="M437 0V293C437 329 433 364 433 364C433 364 484 440 547 440C615 440 639 394 639 289V0H718V299C718 431 673 510 564 510C482 510 416 426 416 426C416 426 389 510 286 510C208 510 146 428 146 428L145 500H65V0H146V351C146 351 208 440 269 440C331 440 357 395 357 282V0Z" transform="translate(29.0763,21.3594) scale(0.0250398,-0.0250398)" fill="#0061a9"/>
  <path d="M23 500 152 0H223L161 -221H238L427 500H348L239 69H209L103 500Z" transform="translate(48.3575,21.3594) scale(0.0250398,-0.0250398)" fill="#0061a9"/>
  <path d="M62 0H144V115H62Z" transform="translate(59.3756,21.3594) scale(0.0250398,-0.0250398)" fill="#0061a9"/>
  <path d="M236 -234C359 -234 449 -167 449 -63C449 55 376 76 263 76C185 76 178 92 178 113C178 134 194 170 194 170C194 170 204 168 218 168C334 168 397 228 397 337C397 376 384 414 365 432H450V499L307 497C307 497 259 510 219 510C108 510 46 448 46 337C46 266 70 209 137 183C137 183 104 136 104 103C104 74 112 56 130 41C84 11 39 -40 39 -100C39 -209 118 -234 236 -234ZM259 6C329 6 372 -2 372 -63C372 -129 319 -166 239 -166C158 -166 115 -148 115 -86C115 -44 149 -4 178 13C196 9 232 6 259 6ZM218 237C151 237 122 275 122 337C122 404 153 442 219 442C292 442 321 404 321 337C321 275 292 237 218 237Z" transform="translate(64.2589,21.3594) scale(0.0250398,-0.0250398)" fill="#0061a9"/>
  <path d="M243 510C87 510 45 412 45 254C45 98 72 -10 243 -10C414 -10 441 98 441 254C441 412 398 510 243 510ZM243 60C133 60 123 136 123 254C123 377 147 440 243 440C339 440 363 377 363 254C363 136 352 60 243 60Z" transform="translate(75.8278,21.3594) scale(0.0250398,-0.0250398)" fill="#0061a9"/>
  <path d="M240 60C161 60 125 116 125 206V221H175C339 221 417 251 417 373C417 470 352 509 247 509C103 509 44 405 44 241C44 66 101 -9 235 -9C327 -9 399 19 399 19L395 78C395 78 310 60 240 60ZM126 283C127 383 161 443 247 443C304 443 338 425 338 372C338 300 291 283 175 283Z" transform="translate(87.7724,21.3594) scale(0.0250398,-0.0250398)" fill="#0061a9"/>
  <path d="M306 430V500H168V646H88V500H24V430H88V142C88 46 117 -10 220 -10C254 -10 312 2 312 2L308 66C308 66 260 60 230 60C184 60 168 93 168 147V430Z" transform="translate(98.9156,21.3594) scale(0.0250398,-0.0250398)" fill="#0061a9"/>
  <path d="M146 0V353C146 353 206 440 271 440C337 440 362 394 362 289V0H442V312C442 431 399 510 288 510C205 510 146 429 146 429V716H65V0Z" transform="translate(106.8288,21.3594) scale(0.0250398,-0.0250398)" fill="#0061a9"/>
  <path d="M240 60C161 60 125 116 125 206V221H175C339 221 417 251 417 373C417 470 352 509 247 509C103 509 44 405 44 241C44 66 101 -9 235 -9C327 -9 399 19 399 19L395 78C395 78 310 60 240 60ZM126 283C127 383 161 443 247 443C304 443 338 425 338 372C338 300 291 283 175 283Z" transform="translate(119.199,21.3594) scale(0.0250398,-0.0250398)" fill="#0061a9"/>
  <path d="M207 -10C297 -10 350 82 350 82C350 43 355 -2 355 -2L436 1C436 1 430 80 430 125V493C430 493 305 510 246 510C84 510 46 398 46 240C46 76 87 -10 207 -10ZM255 440C282 440 349 432 349 432V160C349 160 297 60 223 60C146 60 128 133 128 240C128 371 152 440 255 440Z" transform="translate(130.3423,21.3594) scale(0.0250398,-0.0250398)" fill="#0061a9"/>
  <path d="M146 0V351C146 351 206 440 271 440C337 440 362 394 362 289V0H442V311C442 431 398 510 288 510C205 510 146 428 146 428L145 500H65V0Z" transform="translate(142.5122,21.3594) scale(0.0250398,-0.0250398)" fill="#0061a9"/>
  <path d="M358 500V149C358 149 297 60 233 60C166 60 142 106 142 211V500H61V192C61 58 106 -10 216 -10C299 -10 358 72 358 72L359 0H438V500Z" transform="translate(154.8824,21.3594) scale(0.0250398,-0.0250398)" fill="#0061a9"/>
  <path d="M437 0V293C437 329 433 364 433 364C433 364 484 440 547 440C615 440 639 394 639 289V0H718V299C718 431 673 510 564 510C482 510 416 426 416 426C416 426 389 510 286 510C208 510 146 428 146 428L145 500H65V0H146V351C146 351 208 440 269 440C331 440 357 395 357 282V0Z" transform="translate(167.2776,21.3594) scale(0.0250398,-0.0250398)" fill="#0061a9"/>
</svg>
