<?xml version="1.0" encoding="UTF-8"?>
<!-- source: fee.svg -->
<svg xmlns="http://www.w3.org/2000/svg" viewBox="0 0 1000 1000" width="1000" height="1000">
  <path d="M232.14770437078568 498.7466668083879C276.9448995601946 483.56866975408155 328.66797690059775 490.3471927103737 367.42344510722455 517.6086437302442C326.8996665641737 538.9757269620347 303.02747702244915 587.4569020189938 312.3111062886754 632.5488155978067C315.1109309880134 651.1160741302591 324.39456025423965 673.2199533355596 346.49843945954 672.6305165567517C356.96094228338234 672.6305165567517 421.7989879522636 648.1688902362191 432.7035683602119 645.369065536881C431.2299764131918 727.7428553753007 363.7394652396745 794.2018521859042 281.07095701185074 794.2018521859042C109.98693196282512 791.254668291864 71.3788229509003 556.6588303262752 232.14770437078568 498.74666680838794M459.9650193800825 479.00053471831944 408.9787380131894 500.0728995607059C389.08524672841895 482.2424370017635 365.80249396550255 468.83275028388124 340.45671247675796 460.58063538056905L343.99333314960603 403.84734542029787L400.7266231098772 359.19750942559097C416.78877533239563 346.52461868121867 439.33473212180206 346.52461868121867 455.39688434432037 359.19750942559097L477.79548193902485 376.58589440042726C514.6352806145256 403.84734542029787 501.2255938966433 463.8225376640131 460.11237857478454 479.14789391302145M909.9999999999999 188.40820276596932C909.9999999999999 188.40820276596932 904.1056322119198 166.00960517126487 904.1056322119198 165.71488678186086H471.3116773721367C440.2188872900141 165.71488678186086 409.5681747919974 176.32474880040508 385.106548471465 195.62880330636747L243.05228477873393 307.32707289048585C219.32745443171146 325.8943314229382 205.77040851912716 353.89257841631877 205.77040851912716 383.9538541355274L214.75931939594935 462.4963049116951C15.677047353543173 539.4178045461407 67.40012469394625 830.7469324720008 281.07095701185074 834.283553144849C389.969401896631 834.725630728955 479.85851066485293 741.152542093183 472.19583254034876 632.1067380137008L640.1853145006323 576.9943991951516C676.730394786729 565.3530228136933 703.6971274171957 552.2380544852151 749.6731961642206 513.1878678891842L750.2626329430286 512.5984311103762L805.6696901509818 455.71778195540304C824.9737446569442 432.7297475818906 870.065658235757 427.71953496202246 901.4531667072838 429.4878452984465L909.2632040264899 404.28942300440394C875.8126668291352 406.20509253552996 818.932017674162 401.78431669446985 798.8911671946896 424.03555509447233L743.3367507920344 477.3795835765975C698.6869147973274 515.2508966150123 664.4995816264627 528.0711465540866 636.796053022486 536.9126982362068C575.6419872211549 558.4271406626992 412.07328110193134 616.0445857911824 352.3928072476201 635.2012811024429C343.9933331496059 601.1613071262801 358.7292526198063 563.2899940878654 392.03243062245895 550.027666564685C392.03243062245895 550.027666564685 429.75638446617177 534.4075919262727 429.75638446617177 534.4075919262727C455.2495251496183 523.2082931289204 495.47858530326516 511.41955755276024 513.1616886675055 488.57888237394974C552.9486712370464 446.7288710785809 543.5176827761181 378.64892312625545 497.3942548343912 344.6089491500927C497.3942548343912 344.6089491500927 479.5637922754488 331.64134001631646 479.5637922754488 331.64134001631646C448.91307977743213 307.6217912798899 406.0315541191492 307.6217912798899 375.3808416211326 331.64134001631646L316.5845229350333 377.9121271527454C308.18504883701917 384.54329091433556 307.89033044761516 389.9955811183097 307.89033044761516 400.7528023315559V451.591724503747C294.9227213138389 450.854928530237 281.66039379065865 449.676054972621 268.54542546218033 450.707569335535C259.4091553906561 451.002287724939 250.12552612442994 453.21267564546906 240.84189685820377 453.5073940348731L235.38960665422965 383.65913574612364C235.38960665422965 365.9760323818832 243.34700316813783 349.4718025752589 257.34612666482815 338.56722216731066L403.9685253933212 222.3008175474302C421.3569103681575 208.59641244014392 448.6183613880281 195.48144411166564 470.86959978803054 195.48144411166564L909.4105632211918 188.11348437656548C909.4105632211918 188.11348437656548 909.4105632211918 188.11348437656548 909.4105632211918 188.11348437656548L909.9999999999999 188.40820276596932Z" fill="#000000"/>
</svg>
