<?xml version="1.0" encoding="UTF-8"?>
<!-- source: no dogs.svg -->
<svg xmlns="http://www.w3.org/2000/svg" viewBox="0 0 1000 1000" width="1000" height="1000">
  <path d="M401.44343522357093 647.3112129550129C400.5853412409693 616.4198295813527 398.86915327576594 585.2832764983776 395.55936220001666 554.5144779793748C387.59134664728685 556.5984205085504 379.7459159492144 558.6823630377258 371.90048525114196 560.6437207122439C377.7845582746962 609.5550777205393 379.99108565852913 660.0600378393807 380.4814250771587 709.4617342663056H401.8111897875432C401.93377464220055 691.0740060676983 401.8111897875432 665.8215260082776 401.3208503689137 647.4337978096703L401.44343522357093 647.3112129550129ZM753.7523075088866 697.9387579285117C752.4038741076554 656.9954164729461 737.20335213014 617.2779235639545 728.2546577401511 578.0507700735922C723.8416029724854 541.8882379496645 727.0288091935774 502.1707450406728 713.5444751812652 467.23406146331894C706.066799047165 469.3180039924944 698.4665380584072 471.5245313763273 690.7436922149923 473.85364361481754C690.7436922149923 473.9762284694749 691.1114467789644 474.5891527427618 691.1114467789644 474.7117375974192C705.0861202099059 509.40325146545825 700.4278957329254 549.12074437445 706.8023081751094 586.0187856263219C717.2220208209867 626.7169573725728 732.7902973624743 667.2925442641663 732.7902973624743 709.7069039756203L753.9974772182015 709.2165645569908C753.9974772182015 705.7841886265841 753.9974772182015 701.4937187135757 753.7523075088868 698.061342783169L753.7523075088866 697.9387579285117ZM241.8379544596596 338.2747943637531C244.04448184349252 357.39803169030466 253.8512702160831 377.5019478541153 272.23899841469034 385.5925482615025C288.17502952015 390.61852730245516 309.0144548119049 395.27675177943564 325.1956556266794 399.8123914017588C339.0477442029636 434.3813204151405 354.49343588979366 468.9502494285222 362.82920600649567 505.11278155244986C370.91980641388284 502.906254168617 379.01040682127007 500.5771419301268 387.10100722865724 498.2480296916365C383.0557070249637 478.1441135278258 376.3135400188076 458.8982913466169 369.57137301265163 439.7750540200653C397.15296531056254 428.8650019555583 423.2635393525849 414.52257396064465 447.41275572008914 397.23810945395377C479.77515734963805 425.43262602515165 530.5252871777941 419.30338329228255 570.2427800867858 423.22609864131874C591.6951296518278 424.8197017518647 613.2700640715268 425.555210879809 634.3546590725966 429.2327565195305C647.8389930849087 431.0715293393912 663.1620999170814 422.7357592226892 676.4012642200787 420.65181669351375C660.3426482599616 409.6191797743494 640.9742412240953 404.4706158787393 621.7284190428863 402.6318430588786C593.9016570356605 399.56722169244404 556.0229369465296 397.1155245992964 527.8284203753317 395.27675177943564C513.8537469443902 394.1734880875192 500.24682807742084 393.19280925026015 486.88507891976616 389.27009390122396C459.4260714765125 383.0182663136975 449.00635883063507 356.29476799838824 438.46406133010026 333.0036456134857C427.30883955627854 307.751165554065 408.1856022297269 282.86644005861643 380.4814250771585 274.5306699419145C359.2742452214315 266.68523924384203 335.9831228365289 273.1822365406833 315.6340369634035 279.43406412820974C315.6340369634035 279.43406412820974 307.78860626533105 285.68589171573626 307.78860626533105 285.68589171573626L297.6140633287684 303.4606956410566C282.78129591522514 306.2801472981764 266.10975568182124 310.32544750187 251.52215797759277 314.00299314159145C251.52215797759277 314.00299314159145 242.5734635876039 322.7065178222656 242.5734635876039 322.7065178222656C241.34761504103005 327.60991200856085 241.2250301863727 333.0036456134857 241.8379544596596 337.90703979978093V338.2747943637531ZM331.9378226328354 401.52857936696216C331.9378226328354 401.52857936696216 332.06040748749274 401.52857936696216 332.06040748749274 401.52857936696216H331.9378226328354ZM269.7873013215427 335.2101729973185C282.0457867872809 333.0036456134857 295.6527056542503 330.4293636656806 307.9111911199885 329.0809302644494L317.84056434723647 322.4613481129508C317.84056434723647 322.4613481129508 328.3828618477713 303.8284502050288 328.3828618477713 303.8284502050288C344.8092323718605 299.0476408733909 362.33886658786616 294.38941639641035 378.2748976933257 302.60260165845494C407.45009310178267 315.2288416881653 414.8051843812255 350.5332798294913 430.4960457773704 376.27609930754153C408.67594164835646 391.844375849029 385.13964955413905 404.5932007333967 360.377508913348 414.3999891059873C356.3322087096544 403.85769160545243 352.2869085059608 393.3153941049176 348.1190234476098 382.7730966043828C347.9964385929524 382.7730966043828 338.80257449364876 374.5599113423381 338.557404784334 374.68249619699554C338.557404784334 374.68249619699554 310.24030335847874 368.1854989001543 310.24030335847874 368.1854989001543C301.7819483871194 365.9789715163214 289.4008780667238 363.8950289871459 281.1876928046792 361.1981621846835C272.116413560033 356.539937707703 267.8259436470246 345.38471593388124 266.10975568182124 335.700512415948L269.78730132154266 334.96500328800374L269.7873013215427 335.2101729973185ZM789.9148396328142 210.17362124678897C532.3640599976547 -47.00940382439835 90.44565895779294 136.13236903373027 90.0779043938208 499.9642176568398C85.54226477149766 720.3717863308126 279.71667454879065 914.5461961081054 500.0016583681059 909.887971631125C863.9560918458728 909.5202170671528 1046.9752798493441 467.60181602729097 789.9148396328142 210.0510363921315V210.17362124678897ZM116.92398756378742 499.9642176568398C127.46628506432228 60.74268341944037 726.4158849202904 -29.11201504442056 865.9174495203911 386.08288768013205C621.7284190428863 447.98823928210993 368.8358638847074 516.5131730355864 126.73077593637808 586.1413704809793C120.35636349419423 558.437193328411 116.9239875637875 529.6297524839263 116.9239875637875 499.9642176568398H116.92398756378742ZM500.001658368106 883.0418884611584C326.2989193185958 883.0418884611584 179.31967858439486 766.8314462459603 132.49226410527498 608.0840594646507C376.68129458277986 546.1787078626728 629.8190194502733 477.7763589638537 871.9241073986027 408.02557666380335C933.2165347272937 644.6143461525505 744.926197973555 886.3516795369078 499.87907351344853 883.0418884611584H500.001658368106ZM690.2533527963628 682.8608208056537C687.3113162845857 657.7309256008904 677.9948673306246 633.3365395240714 664.5105333183126 611.8841899590295C648.5745022128531 585.1606916437203 624.4252858453488 563.7083420786785 609.9602729957776 536.3719194900822L596.2307692741508 529.0168282106392L465.43272935472424 543.6044259148678L452.80648932501396 557.5790993458093C450.84513165049583 607.7163049006784 430.8638003413426 656.7502467636313 434.78651569037885 707.8681311557596H456.23886525542065C455.380771272819 660.55037725801 473.64591461676895 617.0327538546395 480.38808162292486 570.5730939394916L590.5918659599113 557.211344781837C606.4053122107134 581.605730858656 628.2254163397274 600.851553039865 644.0388625905298 625.0007694073693C660.832987678591 649.3951554841883 670.0268517778948 678.4477660379878 670.2720214872095 708.1133008650742L691.601786197594 707.6229614464447C691.601786197594 699.7775307483722 691.234031633622 690.706251503726 690.2533527963628 682.7382359509961V682.8608208056537Z" fill="#000000"/>
</svg>
