<?xml version="1.0" encoding="UTF-8"?>
<!-- source: wc-ladies.svg -->
<svg xmlns="http://www.w3.org/2000/svg" viewBox="0 0 1000 1000" width="1000" height="1000">
  <path d="M339.45699711161103 907.7309696861764C343.0607511394485 854.8759106112276 347.1983946528914 774.2585982847905 350.1347868237219 720.6027049814334L362.5477173640508 706.1876888700837L402.8563735272694 697.1115676147895L390.44344298694045 711.3931113547377C394.58108650038344 654.8008258805501 392.8459456721654 597.1407614351514 390.44344298694045 540.4150035895623L403.65720775567763 523.7309571643891C411.398605296958 522.2627610789738 423.67806346588554 519.3263689081433 431.55293337856733 517.5912280799253L419.27347520963974 532.5401336768805C420.87514366645644 476.2147929454957 414.7354145819927 419.4890350999066 404.3245696126845 364.09800096833146C401.5216498132554 347.28048217175683 396.4496997000028 331.1303252321892 385.10454813088495 319.65170129166995C378.69787430361845 312.44419323599516 369.888697791127 311.24294189338264 361.2129936500369 308.1730773511508C350.2682591951232 303.90196146630643 340.65824845422344 296.0270915536247 335.31935359816805 285.3493018415138C317.3005834589809 243.97286670708414 351.0690934235315 220.74867408324297 350.00131445232046 186.179329890284C347.06492228149 136.52760772896846 280.328736580797 141.8665025850239 282.06387740901505 188.84877731831176C282.1973497804164 204.59851714367528 291.406943407112 220.08131222623604 297.27972774877304 235.43063493739547C310.8939096317144 266.66316984531977 297.81361723437857 305.1032128089189 262.04302169880714 311.91030375038963C262.7103835558141 311.77683137898816 262.04302169880714 311.91030375038963 262.1764940702085 311.91030375038963C234.68118556152302 319.9186460344728 230.27659730527728 354.2210454846289 225.87200904903153 378.51301707968116C217.06283253654007 429.2325182122079 211.59046530908324 481.153270687347 212.52477190889294 532.673606048282C212.52477190889294 532.673606048282 200.24531373996544 517.7247004513267 200.24531373996544 517.7247004513267C208.1201836526472 519.4598412795448 220.39964182157473 522.3962334503752 228.1410393628551 523.8644295357905L241.22133176019094 538.6798627613443C239.6196633033743 596.2064548353417 236.6832711325438 654.1334640235432 241.22133176019094 711.5265837261392L228.80840121986202 697.2450399861909L269.1170573830806 706.3211612414851L281.52998792340946 720.7361773528348C284.73332483704274 775.8602667416072 288.8709683504857 853.5411868972138 292.6081947497245 907.7309696861764L268.0492784118695 910.0C262.1764940702085 855.8102172110373 254.96898601453367 777.9958246840293 249.63009115847825 723.1386800380598L262.04302169880714 737.5536961494093L221.73436553558855 728.4775748941152L209.32143499525966 714.1960311541669C205.05031911041533 656.5359667087681 207.31934942423888 598.3420127777639 209.32143499525966 540.6819483323651L222.5351997639969 555.497381557919C213.8594956229068 553.8957131011024 201.71350982538067 550.9593209302718 193.0378056842906 548.9572353592511L180.2244580297576 533.8748573908944C179.55709617275068 479.68507460193166 185.83029762861582 425.7622365557718 195.573780740917 372.64023273802013C201.04614796837382 337.1365819452515 213.72602325150547 294.29195072540665 252.96690044351294 283.4806886418944C268.18275078327093 281.2116583280708 276.19109306735413 269.866506758953 272.1869219253125 253.84982219078668C266.84802706925706 232.7611875093677 253.90120704332264 214.875889741582 253.3673175577171 191.38475237493805C250.83134250109075 156.41499106777496 279.39442998098735 121.71217450341462 315.56544263076296 123.18037058882985C350.8021486807288 122.11259161761876 378.96481904642127 155.0802673537611 377.36315058960463 189.24919443251588C377.36315058960463 206.2001856004919 370.55605964813395 221.81645305445406 364.41633056367016 235.96452442300097C358.41007385060783 249.17828919173817 351.60298290913715 269.3326172733474 364.81674767787433 279.0761003856486C368.0200845915076 281.47860307087353 371.8907833621478 282.9467991562888 376.1618992469921 283.8811057560985C398.3183128996222 288.68611112654844 415.1358316961969 308.3065497225522 423.14417398028 328.06046068995727C443.69891917609345 394.6631740192488 449.438231146353 464.4692242621737 450.9064272317683 533.8748573908944L438.6269690628408 548.8237629878496C429.8177925503493 550.8258485588703 417.938751495626 553.6287683582995 409.1295749831345 555.3639091865175L422.34333975187167 538.6798627613442C425.01278717989936 596.8738166923486 426.614455636716 655.8686048517611 422.34333975187167 714.0625587827654L409.9304092115428 728.3441025227137L369.6217530483242 737.420223778008L382.03468358865314 723.0052076666583C376.8292611039991 776.9280457128182 369.22133593412 856.744523810847 363.3485515924591 909.8665276285986L339.456997111611 907.7309696861764H339.45699711161103ZM819.8240617851991 267.1970593309253 819.0232275567907 246.90925887791462C762.6978868254059 253.98329456218806 726.3934018042289 262.9259434460809 729.4632663464608 181.77474163403826C726.5268741756302 99.15534373658038 763.498721053814 108.89882684888155 819.0232275567907 116.1063349045564L819.8240617851991 96.08547919434851C748.950232571063 82.20435256860438 701.4340683521698 85.00727236803348 704.5039328944015 181.77474163403826C701.8344854663737 276.0062358434168 747.6155088570492 281.2116583280708 819.8240617851991 267.1970593309253M518.8438642750738 248.9113444489354 490.94813865218407 92.74866990931386H465.45491571451936L500.958566507288 270.13345150175576H542.2015292703163L574.1014260352475 123.44731533163262L606.2682675429816 270.13345150175576H647.5112303060098L682.7479363559756 92.74866990931386H657.5216581611137L629.7594049096255 249.04481682033682H623.352731082359L588.3829697751958 93.68297650912356H560.086827038102L525.3840104737416 248.9113444489354H518.9773366464751H518.8438642750738Z" fill="#000000"/>
</svg>
