<?xml version="1.0" encoding="UTF-8"?>
<!-- source: wifi.svg -->
<svg xmlns="http://www.w3.org/2000/svg" viewBox="0 0 1000 1000" width="1000" height="1000">
  <path d="M498.1788569736452 206.57013879100487C345.44566183002667 207.78423414190803 194.41220017767247 272.37410680995663 90.0 382.8567837421449L134.43588984305597 428.74958800628474C329.66242226828535 230.85204580906824 665.7240153982824 227.93821696690063 864.3500148060408 422.4362921815882L910.0 376.0578497770872C803.4024281907018 267.0320872659827 650.9120521172638 204.87040529974044 498.1788569736452 206.57013879100487M499.39295232454833 386.98470793521574C394.00947586615325 387.47034607557697 289.59727568848075 432.6346931291748 218.93692626591636 509.85115744661636L262.40153982824984 554.7726854300336C389.63873260290177 428.506768936104 609.1471720461947 426.3213973044783 739.0553745928337 549.6734849562403L782.0343500148059 505.96605232372616C710.1599052413384 429.72086428700715 605.019247853124 386.01343165449305 499.39295232454833 386.9847079352156M501.09268581581273 561.3288003249107C442.8161089724607 562.0572575354527 382.3541604974829 588.5245361851416 344.96002368966526 632.4747878878363L385.51080840983116 676.425039590531C449.12940479715724 618.3912818173596 551.5990524133846 617.9056436769984 616.4317441516138 674.7253060992666L661.1104530648504 629.3181399754881C622.5022209061297 586.0963454833353 560.0977198697067 559.8718859038269 501.3355048859934 561.3288003249106M503.0352383772579 722.3178438546709C485.5522653242523 722.3178438546709 468.3121113414272 729.1167778197287 455.1998815516731 742.4718266796634L503.0352383772579 793.4638314175966L550.1421379923008 741.7433694691216C537.0299082025466 728.8739587495479 520.0325732899023 722.5606629248515 503.0352383772579 722.5606629248515" fill="#000000"/>
</svg>
