<?xml version="1.0" encoding="UTF-8"?>
<!-- source: Bioabfall-Organic.svg -->
<svg xmlns="http://www.w3.org/2000/svg" viewBox="0 0 1000 1000" width="1000" height="1000">
  <path d="M327.13590545707325 646.4285714285716C327.13590545707325 658.0431004518596 323.21689259645456 663.2446993395899 316.1626694473409 667.3062217587767C325.49704553354184 671.3677441779632 329.2735488355926 677.5669099756692 329.2735488355926 688.9676746611055C329.2735488355926 707.7789363920751 318.5853319429961 715.4744525547446 299.63156065345845 715.4744525547446H267.5669099756691V622.7719847062913H298.99026763990264C315.806395550921 622.7719847062913 327.1359054570733 629.6836982968371 327.1359054570733 646.4285714285716H327.13590545707325ZM299.0615224191866 661.8196037539103C307.7546054918317 661.8196037539103 311.67361835245043 656.2617309697603 311.67361835245043 648.1386861313867C311.67361835245043 639.5881126173097 307.4695863746958 635.6690997566909 298.91901286061864 635.6690997566909H282.67292318387206V661.8196037539103H299.0615224191866ZM299.4890510948904 702.434827945777C309.25095585679514 702.434827945777 313.7400069516857 697.6607577337504 313.7400069516857 687.8275981925617C313.7400069516857 678.4932221063609 308.96593673965924 674.4316996871742 299.2752867570385 674.4316996871742H282.74417796315595V702.434827945777H299.5603058741744H299.4890510948904ZM342.8119568995481 621.9169273548837H357.7042057698991V637.5929787973585H342.811956899548V621.9169273548837H342.8119568995481ZM357.5616962113312 647.7824122349671V715.4744525547446H342.95446645811603V647.7824122349671H357.5616962113312ZM426.3225582203683 681.3434132777197C426.3225582203683 701.651025373653 421.47723322905784 716.9708029197079 398.6044490789015 716.9708029197079C375.73166492874515 716.9708029197079 370.8863399374347 701.651025373653 370.8863399374347 681.3434132777197C370.8863399374347 661.0358011817866 376.87174139728876 646.4285714285713 398.6044490789015 646.4285714285713C420.3371567605143 646.4285714285713 426.3225582203683 660.8932916232186 426.3225582203683 681.3434132777197ZM398.6044490789015 704.5012165450121C410.5039972193256 704.5012165450121 412.28536670142495 694.8818213416753 412.28536670142495 681.3434132777197C412.28536670142495 667.8050052137642 409.7201946472018 658.8981578032672 398.6044490789015 658.8981578032672C387.48870351060117 658.8981578032672 384.92353145637804 667.5912408759123 384.92353145637804 681.3434132777197C384.92353145637804 695.0955856795274 386.56239137990946 704.5012165450121 398.6044490789015 704.5012165450121ZM436.7970107751128 682.6972540841155C436.7970107751128 661.8908585331942 442.069864442127 646.2860618700036 464.15884602015973 646.2860618700036C473.20820298922473 646.2860618700036 491.66319082377464 648.7087243656586 491.66319082377464 648.7087243656586V697.3044838373305C491.66319082377464 702.0785540493571 492.30448383733045 715.3319429961766 492.30448383733045 715.3319429961766L477.6972540841153 715.9019812304484C477.6972540841153 715.9019812304484 476.9847062912756 710.4866180048662 476.9847062912756 705.9975669099756C476.9847062912756 705.9975669099756 470.7855404935696 716.9708029197081 459.2422662495655 716.9708029197081C442.71115745568306 716.9708029197081 436.79701077511294 705.3562738964199 436.79701077511294 682.6972540841155H436.7970107751128ZM462.51998609662843 704.5012165450121C471.07055961070563 704.5012165450121 476.9847062912756 693.0291970802919 476.9847062912756 693.0291970802919V659.895724713243C476.9847062912756 659.895724713243 468.7191518943344 658.8269030239833 465.51268682655535 658.8269030239833C454.68196037539104 658.8269030239833 451.689259645464 666.9499478623566 451.689259645464 682.7685088633993C451.689259645464 695.7368786930829 453.6131386861313 704.572471324296 462.51998609662843 704.572471324296V704.5012165450121ZM562.7042057698991 680.3458463677441C562.7042057698991 706.4963503649635 553.2273201251303 716.757038581856 532.3496697949251 716.757038581856C525.2954466458116 716.757038581856 507.8380257212372 715.1181786583245 507.8380257212372 715.1181786583245V619.5655196385123H522.4452554744523V653.839068474105C522.4452554744523 653.839068474105 530.8533194299616 646.2860618700036 540.0451859575946 646.2860618700036C557.0038234271808 646.2860618700036 562.632950990615 658.6131386861314 562.632950990615 680.4171011470282L562.7042057698991 680.3458463677441ZM532.919708029197 704.3587069864443C544.819256169621 704.3587069864443 547.811956899548 696.9482099409106 547.811956899548 680.4171011470282C547.811956899548 668.8738269030239 546.0305874174487 658.7556482446994 536.6962113312477 658.7556482446994C529.2857142857142 658.7556482446994 522.4452554744526 665.952380952381 522.4452554744526 665.952380952381V703.5749044143204C522.4452554744526 703.5749044143204 530.4257907542578 704.3587069864443 532.8484532499131 704.3587069864443H532.919708029197ZM592.0611748348974 744.546402502607H578.5227667709419V660.3232533889468H571.7535627389641V647.7111574556832H578.5227667709419V643.6496350364964C578.5227667709419 625.4796663190825 584.2231491136599 618.069169273549 596.5502259297878 618.069169273549C600.8967674661103 618.069169273549 609.6611053180395 619.5655196385123 609.6611053180395 619.5655196385123L609.5185957594715 631.4650677789364C609.5185957594715 631.4650677789364 603.9607229753215 630.6812652068127 599.8992005561349 630.6812652068127C594.0563086548489 630.6812652068127 593.1299965241571 635.8116093152589 593.1299965241571 643.7921445950644V647.7111574556832H608.8060479666319V660.3232533889468H593.1299965241571V715.4031977754607L592.0611748348974 744.4751477233231V744.546402502607ZM615.2189781021896 682.6972540841155C615.2189781021896 661.8908585331942 620.4918317692038 646.2860618700036 642.5808133472367 646.2860618700036C651.6301703163017 646.2860618700036 670.0851581508516 648.7087243656586 670.0851581508516 648.7087243656586V697.3044838373305C670.0851581508516 702.0785540493571 670.7264511644073 715.3319429961766 670.7264511644073 715.3319429961766L656.1192214111923 715.9019812304484C656.1192214111923 715.9019812304484 655.4066736183524 710.4866180048662 655.4066736183524 705.9975669099756C655.4066736183524 705.9975669099756 649.2075078206465 716.9708029197081 637.6642335766423 716.9708029197081C621.13312478276 716.9708029197081 615.2189781021898 705.3562738964199 615.2189781021898 682.6972540841155H615.2189781021896ZM640.9419534237052 704.5012165450121C649.4925269377823 704.5012165450121 655.4066736183524 693.0291970802919 655.4066736183524 693.0291970802919V659.895724713243C655.4066736183524 659.895724713243 647.1411192214111 658.8269030239833 643.9346541536322 658.8269030239833C633.1039277024677 658.8269030239833 630.1112269725409 666.9499478623566 630.1112269725409 682.7685088633993C630.1112269725409 695.7368786930829 632.0351060132082 704.572471324296 640.9419534237052 704.572471324296V704.5012165450121ZM701.1522419186651 619.5655196385123V715.4031977754605H686.4025026068821V619.5655196385123H701.1522419186651ZM732.4330900243308 619.5655196385123V715.4031977754605H717.6833507125477V619.5655196385123H732.4330900243308ZM319.36913451511987 787.2992700729926C324.3569690649982 784.0215502259298 331.12617309697595 782.4539450816821 340.3180396246089 782.4539450816821C368.46367744177957 782.4539450816821 374.3065693430656 797.4887035106012 374.3065693430656 830.1233924226624C374.3065693430656 853.1386861313867 371.45637817170655 868.0309350017378 359.98435870698637 874.9426485922836C355.13903371567596 877.7928397636426 348.7261035801181 879.2891901286062 340.38929440389285 879.2891901286062C312.2436565867222 879.2891901286062 306.25825512686816 862.9005908932916 306.25825512686816 830.1233924226624C306.25825512686816 808.0344108446297 308.9659367396593 794.1397288842543 319.36913451511987 787.3705248522765V787.2992700729926ZM353.64268335071245 869.2422662495655C364.045881126173 864.2544316996873 365.6847410497044 851.3573166492874 365.6847410497044 830.1233924226624C365.6847410497044 801.9777546054918 362.8345498783454 790.0782064650678 340.38929440389285 790.0782064650678C334.97393117831064 790.0782064650678 330.76989920055604 790.6482446993396 327.42092457420915 792.1445950643031C316.59019812304473 796.6336461591936 314.9513381995133 808.6757038581854 314.9513381995133 830.1946472019463C314.9513381995133 858.3402850191169 317.80152937087234 871.7361835245047 340.38929440389285 871.7361835245047C345.947167188043 871.7361835245047 350.1511991657976 871.0948905109487 353.64268335071245 869.3135210288494V869.2422662495655ZM421.7622523461938 808.8894681960376V817.5825512686827C411.7153284671532 820.0052137643379 399.53076120959315 827.8432394855752 399.53076120959315 827.8432394855752V877.9353493222106H391.40771637121986V810.2433090024331H399.53076120959315V820.7890163364616C399.53076120959315 820.7890163364616 409.7914494264857 811.9534237052485 421.7622523461938 808.8894681960376ZM428.88773027459143 891.5450121654501C428.88773027459143 883.2794577685088 435.5144247480013 875.5839416058393 441.7848453249912 871.6649287452208C439.21967327076806 869.5272853667013 438.5071254779283 867.318387208898 438.5071254779283 863.8269030239833C438.5071254779283 859.4803614876607 442.56864789711494 852.996176572819 442.56864789711494 852.996176572819C433.51929092804994 849.8609662843239 429.95655196385115 842.1654501216544 429.95655196385115 831.976016684046C429.95655196385115 817.5112964893988 437.93708724365655 808.8182134167537 452.4018074383037 808.8182134167537C458.3872088981578 808.8182134167537 464.01633646159183 810.599582898853 464.01633646159183 810.599582898853L483.39763642683346 810.3145637817172V817.2262773722628H470.4292665971497C473.70698644421265 819.9339589850538 475.844629822732 825.9193604449081 475.844629822732 831.976016684046C475.844629822732 846.4407368786931 467.4365658672228 854.5637817170664 452.1167883211679 854.5637817170664C450.1216545012165 854.5637817170664 448.767813694821 854.2787625999306 448.767813694821 854.2787625999306C448.767813694821 854.2787625999306 446.20264164059785 859.6941258255126 446.20264164059785 862.9718456725757C446.20264164059785 866.2495655196385 447.41397288842546 868.5297184567257 458.9572471324297 868.5297184567257C473.56447688564475 868.5297184567257 482.89885297184577 871.379909628085 482.89885297184577 886.5571776155718C482.89885297184577 900.665623913799 471.49808828640954 910.0 454.75321515467505 910.0C439.718456725756 910.0 428.88773027459166 906.864789711505 428.88773027459166 891.616266944734L428.88773027459143 891.5450121654501ZM455.03823427181084 902.8032672923184C467.22280152937066 902.8032672923184 475.06082725060816 896.9603753910324 475.06082725060816 886.5571776155718C475.06082725060816 876.795272853667 468.5766423357664 875.7264511644073 458.5297184567257 875.7264511644073C454.61070559610704 875.7264511644073 449.8366353840806 875.2989224887035 447.55648244699324 874.6576294751476C442.426138338547 877.0802919708028 436.72575599582893 883.7069864442128 436.72575599582893 890.6187000347584C436.72575599582893 900.523114355231 443.4949600278067 902.8032672923184 454.96697949252683 902.8032672923184H455.03823427181084ZM452.1880431004518 847.4383037886687C463.73131734445604 847.4383037886687 468.0066041014946 841.4529023288146 468.0066041014946 831.976016684046C468.0066041014946 821.8578380257213 463.66006256517204 815.8724365658672 452.4730622175876 815.8724365658672C442.426138338547 815.8724365658672 437.8658324643725 822.0716023635732 437.8658324643725 831.976016684046C437.8658324643725 841.8804310045189 442.2123740006951 847.4383037886687 452.1880431004518 847.4383037886687ZM493.08828640945416 845.5144247480014C493.08828640945416 823.5679527285365 498.2186305179005 808.8182134167535 520.0225929787973 808.8182134167535C527.2193256864789 808.8182134167535 543.0378866875217 811.0983663538407 543.0378866875217 811.0983663538407V861.8317692040318C543.0378866875217 868.8859923531456 543.8216892596454 877.7928397636426 543.8216892596454 877.7928397636426L535.6986444212721 878.0778588807784C535.6986444212721 878.0778588807784 535.0573514077162 871.4511644073687 535.0573514077162 865.6082725060826C535.0573514077162 865.6082725060826 527.3618352450469 879.1466805700381 514.3222106360793 879.1466805700381C498.5036496350364 879.1466805700381 493.08828640945416 867.3896419881819 493.08828640945416 845.4431699687175V845.5144247480014ZM515.8185610010426 872.0924574209246C526.9343065693429 872.0924574209246 535.0573514077162 856.7726798748697 535.0573514077162 856.7726798748697V817.3687869308308C535.0573514077162 817.3687869308308 525.0104275286756 816.0149461244353 521.2339242266248 816.0149461244353C504.9878345498783 816.0149461244353 501.49635036496346 826.4181438998958 501.49635036496346 845.5144247480014C501.49635036496346 861.1904761904759 504.2040319777545 872.0212026416405 515.8185610010428 872.0212026416405L515.8185610010426 872.0924574209246ZM569.8296836982968 810.172054223149 569.9721932568646 821.2877997914493C569.9721932568646 821.2877997914493 578.8077858880777 808.8182134167535 590.4223149113659 808.8182134167535C604.8870351060132 808.8182134167535 610.872436565867 818.7226277372263 610.872436565867 835.6100104275288V877.8640945429268H602.7493917274937V838.175182481752C602.7493917274937 822.9979144942649 599.115397984011 815.9436913451514 589.0684741049704 815.9436913451514C579.0215502259298 815.9436913451514 569.9721932568646 829.7671185262427 569.9721932568646 829.7671185262427V877.7928397636429H561.8491484184913V810.1007994438653H569.8296836982968V810.172054223149ZM628.8998957247131 783.6652763295099H637.3079596802224V794.2109836635384H628.8998957247131V783.6652763295099ZM637.1654501216544 877.8640945429268H629.0424052832811V810.1720542231492H637.1654501216544V877.8640945429268ZM695.2380952380952 810.599582898853 694.8105665623914 817.3687869308308C694.8105665623914 817.3687869308308 685.7612095933264 816.157455683003 680.844629822732 816.157455683003C665.952380952381 816.157455683003 661.6058394160584 824.8505387556484 661.6058394160584 842.9492526937784C661.6058394160584 861.0479666319081 663.8859923531454 872.0212026416407 680.844629822732 872.0212026416407C685.6899548140425 872.0212026416407 694.8105665623914 870.952380952381 694.8105665623914 870.952380952381L695.2380952380952 877.436565867223C695.2380952380952 877.436565867223 685.6187000347584 879.2179353493223 679.5620437956204 879.2179353493223C657.6155717761555 879.2179353493223 653.269030239833 866.1070559610705 653.269030239833 842.9492526937784C653.269030239833 819.791449426486 660.9645464025025 808.9607229753215 679.5620437956204 808.9607229753215C685.7612095933264 808.9607229753215 695.2380952380952 810.599582898853 695.2380952380952 810.599582898853ZM682.6259993048313 214.2683350712548C651.2026416405977 155.12686826555444 570.8272506082724 151.06534584636776 514.963503649635 177.14459506430308C513.5384080639553 162.25234619395206 513.1108793882515 147.57386166145292 516.1748348974625 134.17796315606535C519.5238095238094 118.00312825860271 530.2832811956898 106.74487313173444 546.7431352102883 103.75217240180746C546.7431352102883 103.75217240180746 544.3917274939172 90.0 544.3917274939172 90.0C523.514077163712 91.92387904066737 504.5603058741744 109.52380952380952 499.99999999999994 129.76016684045882C495.4396941258254 145.72123740006955 495.1546750086895 161.89607229753216 495.8672228015293 177.99965241571078C466.43899895724707 167.81021897810217 435.0156412930134 164.1762252346194 404.01981230448376 170.09037191518945C367.3948557525199 176.36079249217937 335.4727146332985 203.93639207507817 322.64685436218275 238.56621480709072C320.86548488008333 242.91275634341326 323.14563781717055 247.82933611400762 327.5634341327771 249.32568647897114C360.0556134862703 263.71915189433435 399.8870351060131 280.4640250260688 412.92665971498076 315.94890510948903C420.4796663190823 360.83941605839414 405.08863399374343 421.1922141119221 355.9940910670837 433.51929092805C352.43135210288483 435.58567952728544 351.2200208550572 440.2172401807438 353.28640945429254 443.7799791449426C368.7486965589154 469.645464025026 386.63364615919346 494.7984011122697 412.92665971498076 511.04449078901627C423.1873479318734 517.1724018074383 435.37191518943337 521.5189433437608 447.77024678484526 520.8776503302049C466.43899895724707 518.6687521724018 482.11505039972184 509.26312130691684 500.78380257212365 509.04935696906495C553.9398679179699 503.9190128606187 583.2255822036843 538.4063260340631 624.9808828640944 484.11018421967316C632.462634688912 474.20576989920045 638.305526590198 463.51755300660403 643.4358706986443 452.4018074383037C646.0010427528673 447.98401112269715 645.7160236357315 441.8561001042752 642.0107751129647 438.00834202294055C582.1567605144246 369.0337156760513 572.8223844282238 307.82586027111574 653.554049356969 251.24956551963845C661.4633298574904 245.76294751477224 669.0875912408758 241.06013208202984 678.2082029892247 236.28606187000344C686.1887382690302 231.72575599582893 687.1863051790058 221.46506777893632 682.5547445255472 214.1258255126868L682.6259993048313 214.2683350712548ZM671.0827250608272 224.24400417101145C567.4782759819254 280.10775112964893 547.5269377824122 359.9131039277025 632.6763990267639 446.27389641988185C632.462634688912 446.70142509558576 631.1087938825165 449.6941258255127 631.1087938825165 449.6941258255127C621.5606534584635 470.5717761557178 606.7396593673966 493.4445603058742 584.294403892944 500.64129301355587C570.8985053875565 505.1303441084463 558.6426833507126 500.00000000000006 545.0330205074731 496.93604449078913C515.7473062217587 489.31178310740376 483.32638164754945 493.1595411887384 456.10705596107044 505.4153632255823C420.83594021550215 515.6760514424748 388.9137990962808 474.06326034063267 371.24261383385465 444.27876259993064C421.6909975669099 424.46993395898517 437.43830378866863 360.26937782412244 428.81647549530754 311.31734445603075C419.48209940910664 281.10531803962476 391.55022592978787 262.15154675008705 365.47097671185253 247.75808133472378C357.63295099061514 243.6253041362532 349.79492526937776 239.9200556134864 341.5293708724365 236.78484532499147C347.3722627737226 224.95655196385138 354.92526937782407 214.2683350712549 364.9009384775808 206.00278067431367C402.95099061522416 174.50816823079612 460.0973236009732 180.13729579423023 503.1352102884949 198.44977407021213C505.486618004866 199.44734098018785 508.2655543969411 199.44734098018785 510.68821689259636 198.09350017379228C556.6475495307611 171.871741397289 625.9071949947861 165.5300660410151 662.8171706638859 209.42301007994456C666.3086548488006 213.62704205769916 669.0163364615919 218.47236704900956 671.367744177963 223.31769204031997C671.510253736531 223.60271115745587 671.367744177963 223.95898505387578 671.225234619395 224.10149461244367L671.0827250608272 224.24400417101145Z" fill="#000000"/>
</svg>
