<?xml version="1.0" encoding="UTF-8"?>
<!-- source: Bühne_Bühne_2_Black_Rgb.svg -->
<svg xmlns="http://www.w3.org/2000/svg" viewBox="0 0 1000 1000" width="1000" height="1000">
  <path d="M740.2005133946968 214.20666046197476 906.7313602949306 156.97661983665438V504.2798905669252H807.798553891367L807.913937037789 376.69909723743797C807.9633869576841 368.4409606149479 806.4963726674613 360.7267731113045 803.9249768329136 352.99610230102934C796.0954061828481 329.42497381767447 740.2005133946968 214.20666046197474 740.2005133946968 214.20666046197474M733.106098220406 275.59873601180357C733.106098220406 275.59873601180357 783.5779831267224 356.2845219740568 783.5779831267224 375.14142476074073L784.3691818450449 504.2716489136093H726.0512429820312L725.6886102361335 459.8821041543962C725.1116945040235 432.96486442480284 664.0410434335131 357.02627077248405 664.0410434335131 357.02627077248405L733.106098220406 275.5987360118035V275.59873601180357ZM645.8764395253612 452.7926339720949 684.694626643054 425.2160619772329C684.694626643054 425.2160619772329 702.8757138578375 455.57831279285506 704.4910779077458 466.22652887694403C706.1229252642856 476.87474496103306 704.8207440403801 504.28648388957794 704.8207440403801 504.28648388957794H663.5465442345616C663.5465442345616 504.28648388957794 663.6289607677202 494.2811167641259 663.6784106876153 489.8471072801941C663.7937938340373 482.00105332349693 661.3048145326482 475.2923475243883 657.4971707007215 468.84737463138697C655.7169735844961 465.83092951778286 647.458836962006 455.3640298066427 645.8764395253613 452.7926339720949M136.13018193952234 617.0735095170994H166.1100200412887V674.5672830485273C166.1100200412887 674.5672830485273 143.54272493180534 678.1886655155154 131.18354161934417 678.1886655155154C99.06252198611784 678.1886655155154 90.0 651.9950429470543 90.0 619.3778757842134C90.0 583.627232030683 98.40318972084917 560.8934555242195 131.84452221527602 560.8934555242195C149.31023392224301 560.8934555242195 166.11166837195185 565.1758185871395 166.11166837195185 565.1758185871395L165.45233610668316 575.224042309834C165.45233610668316 575.224042309834 146.34488705919716 572.0971590417973 132.67033587752502 572.0971590417973C106.47671330906401 572.0971590417973 103.0152189164035 592.3584395535033 103.0152189164035 619.3778757842135C103.0152189164035 644.9121660874058 108.61624650986084 666.9882586592639 132.50550281120783 666.9882586592639C140.74385946573983 666.9882586592639 153.42776391884584 664.8437804664777 153.42776391884584 664.8437804664777V627.9409535793902H136.13183027018553V617.0718611864363L136.13018193952234 617.0735095170994ZM248.3666651255445 634.5359245627401C248.3666651255445 660.5647140648839 244.24913512894167 678.1903138461785 216.080812426001 678.1903138461785C187.91248972306033 678.1903138461785 183.790014734468 660.5647140648839 183.790014734468 634.5359245627401C183.790014734468 608.3423019942791 190.54322546148234 592.5265692811469 216.080812426001 592.5265692811469C241.45026966287617 592.5265692811469 248.3666651255445 608.3423019942791 248.3666651255445 634.5359245627401ZM236.50692600402434 634.5359245627401C236.50692600402434 613.613663455102 232.38609934609516 603.2357735997732 216.07916409533783 603.2357735997732C199.77222884458052 603.2357735997732 195.64810552532498 613.613663455102 195.64810552532498 634.5359245627401C195.64810552532498 654.6323720081291 197.29808451915983 667.4827578582153 216.07916409533783 667.4827578582153C234.86024367151583 667.4827578582153 236.50692600402434 654.6340203387922 236.50692600402434 634.5359245627401ZM320.8948626357611 664.3542262595156 321.5541949010298 673.413451584307C321.5541949010298 673.413451584307 309.6911591181833 678.0254807798615 294.69959173663693 678.0254807798615C272.9531652974131 678.0254807798615 263.5642738399873 665.6712424593898 263.5642738399873 636.6771060942001C263.5642738399873 609.3329487228452 273.4476644963646 592.6914023474641 297.0056063344141 592.6914023474641C313.8103374454493 592.6914023474641 324.5195417640756 599.1132986111809 324.5195417640756 614.7641982579959C324.5195417640756 634.7007576290572 311.8356373109696 639.807286023563 284.6513680139425 639.807286023563H276.08334522677615V642.2781336876574C276.08334522677615 657.7642002681553 282.01568728353095 667.4827578582153 295.3589240019056 667.4827578582153C307.0538300571086 667.4827578582153 320.89321430509796 664.3558745901787 320.89321430509796 664.3558745901787L320.8948626357611 664.3542262595156ZM284.4881832782885 630.2535614998201C304.4197976573603 630.2535614998201 312.328488179258 627.2882146367742 312.328488179258 614.9290313243131C312.328488179258 605.8698059995215 306.5659241808098 602.9044591364757 297.0089029957405 602.9044591364757C282.1838170111745 602.9044591364757 276.4163080207368 612.9526828591702 276.2514749544197 630.2535614998201H284.4898316089517H284.4881832782885ZM357.8372494587646 604.8808076016186V652.6560235429862C357.8372494587646 661.8833785954212 360.6377632554932 667.4811095275522 368.5464537773909 667.4811095275522C373.4881491055796 667.4811095275522 381.56167269379443 666.4954077909756 381.56167269379443 666.4954077909756L382.22100495906307 676.2139653810357C382.22100495906307 676.2139653810357 372.6639837739938 678.1903138461787 367.06625284186276 678.1903138461787C350.42635479714477 678.1903138461787 345.6494925352732 668.9662554550699 345.6494925352732 653.317004138918V604.8808076016186H334.9402882166469V594.1716032829922H345.6494925352732V569.7894961133569H357.8388977894278V594.1716032829922H381.0671734948429V604.8808076016186H357.8388977894278H357.8372494587646ZM395.0977640997602 676.5436315136701V558.259423124471H407.4520024202319V606.3659535291363C407.4520024202319 606.3659535291363 417.5002261429264 592.5265692811469 431.33961039091577 592.5265692811469C449.4613577018251 592.5265692811469 456.54423456147373 605.2104737342529 456.54423456147373 625.1470331053142V676.5452798443332H444.3548293073192V628.7700639029656C444.3548293073192 611.1444641216708 440.07246624439927 603.2357735997732 428.86876272682144 603.2357735997732C417.8298922755608 603.2357735997732 407.45200242023196 618.2256926506564 407.45200242023196 618.2256926506564V676.5452798443332H395.09776409976024L395.0977640997602 676.5436315136701ZM531.5482247277741 664.3542262595156 532.2042603317166 673.413451584307C532.2042603317166 673.413451584307 520.3445212101964 678.0254807798615 505.3546021593132 678.0254807798615C483.6081757200894 678.0254807798615 474.21433927067403 665.6712424593898 474.21433927067403 636.6771060942001C474.21433927067403 609.3329487228452 484.1026749190409 592.6914023474641 507.66061675709034 592.6914023474641C524.4620512067993 592.6914023474641 535.1696071947624 599.1132986111809 535.1696071947624 614.7641982579959C535.1696071947624 634.7007576290572 522.4857027416564 639.807286023563 495.3014334446292 639.807286023563H486.73835564945233V642.2781336876574C486.73835564945233 657.7642002681553 492.66575271421766 667.4827578582153 506.0106377632555 667.4827578582153C517.7088404797848 667.4827578582153 531.5482247277741 664.3558745901787 531.5482247277741 664.3558745901787V664.3542262595156ZM495.14154537030157 630.2535614998201C515.0731597493734 630.2535614998201 522.981850271271 627.2882146367742 522.981850271271 614.9290313243131C522.981850271271 605.8698059995215 517.2143412808334 602.9044591364757 507.66226508775355 602.9044591364757C492.83223411119803 602.9044591364757 487.06967011274986 612.9526828591702 486.9048370464327 630.2535614998201H495.14319370096473H495.14154537030157ZM549.2150327756482 637.0067722268343C549.2150327756482 610.8131496583734 555.4720959730478 592.5265692811469 582.1618660711235 592.5265692811469C591.5540541898756 592.5265692811469 611.816983032245 595.3270830778755 611.816983032245 595.3270830778755V656.2823510019639C611.816983032245 664.0245601268812 612.8076297608111 676.3787984473529 612.8076297608111 676.3787984473529L600.44844644835 676.8732976463043C600.44844644835 676.8732976463043 599.6275777780904 669.2959215877042 599.6275777780904 662.7042472656808C599.6275777780904 662.7042472656808 590.7298888582898 678.1903138461785 575.5751367410894 678.1903138461785C555.9682435026625 678.1903138461785 549.2166811063113 664.0245601268812 549.2166811063113 637.0067722268343H549.2150327756482ZM561.734104162437 637.0067722268343C561.734104162437 655.1285195377437 564.8642840918001 667.4827578582153 578.0443360745206 667.4827578582153C590.5634074613095 667.4827578582153 599.4610963811101 650.3516572758722 599.4610963811101 650.3516572758722V604.7159745353014C599.4610963811101 604.7159745353014 588.0925597972152 603.2357735997732 583.645363667978 603.2357735997732C565.8549308203662 603.2357735997732 561.734104162437 614.9306796549762 561.734104162437 637.0067722268343ZM633.6062660687113 676.5436315136701V594.1716032829922H645.7956713228658L645.9605043891829 606.5307865954535C645.9605043891829 606.5307865954535 656.0087281118774 592.526569281147 669.8481123598667 592.526569281147C687.8050266044588 592.526569281147 695.0527365304247 605.2104737342529 695.0527365304247 625.3085695103051V676.5452798443332H682.8633312762702V628.7700639029656C682.8633312762702 611.144464121671 678.5809682133503 603.2357735997733 667.3772646957723 603.2357735997733C656.3383942445117 603.2357735997733 645.9605043891828 618.5553587832908 645.9605043891828 618.5553587832908V676.5452798443334H633.6062660687112L633.6062660687113 676.5436315136701ZM776.9747704900568 594.1716032829922V676.5436315136701H764.9501983022194L764.7853652359023 664.1893931931984C764.7853652359023 664.1893931931984 754.7371415132078 678.1903138461785 740.8977572652185 678.1903138461785C722.9408430206264 678.1903138461785 715.525003367017 666.9915553205901 715.525003367017 644.7489813517516V594.1716032829921H727.8841866794783V641.9468192243598C727.8841866794783 659.5724190056544 732.0017166760811 667.4811095275521 743.3702532599762 667.4811095275521C754.4091237112367 667.4811095275521 764.7870135665656 652.1615243440347 764.7870135665656 652.1615243440347V594.171603282992H776.9764188207201L776.9747704900568 594.1716032829922ZM847.2018983944857 676.5436315136701V629.7574139702053C847.2018983944857 610.9763343940274 842.7547022652486 603.2341252691101 832.3718674179303 603.2341252691101C821.9890325706118 603.2341252691101 811.2847732439751 618.5537104526276 811.2847732439751 618.5537104526276V676.5436315136701H798.9305349235035V594.1716032829922H811.1232368389843L811.2847732439751 606.5307865954535C811.2847732439751 606.5307865954535 821.8274961656211 592.526569281147 834.8460117433509 592.526569281147C851.812279259377 592.526569281147 856.0946423222969 606.6923230004443 856.0946423222969 606.6923230004443C856.0946423222969 606.6923230004443 867.1335127735575 592.526569281147 880.8080639552297 592.526569281147C898.5984968028416 592.526569281147 906.015984787114 605.2104737342529 906.015984787114 627.1233815704571V676.5452798443332H893.8232828716332V628.7700639029656C893.8232828716332 611.144464121671 889.7057528750304 603.2357735997733 878.3372162911353 603.2357735997733C867.4631789061918 603.2357735997733 858.8968044496886 616.2509925161769 858.8968044496886 616.2509925161769C858.8968044496886 616.2509925161769 859.5561367149573 621.8520201096342 859.5561367149573 628.110731637697V676.5469281749965H847.2018983944856L847.2018983944857 676.5436315136701ZM550.184251205593 727.374852504558C570.2856436429715 727.374852504558 582.6398819634433 735.61320915909 582.6398819634433 755.874489670796C582.6398819634433 770.7045206473517 577.2036874363032 778.1170636396346 568.1411654501853 782.2329453055743C580.9899029696085 787.0131042287721 585.9365432897866 795.086627816987 585.9365432897866 808.921067072987C585.9365432897866 831.8229733070941 573.9086744406229 841.376697830837 551.1748979341592 841.376697830837H512.4572589869199V727.3732041738949H550.184251205593V727.374852504558ZM524.979627035035 738.4137229558187V777.7873975070004H550.3490842719102C563.8588023872653 777.7873975070004 569.6246630470398 769.0545416535167 569.6246630470398 757.0299694656794C569.6246630470398 744.1812319462563 563.0329887250164 738.4137229558187 550.184251205593 738.4137229558187H524.979627035035ZM524.979627035035 788.6597865612805V830.3394757102394H551.0084165371788C565.9983355880621 830.3394757102394 572.7548429764028 823.421431916908 572.7548429764028 808.2666797997076C572.7548429764028 794.5921286180353 565.3373549921303 788.6597865612805 550.5122690075642 788.6597865612805H524.9779787043719H524.979627035035ZM665.3910262466505 759.0046696001591V841.376697830837H653.3664540588132L653.2016209924961 829.0224595103655C653.2016209924961 829.0224595103655 643.1533972698016 843.0233801633456 629.3140130218123 843.0233801633456C611.3570987772201 843.0233801633456 603.9412591236107 831.8246216377572 603.9412591236107 809.5820476689189V759.0046696001593H616.300442436072V806.7798855415272C616.300442436072 824.4054853228217 620.4179724326748 832.3141758447196 631.7865090165698 832.3141758447196C642.8253794678304 832.3141758447196 653.2032693231594 816.994590661202 653.2032693231594 816.994590661202V759.0046696001596H665.3926745773139L665.3910262466505 759.0046696001591ZM613.8279464413145 723.9166547732239H625.1931863638831V739.2362399567412H613.8279464413145V723.9166547732239ZM645.1280974042812 723.9166547732239H656.1669678555419V739.2362399567412H645.1280974042812V723.9166547732239ZM687.3467906800972 841.376697830837V723.092489441638H699.7010290005688V771.1990198463031C699.7010290005688 771.1990198463031 709.754197715253 757.3596355983138 723.5886369712526 757.3596355983138C741.7136809434884 757.3596355983138 748.796557803137 770.04354005142 748.796557803137 789.9800994224813V841.3783461615003H736.6038558876562V793.6031302201325C736.6038558876562 775.9775304388379 732.3214928247362 768.0688399169401 721.1177893071583 768.0688399169401C710.0838638478871 768.0688399169401 699.7010290005687 783.0587589678232 699.7010290005687 783.0587589678232V841.3783461615001H687.3467906800971L687.3467906800972 841.376697830837ZM769.9281569049979 841.376697830837V759.0046696001591H782.1175621591524L782.2823952254695 771.3638529126204C782.2823952254695 771.3638529126204 792.330618948164 757.3596355983138 806.1700031961533 757.3596355983138C824.1269174407454 757.3596355983138 831.3746273667113 770.0435400514198 831.3746273667113 790.1416358274719V841.3783461615001H819.1852221125567V793.6031302201325C819.1852221125567 775.9775304388379 814.9028590496368 768.0688399169401 803.699155532059 768.0688399169401C792.6602850807983 768.0688399169401 782.2823952254694 783.3884251004577 782.2823952254694 783.3884251004577V841.3783461615001H769.9281569049978L769.9281569049979 841.376697830837ZM906.378617533012 829.1872925766825 907.0346531369543 838.2465179014741C907.0346531369543 838.2465179014741 895.174914015434 842.8585470970283 880.1849949645508 842.8585470970283C858.438568525327 842.8585470970283 849.0447320759116 830.5043087765569 849.0447320759116 801.5101724113672C849.0447320759116 774.1660150400121 858.9330677242784 757.5244686646311 882.491009562328 757.5244686646311C899.2924440120369 757.5244686646311 910.0 763.946364928348 910.0 779.5972645751629C910.0 799.5338239462242 897.316095546894 804.64035234073 870.1318262498668 804.64035234073H861.56874845469V807.1112000048245C861.56874845469 822.5972665853224 867.4961455194552 832.3158241753824 880.841030568493 832.3158241753824C892.5392332850224 832.3158241753824 906.3786175330118 829.1889409073458 906.3786175330118 829.1889409073458L906.378617533012 829.1872925766825ZM869.9719381755392 795.086627816987C889.9035525546111 795.086627816987 897.8122430765087 792.1212809539411 897.8122430765087 779.7620976414801C897.8122430765087 770.7028723166886 892.0447340860711 767.7375254536428 882.4926578929912 767.7375254536428C867.6626269164357 767.7375254536428 861.9000629179876 777.7857491763373 861.7352298516703 795.086627816987H869.9735865062023H869.9719381755392Z" fill="#000000"/>
</svg>
