<?xml version="1.0" encoding="UTF-8"?>
<!-- source: Bühne_Bühne_1_Black_Rgb.svg -->
<svg xmlns="http://www.w3.org/2000/svg" viewBox="0 0 1000 1000" width="1000" height="1000">
  <path d="M157.52220704898434 416.6568480308287 276.73387659600803 375.68853003941365V624.3067501082832H205.91249278711598L205.99509020242124 532.9776080421678C206.03048909469493 527.065993032462 204.9803219572422 521.5437658377666 203.13957955901043 516.0097390123133C197.53475494900982 499.136267028522 157.52220704898434 416.6568480308287 157.52220704898434 416.6568480308287M152.4436459707859 460.6045727886125C152.4436459707859 460.6045727886125 188.57411535146355 518.3637653485137 188.57411535146355 531.8625429355467L189.14049762784256 624.3008502929042H147.39340400640637L147.13381212973266 592.5244446618901C146.72082505320628 573.2556476342459 103.00319309520147 518.8947487326188 103.00319309520147 518.8947487326188L152.4436459707859 460.6045727886125ZM90.00000000000006 587.4494234729191 117.78813043484523 567.708641214959C117.78813043484523 567.708641214959 130.80312316080455 589.4435610710036 131.95948697507836 597.0661225406044C133.1276504201101 604.6886840102052 132.1954795902363 624.3114699605864 132.1954795902363 624.3114699605864H102.64920417246461C102.64920417246461 624.3114699605864 102.70820232625408 617.1490940905435 102.74360121852777 613.9749934166693C102.82619863383304 608.3583691759109 101.04445438939075 603.5559194574472 98.31873968431677 598.9422638311098C97.04437956246399 596.7829314024149 91.13276455275808 589.2901658711509 90.00000000000006 587.4494234729191M358.86992633864656 451.32180327137564H380.3346346503352V492.47891535491704C380.3346346503352 492.47891535491704 364.17740025354817 495.0712942324268 355.3323970374293 495.0712942324268C332.3360966533657 495.0712942324268 325.85101958882603 476.3205009950542 325.85101958882603 452.97139165132955C325.85101958882603 427.37917250052885 331.86411142304985 411.1051217592386 355.80556223082095 411.1051217592386C368.3049110926602 411.1051217592386 380.335814613411 414.17066583014 380.335814613411 414.17066583014L379.86382938309515 421.36372074015344C379.86382938309515 421.36372074015344 366.18451744546627 419.1253307853805 356.39554376871575 419.1253307853805C337.64475053134316 419.1253307853805 335.16800803526075 433.62943691298636 335.16800803526075 452.97139165132955C335.16800803526075 471.2501996583863 339.17634260371807 487.0534451324364 356.27636749806095 487.0534451324364C362.1738229508574 487.0534451324364 371.25363881905844 485.5183131708342 371.25363881905844 485.5183131708342V459.1012998300565H358.87110630172236V451.3206233082999L358.86992633864656 451.32180327137564ZM439.217152058388 463.8211521332149C439.217152058388 482.45394906300857 436.2684243319898 495.0712942324268 416.10285536674553 495.0712942324268C395.9372864015012 495.0712942324268 392.9873787120272 482.45394906300857 392.9873787120272 463.8211521332149C392.9873787120272 445.07035889584233 397.822867396613 433.7486131836411 416.10285536674553 433.7486131836411C434.2636670662233 433.7486131836411 439.217152058388 445.07035889584233 439.217152058388 463.8211521332149ZM430.72613776500606 463.8211521332149C430.72613776500606 448.8438808122175 427.77741003860785 441.4148332870462 416.10285536674553 441.4148332870462C404.42830069488315 441.4148332870462 401.47839300540915 448.8438808122175 401.47839300540915 463.8211521332149C401.47839300540915 478.2072619532418 402.6583560811988 487.4062540920976 416.10285536674553 487.4062540920976C429.54735465229226 487.4062540920976 430.72613776500606 478.2084419163176 430.72613776500606 463.8211521332149ZM491.139067282358 485.16786413732467 491.60987254959804 491.65294120186434C491.60987254959804 491.65294120186434 483.1188582562161 494.95447788792364 472.38827404498545 494.95447788792364C456.8210211860932 494.95447788792364 450.0987715433198 486.1106546348806 450.0987715433198 465.3551041317414C450.0987715433198 445.7806966674677 457.17501010883007 433.86778945429586 474.03904238801505 433.86778945429586C486.0675859826142 433.86778945429586 493.73380608601934 438.4649255975721 493.73380608601934 449.66867500219445C493.73380608601934 463.94032840386967 484.6539902178183 467.5958540126659 465.1940391718962 467.5958540126659H459.0617710670176V469.36461866327454C459.0617710670176 480.45037176031786 463.30609825063283 487.4074340551733 472.85907931222545 487.4074340551733C481.23209729802846 487.4074340551733 491.139067282358 485.16904410040047 491.139067282358 485.16904410040047V485.16786413732467ZM465.07486290124143 460.75678802538937C479.3453363398409 460.75678802538937 485.0056192144036 458.63403445204386 485.0056192144036 449.7866713097734C485.0056192144036 443.30159424523373 480.8792883383674 441.1788406718882 474.03904238801505 441.1788406718882C463.4252745212876 441.1788406718882 459.2977636821755 448.37189558190164 459.17976737459657 460.75678802538937H465.07486290124143ZM517.5832197738788 442.59361639976V476.79366618844585C517.5832197738788 483.39909948671607 519.5879770396454 487.4062540920976 525.249439877284 487.4062540920976C528.7881491415769 487.4062540920976 534.5664283237186 486.7006361727754 534.5664283237186 486.7006361727754L535.0384135540344 493.6576984676309C535.0384135540344 493.6576984676309 528.1981676036821 495.07247419550265 524.1898330352249 495.07247419550265C512.2781057851287 495.07247419550265 508.8585727914904 488.469400823384 508.8585727914904 477.2668313818375V442.59361639976H501.19235268808535V434.9273962963549H508.8585727914904V417.47338247927513H517.5843997369545V434.9273962963549H534.2136193640574V442.59361639976H517.5843997369545H517.5832197738788ZM544.2562851021028 493.8936910827888V409.2195407641268H553.1001083551458V443.65676313104643C553.1001083551458 443.65676313104643 560.294343228235 433.7497931467169 570.2001332494888 433.7497931467169C583.1726473047197 433.7497931467169 588.2441286044634 442.8296090149179 588.2441286044634 457.10126241659316V493.8948710458646H579.5171216959235V459.69482125717866C579.5171216959235 447.0774760877605 576.4515776250221 441.4160132501219 568.4313685988801 441.4160132501219C560.5291558803171 441.4160132501219 553.1001083551457 452.1465974613526 553.1001083551457 452.1465974613526V493.89487104586453H544.2562851021028V493.8936910827888ZM641.9336285159661 485.16786413732467 642.4044337832063 491.65294120186434C642.4044337832063 491.65294120186434 633.9134194898243 494.95447788792364 623.1828352785938 494.95447788792364C607.6155824197015 494.95447788792364 600.893332776928 486.1106546348806 600.893332776928 465.3551041317414C600.893332776928 445.7806966674677 607.9695713424383 433.86778945429586 624.8336036216233 433.86778945429586C636.8621472162224 433.86778945429586 644.5283673196275 438.4649255975721 644.5283673196275 449.66867500219445C644.5283673196275 463.94032840386967 635.4485514514265 467.5958540126659 615.9886004055045 467.5958540126659H609.8563323006258V469.36461866327454C609.8563323006258 480.45037176031786 614.1006594842411 487.4074340551733 623.6536405458337 487.4074340551733C632.0266585316367 487.4074340551733 641.9336285159661 485.16904410040047 641.9336285159661 485.16904410040047V485.16786413732467ZM615.8717840610011 460.75678802538937C630.1398975734492 460.75678802538937 635.8013604110877 458.63403445204386 635.8013604110877 449.7866713097734C635.8013604110877 443.30159424523373 631.6750295350514 441.1788406718882 624.8347835846989 441.1788406718882C614.2210157179716 441.1788406718882 610.0935048788594 448.37189558190164 609.9755085712804 460.75678802538937H615.872964024077H615.8717840610011ZM654.5804727622792 465.5899167838236C654.5804727622792 446.839123546451 659.0619725241281 433.7486131836411 678.1667546842375 433.7486131836411C684.8890043270108 433.7486131836411 699.3954703807683 435.7533704494076 699.3954703807683 435.7533704494076V479.3884049921072C699.3954703807683 484.930691559091 700.1022682631663 493.77451481213404 700.1022682631663 493.77451481213404L691.2572650470474 494.12850373487095C691.2572650470474 494.12850373487095 690.6684634722283 488.7042134754661 690.6684634722283 483.98554113538347C690.6684634722283 483.98554113538347 684.3002027521918 495.0712942324268 673.4504422703064 495.0712942324268C659.4171414099405 495.0712942324268 654.5816527253548 484.930691559091 654.5816527253548 465.5899167838236H654.5804727622792ZM663.543472285977 465.5899167838236C663.543472285977 478.56243083905446 665.7830422038255 487.4062540920976 675.2180269578394 487.4062540920976C684.1810264815372 487.4062540920976 690.5492872015736 475.1428978454162 690.5492872015736 475.1428978454162V442.47444012910523C690.5492872015736 442.47444012910523 682.4122618309286 441.4148332870461 679.2275414893725 441.4148332870461C666.4922000123752 441.4148332870461 663.543472285977 449.7866713097734 663.543472285977 465.5899167838236ZM714.993402279631 493.8936910827888V434.9273962963549H723.7192292250952L723.8372255326742 443.7747594386253C723.8372255326742 443.7747594386253 731.0314604057633 433.7497931467169 740.937250427017 433.7497931467169C753.7929481377448 433.7497931467169 758.9812457819917 442.8296090149179 758.9812457819917 457.21689879802057V493.8948710458646H750.2542388734516V459.69482125717866C750.2542388734516 447.0774760877605 747.1886948025503 441.4160132501219 739.1684857764085 441.4160132501219C731.2662730578454 441.4160132501219 723.837225532674 452.3825900765105 723.837225532674 452.3825900765105V493.8948710458646H714.993402279631V493.8936910827888ZM817.6254106487352 434.9273962963549V493.8936910827888H809.0164000477741L808.8984037401951 485.0498678297457C808.8984037401951 485.0498678297457 801.7053488301817 495.07247419550265 791.7983788458523 495.07247419550265C778.9438610982004 495.07247419550265 773.6363871832987 487.0558050585881 773.6363871832987 471.13338331388314V434.9273962963549H782.4813903994175V469.1274460850408C782.4813903994175 481.7447912544591 785.4301181258159 487.4062540920976 793.5671434964609 487.4062540920976C801.4693562150239 487.4062540920976 808.8984037401954 476.43967726570895 808.8984037401954 476.43967726570895V434.9273962963549H817.6254106487352ZM867.8965575296752 493.8936910827888V460.40161913957667C867.8965575296752 446.95711985402994 864.7130171511949 441.4148332870462 857.2827896629478 441.4148332870462C849.8525621747006 441.4148332870462 842.1875220343713 452.38141011343475 842.1875220343713 452.38141011343475V493.8936910827888H833.3436987813284V434.9273962963549H842.0707056898682L842.1875220343716 443.7747594386253C842.1875220343716 443.7747594386253 849.7345658671218 433.7497931467169 859.0527342766322 433.7497931467169C871.1992741788104 433.7497931467169 874.2648182497117 443.89039582005273 874.2648182497117 443.89039582005273C874.2648182497117 443.89039582005273 882.1670309682747 433.7497931467169 891.9560046450254 433.7497931467169C904.6913461220227 433.7497931467169 910.0 442.8296090149179 910.0 458.51603814446486V493.8948710458646H901.2729930914602V459.69482125717866C901.2729930914602 447.0774760877605 898.324265365062 441.4160132501219 890.186060031341 441.4160132501219C882.4042035465086 441.4160132501219 876.2707554785543 450.73300169655664 876.2707554785543 450.73300169655664C876.2707554785543 450.73300169655664 876.7427407088701 454.7425162280897 876.7427407088701 459.22283602686286V493.8960510089404H867.8977374927513L867.8965575296752 493.8936910827888ZM355.80438226774515 530.2813924139886C370.190492087772 530.2813924139886 379.03667526696665 536.178847866785 379.03667526696665 550.6829539943908C379.03667526696665 561.2990817872699 375.14515704301255 566.6053757390957 368.6589000153971 569.5517435393424C377.85671219117705 572.9736364591322 381.39660141854586 578.7530956043497 381.39660141854586 588.6565256994519C381.39660141854586 605.0509326744726 372.7875908175849 611.8899986617491 356.5123601132189 611.8899986617491H328.7973873890727V530.2802124509128H355.80438226774515V530.2813924139886ZM337.7603869127705 538.1836051325515V566.3693831239378H355.9223785753241C365.5921759814199 566.3693831239378 369.71968682053193 560.1179387484045 369.71968682053193 551.5101081105194C369.71968682053193 542.3122959347394 365.0021944435251 538.1836051325515 355.80438226774515 538.1836051325515H337.7603869127705ZM337.7603869127705 574.152419571846V603.988965906262H356.39318384256416C367.12494801687063 603.988965906262 371.9604367014564 599.0366608771731 371.9604367014564 588.1880803583634C371.9604367014564 578.3991066816129 366.6529627865548 574.1524195718462 356.04037488290305 574.1524195718462H337.7603869127705V574.152419571846ZM438.2755415239079 552.9237038753154V611.8899986617491H429.66653092294695L429.548534615368 603.0461754087061C429.548534615368 603.0461754087061 422.3542997422788 613.068781774463 412.448509721025 613.068781774463C399.5939919733731 613.068781774463 394.2865180584714 605.0521126375484 394.2865180584714 589.1296908928434V552.9237038753153H403.1315212745903V587.1237536640011C403.1315212745903 599.7410988334193 406.08024900098854 605.4025616710579 414.2172743716336 605.4025616710579C422.11948709019657 605.4025616710579 429.54853461536794 594.4359848446693 429.54853461536794 594.4359848446693V552.9237038753153H438.27554152390786L438.2755415239079 552.9237038753154ZM401.36275662398174 527.805829880982H409.49978199462686V538.7724067073706H401.36275662398174V527.805829880982ZM423.76907547015054 527.805829880982H431.6712881887135V538.7724067073706H423.76907547015054V527.805829880982ZM453.99264969342545 611.8899986617491V527.2158483430871H462.8364729464685V561.6530707100068C462.8364729464685 561.6530707100068 470.03070781955773 551.7461007256773 479.9364978408115 551.7461007256773C492.90901189604244 551.7461007256773 497.98049319578615 560.8259165938782 497.98049319578615 575.0975699955535V611.891178624825H489.25348628724623V577.6911288361391C489.25348628724623 565.0737836667208 486.1879422163448 559.4123208290823 478.16773319020285 559.4123208290823C470.2655204716399 559.4123208290823 462.8364729464685 570.142905040313 462.8364729464685 570.142905040313V611.891178624825H453.99264969342545V611.8899986617491ZM513.1076198274088 611.8899986617491V552.9237038753154H521.8346267359489L521.951443080452 561.7710670175858C521.951443080452 561.7710670175858 529.1456779535412 551.7461007256773 539.0514679747948 551.7461007256773C551.9071656855226 551.7461007256773 557.0954633297695 560.8259165938783 557.0954633297695 575.2132063769809V611.891178624825H548.3684564212297V577.6911288361391C548.3684564212297 565.0737836667208 545.3029123503281 559.4123208290823 537.2827033241863 559.4123208290823C529.3816705686991 559.4123208290823 521.9514430804519 570.378897655471 521.9514430804519 570.378897655471V611.891178624825H513.1076198274088V611.8899986617491ZM610.786143204348 603.1641717162851 611.2569484715882 609.6492487808247C611.2569484715882 609.6492487808247 602.7659341782062 612.9507854668841 592.0353499669754 612.9507854668841C576.4680971080833 612.9507854668841 569.7458474653099 604.1069622138409 569.7458474653099 583.3514117107018C569.7458474653099 563.7770042464281 576.8220860308202 551.8640970332563 593.6861183100052 551.8640970332563C605.7146619046043 551.8640970332563 613.3808820080094 556.4612331765325 613.3808820080094 567.6649825811548C613.3808820080094 581.93663598283 604.3010661398084 585.5921615916263 584.8411150938862 585.5921615916263H578.7088469890077V587.3609262422349C578.7088469890077 598.4466793392783 582.9531741726228 605.4037416341337 592.5061552342155 605.4037416341337C600.8791732200186 605.4037416341337 610.786143204348 603.1653516793608 610.786143204348 603.1653516793608V603.1641717162851ZM584.7219388232315 578.7530956043497C598.992412261831 578.7530956043497 604.6526951363937 576.6303420310041 604.6526951363937 567.7829788887337C604.6526951363937 561.2979018241941 600.5263642603575 559.1751482508486 593.6861183100052 559.1751482508486C583.0723504432776 559.1751482508486 578.9448396041656 566.368203160862 578.8268432965866 578.7530956043497H584.7219388232315Z" fill="#000000"/>
</svg>
