<?xml version="1.0" encoding="UTF-8"?>
<!-- source: Goetheanum_Icons_Orientation_S–n_Black_Rgb.svg -->
<svg xmlns="http://www.w3.org/2000/svg" viewBox="0 0 1000 1000" width="1000" height="1000">
  <path d="M743.5703064125514 530.3737601347793 910.0 503.8698957565546 909.9827313888597 495.33747499210267 743.5996630514901 469.81792144887856C729.5222912498687 399.15131094029687 667.0789933663264 345.72050121090865 592.3525323786461 345.72050121090865C518.7588922817733 345.72050121090865 455.2742971464675 397.9148783826471 441.0501421501529 469.93189428240487L274.73787511845865 495.33747499210267L274.7206065073183 503.8698957565546L441.1623881225653 530.4894598294197C455.57649784142393 602.337243340002 518.736443087291 654.2794987890913 592.3508055175321 654.2794987890913C667.0150995051072 654.2794987890913 729.4238601663685 600.9384858376329 743.5685795514376 530.3737601347793H743.5703064125514ZM592.3508055175319 354.3548067810887C661.7792566073497 354.3548067810887 719.9347583447404 403.25951353058855 734.4162156470463 468.4088027798252L593.0087396019795 446.7177003264188L450.2387701379383 468.5262293355796C464.87219121827945 402.1577761398336 523.9342950405392 354.3530799199747 592.3508055175319 354.3530799199747V354.3548067810887ZM303.28806991681586 499.6874381383594 592.352532378646 455.3520058965989V545.9275981889017L303.28806991681586 499.6874381383594ZM450.366557860377 531.9607454985785 591.6773296830579 554.5619037590818 734.3592292302833 531.8398652205959C719.7845214278193 596.866547330736 661.6963672738759 645.6434663577973 592.352532378646 645.6434663577973C523.9619248183637 645.6434663577973 465.1692113298937 598.1254290828683 450.366557860377 531.9590186374644V531.9607454985785ZM128.68686953774878 511.02946193534797C151.7732757712962 517.3359587238075 158.87240181109826 520.3044329788354 158.87240181109826 532.9364220280088C158.87240181109826 544.5720122143834 150.39006001895336 550.4916921132989 133.81219332420764 550.4916921132989C122.36137727703485 550.4916921132989 94.73850689691481 547.3384437190691 94.73850689691481 547.3384437190691L92.95120564388753 565.0957565547014C92.95120564388753 565.0957565547014 118.61754238180478 569.8342634516163 135.7859955775508 569.8342634516163C162.81827945667052 569.8342634516163 180.77936190375908 558.5854901547857 180.77936190375908 531.3511635253237C180.77936190375908 507.85894492997784 168.14909971569972 498.98978624828885 138.93924397178057 491.48484784668835C118.21345688112036 486.54429819943135 112.10900284300305 482.59842055385906 112.10900284300305 471.1631462567126C112.10900284300305 456.9476255659681 119.79871538380542 449.4426871643676 136.57862482889334 449.4426871643676C150.5921027692956 449.4426871643676 177.23756975887125 453.00174792039587 177.23756975887125 453.00174792039587L179.39614615141625 435.4292092239654C179.39614615141625 435.4292092239654 152.7506791618406 430.1001158260503 135.1954090765505 430.1001158260503C108.54994208697484 430.1001158260503 90.0 442.9341476255659 90.0 472.52909339791506C90.0 495.6327682426029 100.25410129514584 503.120438033063 128.68514267663474 511.02946193534797H128.68686953774878Z" fill="#000000"/>
</svg>
