<?xml version="1.0" encoding="UTF-8"?>
<!-- source: Goetheanum_Icons_Orientation_N–s_Black_Rgb.svg -->
<svg xmlns="http://www.w3.org/2000/svg" viewBox="0 0 1000 1000" width="1000" height="1000">
  <path d="M256.4296935874487 469.62623986522055 90.0 496.13010424344526 90.01726861114034 504.6625250078972 256.40033694851013 530.1820785511213C270.4777087501317 600.848689059703 332.92100663367387 654.2794987890913 407.64746762135417 654.2794987890913C481.2411077182268 654.2794987890913 544.7257028535328 602.0851216173528 558.9498578498473 530.068105717595L725.2621248815415 504.6625250078972L725.2793934926818 496.1301042434453L558.8376118774349 469.51054017058016C544.4235021585764 397.6627566599979 481.2635569127093 345.7205012109087 407.64919448246815 345.7205012109087C332.98490049489305 345.7205012109087 270.5761398336316 399.0615141623671 256.4314204485627 469.6262398652206L256.4296935874487 469.62623986522055ZM407.64746762135417 645.6451932189112C338.21901653153634 645.6451932189112 280.0635147941455 596.7404864694114 265.58205749183946 531.5911972201748L406.9895335369064 553.2822996735811L549.7595030009477 531.4737706644203C535.1260819206066 597.8422238601663 476.06397809834687 645.6469200800252 407.64746762135417 645.6469200800252V645.6451932189112ZM696.7119300831843 500.31256186164046 407.64746762135417 544.6479941034011V454.0724018110982L696.7119300831843 500.31256186164046ZM549.6334421396231 468.03925450142145 408.3226703169422 445.4380962409182 265.6407707697168 468.160134779404C280.2154785721807 403.13345266926393 338.3036327261241 354.35653364220275 407.64746762135417 354.35653364220275C476.0380751816364 354.35653364220275 534.8307886701064 401.8745709171317 549.6334421396231 468.0409813625355V468.03925450142145ZM871.3131304622513 488.9705380646519C848.2267242287039 482.66404127619245 841.1275981889019 479.69556702116455 841.1275981889019 467.0635779719911C841.1275981889019 455.42798778561644 849.6099399810468 449.508307886701 866.1878066757924 449.508307886701C877.6386227229652 449.508307886701 905.2614931030853 452.66155628093077 905.2614931030853 452.66155628093077L907.0487943561126 434.90424344529845C907.0487943561126 434.90424344529845 881.3824576181953 430.1657365483837 864.2140044224493 430.1657365483837C837.1817205433297 430.1657365483837 819.220638096241 441.41450984521424 819.220638096241 468.64883647467616C819.220638096241 492.14105507002205 831.8509002843005 501.01021375171104 861.0607560282195 508.51515215331153C881.7865431188798 513.4557018005686 887.8909971569971 517.4015794461409 887.8909971569971 528.8368537432873C887.8909971569971 543.0523744340318 880.2012846161946 550.5573128356323 863.4213751711067 550.5573128356323C849.4078972307044 550.5573128356323 822.7624302411288 546.9982520796041 822.7624302411288 546.9982520796041L820.6038538485838 564.5707907760345C820.6038538485838 564.5707907760345 847.2493208381594 569.8998841739497 864.8045909234496 569.8998841739497C891.4500579130253 569.8998841739497 910.0 557.065852374434 910.0 527.4709066020848C910.0 504.36723175739706 899.7458987048542 496.87956196693693 871.3148573233652 488.970538064652L871.3131304622513 488.9705380646519Z" fill="#000000"/>
</svg>
