<?xml version="1.0" encoding="UTF-8"?>
<!-- source: Goetheanum_Icon_Transparent_Black_Rgb.svg -->
<svg xmlns="http://www.w3.org/2000/svg" viewBox="0 0 1000 1000" width="1000" height="1000">
  <path d="M414.759454305413 225.12137303799327 807.9360422473229 90.0V909.9807539973599H574.3569312014082L574.6311867390347 608.7615666715566C574.7466627548774 589.2653659967729 571.2823822795951 571.0490244975798 565.2150799471908 552.7990024937658C546.7292944110312 497.14918585888233 414.7642658060729 225.11656153733324 414.7642658060729 225.11656153733324M398.0106205075547 370.0678304239401C398.0106205075547 370.0678304239401 517.1722458559484 560.5647645591903 517.1722458559484 605.085580167229L519.0391081120729 909.9615079947191H381.34839372157853L380.4919466040782 805.1574006161069C379.1302919172658 741.6070998973157 234.94405163561692 562.3161507994719 234.94405163561692 562.3161507994719L398.00580900689465 370.0678304239401H398.0106205075547ZM192.06395775267714 788.423001320229 283.7134223265366 723.3137743875606C283.7134223265366 723.3137743875606 326.63681971541735 795.0003227226052 330.45233973888816 820.1404136717032C334.3063517676398 845.280504620801 331.2318028458267 910.0 331.2318028458267 910.0H233.78447997652933C233.78447997652933 910.0 233.97694000293387 886.3755317588382 234.09722751943679 875.9105178230893C234.3714830570633 857.3862402816487 228.49182925040344 841.5467801085522 219.50394601730972 826.3328150212703C215.29869444036973 819.211794044301 195.80249376558606 794.4999266539534 192.06876925333728 788.4278128208889" fill="#000000"/>
</svg>
