<?xml version="1.0" encoding="UTF-8"?>
<!-- source: Goetheanum_Icons_Rules_Keine_Fotos_._No_Photos_Black_Rgb.svg -->
<svg xmlns="http://www.w3.org/2000/svg" viewBox="0 0 1000 1000" width="1000" height="1000">
  <path d="M139.12954103748328 687.5305073464056H124.45315934604213V579.9790307655287H139.12954103748328V629.3048533149672L155.9891793301315 628.3656503435034L180.80862443342804 579.9782090656412H197.50720954811743L168.93999125772814 633.9901860737486L198.91149465593185 687.5288639466305H181.73961040601654L156.14201550921484 641.3246792699754L139.13036273737083 642.1028290634806V687.5288639466305L139.12954103748328 687.5305073464056ZM268.70010950490325 675.196792034355 269.0131771620579 686.126222238591C269.0131771620579 686.126222238591 251.21515759783335 689.2478601113746 237.9504563131945 689.2478601113746C214.68731079690815 689.2478601113746 206.26242184990934 676.135995005819 206.26242184990934 649.1341150012031C206.26242184990934 619.9415830963919 218.90920481911434 607.7598822635375 239.50757760009225 607.7598822635375C260.8923171734507 607.7598822635375 271.6697328984909 619.0023801249281 271.6697328984909 643.9820567062959L270.73052992702696 654.4381877753058H220.7785720632792C220.93140824236258 669.1145694667471 225.7695771802275 676.6018988420569 239.9808767353182 676.6018988420569C252.0015243902139 676.6018988420569 268.70010950490325 675.1976137342426 268.70010950490325 675.1976137342426V675.196792034355ZM257.4576116435127 643.1956899139154C257.4576116435127 625.7181333058334 252.15353886940972 619.7805299184331 239.50675590020472 619.7805299184331C227.1812575870298 619.7805299184331 220.77775036339165 626.3368733211546 220.6249141843083 643.1956899139154H257.45678994362515H257.4576116435127ZM303.365162660764 594.0300988425481H289.00184862647745V578.2624997004473H303.365162660764V594.0300988425481ZM289.00184862647745 609.4772350285064H303.365162660764V687.5305073464056H289.00184862647745V609.4772350285064ZM339.12225496717195 609.4772350285064V614.6292933234135C339.12225496717195 614.6292933234135 351.13468562319224 607.7607039634249 362.0641158274282 607.7607039634249C383.60990857874555 607.7607039634249 388.7611451737651 619.3154477820826 388.7611451737651 646.0050818294317V687.531329046293H374.54984561867445V646.3181494865862C374.54984561867445 628.2152792640825 372.3674107173549 620.5677184107012 359.1027094327161 620.5677184107012C348.95142902198523 620.5677184107012 339.27426944636784 625.5587235276496 339.27426944636784 625.5587235276496V687.531329046293H324.9109554120813V609.478056728394H339.122254967172L339.12225496717195 609.4772350285064ZM468.3797557774373 675.196792034355 468.69282343459196 686.126222238591C468.69282343459196 686.126222238591 450.8948038703674 689.2478601113746 437.63010258572854 689.2478601113746C414.3669570694422 689.2478601113746 405.9420681224434 676.135995005819 405.9420681224434 649.1341150012031C405.9420681224434 619.9415830963919 418.5888510916484 607.7598822635375 439.18722387262636 607.7598822635375C460.5719634459848 607.7598822635375 471.34937917102496 619.0023801249281 471.34937917102496 643.9820567062959L470.410176199561 654.4381877753058H420.4582183358132C420.6110545148966 669.1145694667471 425.44922345276154 676.6018988420569 439.6605230078522 676.6018988420569C451.68117066274795 676.6018988420569 468.3797557774373 675.1976137342426 468.3797557774373 675.1976137342426V675.196792034355ZM457.1372579160467 643.1956899139154C457.1372579160467 625.7181333058334 451.8331851419438 619.7805299184331 439.1864021727387 619.7805299184331C426.8609038595638 619.7805299184331 420.45739663592565 626.3368733211546 420.3045604568423 643.1956899139154H457.1364362161591H457.1372579160467ZM587.4941931758473 592.9306643930129H536.611249339511V631.9614090514001H579.2204970081567V644.9130426788843H536.611249339511V687.5305073464053H521.9348676480699V579.9790307655286H587.4941931758474V592.9306643930128L587.4941931758473 592.9306643930129ZM664.1587926837954 647.7216128945131C664.1587926837954 674.8845460770881 656.6640680094974 689.2478601113746 630.1272701412319 689.2478601113746C603.5904722729663 689.2478601113746 595.942911419585 674.8845460770881 595.942911419585 647.7216128945131C595.942911419585 621.6581141614736 604.6816897236259 607.7598822635373 630.1272701412319 607.7598822635373C655.5728505588379 607.7598822635373 664.1587926837954 621.6581141614733 664.1587926837954 647.7216128945131ZM630.1272701412319 676.914144799324C646.6738407767255 676.914144799324 649.6426424704255 667.8622988381285 649.6426424704255 647.7216128945131C649.6426424704255 627.9013899070403 645.2695556689109 620.0935975755876 630.1272701412319 620.0935975755876C614.9849846135527 620.0935975755876 610.6118978120383 627.9013899070403 610.6118978120383 647.7216128945131C610.6118978120383 667.8631205380161 613.5806995057383 676.914144799324 630.1272701412319 676.914144799324ZM709.7458807449041 676.4490626629736C714.1189675464186 676.4490626629736 723.1708135076142 675.6709128694686 723.1708135076142 675.6709128694686L723.9571802999947 687.3784928672096C723.9571802999947 687.3784928672096 713.4936539319967 689.2478601113746 708.0285279799348 689.2478601113746C691.1688896872868 689.2478601113746 685.7128024339879 682.8443528877365 685.7128024339879 660.3683958637182V621.8109503405567H675.0964398869066V609.4772350285064H685.7128024339879V586.2223065110956H699.915884990203V609.4772350285064H723.0179773285306V621.8109503405567H699.915884990203V657.5598256480894C699.915884990203 671.9231396823759 700.6940347837083 676.4490626629736 709.7458807449038 676.4490626629736H709.7458807449041ZM801.8584381386979 647.7216128945131C801.8584381386979 674.8845460770881 794.3637134644 689.2478601113746 767.8269155961343 689.2478601113746C741.2901177278688 689.2478601113746 733.6425568744876 674.8845460770881 733.6425568744876 647.7216128945131C733.6425568744876 621.6581141614736 742.3813351785286 607.7598822635373 767.8269155961343 607.7598822635373C793.2724960137402 607.7598822635373 801.8584381386979 621.6581141614733 801.8584381386979 647.7216128945131ZM767.8269155961343 676.914144799324C784.373486231628 676.914144799324 787.342287925328 667.8622988381285 787.342287925328 647.7216128945131C787.342287925328 627.9013899070403 782.9692011238135 620.0935975755876 767.8269155961343 620.0935975755876C752.6846300684554 620.0935975755876 748.3115432669408 627.9013899070403 748.3115432669408 647.7216128945131C748.3115432669408 667.8631205380161 751.2803449606408 676.914144799324 767.8269155961343 676.914144799324ZM845.2622695985997 620.7197328898969C835.737124502178 620.7197328898969 829.9679695917246 623.0632209691753 829.9679695917246 630.871013300628C829.9679695917246 637.1142890461947 833.5546896008584 638.8316418111638 849.4751249220428 641.639390326905C868.5254151148858 644.9130426788843 875.5468406539578 649.1341150012029 875.5468406539578 664.5812511871613C875.5468406539578 682.8451745876239 863.9994921342882 689.248681811262 844.9500236413323 689.248681811262C834.6467287514058 689.248681811262 816.8569261860566 685.9668124604073 816.8569261860566 685.9668124604073L817.4748445014905 673.7941503263157C817.4748445014905 673.7941503263157 835.738767901953 676.28965288479 843.7067917114769 676.28965288479C855.7192223674972 676.28965288479 861.3445797976303 673.7941503263157 861.3445797976303 665.0553720222749C861.3445797976303 658.1867826622863 857.9098742676922 656.3083767193584 841.6763712893533 653.8128741608843C824.3434338614791 651.0043039452555 815.7574917365214 647.4175839361214 815.7574917365214 631.3360954369784C815.7574917365214 614.0113750079797 829.495492156386 607.9209354414963 844.3247100269107 607.9209354414963C855.8794538455684 607.9209354414963 873.2041742745671 611.0425733142797 873.2041742745671 611.0425733142797L872.8911066174126 623.2152354483712C872.8911066174126 623.2152354483712 854.9402508741045 620.7197328898969 845.2630912984871 620.7197328898969H845.2622695985997ZM191.42498698050935 766.386580454436 236.8510218636593 866.2904961819315H240.4377418727932V766.3865804544362H249.96288696921476V874.8764383068894H231.22566443352628L185.48656189322168 775.1253587584772H182.06007336215907V874.8764383068894H172.3746967876662V766.3865804544362H191.42498698050935V766.386580454436ZM336.7631545900303 834.7626931967175C336.7631545900303 864.2600757598077 330.2068111873088 876.4417765926623 304.14413415415663 876.4417765926623C277.91218694417023 876.4417765926623 271.35666524133626 864.2608974596953 271.35666524133626 834.7626931967175C271.35666524133626 807.1264608789168 279.9426073662939 795.2668664019798 304.14413415415663 795.2668664019798C328.17721246507267 795.2668664019798 336.7631545900303 807.1272825788042 336.7631545900303 834.7626931967175ZM304.14413415415663 868.1680804249718C324.27742479878407 868.1680804249718 327.2462264924842 858.6429353285503 327.2462264924842 834.7626931967175C327.2462264924842 811.3475332012354 321.93393671950577 803.5397408697829 304.14413415415663 803.5397408697829C286.19327841084873 803.5397408697829 281.0420418158291 811.3475332012354 281.0420418158291 834.7626931967175C281.0420418158291 858.6429353285503 283.8506120314579 868.1680804249718 304.14413415415663 868.1680804249718ZM400.4769421703816 796.82316598899V802.7615910762779C400.4769421703816 802.7615910762779 412.64960430447314 795.26686640198 425.1361557956069 795.26686640198C444.6515281248005 795.26686640198 452.9244025926035 807.6005817140303 452.9244025926035 834.7626931967177C452.9244025926035 864.8862110741172 443.3992574961819 876.4417765926623 419.20594770719464 876.4417765926623C411.3981553757421 876.4417765926623 403.2855123860104 875.0292744859726 400.4769421703816 874.4113561705387V910.0H391.2648647311147V796.8239876888779H400.4769421703816V796.82316598899ZM418.89288005004 868.1680804249718C437.00396727141924 868.1680804249718 443.24724301698615 858.7957715076336 443.24724301698615 834.7626931967177C443.24724301698615 811.9654515166694 436.3786536569975 803.6925770488663 424.2051698230184 803.6925770488663C412.4975898252774 803.6925770488663 400.4769421703816 810.7222195868139 400.4769421703816 810.7222195868139V866.2913178818192C403.1252809079391 866.7564000181696 411.3981553757421 868.1689021248594 418.89288005004 868.1689021248594V868.1680804249718ZM472.9130740570231 762.1737251309928H482.12515149629V801.3573059684636C482.12515149629 801.3573059684636 495.2370166018455 795.26686640198 507.40967873593706 795.26686640198C528.7944183092955 795.26686640198 533.4813944678522 805.257093634752 533.4813944678522 833.8243119251413V874.8772600067769H524.1173025493895V834.2893940614917C524.1173025493895 811.3475332012356 521.6135829920398 803.6925770488663 506.1590515070936 803.6925770488663C493.986389373002 803.6925770488663 482.1259731961776 809.0048668218449 482.1259731961776 809.0048668218449V874.8772600067769H472.9138957569107V762.1745468308804L472.9130740570231 762.1737251309928ZM618.251241666544 834.7626931967175C618.251241666544 864.2600757598077 611.6948982638226 876.4417765926623 585.6322212306703 876.4417765926623C559.4084910195593 876.4417765926623 552.84475231785 864.2608974596953 552.84475231785 834.7626931967175C552.84475231785 807.1264608789168 561.4306944428076 795.2668664019798 585.6322212306703 795.2668664019798C609.6652995415864 795.2668664019798 618.251241666544 807.1272825788042 618.251241666544 834.7626931967175ZM585.6322212306703 868.1680804249718C605.7655118752978 868.1680804249718 608.7343135689979 858.6429353285503 608.7343135689979 834.7626931967175C608.7343135689979 811.3475332012354 603.4220237960194 803.5397408697829 585.6322212306703 803.5397408697829C567.6813654873624 803.5397408697829 562.5301288923428 811.3475332012354 562.5301288923428 834.7626931967175C562.5301288923428 858.6429353285503 565.3386991079716 868.1680804249718 585.6322212306703 868.1680804249718ZM663.5334790693737 868.1680804249718C667.906565870888 868.1680804249718 677.8967931036602 867.0686459754368 677.8967931036602 867.0686459754368L678.5229284179695 875.0292744859726C678.5229284179695 875.0292744859726 668.2196335280428 876.5937910718583 662.7553292758685 876.5937910718583C647.2999760910348 876.5937910718583 641.6828356597771 870.8164191625294 641.6828356597771 848.3396404386235V805.0960404567932H630.1280918411194V796.8231659889902H641.6828356597771V772.3167885428484H651.0469275782398V796.8231659889902H677.118643310155V805.0960404567932H651.0469275782398V843.6534859799547C651.0469275782398 863.1688583091482 652.298376506971 868.168080424972 663.5326573694861 868.168080424972L663.5334790693737 868.1680804249718ZM753.920466699323 834.7626931967175C753.920466699323 864.2600757598077 747.3641232966015 876.4417765926623 721.3014462634494 876.4417765926623C695.0694990534628 876.4417765926623 688.5139773506289 864.2608974596953 688.5139773506289 834.7626931967175C688.5139773506289 807.1264608789168 697.0999194755866 795.2668664019798 721.3014462634494 795.2668664019798C745.3345245743653 795.2668664019798 753.920466699323 807.1272825788042 753.920466699323 834.7626931967175ZM721.3014462634494 868.1680804249718C741.4347369080767 868.1680804249718 744.4035386017767 858.6429353285503 744.4035386017767 834.7626931967175C744.4035386017767 811.3475332012354 739.0912488287984 803.5397408697829 721.3014462634494 803.5397408697829C703.3505905201414 803.5397408697829 698.1993539251218 811.3475332012354 698.1993539251218 834.7626931967175C698.1993539251218 858.6429353285503 701.0079241407507 868.1680804249718 721.3014462634494 868.1680804249718ZM797.6373658163793 803.8528085269377C787.9602062407619 803.8528085269377 779.2214279367208 806.5085425634829 779.2214279367208 817.1175098115764C779.2214279367208 825.2383698001836 783.1212156030092 827.5810361795743 800.1410853737289 830.3896063952031C820.1215398392728 833.6632587471825 827.6088692145829 837.2581957551918 827.6088692145829 852.2402498047998C827.6088692145829 870.5041732052623 816.2143568739964 876.4417765926623 797.4853513371834 876.4417765926623C787.9602062407619 876.4417765926623 770.7883219908465 873.6249893781583 770.7883219908465 873.6249893781583L771.4144573051558 865.3521149103551C771.4144573051558 865.3521149103551 788.8994092122257 868.0078489469006 796.8600377227617 868.0078489469006C810.2849704854718 868.0078489469006 818.0927628169243 864.8862110741172 818.0927628169243 852.7135489400257C818.0927628169243 843.3412400226873 813.4066083582552 841.3190365994392 795.9216564511853 838.6624808630063C777.9708007078773 835.8539106473775 769.6979262400744 832.5720412965227 769.6979262400744 817.4297557688435C769.6979262400744 800.4181029969996 783.7489943170938 795.4188808811757 797.3341585578751 795.4188808811757C809.0335215567407 795.4188808811757 824.9621738768005 798.0746149177212 824.9621738768005 798.0746149177212L824.6491062196458 806.3474893855241C824.6491062196458 806.3474893855241 807.9423041060811 803.85198682705 797.6390092161544 803.85198682705L797.6373658163793 803.8528085269377ZM645.3032453643002 346.72801388745637C621.476413725158 347.5834034703907 583.9863563559177 349.23173344480597 559.9138364503995 350.318842396028C538.6613905589358 350.2966564990643 501.87552999332144 350.16600621694465 480.26564465077564 350.12245612290474C458.55386852217424 350.1668279168322 422.0227349216989 350.29583479917676 400.6273132498022 350.318842396028C376.50959985046916 349.22926834514334 339.17073526053707 347.5866902699409 315.22722223736343 346.72801388745637V318.66696272779484L297.80800632129706 324.3375136517428V355.14222073591714L306.0652684912367 363.8448442449062C333.6834234115115 365.9976979502741 372.5613318908154 368.3641936264036 400.4440741748797 370.1218096858624C421.77869005509797 370.3666762523508 458.5727676195877 370.4020093475153 480.26482295088806 370.4504896408804C502.06123416790655 370.4003659477401 538.6046932666951 370.36749795223835 560.0855717268964 370.1218096858624C588.000360306575 368.36172852674105 626.7525487030844 366.0034498494869 654.4643774105393 363.8448442449062L662.723282980254 355.14222073591714V205.60023650171598L645.3024236644126 211.270787425664V346.7280138874563L645.3032453643002 346.72801388745637ZM315.23297413657633 245.68440041593593V147.7624248171989L410.81967865491043 142.750877203062L419.02846053148494 135.0096425625006L422.0038358242854 108.08335894753868C460.3985847697128 107.45475853356676 500.131882831951 107.47612273064293 538.5282751771535 108.09157594641412L541.503650469954 135.0096425625006L549.7124323465284 142.750877203062L645.3016019645252 147.7624248171989V168.31313900469922L662.7282131795794 162.64423148052632V139.49776734827137L654.4709510096397 130.79514383928233L558.0116012107328 125.73347253200515L555.0123966211935 98.58450824751854L546.3516798064693 90.82683960920625C502.615059892112 89.74959105663476 457.91540770955186 89.6994673634945 414.1820745947446 90.82683960920625L405.51971438024526 98.58450824751854L402.520509790706 125.74086783099307L306.06115999179906 130.79432213939478L297.80389782185944 139.49694564838381V281.38726052976597L315.23297413657633 275.7167096058179V245.68357871604837V245.68440041593593ZM425.4903084471388 282.79072393769275C421.12872544404996 284.21390814292073 412.346397045969 287.0717803518022 407.9872791425429 288.4851041583796C423.58232130825934 312.84850582408865 450.88987367104215 329.02777660984964 481.90000572710267 329.02777660984964C532.1329849523909 329.2110156847722 572.6945565012744 286.07423668832257 569.426656048508 235.95465204751565C565.0716466445194 237.37537115308095 556.2909616462136 240.23159996218735 551.9334871425625 241.64821056831494C551.4544361081238 309.109771335759 464.7823536697653 336.5027804868465 425.4911301470263 282.7915456375804L425.4903084471388 282.79072393769275ZM394.61904367207336 249.88903874050368C398.93050298202195 248.48064513325156 407.6183358930352 245.6523541203217 411.9314386027589 244.252177511945C410.1738225433001 204.66349862991473 442.2620248518197 171.19566221020708 481.90000572710267 171.29344449682495C506.17219870529425 171.29344449682495 527.6029534723552 183.71015149751736 540.1733183520187 202.52625722241018C544.4864210617422 201.1219721145958 553.1685020735426 198.29778960110366 557.4799613834913 196.8984346926145C509.5263776462529 117.11055391210799 386.7627710472557 155.99339259073713 394.6182219721858 249.8898604403912L394.61904367207336 249.88903874050368ZM741.9515861373425 149.18232222287668C567.6509625915232 202.12773277695084 388.6083089946817 260.3427047098511 216.4588957544551 320.1682084223395C217.8007316708161 324.2988937570282 220.5049460007267 332.6153183188711 221.8492470167503 336.7427168540096C396.2501179488501 283.81784879712404 575.3001668446796 225.4911256795177 747.3517977982883 165.74614855600868L741.9515861373425 149.18150052298915V149.18232222287668Z" fill="#000000"/>
</svg>
