<?xml version="1.0" encoding="UTF-8"?>
<!-- source: Goetheanum_Icon_Point_Black_Rgb.svg -->
<svg xmlns="http://www.w3.org/2000/svg" viewBox="0 0 1000 1000" width="1000" height="1000">
  <path d="M500.00000000000006 90.0C273.56317865281903 90.0 90.00289276315328 273.56317865281903 90.00289276315328 500.0C90.00289276315328 726.4368213471811 273.5660714159724 910.0 500.00000000000006 910.0C726.4339285840277 910.0 909.9971072368468 726.4339285840277 909.9971072368468 500.0C909.9971072368468 273.5660714159724 726.436821347181 90.0 500.00000000000006 90.0ZM369.24421270981355 733.573268046256H310.6541878038284C310.6541878038284 733.573268046256 310.775683856265 719.369800963784 310.8451101719431 713.0751483423056C311.00710490852526 701.9380102022817 307.47214833525015 692.415033901773 302.06557400182044 683.2681168111872C299.54019176903057 678.9839345812196 287.8216082352029 664.1295957892657 285.57393126512534 660.4789286898605L340.67528380828753 621.3311649368883C340.67528380828753 621.3311649368883 366.48162389845703 664.4333359203572 368.77269231583335 679.5480233961039C371.08979560158895 694.6627108718505 369.2413199466603 733.5761608094091 369.2413199466603 733.5761608094091L369.24421270981355 733.573268046256ZM399.37812647724957 733.5530187041833 398.86321463597056 670.5428517000275C398.04456266359995 632.3352359718626 311.35712925006885 524.542202592198 311.35712925006885 524.542202592198L409.39287251381126 408.9589580408233C409.39287251381126 408.9589580408233 481.03504476727375 523.489236804414 481.03504476727375 550.2559742614635L482.15743687073586 733.5530187041833H399.3781264772495H399.37812647724957ZM655.8505076446559 733.5645897567963H515.415534843685L515.5804223434204 552.4660453105487C515.6498486590986 540.7416762504145 513.5699519519096 529.7954604785054 509.9192848525044 518.8203170750637C498.80239605455336 485.3597256813868 419.46258105028477 321.81157528592496 419.46258105028477 321.81157528592496L655.8476148815025 240.5770004162757V733.5645897567963H655.8505076446559Z" fill="#000000"/>
</svg>
