<?xml version="1.0" encoding="UTF-8"?>
<!-- source: Goetheanum_Icon_Square_Black_Rgb.svg -->
<svg xmlns="http://www.w3.org/2000/svg" viewBox="0 0 1000 1000" width="1000" height="1000">
  <path d="M869.3825692766303 90.0H130.61743072336972C108.18686610339901 90.0 90.0 108.18686610339901 90.0 130.61743072336972V869.3825692766303C90.0 891.8131338966011 108.18686610339901 910.0 130.61743072336972 910.0H869.3825692766303C891.8131338966011 910.0 910.0 891.8131338966011 910.0 869.3825692766303V130.61743072336972C910.0 108.18397333004074 891.8131338966011 90.0 869.3825692766303 90.0ZM369.2423050464784 733.5726456529025H310.65207344822113C310.65207344822113 733.5726456529025 310.76778438255167 719.3691284638315 310.8401037165082 713.0744536362514C311.0049917979293 701.937276206939 307.47002275413195 692.4142663115375 302.06632212089676 683.264424179352C299.538038205775 678.9831196091228 287.81652055809366 664.1258356410844 285.5717284320816 660.4751556629566L340.6732753602738 621.333039352301C340.6732753602738 621.333039352301 366.48259926269566 664.4324696170602 368.77367576243984 679.5443176406258C371.08789444905017 694.6590584375496 369.2423050464784 733.5697528795441 369.2423050464784 733.5697528795441V733.5726456529025ZM399.37632511950335 733.5523962393947 398.86141146173253 670.5420069497117C398.04275660134414 632.3313636604166 311.3521246009208 524.5408427848236 311.3521246009208 524.5408427848236L409.39399925916786 408.95429770871186C409.39399925916786 408.95429770871186 481.0364242499075 523.4849805090576 481.0364242499075 550.2547051664227L482.1588203129135 733.5523962393947H399.3792178928616H399.37632511950335ZM655.8496110630942 733.5639673328277H515.4141428395039L515.5761381475668 552.4647840121355C515.645564708165 540.7432663644541 513.565660663574 529.7912264300708 509.91498068544615 518.8189370821794C498.800945443 485.3582276471522 419.4579577725645 321.8095002910412 419.4579577725645 321.8095002910412L655.8496110630942 240.57174607094348V733.5610745594695V733.5639673328277Z" fill="#000000"/>
</svg>
