<?xml version="1.0" encoding="UTF-8"?>
<!-- source: Goetheanum_Icons_Rules_Hunde_Anleinen_._Leash_Dogs_Black_Rgb.svg -->
<svg xmlns="http://www.w3.org/2000/svg" viewBox="0 0 1000 1000" width="1000" height="1000">
  <path d="M535.9655659229209 411.1375257859204C535.4978498985802 389.4802113842977 526.9279350912778 368.82486047151883 526.7170304259635 347.35383410235045L520.0705395537525 340.00876310843563L451.0914077079108 332.2784750759813L443.8321622718053 336.16391118145793C436.2415902636917 350.4781505323707 423.42231237322517 361.8862965769955 415.03203245436106 375.9563655425127C405.46081947261666 390.9019882605655 400.34654766734286 408.8202357250685 400.7929736308317 426.56616675955127L412.0168275862069 426.6925764958596C410.96030831643003 393.078896982675 435.6973630831643 371.9305480982937 454.0713509127789 347.1815176723302L512.1799107505071 354.1999192950482C515.7074077079108 378.5397813640137 525.3797484787019 401.72000043095085 524.9200162271804 426.63269819971356H536.2170547667342C536.3155212981744 421.4691931287196 536.2729411764706 416.3023614857176 535.9655659229209 411.1375257859204ZM787.403845841785 248.87865357496707C778.0415415821501 248.84339191168107 770.4829046653144 256.89103491370946 771.1102961460447 266.2367063133038C713.2765111561866 284.424406110464 648.0929979716025 295.66289698267497 588.8600567951319 276.74867385894277C590.5552778904665 272.5046332909914 592.2744503042596 268.2659152382531 594.0362028397567 264.04183410235044C601.1224665314402 262.1895988082328 611.2631886409737 259.5629375506263 618.2729411764706 257.73465357496707C632.6929655172414 254.2969740617825 640.1431561866126 237.2762357250685 637.6276024340771 223.5441464755756L632.9171764705882 218.96013024839507C624.8835050709939 216.93690915306038 616.7181014198783 214.94362720579872 608.5726572008114 213.38479556279668L603.184275862069 203.99720935590014L599.0400324543612 200.72985032953096C591.0735578093306 198.41522152628553 582.409168356998 195.65815864596098 573.7707261663286 196.29952172912527C569.0343529411764 196.64947710437883 564.4150750507099 197.96413836198533 560.1324462474645 199.98536351411514C539.6926572008115 208.33705519768512 534.9928762677484 231.7621099644194 524.1063367139959 248.33442639443967C515.7839188640974 259.98607751005835 500.2448356997972 260.65937568450056 487.15344421906696 261.75381787516994C467.96777281947266 263.28736757091025 445.54268559837726 263.71383410235046 426.7442271805274 267.3624182808494C412.18182555780936 270.5812093559001 399.30466531440163 280.21030469058576 392.31420689655175 293.38951767233016C381.1848275862069 312.9950024593484 384.2040243407708 336.68219110032203 381.39506693711974 358.1711809583342C380.8468478701826 361.7765197007277 379.7856713995944 365.2195217291253 378.82096551724146 368.7696393761841C373.33079107505074 387.614004487746 367.7980365111563 407.37051564393255 367.88984989858017 427.21019110032205L379.06779716024346 427.4763168609711C379.08110344827594 405.4770308569143 386.97572413793114 384.3433188893687 392.5809979716025 363.2807955627967C396.4145395537526 343.76712416320237 393.4652008113591 322.18898217537276 401.09569168357007 303.54820327070746C405.7163002028398 293.8525764958596 413.2549776876269 285.4017529664478 423.56402434077086 281.78643450802997C427.9823772819473 280.1151647311537 432.79991886409744 279.2083412017419 437.48173630831656 278.67875093805026C446.5559594320488 277.77325803744174 455.67209736308325 277.0520572260827 464.81285192697777 276.49651970072773C471.9390344827587 276.229728625677 491.36355375253555 275.0195217291253 498.25754158215017 274.35553795630585C509.30176064908727 273.1579720333849 520.6952697768763 270.61979759119424 529.335042596349 262.9713432301395C542.1197241379311 271.96373268247214 555.9615902636917 279.4325521550888 570.6849979716025 285.0797407960624C567.6365273833671 293.62304302729973 564.6452738336715 302.1670105729387 562.4803407707911 311.0469618913971C559.8403732251522 322.3280328853119 558.2249898580122 333.9025075303423 556.9582312373226 345.4044629055959C554.1033671399595 372.4049172666506 553.4001298174443 400.1864507352105 553.5983935091278 427.3439192950482H564.8628316430022C565.1615578093308 400.6448523579285 566.3491440162272 373.36297000498735 569.6464421906694 346.88079556279666C571.047594320487 336.00756229707656 572.763440162272 325.0751160496121 575.4473184584178 314.4400653396729C577.640860040568 306.0464588488007 580.7438864097363 297.78924181026116 583.8163083164302 289.6238381591455C646.2953184584179 308.7549537778068 714.6137931034484 296.1578908974823 774.9751075050712 275.7719923173605C784.2263042596351 287.2453391733443 804.0506774847871 280.1517570232429 803.7293306288034 265.2067996195918C803.7293306288034 256.1991079360218 796.4048843813389 248.87998420377028 787.4038458417851 248.87998420377028L787.403845841785 248.87865357496707ZM590.50338336714 264.9659558062044 590.4375172413793 264.9799274086385 590.5107018255578 264.9593026621882 590.50338336714 264.9659558062044ZM587.0577200811359 250.90120935590014C586.9572576064909 250.83467791573787 582.121752535497 255.172527814318 582.0472373225152 255.17984627273586C579.8157728194726 260.75784221594074 577.6767870182556 266.28660489342553 575.56707505071 271.8925440414985C562.4690304259634 266.56337568450056 550.1154726166328 259.60219110032205 538.7552292089249 251.41483207395288C545.3598052738337 240.45843450802997 548.8773225152129 226.8913432301395 558.2755537525354 218.02270225650867C561.0805192697768 215.3727549948454 564.656584178499 213.32757852425715 568.3743610547667 211.91511604961212C576.2403732251521 208.76751361553505 584.4623286004055 211.26044667841538 592.3662636916835 213.47793957902388L597.9549046653144 223.27868602932816L603.184275862069 226.78422761147826C610.5779148073021 227.6065562118839 617.9309695740365 228.9970633112754 625.2527545638945 230.3709375506263C624.377200811359 235.59432091776628 621.6254604462475 242.33395580620441 616.450645030426 244.15625195224905C616.450645030426 244.15625195224905 609.4914563894523 245.75899434575817 609.4914563894523 245.75899434575817C604.7105070993915 246.8674081388616 591.9916916835699 249.7655176723302 587.0577200811359 250.90120935590016V250.90120935590014ZM787.403845841785 270.12214241878047C780.970920892495 270.0882113842977 780.9789046653144 260.3140775100584 787.403845841785 260.2828077331821C793.8361054766735 260.31673876766484 793.8434239350913 270.0875460698961 787.403845841785 270.12214241878047ZM101.88318052738337 622.1519679765898H90.0V535.0696312625939H101.88318052738337V573.1109781185777H142.83527789046653V535.0696312625939H154.7124705882353V622.1519679765898H142.83527789046656V583.6043168609712H101.88318052738337V622.1519679765898ZM212.73853144016226 622.1519679765898V617.9804466784153C212.73853144016226 617.9804466784153 203.38288032454363 623.5418097615797 194.7870182555781 623.5418097615797C176.97189452332657 623.5418097615797 173.17760649087222 614.6924629055959 173.17760649087222 591.9460288285168V558.9530876520462H184.80730223123732V591.9460288285168C184.80730223123732 607.6175095587399 186.06807302231238 613.0491363335879 196.8142312373225 613.0491363335879C205.28035699797158 613.0491363335879 212.73919675456386 609.1310998224317 212.73919675456386 609.1310998224317V558.9530876520462H224.23915618661255V622.1513026621882H212.73919675456386L212.73853144016226 622.1519679765898ZM253.19696551724138 558.9537529664478V563.1252742646222C253.19696551724138 563.1252742646222 262.9231967545639 557.563911181458 271.7725436105477 557.563911181458C289.21775253549697 557.563911181458 293.3886085192698 566.9195622970766 293.3886085192698 588.5296393761842V622.1526332909914H281.88199594320486V588.7831241632025C281.88199594320486 574.1255825810524 280.1149208924949 567.9335014451497 269.3747505070994 567.9335014451497C261.1554563894523 567.9335014451497 253.32004868154158 571.9746211206061 253.32004868154158 571.9746211206061V622.1526332909914H241.69035294117646V558.9544182808495H253.19696551724138V558.9537529664478ZM330.68280730223125 623.5424750759813C316.3951805273834 623.5424750759813 307.4227505070994 616.720341201742 307.4227505070994 590.8096718305453C307.4227505070994 568.3100693964682 315.13507505070993 557.5632458670564 333.7166409736309 557.5632458670564C339.02518458417853 557.5632458670564 347.36090872210957 558.9537529664478 348.75141582150104 559.2072377534662V532.0357975911943H360.25802839756597V622.1519679765898H348.75141582150104V618.3576799441355C348.75141582150104 618.3576799441355 339.2720162271806 623.5424750759813 330.68280730223125 623.5424750759813ZM332.326799188641 613.0498016479894C340.41569168357 613.0498016479894 348.7520811359027 609.1317651368332 348.7520811359027 609.1317651368332V569.0698584431213C347.3615740365112 568.816373656103 339.7796511156187 567.6793513437298 334.471107505071 567.6793513437298C323.22463286004063 567.6793513437298 319.176860040568 575.385022743324 319.176860040568 590.8096718305452C319.176860040568 609.1317651368332 324.73822312373227 613.0498016479894 332.3274645030426 613.0498016479894H332.326799188641ZM425.48345638945233 612.1655988082327 425.73694117647057 621.0149456642166C425.73694117647057 621.0149456642166 411.32623123732253 623.5424750759813 400.586060851927 623.5424750759813C381.7503448275862 623.5424750759813 374.9288762677485 612.9260531692876 374.9288762677485 591.0631566175634C374.9288762677485 567.4265318711132 385.1687302231237 557.5632458670564 401.8468316430021 557.5632458670564C419.1616389452333 557.5632458670564 427.88790263691686 566.6660775100584 427.88790263691686 586.891635319389L427.1274482758621 595.3577610800381H386.6823204868154C386.8060689655172 607.2409416074215 390.7234401622718 613.3032864350077 402.2300527383367 613.3032864350077C411.9629371196754 613.3032864350077 425.48345638945233 612.1662641226344 425.48345638945233 612.1662641226344V612.1655988082327ZM416.3806247464503 586.254929437036C416.3806247464503 572.1036921145208 412.08602028397564 567.296130248395 401.84616632860036 567.296130248395C391.8664503042596 567.296130248395 386.68165517241374 572.6046738589428 386.5579066937119 586.254929437036H416.3799594320486H416.3806247464503ZM521.9280973630832 614.4396434329792 521.5515294117647 623.5424750759812C514.3461744421907 623.5424750759812 509.7980851926978 622.405452763608 505.6265638945233 618.6111647311536C505.6265638945233 618.6111647311536 494.88040567951316 623.5424750759812 484.01049898580123 623.5424750759812C472.003569979716 623.5424750759812 465.68840567951315 616.7203412017419 465.68840567951315 603.7001383619853C465.68840567951315 590.9334203092469 472.5105395537525 586.0014446500177 485.78422718052735 584.8644223376446L503.8594888438134 583.2204304512347V578.1653716277053C503.8594888438134 570.3299639197946 500.44176876267744 567.6786860293281 493.6196348884381 567.6786860293281C484.9006896551724 567.6786860293281 469.72952535496955 569.0691931287196 469.72952535496955 569.0691931287196L469.3529574036511 560.5970795384559C469.3529574036511 560.5970795384559 483.12696146044624 557.5625805526547 494.3800892494928 557.5625805526547C509.2911156186612 557.5625805526547 515.4831967545638 564.137882783892 515.4831967545638 578.1653716277053V608.754531871113C515.7366815415821 612.5488199035674 518.0107261663286 613.9393270029589 521.9287626774848 614.4396434329792H521.9280973630832ZM486.1607951318459 613.8095906946426C494.3800892494929 613.8095906946426 503.85948884381344 610.5222722362246 503.85948884381344 610.5222722362246V591.6932093559001L487.17473427991894 593.2067996195917C480.47634888438137 593.8435055019447 477.4418498985802 597.124836130748 477.4418498985802 603.4466535749671C477.4418498985802 609.8922194978879 480.22286409736313 613.8095906946425 486.1607951318459 613.8095906946425V613.8095906946426ZM544.9346693711968 558.9537529664478V563.1252742646222C544.9346693711968 563.1252742646222 554.6675537525355 557.563911181458 563.5169006085193 557.563911181458C580.9621095334687 557.563911181458 585.1329655172415 566.9195622970766 585.1329655172415 588.5296393761842V622.1526332909914H573.6263529411765V588.7831241632025C573.6263529411765 574.1255825810524 571.8592778904665 567.9335014451497 561.1124543610548 567.9335014451497C552.899813387424 567.9335014451497 545.0644056795132 571.9746211206061 545.0644056795132 571.9746211206061V622.1526332909914H533.4347099391481V558.9544182808495H544.9346693711968V558.9537529664478ZM614.3376064908723 622.1519679765898H602.7079107505072V532.0357975911943H614.3376064908723V622.1519679765898ZM680.1870993914807 612.1655988082327 680.440584178499 621.0149456642166C680.440584178499 621.0149456642166 666.029874239351 623.5424750759813 655.2897038539554 623.5424750759813C636.4539878296146 623.5424750759813 629.6325192697769 612.9260531692876 629.6325192697769 591.0631566175634C629.6325192697769 567.4265318711132 639.8723732251523 557.5632458670564 656.5504746450305 557.5632458670564C673.8652819472618 557.5632458670564 682.5915456389454 566.6660775100584 682.5915456389454 586.891635319389L681.8310912778906 595.3577610800381H641.3859634888439C641.5097119675459 607.2409416074215 645.4270831643004 613.3032864350077 656.9336957403652 613.3032864350077C666.666580121704 613.3032864350077 680.1870993914808 612.1662641226344 680.1870993914808 612.1662641226344L680.1870993914807 612.1655988082327ZM671.0842677484787 586.254929437036C671.0842677484787 572.1036921145208 666.789663286004 567.296130248395 656.5498093306288 567.296130248395C646.570093306288 567.296130248395 641.3852981744421 572.6046738589428 641.2615496957403 586.254929437036H671.0836024340771H671.0842677484787ZM708.25538336714 546.4465075303424H696.6256876267748V533.679789477604H708.25538336714V546.4465075303424ZM696.6256876267748 558.9537529664478H708.25538336714V622.1519679765898H696.6256876267748V558.9537529664478ZM737.1998864097363 558.9537529664478V563.1252742646222C737.1998864097363 563.1252742646222 746.9327707910751 557.563911181458 755.7821176470588 557.563911181458C773.2273265720082 557.563911181458 777.398182555781 566.9195622970766 777.398182555781 588.5296393761842V622.1526332909914H765.891569979716V588.7831241632025C765.891569979716 574.1255825810524 764.124494929006 567.9335014451497 753.3776713995943 567.9335014451497C745.1650304259636 567.9335014451497 737.3296227180527 571.9746211206061 737.3296227180527 571.9746211206061V622.1526332909914H725.6999269776876V558.9544182808495H737.1998864097363V558.9537529664478ZM841.8638215010142 612.1655988082327 842.1173062880324 621.0149456642166C842.1173062880324 621.0149456642166 827.7065963488844 623.5424750759813 816.9664259634889 623.5424750759813C798.130709939148 623.5424750759813 791.3092413793104 612.9260531692876 791.3092413793104 591.0631566175634C791.3092413793104 567.4265318711132 801.5490953346857 557.5632458670564 818.2271967545639 557.5632458670564C835.5420040567952 557.5632458670564 844.2682677484788 566.6660775100584 844.2682677484788 586.891635319389L843.507813387424 595.3577610800381H803.0626855983774C803.1864340770793 607.2409416074215 807.1038052738338 613.3032864350077 818.6104178498987 613.3032864350077C828.3433022312374 613.3032864350077 841.8638215010143 612.1662641226344 841.8638215010143 612.1662641226344L841.8638215010142 612.1655988082327ZM832.7609898580122 586.254929437036C832.7609898580122 572.1036921145208 828.4663853955375 567.296130248395 818.2265314401623 567.296130248395C808.2468154158214 567.296130248395 803.0620202839756 572.6046738589428 802.9382718052738 586.254929437036H832.7603245436105H832.7609898580122ZM869.8083569979716 558.9537529664478V563.1252742646222C869.8083569979716 563.1252742646222 879.5345882352941 557.563911181458 888.383935091278 557.563911181458C905.8291440162272 557.563911181458 910.0 566.9195622970766 910.0 588.5296393761842V622.1526332909914H898.4933874239351V588.7831241632025C898.4933874239351 574.1255825810524 896.7263123732251 567.9335014451497 885.9861419878296 567.9335014451497C877.7668478701826 567.9335014451497 869.9314401622718 571.9746211206061 869.9314401622718 571.9746211206061V622.1526332909914H858.3017444219066V558.9544182808495H869.8083569979716V558.9537529664478ZM213.05721703853953 686.0001951571172H220.89927789046652V766.7667022565087H261.0909208924949V773.8423209177663H213.05721703853953V686.0001951571173V686.0001951571172ZM316.9673509127789 767.1439355222287 317.21418255578095 773.3360166581314C317.21418255578095 773.3360166581314 302.9332089249493 775.1097448528575 293.07724137931035 775.1097448528575C274.2415253549696 774.9800085445411 268.55707910750505 763.6031322767926 268.55707910750505 742.5000247717217C268.55707910750505 718.1029456642166 279.1735010141988 709.3840004309508 294.59149695740365 709.3840004309508C310.89968356997974 709.3840004309508 319.49554563894526 718.1029456642166 319.49554563894526 739.3364547920055L319.242060851927 745.4047874492063H276.2694036511157C276.2694036511157 760.3224669623909 280.56400811359026 768.2816231490035 293.8376957403651 768.2816231490035C303.0636105476674 768.2816231490035 316.96801622718056 767.1446008366303 316.96801622718056 767.1446008366303L316.9673509127789 767.1439355222287ZM311.9063042596349 739.0823046905857C311.9063042596349 722.0203168609712 306.474677484787 715.9519842037703 294.59149695740365 715.9519842037703C283.09153752535497 715.9519842037703 276.2694036511156 722.2738016479893 276.2694036511156 739.0823046905857H311.9063042596349ZM386.7408681541582 768.9110105729387 386.36430020283973 774.9793432301395C380.1722190669371 774.9793432301395 375.49439350912775 773.7185724390645 372.08332657200805 769.9242844066101C372.08332657200805 769.9242844066101 360.2001460446247 775.109079538456 348.3229533468559 775.109079538456C337.1995618661257 775.109079538456 331.00149290060847 768.6575257859205 331.00149290060847 756.0205440414985C331.00149290060847 744.3908483011334 336.81634077079104 738.8288199035675 349.583724137931 737.5687144268941L371.0700527383367 735.4184182808494V729.479821931965C371.0700527383367 719.8766738589428 366.77544827586206 716.2061343051903 358.686555780933 716.2061343051903C349.583724137931 716.2061343051903 334.7964462474645 718.1036109786183 334.7964462474645 718.1036109786183L334.41987829614595 712.0352783214175C334.41987829614595 712.0352783214175 348.3236186612575 709.3846657453527 358.94004056795126 709.3846657453527C372.7140446247464 709.3846657453527 378.5288924949289 716.0830511408901 378.5288924949289 729.4804872463668V763.3503128041762C378.9054604462474 767.1446008366305 382.57001217038527 768.4113594573201 386.74153346855974 768.9116758873405L386.7408681541582 768.9110105729387ZM349.3302393509128 768.6575257859205C359.570093306288 768.6575257859205 371.07005273833676 764.239172844744 371.07005273833676 764.239172844744V741.3623371449468L350.467261663286 743.5066454613767C342.001135902637 744.2670998224315 338.8435537525355 748.3082194978879 338.8435537525355 755.8967955627967C338.8435537525355 763.9856880577257 342.3777038539554 768.6575257859205 349.3302393509128 768.6575257859205ZM417.20627991886414 716.3358706135067C409.37087221095334 716.3358706135067 402.29525354969576 718.4861667595513 402.29525354969576 727.0760409989022C402.29525354969576 733.6513432301394 405.4528356997972 735.5481545891658 419.23349290060855 737.8221992139123C435.4112778904666 740.4728117899772 441.47362271805275 743.3835622970767 441.47362271805275 755.5142397818637C441.47362271805275 770.3021829867319 432.24770791075053 775.1097448528576 417.0831967545639 775.1097448528576C409.3708722109534 775.1097448528576 395.46713184584183 772.8290470840949 395.46713184584183 772.8290470840949L395.9741014198783 766.1306616885574C395.9741014198783 766.1306616885574 410.1313265720081 768.2809578346021 416.57689249492904 768.2809578346021C427.446799188641 768.2809578346021 433.7686166328601 765.7534284228373 433.7686166328601 755.8974608771985C433.7686166328601 748.3088848122896 429.9743286004057 746.6715460698962 415.81710344827593 744.52058460945C401.28264503042595 742.2465399847035 394.58425963488844 739.5892742646223 394.58425963488844 727.328860471519C394.58425963488844 713.5548564147238 405.96113590263695 709.5070835952512 416.9541257606491 709.5070835952512C426.43352535496956 709.5070835952512 439.330645030426 711.6573797412957 439.330645030426 711.6573797412957L439.0771602434077 718.3557651368333C439.0771602434077 718.3557651368333 425.5499878296146 716.335205299105 417.20761054766734 716.335205299105L417.20627991886414 716.3358706135067ZM456.77385801217036 682.5891282199975H464.23269776876265V714.3153107757786C464.23269776876265 714.3153107757786 474.8491196754564 709.3840004309509 484.7050872210953 709.3840004309509C502.01989452332657 709.3840004309509 505.8148478701825 717.4728929258799 505.8148478701825 740.6032134126954V773.842986232168H498.23292494929V740.9797813640139C498.23292494929 722.4042032707075 496.20571196754565 716.2061343051903 483.69247870182556 716.2061343051903C473.8365111561866 716.2061343051903 464.2333630831643 720.5073919116812 464.2333630831643 720.5073919116812V773.842986232168H456.774523326572V682.5897935343992L456.77385801217036 682.5891282199975ZM589.115537525355 773.8423209177663V769.164495359957C589.115537525355 769.164495359957 579.129168356998 775.1097448528576 568.8959675456389 775.1097448528576C558.2795456389451 775.1097448528576 546.6491845841784 771.5689416074215 546.6491845841784 743.000341201742C546.6491845841784 720.8839598629995 553.3475699797159 709.3840004309509 573.1905720081136 709.3840004309509C578.7519350912778 709.3840004309509 586.7177444219066 710.644771222026 589.115537525355 711.0279923173607V682.5897935343992H596.6974604462474V773.842986232168H589.115537525355V773.8423209177663ZM569.6497687626775 768.2809578346021C579.2589046653144 768.2809578346021 589.115537525355 762.8493310597541 589.115537525355 762.8493310597541V717.5959760901801C586.5880081135901 717.2194081388617 578.4991156186613 716.0823858264885 573.4440567951317 716.0823858264885C558.403294117647 716.0823858264885 554.4852576064909 725.6855338995107 554.4852576064909 743.000341201742C554.4852576064909 765.3768604715189 562.3206653144016 768.2809578346021 569.6497687626775 768.2809578346021ZM665.8475780933063 741.3630024593484C665.8475780933063 765.2464588488007 660.5390344827587 775.1097448528575 639.4365922920892 775.1097448528575C618.1970953346855 775.1097448528575 612.8892170385395 765.2471241632023 612.8892170385395 741.3630024593484C612.8892170385395 718.9864831895716 619.8410872210953 709.3840004309508 639.4365922920892 709.3840004309508C658.8957079107505 709.3840004309508 665.8475780933063 718.9871485039731 665.8475780933063 741.3630024593484ZM639.4365922920892 768.4106941429184C655.738125760649 768.4106941429184 658.1419066937119 760.6983695993079 658.1419066937119 741.3630024593484C658.1419066937119 722.4042032707074 653.8406490872211 716.0823858264883 639.4365922920892 716.0823858264883C624.9021338742393 716.0823858264883 620.7312778904666 722.4042032707074 620.7312778904666 741.3630024593484C620.7312778904666 760.6983695993079 623.005322515213 768.4106941429184 639.4365922920892 768.4106941429184ZM679.3814036511156 784.3356596601598C679.3814036511156 776.6233351165492 682.9222068965518 773.3360166581314 689.6212576064909 768.4106941429184C687.4709614604463 767.0201870435269 686.4570223123733 763.732868585109 686.4570223123733 759.8148320739529C686.4570223123733 757.6645359279082 690.5047951318459 749.9522113842977 690.5047951318459 749.9522113842977C685.0665152129818 747.6781667595511 680.1418580121705 742.6231079360218 680.1418580121705 730.8696637169548C680.1418580121705 715.4516677737499 689.2380365111562 709.3833351165491 703.0186937119677 709.3833351165491C709.5873427991888 709.3833351165491 716.2857281947263 711.0273270029589 716.2857281947263 711.0273270029589L734.6144746450307 710.6441059076243V717.3424913031618L721.9774929006087 717.0956596601598C724.6281054766736 719.7462722362246 726.5255821501016 723.4108239603627 726.5255821501016 730.869663716955C726.5255821501016 746.9177123984965 718.5597728194729 751.9794243660422 702.635472616633 751.9794243660422C701.4984503042598 751.9794243660422 697.5804137931036 751.7259395790239 696.1899066937121 751.4724547920057C696.1899066937121 751.4724547920057 693.6623772819474 757.6645359279083 693.6623772819474 759.3078624999164C693.6623772819474 764.7394892747643 694.6756511156187 765.3761951571172 709.7170791075052 765.499943635819C726.90215010142 765.499943635819 733.3537038539555 768.5344426216203 733.3537038539555 783.8286900861234C733.3537038539555 797.9859152382531 723.874304259635 803.7947752788211 705.6693062880325 803.7947752788211C685.3200000000002 803.7947752788211 679.3814036511158 798.99320124231 679.3814036511158 784.3356596601599L679.3814036511156 784.3356596601598ZM705.7990425963488 797.2261261916C719.7027829614603 797.2261261916 725.6413793103447 793.4318381591455 725.6413793103447 784.0821748731415C725.6413793103447 773.3360166581314 721.0932900608519 772.1989943457581 709.2101095334685 772.1989943457581C704.4085354969574 772.1989943457581 694.9291359026369 771.6920247717217 694.9291359026369 771.6920247717217C688.860803245436 775.9932823782125 686.963326572008 778.3904101672591 686.963326572008 783.8286900861233C686.963326572008 793.6846576317622 690.3743935091277 797.2261261916 705.7990425963488 797.2261261916ZM703.0180283975659 745.657606921823C714.6417363083164 745.657606921823 718.8125922920891 741.7395704106668 718.8125922920891 730.8696637169548C718.8125922920891 719.8766738589427 714.6410709939147 715.7051525607682 703.0180283975659 715.7051525607682C692.4016064908722 715.7051525607682 687.846864097363 719.8766738589426 687.846864097363 730.8696637169548C687.846864097363 741.7395704106668 692.4016064908722 745.657606921823 703.0180283975659 745.657606921823ZM765.5861906693711 716.3358706135067C757.7507829614605 716.3358706135067 750.6751643002028 718.4861667595513 750.6751643002028 727.0760409989022C750.6751643002028 733.6513432301394 753.8327464503042 735.5481545891658 767.6134036511156 737.8221992139123C783.7911886409736 740.4728117899772 789.8535334685598 743.3835622970767 789.8535334685598 755.5142397818637C789.8535334685598 770.3021829867319 780.6276186612575 775.1097448528576 765.463107505071 775.1097448528576C757.7507829614605 775.1097448528576 743.8470425963488 772.8290470840949 743.8470425963488 772.8290470840949L744.3540121703854 766.1306616885574C744.3540121703854 766.1306616885574 758.5112373225152 768.2809578346021 764.956803245436 768.2809578346021C775.826709939148 768.2809578346021 782.1485273833671 765.7534284228373 782.1485273833671 755.8974608771985C782.1485273833671 748.3088848122896 778.3542393509127 746.6715460698962 764.197014198783 744.52058460945C749.6625557809331 742.2465399847035 742.9641703853955 739.5892742646223 742.9641703853955 727.328860471519C742.9641703853955 713.5548564147238 754.341046653144 709.5070835952512 765.3340365111562 709.5070835952512C774.8134361054767 709.5070835952512 787.7105557809331 711.6573797412957 787.7105557809331 711.6573797412957L787.4570709939148 718.3557651368333C787.4570709939148 718.3557651368333 773.9298985801217 716.335205299105 765.5875212981745 716.335205299105L765.5861906693711 716.3358706135067Z" fill="#000000"/>
</svg>
