<?xml version="1.0" encoding="UTF-8"?>
<!-- source: Papier-Paper.svg -->
<svg xmlns="http://www.w3.org/2000/svg" viewBox="0 0 1000 1000" width="1000" height="1000">
  <path d="M339.0277275892608 719.4131571495478H323.1330535379114V627.7762569849609H354.9224016406101C375.7421859613916 627.7762569849609 386.9356183919194 636.5071342807726 386.9356183919194 658.9686220246981C386.9356183919194 683.2210589575081 374.9213342498196 692.02655913619 354.9224016406101 692.02655913619H339.02772758926073V719.4877800324181L339.0277275892608 719.4131571495478ZM353.9523041632977 678.8929317510375C364.8472450623447 678.8929317510375 370.6678299262191 674.0424443644755 370.6678299262191 658.5208847274771C370.6678299262191 644.4917827478823 364.8472450623447 640.7606386043732 353.8030583975574 640.7606386043732H339.02772758926085V678.8929317510375H353.95230416329775H353.9523041632977ZM396.487347399303 687.0268259838876C396.487347399303 666.4309103117166 402.00944073169666 651.0585964404585 425.14253442145395 651.0585964404585C434.61964054596746 651.0585964404585 453.94696720934525 653.4465286923044 453.94696720934525 653.4465286923044V701.5036652607033C453.94696720934525 706.204906881525 454.618573155177 719.2639113838072 454.618573155177 719.2639113838072L439.3208821667891 719.7862715638985C439.3208821667891 719.7862715638985 438.57465333808733 714.4134239972452 438.57465333808733 710.0106739079043C438.57465333808733 710.0106739079043 432.0824625283812 720.8309919240811 419.9935555034113 720.8309919240811C402.6810466775285 720.8309919240811 396.48734739930313 709.3390679620726 396.48734739930313 686.9522031010172L396.487347399303 687.0268259838876ZM423.4262081154397 708.5928391333711C432.38095405986195 708.5928391333711 438.5746533380872 697.2501609371029 438.5746533380872 697.2501609371029V664.4907153570919C438.5746533380872 664.4907153570919 429.9183989251458 663.4459949969092 426.56036919598745 663.4459949969092C415.2176909997194 663.4459949969092 412.08352991917167 671.5052663468892 412.08352991917167 687.1014488667578C412.08352991917167 699.9365847204296 414.09834775666656 708.6674620162412 423.4262081154397 708.6674620162412V708.5928391333711ZM485.96018396065455 652.4764312149921 486.1094297263948 659.9387195020106C486.1094297263948 659.9387195020106 493.19860359906244 650.9839735575883 503.94429873236896 650.9839735575883C522.0776592698239 650.9839735575883 528.3459814309194 663.4459949969092 528.3459814309194 685.0866310292628C528.3459814309194 707.9958560704094 520.8090702610307 720.6817461583408 500.5862690032107 720.6817461583408C494.0940781935046 720.6817461583408 486.2586754921352 718.9654198523266 486.2586754921352 718.9654198523266V748.1429670545688H470.9609845037473V652.476431214992H485.96018396065455V652.4764312149921ZM498.7206969314562 708.4435933676307C509.6156378305031 708.4435933676307 512.7497989110509 700.3843220176507 512.7497989110509 685.161253912133C512.7497989110509 672.0276265269804 510.58573530781547 663.371372114039 501.10862918330207 663.371372114039C493.04935783332206 663.371372114039 486.18405260926505 673.3708384186438 486.18405260926505 673.3708384186438V707.2496272417077C486.18405260926505 707.2496272417077 493.2732264819327 708.4435933676307 498.64607404858594 708.4435933676307H498.7206969314562ZM542.0765918790335 626.9554052733889H557.6727743989022V642.4769649103873H542.0765918790335V626.9554052733889ZM557.5235286331617 652.4764312149921V719.3385342666776H542.225837644774V652.476431214992H557.5235286331617V652.4764312149921ZM623.4901570904051 706.2795297643954 623.9378943876261 716.7267333662213C623.9378943876261 716.7267333662213 613.4160679029301 720.7563690412113 600.1331947520373 720.7563690412113C580.1342621428278 720.7563690412113 571.328761964146 710.4584112051258 571.328761964146 687.8476776954599C571.328761964146 666.878647608938 579.388033314126 651.2078422061992 600.6555549321286 651.2078422061992C617.2218349293096 651.2078422061992 626.7735639366933 656.8045584214631 626.7735639366933 670.9829061667982C626.7735639366933 687.6984319297195 614.9831484432041 691.2803303074884 592.5962835821488 691.2803303074884H586.7756987182743V693.4443939107238C586.7756987182743 702.399139855146 591.6261861048363 708.2943476018905 601.25253799509 708.2943476018905C610.8788898853438 708.2943476018905 623.4901570904051 706.2795297643955 623.4901570904051 706.2795297643955V706.2795297643954ZM592.5962835821485 680.4600122913114C605.8045338501713 680.4600122913114 611.5504958311756 678.9675546339076 611.5504958311756 671.1321519325382C611.5504958311756 664.8638297714427 607.8939745705366 662.8490119339477 600.6555549321286 662.8490119339477C590.5814657446538 662.8490119339477 587.074190249755 670.0874315723557 586.9249444840145 680.5346351741816H592.5962835821488L592.5962835821485 680.4600122913114ZM654.8317678958826 652.4764312149921V662.2520288709864C654.8317678958826 662.2520288709864 663.7865138403049 653.5211515751747 674.8307005050922 650.9839735575883V666.1324187802359C665.5028401463192 668.2964823834714 654.9810136616231 674.4155587788264 654.9810136616231 674.4155587788264V719.3385342666776H639.6833226732354V652.476431214992H654.8317678958829L654.8317678958826 652.4764312149921ZM344.99755821887555 879.9269782033153V786.9468661470651H375.7421859613916C396.1888558678222 786.9468661470651 406.4868137039078 795.3792519113958 406.4868137039078 816.2736591150477C406.4868137039078 838.212786678882 395.4426270391204 847.9883843348762 375.8914317271321 847.9883843348762H353.65381263181706V880.0016010861854H344.9975582188756L344.99755821887555 879.9269782033153ZM375.51831731278105 840.6007189307279C389.9951565895969 840.6007189307279 397.4574448766154 833.8100365895411 397.4574448766154 816.1244133493074C397.4574448766154 799.7820020007368 389.7712879409863 794.4837773169537 375.51831731278105 794.4837773169537H353.65381263181695V840.675341813598H375.51831731278105V840.6007189307279ZM417.6056232515653 847.913761452006C417.6056232515653 826.2731254196525 422.97847081821857 811.6470403770963 445.8130729764951 811.6470403770963C453.34998414638386 811.6470403770963 469.9162641435649 813.9603497460721 469.9162641435649 813.9603497460721V864.1069270348363C469.9162641435649 871.0468551417636 470.7371158551369 879.9269782033155 470.7371158551369 879.9269782033155L462.23010720793576 880.2254697347962C462.23010720793576 880.2254697347962 461.55850126210413 873.65865604222 461.55850126210413 867.9126940612157C461.55850126210413 867.9126940612157 453.4992299121241 881.2701900949787 439.84324234688034 881.2701900949787C423.2769623496993 881.2701900949787 417.6056232515653 869.6290203672298 417.6056232515653 847.9883843348762V847.913761452006ZM441.4103228871542 874.181016222311C453.051492614903 874.181016222311 461.55850126210413 859.0325709996634 461.55850126210413 859.0325709996634V820.079426141427C461.55850126210413 820.079426141427 451.0366747774081 818.7362142497636 447.08166198528824 818.7362142497636C430.0676446908862 818.7362142497636 426.4111234302472 829.0341720858491 426.4111234302472 847.9137614520059C426.4111234302472 863.4353210890044 429.2467929793141 874.1063933394406 441.41032288715434 874.1063933394406L441.4103228871542 874.181016222311ZM518.8688753064062 811.6470403770962C537.1514816096014 811.6470403770962 542.0019689961632 825.1537821765996 542.0019689961632 845.6004520830303C542.0019689961632 868.509677124177 534.7635493577554 881.1955672121086 513.9437650369739 881.1955672121086C506.70534539856584 881.1955672121086 498.1983367513648 879.4792409060943 498.1983367513648 879.4792409060943V910.0H489.6913281041637V812.9902522687598H498.04909098562445L498.1983367513648 823.8105702849366C498.1983367513648 823.8105702849366 506.5560996328256 811.6470403770965 518.8688753064059 811.6470403770965L518.8688753064062 811.6470403770962ZM513.1975362082719 874.181016222311C529.0922102596212 874.181016222311 533.3457145832219 864.0323041519657 533.3457145832219 845.6750749659004C533.3457145832219 831.1982356890846 530.9577823313759 818.810837132634 518.1972693605744 818.810837132634C506.8545911643063 818.810837132634 498.1983367513648 832.6906933464884 498.1983367513648 832.6906933464884V872.6885585649073C498.1983367513648 872.6885585649073 506.5560996328256 874.181016222311 513.1975362082719 874.181016222311ZM603.7897160126763 871.4945924389845 604.3866990756378 877.5390459514695C604.3866990756378 877.5390459514695 594.4618556539033 881.1209443292382 581.7013426831015 881.1209443292382C563.5679821456465 881.1209443292382 555.8818252100177 871.1214780246335 555.8818252100177 847.167532623304C555.8818252100177 824.5567991136381 564.538079622959 811.8709090257066 584.3877664664283 811.8709090257066C597.8198853830613 811.8709090257066 606.9238770932241 817.0945108266196 606.9238770932241 829.1087949687194C606.9238770932241 845.0034690200688 596.402050608528 849.4808419922798 572.4481052071985 849.4808419922798H564.538079622959V851.3464140640344C564.538079622959 865.3755160436291 569.6124356581315 874.2556391051811 582.1490799803225 874.2556391051811C592.2231691677976 874.2556391051811 603.8643388955463 871.5692153218544 603.8643388955463 871.5692153218544L603.7897160126763 871.4945924389845ZM572.4481052071988 842.8394054168335C591.178448807615 842.8394054168335 598.416868446023 840.1529816335068 598.416868446023 829.1834178515896C598.416868446023 821.2733922673501 592.8947751136293 818.5869684840234 584.2385207006878 818.5869684840234C570.3586644868335 818.5869684840234 564.8365711544398 827.317845779835 564.538079622959 842.8394054168335H572.4481052071988ZM654.2347848329212 811.6470403770962V820.2286719071675C643.7129583482251 822.6166041590134 630.9524453774236 830.3773839775126 630.9524453774236 830.3773839775126V879.8523553204452H622.4454367302226V812.9902522687596H630.9524453774236V823.4374558705855C630.9524453774236 823.4374558705855 641.6981405107301 814.7065785747739 654.2347848329212 811.6470403770963V811.6470403770962ZM398.35291947105765 90.41687743676047C413.7998562251858 89.14828842796732 440.2163567612312 90.56612320250085 454.0962129750856 97.5806741922982C469.7670183778244 105.41607689366762 487.00490432083706 125.86274680009825 504.1681673809796 127.13133580889135C527.0773924221262 128.84766211490557 541.7034774646825 101.38644121867762 563.0456219655553 96.38670806637523C587.521927546976 90.640746085371 602.3718812381428 111.6843990547631 613.6399365515406 129.51926806073726C629.0122504227986 153.8463278764175 642.1458778079511 180.3374512953331 656.8465857333777 205.18687129110464C673.9352259106499 234.1405498447363 692.8148152768067 262.0495080381854 709.903455454079 290.92856370894697C716.768760678136 302.49511055382555 727.1413413970918 318.9121447852662 728.1860617572743 332.41888658476967C730.7232397748605 365.10370928191065 685.8002642870092 370.99891702865517 662.2194333000309 375.4762900008663C662.8164163629924 381.8938579277022 663.7865138403047 388.684540268889 663.7865138403047 395.1767310785951C663.3387765430837 440.0250836835762 636.1760471783364 454.7257916090026 594.6111014196435 443.15924476412386C591.7754318705765 442.33839305255185 585.954847006702 439.50272350348484 583.7161605205965 439.35347773774436C575.806134936357 438.8311175576531 563.1202448484255 450.39766440253175 559.0159862905655 456.7406094464974C543.867541067918 479.8737031362547 534.614303592015 499.6487670968537 507.15308269578696 511.5138054732131C481.6320567541838 522.5579921380005 427.0827293760787 538.9750263694411 405.44209334372516 515.2449496167224C389.92053370672676 498.2309323223202 399.0245254168893 478.3066225959808 390.89063118403914 458.9046730497329C387.68184722062114 451.21851611410375 382.1597538882275 445.6964227817101 375.81680884426186 440.54744386366747C347.4601133535917 417.4889730567803 316.3423711967246 396.5199429702584 289.4035104805879 371.7451458573571C279.1055526445024 362.1934168499734 264.8525820162971 346.37336568149425 275.44903138386337 331.9711492875486C279.62791282459375 326.2998101894146 288.4334130032755 324.2849923519196 293.5077690384481 318.98676766813645C300.74618867685604 311.4498564982478 299.7014683166734 299.43557235614804 299.4029767851927 289.65997470015384C298.65674795649085 267.2731098390984 291.34370543521277 223.17098606281922 300.82081155972617 203.84365939944138C308.8800829097061 187.35200228513054 335.9681893915832 175.56158679164133 351.1912574971009 166.38297219860863C352.0867320915431 162.05484499213793 353.5791897489468 157.80134066853742 354.6239101091294 153.54783634493685C362.3100670447584 123.25094589964186 358.7281686669896 93.77490716591888 398.20367370531727 90.41687743676056L398.35291947105765 90.41687743676047ZM570.7317789011845 357.86528964350265C576.4031179993185 359.0592557694256 582.223702863193 360.1785990124784 588.0442877270673 360.7755820754399C617.8934408751413 363.98436603885784 678.412598882861 362.3426626157138 704.4559850045555 346.67185721297494C708.1125062651945 344.43317072686943 712.291387705925 341.67212406067256 712.739125003146 336.89625955698074C713.7092224804583 325.8520728921934 700.4263493295655 304.9576656885416 694.531141582821 295.25669091541766C683.263086269423 276.3771015492609 671.0995563615829 258.09449524606566 659.8315010481849 239.1402829970387C638.7878480787929 203.6944136337009 619.5351442982851 165.48749760416632 597.5213938515808 131.01172571814092C587.5965504298463 115.41554319827233 575.7315120534868 102.35653869599 556.4788082729792 114.29619995521952C542.0019689961632 123.32556878251191 533.8680747633132 136.53381905053456 515.2123540457669 139.81722589682275C479.3933702680783 146.0855480579183 468.3491836032909 115.41554319827233 439.320882166789 108.25174644273457C420.8144072149832 103.69975058765331 382.9059827169293 98.77464031822112 375.9660546100022 122.3554713051995C372.60802488084386 133.69814950146758 371.86179605214204 146.98102265236048 369.24999515168554 158.6968152629795C386.1147666803473 152.13000157040324 402.0840636145669 143.10063274311085 419.0234580260988 136.75768769914518C428.6498099163527 133.1011664385061 435.21662360892884 129.51926806073726 442.67891189594735 139.44411148247184C454.245458740826 154.89104823660006 454.4693273894365 192.50098120317318 452.30526378620124 211.0820790378492C448.7979882913026 241.677461014625 437.5299329779046 270.8550082168672 430.1422675737563 300.48029271633055L417.8294919001758 296.5999028070809C428.7244327992228 257.72138083171467 440.1417338783611 216.8280410188534 437.82842450938546 175.93470120599216C437.5299329779046 170.1887392249879 436.18672108624133 162.05484499213776 434.3211490144867 156.6073745426143C433.79878883439545 155.1895397680808 431.2616108168092 148.69734895837473 429.6199073936652 148.9212176069853C416.85939442286355 154.14481940789824 404.2481272178023 159.81615850603225 391.7861057784815 165.56212048703645C377.16002073592534 172.2781799453531 361.6384610989269 179.29273093515047 347.68398200220236 187.05351075364968C339.1769733550013 191.75475237447137 318.80492633144087 203.39592210222014 315.4468966022825 212.2014222809019C310.74565498146086 224.738066603093 312.5366041703453 250.9306984905278 313.1335872333068 264.95980047012256C314.1036847106192 288.7645001057115 321.5659729976377 318.31516172230465 298.3582564250102 334.50832730513474C296.4926843532556 335.8515391967981 287.6871841745738 340.1050435203986 287.3140697602229 340.62740370048994C283.5829256167136 346.5226114472345 296.2688157046451 357.9399125263728 300.22382849676484 361.59643378701185C319.77502380875325 379.80441720733694 343.5797234443422 397.7139090961813 364.69799929660445 414.2801890933623C375.5183173127813 422.78719774056333 393.35318631875543 433.4582699909997 400.8154746057739 444.35321089004674C406.6360594696484 452.8602195372479 410.6656951446383 464.5760121478668 412.00890703630165 474.79934710108216C413.9491019909265 490.47015250382094 409.9194663159364 504.0515171861946 429.54528451079506 508.82738168988647C452.6037553176821 514.4240979051502 501.25787494904256 501.0666018713872 519.5404812522379 485.5450422343887C537.8230875554332 470.0234825973903 542.6735749419952 443.233867646994 564.388833857219 431.07033773915384L532.3756171059097 414.72792639058343L511.4065870193877 405.8478033290314L498.79531981432643 469.12800800294815L488.2734933296304 467.33705881406377C491.7061459416589 446.14416007893124 491.8553917073994 424.42890116370756 496.1088960309998 403.3852481943155C497.8998452198842 394.57974801563364 498.7206969314563 387.1920826114854 510.1379980105946 388.98303180036976C518.6450066577956 390.32624369203313 537.9723333211734 399.579481167936 546.4793419683745 403.5344939600558C568.86620682943 413.9816975618818 605.4314194358205 438.4580031433022 630.3554623144621 429.8017487303608C650.3543949236719 422.9364435063038 648.6380686176574 394.5051251327634 646.4740050144221 377.64035360410173C622.2215680816121 377.3418620726209 597.6706396173213 379.20743414437555 573.9405628646025 373.75996369485216C560.8815583623202 370.7750483800447 555.210219264186 369.7303280198621 556.2549396243687 354.5072599143445C557.225037101681 340.7766494662305 560.80693547945 325.47895847784264 562.3740160197237 311.52447938111806C566.3290288118435 276.52634731500143 568.4930924150788 239.66264317713012 566.8513889919348 204.51526534527318C566.6275203433242 199.51553219297074 565.732045748882 194.44117615779822 565.657422866012 189.36682012262565L576.4777408821888 187.79973958235178C577.1493468280205 187.94898534809215 577.8955756567223 195.18740498650004 578.0448214224625 196.3067482295528C580.0596392599575 216.60417237024308 579.835770611347 236.9015965109333 579.1641646655153 257.19902065162364C578.9402960169048 264.81055470438247 579.014918899775 272.4220887571413 578.5671816025538 280.0336228099002L571.0302704326652 357.5667981120221L570.7317789011845 357.86528964350265ZM366.78744001696947 244.88624497804295C367.53366884567123 251.37843578774897 368.57838920585385 257.9452494803253 369.1753722688153 264.51206317290155C370.9663214576997 285.63033902516383 370.2947155118681 307.12172929177706 370.9663214576997 328.3146280269095C371.11556722344005 333.31436117921186 370.81707569195936 338.3140943315143 370.9663214576997 343.23920460094644C377.98087244749706 342.269107123634 386.7117497433087 336.3738993768894 392.9800719044042 342.642221537985C395.0695126247694 344.7316622583502 398.5021652367979 350.77611577083513 400.1438686599419 353.61178531990214C410.88956379324856 371.37203144300605 418.72496649461783 390.9232267549945 430.66462775384747 408.0118669322669C432.00783964551084 408.68347287809854 437.82842450938523 403.9822312572768 439.1716364010486 403.01213377996453C458.79745459590714 388.2368029716679 471.70721333244916 365.3275779305212 486.9302814379669 346.44798856436444L496.25814179673995 351.1492301851861C479.6918617995589 373.5360950462416 465.81200558570464 403.01213377996453 442.0073059501157 418.6829391827033C423.2769623496992 430.9210919734137 417.1578859543442 415.4741552192853 408.9493688386239 401.594299005431C399.99462289420165 386.5950995485238 392.1592201928323 370.84967126291485 383.80145731137156 355.55198027452695C373.6527452410265 358.387649823594 355.5193847035716 365.7006923448721 355.6686304693119 348.2389377532489C355.7432533521821 339.3588146916969 356.5641050637541 330.18020009866416 356.86259659523483 321.3000770371122C357.68344830680684 296.2267883927301 359.2505288470807 271.07887686547787 356.86259659523483 246.00558822109582L366.78744001696947 244.886244978043V244.88624497804295ZM475.2144888273479 157.65209490279693C489.3182136898128 159.21917544307087 503.7950529666287 163.77117129815213 516.1824515230794 170.78572228794945C534.5396807091447 181.2329258897753 537.076858726731 188.39672264531305 525.8088034133332 206.75395183137852C518.4211380091849 218.76823597347828 508.12318017309934 230.11091416974637 498.27295963423506 240.11038047435108L489.9151967527743 234.1405498447363L514.9138625142862 191.30701507725024C514.6153709828054 187.65049381661117 478.0501583764149 171.0842138194302 472.52806504402116 169.36788751341595L475.28911171021804 157.65209490279693H475.2144888273479Z" fill="#000000"/>
</svg>
