<?xml version="1.0" encoding="UTF-8"?>
<!-- source: Restmuell-Mixed.svg -->
<svg xmlns="http://www.w3.org/2000/svg" viewBox="0 0 1000 1000" width="1000" height="1000">
  <path d="M272.5208689349012 702.2083727487432V736.9908842668884H256.48477596224984V639.0427295372198H289.38511694369885C309.5619850970818 639.0427295372198 320.70443467432307 647.6254271845543 320.70443467432307 670.2114736249083C320.70443467432307 687.3768689195774 314.5309153139596 694.9808378878299 306.3999385954322 698.82046578269L322.8877524968906 736.9908842668884H306.02350448809295L291.56843476626636 702.2083727487432H272.5208689349011H272.5208689349012ZM289.38511694369885 688.4308844201272C299.6994114847938 688.4308844201272 304.2919075943325 682.5585123456352 304.2919075943325 670.1361868034404C304.2919075943325 657.7138612612457 299.6994114847938 652.6696442229 289.38511694369885 652.6696442229H272.52086893490116V688.4308844201272H289.38511694369885ZM384.2465119931858 722.912248652401 384.6982329219929 734.0546982296423C384.6982329219929 734.0546982296423 374.0827910950265 738.3460470533096 360.6817368737498 738.3460470533096C340.50486872036686 738.3460470533096 331.62102378716094 727.354171119004 331.62102378716094 703.1871014278252C331.62102378716094 680.7516286304068 339.7520005056884 663.9626674430771 361.2087446240247 663.9626674430771C377.92241898988675 663.9626674430771 387.55913213777114 669.9856131605047 387.55913213777114 685.118264275542C387.55913213777114 703.0365277848895 375.66381434585134 706.8761556797497 353.07776790549735 706.8761556797497H347.20539583100526V709.134760323785C347.20539583100526 718.6961866502016 352.0990392264153 725.0202796535008 361.81103919576753 725.0202796535008C371.52303916511977 725.0202796535008 384.2465119931859 722.8369618309331 384.2465119931859 722.8369618309331L384.2465119931858 722.912248652401ZM353.00248108402934 695.3572719951692C366.32824848383825 695.3572719951692 372.1253337368624 693.7762487443445 372.1253337368624 685.3441247399455C372.1253337368624 678.6435976293072 368.4362794849379 676.4602798067395 361.1334578025568 676.4602798067395C350.96973690439745 676.4602798067395 347.4312562954087 684.2148224179278 347.28068265247293 695.3572719951692H353.0024810840293H353.00248108402934ZM422.7180777632554 677.1378611999502C417.7491475463776 677.1378611999502 412.85550415096753 679.3964658439857 412.85550415096753 684.9676906326064C412.85550415096753 690.5389154212271 415.8669770096814 692.1199386720518 425.27782969316223 694.3785433160872C440.184620343796 697.9923107465438 448.84260481259827 700.4014890335148 448.84260481259827 715.5341401485521C448.84260481259827 733.3018300149639 438.37773662856756 738.4213338747776 421.965209548577 738.4213338747776C410.5216126854644 738.4213338747776 397.1958452856554 734.8828532657888 397.1958452856554 734.8828532657888L398.02400032180174 722.987535473869C398.02400032180174 722.987535473869 413.75894600858174 725.2461401179044 420.45947311922004 725.2461401179044C429.6444653382974 725.2461401179044 433.1829459472861 723.1381091168047 433.1829459472861 716.9645897564413C433.1829459472861 710.7910703960779 429.6444653382974 709.9629153599315 420.7606204050914 708.0807448232354C405.703256111522 704.7681246786501 397.27113210712315 700.6273494979185 397.27113210712315 686.172279776092C397.27113210712315 669.9856131605048 409.4675971849144 663.8873806216094 421.5887754412377 663.8873806216094C434.76396919811083 663.8873806216094 446.3581397041593 667.2000007661946 446.3581397041593 667.2000007661946L445.7558451324166 679.0953185581144C445.7558451324166 679.0953185581144 432.05364362526853 677.0625743784825 422.5675041203198 677.0625743784825L422.7180777632554 677.1378611999502ZM486.7871628323929 725.3967137608399C491.3796589419316 725.3967137608399 497.47789148082717 724.5685587246936 497.47789148082717 724.5685587246936L498.1554728740378 736.4638765166134C498.1554728740378 736.4638765166134 489.4222015837676 738.647194339181 484.6038450098254 738.647194339181C468.5677520371741 738.647194339181 464.7281241423139 730.5162176206536 464.7281241423139 715.9105742558913V678.8694580937107H456.59714742378645V665.5436906939019H464.7281241423139V645.9691171122618H480.1619225432225V665.5436906939019H497.62846512376285V678.8694580937107H480.1619225432225V715.0071323982771C480.1619225432225 721.3312254015763 481.44179850817585 725.4720005823078 486.7118760109251 725.4720005823078L486.7871628323929 725.3967137608399ZM539.1115037525465 677.0625743784824C531.6581084272295 677.0625743784824 524.3552867448484 687.6780162054487 524.3552867448484 687.6780162054487V736.9908842668883H508.92148834394V665.4684038724339H524.0541394589773L524.2047131019128 674.0511015197684C524.2047131019128 674.0511015197684 531.9592557131011 663.8873806216092 542.9511316474066 663.8873806216092C557.2556277262975 663.8873806216092 561.5469765499647 675.0298301988505 561.5469765499647 675.0298301988505C561.5469765499647 675.0298301988505 570.9578292334456 663.8873806216092 582.024991989219 663.8873806216092C598.2116586048062 663.8873806216092 604.7616120725088 676.3097061638039 604.7616120725088 694.453830137555V736.9155974454205H589.3278136716001V696.5618611386546C589.3278136716001 682.7090859885708 586.6174880987578 676.9872875570146 578.3359377372947 676.9872875570146C570.7319687690422 676.9872875570146 564.7843098730823 686.3981402404954 564.7843098730823 686.3981402404954C564.7843098730823 686.3981402404954 565.386604444825 691.517644100309 565.386604444825 695.9595665669119V736.8403106239526H549.8022324009808V697.9170239250759C549.8022324009808 682.4832255241673 547.242480471074 676.9120007355466 539.1867905740144 676.9120007355466L539.1115037525465 677.0625743784824ZM620.7977050451602 665.468403872434H636.2315034460687V705.8221401791999C636.2315034460687 719.6749153292836 639.0924026618468 725.3967137608399 647.2233793803744 725.3967137608399C654.9779219915624 725.3967137608399 662.130170031008 714.8565587553413 662.130170031008 714.8565587553413V665.5436906939018H677.5639684319165V737.0661710883562H662.4313173168794L662.2807436739436 728.4834734410216C662.2807436739436 728.4834734410216 654.8273483486269 738.6471943391809 643.5343251284498 738.6471943391809C627.3476585128628 738.6471943391809 620.7977050451602 728.4834734410216 620.7977050451602 709.8876285384636V665.5436906939018V665.468403872434ZM642.5555964493678 633.0950706412599V649.808745007122H628.4016740134125V633.0950706412599H642.5555964493678ZM656.709518885323 633.0950706412599H670.5622940354069V649.808745007122H656.709518885323V633.0950706412599ZM710.4643094133655 635.6548225711666V736.9155974454205H694.8799373695213V635.6548225711666H710.4643094133655ZM743.5152240377504 635.6548225711666V736.9155974454205H727.9308519939061V635.6548225711666H743.5152240377504ZM389.51658949593497 897.0506667075305 417.44800026050603 809.2662328760211H433.33351959022167V908.6448372135787H424.90139558582285V817.0960623086772H423.01922504912665L395.0125274630877 905.3322170689935H384.02065152878214L356.01395394274317 817.0960623086772H354.13178340604696V908.6448372135787H345.69965940164815V809.266232876021H361.58517873136384L389.59187631740286 897.0506667075305H389.51658949593497ZM454.4138296012189 809.0403724116177H463.29767453442486V820.182821988859H454.4138296012189V809.0403724116177ZM463.14710089148906 908.569550392111H454.56440324415456V837.0470699976566H463.14710089148906V908.569550392111ZM519.9886510997135 837.0470699976566H528.7219223899835L507.41575191458304 872.9588838378196L528.7219223899835 908.569550392111H519.6875038138419L502.52210851917295 879.5088373055221L485.35671322450384 908.569550392111H476.47286829129786L497.77903876669853 873.1094574807552L476.3222946483622 837.0470699976565H485.35671322450384L502.8232558050442 866.6347908345202L519.9886510997133 837.0470699976564L519.9886510997135 837.0470699976566ZM585.7893330626114 899.6104186374372 586.3916276343541 906.0850852836721C586.3916276343541 906.0850852836721 576.3784803791305 909.9247131785323 563.5044339081287 909.9247131785323C545.2097362914419 909.9247131785323 537.4551936802538 899.2339845300982 537.4551936802538 873.6364652310302C537.4551936802538 849.4693955398515 546.1884649705239 835.8424808541712 566.2147594809712 835.8424808541712C579.7663873451836 835.8424808541712 588.9513795642608 841.4137056427918 588.9513795642608 854.2877521137937C588.9513795642608 871.302573765527 578.3359377372944 876.0456435180013 554.1688680461157 876.0456435180013H546.1884649705239V878.0783876976332C546.1884649705239 893.1357519912026 551.3079688303376 902.5466046746834 563.9561548369356 902.5466046746834C574.1198757350949 902.5466046746834 585.864619884079 899.6857054589052 585.864619884079 899.6857054589052L585.7893330626114 899.6104186374372ZM554.1688680461157 868.9686823000237C573.0658602345454 868.9686823000237 580.3686819169263 866.1077830842455 580.3686819169263 854.3630389352614C580.3686819169263 845.9309149308626 574.7974571283057 843.0700157150844 566.0641858380354 843.0700157150844C552.0608370450161 843.0700157150844 546.4896122563955 852.3302947556297 546.1884649705239 868.9686823000237H554.1688680461157ZM624.260898832681 910.0000000000001C607.095503538012 910.0000000000001 601.9759996781984 895.9966512069805 601.9759996781984 873.7870388739658C601.9759996781984 849.0176746110442 609.4293950035153 835.7671940327032 629.8321236213019 835.7671940327032C637.4360925895544 835.7671940327032 646.2446507012924 837.4987909264637 646.2446507012924 837.4987909264637V805.2760313382253H654.6767747056913V908.569550392111H646.2446507012924V897.1259535289983C646.2446507012924 897.1259535289983 637.9631003398292 910.0000000000001 624.1856120112134 910.0000000000001H624.260898832681ZM626.3689298337808 902.4713178532154C637.8125266968934 902.4713178532154 646.2446507012924 887.5645272025819 646.2446507012924 887.5645272025819V844.8016126088448C646.2446507012924 844.8016126088448 637.6619530539579 843.2205893580201 630.3591313715767 843.2205893580201C615.0759066136038 843.2205893580201 610.7845577899366 854.3630389352614 610.7845577899366 873.7870388739658C610.7845577899366 889.2208372748744 613.1937360769075 902.3960310317476 626.3689298337808 902.3960310317476V902.4713178532154ZM633.9728988020333 498.63280749968567C633.3706042302906 503.3005904306923 632.0154414438693 508.8718152193129 631.1119995862553 511.8832880780268C609.052960896176 521.5200012259112 580.3686819169266 520.1648384394899 555.9757517613441 522.047008976186C518.257054205953 523.3268849411395 480.38778300762596 523.1010244767359 442.7443722737026 521.1435671185718C419.4807444401379 519.6378306892149 396.14182978510553 518.5085283671973 373.93221745209075 512.6361562927052C371.2218918792483 511.732714435091 366.25296166237035 510.22697800573417 365.04837251888483 508.6459547549093C357.2185430862288 483.0484354558414 356.9173958003574 455.5687456200774 354.3576438704506 428.8419239989919C349.1628531891692 353.3292420667416 347.05482218806947 277.36483920568423 344.8715043655019 201.55100998756262L332.2986051803715 201.70158363049836C332.97618657358214 277.8165601344914 334.93364393174613 353.7056761740809 339.75200050568833 429.8206526780739C341.9353183282559 456.1710401918202 342.9140470073379 483.1237222773094 349.3134268321049 509.0976756837165C350.21686868971904 512.1091485424305 351.49674465467245 515.7982027943549 353.52948883430435 518.2826679027938C358.6489926941179 524.0044663343502 363.6179229109958 524.9079081919643 369.6408686284235 527.015939193064C393.3562173907953 533.2647453748953 417.9750080107811 534.394047696913 441.9162172375563 535.89978412627C480.1619225432225 537.7819546629661 518.257054205953 537.857241484434 556.5027595116189 536.4267918765448C575.0233175927092 534.4693345183808 638.7159685545078 536.2762182336091 644.5130538075318 516.0240632587585C652.1170227757843 487.33978427950876 651.4394413825737 458.12849754998433 653.5474723836735 428.99249764192757C656.8600925282587 352.8775211379346 657.2365266355978 276.91311827687724 657.2365266355978 200.7981417728842C657.2365266355978 200.7981417728842 644.8894879148711 200.7981417728842 644.8894879148711 200.7981417728842C643.1578910211106 300.02617246750617 644.5130538075318 399.8564977338709 634.048185623501 498.5575206782179L633.9728988020333 498.63280749968567ZM576.4537672005983 150.95826596116956C573.0658602345454 135.22332027438955 565.0854571589537 106.0873203663329 551.8349765806126 98.85978550541961C537.379906858786 90.95466925129568 501.84452712596243 90.72880878689216 496.04744187293824 90.80409560836C488.14232561881437 89.97594057221369 453.2845272792012 87.34090182083904 439.7328994149888 99.91380100596945C428.96688394508675 109.85166143972523 420.6100467621557 138.0089326686999 417.1468529746348 151.10883960410519C382.66548874236105 151.5605605329123 348.33469815302294 152.3134287475907 314.4556284924919 153.3674442481406V159.61625042997184C344.87150436550195 160.74555275198952 375.3626670599799 161.27256050226447 405.7785429329899 161.72428143107157C458.8557520678218 162.70301011015357 534.5942944644758 162.3265760028143 588.424371813986 161.9501418954751C618.8402476869962 161.498420966668 649.3314103814741 160.9714132163931 679.7472862544842 159.76682407290758V153.29215742667276C645.7176429510175 152.16285510465508 611.0857050758079 151.4852737114444 576.3784803791305 151.0335527826374L576.4537672005983 150.95826596116956ZM432.80651183994684 150.88297913970172C437.0978606636141 135.59975438172881 443.8736745957203 116.62747537183145 449.97190713461583 110.98096376174294C456.52186060231855 104.88273122284738 480.2372093646903 104.2804366511046 494.91813955092033 105.86145990192938H495.74629458706664C509.8249302015541 105.71088625899367 535.9494572508968 107.3671963312863 544.6827285411671 112.11026608376062C549.9528060439163 114.9711652995388 556.7286199760224 132.88942880888635 561.0199687996899 150.80769231823382C518.3323410274206 150.3559713894267 475.494139612216 150.4312582108946 432.88179866141473 150.95826596116956L432.80651183994684 150.88297913970172Z" fill="#000000"/>
</svg>
