<?xml version="1.0" encoding="UTF-8"?><svg id="Ebene_2" xmlns="http://www.w3.org/2000/svg" viewBox="0 0 28.3464 28.3466"><g id="Components"><path id="f1c3d8bd-e0c5-48f1-8d96-bd16cdb735b8_4" d="m14.1732,0C6.3456,0,0,6.3456,0,14.1732s6.3456,14.1733,14.1732,14.1733,14.1732-6.3457,14.1732-14.1733S22.001,0,14.1732,0Zm-4.5201,22.2477h-2.0254s.0042-.491.0066-.7086c.0056-.385-.1166-.7142-.3035-1.0304-.0873-.1481-.4924-.6616-.5701-.7878l1.9048-1.3533s.8921,1.49.9713,2.0125c.0801.5225.0162,1.8677.0162,1.8677Zm1.0417-.0007l-.0178-2.1782c-.0283-1.3208-3.025-5.0471-3.025-5.0471l3.389-3.9956s2.4766,3.9592,2.4766,4.8845l.0388,6.3364h-2.8616Zm8.866.0004h-4.8547l.0057-6.2604c.0024-.4053-.0695-.7837-.1957-1.1631-.3843-1.1567-3.127-6.8104-3.127-6.8104l8.1716-2.8082v17.0421Z"/></g></svg>